<svg xmlns="http://www.w3.org/2000/svg" fill="none" viewBox="0 0 109 32" height="32" width="109">
<path fill="#020203" d="M107.284 30.3778C105.733 30.6156 103.858 31.048 98.1032 31.048C91.8101 31.048 86.9395 29.34 86.9395 21.1025V10.8976C86.9395 2.66017 91.8317 0.952148 98.1032 0.952148C103.858 0.952148 105.733 1.38456 107.284 1.62239C108.017 1.70887 108.254 1.96832 108.254 2.63855V5.75192C108.254 6.29243 107.823 6.72484 107.284 6.72484H97.4136C94.6119 6.72484 93.5989 7.69777 93.5989 10.8976V12.8435H106.702C107.241 12.8435 107.672 13.2759 107.672 13.8164V17.3189C107.672 17.8594 107.241 18.2919 106.702 18.2919H93.5989V21.1241C93.5989 24.324 94.6119 25.2969 97.4136 25.2969H107.284C107.823 25.2969 108.254 25.7293 108.254 26.2698V29.3832C108.254 30.0534 108.017 30.2913 107.284 30.3778Z"></path>
<path fill="#020203" d="M50.4524 2.63867L45.6679 29.5347C45.5601 30.0319 45.1722 30.4644 44.698 30.4644H44.2024C43.7713 30.4644 43.5127 30.1184 43.5127 29.7293C43.5127 29.6212 43.5127 29.5779 43.5127 29.5347L48.2972 2.63867C48.4049 2.1414 48.7929 1.70898 49.267 1.70898H49.7627C50.1937 1.70898 50.4524 2.05491 50.4524 2.44408C50.4524 2.53057 50.4524 2.57381 50.4524 2.63867Z"></path>
<path fill="#020203" d="M38.2327 2.53057L34.2888 26.5294C33.8578 29.5779 32.4569 30.4644 29.9353 30.4644H27.3276C25.1509 30.4644 23.9871 29.4049 23.319 26.5943L19.5043 14.53C19.4181 14.0976 19.4181 13.9895 19.2241 13.9895C19.0302 13.9895 18.9871 14.076 18.8793 14.53L15.0647 26.5943C14.3965 29.4049 13.2328 30.4644 11.056 30.4644H8.40517C5.88362 30.4644 4.48276 29.5995 4.05172 26.5294L0 2.53057C0 2.48733 0 2.44409 0 2.37922C0 1.94681 0.387931 1.70898 0.818965 1.70898H5.94827C6.33621 1.70898 6.72414 2.05491 6.76724 2.57381L9.76293 23.8485C9.80603 24.2809 9.80603 24.5836 10 24.5836C10.194 24.5836 10.194 24.3025 10.2802 23.8485L14.4397 10.768C14.7198 9.6005 15.4095 8.58433 17.4784 8.58433H20.819C22.8879 8.58433 23.5776 9.6005 23.8578 10.768L28.0172 23.8485C28.1034 24.2809 28.1034 24.5836 28.2974 24.5836C28.4914 24.5836 28.4914 24.3025 28.5345 23.8485L31.4655 2.57381C31.5086 2.03329 31.8965 1.70898 32.2845 1.70898H37.4138C37.8448 1.70898 38.2327 1.94681 38.2327 2.37922C38.2327 2.42246 38.2327 2.46571 38.2327 2.53057Z"></path>
<path fill="#020203" d="M79.5904 1.68726H79.0086C78.5129 1.68726 78.168 2.11967 78.0818 2.61694L73.6422 27.9779C73.5991 28.1725 73.3405 28.3671 73.2973 28.3671H73.2758C73.2542 28.3671 73.2542 28.3671 73.2327 28.3671C73.0818 28.3454 73.0387 28.2157 72.9956 28.0427L65.0215 3.22232C64.7198 2.37911 64.0948 1.70888 62.8232 1.70888C62.7586 1.70888 62.6939 1.70888 62.6292 1.70888C62.6077 1.70888 62.5646 1.70888 62.543 1.70888C61.5732 1.81698 60.4525 2.44398 60.1508 4.08714L55.6465 29.5129C55.6465 29.5562 55.6465 29.621 55.6465 29.7075C55.6465 30.0967 55.8835 30.4426 56.3361 30.4426H56.8318C57.3275 30.4426 57.7155 30.0102 57.8017 29.5129L62.2844 4.08714C62.3275 3.87093 62.4353 3.78445 62.5215 3.76283C62.543 3.76283 62.543 3.74121 62.5646 3.74121C62.5861 3.74121 62.5861 3.74121 62.6077 3.74121C62.7801 3.76283 62.9525 3.89255 62.9956 4.08714L70.9913 28.8643C71.3792 30.0967 72.0258 30.4426 73.2327 30.4426H73.2542C74.4611 30.421 75.5387 29.5562 75.8189 27.9995L80.2801 2.63856C80.2801 2.59532 80.2801 2.48722 80.2801 2.44398C80.2801 2.03319 80.0861 1.68726 79.5904 1.68726Z"></path>
</svg>
