<?xml version="1.0" standalone="no"?>
<!DOCTYPE svg PUBLIC "-//W3C//DTD SVG 1.1//EN" "http://www.w3.org/Graphics/SVG/1.1/DTD/svg11.dtd" >
<svg xmlns="http://www.w3.org/2000/svg" xmlns:xlink="http://www.w3.org/1999/xlink" version="1.1">
<metadata>
Created by FontForge 20201107 at Tue Apr 30 14:31:09 2024
 By 
Copyright 2004 Monotype Imaging, Inc. All rights reserved.
</metadata>
<defs>
<font id="NeoSansPro-UltraItalic" horiz-adv-x="1372" >
  <font-face 
    font-family="Neo Sans Pro Ultra"
    font-weight="900"
    font-style="italic"
    font-stretch="normal"
    units-per-em="2048"
    panose-1="2 11 11 4 3 5 4 11 2 4"
    ascent="1567"
    descent="-481"
    x-height="1208"
    cap-height="1522"
    bbox="-338 -444 3525 2124"
    underline-thickness="204"
    underline-position="-163"
    slope="-12"
    unicode-range="U+0020-FB04"
  />
<missing-glyph horiz-adv-x="1024" 
d="M25 0v1362h972v-1362h-972zM180 1266l332 -498l330 498h-662zM123 1178v-992q0 -1 82.5 123t164.5 249l83 124zM901 1178l-332 -496l332 -498v994zM842 98l-330 496l-332 -496h662z" />
    <glyph glyph-name="f_b" unicode="fb" horiz-adv-x="2181" 
d="M1210 1300h-256q-22 0 -32 -1t-21 -7.5t-17 -21t-10 -39.5l-4 -23h140q23 0 30.5 -9t3.5 -34l-43 -247q-7 -46 -51 -46h-141l-150 -856q-17 -100 -46.5 -171.5t-67 -116t-92.5 -70t-114 -34.5t-140 -9q-84 0 -193 23q-41 8 -35 43l39 223q3 22 13.5 32.5t37.5 10.5h60
q22 0 32 1t21 7.5t17 21t10 39.5l149 856l-131 19q-44 4 -37 45l39 229q7 43 53 43h136l4 27q15 100 44 171t67 115t94.5 68.5t116 33.5t141.5 9q194 0 446 -37h350q45 0 37 -43l-59 -333q48 10 112 10q235 0 356.5 -118t121.5 -310q0 -45 -11 -117l-28 -160
q-98 -544 -660 -544q-225 0 -475 49q-44 9 -58.5 25t-9.5 46zM1782 750q0 49 -22.5 75.5t-76.5 26.5q-49 0 -98 -6l-86 -484q58 -6 111 -6q67 0 94 40.5t43 127.5l29 160q6 35 6 66z" />
    <glyph glyph-name="f_f_b" unicode="ffb" horiz-adv-x="2965" 
d="M2566 750q0 49 -22 75.5t-76 26.5q-48 0 -98 -6l-86 -484q59 -6 110 -6q67 0 94 40.5t43 127.5l29 160q6 35 6 66zM2499 1552l-64 -333q48 10 113 10q235 0 356 -118t121 -310q0 -52 -10 -117l-29 -160q-98 -544 -659 -544q-226 0 -476 49q-44 9 -58 24.5t-9 46.5
l213 1200h-254q-22 0 -32 -1t-21 -7.5t-17 -21t-10 -39.5l-4 -23h139q24 0 31.5 -9.5t3.5 -33.5l-43 -247q-7 -46 -51 -46h-142l-149 -856q-22 -125 -60 -205t-98.5 -122.5t-130 -58t-172.5 -15.5q-83 0 -192 23q-41 8 -35 43l39 223q3 22 13.5 32.5t37.5 10.5h59q22 0 32 1
t21 7.5t17 21t10 39.5l150 856h-330l-150 -856q-17 -100 -46.5 -171.5t-67 -116t-92.5 -70t-114 -34.5t-140 -9q-84 0 -193 23q-41 8 -35 43l39 223q3 22 13.5 32.5t37.5 10.5h60q22 0 32 1t21 7.5t17 21t10 39.5l149 856l-131 19q-44 4 -37 45l39 229q7 43 53 43h136l4 27
q15 100 44 171t67 115t94.5 68.5t116 33.5t141.5 9q99 0 204 -22q27 -6 32.5 -14.5t2.5 -28.5l-39 -224q-3 -21 -14 -32t-37 -11h-72q-22 0 -32 -1t-21 -7.5t-17 -21t-10 -39.5l-4 -23h328l4 27q15 100 44 171t67 115t94.5 68.5t116 33.5t141.5 9q194 0 446 -37h351
q45 0 37 -43z" />
    <glyph glyph-name="f_f_h" unicode="ffh" horiz-adv-x="2996" 
d="M2494 1552l-63 -360q143 33 207 36q17 1 35 1q179 0 271.5 -96t92.5 -263q0 -66 -10 -120l-125 -705q-7 -45 -51 -45h-369q-46 0 -37 45l123 698q4 28 4 37q0 36 -22 51t-74 15q-50 0 -109 -12l-139 -789q-2 -15 -5.5 -23.5t-14.5 -15t-29 -6.5h-369q-46 0 -38 45
l223 1255h-254q-22 0 -32 -1t-21 -7.5t-17 -21t-10 -39.5l-4 -23h139q24 0 31.5 -9.5t3.5 -33.5l-43 -247q-7 -46 -51 -46h-142l-149 -856q-22 -125 -60 -205t-98.5 -122.5t-130 -58t-172.5 -15.5q-83 0 -192 23q-41 8 -35 43l39 223q3 22 13.5 32.5t37.5 10.5h59q22 0 32 1
t21 7.5t17 21t10 39.5l150 856h-328l-150 -856q-17 -100 -46.5 -171.5t-67 -116t-92.5 -70t-114 -34.5t-140 -9q-84 0 -193 23q-41 8 -35 43l39 223q3 22 13.5 32.5t37.5 10.5h60q22 0 32 1t21 7.5t17 21t10 39.5l149 856l-131 19q-44 4 -37 45l39 229q7 43 53 43h136l4 27
q15 100 44 171t67 115t94.5 68.5t116 33.5t141.5 9q99 0 204 -22q27 -6 32.5 -14.5t2.5 -28.5l-39 -224q-3 -21 -14 -32t-37 -11h-72q-22 0 -32 -1t-21 -7.5t-17 -21t-10 -39.5l-4 -23h326l4 27q15 100 44 171t67 115t94.5 68.5t116 33.5t141.5 9q194 0 446 -37h349
q44 0 36 -43z" />
    <glyph glyph-name="f_f_j" unicode="ffj" horiz-adv-x="2334" 
d="M1657 1208h739q45 0 37 -43l-209 -1188q-20 -115 -61 -196t-100.5 -126t-127 -65t-151.5 -20q-89 0 -215 22q-43 7 -35 46l39 221q3 22 13.5 32.5t37.5 10.5h86q26 0 37 18.5t18 56.5l158 895h-328l-149 -856q-22 -125 -60 -205t-98.5 -122.5t-130 -58t-172.5 -15.5
q-83 0 -192 23q-41 8 -35 43l39 223q3 22 13.5 32.5t37.5 10.5h59q22 0 32 1t21 7.5t17 21t10 39.5l150 856h-328l-150 -856q-17 -100 -46.5 -171.5t-67 -116t-92.5 -70t-114 -34.5t-140 -9q-84 0 -193 23q-41 8 -35 43l39 223q3 22 13.5 32.5t37.5 10.5h60q22 0 32 1
t21 7.5t17 21t10 39.5l149 856l-131 19q-44 4 -37 45l39 229q7 43 53 43h136l4 27q15 100 44 171t67 115t94.5 68.5t116 33.5t141.5 9q99 0 204 -22q27 -6 32.5 -14.5t2.5 -28.5l-39 -224q-3 -21 -14 -32t-37 -11h-72q-22 0 -32 -1t-21 -7.5t-17 -21t-10 -39.5l-4 -23h326
l4 27q15 100 44 171t67 115t94.5 68.5t116 33.5t141.5 9q101 0 205 -22q27 -6 32.5 -14.5t2.5 -28.5l-39 -224q-7 -43 -52 -43h-71q-22 0 -32 -1t-21 -7.5t-17 -21t-10 -39.5zM2421 1300h-387q-21 0 -32 10.5t-7 32.5l37 209q7 43 53 43h387q48 0 41 -43l-37 -209
q-7 -43 -55 -43z" />
    <glyph glyph-name="f_f_k" unicode="ffk" horiz-adv-x="3031" 
d="M2492 1552l-147 -843l311 456q18 28 34.5 35.5t39.5 7.5h418q17 0 24.5 -10t4.5 -22.5t-11 -20.5l-422 -541l236 -561q8 -19 -2 -36t-35 -17h-418q-22 0 -35.5 8.5t-21.5 36.5l-158 485l-84 -485q-7 -45 -49 -45h-367q-46 0 -38 45l223 1255h-254q-22 0 -32 -1t-21 -7.5
t-17 -21t-10 -39.5l-4 -23h139q24 0 31.5 -9.5t3.5 -33.5l-43 -247q-7 -46 -51 -46h-142l-149 -856q-22 -125 -60 -205t-98.5 -122.5t-130 -58t-172.5 -15.5q-83 0 -192 23q-41 8 -35 43l39 223q3 22 13.5 32.5t37.5 10.5h59q22 0 32 1t21 7.5t17 21t10 39.5l150 856h-328
l-150 -856q-17 -100 -46.5 -171.5t-67 -116t-92.5 -70t-114 -34.5t-140 -9q-84 0 -193 23q-41 8 -35 43l39 223q3 22 13.5 32.5t37.5 10.5h60q22 0 32 1t21 7.5t17 21t10 39.5l149 856l-131 19q-44 4 -37 45l39 229q7 43 53 43h136l4 27q15 100 44 171t67 115t94.5 68.5
t116 33.5t141.5 9q99 0 204 -22q27 -6 32.5 -14.5t2.5 -28.5l-39 -224q-3 -21 -14 -32t-37 -11h-72q-22 0 -32 -1t-21 -7.5t-17 -21t-10 -39.5l-4 -23h326l4 27q15 100 44 171t67 115t94.5 68.5t116 33.5t141.5 9q194 0 446 -37h347q44 0 36 -43z" />
    <glyph glyph-name="f_h" unicode="fh" horiz-adv-x="2209" 
d="M1708 1552l-63 -360q2 1 27.5 6.5t29 6.5t25 5.5t27.5 5.5l24 4t27.5 4t25 2.5t28.5 2t27 0.5q179 0 272 -96t93 -263q0 -66 -10 -120l-125 -705q-7 -45 -52 -45h-368q-46 0 -37 45l123 698q4 28 4 37q0 36 -22 51t-74 15q-50 0 -109 -12l-139 -789q-2 -15 -5.5 -23.5
t-14.5 -15t-29 -6.5h-369q-47 0 -39 45l221 1255h-254q-22 0 -32 -1t-21 -7.5t-17 -21t-10 -39.5l-2 -23h140q23 0 30.5 -9t3.5 -34l-43 -247q-7 -46 -51 -46h-141l-150 -856q-17 -100 -46.5 -171.5t-67 -116t-92.5 -70t-114 -34.5t-140 -9q-84 0 -193 23q-41 8 -35 43
l39 223q3 22 13.5 32.5t37.5 10.5h60q22 0 32 1t21 7.5t17 21t10 39.5l149 856l-131 19q-44 4 -37 45l39 229q7 43 53 43h134l4 27q15 100 44 171t67 115t94 68.5t115.5 33.5t141.5 9q195 0 447 -37h350q45 0 37 -43z" />
    <glyph glyph-name="f_j" unicode="fj" horiz-adv-x="1548" 
d="M870 1208h740q45 0 37 -43l-209 -1188q-20 -115 -61.5 -196t-100.5 -126t-127 -65t-152 -20q-89 0 -215 22q-42 7 -34 46l38 221q3 21 14 32t38 11h86q26 0 37 18.5t18 56.5l158 895h-328l-150 -856q-17 -100 -46.5 -171.5t-67 -116t-92.5 -70t-114 -34.5t-140 -9
q-84 0 -193 23q-41 8 -35 43l39 223q3 22 13.5 32.5t37.5 10.5h60q22 0 32 1t21 7.5t17 21t10 39.5l149 856l-131 19q-44 4 -37 45l39 229q7 43 53 43h136l4 27q15 100 44 171t67 115t94.5 68.5t116 33.5t141.5 9q99 0 204 -22q27 -6 32.5 -14.5t2.5 -28.5l-39 -224
q-3 -21 -14 -32t-37 -11h-72q-22 0 -32 -1t-21 -7.5t-17 -21t-10 -39.5zM1634 1300h-387q-21 0 -32 10.5t-7 32.5l37 209q7 43 53 43h388q47 0 40 -43l-36 -209q-7 -43 -56 -43z" />
    <glyph glyph-name="f_k" unicode="fk" horiz-adv-x="2248" 
d="M1210 1300h-256q-22 0 -32 -1t-21 -7.5t-17 -21t-10 -39.5l-4 -23h140q23 0 30.5 -9t3.5 -34l-43 -247q-7 -46 -51 -46h-141l-150 -856q-17 -100 -46.5 -171.5t-67 -116t-92.5 -70t-114 -34.5t-140 -9q-84 0 -193 23q-41 8 -35 43l39 223q3 22 13.5 32.5t37.5 10.5h60
q22 0 32 1t21 7.5t17 21t10 39.5l149 856l-131 19q-44 4 -37 45l39 229q7 43 53 43h136l4 27q15 100 44 171t67 115t94.5 68.5t116 33.5t141.5 9q194 0 446 -37h348q47 0 39 -43l-147 -843l311 456q18 28 34.5 35.5t39.5 7.5h417q26 0 29.5 -20.5t-10.5 -32.5l-422 -541
l236 -561q8 -19 -2 -36t-35 -17h-418q-22 0 -35.5 8.5t-21.5 36.5l-158 485l-84 -485q-7 -45 -49 -45h-367q-47 0 -39 45z" />
    <glyph glyph-name="f_f" unicode="ff" horiz-adv-x="1660" 
d="M1663 1632q101 0 205 -22q27 -6 32.5 -14.5t2.5 -28.5l-39 -224q-7 -43 -52 -43h-71q-22 0 -32 -1t-21 -7.5t-17 -21t-10 -39.5l-4 -23h139q24 0 31.5 -9.5t3.5 -33.5l-43 -247q-7 -46 -51 -46h-142l-149 -856q-22 -125 -60 -205t-98.5 -122.5t-130 -58t-172.5 -15.5
q-83 0 -192 23q-41 8 -35 43l39 223q3 22 13.5 32.5t37.5 10.5h59q22 0 32 1t21 7.5t17 21t10 39.5l150 856h-328l-150 -856q-17 -100 -46.5 -171.5t-67 -116t-92.5 -70t-114 -34.5t-140 -9q-84 0 -193 23q-41 8 -35 43l39 223q3 22 13.5 32.5t37.5 10.5h60q22 0 32 1
t21 7.5t17 21t10 39.5l149 856l-131 19q-44 4 -37 45l39 229q7 43 53 43h136l4 27q15 100 44 171t67 115t94.5 68.5t116 33.5t141.5 9q99 0 204 -22q27 -6 32.5 -14.5t2.5 -28.5l-39 -224q-3 -21 -14 -32t-37 -11h-72q-22 0 -32 -1t-21 -7.5t-17 -21t-10 -39.5l-4 -23h326
l4 27q15 100 44 171t67 115t94.5 68.5t116 33.5t141.5 9z" />
    <glyph glyph-name="fi" unicode="fi" horiz-adv-x="1548" 
d="M1030 0q-19 0 -30.5 13t-8.5 32l146 827h-328l-150 -856q-17 -100 -46.5 -171.5t-67 -116t-92.5 -70t-114 -34.5t-140 -9q-84 0 -193 23q-41 8 -35 43l39 223q3 22 13.5 32.5t37.5 10.5h60q22 0 32 1t21 7.5t17 21t10 39.5l149 856l-131 19q-44 4 -37 45l39 229
q7 43 53 43h136l4 27q15 100 44 171t67 115t94.5 68.5t116 33.5t141.5 9q99 0 204 -22q27 -6 32.5 -14.5t2.5 -28.5l-39 -224q-3 -21 -14 -32t-37 -11h-72q-22 0 -32 -1t-21 -7.5t-17 -21t-10 -39.5l-4 -23h740q27 0 33.5 -10.5t3.5 -32.5l-197 -1120q-7 -45 -53 -45h-367z
M1298 1595h388q22 0 33 -9t7 -34l-36 -209q-7 -43 -56 -43h-387q-46 0 -39 43l37 209q7 43 53 43z" />
    <glyph glyph-name="fl" unicode="fl" horiz-adv-x="1538" 
d="M1673 1595q45 0 37 -43l-266 -1507q-4 -22 -14 -33.5t-37 -11.5h-369q-47 0 -39 45l221 1255h-252q-22 0 -32 -1t-21 -7.5t-17 -21t-10 -39.5l-4 -23h140q23 0 30.5 -9t3.5 -34l-43 -247q-7 -46 -51 -46h-141l-150 -856q-17 -100 -46.5 -171.5t-67 -116t-92.5 -70
t-114 -34.5t-140 -9q-84 0 -193 23q-41 8 -35 43l39 223q3 22 13.5 32.5t37.5 10.5h60q22 0 32 1t21 7.5t17 21t10 39.5l149 856l-131 19q-44 4 -37 45l39 229q7 43 53 43h136l4 27q15 100 44 171t67 115t94.5 68.5t116 33.5t141.5 9q194 0 446 -37h350z" />
    <glyph glyph-name="f_f_i" unicode="ffi" horiz-adv-x="2334" 
d="M1817 0q-19 0 -30.5 13t-8.5 32l145 827h-328l-149 -856q-22 -125 -60 -205t-98.5 -122.5t-130 -58t-172.5 -15.5q-83 0 -192 23q-41 8 -35 43l39 223q3 22 13.5 32.5t37.5 10.5h59q22 0 32 1t21 7.5t17 21t10 39.5l150 856h-328l-150 -856q-17 -100 -46.5 -171.5
t-67 -116t-92.5 -70t-114 -34.5t-140 -9q-84 0 -193 23q-41 8 -35 43l39 223q3 22 13.5 32.5t37.5 10.5h60q22 0 32 1t21 7.5t17 21t10 39.5l149 856l-131 19q-44 4 -37 45l39 229q7 43 53 43h136l4 27q15 100 44 171t67 115t94.5 68.5t116 33.5t141.5 9q99 0 204 -22
q27 -6 32.5 -14.5t2.5 -28.5l-39 -224q-3 -21 -14 -32t-37 -11h-72q-22 0 -32 -1t-21 -7.5t-17 -21t-10 -39.5l-4 -23h326l4 27q15 100 44 171t67 115t94.5 68.5t116 33.5t141.5 9q101 0 205 -22q27 -6 32.5 -14.5t2.5 -28.5l-39 -224q-7 -43 -52 -43h-71q-22 0 -32 -1
t-21 -7.5t-17 -21t-10 -39.5l-4 -23h739q27 0 33.5 -10.5t3.5 -32.5l-197 -1120q-7 -45 -53 -45h-366zM2085 1595h387q22 0 33.5 -9t7.5 -34l-37 -209q-7 -43 -55 -43h-387q-46 0 -39 43l37 209q7 43 53 43z" />
    <glyph glyph-name="f_f_l" unicode="ffl" horiz-adv-x="2324" 
d="M1993 1300h-252q-22 0 -32 -1t-21 -7.5t-17 -21t-10 -39.5l-4 -23h139q24 0 31.5 -9.5t3.5 -33.5l-43 -247q-7 -46 -51 -46h-142l-149 -856q-22 -125 -60 -205t-98.5 -122.5t-130 -58t-172.5 -15.5q-83 0 -192 23q-41 8 -35 43l39 223q3 22 13.5 32.5t37.5 10.5h59
q22 0 32 1t21 7.5t17 21t10 39.5l150 856h-328l-150 -856q-17 -100 -46.5 -171.5t-67 -116t-92.5 -70t-114 -34.5t-140 -9q-84 0 -193 23q-41 8 -35 43l39 223q3 22 13.5 32.5t37.5 10.5h60q22 0 32 1t21 7.5t17 21t10 39.5l149 856l-131 19q-44 4 -37 45l39 229q7 43 53 43
h136l4 27q15 100 44 171t67 115t94.5 68.5t116 33.5t141.5 9q99 0 204 -22q27 -6 32.5 -14.5t2.5 -28.5l-39 -224q-3 -21 -14 -32t-37 -11h-72q-22 0 -32 -1t-21 -7.5t-17 -21t-10 -39.5l-4 -23h326l4 27q15 100 44 171t67 115t94.5 68.5t116 33.5t141.5 9q194 0 446 -37
h351q45 0 37 -43l-267 -1507q-4 -22 -14 -33.5t-37 -11.5h-369q-46 0 -38 45z" />
    <glyph glyph-name=".notdef" horiz-adv-x="1024" 
d="M25 0v1362h972v-1362h-972zM180 1266l332 -498l330 498h-662zM123 1178v-992q0 -1 82.5 123t164.5 249l83 124zM901 1178l-332 -496l332 -498v994zM842 98l-330 496l-332 -496h662z" />
    <glyph glyph-name=".null" horiz-adv-x="0" 
 />
    <glyph glyph-name="nonmarkingreturn" horiz-adv-x="682" 
 />
    <glyph glyph-name="space" unicode=" " horiz-adv-x="471" 
 />
    <glyph glyph-name="exclam" unicode="!" horiz-adv-x="632" 
d="M827 1563q0 -2 -1 -5.5t-1 -5.5l-235 -987q-5 -20 -18 -32.5t-31 -12.5h-260q-17 0 -27 11.5t-10 27.5v6l112 987q1 18 17 30.5t35 12.5h383q15 0 25.5 -9.5t10.5 -22.5zM598 360v-8l-53 -311q-3 -17 -17.5 -29t-31.5 -12h-359q-15 0 -24 9.5t-9 23.5v8l54 311
q3 17 17.5 29t31.5 12h358q15 0 24 -9.5t9 -23.5z" />
    <glyph glyph-name="quotedbl" unicode="&#x22;" horiz-adv-x="1120" 
d="M1350 1577q0 -7 -7 -21l-268 -495q-20 -39 -45 -39h-297q-16 0 -16 14q0 13 6 25l213 495q16 39 47 39h346q21 0 21 -18zM823 1577q0 -9 -6 -21l-268 -495q-20 -39 -45 -39h-297q-17 0 -17 14q0 11 7 25l213 495q16 39 47 39h346q20 0 20 -18z" />
    <glyph glyph-name="numbersign" unicode="#" horiz-adv-x="1464" 
d="M1610 1139q0 -1 -1 -4.5t-1 -4.5l-58 -206q-4 -15 -18 -24t-29 -9h-147l-72 -264h150q14 0 23 -7.5t9 -19.5q0 -1 -1 -4t-1 -4l-59 -207q-4 -15 -18 -24t-29 -9h-148l-82 -313q-12 -39 -43 -39h-305q-13 0 -20.5 8.5t-7.5 20.5q0 1 1 4.5t1 5.5l82 313h-164l-82 -313
q-5 -16 -17 -27.5t-26 -11.5h-307q-12 0 -20.5 8.5t-8.5 20.5q0 2 1 5t1 5l82 313h-141q-14 0 -23.5 6.5t-9.5 18.5q0 1 1 4t1 4l59 207q4 15 18 25t29 10h140l71 264h-141q-33 0 -33 24q0 1 1 4.5t1 4.5l58 206q4 15 18 25t29 10h137l86 318q5 16 17.5 27.5t27.5 11.5h307
q12 0 19.5 -8.5t7.5 -20.5q0 -1 -1 -4.5t-1 -5.5l-86 -318h164l86 318q12 39 45 39h305q26 0 26 -27q0 -8 -2 -12l-86 -318h152q14 0 23.5 -7t9.5 -19zM981 891h-164l-72 -264h164z" />
    <glyph glyph-name="dollar" unicode="$" 
d="M1470 1446v-2l-53 -305q-3 -17 -15.5 -29t-27.5 -12h-2h-2q-318 30 -493 30q-50 0 -50 -38q0 -21 66 -60l262 -153q100 -59 148.5 -147t48.5 -187q0 -36 -6 -74q-68 -383 -492 -471l-37 -207q-3 -17 -17.5 -29t-31.5 -12h-303q-15 0 -24 9.5t-9 23.5v6v2l35 199
q-106 11 -236 51q-36 13 -36 35v6l53 305q3 17 16.5 29t30.5 12h4q16 -2 82 -9t117.5 -12t119.5 -9.5t115 -4.5q38 0 62 18t24 54q0 25 -45 55l-276 178q-176 114 -176 349q0 45 6 79q29 167 122 263.5t287 134.5l33 186q3 17 16.5 29t30.5 12h303q15 0 25 -10t10 -25v-6
l-31 -176q206 -16 314 -49q32 -11 32 -35v-4z" />
    <glyph glyph-name="percent" unicode="%" horiz-adv-x="1835" 
d="M1855 578q0 -52 -8 -99l-20 -123q-33 -196 -129.5 -282t-259.5 -86q-131 0 -199 72.5t-68 201.5q0 44 9 94l20 123q33 199 129 284t260 85q132 0 199 -70t67 -200zM1794 1503q0 -11 -10 -24l-1100 -1434q-14 -18 -20.5 -26t-16.5 -13.5t-22 -5.5h-291q-10 0 -16.5 7
t-6.5 16q0 11 8 22l1100 1434q20 24 33 33.5t31 9.5h291q20 0 20 -19zM932 1262q0 -52 -8 -99l-21 -123q-33 -196 -129.5 -282t-259.5 -86q-131 0 -198.5 72.5t-67.5 201.5q0 50 8 94l20 123q32 199 129 284t261 85q132 0 199 -70t67 -200zM1587 563q0 35 -9.5 46.5
t-29.5 11.5q-30 0 -49 -28t-33 -114l-20 -123q-8 -49 -8 -86q0 -34 9 -45.5t30 -11.5q30 0 49 28t33 115l20 123q8 49 8 84zM664 1247q0 35 -9.5 46.5t-29.5 11.5q-30 0 -49 -28t-33 -114l-21 -123q-8 -49 -8 -86q0 -34 9 -45.5t30 -11.5q30 0 49 28t33 115l20 123
q9 55 9 84z" />
    <glyph glyph-name="ampersand" unicode="&#x26;" horiz-adv-x="1558" 
d="M1573 739v-6q-46 -253 -191 -440l183 -234q8 -11 8 -24t-10.5 -24t-24.5 -11h-397q-13 0 -18 3t-15 15l-29 37q-170 -75 -370 -75q-170 0 -294.5 40.5t-196 125.5t-71.5 208q0 90 21 159.5t66.5 125.5t104.5 99t148 91l-12 17q-61 82 -84.5 146t-23.5 130
q0 97 33.5 171.5t87.5 120.5t130.5 75.5t154 41t165.5 11.5q120 0 211.5 -27.5t145 -74t80 -103t26.5 -120.5q0 -66 -14.5 -121.5t-39.5 -98.5t-65 -83t-83 -71t-103 -65l-64 -37l146 -186q46 81 61 178q7 41 49 41h252q15 0 24 -10t9 -25zM981 1171q0 66 -88 66
q-63 0 -90 -27.5t-27 -87.5q0 -51 37 -100l10 -14l54 28q58 32 81 58t23 77zM883 313l-183 240l-6 -4q-86 -58 -86 -160q0 -42 33 -69t102 -27q68 0 140 20z" />
    <glyph glyph-name="quotesingle" unicode="'" horiz-adv-x="491" 
d="M823 1577q0 -9 -6 -21l-268 -495q-20 -39 -45 -39h-297q-17 0 -17 14q0 11 7 25l213 495q16 39 47 39h346q20 0 20 -18z" />
    <glyph glyph-name="parenleft" unicode="(" horiz-adv-x="823" 
d="M1036 1505q0 -15 -16 -37q-86 -121 -152.5 -237t-131 -291t-93.5 -360l-6 -39q-25 -154 -25 -326q0 -329 84 -561q4 -8 4 -25q0 -28 -26 -28h-309q-51 0 -66 28q-141 264 -141 619q0 170 20 293l6 39q46 287 150 504.5t274 408.5q23 29 74 29h334q20 0 20 -17z" />
    <glyph glyph-name="parenright" unicode=")" horiz-adv-x="823" 
d="M866 862q0 -131 -22 -282l-6 -39q-46 -291 -146.5 -507.5t-267.5 -404.5q-22 -28 -74 -28h-344q-20 0 -20 16q0 20 14 37q64 89 115.5 174.5t106 197t95 243t62.5 272.5l6 39q27 178 27 327q0 296 -97 561q-4 16 -4 25q0 29 29 29h332q50 0 65 -29q57 -103 93 -270.5
t36 -360.5z" />
    <glyph glyph-name="asterisk" unicode="*" horiz-adv-x="983" 
d="M1149 1124q0 -23 -33 -34l-219 -62l139 -184q13 -16 13 -31q0 -18 -15 -27l-153 -110q-9 -6 -21 -6q-22 0 -35 20l-129 193l-129 -193q-13 -20 -35 -20q-11 0 -20 6l-154 110q-14 8 -14 27q0 16 12 31l140 184l-217 62q-35 10 -35 36q0 7 2 11l59 182q8 22 31 22
q4 0 20 -4l217 -75l-6 227v2q0 43 33 43h193q32 0 32 -43v-2l-4 -227l215 75q16 4 21 4q22 0 30 -22l60 -182q2 -4 2 -13z" />
    <glyph glyph-name="plus" unicode="+" horiz-adv-x="1310" 
d="M1309 668q0 -33 -41 -33h-291v-289q0 -41 -33 -41h-266q-33 0 -33 41v289h-289q-41 0 -41 33v266q0 33 41 33h289v290q0 41 33 41h266q33 0 33 -41v-290h291q41 0 41 -33v-266z" />
    <glyph glyph-name="comma" unicode="," horiz-adv-x="606" 
d="M608 369q0 -8 -6 -17l-319 -516q-25 -41 -50 -41h-260q-14 0 -24 8.5t-10 20.5q0 8 2 12l233 516q18 41 51 41h355q12 0 20 -7t8 -17z" />
    <glyph glyph-name="hyphen" unicode="-" horiz-adv-x="536" 
d="M635 735v-6l-43 -242q-3 -17 -17.5 -29t-31.5 -12h-393q-15 0 -24 9.5t-9 23.5v8l43 242q3 17 16.5 29t30.5 12h393q15 0 25 -10t10 -25z" />
    <glyph glyph-name="period" unicode="." horiz-adv-x="606" 
d="M586 358v-6l-54 -311q-3 -17 -18 -29t-33 -12h-356q-15 0 -25 10t-10 25v6l53 311q3 17 18.5 29t33.5 12h356q15 0 25 -10t10 -25z" />
    <glyph glyph-name="slash" unicode="/" horiz-adv-x="911" 
d="M1151 1491q0 -8 -2 -12l-662 -1434q-20 -45 -51 -45h-368q-15 0 -28 11t-13 24q0 6 2 10l661 1434q19 43 55 43h369q15 0 26 -9.5t11 -21.5z" />
    <glyph glyph-name="zero" unicode="0" 
d="M1450 1075q0 -92 -18 -203l-39 -223q-118 -669 -707 -669q-487 0 -487 466q0 92 18 203l39 223q59 337 238.5 503.5t468.5 166.5q240 0 363.5 -116.5t123.5 -350.5zM963 1026q0 62 -18.5 83t-55.5 21q-26 0 -44 -9t-37.5 -34.5t-36 -79t-30.5 -135.5l-39 -223
q-16 -88 -16 -153q0 -62 18.5 -83.5t55.5 -21.5q34 0 57 16t47 74.5t43 167.5l39 223q17 93 17 154z" />
    <glyph glyph-name="one" unicode="1" 
d="M289 408h248l110 636l-258 -79q-21 -7 -27 -7q-19 0 -16 25l62 346q6 30 34 41l398 141q29 11 47 11h287q17 0 26 -12t6 -29l-188 -1073h248q17 0 27 -12t7 -29l-57 -326q-3 -17 -17.5 -29t-31.5 -12h-977q-18 0 -29 12t-8 29l58 326q3 17 18 29t33 12z" />
    <glyph glyph-name="two" unicode="2" 
d="M1464 1204q0 -24 -8 -82q-14 -81 -48 -147t-92.5 -122t-126 -101.5t-167.5 -98.5q-149 -78 -230 -131.5t-118 -113.5h588q15 0 25.5 -10t10.5 -25v-6l-57 -326q-3 -17 -18 -29t-33 -12h-995q-15 0 -25 10t-10 25v6l39 225q16 93 51 174.5t78.5 142t105.5 118t118 97.5
t130 85q46 28 94.5 56.5t72.5 42t49 29.5t34.5 23.5t19.5 18.5t13 20.5t6 24.5q0 3 1 8.5t1 7.5q0 25 -32.5 35t-129.5 10q-67 0 -201 -10t-198 -10h-2q-13 0 -22 9t-9 23v7v2l41 235q5 26 47 41q244 86 502 86q132 0 229.5 -25.5t154.5 -72.5t84 -106.5t27 -133.5z" />
    <glyph glyph-name="three" unicode="3" 
d="M1456 1202q0 -154 -61.5 -253t-198.5 -177q70 -50 103.5 -120t33.5 -146q0 -117 -35.5 -208.5t-95.5 -150.5t-146 -97t-179.5 -54t-202.5 -16q-127 0 -267 26t-202 57q-1 1 -7 4t-8.5 4.5t-7 5t-6.5 6t-4 7t-2 8.5v6l41 238q3 17 17.5 29t31.5 12h2q51 0 208.5 -10.5
t229.5 -10.5q77 0 123.5 34.5t46.5 107.5q0 88 -102 88h-354q-15 0 -25 10.5t-10 24.5v6l47 264q3 17 17.5 29t31.5 12h330q72 0 119 36t47 105q0 80 -129 80q-72 0 -226 -10t-206 -10h-2q-14 0 -23.5 9.5t-9.5 22.5v7v2l41 237q1 4 2.5 8t3.5 6.5t6 6t6 5t8 4.5t8 3.5
t9 3.5t8 4q75 32 216.5 58t266.5 26q248 0 377 -85t129 -255z" />
    <glyph glyph-name="four" unicode="4" 
d="M1409 1489v-8l-145 -828h102q15 0 25 -10t10 -25v-6l-49 -280q-3 -17 -17.5 -29t-31.5 -12h-103l-43 -250q-3 -17 -17.5 -29t-31.5 -12h-399q-15 0 -24 9.5t-9 23.5v8l43 250h-549q-15 0 -24 9.5t-9 23.5v8l45 266q6 29 31 57l831 856q11 11 29 11h19h284q15 0 24 -9.5
t9 -23.5zM864 985l-321 -332h262z" />
    <glyph glyph-name="five" unicode="5" 
d="M1456 1483v-2l-51 -301q-7 -41 -49 -41h-557l-43 -166h92q110 0 195.5 -21t138.5 -56t87.5 -84t48 -99.5t13.5 -108.5q0 -168 -49.5 -289.5t-145 -194t-223.5 -106.5t-295 -34q-231 0 -411 75q-37 14 -37 35v6l43 246q8 41 45 41h6q246 -21 328 -21q47 0 79 3t64.5 12.5
t52 27t31.5 48t12 73.5t-32.5 63.5t-114.5 20.5h-377q-18 0 -28.5 10.5t-10.5 28.5q0 9 2 13l205 819q5 18 18.5 29.5t30.5 11.5h899q15 0 24 -9.5t9 -23.5v-6z" />
    <glyph glyph-name="six" unicode="6" 
d="M1444 1440q0 -2 -1 -7.5t-1 -7.5l-45 -254q-6 -41 -45 -41h-11q-227 29 -376 29q-102 0 -139 -31t-60 -141l-2 -10q95 14 154 14q136 0 233.5 -34.5t156 -116t58.5 -205.5q0 -316 -174 -485.5t-500 -169.5q-123 0 -218.5 35.5t-153.5 97.5t-87.5 139.5t-29.5 167.5
q0 53 8 100l82 467q23 133 73 233.5t113.5 160.5t147 97.5t164 50.5t174.5 13q246 0 442 -63q37 -12 37 -39zM891 590q0 47 -20 66.5t-60 19.5t-100 -6l-27 -150q-8 -47 -8 -86q0 -56 19.5 -78t56.5 -22q139 0 139 256z" />
    <glyph glyph-name="seven" unicode="7" 
d="M1501 1489v-8l-39 -228q-2 -11 -5 -21.5t-8.5 -21t-8.5 -16.5t-10.5 -17.5t-8.5 -13.5l-706 -1122q-25 -41 -49 -41h-437q-28 0 -28 14q0 10 10 27l704 1098h-471q-15 0 -24.5 10t-9.5 25v6l51 301q3 17 18 29t33 12h956q15 0 24 -9.5t9 -23.5z" />
    <glyph glyph-name="eight" unicode="8" 
d="M1481 1174q0 -123 -52.5 -222.5t-152.5 -165.5q48 -45 76 -115t28 -141q0 -112 -36.5 -204.5t-99 -156t-148 -106.5t-182 -63t-203.5 -20h-25q-129 0 -231 34t-162.5 90.5t-91.5 125t-31 143.5q0 256 225 413q-50 47 -74 112.5t-24 127.5q0 116 34.5 206t93.5 147.5
t144 95t178.5 52.5t204.5 15h25q106 0 192 -20.5t143.5 -55t96 -82t55.5 -100t17 -110.5zM1012 1092q0 100 -92 100h-25q-68 0 -103.5 -44.5t-35.5 -117.5q0 -44 25.5 -67t68.5 -23h24q69 0 103.5 41.5t34.5 110.5zM911 526q0 95 -94 95h-24q-72 0 -110 -59t-38 -136
q0 -45 25.5 -71.5t70.5 -26.5h25q73 0 109 60t36 138z" />
    <glyph glyph-name="nine" unicode="9" 
d="M1434 1102q0 -48 -9 -101l-82 -466q-23 -133 -73 -233.5t-113 -160.5t-146.5 -97.5t-164 -50.5t-174.5 -13q-247 0 -443 63q-36 12 -36 39q0 2 1 7t1 7l45 254q6 41 45 41h10q227 -29 377 -29q101 0 138 31t60 142l2 10q-101 -15 -153 -15q-101 0 -181 20t-141 62
t-94 111.5t-33 163.5q0 316 174 485.5t500 169.5q123 0 218.5 -35.5t154 -97.5t88 -140t29.5 -167zM961 1087q0 56 -19.5 78.5t-56.5 22.5q-140 0 -140 -256q0 -47 20 -66.5t60 -19.5q41 0 101 6l26 149q9 53 9 86z" />
    <glyph glyph-name="colon" unicode=":" horiz-adv-x="606" 
d="M717 1094v-7l-55 -311q-3 -17 -18.5 -29t-33.5 -12h-356q-15 0 -25 10t-10 25v6l55 311q3 17 18 29t32 12h356q15 0 26 -9.5t11 -24.5zM586 358v-6l-54 -311q-3 -17 -18 -29t-33 -12h-356q-15 0 -25 10t-10 25v6l53 311q3 17 18.5 29t33.5 12h356q15 0 25 -10t10 -25z
" />
    <glyph glyph-name="semicolon" unicode=";" horiz-adv-x="606" 
d="M723 1094v-7l-55 -311q-3 -17 -18 -29t-32 -12h-356q-15 0 -26 10t-11 25v6l56 311q3 17 18 29t33 12h356q15 0 25 -9.5t10 -24.5zM584 369q0 -11 -4 -17l-322 -516q-8 -14 -12.5 -20.5t-14 -13.5t-20.5 -7h-260q-14 0 -25.5 9t-11.5 22q0 6 2 10l236 516q18 41 49 41
h354q12 0 20.5 -7t8.5 -17z" />
    <glyph glyph-name="less" unicode="&#x3c;" horiz-adv-x="1310" 
d="M1280 297q0 -9 -8 -16t-19 -7h-403q-33 0 -57 21l-484 446q-30 30 -30 60q0 29 30 59l484 447q23 20 57 20h403q11 0 19 -6.5t8 -15.5q0 -14 -14 -25l-525 -479l525 -479q14 -11 14 -25z" />
    <glyph glyph-name="equal" unicode="=" horiz-adv-x="1310" 
d="M1300 958q0 -32 -40 -32h-912q-41 0 -41 32v267q0 32 41 32h912q40 0 40 -32v-267zM1300 377q0 -33 -40 -33h-912q-41 0 -41 33v266q0 33 41 33h912q40 0 40 -33v-266z" />
    <glyph glyph-name="greater" unicode="&#x3e;" horiz-adv-x="1310" 
d="M1327 801q0 -29 -31 -60l-483 -446q-24 -21 -57 -21h-404q-10 0 -18 7t-8 16q0 14 14 25l524 479l-524 479q-14 11 -14 25q0 9 7.5 15.5t18.5 6.5h404q34 0 57 -20l483 -447q31 -31 31 -59z" />
    <glyph glyph-name="question" unicode="?" horiz-adv-x="1024" 
d="M1190 1319q0 -43 -8 -82q-22 -128 -146 -274l-342 -402q-33 -41 -71 -41h-275q-15 0 -25 10t-10 25v6l15 82q18 99 42 148t95 143l129 168q39 50 39 76q0 22 -43 22h-10h-7l-264 -22h-4q-13 0 -21 9.5t-8 22.5v9l52 294q4 25 49 41q70 25 180.5 42.5t192.5 17.5
q440 0 440 -295zM696 354v-2l-53 -311q-3 -17 -18 -29t-33 -12h-356q-15 0 -25 10.5t-10 24.5v4v2l53 311q3 17 18 29t33 12h357q15 0 24.5 -10.5t9.5 -24.5v-4z" />
    <glyph glyph-name="at" unicode="@" horiz-adv-x="1622" 
d="M1642 801q0 -151 -42 -273t-116.5 -205.5t-180 -139.5t-229 -81.5t-267.5 -25.5q-61 0 -115.5 9.5t-102.5 31t-82.5 53t-54.5 77.5t-20 103q0 22 8 72l45 235q20 106 58.5 177t99.5 112.5t137.5 58.5t182.5 17q123 0 278 -33q26 -5 41.5 -21t15.5 -40q0 -9 -2 -15
l-118 -587q71 17 124 67.5t81.5 120.5t41.5 141.5t13 145.5q0 182 -103 285.5t-325 103.5q-271 0 -426.5 -118t-204.5 -370l-68 -346q-14 -82 -14 -139q0 -164 104.5 -232.5t348.5 -68.5q122 0 340 21h2q14 0 14 -19v-6l-10 -105q-3 -19 -21 -22q-230 -29 -325 -29
q-118 0 -215.5 15t-181 49.5t-141 87t-90 131t-32.5 178.5q0 70 14 139l74 361q35 170 109 295t182.5 203t245 115.5t303.5 37.5q130 0 236 -31.5t177 -85t119.5 -126.5t70 -154t21.5 -170zM958 770q-25 4 -59 4q-52 0 -73 -23.5t-38 -103.5l-47 -221q-6 -21 -6 -49
q0 -41 29 -53.5t78 -12.5h30z" />
    <glyph glyph-name="A" unicode="A" horiz-adv-x="1466" 
d="M1432 39q0 -17 -11 -28t-28 -11h-424q-17 0 -26 11.5t-9 29.5l2 229h-311l-76 -229q-6 -18 -20 -29.5t-31 -11.5h-428q-27 0 -27 23q0 6 4 18l461 1237q56 149 176.5 206.5t321.5 57.5q200 0 298 -57.5t101 -206.5l27 -1237v-2zM950 1135q0 16 -14 16q-4 0 -7 -1t-4.5 -2
t-3.5 -4.5t-3 -5.5t-2.5 -7t-2.5 -7l-159 -477h188l8 477v11z" />
    <glyph glyph-name="B" unicode="B" horiz-adv-x="1441" 
d="M1554 1153q0 -116 -53.5 -222t-152.5 -151q102 -85 102 -243q0 -99 -26.5 -181t-71 -138.5t-108.5 -100t-131.5 -69t-148.5 -41.5t-152 -21.5t-148 -5.5q-277 0 -408 24q-66 12 -92.5 35t-26.5 74q0 15 8 69l203 1159q17 93 53 128t123 49q69 11 205.5 17.5t210.5 6.5
q114 0 205 -12t169 -39.5t130 -72t81 -111.5t29 -154zM1077 1061q0 46 -28 69t-95 23h-168l-38 -229h167q162 0 162 137zM985 512q0 51 -28.5 74.5t-96.5 23.5h-168l-43 -241h168q88 0 128 42t40 101z" />
    <glyph glyph-name="C" unicode="C" horiz-adv-x="1122" 
d="M1309 1458l-58 -323q-3 -22 -13.5 -31t-33.5 -6q-148 18 -268 18q-24 0 -41.5 -2.5t-40 -11t-39.5 -27.5t-35 -47.5t-33 -75t-26 -108.5l-31 -166q-14 -77 -14 -133q0 -47 10 -76.5t31.5 -42.5t41 -16.5t52.5 -3.5q76 0 274 18q17 2 25 -2t9 -13t-1 -22l-57 -324
q-3 -20 -12 -28t-37 -17q-116 -38 -277 -38q-275 0 -414 135t-139 377q0 82 19 186l30 166q36 194 99 328t159.5 216t219.5 118t288 36q168 0 275 -39q21 -7 30.5 -16t6.5 -29z" />
    <glyph glyph-name="D" unicode="D" horiz-adv-x="1445" 
d="M1532 1028q0 -93 -16 -174l-35 -186q-29 -154 -79.5 -271t-119 -196t-160.5 -128.5t-198 -71t-238 -21.5q-295 0 -498 38q-31 6 -45 19t-14 41q0 18 2 28l231 1309q7 44 27 63t60 25q222 39 509 39q260 0 417 -133t157 -381zM1042 991q0 79 -36 108t-121 29h-90
l-129 -735h90q75 0 116.5 22t69 80t49.5 173l35 186q16 88 16 137z" />
    <glyph glyph-name="E" unicode="E" horiz-adv-x="1218" 
d="M1333 1520q39 -3 33 -41l-53 -310q-7 -41 -49 -41h-412q-38 0 -54.5 -13.5t-23.5 -51.5l-20 -111h479q42 0 33 -41l-49 -288q-3 -17 -18 -29t-32 -12h-479l-18 -101q-6 -33 -6 -49q0 -21 14 -30t45 -9h412q38 0 32 -41l-53 -309q-3 -20 -12.5 -29t-36.5 -12
q-189 -22 -416 -22q-79 0 -147 11t-130 37.5t-105.5 67.5t-69 105t-25.5 145q0 62 10 113l109 604q13 75 35 137.5t48 108.5t61.5 82.5t69 60.5t78 41.5t81.5 26.5t87.5 14.5t87 6.5t87.5 1q222 0 407 -22z" />
    <glyph glyph-name="F" unicode="F" horiz-adv-x="1208" 
d="M1333 1520q40 -3 33 -41l-53 -310q-2 -14 -5.5 -21.5t-14.5 -13.5t-29 -6h-412q-38 0 -54.5 -13.5t-23.5 -51.5l-20 -111h479q39 0 33 -41l-49 -288q-7 -41 -50 -41h-479l-94 -541q-3 -17 -17.5 -29t-31.5 -12h-400q-18 0 -27.5 10.5t-6.5 30.5l180 1022q16 91 44.5 163
t63.5 122t83.5 86t95.5 56.5t109.5 32.5t116 15.5t122.5 3.5q222 0 407 -22z" />
    <glyph glyph-name="G" unicode="G" horiz-adv-x="1378" 
d="M1518 1434l-52 -301q-3 -24 -10.5 -32t-32.5 -5q-190 20 -358 20q-89 0 -143.5 -10t-97 -39.5t-65.5 -81.5t-38 -137l-31 -178q-12 -73 -12 -121q0 -53 11.5 -87t33.5 -47.5t39 -17.5t41 -4q40 0 67 6l66 369q7 41 49 41h383q39 0 33 -41l-121 -686q-4 -25 -12.5 -32
t-38.5 -13q-272 -57 -500 -57q-61 0 -120 10t-122.5 32t-116.5 62t-95.5 95t-66.5 137t-24 182q0 87 17 176l30 174q23 131 63.5 236t88 176t111 124t124 82.5t135.5 47t136.5 23t136.5 5.5q256 0 457 -63q26 -7 32 -16t3 -29z" />
    <glyph glyph-name="H" unicode="H" horiz-adv-x="1542" 
d="M1257 1522h392q25 0 34.5 -9.5t6.5 -31.5l-252 -1440q-7 -41 -49 -41h-400q-17 0 -27.5 12t-7.5 29l90 522h-350l-90 -522q-2 -13 -6 -21t-14.5 -14t-28.5 -6h-399q-17 0 -27.5 12t-7.5 29l252 1440q7 41 51 41h399q41 0 33 -41l-88 -504h350l88 504q7 41 51 41z" />
    <glyph glyph-name="I" unicode="I" horiz-adv-x="729" 
d="M834 1522q38 0 32 -41l-252 -1440q-2 -14 -5.5 -21.5t-14.5 -13.5t-29 -6h-399q-42 0 -35 41l252 1440q7 41 51 41h400z" />
    <glyph glyph-name="J" unicode="J" horiz-adv-x="729" 
d="M834 1522q40 0 32 -41l-258 -1471q-76 -432 -465 -432q-146 0 -225 12q-40 7 -35 41l49 275q7 41 48 41h88q28 0 39.5 12.5t17.5 50.5l258 1471q7 41 51 41h400z" />
    <glyph glyph-name="K" unicode="K" horiz-adv-x="1523" 
d="M1739 1503q0 -11 -8 -22l-529 -723l279 -717q7 -13 0 -27t-23 -14h-479q-31 0 -43 41l-219 643l-113 -643q-2 -13 -6 -21t-14.5 -14t-28.5 -6h-399q-43 0 -35 41l252 1440q7 41 51 41h399q39 0 33 -41l-115 -654l439 654q10 14 15.5 20.5t20.5 13.5t35 7h467q21 0 21 -19
z" />
    <glyph glyph-name="L" unicode="L" horiz-adv-x="1064" 
d="M1042 393q39 0 33 -41l-53 -309q-6 -33 -49 -41q-132 -22 -314 -22q-477 0 -477 360q0 60 11 119l180 1022q7 41 51 41h399q41 0 33 -41l-180 -1022q-2 -8 -2 -25q0 -24 13 -32.5t46 -8.5h309z" />
    <glyph glyph-name="M" unicode="M" horiz-adv-x="1773" 
d="M1847 1522q71 0 60 -72l-252 -1427q-4 -23 -37 -23h-391q-42 0 -33 41l113 641q4 18 -11 18q-7 0 -22 -18l-193 -225q-19 -23 -31.5 -31t-29.5 -8h-119q-18 0 -28.5 8t-20.5 31l-111 225q-9 18 -18 18q-12 0 -14 -18l-113 -641q-2 -13 -5 -21t-11 -14t-21 -6h-395
q-42 0 -35 35l250 1415q4 29 29.5 50.5t54.5 21.5h268q44 0 67.5 -16t39.5 -52l200 -453q9 -22 21 -22t28 22l361 453q28 35 57.5 51.5t73.5 16.5h268z" />
    <glyph glyph-name="N" unicode="N" horiz-adv-x="1562" 
d="M1667 1522q41 0 33 -41l-248 -1409q-11 -72 -84 -72h-350q-39 0 -57 45l-240 563q-6 17 -14 17h-2q-12 0 -15 -19l-98 -565q-7 -41 -51 -41h-375q-43 0 -35 41l248 1409q5 32 26 52t58 20h336q43 0 67 -58l244 -565q8 -18 18 -18q4 0 5.5 0.5t3.5 4.5t4 13l102 582
q7 41 49 41h375z" />
    <glyph glyph-name="O" unicode="O" horiz-adv-x="1466" 
d="M1550 1022q0 -74 -16 -172l-31 -178q-119 -692 -774 -692q-115 0 -211 30.5t-172 91.5t-119 163.5t-43 236.5q0 66 17 170l30 178q120 692 775 692q115 0 211 -30t172 -91t118.5 -163t42.5 -236zM1057 971q0 77 -31 111t-96 34q-87 0 -136 -60.5t-73 -205.5l-31 -178
q-12 -71 -12 -121q0 -77 31 -111t96 -34q87 0 136 60.5t73 205.5l30 178q13 76 13 121z" />
    <glyph glyph-name="P" unicode="P" horiz-adv-x="1427" 
d="M1550 1098q0 -40 -6 -90l-2 -15q-14 -95 -47.5 -173t-79 -132t-106 -96t-121.5 -66.5t-132.5 -40t-133.5 -21t-129 -5.5q-9 0 -123 4l-74 -422q-7 -41 -49 -41h-400q-13 0 -23 8.5t-7 24.5l231 1310q17 93 52 127t122 48q156 24 453 24q87 0 166 -13.5t155 -46.5
t131.5 -82.5t89 -127t33.5 -174.5zM1067 1032q0 107 -154 107h-125l-49 -277h125q81 0 135.5 33.5t63.5 97.5l2 15q2 8 2 24z" />
    <glyph glyph-name="Q" unicode="Q" horiz-adv-x="1466" 
d="M1550 1022q0 -74 -16 -172l-31 -178q-98 -564 -540 -668l-5 -33q-5 -24 19 -24h156q25 0 37.5 -6.5t9.5 -26.5l-45 -252q-3 -15 -20 -29t-40 -20q-129 -35 -284 -35q-60 0 -110 13.5t-94 43.5t-68.5 86t-24.5 134q0 30 12 116l6 41q-152 48 -240 171t-88 319q0 66 17 170
l30 178q120 692 775 692q115 0 211 -30t172 -91t118.5 -163t42.5 -236zM1057 971q0 77 -31 111t-96 34q-87 0 -136 -60.5t-73 -205.5l-31 -178q-12 -71 -12 -121q0 -77 31 -111t96 -34q87 0 136 60.5t73 205.5l30 178q13 76 13 121z" />
    <glyph glyph-name="R" unicode="R" horiz-adv-x="1497" 
d="M1567 1116q0 -104 -34.5 -205t-110 -188.5t-181.5 -128.5l189 -535q2 -6 2 -16q0 -43 -43 -43h-431q-5 0 -8.5 1t-6.5 4l-5 5t-4 7t-3 7t-2.5 8.5t-2.5 8.5l-160 481h-78l-84 -481q-7 -41 -49 -41h-399q-43 0 -35 41l229 1302q17 93 52 127t122 48q56 8 203.5 16t249.5 8
q285 0 437.5 -106t152.5 -320zM1075 1034q0 55 -29.5 80t-95.5 25h-153l-45 -258h153q170 0 170 153z" />
    <glyph glyph-name="S" unicode="S" horiz-adv-x="1277" 
d="M1380 1485q18 -5 27 -14t6 -27l-53 -305q-2 -11 -4 -17.5t-7 -13.5t-14 -9t-22 -1q-318 30 -494 30q-49 0 -49 -34q0 -14 13.5 -27.5t52.5 -36.5l262 -153q101 -60 148.5 -147t47.5 -185q0 -115 -38 -210t-103.5 -160t-154 -109.5t-188 -65t-208.5 -20.5q-238 0 -428 61
q-42 14 -37 41l53 305q4 22 14.5 33t37.5 8q16 -2 82 -9t117.5 -12t119.5 -9.5t115 -4.5q37 0 61.5 16t24.5 46q0 20 -9.5 34t-35.5 31l-277 178q-94 61 -136 152t-42 190q0 111 33 198t90 143.5t138.5 93t172 52t197.5 15.5q130 0 275.5 -17.5t211.5 -39.5z" />
    <glyph glyph-name="T" unicode="T" horiz-adv-x="1232" 
d="M1407 1522q42 0 35 -41l-53 -312q-3 -20 -14 -30.5t-38 -10.5h-278l-191 -1087q-2 -13 -6 -21t-14.5 -14t-28.5 -6h-399q-20 0 -28 12t-5 29l191 1087h-287q-41 0 -33 41l53 312q3 17 17.5 29t31.5 12h1047z" />
    <glyph glyph-name="U" unicode="U" horiz-adv-x="1540" 
d="M1243 1522h399q39 0 35 -41l-157 -895q-25 -143 -71 -248t-108.5 -173.5t-150.5 -109.5t-188 -58t-230 -17q-85 0 -163 15.5t-150.5 52.5t-125.5 91.5t-84.5 138t-31.5 187.5q0 67 12 143l154 873q3 17 18 29t33 12h400q40 0 32 -41l-157 -895q-9 -65 -9 -76
q0 -68 34.5 -94.5t105.5 -26.5q85 0 130 40.5t66 156.5l158 895q7 41 49 41z" />
    <glyph glyph-name="V" unicode="V" horiz-adv-x="1486" 
d="M1700 1503q0 -10 -4 -22l-461 -1237q-56 -149 -175.5 -206.5t-320.5 -57.5t-299.5 57.5t-101.5 206.5l-27 1237q0 23 8.5 32t30.5 9h422q35 0 35 -41l-16 -1084v-4q0 -22 14 -22q3 0 5 0.5t3.5 1t3 2.5t2.5 3t2 4t1.5 4t2 5.5t2.5 5.5l365 1084q14 41 51 41h430
q27 0 27 -19z" />
    <glyph glyph-name="W" unicode="W" horiz-adv-x="1935" 
d="M2101 1522q24 0 33.5 -14.5t3.5 -37.5l-426 -1341q-27 -83 -72 -116t-120 -33h-211q-75 0 -104.5 27.5t-41.5 105.5l-76 467q-3 22 -16 22q-7 0 -20 -22l-240 -467q-38 -74 -80 -103.5t-115 -29.5h-210q-145 0 -140 149l47 1341q3 52 54 52h376q24 0 32.5 -11t6.5 -34
l-43 -719q-3 -25 11 -25q8 0 22 25l141 272q23 44 49 61t78 17h226q53 0 74.5 -17t27.5 -61l43 -272q0 -2 1 -7t1.5 -8.5t3 -6.5t6.5 -3q14 0 21 25l211 723q11 41 45 41h401z" />
    <glyph glyph-name="X" unicode="X" horiz-adv-x="1515" 
d="M1726 1503q0 -11 -8 -22l-540 -744l288 -696q2 -4 2 -12q0 -11 -8 -20t-20 -9h-469q-31 0 -47 41l-129 313l-215 -313q-32 -41 -56 -41h-465q-18 0 -18 18q0 12 8 23l553 778l-274 662q-7 13 0 27t26 14h465q15 0 26 -7.5t15 -14t10 -19.5l123 -297l193 297q17 27 32 34
t56 7h434q18 0 18 -19z" />
    <glyph glyph-name="Y" unicode="Y" horiz-adv-x="1452" 
d="M1688 1499q0 -7 -7 -18l-424 -705q-89 -149 -186 -188l-96 -547q-4 -20 -14 -30.5t-37 -10.5h-400q-38 0 -32 41l96 547q-83 38 -121 188l-176 705q-9 41 33 41h419q40 0 48 -41l83 -508q3 -12 11 -12t14 12l262 508q21 41 72 41h430q11 0 18 -7t7 -16z" />
    <glyph glyph-name="Z" unicode="Z" horiz-adv-x="1288" 
d="M1405 1522q41 0 33 -41l-49 -287q-9 -50 -68 -121l-510 -618q-12 -15 -12 -27q0 -14 24 -14h394q41 0 34 -41l-57 -332q-7 -41 -51 -41h-1000q-15 0 -23.5 9.5t-8.5 23.5v8l45 266q9 50 61 113l524 645q15 18 15 29q0 14 -23 14h-389q-41 0 -33 41l58 332q7 41 49 41h987
z" />
    <glyph glyph-name="bracketleft" unicode="[" horiz-adv-x="835" 
d="M1036 1493v-6l-49 -283q-7 -33 -45 -33h-174l-215 -1218h174q15 0 24 -8.5t9 -20.5v-6l-49 -283q-6 -32 -45 -32h-598q-13 0 -21 9t-8 21v9l326 1841q3 16 15 27.5t26 11.5h598q15 0 23.5 -8.5t8.5 -20.5z" />
    <glyph glyph-name="backslash" unicode="\" horiz-adv-x="911" 
d="M887 43q0 -16 -19 -29.5t-37 -13.5h-348q-30 0 -34 45l-158 1434v2q0 17 16.5 29t34.5 12h348q35 0 39 -43l158 -1434v-2z" />
    <glyph glyph-name="bracketright" unicode="]" horiz-adv-x="835" 
d="M995 1491v-8l-325 -1841q-3 -16 -14.5 -27.5t-26.5 -11.5h-598q-33 0 -33 26v6l49 283q3 15 15.5 25t29.5 10h174l215 1218h-174q-15 0 -24 7.5t-9 19.5v6l50 283q3 15 15.5 25t29.5 10h598q13 0 20.5 -9t7.5 -22z" />
    <glyph glyph-name="asciicircum" unicode="^" horiz-adv-x="1310" 
d="M1434 1180q0 -21 -25 -21h-383q-27 0 -40 6t-28 21l-127 131l-126 -131q-15 -15 -28 -21t-40 -6h-383q-25 0 -25 21q0 9 11 24l221 299q18 24 32.5 31.5t45.5 7.5h585q31 0 45.5 -7.5t32.5 -31.5l221 -299q11 -15 11 -24z" />
    <glyph glyph-name="underscore" unicode="_" horiz-adv-x="1187" 
d="M1239 -88v-6l-25 -139q-6 -33 -47 -33h-1239q-34 0 -34 26v7l24 139q6 33 47 33h1239q35 0 35 -27z" />
    <glyph glyph-name="grave" unicode="`" horiz-adv-x="1024" 
d="M907 1319q0 -19 -20 -19h-291q-15 0 -24 3t-12 6t-11 12l-223 244q-7 11 -7 14q0 16 25 16h363q24 0 34 -6t21 -24l141 -230q4 -6 4 -16z" />
    <glyph glyph-name="a" unicode="a" horiz-adv-x="1314" 
d="M1339 1180q39 -7 56.5 -22.5t11.5 -49.5l-186 -1067q-7 -41 -41 -41h-293q-48 0 -41 41l8 57q-74 -64 -146 -91t-188 -27q-167 0 -263.5 99t-96.5 275q0 78 10 140l33 190q22 130 66.5 226.5t103 156.5t139 97t164.5 51t190 14q190 0 473 -49zM905 846q-49 6 -88 6
q-69 0 -104.5 -34.5t-53.5 -133.5l-36 -199q-7 -40 -7 -59q0 -43 19.5 -58.5t60.5 -15.5q55 0 127 33z" />
    <glyph glyph-name="b" unicode="b" horiz-adv-x="1302" 
d="M1362 801q0 -52 -10 -117l-29 -160q-98 -544 -659 -544q-226 0 -476 49q-44 9 -58 24.5t-9 46.5l256 1452q7 43 53 43h367q42 0 34 -43l-59 -333q48 10 113 10q235 0 356 -118t121 -310zM903 750q0 49 -22 75.5t-76 26.5q-49 0 -98 -6l-86 -484q58 -6 110 -6
q67 0 94 40.5t43 127.5l29 160q6 35 6 66z" />
    <glyph glyph-name="c" unicode="c" horiz-adv-x="972" 
d="M788 1229q145 0 283 -35q19 -5 27.5 -13.5t5.5 -25.5l-49 -278q-3 -17 -17.5 -30t-31.5 -13h-2q-31 0 -104 6t-116 6q-61 0 -91 -40t-48 -134l-24 -135q-9 -46 -9 -82q0 -48 20.5 -70.5t65.5 -22.5q37 0 75.5 2t83.5 6t65 5q26 1 34 -10.5t5 -32.5l-50 -279
q-3 -17 -15 -25.5t-34 -13.5q-159 -34 -295 -34q-205 0 -309 115.5t-104 305.5q0 65 12 136l24 135q51 283 198.5 420t399.5 137z" />
    <glyph glyph-name="d" unicode="d" horiz-adv-x="1302" 
d="M1067 1595h367q48 0 41 -43l-256 -1452q-5 -28 -25.5 -44.5t-71.5 -26.5q-272 -49 -491 -49q-220 0 -348.5 123.5t-128.5 318.5q0 44 10 102l29 160q52 285 208 415t428 130q78 0 132 -12l59 335q7 43 47 43zM895 846q-99 6 -111 6q-61 0 -91.5 -39t-45.5 -129l-29 -160
q-8 -41 -8 -78q0 -46 20.5 -68t67.5 -22q53 0 111 6z" />
    <glyph glyph-name="e" unicode="e" horiz-adv-x="1257" 
d="M1313 793q0 -64 -13 -140l-22 -125q-3 -19 -17.5 -31t-33.5 -12h-619q-4 -32 -4 -45q0 -49 34.5 -67.5t123.5 -18.5q110 0 387 15q25 2 34 -6t5 -31l-39 -215q-5 -26 -14.5 -38.5t-34.5 -21.5q-86 -33 -223.5 -55t-260.5 -22q-134 0 -237 46.5t-165 144.5t-62 235
q0 58 12 122l22 125q55 305 226 440.5t446 135.5q118 0 206.5 -33t142 -93t80 -137.5t26.5 -172.5zM889 784q0 101 -96 101q-62 0 -95.5 -41t-48.5 -129h232q8 54 8 69z" />
    <glyph glyph-name="f" unicode="f" horiz-adv-x="874" 
d="M877 1632q99 0 204 -22q27 -6 32.5 -14.5t2.5 -28.5l-39 -224q-3 -21 -14 -32t-37 -11h-72q-22 0 -32 -1t-21 -7.5t-17 -21t-10 -39.5l-4 -23h140q23 0 30.5 -9t3.5 -34l-43 -247q-7 -46 -51 -46h-141l-150 -856q-17 -100 -46.5 -171.5t-67 -116t-92.5 -70t-114 -34.5
t-140 -9q-84 0 -193 23q-41 8 -35 43l39 223q3 22 13.5 32.5t37.5 10.5h60q22 0 32 1t21 7.5t17 21t10 39.5l149 856l-131 19q-44 4 -37 45l39 229q7 43 53 43h136l4 27q15 100 44 171t67 115t94.5 68.5t116 33.5t141.5 9z" />
    <glyph glyph-name="g" unicode="g" horiz-adv-x="1304" 
d="M852 1229q318 0 475 -43q51 -13 63 -25t7 -41l-195 -1110q-39 -227 -195.5 -329.5t-449.5 -102.5q-124 0 -232 21.5t-167 46.5q-20 8 -26.5 21t-2.5 38l35 199q7 46 47 41q281 -25 405 -25q72 0 104.5 19t41.5 71l8 45q-58 -12 -127 -12q-121 0 -213.5 32.5t-149.5 90.5
t-85.5 135.5t-28.5 171.5q0 50 10 115l17 96q48 276 221.5 410.5t437.5 134.5zM909 846q-58 6 -104 6q-45 0 -74 -11.5t-45.5 -37t-24 -50.5t-14.5 -69l-16 -96q-6 -37 -6 -76q0 -45 21 -68.5t87 -23.5q40 0 103 6z" />
    <glyph glyph-name="h" unicode="h" horiz-adv-x="1335" 
d="M1376 870q0 -66 -10 -120l-125 -705q-7 -45 -51 -45h-369q-46 0 -37 45l123 698q4 28 4 37q0 36 -22 51t-74 15q-49 0 -108 -12l-140 -789q-2 -15 -5.5 -23.5t-14.5 -15t-29 -6.5h-368q-47 0 -39 45l266 1509q4 20 13.5 30.5t33.5 10.5h375q42 0 35 -41l-64 -362
q143 33 207 36q17 1 35 1q179 0 271.5 -96t92.5 -263z" />
    <glyph glyph-name="i" unicode="i" horiz-adv-x="673" 
d="M424 1595h387q22 0 33.5 -9t7.5 -34l-37 -209q-7 -43 -55 -43h-387q-46 0 -39 43l37 209q7 43 53 43zM156 0q-19 0 -30.5 13t-8.5 32l196 1120q7 43 56 43h366q27 0 33.5 -10.5t3.5 -32.5l-197 -1120q-7 -45 -53 -45h-366z" />
    <glyph glyph-name="j" unicode="j" horiz-adv-x="673" 
d="M760 1300h-387q-21 0 -32 10.5t-7 32.5l37 209q7 43 53 43h387q48 0 41 -43l-37 -209q-7 -43 -55 -43zM369 1208h366q45 0 37 -43l-209 -1188q-20 -115 -61 -196t-100.5 -126t-127 -65t-151.5 -20q-89 0 -215 22q-43 7 -35 46l39 221q3 22 13.5 32.5t37.5 10.5h86
q26 0 37 18.5t18 56.5l209 1188q7 43 56 43z" />
    <glyph glyph-name="k" unicode="k" horiz-adv-x="1370" 
d="M1069 1208h418q17 0 24.5 -10t4.5 -22.5t-11 -20.5l-422 -541l236 -561q8 -19 -2 -36t-35 -17h-418q-22 0 -35.5 8.5t-21.5 36.5l-158 485l-84 -485q-7 -45 -49 -45h-366q-47 0 -39 45l266 1507q7 43 53 43h358q25 0 36 -9t7 -34l-147 -843l311 456q18 28 34.5 35.5
t39.5 7.5z" />
    <glyph glyph-name="l" unicode="l" horiz-adv-x="663" 
d="M799 1595q45 0 37 -43l-267 -1507q-4 -22 -14 -33.5t-37 -11.5h-368q-47 0 -39 45l266 1507q7 43 53 43h369z" />
    <glyph glyph-name="m" unicode="m" horiz-adv-x="1902" 
d="M1946 897q0 -72 -15 -152l-123 -700q-7 -45 -51 -45h-368q-21 0 -31 12t-6 33l123 700q4 24 4 33q0 32 -16.5 44t-49.5 12q-35 0 -92 -13q-9 -71 -10 -76l-123 -700q-7 -45 -51 -45h-369q-45 0 -37 45l123 700q4 28 4 35q0 31 -15 42.5t-48 11.5q-49 0 -90 -13l-138 -776
q-2 -15 -5.5 -23.5t-14.5 -15t-29 -6.5h-368q-47 0 -39 45l198 1122q2 14 5.5 21.5t13.5 13.5t28 6h338q20 0 29 -11.5t6 -29.5l-12 -61q89 70 172.5 96.5t179.5 26.5q178 0 231 -123q145 123 342 123q154 0 229 -87t75 -245z" />
    <glyph glyph-name="n" unicode="n" horiz-adv-x="1335" 
d="M1380 897q0 -61 -14 -143l-125 -709q-2 -15 -5.5 -23.5t-15 -15t-30.5 -6.5h-369q-45 0 -37 45l125 709q2 12 2 37q0 30 -24.5 46.5t-63.5 16.5q-54 0 -118 -31l-138 -778q-2 -12 -4 -18t-6.5 -13.5t-14 -10.5t-24.5 -3h-368q-20 0 -31.5 11.5t-7.5 33.5l198 1122
q3 17 16.5 29t30.5 12h338q42 0 35 -41l-10 -57q86 62 166 90.5t184 28.5q311 0 311 -332z" />
    <glyph glyph-name="o" unicode="o" horiz-adv-x="1269" 
d="M1327 797q0 -57 -14 -146l-17 -94q-28 -160 -86 -273t-144.5 -179t-192.5 -95.5t-242 -29.5q-228 0 -350.5 115.5t-122.5 322.5q0 66 12 139l16 94q27 158 85 270.5t145 179.5t194 97.5t242 30.5q228 0 351.5 -111t123.5 -321zM868 748q0 57 -21 80.5t-63 23.5
q-107 0 -143 -201l-16 -94q-11 -71 -11 -96q0 -57 21 -81t63 -24q56 0 89.5 43t54.5 158l16 94q10 65 10 97z" />
    <glyph glyph-name="p" unicode="p" horiz-adv-x="1302" 
d="M1362 797q0 -48 -10 -113l-29 -160q-50 -275 -212 -409.5t-445 -134.5q-53 0 -111 12l-59 -336q-3 -19 -16 -31t-31 -12h-367q-46 0 -41 43l256 1452q5 29 25 45.5t71 26.5q272 49 492 49q223 0 350 -118t127 -314zM905 760q0 48 -20.5 70t-67.5 22q-51 0 -110 -6
l-86 -484q99 -6 110 -6q61 0 91 39t46 129l29 160q8 39 8 76z" />
    <glyph glyph-name="q" unicode="q" horiz-adv-x="1302" 
d="M852 1229q225 0 475 -49q44 -9 58.5 -25t9.5 -47l-256 -1452q-3 -21 -14.5 -32t-39.5 -11h-366q-21 0 -30 9t-5 34l59 336q-58 -12 -112 -12q-221 0 -349 117.5t-128 314.5q0 47 10 112l29 160q98 545 659 545zM895 846q-47 6 -84 6q-44 0 -74 -11.5t-47.5 -36.5
t-26 -51.5t-16.5 -68.5l-29 -160q-6 -30 -6 -65q0 -48 21 -75.5t82 -27.5q37 0 94 6z" />
    <glyph glyph-name="r" unicode="r" horiz-adv-x="899" 
d="M997 1229h15q27 0 37 -9t6 -32l-51 -289q-2 -13 -6 -21t-14 -14t-28 -6h-14q-168 0 -237 -35l-138 -778q-2 -14 -6 -23t-14.5 -15.5t-28.5 -6.5h-368q-46 0 -39 45l198 1122q7 41 47 41h324q43 0 35 -41l-13 -59q103 121 295 121z" />
    <glyph glyph-name="s" unicode="s" horiz-adv-x="1105" 
d="M1161 1174q23 -6 30.5 -14.5t4.5 -29.5l-47 -266q-1 -11 -2.5 -16.5t-4.5 -13.5t-8 -9.5t-13.5 -4.5t-20.5 1q-59 10 -182 23.5t-177 13.5q-47 0 -47 -22q0 -12 7.5 -20t37.5 -25l162 -86q66 -35 108.5 -73t62.5 -79.5t27 -78t7 -83.5q0 -108 -43 -188t-124 -128.5
t-188.5 -71.5t-244.5 -23q-224 0 -373 53q-20 7 -27 17.5t-4 27.5l45 256q5 27 18.5 39t43.5 8q259 -39 348 -39q22 0 36.5 2t29 13t14.5 32q0 20 -39 41l-182 100q-183 103 -183 291q0 408 547 408q192 0 381 -55z" />
    <glyph glyph-name="t" unicode="t" horiz-adv-x="901" 
d="M872 1208h140q28 0 37.5 -9t5.5 -34l-43 -247q-7 -46 -51 -46h-148l-88 -501q-4 -24 -4 -31q0 -16 8 -22.5t29 -6.5h98q23 0 31 -8.5t4 -34.5l-39 -223q-3 -21 -12.5 -31t-38.5 -14q-123 -20 -221 -20q-59 0 -111.5 13.5t-102 44.5t-79 92t-29.5 146q0 41 10 103l86 493
l-112 21q-13 2 -21.5 6t-13.5 13.5t-2 25.5l39 227q7 43 53 43h117l28 168q3 20 14 29.5t40 13.5l366 62q31 4 43.5 -6.5t7.5 -34.5z" />
    <glyph glyph-name="u" unicode="u" horiz-adv-x="1335" 
d="M1399 1208q46 0 39 -45l-199 -1122q-4 -20 -13.5 -30.5t-33.5 -10.5h-338q-42 0 -35 41l10 57q-87 -62 -157 -90t-183 -28q-85 0 -148 28t-99.5 77t-54 110.5t-17.5 134.5q0 64 12 125l125 708q3 19 17.5 32t33.5 13h369q46 0 37 -45l-119 -676q-8 -46 -8 -61
q0 -72 88 -72q55 0 119 31l137 778q7 45 49 45h369z" />
    <glyph glyph-name="v" unicode="v" horiz-adv-x="1333" 
d="M1481 1208q20 0 27 -10.5t-1 -32.5l-420 -929q-33 -72 -74 -122t-78.5 -75.5t-90 -39.5t-88 -16.5t-92.5 -2.5t-92 2.5t-82.5 16.5t-76 39.5t-52.5 75.5t-31 122l-92 929v2q0 41 43 41h389q24 0 30.5 -11t6.5 -32l16 -690q0 -31 12 -31q13 0 25 31l258 690q7 21 18 32
t35 11h410z" />
    <glyph glyph-name="w" unicode="w" horiz-adv-x="1839" 
d="M1976 1208q18 0 24.5 -6t0.5 -24l-371 -1028q-18 -49 -35.5 -80.5t-33 -50t-40.5 -27t-46 -10.5t-60 -2h-192q-85 0 -114 29t-46 130l-49 295q-3 19 -15 19q-13 0 -22 -19l-152 -295q-52 -101 -92 -130t-125 -29h-192q-39 0 -59 2t-41.5 10.5t-31 27t-15.5 50t-7 80.5
l-10 1028q0 30 37 30h407q16 0 19.5 -7t3.5 -25l-29 -611q0 -18 12 -18t21 18l149 283q24 44 45 59t62 15h205q41 0 57.5 -15.5t24.5 -58.5l51 -283q4 -26 16 -26q8 0 17 26l184 611q5 16 14.5 24t32.5 8h395z" />
    <glyph glyph-name="x" unicode="x" horiz-adv-x="1366" 
d="M1481 1208q16 0 21 -12t-7 -31l-442 -573l270 -547q9 -15 0.5 -30t-31.5 -15h-420q-24 0 -37.5 9t-25.5 36l-113 244l-170 -246q-30 -43 -57 -43h-399q-15 0 -19.5 16t4.5 27l457 598l-254 510q-13 29 -5.5 43t28.5 14h407q25 0 40.5 -7.5t21 -15t10.5 -20.5l102 -229
l158 229q18 26 32 34.5t48 8.5h381z" />
    <glyph glyph-name="y" unicode="y" horiz-adv-x="1343" 
d="M1495 1208q40 0 21 -43l-566 -1228q-32 -70 -65 -120.5t-81 -98t-106 -76.5t-139 -46.5t-182 -17.5q-67 0 -163 14t-138 29q-27 9 -34.5 16.5t-4.5 24.5l41 234q3 16 5.5 24t15 15.5t34.5 5.5q215 -15 305 -15q69 0 90 47l31 70h-27q-32 0 -56.5 6t-49.5 21.5t-41.5 49
t-22.5 83.5l-124 962q-3 24 9.5 33.5t43.5 9.5h391q33 0 33 -43l26 -639q0 -28 15 -28h14l248 667q15 43 53 43h424z" />
    <glyph glyph-name="z" unicode="z" horiz-adv-x="1161" 
d="M1229 1208q42 0 35 -41l-39 -219q-6 -34 -18 -54t-54 -65l-395 -432q-15 -19 -15 -24q0 -15 21 -15h323q16 0 24 -6t5 -26l-49 -285q-7 -41 -49 -41h-875q-38 0 -32 41l36 215q6 33 16 53t36 49l419 455q15 19 15 25q0 12 -21 12h-317q-14 0 -22 9t-5 24l51 284
q7 41 48 41h862z" />
    <glyph glyph-name="braceleft" unicode="{" horiz-adv-x="892" 
d="M903 1171q-50 0 -67.5 -22t-28.5 -86l-37 -205q-41 -224 -244 -303q144 -65 144 -229q0 -36 -6 -76l-37 -205q-6 -34 -6 -57q0 -28 14.5 -39.5t50.5 -11.5h96q33 0 33 -27v-6l-51 -283q-3 -15 -15.5 -25t-29.5 -10h-137q-225 0 -325.5 86.5t-100.5 245.5q0 60 12 127
l37 205q4 28 4 41q0 81 -82 135l45 256q71 38 100 77.5t39 98.5l37 205q18 101 39 170t54 122t72.5 84t101.5 50.5t133.5 26t175.5 6.5h137q38 0 33 -35l-50 -283q-3 -17 -12.5 -25t-32.5 -8h-96z" />
    <glyph glyph-name="bar" unicode="|" horiz-adv-x="663" 
d="M692 -352q0 -19 -12 -32t-31 -13h-368q-19 0 -33.5 13.5t-14.5 31.5v1831q0 18 14.5 30.5t33.5 12.5h368q19 0 31 -12t12 -31v-1831z" />
    <glyph glyph-name="braceright" unicode="}" horiz-adv-x="892" 
d="M963 682l-45 -256q-53 -27 -92 -74.5t-48 -101.5l-37 -205q-18 -97 -38.5 -164.5t-53 -121t-72.5 -85t-101.5 -52.5t-134.5 -28.5t-177 -7.5h-137q-15 0 -24 8.5t-9 20.5v6l51 283q7 33 45 33h96q50 0 68.5 24t28.5 84l36 205q19 107 80 186t164 119q-69 30 -105 100
t-36 150q0 37 4 53l37 205q6 30 6 53q0 29 -15 42t-51 13h-96q-15 0 -24 7.5t-9 19.5v6l50 283q3 15 15.5 25t29.5 10h137q165 0 261.5 -32.5t134.5 -92.5t38 -158q0 -77 -18 -176l-37 -205q-2 -10 -2 -31q0 -43 22 -82t58 -63z" />
    <glyph glyph-name="asciitilde" unicode="~" horiz-adv-x="1310" 
d="M1407 1004q0 -193 -96.5 -275t-284.5 -82q-36 0 -98.5 15.5t-102.5 37.5l-102 54q-64 34 -96 34q-22 0 -31.5 -8.5t-9.5 -29.5v-43q0 -45 -47 -45h-258q-22 0 -36 12t-14 33v43q0 190 99.5 273t287.5 83q102 0 195 -49l102 -53q73 -39 105 -39q19 0 26 9.5t7 31.5v43
q0 45 47 45h258q22 0 35.5 -12t13.5 -33v-45z" />
    <glyph glyph-name="uni00A0" unicode="&#xa0;" horiz-adv-x="471" 
 />
    <glyph glyph-name="exclamdown" unicode="&#xa1;" horiz-adv-x="632" 
d="M743 1174v-7l-55 -311q-3 -17 -17.5 -29t-31.5 -12h-358q-15 0 -24 9.5t-9 23.5v8l55 311q3 17 16.5 29t30.5 12h359q15 0 24.5 -9.5t9.5 -24.5zM602 649v-6l-113 -987q-1 -18 -16.5 -30.5t-34.5 -12.5h-383q-15 0 -26 10t-11 23q0 2 1 5t1 5l236 987q5 20 18 32.5
t31 12.5h260q17 0 27 -11.5t10 -27.5z" />
    <glyph glyph-name="cent" unicode="&#xa2;" 
d="M1262 1163v-8l-50 -278q-7 -43 -47 -43h-4q-18 1 -63 4.5t-82 5.5t-74 2q-61 0 -91 -40t-48 -134l-25 -135q-10 -58 -10 -86q0 -45 21 -67t67 -22q37 0 75.5 2t83 6t64.5 5h2q15 0 26 -11t11 -26v-6l-49 -279q-3 -17 -15 -25.5t-34 -13.5q-88 -20 -143 -26l-23 -125
q-3 -17 -16.5 -29t-30.5 -12h-289q-15 0 -25 10t-10 25v6l29 157q-103 44 -153 140t-50 227q0 73 15 150l24 135q23 125 56.5 215.5t81 151.5t103.5 98.5t132 64.5l22 137q3 17 18 29t32 12h288q15 0 24 -9t9 -23v-9l-20 -120q84 -12 135 -25q33 -7 33 -31z" />
    <glyph glyph-name="sterling" unicode="&#xa3;" 
d="M1466 1477q0 -2 -1 -7t-1 -8l-55 -311q-5 -37 -41 -37h-6q-133 10 -346 10q-73 0 -98.5 -22t-40.5 -103l-11 -55h279q15 0 25 -10t10 -25v-6l-52 -289q-3 -17 -17.5 -29t-31.5 -12h-278l-17 -100q-8 -52 -43 -102h490q15 0 24 -9.5t9 -23.5v-8l-50 -289q-3 -17 -17.5 -29
t-31.5 -12h-968q-15 0 -24 9.5t-9 23.5v8l39 225q6 29 30 53q24 22 54 70t35 84l16 100h-98q-15 0 -24 9.5t-9 23.5v8l51 289q3 17 16.5 29t30.5 12h98l9 47q24 137 65.5 235t96.5 159t136 96t169 48t211 13q108 0 340 -35q21 -3 28.5 -9.5t7.5 -20.5z" />
    <glyph glyph-name="currency" unicode="&#xa4;" 
d="M1384 1120q0 -16 -14 -30l-178 -179q33 -81 33 -153q0 -89 -37 -164l174 -174q14 -14 14 -31q0 -12 -10 -22l-154 -154q-10 -10 -22 -10q-17 0 -31 14l-180 180q-65 -26 -141 -26t-154 32l-178 -178q-16 -16 -33 -16q-10 0 -20 10l-154 154q-10 10 -10 24q0 17 14 31
l178 176q-32 78 -32 154q0 78 26 143l-180 180q-14 14 -14 31q0 13 10 23l153 153q10 10 23 10q17 0 31 -14l174 -174q71 35 166 35q77 0 153 -31l176 178q15 15 31 15q12 0 23 -11l153 -153q10 -10 10 -23zM979 762q0 57 -40 97t-97 40t-98.5 -40t-41.5 -97t41.5 -98
t98.5 -41t97 41t40 98z" />
    <glyph glyph-name="yen" unicode="&#xa5;" 
d="M1647 1499q0 -7 -7 -18l-288 -447h149q15 0 25 -10t10 -25v-6l-37 -198q-3 -17 -16.5 -29t-30.5 -12h-285l-116 -179h370q15 0 24 -9t9 -23v-8l-35 -199q-3 -17 -17.5 -29t-31.5 -12h-373l-43 -254q-3 -17 -18 -29t-33 -12h-399q-15 0 -24 9.5t-9 23.5v8l43 254h-371
q-15 0 -23.5 9.5t-8.5 23.5v8l34 199q3 17 17.5 28.5t32.5 11.5h370l-51 179h-289q-15 0 -25 9.5t-10 24.5v7l37 198q3 17 16.5 29t30.5 12h154l-137 447q0 1 -1 4t-1 4q0 14 10 23.5t25 9.5h442q27 0 35 -41l86 -449l243 449q25 41 52 41h440q12 0 18.5 -7t6.5 -16z" />
    <glyph glyph-name="brokenbar" unicode="&#xa6;" horiz-adv-x="663" 
d="M700 745q0 -19 -12 -32t-31 -13h-368q-19 0 -33 13t-14 32v703q0 18 14 30.5t33 12.5h368q19 0 31 -12t12 -31v-703zM700 -387q0 -19 -12 -32t-31 -13h-368q-19 0 -33 13t-14 32v702q0 18 14 30.5t33 12.5h368q19 0 31 -12t12 -31v-702z" />
    <glyph glyph-name="section" unicode="&#xa7;" horiz-adv-x="1277" 
d="M1413 1450v-6l-53 -305q-3 -17 -15.5 -29t-27.5 -12h-4q-318 30 -494 30q-26 0 -37.5 -8.5t-11.5 -29.5t66 -60l262 -153q198 -116 198 -318q0 -152 -104 -303q29 -82 29 -147q0 -24 -7 -64q-15 -87 -48 -160.5t-89.5 -135t-133 -104t-182 -66t-233.5 -23.5
q-240 0 -430 61q-35 12 -35 35v6l54 305q3 18 15.5 29.5t29.5 11.5h4q16 -2 82 -9t117.5 -12t119.5 -9.5t115 -4.5q88 0 88 64q0 19 -9.5 31.5t-37.5 31.5l-274 178q-181 116 -181 330q0 173 99 314q-21 73 -21 141q0 33 6 67q18 103 57.5 177t110.5 129.5t184 82.5t271 27
q130 0 275.5 -17.5t211.5 -39.5q33 -11 33 -35zM901 508q0 39 -27.5 70.5t-99.5 76.5l-108 68q-55 34 -68 53q-47 -44 -47 -117q0 -36 24.5 -65.5t88.5 -69.5l104 -65q65 -41 94 -74q39 56 39 123z" />
    <glyph glyph-name="dieresis" unicode="&#xa8;" horiz-adv-x="1024" 
d="M1212 1559v-7l-36 -209q-3 -18 -20 -30.5t-36 -12.5h-284q-17 0 -28 11t-11 26v6l37 209q3 18 18.5 30.5t34.5 12.5h284q17 0 29 -10.5t12 -25.5zM741 1559v-7l-36 -209q-3 -18 -20 -30.5t-36 -12.5h-284q-17 0 -28 11t-11 26v6l36 209q3 18 19 30.5t35 12.5h284
q17 0 29 -10.5t12 -25.5z" />
    <glyph glyph-name="copyright" unicode="&#xa9;" horiz-adv-x="1536" 
d="M1612 766q0 -189 -94 -349t-254.5 -252.5t-350.5 -92.5q-142 0 -270.5 54.5t-221.5 147.5t-147.5 221.5t-54.5 270.5q0 189 92.5 350t252.5 255.5t349 94.5q142 0 271.5 -55.5t223 -149.5t149 -223.5t55.5 -271.5zM1491 766q0 156 -78 289.5t-211 212t-289 78.5
t-288 -78.5t-208.5 -212t-76.5 -289.5q0 -117 45.5 -223t122 -182.5t182.5 -122t223 -45.5q156 0 289 76.5t211 208.5t78 288zM1126 373q0 -11 -4.5 -16t-19.5 -9q-68 -22 -154 -22q-188 0 -281.5 101.5t-93.5 295.5v96q0 195 94 296.5t281 101.5q91 0 154 -23
q15 -4 19.5 -9t4.5 -16v-184q0 -22 -20 -22h-4q-85 10 -154 10q-44 0 -70 -31.5t-26 -122.5v-96q0 -94 26 -124t70 -30q61 0 154 11h4q20 0 20 -21v-186z" />
    <glyph glyph-name="ordfeminine" unicode="&#xaa;" horiz-adv-x="821" 
d="M975 1309q0 -31 -6 -72l-78 -434q-3 -25 -21 -31q-182 -41 -317 -41q-154 0 -231.5 56.5t-77.5 156.5q0 25 2 39l2 14q9 63 42 106.5t87.5 66t116.5 31.5t143 9h33l6 27q4 20 4 25q0 23 -15 29.5t-47 6.5q-147 0 -233 -8h-2q-18 0 -18 23v6l26 151q3 22 31 33
q39 13 113.5 26t130.5 13q66 0 119.5 -11.5t97.5 -37.5t68 -72.5t24 -111.5zM651 1061h-41q-33 0 -56.5 -15.5t-27.5 -48.5l-2 -14v-10q0 -25 17 -33t47 -8q19 0 43 4z" />
    <glyph glyph-name="guillemotleft" unicode="&#xab;" horiz-adv-x="1589" 
d="M1757 1071q0 -15 -16 -31l-449 -438l262 -438q9 -18 9 -23q0 -10 -8.5 -17t-20.5 -7h-328q-42 0 -53 20l-258 422q-16 26 -16 49q0 33 32 70l375 389q18 20 62 20h389q20 0 20 -16zM1030 1071q0 -15 -16 -31l-449 -438l262 -438q9 -18 9 -23q0 -10 -8.5 -17t-20.5 -7
h-328q-42 0 -53 20l-258 422q-16 26 -16 49q0 33 32 70l375 389q18 20 62 20h389q20 0 20 -16z" />
    <glyph glyph-name="logicalnot" unicode="&#xac;" horiz-adv-x="1310" 
d="M1300 385q0 -41 -32 -41h-267q-32 0 -32 41v541h-621q-41 0 -41 32v267q0 32 41 32h912q40 0 40 -32v-840z" />
    <glyph glyph-name="uni00AD" unicode="&#xad;" horiz-adv-x="536" 
d="M635 735v-6l-43 -242q-3 -17 -17.5 -29t-31.5 -12h-393q-15 0 -24 9.5t-9 23.5v8l43 242q3 17 16.5 29t30.5 12h393q15 0 25 -10t10 -25z" />
    <glyph glyph-name="registered" unicode="&#xae;" horiz-adv-x="1323" 
d="M1432 989q0 -160 -79 -295.5t-215 -214t-296 -78.5t-296 78.5t-215 214t-79 295.5t79 296t215 215t296 79t296 -79t215 -215t79 -296zM1313 989q0 195 -138 333t-333 138q-128 0 -236 -63t-170.5 -171.5t-62.5 -236.5q0 -195 137 -332t332 -137q128 0 236.5 62.5
t171.5 170.5t63 236zM1143 674q0 -7 -5.5 -12t-11.5 -5h-198q-10 0 -19 19l-110 217h-29v-217q0 -8 -5.5 -13.5t-12.5 -5.5h-181q-7 0 -12.5 5.5t-5.5 13.5v586q0 42 12.5 56.5t50.5 20.5q101 13 203 13q146 0 222.5 -53.5t76.5 -178.5v-20q0 -113 -104 -172l127 -244
q2 -4 2 -10zM911 1100v20q0 56 -73 56h-76v-132h76q36 0 54.5 16.5t18.5 39.5z" />
    <glyph glyph-name="macron" unicode="&#xaf;" horiz-adv-x="1024" 
d="M1190 1561v-7l-39 -213q-3 -17 -16.5 -29t-30.5 -12h-725q-15 0 -25 10t-10 25v6l39 213q3 17 16.5 29t30.5 12h725q15 0 25 -9.5t10 -24.5z" />
    <glyph glyph-name="degree" unicode="&#xb0;" horiz-adv-x="770" 
d="M932 1208q0 -138 -98 -236t-236 -98q-137 0 -235.5 98t-98.5 236t98.5 236t235.5 98q138 0 236 -98t98 -236zM721 1208q0 51 -36.5 87t-86.5 36t-85.5 -36t-35.5 -87q0 -50 35 -85.5t86 -35.5t87 35t36 86z" />
    <glyph glyph-name="plusminus" unicode="&#xb1;" horiz-adv-x="1310" 
d="M1260 668q0 -33 -41 -33h-291v-289q0 -41 -33 -41h-266q-33 0 -33 41v289h-289q-41 0 -41 33v266q0 33 41 33h289v290q0 41 33 41h266q33 0 33 -41v-290h291q41 0 41 -33v-266zM1260 -29q0 -32 -41 -32h-912q-41 0 -41 32v207q0 33 41 33h912q41 0 41 -33v-207z" />
    <glyph glyph-name="two.superior" unicode="&#xb2;" horiz-adv-x="751" 
d="M913 1356q0 -183 -239 -309q-2 -1 -26.5 -14t-33.5 -18.5t-31 -19t-34 -23t-27 -23.5t-24 -27h299q16 0 22.5 -6.5t3.5 -24.5l-30 -176q-3 -13 -15 -22t-24 -9h-531q-33 0 -26 31l20 121q23 121 93 204.5t175 145.5q26 16 55 33.5t44 27t24 15.5q23 15 23 34
q0 11 -14.5 16t-61.5 5q-75 0 -211 -12h-2q-13 0 -20.5 10t-4.5 22l23 127q2 20 33 31q132 47 268 47q272 0 272 -186z" />
    <glyph glyph-name="three.superior" unicode="&#xb3;" horiz-adv-x="749" 
d="M264 920h2q151 -11 234 -11q78 0 78 68q0 35 -46 35h-188q-14 0 -22 9.5t-7 22.5l27 142q1 13 12 23t25 10h174q38 0 58 16.5t20 42.5q0 39 -60 39q-87 0 -229 -10h-2q-13 0 -20.5 8.5t-4.5 21.5l21 121q3 19 9 24.5t26 14.5q39 18 116 31.5t146 13.5q128 0 203 -46.5
t75 -145.5q0 -27 -6 -54q-10 -63 -41.5 -103.5t-83.5 -72.5q66 -45 66 -135q0 -149 -99.5 -225t-265.5 -76q-60 0 -140 13t-120 36q-18 11 -16 27l22 129q7 31 37 31z" />
    <glyph glyph-name="acute" unicode="&#xb4;" horiz-adv-x="1024" 
d="M1272 1583q0 -9 -12 -18l-310 -244q-23 -18 -37 -20q-7 -1 -18 -1h-315q-17 0 -17 13q0 10 12 22l220 230q19 19 29.5 24.5t33.5 5.5h391q9 0 16 -3.5t7 -8.5z" />
    <glyph glyph-name="mu" unicode="&#xb5;" horiz-adv-x="1335" 
d="M1438 1169v-6l-189 -1069q-5 -28 -24 -44t-70 -27q-198 -43 -489 -43q-54 0 -107 6l-59 -332q-3 -17 -16.5 -29t-30.5 -12h-377q-15 0 -25 10t-10 25v6l266 1509q3 19 17.5 32t33.5 13h367q17 0 27 -10.5t10 -26.5v-8l-129 -735q0 -3 -1 -8t-1 -8q0 -31 25.5 -48.5
t72.5 -17.5q65 0 109 6l143 811q3 19 17 32t32 13h369q17 0 28 -11t11 -28z" />
    <glyph glyph-name="paragraph" unicode="&#xb6;" horiz-adv-x="1411" 
d="M1573 1497q0 -2 -1 -7t-1 -7l-326 -1843q-3 -16 -15 -27.5t-26 -11.5h-123q-28 0 -28 32v7l297 1689h-136l-296 -1689q-3 -16 -14.5 -27.5t-26.5 -11.5h-123q-13 0 -21 9t-8 23v7l145 821h-182q-195 0 -318.5 97t-123.5 271q0 48 8 89l27 147q19 108 75 195.5t135.5 144
t177.5 87t205 30.5h670q29 0 29 -25z" />
    <glyph glyph-name="periodcentered" unicode="&#xb7;" horiz-adv-x="606" 
d="M686 926v-6l-55 -312q-3 -17 -17.5 -29t-31.5 -12h-357q-15 0 -26 10t-11 25v6l56 312q3 17 18 29t33 12h356q15 0 25 -10t10 -25z" />
    <glyph glyph-name="cedilla" unicode="&#xb8;" horiz-adv-x="1024" 
d="M764 -117q0 -9 -12 -18l-310 -244l-16 -12t-14 -5.5t-25 -2.5h-307q-17 0 -17 12q0 9 13 22l223 230q14 14 20 19t16.5 8.5t26.5 3.5h379q9 0 16 -4t7 -9z" />
    <glyph glyph-name="one.superior" unicode="&#xb9;" horiz-adv-x="567" 
d="M621 709q-8 -23 -27 -23h-240q-9 0 -15 7t-3 16l94 542l-123 -45q-12 -4 -14 -4q-8 0 -8 15l37 200q3 18 18 23l197 78q15 6 26 6h178q9 0 15 -7t4 -16z" />
    <glyph glyph-name="ordmasculine" unicode="&#xba;" horiz-adv-x="854" 
d="M1010 1264q0 -33 -11 -97l-12 -61q-40 -200 -146.5 -287.5t-283.5 -87.5q-146 0 -228.5 73.5t-82.5 205.5q0 38 10 96l12 61q40 203 146.5 289t285.5 86q146 0 228 -73t82 -205zM713 1233q0 63 -56 63q-36 0 -58 -28t-36 -101l-12 -61q-8 -50 -8 -64q0 -67 57 -67
q35 0 56 28.5t36 102.5l13 61q8 36 8 66z" />
    <glyph glyph-name="guillemotright" unicode="&#xbb;" horiz-adv-x="1589" 
d="M1647 596q0 -32 -33 -70l-375 -389q-18 -20 -61 -20h-390q-20 0 -20 16q0 15 16 31l449 438l-262 438q-8 16 -8 23q0 10 8 17t20 7h328q42 0 53 -20l258 -422q17 -27 17 -49zM920 596q0 -32 -33 -70l-375 -389q-18 -20 -61 -20h-390q-20 0 -20 16q0 15 16 31l449 438
l-262 438q-8 16 -8 23q0 10 8 17t20 7h328q42 0 53 -20l258 -422q17 -27 17 -49z" />
    <glyph glyph-name="onequarter" unicode="&#xbc;" horiz-adv-x="1712" 
d="M1706 811v-6l-76 -434h43q12 0 19.5 -7t7.5 -18v-6l-27 -152q-3 -14 -14.5 -23t-24.5 -9h-43l-20 -123q-1 -13 -13 -23t-26 -10h-213q-12 0 -19.5 8t-7.5 19v6l21 123h-283q-24 0 -24 26v6l26 144q2 17 19 37l438 452q17 17 39 17h151q12 0 19.5 -8t7.5 -19zM1681 1503
q0 -11 -10 -24l-1110 -1448q-15 -20 -24 -25.5t-25 -5.5h-291q-10 0 -16 7t-6 16q0 11 8 22l1110 1446q14 19 24 25t29 6h291q20 0 20 -19zM760 1503v-4l-139 -792q-1 -9 -9.5 -16t-17.5 -7h-240q-8 0 -13 5t-5 13v5l96 542l-123 -45q-12 -4 -14 -4q-8 0 -8 10v4l35 201
q3 17 20 23l195 78q15 6 26 6h178q7 0 13 -6t6 -13zM1391 522l-146 -151h119z" />
    <glyph glyph-name="onehalf" unicode="&#xbd;" horiz-adv-x="1751" 
d="M1792 653q0 -46 -12.5 -85t-31 -66.5t-52.5 -55.5t-65 -47.5t-81 -46.5q-7 -4 -32.5 -17.5t-40.5 -22t-37 -22t-37.5 -26.5t-26.5 -26h299q12 0 20.5 -7.5t8.5 -19.5v-4l-31 -176q-3 -13 -15 -22t-24 -9h-530q-12 0 -19.5 7t-7.5 18v6l21 121q11 63 36.5 116t63.5 94
t76 70t88 60q54 33 76 45q30 15 49 30q22 16 22 37q0 11 -14.5 15t-60.5 4q-35 0 -106 -6.5t-105 -6.5h-2q-12 0 -19.5 8.5t-7.5 20.5v4l23 127q2 19 34 31q132 47 271 47q75 0 130 -17t84 -46t42.5 -61.5t13.5 -70.5zM1681 1503q0 -11 -10 -24l-1110 -1448
q-15 -20 -24 -25.5t-25 -5.5h-291q-10 0 -16 7t-6 16q0 11 8 22l1110 1446q14 19 24 25t29 6h291q20 0 20 -19zM760 1503v-4l-139 -792q-1 -9 -9.5 -16t-17.5 -7h-240q-18 0 -18 18v5l96 542l-123 -45q-12 -4 -14 -4q-8 0 -8 10v4l35 201q3 17 20 23l195 78q15 6 26 6h178
q19 0 19 -19z" />
    <glyph glyph-name="threequarters" unicode="&#xbe;" horiz-adv-x="1814" 
d="M1808 811v-6l-75 -434h43q12 0 19 -7t7 -18v-6l-26 -152q-3 -14 -14.5 -23t-24.5 -9h-43l-21 -123q-1 -13 -13 -23t-26 -10h-213q-12 0 -19 8t-7 19v6l20 123h-282q-12 0 -18.5 7.5t-6.5 18.5v6l27 144q3 19 18 37l438 452q17 17 39 17h152q12 0 19 -8t7 -19zM1843 1503
q0 -11 -10 -24l-1110 -1448q-15 -20 -24 -25.5t-25 -5.5h-291q-10 0 -16.5 7t-6.5 16q0 10 9 22l1110 1446q14 19 24 25t29 6h291q20 0 20 -19zM911 1346q0 -143 -131 -226q68 -47 68 -137q0 -80 -27.5 -139.5t-78 -93.5t-114 -50t-141.5 -16q-61 0 -143.5 13t-122.5 36
q-16 10 -16 23v4l24 129q3 13 13 22t22 9h2q26 0 110.5 -5.5t123.5 -5.5q80 0 80 64q0 39 -48 39h-188q-12 0 -19.5 7.5t-7.5 18.5v4v2l25 142q1 13 13 23t26 10h174q32 0 54 15.5t22 45.5q0 37 -60 37q-39 0 -120 -5t-109 -5h-2q-25 0 -25 24v6l23 129q4 18 35 31
q39 18 116 31.5t146 13.5q127 0 201.5 -50.5t74.5 -145.5zM1493 522l-145 -151h118z" />
    <glyph glyph-name="questiondown" unicode="&#xbf;" horiz-adv-x="1024" 
d="M1036 1171v-2l-53 -311q-3 -17 -18 -29t-33 -12h-357q-15 0 -24.5 10t-9.5 25v4v2l53 311q3 17 18 29t33 12h356q15 0 25 -10t10 -24v-5zM961 0v-8l-52 -295q-4 -25 -49 -41q-70 -25 -180 -42t-193 -17q-440 0 -440 294q0 43 8 82q23 134 146 275l342 401q35 41 71 41
h275q15 0 25 -10.5t10 -24.5v-6l-15 -82q-18 -99 -42 -148t-95 -143l-129 -167q-39 -50 -39 -76q0 -23 43 -23h10h7l264 23h2q14 0 22.5 -10t8.5 -23z" />
    <glyph glyph-name="Agrave" unicode="&#xc0;" horiz-adv-x="1466" 
d="M1432 39q0 -17 -11 -28t-28 -11h-424q-17 0 -26 11.5t-9 29.5l2 229h-311l-76 -229q-6 -18 -20 -29.5t-31 -11.5h-428q-27 0 -27 23q0 6 4 18l461 1237q56 149 176.5 206.5t321.5 57.5q200 0 298 -57.5t101 -206.5l27 -1237v-2zM950 1135q0 16 -14 16q-4 0 -7 -1t-4.5 -2
t-3.5 -4.5t-3 -5.5t-2.5 -7t-2.5 -7l-159 -477h188l8 477v11zM1292 1645q0 -19 -20 -19h-291q-15 0 -24 3t-12 6t-11 12l-223 243q-6 9 -6 15q0 16 24 16h363q24 0 34 -6.5t21 -24.5l141 -229q4 -6 4 -16z" />
    <glyph glyph-name="Aacute" unicode="&#xc1;" horiz-adv-x="1466" 
d="M1432 39q0 -17 -11 -28t-28 -11h-424q-17 0 -26 11.5t-9 29.5l2 229h-311l-76 -229q-6 -18 -20 -29.5t-31 -11.5h-428q-27 0 -27 23q0 6 4 18l461 1237q56 149 176.5 206.5t321.5 57.5q200 0 298 -57.5t101 -206.5l27 -1237v-2zM950 1135q0 16 -14 16q-4 0 -7 -1t-4.5 -2
t-3.5 -4.5t-3 -5.5t-2.5 -7t-2.5 -7l-159 -477h188l8 477v11zM1505 1909q0 -10 -12 -19l-309 -243q-23 -18 -40 -20q-7 -1 -16 -1h-315q-16 0 -16 12q0 11 12 23l219 229q19 19 30 25t34 6h391q22 0 22 -12z" />
    <glyph glyph-name="Acircumflex" unicode="&#xc2;" horiz-adv-x="1466" 
d="M1432 39q0 -17 -11 -28t-28 -11h-424q-17 0 -26 11.5t-9 29.5l2 229h-311l-76 -229q-6 -18 -20 -29.5t-31 -11.5h-428q-27 0 -27 23q0 6 4 18l461 1237q56 149 176.5 206.5t321.5 57.5q200 0 298 -57.5t101 -206.5l27 -1237v-2zM950 1135q0 16 -14 16q-4 0 -7 -1t-4.5 -2
t-3.5 -4.5t-3 -5.5t-2.5 -7t-2.5 -7l-159 -477h188l8 477v11zM1468 1645q0 -19 -20 -19h-283q-15 0 -24 3t-12 6t-11 12l-82 100l-114 -100q-24 -21 -56 -21h-307q-16 0 -16 12q0 11 12 23l211 229q18 20 28.5 25.5t34.5 5.5h451q24 0 34 -6t21 -25l129 -229q4 -6 4 -16z
" />
    <glyph glyph-name="Atilde" unicode="&#xc3;" horiz-adv-x="1466" 
d="M1432 39q0 -17 -11 -28t-28 -11h-424q-17 0 -26 11.5t-9 29.5l2 229h-311l-76 -229q-6 -18 -20 -29.5t-31 -11.5h-428q-27 0 -27 23q0 6 4 18l461 1237q56 149 176.5 206.5t321.5 57.5q200 0 298 -57.5t101 -206.5l27 -1237v-2zM950 1135q0 16 -14 16q-4 0 -7 -1t-4.5 -2
t-3.5 -4.5t-3 -5.5t-2.5 -7t-2.5 -7l-159 -477h188l8 477v11zM1540 1929v-8l-12 -82q-18 -118 -94.5 -176.5t-194.5 -58.5q-103 0 -188 49l-74 41q-47 24 -72 24q-28 0 -33 -26l-6 -33q-6 -35 -43 -35h-196q-31 0 -31 27v8l10 67q19 122 97 186t186 64q113 0 198 -49l74 -41
q51 -26 74 -26q15 0 21.5 6.5t9.5 21.5l6 33q6 35 43 35h194q31 0 31 -27z" />
    <glyph glyph-name="Adieresis" unicode="&#xc4;" horiz-adv-x="1466" 
d="M1432 39q0 -17 -11 -28t-28 -11h-424q-17 0 -26 11.5t-9 29.5l2 229h-311l-76 -229q-6 -18 -20 -29.5t-31 -11.5h-428q-27 0 -27 23q0 6 4 18l461 1237q56 149 176.5 206.5t321.5 57.5q200 0 298 -57.5t101 -206.5l27 -1237v-2zM950 1135q0 16 -14 16q-4 0 -7 -1t-4.5 -2
t-3.5 -4.5t-3 -5.5t-2.5 -7t-2.5 -7l-159 -477h188l8 477v11zM1516 1884v-6l-37 -209q-3 -18 -20 -30.5t-36 -12.5h-284q-17 0 -28 11t-11 26v6l37 209q3 18 18.5 30.5t34.5 12.5h285q17 0 29 -11t12 -26zM1044 1884v-6l-36 -209q-3 -18 -20 -30.5t-36 -12.5h-284
q-17 0 -28 11t-11 26v6l37 209q3 18 18.5 30.5t34.5 12.5h285q17 0 28.5 -11t11.5 -26z" />
    <glyph glyph-name="Aring" unicode="&#xc5;" horiz-adv-x="1466" 
d="M1432 39q0 -17 -11 -28t-28 -11h-424q-17 0 -26 11.5t-9 29.5l2 229h-311l-76 -229q-6 -18 -20 -29.5t-31 -11.5h-428q-27 0 -27 23q0 6 4 18l461 1237q56 149 176.5 206.5t321.5 57.5q200 0 298 -57.5t101 -206.5l27 -1237v-2zM950 1135q0 16 -14 16q-4 0 -7 -1t-4.5 -2
t-3.5 -4.5t-3 -5.5t-2.5 -7t-2.5 -7l-159 -477h188l8 477v11zM1298 1862q0 -109 -76.5 -186t-185.5 -77t-185.5 77t-76.5 186t76.5 185.5t185.5 76.5t185.5 -76.5t76.5 -185.5zM1114 1864q0 31 -22.5 53t-53.5 22q-30 0 -51.5 -21.5t-21.5 -53.5t21.5 -54t51.5 -22
q31 0 53.5 22.5t22.5 53.5z" />
    <glyph glyph-name="AE" unicode="&#xc6;" horiz-adv-x="1982" 
d="M2130 1489v-8l-57 -332q-3 -17 -18 -29t-32 -12h-438l-26 -156h438q15 0 24 -9t9 -23v-9l-50 -288q-3 -17 -17.5 -29t-31.5 -12h-438l-23 -123q-2 -8 -2 -25q0 -23 13.5 -32t46.5 -9h370q15 0 24 -9.5t9 -23.5v-8l-53 -309q-3 -17 -17 -28t-32 -13q-189 -22 -375 -22
q-71 0 -128.5 6t-119 24.5t-105.5 49.5t-76 84.5t-42 125.5h-356l-78 -229q-6 -18 -20 -29.5t-31 -11.5h-426q-27 0 -27 25q0 4 4 16l457 1216q56 149 175.5 207t319.5 58h1096q15 0 24 -9.5t9 -23.5zM1102 1108h-160q-15 0 -24 -10t-17 -33l-143 -418h264z" />
    <glyph glyph-name="Ccedilla" unicode="&#xc7;" horiz-adv-x="1122" 
d="M1311 1468q0 -1 -1 -4.5t-1 -5.5l-58 -323q-5 -37 -41 -37h-4h-2q-148 18 -268 18q-24 0 -41.5 -2.5t-40 -11t-39.5 -27.5t-35 -47.5t-33 -75t-26 -108.5l-31 -166q-14 -77 -14 -133q0 -47 10 -76.5t31.5 -42.5t41 -16.5t52.5 -3.5q76 0 274 18h2h7q26 0 26 -25
q0 -2 -1 -6t-1 -6l-57 -324q-3 -20 -12 -28t-37 -17q-116 -38 -277 -38q-275 0 -414 135t-139 377q0 82 19 186l30 166q36 194 99 328t159.5 216t219.5 118t288 36q168 0 275 -39q31 -11 36 -21q3 -5 3 -14zM907 -104q0 -10 -12 -19l-309 -244q-11 -9 -16 -12t-15 -5.5
t-25 -2.5h-307q-16 0 -16 12q0 11 12 23l223 229q19 19 30 25t34 6h379q22 0 22 -12z" />
    <glyph glyph-name="Egrave" unicode="&#xc8;" horiz-adv-x="1218" 
d="M1366 1487v-8l-53 -310q-3 -17 -17.5 -29t-31.5 -12h-412q-38 0 -54.5 -13.5t-23.5 -51.5l-20 -111h479q15 0 24 -9t9 -23v-9l-49 -288q-3 -17 -18 -29t-32 -12h-479l-22 -123q-2 -10 -2 -25q0 -23 14 -32t45 -9h412q15 0 23.5 -9.5t8.5 -23.5v-8l-53 -309
q-3 -17 -17 -28t-32 -13q-189 -22 -416 -22q-79 0 -147 11t-130 37.5t-105.5 67.5t-69 105t-25.5 145q0 62 10 113l109 604q13 75 35 137.5t48 108.5t61.5 82.5t69 60.5t78 41.5t81.5 26.5t87.5 14.5t87 6.5t87.5 1q222 0 407 -22q15 -2 24 -11t9 -22zM1178 1645
q0 -19 -21 -19h-291q-15 0 -24 3t-12 6t-11 12l-223 243q-6 9 -6 15q0 16 24 16h363q24 0 34 -6.5t21 -24.5l142 -229q4 -6 4 -16z" />
    <glyph glyph-name="Eacute" unicode="&#xc9;" horiz-adv-x="1218" 
d="M1366 1487v-8l-53 -310q-3 -17 -17.5 -29t-31.5 -12h-412q-38 0 -54.5 -13.5t-23.5 -51.5l-20 -111h479q15 0 24 -9t9 -23v-9l-49 -288q-3 -17 -18 -29t-32 -12h-479l-22 -123q-2 -10 -2 -25q0 -23 14 -32t45 -9h412q15 0 23.5 -9.5t8.5 -23.5v-8l-53 -309
q-3 -17 -17 -28t-32 -13q-189 -22 -416 -22q-79 0 -147 11t-130 37.5t-105.5 67.5t-69 105t-25.5 145q0 62 10 113l109 604q13 75 35 137.5t48 108.5t61.5 82.5t69 60.5t78 41.5t81.5 26.5t87.5 14.5t87 6.5t87.5 1q222 0 407 -22q15 -2 24 -11t9 -22zM1370 1909
q0 -10 -12 -19l-309 -243q-23 -18 -40 -20q-7 -1 -16 -1h-315q-16 0 -16 12q0 11 12 23l219 229q14 14 20 19t16.5 8.5t26.5 3.5h392q22 0 22 -12z" />
    <glyph glyph-name="Ecircumflex" unicode="&#xca;" horiz-adv-x="1218" 
d="M1366 1487v-8l-53 -310q-3 -17 -17.5 -29t-31.5 -12h-412q-38 0 -54.5 -13.5t-23.5 -51.5l-20 -111h479q15 0 24 -9t9 -23v-9l-49 -288q-3 -17 -18 -29t-32 -12h-479l-22 -123q-2 -10 -2 -25q0 -23 14 -32t45 -9h412q15 0 23.5 -9.5t8.5 -23.5v-8l-53 -309
q-3 -17 -17 -28t-32 -13q-189 -22 -416 -22q-79 0 -147 11t-130 37.5t-105.5 67.5t-69 105t-25.5 145q0 62 10 113l109 604q13 75 35 137.5t48 108.5t61.5 82.5t69 60.5t78 41.5t81.5 26.5t87.5 14.5t87 6.5t87.5 1q222 0 407 -22q15 -2 24 -11t9 -22zM1376 1645
q0 -19 -20 -19h-283q-15 0 -24 3t-12 6t-11 12l-82 100l-115 -100q-10 -9 -15 -12.5t-15 -6t-25 -2.5h-307q-16 0 -16 12q0 11 12 23l211 229q18 20 28.5 25.5t34.5 5.5h451q24 0 34 -6t21 -25l129 -229q4 -6 4 -16z" />
    <glyph glyph-name="Edieresis" unicode="&#xcb;" horiz-adv-x="1218" 
d="M1366 1487v-8l-53 -310q-3 -17 -17.5 -29t-31.5 -12h-412q-38 0 -54.5 -13.5t-23.5 -51.5l-20 -111h479q15 0 24 -9t9 -23v-9l-49 -288q-3 -17 -18 -29t-32 -12h-479l-22 -123q-2 -10 -2 -25q0 -23 14 -32t45 -9h412q15 0 23.5 -9.5t8.5 -23.5v-8l-53 -309
q-3 -17 -17 -28t-32 -13q-189 -22 -416 -22q-79 0 -147 11t-130 37.5t-105.5 67.5t-69 105t-25.5 145q0 62 10 113l109 604q13 75 35 137.5t48 108.5t61.5 82.5t69 60.5t78 41.5t81.5 26.5t87.5 14.5t87 6.5t87.5 1q222 0 407 -22q15 -2 24 -11t9 -22zM1368 1884v-6
l-37 -209q-3 -18 -19.5 -30.5t-35.5 -12.5h-285q-17 0 -28 11t-11 26v6l37 209q3 18 18.5 30.5t34.5 12.5h285q17 0 29 -11t12 -26zM897 1884v-6l-37 -209q-3 -18 -19.5 -30.5t-35.5 -12.5h-285q-17 0 -28 11t-11 26v6l37 209q3 18 18.5 30.5t34.5 12.5h285q17 0 29 -11
t12 -26z" />
    <glyph glyph-name="Igrave" unicode="&#xcc;" horiz-adv-x="729" 
d="M866 1489v-8l-252 -1440q-3 -17 -17.5 -29t-31.5 -12h-399q-15 0 -25 10t-10 25v6l252 1440q3 17 18 29t33 12h400q15 0 23.5 -9.5t8.5 -23.5zM903 1645q0 -19 -20 -19h-291q-15 0 -24 3t-12 6t-11 12l-223 243q-7 10 -7 15q0 16 25 16h362q24 0 34.5 -6.5t21.5 -24.5
l141 -229q4 -6 4 -16z" />
    <glyph glyph-name="Iacute" unicode="&#xcd;" horiz-adv-x="729" 
d="M866 1489v-8l-252 -1440q-3 -17 -17.5 -29t-31.5 -12h-399q-15 0 -25 10t-10 25v6l252 1440q3 17 18 29t33 12h400q15 0 23.5 -9.5t8.5 -23.5zM1108 1909q0 -10 -12 -19l-310 -243q-23 -18 -37 -20q-7 -1 -18 -1h-315q-17 0 -17 12q0 10 13 23l219 229q14 14 20 19
t16.5 8.5t26.5 3.5h391q9 0 16 -3.5t7 -8.5z" />
    <glyph glyph-name="Icircumflex" unicode="&#xce;" horiz-adv-x="729" 
d="M866 1489v-8l-252 -1440q-3 -17 -17.5 -29t-31.5 -12h-399q-15 0 -25 10t-10 25v6l252 1440q3 17 18 29t33 12h400q15 0 23.5 -9.5t8.5 -23.5zM1116 1645q0 -19 -20 -19h-283q-15 0 -24 3t-12 6t-11 12l-82 100l-115 -100q-10 -9 -15 -12.5t-15 -6t-25 -2.5h-307
q-17 0 -17 12q0 10 13 23l211 229q18 20 28.5 25.5t34.5 5.5h451q24 0 34 -6t21 -25l129 -229q4 -6 4 -16z" />
    <glyph glyph-name="Idieresis" unicode="&#xcf;" horiz-adv-x="729" 
d="M866 1489v-8l-252 -1440q-3 -17 -17.5 -29t-31.5 -12h-399q-15 0 -25 10t-10 25v6l252 1440q3 17 18 29t33 12h400q15 0 23.5 -9.5t8.5 -23.5zM1120 1884v-6l-37 -209q-3 -18 -19.5 -30.5t-35.5 -12.5h-285q-17 0 -27.5 11t-10.5 26v6l36 209q3 18 19 30.5t35 12.5h284
q17 0 29 -11t12 -26zM649 1884v-6l-37 -209q-3 -18 -19.5 -30.5t-35.5 -12.5h-285q-17 0 -28 11t-11 26v6l37 209q3 18 19 30.5t35 12.5h284q17 0 29 -11t12 -26z" />
    <glyph glyph-name="Eth" unicode="&#xd0;" horiz-adv-x="1445" 
d="M1532 1028q0 -93 -16 -174l-35 -186q-29 -154 -79.5 -271t-119 -196t-160.5 -128.5t-198 -71t-238 -21.5q-295 0 -498 38q-31 6 -45 19t-14 41q0 18 2 28l84 476h-98q-15 0 -24 9t-9 23v7v2l49 288q3 17 17.5 29t31.5 12h99l81 463q7 44 27 63t60 25q222 39 509 39
q260 0 417 -133t157 -381zM1042 991q0 79 -36 108t-121 29h-90l-31 -176h90q15 0 24 -9t9 -23v-7v-2l-49 -288q-3 -17 -18 -29t-32 -12h-90l-32 -189h90q75 0 116.5 22t69 80t49.5 173l35 186q16 88 16 137z" />
    <glyph glyph-name="Ntilde" unicode="&#xd1;" horiz-adv-x="1562" 
d="M1700 1489v-8l-248 -1409q-4 -29 -29.5 -50.5t-54.5 -21.5h-350q-39 0 -57 45l-240 563q-6 17 -14 17h-2q-12 0 -15 -19l-98 -565q-3 -17 -18 -29t-33 -12h-375q-15 0 -25 10t-10 25v6l248 1409q4 29 29.5 50.5t54.5 21.5h336q43 0 67 -58l244 -565q8 -18 18 -18
q4 0 5.5 0.5t3.5 4.5t4 13l102 582q3 17 17.5 29t31.5 12h375q15 0 24 -9.5t9 -23.5zM1556 1929v-8l-12 -82q-18 -118 -94.5 -176.5t-194.5 -58.5q-103 0 -188 49l-74 41q-47 24 -71 24q-28 0 -33 -26l-6 -33q-6 -35 -43 -35h-197q-31 0 -31 27v8l11 67q19 123 96.5 186.5
t185.5 63.5q114 0 199 -49l74 -41q51 -26 73 -26q15 0 21.5 6.5t9.5 21.5l6 33q6 35 43 35h195q30 0 30 -27z" />
    <glyph glyph-name="Ograve" unicode="&#xd2;" horiz-adv-x="1466" 
d="M1550 1022q0 -74 -16 -172l-31 -178q-119 -692 -774 -692q-115 0 -211 30.5t-172 91.5t-119 163.5t-43 236.5q0 66 17 170l30 178q120 692 775 692q115 0 211 -30t172 -91t118.5 -163t42.5 -236zM1057 971q0 77 -31 111t-96 34q-87 0 -136 -60.5t-73 -205.5l-31 -178
q-12 -71 -12 -121q0 -77 31 -111t96 -34q87 0 136 60.5t73 205.5l30 178q13 76 13 121zM1229 1645q0 -19 -21 -19h-290q-15 0 -24 3t-12.5 6t-11.5 12l-223 243q-6 9 -6 15q0 16 25 16h362q24 0 34 -6.5t21 -24.5l142 -229q4 -6 4 -16z" />
    <glyph glyph-name="Oacute" unicode="&#xd3;" horiz-adv-x="1466" 
d="M1550 1022q0 -74 -16 -172l-31 -178q-119 -692 -774 -692q-115 0 -211 30.5t-172 91.5t-119 163.5t-43 236.5q0 66 17 170l30 178q120 692 775 692q115 0 211 -30t172 -91t118.5 -163t42.5 -236zM1057 971q0 77 -31 111t-96 34q-87 0 -136 -60.5t-73 -205.5l-31 -178
q-12 -71 -12 -121q0 -77 31 -111t96 -34q87 0 136 60.5t73 205.5l30 178q13 76 13 121zM1505 1909q0 -10 -12 -19l-309 -243q-23 -18 -40 -20q-7 -1 -16 -1h-315q-16 0 -16 12q0 11 12 23l219 229q19 19 30 25t34 6h391q22 0 22 -12z" />
    <glyph glyph-name="Ocircumflex" unicode="&#xd4;" horiz-adv-x="1466" 
d="M1550 1022q0 -74 -16 -172l-31 -178q-119 -692 -774 -692q-115 0 -211 30.5t-172 91.5t-119 163.5t-43 236.5q0 66 17 170l30 178q120 692 775 692q115 0 211 -30t172 -91t118.5 -163t42.5 -236zM1057 971q0 77 -31 111t-96 34q-87 0 -136 -60.5t-73 -205.5l-31 -178
q-12 -71 -12 -121q0 -77 31 -111t96 -34q87 0 136 60.5t73 205.5l30 178q13 76 13 121zM1485 1647q0 -19 -21 -19h-282q-15 0 -24 3t-12 6t-11 12l-82 100l-115 -100q-10 -9 -15 -12.5t-15 -6t-25 -2.5h-308q-16 0 -16 12q0 11 12 23l211 229q18 20 29 25.5t35 5.5h450
q24 0 34.5 -6t21.5 -25l129 -229q4 -6 4 -16z" />
    <glyph glyph-name="Otilde" unicode="&#xd5;" horiz-adv-x="1466" 
d="M1550 1022q0 -74 -16 -172l-31 -178q-119 -692 -774 -692q-115 0 -211 30.5t-172 91.5t-119 163.5t-43 236.5q0 66 17 170l30 178q120 692 775 692q115 0 211 -30t172 -91t118.5 -163t42.5 -236zM1057 971q0 77 -31 111t-96 34q-87 0 -136 -60.5t-73 -205.5l-31 -178
q-12 -71 -12 -121q0 -77 31 -111t96 -34q87 0 136 60.5t73 205.5l30 178q13 76 13 121zM1544 1931v-8l-12 -82q-18 -118 -94.5 -176.5t-194.5 -58.5q-103 0 -188 49l-74 41q-47 24 -72 24q-27 0 -32 -26l-7 -33q-6 -35 -43 -35h-196q-31 0 -31 27v8l10 68q19 122 97 185.5
t186 63.5q114 0 199 -49l73 -41q51 -26 74 -26q15 0 21.5 6.5t9.5 21.5l6 33q6 35 43 35h194q31 0 31 -27z" />
    <glyph glyph-name="Odieresis" unicode="&#xd6;" horiz-adv-x="1466" 
d="M1550 1022q0 -74 -16 -172l-31 -178q-119 -692 -774 -692q-115 0 -211 30.5t-172 91.5t-119 163.5t-43 236.5q0 66 17 170l30 178q120 692 775 692q115 0 211 -30t172 -91t118.5 -163t42.5 -236zM1057 971q0 77 -31 111t-96 34q-87 0 -136 -60.5t-73 -205.5l-31 -178
q-12 -71 -12 -121q0 -77 31 -111t96 -34q87 0 136 60.5t73 205.5l30 178q13 76 13 121zM1487 1884v-6l-37 -209q-3 -18 -19.5 -30.5t-35.5 -12.5h-285q-17 0 -28 11t-11 26v6l37 209q3 18 18.5 30.5t34.5 12.5h285q17 0 29 -11t12 -26zM1016 1884v-6l-37 -209
q-3 -18 -19.5 -30.5t-35.5 -12.5h-285q-17 0 -28 11t-11 26v6l37 209q3 18 18.5 30.5t34.5 12.5h285q17 0 29 -11t12 -26z" />
    <glyph glyph-name="multiply" unicode="&#xd7;" horiz-adv-x="1310" 
d="M1251 1034q0 -17 -16 -33l-205 -204l203 -205q16 -16 16 -31q0 -10 -10 -20l-188 -189q-10 -10 -21 -10q-15 0 -31 16l-204 203l-205 -203q-16 -16 -31 -16q-10 0 -20 10l-189 189q-10 10 -10 20q0 15 16 31l203 205l-205 204q-16 16 -16 33q0 11 10 21l189 188
q10 10 22 10q15 0 31 -16l205 -207l204 207q16 16 31 16q13 0 23 -10l188 -188q10 -10 10 -21z" />
    <glyph glyph-name="Oslash" unicode="&#xd8;" horiz-adv-x="1466" 
d="M1704 1526q0 -13 -10 -23l-197 -221q53 -109 53 -260q0 -74 -16 -172l-31 -178q-119 -692 -774 -692q-191 0 -326 81l-38 -43q-33 -38 -62 -38h-254q-18 0 -18 16q0 12 10 22l199 222q-56 115 -56 262q0 66 17 170l30 178q120 692 775 692q193 0 327 -80l37 41
q34 39 62 39h254q18 0 18 -16zM1008 1098q-30 18 -78 18q-88 0 -137 -61t-72 -205l-14 -90zM1030 760l-303 -336q30 -18 78 -18q86 0 133.5 60t75.5 206z" />
    <glyph glyph-name="Ugrave" unicode="&#xd9;" horiz-adv-x="1540" 
d="M1677 1487v-6l-157 -895q-25 -143 -71 -248t-108.5 -173.5t-150.5 -109.5t-188 -58t-230 -17q-85 0 -163 15.5t-150.5 52.5t-125.5 91.5t-84.5 138t-31.5 187.5q0 67 12 143l154 873q3 17 18 29t33 12h400q14 0 23 -10.5t9 -24.5v-6l-157 -895q-9 -43 -9 -76
q0 -68 34.5 -94.5t105.5 -26.5q85 0 130 40.5t66 156.5l158 895q3 17 17.5 29t31.5 12h399q15 0 25 -10.5t10 -24.5zM1290 1645q0 -19 -20 -19h-291q-15 0 -24 3t-12 6t-11 12l-223 243q-7 10 -7 15q0 16 25 16h363q24 0 34 -6.5t21 -24.5l141 -229q4 -6 4 -16z" />
    <glyph glyph-name="Uacute" unicode="&#xda;" horiz-adv-x="1540" 
d="M1677 1487v-6l-157 -895q-25 -143 -71 -248t-108.5 -173.5t-150.5 -109.5t-188 -58t-230 -17q-85 0 -163 15.5t-150.5 52.5t-125.5 91.5t-84.5 138t-31.5 187.5q0 67 12 143l154 873q3 17 18 29t33 12h400q14 0 23 -10.5t9 -24.5v-6l-157 -895q-9 -43 -9 -76
q0 -68 34.5 -94.5t105.5 -26.5q85 0 130 40.5t66 156.5l158 895q3 17 17.5 29t31.5 12h399q15 0 25 -10.5t10 -24.5zM1530 1909q0 -10 -12 -19l-310 -243q-23 -18 -37 -20q-7 -1 -18 -1h-315q-17 0 -17 12q0 10 13 23l219 229q14 14 20 19t16.5 8.5t26.5 3.5h391
q9 0 16 -3.5t7 -8.5z" />
    <glyph glyph-name="Ucircumflex" unicode="&#xdb;" horiz-adv-x="1540" 
d="M1677 1487v-6l-157 -895q-25 -143 -71 -248t-108.5 -173.5t-150.5 -109.5t-188 -58t-230 -17q-85 0 -163 15.5t-150.5 52.5t-125.5 91.5t-84.5 138t-31.5 187.5q0 67 12 143l154 873q3 17 18 29t33 12h400q14 0 23 -10.5t9 -24.5v-6l-157 -895q-9 -43 -9 -76
q0 -68 34.5 -94.5t105.5 -26.5q85 0 130 40.5t66 156.5l158 895q3 17 17.5 29t31.5 12h399q15 0 25 -10.5t10 -24.5zM1520 1645q0 -19 -21 -19h-282q-15 0 -24 3t-12.5 6t-11.5 12l-82 100l-114 -100q-10 -9 -15 -12.5t-15 -6t-25 -2.5h-308q-16 0 -16 12q0 11 12 23
l211 229q18 20 29 25.5t35 5.5h450q24 0 34 -6t21 -25l130 -229q4 -6 4 -16z" />
    <glyph glyph-name="Udieresis" unicode="&#xdc;" horiz-adv-x="1540" 
d="M1677 1487v-6l-157 -895q-25 -143 -71 -248t-108.5 -173.5t-150.5 -109.5t-188 -58t-230 -17q-85 0 -163 15.5t-150.5 52.5t-125.5 91.5t-84.5 138t-31.5 187.5q0 67 12 143l154 873q3 17 18 29t33 12h400q14 0 23 -10.5t9 -24.5v-6l-157 -895q-9 -43 -9 -76
q0 -68 34.5 -94.5t105.5 -26.5q85 0 130 40.5t66 156.5l158 895q3 17 17.5 29t31.5 12h399q15 0 25 -10.5t10 -24.5zM1526 1884v-6l-37 -209q-3 -18 -19.5 -30.5t-35.5 -12.5h-285q-17 0 -28 11t-11 26v6l37 209q3 18 18.5 30.5t34.5 12.5h285q17 0 29 -11t12 -26z
M1055 1884v-6l-37 -209q-3 -18 -19.5 -30.5t-35.5 -12.5h-285q-17 0 -28 11t-11 26v6l37 209q3 18 18.5 30.5t34.5 12.5h285q17 0 29 -11t12 -26z" />
    <glyph glyph-name="Yacute" unicode="&#xdd;" horiz-adv-x="1452" 
d="M1688 1499q0 -7 -7 -18l-424 -705q-89 -149 -186 -188l-96 -547q-3 -17 -18 -29t-33 -12h-400q-15 0 -23.5 9.5t-8.5 23.5v8l96 547q-83 38 -121 188l-176 705v8q0 14 9 23.5t24 9.5h432q27 0 35 -41l83 -508q3 -12 11 -12t14 12l262 508q21 41 51 41h451q11 0 18 -7
t7 -16zM1503 1909q0 -10 -12 -19l-309 -243q-23 -18 -40 -20q-7 -1 -16 -1h-315q-16 0 -16 12q0 11 12 23l219 229q19 19 30 25t34 6h391q22 0 22 -12z" />
    <glyph glyph-name="Thorn" unicode="&#xde;" horiz-adv-x="1427" 
d="M1522 948q0 -30 -11 -104l-2 -15q-18 -125 -67 -219.5t-117.5 -153.5t-161.5 -96t-189.5 -51t-211.5 -14q-11 0 -125 4l-45 -258q-3 -17 -17.5 -29t-31.5 -12h-393q-15 0 -24 9.5t-9 23.5v8l252 1440q3 17 17.5 29t31.5 12h393q15 0 24 -9.5t9 -23.5v-8l-19 -105
q84 2 119 2q93 0 172.5 -11.5t156 -41.5t130.5 -77.5t86.5 -124t32.5 -175.5zM1040 879q0 54 -37 75t-120 21h-127l-49 -277h127q158 0 196 131l4 15q6 24 6 35z" />
    <glyph glyph-name="germandbls" unicode="&#xdf;" horiz-adv-x="1425" 
d="M1538 1182q0 -15 -2 -27l-10 -63q-15 -92 -63.5 -156.5t-135.5 -116.5q53 -41 82 -109.5t29 -127.5v-33v-12l-11 -62q-18 -106 -58.5 -190t-96 -140.5t-127 -94t-149.5 -54t-165 -16.5q-88 0 -145 14q-14 3 -23.5 12.5t-9.5 22.5v6l52 293q3 17 17.5 29t31.5 12h94
q61 0 86 24.5t35 81.5l10 62q2 10 2 30q0 39 -28.5 59.5t-96.5 20.5h-47q-15 0 -25 10t-10 25v6l41 234q3 17 17.5 29t31.5 12h47q78 0 109.5 21.5t42.5 76.5l12 63q2 8 2 25q0 74 -125 74q-93 0 -139.5 -32.5t-64.5 -133.5l-179 -1016q-3 -17 -17.5 -29t-31.5 -12h-377
q-14 0 -23 10.5t-9 24.5v6l178 1016q28 162 85.5 270.5t151 171t211.5 88t285 25.5q115 0 207 -27t148.5 -68.5t94 -97t52 -108t14.5 -105.5v-24z" />
    <glyph glyph-name="agrave" unicode="&#xe0;" horiz-adv-x="1314" 
d="M1409 1126q0 -12 -2 -18l-186 -1067q-7 -41 -41 -41h-293q-16 0 -28.5 10t-12.5 25v6l8 57q-135 -118 -307 -118q-163 0 -275 108t-112 301q0 43 10 105l33 190q22 130 66.5 226.5t103 156.5t139 97t164.5 51t190 14q190 0 473 -49q37 -7 53.5 -17.5t16.5 -36.5zM905 846
q-49 6 -88 6q-69 0 -104.5 -34.5t-53.5 -133.5l-41 -229q-2 -10 -2 -29q0 -44 18.5 -59t61.5 -15q55 0 127 33zM1135 1319q0 -19 -21 -19h-291q-15 0 -24 3t-12 6t-11 12l-223 244q-6 9 -6 14q0 16 24 16h363q24 0 34 -6t21 -24l141 -230q5 -7 5 -16z" />
    <glyph glyph-name="aacute" unicode="&#xe1;" horiz-adv-x="1314" 
d="M1409 1126q0 -12 -2 -18l-186 -1067q-7 -41 -41 -41h-293q-16 0 -28.5 10t-12.5 25v6l8 57q-135 -118 -307 -118q-163 0 -275 108t-112 301q0 43 10 105l33 190q22 130 66.5 226.5t103 156.5t139 97t164.5 51t190 14q190 0 473 -49q37 -7 53.5 -17.5t16.5 -36.5zM905 846
q-49 6 -88 6q-69 0 -104.5 -34.5t-53.5 -133.5l-41 -229q-2 -10 -2 -29q0 -44 18.5 -59t61.5 -15q55 0 127 33zM1405 1583q0 -9 -12 -18l-310 -244q-23 -18 -37 -20q-7 -1 -18 -1h-315q-17 0 -17 13q0 9 13 22l219 230q19 19 29.5 24.5t33.5 5.5h391q9 0 16 -3.5t7 -8.5z
" />
    <glyph glyph-name="acircumflex" unicode="&#xe2;" horiz-adv-x="1314" 
d="M1409 1126q0 -12 -2 -18l-186 -1067q-7 -41 -41 -41h-293q-16 0 -28.5 10t-12.5 25v6l8 57q-135 -118 -307 -118q-163 0 -275 108t-112 301q0 43 10 105l33 190q22 130 66.5 226.5t103 156.5t139 97t164.5 51t190 14q190 0 473 -49q37 -7 53.5 -17.5t16.5 -36.5zM905 846
q-49 6 -88 6q-69 0 -104.5 -34.5t-53.5 -133.5l-41 -229q-2 -10 -2 -29q0 -44 18.5 -59t61.5 -15q55 0 127 33zM1346 1319q0 -19 -21 -19h-283q-15 0 -24 3t-12 6t-11 12l-82 100l-114 -100q-24 -21 -56 -21h-307q-16 0 -16 13q0 10 12 22l211 230q18 19 29 24.5t35 5.5h450
q25 0 34.5 -5.5t20.5 -24.5l129 -230q5 -7 5 -16z" />
    <glyph glyph-name="atilde" unicode="&#xe3;" horiz-adv-x="1314" 
d="M1409 1126q0 -12 -2 -18l-186 -1067q-7 -41 -41 -41h-293q-16 0 -28.5 10t-12.5 25v6l8 57q-135 -118 -307 -118q-163 0 -275 108t-112 301q0 43 10 105l33 190q22 130 66.5 226.5t103 156.5t139 97t164.5 51t190 14q190 0 473 -49q37 -7 53.5 -17.5t16.5 -36.5zM905 846
q-49 6 -88 6q-69 0 -104.5 -34.5t-53.5 -133.5l-41 -229q-2 -10 -2 -29q0 -44 18.5 -59t61.5 -15q55 0 127 33zM1372 1614v-8l-12 -82q-18 -118 -94.5 -177t-194.5 -59q-103 0 -188 49l-74 41q-49 25 -72 25q-27 0 -32 -27l-7 -33q-6 -34 -43 -34h-196q-31 0 -31 26v8l10 68
q19 122 97 186t186 64q114 0 199 -49l73 -41q53 -27 74 -27q15 0 21.5 6.5t9.5 22.5l6 33q6 34 43 34h194q31 0 31 -26z" />
    <glyph glyph-name="adieresis" unicode="&#xe4;" horiz-adv-x="1314" 
d="M1409 1126q0 -12 -2 -18l-186 -1067q-7 -41 -41 -41h-293q-16 0 -28.5 10t-12.5 25v6l8 57q-135 -118 -307 -118q-163 0 -275 108t-112 301q0 43 10 105l33 190q22 130 66.5 226.5t103 156.5t139 97t164.5 51t190 14q190 0 473 -49q37 -7 53.5 -17.5t16.5 -36.5zM905 846
q-49 6 -88 6q-69 0 -104.5 -34.5t-53.5 -133.5l-41 -229q-2 -10 -2 -29q0 -44 18.5 -59t61.5 -15q55 0 127 33zM1352 1559v-7l-37 -209q-3 -18 -19.5 -30.5t-35.5 -12.5h-285q-17 0 -28 11t-11 26v6l37 209q3 18 18.5 30.5t34.5 12.5h285q17 0 29 -10.5t12 -25.5zM881 1559
v-7l-37 -209q-3 -18 -20 -30.5t-36 -12.5h-284q-17 0 -28 11t-11 26v6l37 209q3 18 18.5 30.5t34.5 12.5h285q17 0 29 -10.5t12 -25.5z" />
    <glyph glyph-name="aring" unicode="&#xe5;" horiz-adv-x="1314" 
d="M1409 1126q0 -12 -2 -18l-186 -1067q-7 -41 -41 -41h-293q-16 0 -28.5 10t-12.5 25v6l8 57q-135 -118 -307 -118q-163 0 -275 108t-112 301q0 43 10 105l33 190q22 130 66.5 226.5t103 156.5t139 97t164.5 51t190 14q190 0 473 -49q37 -7 53.5 -17.5t16.5 -36.5zM905 846
q-49 6 -88 6q-69 0 -104.5 -34.5t-53.5 -133.5l-41 -229q-2 -10 -2 -29q0 -44 18.5 -59t61.5 -15q55 0 127 33zM1163 1563q0 -109 -76.5 -186t-185.5 -77t-185.5 77t-76.5 186t76.5 185.5t185.5 76.5t185.5 -76.5t76.5 -185.5zM979 1565q0 31 -22.5 53t-53.5 22
q-30 0 -52 -21.5t-22 -53.5t22 -54t52 -22q31 0 53.5 22.5t22.5 53.5z" />
    <glyph glyph-name="ae" unicode="&#xe6;" horiz-adv-x="1849" 
d="M1905 788q0 -59 -13 -135l-22 -125q-3 -19 -17.5 -31t-33.5 -12h-619q-4 -32 -4 -45q0 -49 34.5 -67.5t123.5 -18.5q202 0 387 15h2h6q33 0 33 -25q0 -2 -1 -6t-1 -6l-39 -215q-4 -25 -14.5 -37t-34.5 -23q-169 -77 -439 -77q-64 0 -140.5 18t-125.5 45
q-221 -63 -383 -63q-232 0 -351.5 88.5t-119.5 232.5v18q0 32 4 50l4 20q14 69 42 122t71 88.5t92 58.5t115.5 35.5t131 17t148.5 4.5h50l6 45q2 8 2 22q0 44 -21 58t-65 14q-121 0 -367 -12h-2q-13 0 -20 11t-7 24v8l41 233q3 19 14.5 30.5t37.5 20.5q71 26 174 43t194 17
q124 0 203.5 -23t138.5 -69q76 47 147 69.5t183 22.5q116 0 204.5 -33t142.5 -93t81 -139.5t27 -175.5zM1481 788q0 97 -97 97q-64 0 -95.5 -40.5t-47.5 -129.5h232q8 54 8 73zM764 485h-64q-111 0 -131 -96l-4 -20v-9v-12q0 -33 24.5 -45t76.5 -12q23 0 63 4z" />
    <glyph glyph-name="ccedilla" unicode="&#xe7;" horiz-adv-x="972" 
d="M1104 1157v-2l-49 -278q-3 -17 -17.5 -30t-31.5 -13h-2q-31 0 -104 6t-116 6q-61 0 -91 -40t-48 -134l-24 -135q-9 -46 -9 -82q0 -48 20.5 -70.5t65.5 -22.5q43 0 118 6.5t106 6.5h2q15 0 26 -11t11 -26v-4v-2l-50 -279q-3 -17 -15 -25.5t-34 -13.5q-159 -34 -295 -34
q-205 0 -309 115.5t-104 305.5q0 65 12 136l24 135q51 283 198.5 420t399.5 137q145 0 283 -35q33 -10 33 -31v-6zM766 -102q0 -10 -12 -19l-310 -244l-16 -12t-14 -5.5t-25 -2.5h-307q-16 0 -16 12q0 11 12 23l223 229q19 19 30 25t34 6h378q9 0 16 -3.5t7 -8.5z" />
    <glyph glyph-name="egrave" unicode="&#xe8;" horiz-adv-x="1257" 
d="M1313 793q0 -64 -13 -140l-22 -125q-3 -19 -17.5 -31t-33.5 -12h-619q-4 -32 -4 -45q0 -49 34.5 -67.5t123.5 -18.5q202 0 387 15h8q33 0 33 -27q0 -1 -1 -4.5t-1 -5.5l-39 -215q-5 -26 -14.5 -38.5t-34.5 -21.5q-86 -33 -223.5 -55t-260.5 -22q-134 0 -237 46.5
t-165 144.5t-62 235q0 58 12 122l22 125q55 305 226 440.5t446 135.5q118 0 206.5 -33t142 -93t80 -137.5t26.5 -172.5zM889 784q0 101 -96 101q-62 0 -95.5 -41t-48.5 -129h232q8 54 8 69zM1047 1319q0 -19 -21 -19h-291q-15 0 -24 3t-12 6t-11 12l-223 244q-6 9 -6 14
q0 16 24 16h363q24 0 34 -6t21 -24l141 -230q5 -7 5 -16z" />
    <glyph glyph-name="eacute" unicode="&#xe9;" horiz-adv-x="1257" 
d="M1313 793q0 -64 -13 -140l-22 -125q-3 -19 -17.5 -31t-33.5 -12h-619q-4 -32 -4 -45q0 -49 34.5 -67.5t123.5 -18.5q202 0 387 15h8q33 0 33 -27q0 -1 -1 -4.5t-1 -5.5l-39 -215q-5 -26 -14.5 -38.5t-34.5 -21.5q-86 -33 -223.5 -55t-260.5 -22q-134 0 -237 46.5
t-165 144.5t-62 235q0 58 12 122l22 125q55 305 226 440.5t446 135.5q118 0 206.5 -33t142 -93t80 -137.5t26.5 -172.5zM889 784q0 101 -96 101q-62 0 -95.5 -41t-48.5 -129h232q8 54 8 69zM1362 1583q0 -9 -12 -18l-310 -244q-23 -18 -37 -20q-7 -1 -18 -1h-315
q-17 0 -17 13q0 9 13 22l219 230q19 19 29.5 24.5t33.5 5.5h391q9 0 16 -3.5t7 -8.5z" />
    <glyph glyph-name="ecircumflex" unicode="&#xea;" horiz-adv-x="1257" 
d="M1313 793q0 -64 -13 -140l-22 -125q-3 -19 -17.5 -31t-33.5 -12h-619q-4 -32 -4 -45q0 -49 34.5 -67.5t123.5 -18.5q202 0 387 15h8q33 0 33 -27q0 -1 -1 -4.5t-1 -5.5l-39 -215q-5 -26 -14.5 -38.5t-34.5 -21.5q-86 -33 -223.5 -55t-260.5 -22q-134 0 -237 46.5
t-165 144.5t-62 235q0 58 12 122l22 125q55 305 226 440.5t446 135.5q118 0 206.5 -33t142 -93t80 -137.5t26.5 -172.5zM889 784q0 101 -96 101q-62 0 -95.5 -41t-48.5 -129h232q8 54 8 69zM1339 1319q0 -19 -20 -19h-283q-15 0 -24 3t-12 6t-11 12l-82 100l-114 -100
q-24 -21 -56 -21h-307q-16 0 -16 13q0 10 12 22l211 230q18 19 28.5 24.5t34.5 5.5h451q25 0 34.5 -5.5t20.5 -24.5l129 -230q4 -6 4 -16z" />
    <glyph glyph-name="edieresis" unicode="&#xeb;" horiz-adv-x="1257" 
d="M1313 793q0 -64 -13 -140l-22 -125q-3 -19 -17.5 -31t-33.5 -12h-619q-4 -32 -4 -45q0 -49 34.5 -67.5t123.5 -18.5q202 0 387 15h8q33 0 33 -27q0 -1 -1 -4.5t-1 -5.5l-39 -215q-5 -26 -14.5 -38.5t-34.5 -21.5q-86 -33 -223.5 -55t-260.5 -22q-134 0 -237 46.5
t-165 144.5t-62 235q0 58 12 122l22 125q55 305 226 440.5t446 135.5q118 0 206.5 -33t142 -93t80 -137.5t26.5 -172.5zM889 784q0 101 -96 101q-62 0 -95.5 -41t-48.5 -129h232q8 54 8 69zM1335 1559v-7l-37 -209q-3 -18 -19.5 -30.5t-35.5 -12.5h-285q-17 0 -27.5 11
t-10.5 26v6l36 209q3 18 19 30.5t35 12.5h284q17 0 29 -10.5t12 -25.5zM864 1559v-7l-37 -209q-3 -18 -19.5 -30.5t-35.5 -12.5h-285q-17 0 -27.5 11t-10.5 26v6l36 209q3 18 19 30.5t35 12.5h284q17 0 29 -10.5t12 -25.5z" />
    <glyph glyph-name="igrave" unicode="&#xec;" horiz-adv-x="673" 
d="M772 1174v-9l-197 -1120q-3 -19 -18.5 -32t-34.5 -13h-366q-17 0 -28 11t-11 28v6l196 1120q3 18 20 30.5t36 12.5h366q17 0 27 -9.5t10 -24.5zM815 1319q0 -19 -20 -19h-291q-15 0 -24 3t-12 6t-11 12l-224 244q-6 9 -6 14q0 16 25 16h362q24 0 34.5 -6t21.5 -24
l141 -230q4 -6 4 -16z" />
    <glyph glyph-name="iacute" unicode="&#xed;" horiz-adv-x="673" 
d="M772 1174v-9l-197 -1120q-3 -19 -18.5 -32t-34.5 -13h-366q-17 0 -28 11t-11 28v6l196 1120q3 18 20 30.5t36 12.5h366q17 0 27 -9.5t10 -24.5zM1053 1583q0 -8 -13 -18l-309 -244q-23 -18 -37 -20q-7 -1 -18 -1h-316q-16 0 -16 13q0 10 12 22l219 230q19 19 30 24.5
t34 5.5h391q9 0 16 -3.5t7 -8.5z" />
    <glyph glyph-name="icircumflex" unicode="&#xee;" horiz-adv-x="673" 
d="M772 1174v-9l-197 -1120q-3 -19 -18.5 -32t-34.5 -13h-366q-17 0 -28 11t-11 28v6l196 1120q3 18 20 30.5t36 12.5h366q17 0 27 -9.5t10 -24.5zM1042 1319q0 -19 -20 -19h-283q-15 0 -24 3t-12 6t-11 12l-82 100l-114 -100q-24 -21 -56 -21h-307q-16 0 -16 13q0 10 12 22
l211 230q18 19 28.5 24.5t34.5 5.5h451q24 0 34 -5.5t21 -24.5l129 -230q4 -6 4 -16z" />
    <glyph glyph-name="idieresis" unicode="&#xef;" horiz-adv-x="673" 
d="M772 1174v-9l-197 -1120q-3 -19 -18.5 -32t-34.5 -13h-366q-17 0 -28 11t-11 28v6l196 1120q3 18 20 30.5t36 12.5h366q17 0 27 -9.5t10 -24.5zM1049 1559v-7l-37 -209q-3 -18 -20 -30.5t-36 -12.5h-284q-17 0 -28 11t-11 26v6l37 209q3 18 18.5 30.5t34.5 12.5h285
q17 0 29 -10.5t12 -25.5zM578 1559v-7l-37 -209q-3 -18 -20 -30.5t-36 -12.5h-284q-17 0 -28 11t-11 26v6l37 209q3 18 18.5 30.5t34.5 12.5h285q17 0 29 -10.5t12 -25.5z" />
    <glyph glyph-name="eth" unicode="&#xf0;" horiz-adv-x="1269" 
d="M1319 793q0 -94 -19 -211l-4 -25q-97 -577 -665 -577q-226 0 -350.5 115t-124.5 321q0 52 14 141l4 23q55 301 223.5 439t442.5 138h8q-59 53 -158 105l-145 -99q-18 -12 -29 -12t-20 12l-39 56q-4 8 -4 12q0 18 26 37l78 51q-80 30 -84 31q-27 8 -27 24q0 10 5 17
l96 180q11 22 31 22q8 0 20 -4q140 -40 238 -82l153 103q17 10 31 10q15 0 20 -10l39 -56q4 -4 4 -12q0 -18 -24 -33l-98 -65q358 -208 358 -651zM856 678q0 57 -21 79.5t-63 22.5q-56 0 -89 -42.5t-54 -157.5l-4 -23q-11 -71 -11 -98q0 -57 21 -80t63 -23q56 0 89.5 43
t54.5 158l4 23q10 65 10 98z" />
    <glyph glyph-name="ntilde" unicode="&#xf1;" horiz-adv-x="1335" 
d="M1380 897q0 -61 -14 -143l-125 -709q-3 -19 -17.5 -32t-33.5 -13h-369q-17 0 -27 10.5t-10 26.5v8l125 709q2 8 2 24q0 38 -24 57t-64 19q-54 0 -118 -31l-138 -778q-3 -19 -17 -32t-32 -13h-368q-17 0 -28 11t-11 28v6l198 1122q3 17 16.5 29t30.5 12h338q15 0 25 -9.5
t10 -24.5v-7l-10 -57q91 65 162.5 92t187.5 27q87 0 150 -27t97 -75t49 -104.5t15 -125.5zM1391 1597v-8l-13 -82q-18 -118 -94 -176.5t-194 -58.5q-104 0 -189 49l-74 41q-47 24 -71 24q-28 0 -33 -26l-6 -33q-6 -35 -43 -35h-197q-31 0 -31 27v8l11 68q19 123 96.5 186.5
t185.5 63.5q113 0 199 -50l74 -41q51 -26 73 -26q15 0 21.5 6.5t9.5 21.5l6 33q6 35 43 35h195q31 0 31 -27z" />
    <glyph glyph-name="ograve" unicode="&#xf2;" horiz-adv-x="1269" 
d="M1327 797q0 -57 -14 -146l-17 -94q-28 -160 -86 -273t-144.5 -179t-192.5 -95.5t-242 -29.5q-228 0 -350.5 115.5t-122.5 322.5q0 66 12 139l16 94q27 158 85 270.5t145 179.5t194 97.5t242 30.5q228 0 351.5 -111t123.5 -321zM868 748q0 57 -21 80.5t-63 23.5
q-107 0 -143 -201l-16 -94q-11 -71 -11 -96q0 -57 21 -81t63 -24q56 0 89.5 43t54.5 158l16 94q10 65 10 97zM1094 1319q0 -19 -21 -19h-291q-15 0 -24 3t-12 6t-11 12l-223 244q-6 9 -6 14q0 16 24 16h363q24 0 34 -6t21 -24l142 -230q4 -6 4 -16z" />
    <glyph glyph-name="oacute" unicode="&#xf3;" horiz-adv-x="1269" 
d="M1327 797q0 -57 -14 -146l-17 -94q-28 -160 -86 -273t-144.5 -179t-192.5 -95.5t-242 -29.5q-228 0 -350.5 115.5t-122.5 322.5q0 66 12 139l16 94q27 158 85 270.5t145 179.5t194 97.5t242 30.5q228 0 351.5 -111t123.5 -321zM868 748q0 57 -21 80.5t-63 23.5
q-107 0 -143 -201l-16 -94q-11 -71 -11 -96q0 -57 21 -81t63 -24q56 0 89.5 43t54.5 158l16 94q10 65 10 97zM1333 1583q0 -9 -12 -18l-309 -244q-23 -18 -40 -20q-7 -1 -16 -1h-315q-16 0 -16 13q0 10 12 22l219 230q19 19 30 24.5t34 5.5h391q22 0 22 -12z" />
    <glyph glyph-name="ocircumflex" unicode="&#xf4;" horiz-adv-x="1269" 
d="M1327 797q0 -57 -14 -146l-17 -94q-28 -160 -86 -273t-144.5 -179t-192.5 -95.5t-242 -29.5q-228 0 -350.5 115.5t-122.5 322.5q0 66 12 139l16 94q27 158 85 270.5t145 179.5t194 97.5t242 30.5q228 0 351.5 -111t123.5 -321zM868 748q0 57 -21 80.5t-63 23.5
q-107 0 -143 -201l-16 -94q-11 -71 -11 -96q0 -57 21 -81t63 -24q56 0 89.5 43t54.5 158l16 94q10 65 10 97zM1329 1319q0 -19 -20 -19h-283q-15 0 -24 3t-12 6t-11 12l-82 100l-115 -100q-10 -9 -15 -12.5t-15 -6t-25 -2.5h-307q-17 0 -17 13q0 9 13 22l211 230
q18 19 28.5 24.5t34.5 5.5h451q25 0 34.5 -5.5t20.5 -24.5l129 -230q4 -6 4 -16z" />
    <glyph glyph-name="otilde" unicode="&#xf5;" horiz-adv-x="1269" 
d="M1327 797q0 -57 -14 -146l-17 -94q-28 -160 -86 -273t-144.5 -179t-192.5 -95.5t-242 -29.5q-228 0 -350.5 115.5t-122.5 322.5q0 66 12 139l16 94q27 158 85 270.5t145 179.5t194 97.5t242 30.5q228 0 351.5 -111t123.5 -321zM868 748q0 57 -21 80.5t-63 23.5
q-107 0 -143 -201l-16 -94q-11 -71 -11 -96q0 -57 21 -81t63 -24q56 0 89.5 43t54.5 158l16 94q10 65 10 97zM1362 1597v-8l-12 -82q-18 -118 -94.5 -176.5t-194.5 -58.5q-104 0 -189 49l-73 41q-47 24 -72 24q-28 0 -33 -26l-6 -33q-6 -35 -43 -35h-196q-31 0 -31 27v8
l10 68q19 122 97 186t186 64q112 0 198 -50l74 -41q51 -26 74 -26q15 0 21 6t9 22l7 33q6 35 43 35h194q31 0 31 -27z" />
    <glyph glyph-name="odieresis" unicode="&#xf6;" horiz-adv-x="1269" 
d="M1327 797q0 -57 -14 -146l-17 -94q-28 -160 -86 -273t-144.5 -179t-192.5 -95.5t-242 -29.5q-228 0 -350.5 115.5t-122.5 322.5q0 66 12 139l16 94q27 158 85 270.5t145 179.5t194 97.5t242 30.5q228 0 351.5 -111t123.5 -321zM868 748q0 57 -21 80.5t-63 23.5
q-107 0 -143 -201l-16 -94q-11 -71 -11 -96q0 -57 21 -81t63 -24q56 0 89.5 43t54.5 158l16 94q10 65 10 97zM1333 1559v-7l-37 -209q-3 -18 -19.5 -30.5t-35.5 -12.5h-285q-17 0 -27.5 11t-10.5 26v6l36 209q3 18 19 30.5t35 12.5h284q17 0 29 -10.5t12 -25.5zM862 1559v-7
l-37 -209q-3 -18 -19.5 -30.5t-35.5 -12.5h-285q-17 0 -28 11t-11 26v6l37 209q3 18 19 30.5t35 12.5h284q17 0 29 -10.5t12 -25.5z" />
    <glyph glyph-name="divide" unicode="&#xf7;" horiz-adv-x="1310" 
d="M1024 1171q0 -17 -13 -29t-30 -12h-356q-17 0 -30 12t-13 29v271q0 17 13 29t30 12h356q17 0 30 -12t13 -29v-271zM1300 668q0 -33 -40 -33h-912q-41 0 -41 33v266q0 33 41 33h912q40 0 40 -33v-266zM1024 117q0 -17 -13 -29t-30 -12h-356q-17 0 -30 12t-13 29v270
q0 17 13 29t30 12h356q17 0 30 -12t13 -29v-270z" />
    <glyph glyph-name="oslash" unicode="&#xf8;" horiz-adv-x="1269" 
d="M1423 1268q0 -15 -12 -27l-162 -176q78 -111 78 -268q0 -57 -14 -146l-17 -94q-22 -128 -64.5 -226.5t-100.5 -164.5t-136 -108t-166.5 -60t-197.5 -18q-188 0 -303 77l-99 -108q-19 -21 -36 -21h-119q-15 0 -15 13t13 26l164 178q-78 110 -78 273q0 66 12 139l16 94
q27 158 85 270.5t145 179.5t194 97.5t242 30.5q184 0 305 -76l96 107q18 20 37 20h119q14 0 14 -12zM852 821q-19 31 -68 31q-110 0 -143 -201l-12 -76zM854 633l-223 -246q19 -31 67 -31q56 0 90.5 43.5t53.5 157.5z" />
    <glyph glyph-name="ugrave" unicode="&#xf9;" horiz-adv-x="1335" 
d="M1438 1169v-6l-199 -1122q-3 -17 -16.5 -29t-30.5 -12h-338q-15 0 -25 10t-10 25v6l10 57q-87 -62 -157 -90t-183 -28q-85 0 -148 28t-99.5 77t-54 110.5t-17.5 134.5q0 64 12 125l125 708q3 19 17.5 32t33.5 13h369q17 0 27 -10.5t10 -26.5v-8l-125 -708q-2 -8 -2 -25
q0 -38 24 -57t64 -19q55 0 119 31l137 778q3 19 17 32t32 13h369q17 0 28 -11t11 -28zM1114 1319q0 -19 -20 -19h-291q-15 0 -24 3t-12 6t-11 12l-224 244q-6 9 -6 14q0 16 25 16h362q24 0 34.5 -6t21.5 -24l141 -230q4 -6 4 -16z" />
    <glyph glyph-name="uacute" unicode="&#xfa;" horiz-adv-x="1335" 
d="M1438 1169v-6l-199 -1122q-3 -17 -16.5 -29t-30.5 -12h-338q-15 0 -25 10t-10 25v6l10 57q-87 -62 -157 -90t-183 -28q-85 0 -148 28t-99.5 77t-54 110.5t-17.5 134.5q0 64 12 125l125 708q3 19 17.5 32t33.5 13h369q17 0 27 -10.5t10 -26.5v-8l-125 -708q-2 -8 -2 -25
q0 -38 24 -57t64 -19q55 0 119 31l137 778q3 19 17 32t32 13h369q17 0 28 -11t11 -28zM1395 1583q0 -8 -13 -18l-309 -244q-23 -18 -37 -20q-7 -1 -18 -1h-316q-16 0 -16 13q0 10 12 22l220 230q19 19 29.5 24.5t33.5 5.5h391q9 0 16 -3.5t7 -8.5z" />
    <glyph glyph-name="ucircumflex" unicode="&#xfb;" horiz-adv-x="1335" 
d="M1438 1169v-6l-199 -1122q-3 -17 -16.5 -29t-30.5 -12h-338q-15 0 -25 10t-10 25v6l10 57q-87 -62 -157 -90t-183 -28q-85 0 -148 28t-99.5 77t-54 110.5t-17.5 134.5q0 64 12 125l125 708q3 19 17.5 32t33.5 13h369q17 0 27 -10.5t10 -26.5v-8l-125 -708q-2 -8 -2 -25
q0 -38 24 -57t64 -19q55 0 119 31l137 778q3 19 17 32t32 13h369q17 0 28 -11t11 -28zM1360 1319q0 -19 -21 -19h-282q-15 0 -24 3t-12 6t-11 12l-82 100l-115 -100q-10 -9 -15 -12.5t-15 -6t-25 -2.5h-307q-17 0 -17 13q0 10 12 22l211 230q18 19 29 24.5t35 5.5h450
q25 0 35 -5.5t21 -24.5l129 -230q4 -6 4 -16z" />
    <glyph glyph-name="udieresis" unicode="&#xfc;" horiz-adv-x="1335" 
d="M1438 1169v-6l-199 -1122q-3 -17 -16.5 -29t-30.5 -12h-338q-15 0 -25 10t-10 25v6l10 57q-87 -62 -157 -90t-183 -28q-85 0 -148 28t-99.5 77t-54 110.5t-17.5 134.5q0 64 12 125l125 708q3 19 17.5 32t33.5 13h369q17 0 27 -10.5t10 -26.5v-8l-125 -708q-2 -8 -2 -25
q0 -38 24 -57t64 -19q55 0 119 31l137 778q3 19 17 32t32 13h369q17 0 28 -11t11 -28zM1372 1559v-7l-37 -209q-3 -18 -19.5 -30.5t-35.5 -12.5h-285q-17 0 -28 11t-11 26v6l37 209q3 18 19 30.5t35 12.5h284q17 0 29 -10.5t12 -25.5zM901 1559v-7l-37 -209
q-3 -18 -19.5 -30.5t-35.5 -12.5h-285q-17 0 -28 11t-11 26v6l37 209q3 18 18.5 30.5t34.5 12.5h285q17 0 29 -10.5t12 -25.5z" />
    <glyph glyph-name="yacute" unicode="&#xfd;" horiz-adv-x="1343" 
d="M1518 1178q0 -9 -2 -13l-566 -1228q-32 -70 -65 -120.5t-81 -98t-106 -76.5t-139 -46.5t-182 -17.5q-70 0 -165.5 13t-135.5 30q-39 17 -39 35v6l41 234q3 17 19.5 31t33.5 14h2q215 -15 305 -15q69 0 90 47l31 70h-27q-32 0 -56.5 6t-49.5 21.5t-41.5 49t-22.5 83.5
l-124 962v6q0 37 53 37h391q33 0 33 -43l26 -639q0 -28 15 -28h14l248 667q6 18 20.5 30.5t32.5 12.5h410q14 0 25.5 -8.5t11.5 -21.5zM1403 1583q0 -9 -12 -18l-310 -244q-23 -18 -37 -20q-7 -1 -18 -1h-315q-17 0 -17 13q0 9 13 22l219 230q19 19 29.5 24.5t33.5 5.5h391
q9 0 16 -3.5t7 -8.5z" />
    <glyph glyph-name="thorn" unicode="&#xfe;" horiz-adv-x="1302" 
d="M1364 813q0 -61 -12 -129l-29 -160q-96 -544 -659 -544q-55 0 -109 12l-59 -336q-3 -19 -16 -31t-31 -12h-367q-17 0 -29 11t-12 26v4v2l336 1898q3 17 16.5 29t30.5 12h373q15 0 24.5 -10t9.5 -24v-5v-2l-57 -327q37 2 111 2q227 0 353 -104.5t126 -311.5zM903 750
q0 102 -86 102q-51 0 -110 -6l-86 -484q35 -6 110 -6q109 0 137 168l29 160q6 38 6 66z" />
    <glyph glyph-name="ydieresis" unicode="&#xff;" horiz-adv-x="1343" 
d="M1518 1178q0 -9 -2 -13l-566 -1228q-32 -70 -65 -120.5t-81 -98t-106 -76.5t-139 -46.5t-182 -17.5q-70 0 -165.5 13t-135.5 30q-39 17 -39 35v6l41 234q3 17 19.5 31t33.5 14h2q215 -15 305 -15q69 0 90 47l31 70h-27q-32 0 -56.5 6t-49.5 21.5t-41.5 49t-22.5 83.5
l-124 962v6q0 37 53 37h391q33 0 33 -43l26 -639q0 -28 15 -28h14l248 667q6 18 20.5 30.5t32.5 12.5h410q14 0 25.5 -8.5t11.5 -21.5zM1368 1559v-7l-37 -209q-3 -18 -19.5 -30.5t-35.5 -12.5h-285q-17 0 -28 11t-11 26v6l37 209q3 18 18.5 30.5t34.5 12.5h285
q17 0 29 -10.5t12 -25.5zM897 1559v-7l-37 -209q-3 -18 -19.5 -30.5t-35.5 -12.5h-285q-17 0 -28 11t-11 26v6l37 209q3 18 18.5 30.5t34.5 12.5h285q17 0 29 -10.5t12 -25.5z" />
    <glyph glyph-name="Amacron" unicode="&#x100;" horiz-adv-x="1466" 
d="M1432 39q0 -17 -11 -28t-28 -11h-424q-17 0 -26 11.5t-9 29.5l2 229h-311l-76 -229q-6 -18 -20 -29.5t-31 -11.5h-428q-27 0 -27 23q0 6 4 18l461 1237q56 149 176.5 206.5t321.5 57.5q200 0 298 -57.5t101 -206.5l27 -1237v-2zM950 1135q0 16 -14 16q-4 0 -7 -1t-4.5 -2
t-3.5 -4.5t-3 -5.5t-2.5 -7t-2.5 -7l-159 -477h188l8 477v11zM1489 1886v-6l-39 -213q-3 -17 -16.5 -29t-30.5 -12h-725q-15 0 -25 10t-10 25v6l39 213q3 17 16.5 29t30.5 12h725q15 0 25 -10t10 -25z" />
    <glyph glyph-name="amacron" unicode="&#x101;" horiz-adv-x="1314" 
d="M1409 1126q0 -12 -2 -18l-186 -1067q-7 -41 -41 -41h-293q-16 0 -28.5 10t-12.5 25v6l8 57q-135 -118 -307 -118q-163 0 -275 108t-112 301q0 43 10 105l33 190q22 130 66.5 226.5t103 156.5t139 97t164.5 51t190 14q190 0 473 -49q37 -7 53.5 -17.5t16.5 -36.5zM905 846
q-49 6 -88 6q-69 0 -104.5 -34.5t-53.5 -133.5l-41 -229q-2 -10 -2 -29q0 -44 18.5 -59t61.5 -15q55 0 127 33zM1419 1561v-7l-39 -213q-3 -17 -16.5 -29t-30.5 -12h-725q-15 0 -25 10t-10 25v6l39 213q3 17 16.5 29t30.5 12h725q15 0 25 -9.5t10 -24.5z" />
    <glyph glyph-name="Abreve" unicode="&#x102;" horiz-adv-x="1466" 
d="M1432 39q0 -17 -11 -28t-28 -11h-424q-17 0 -26 11.5t-9 29.5l2 229h-311l-76 -229q-6 -18 -20 -29.5t-31 -11.5h-428q-27 0 -27 23q0 6 4 18l461 1237q56 149 176.5 206.5t321.5 57.5q200 0 298 -57.5t101 -206.5l27 -1237v-2zM950 1135q0 16 -14 16q-4 0 -7 -1t-4.5 -2
t-3.5 -4.5t-3 -5.5t-2.5 -7t-2.5 -7l-159 -477h188l8 477v11zM1063 1839q51 0 85 15.5t60 52.5q1 1 6 9t7 9.5t8.5 4.5t15.5 3h258q27 0 27 -18q0 -20 -17 -51q-140 -254 -466 -254q-323 0 -426 254q-11 33 -11 43q0 26 29 26h256q18 0 25.5 -5t15.5 -21q20 -37 46.5 -52.5
t80.5 -15.5z" />
    <glyph glyph-name="abreve" unicode="&#x103;" horiz-adv-x="1314" 
d="M1409 1126q0 -12 -2 -18l-186 -1067q-7 -41 -41 -41h-293q-16 0 -28.5 10t-12.5 25v6l8 57q-135 -118 -307 -118q-163 0 -275 108t-112 301q0 43 10 105l33 190q22 130 66.5 226.5t103 156.5t139 97t164.5 51t190 14q190 0 473 -49q37 -7 53.5 -17.5t16.5 -36.5zM905 846
q-49 6 -88 6q-69 0 -104.5 -34.5t-53.5 -133.5l-41 -229q-2 -10 -2 -29q0 -44 18.5 -59t61.5 -15q55 0 127 33zM944 1518q52 0 86 15.5t60 51.5q2 3 6 10t6.5 9.5t8.5 5t15 2.5h258q27 0 27 -19q0 -22 -16 -51q-140 -254 -467 -254q-323 0 -426 254q-10 30 -10 43
q0 27 28 27h256q18 0 25.5 -5.5t15.5 -21.5q20 -37 46 -52t81 -15z" />
    <glyph glyph-name="Aogonek" unicode="&#x104;" horiz-adv-x="1466" 
d="M1432 39q0 -19 -8 -27.5t-25 -11.5l-205 -43q-59 -12 -77.5 -33.5t-18.5 -50.5q0 -32 19.5 -41.5t56.5 -9.5q29 0 81 7t60 7q20 0 16 -24l-26 -150q-5 -26 -27 -33q-33 -13 -114.5 -27t-166.5 -14q-134 0 -203 47.5t-69 133.5q0 81 47.5 134.5t161.5 112.5l2 254h-311
l-76 -229q-6 -18 -20 -29.5t-31 -11.5h-428q-27 0 -27 23q0 6 4 18l461 1237q56 149 176.5 206.5t321.5 57.5q200 0 298 -57.5t101 -206.5l27 -1237v-2zM950 1135q0 16 -14 16q-4 0 -7 -1t-4.5 -2t-3.5 -4.5t-3 -5.5t-2.5 -7t-2.5 -7l-159 -477h188l8 477v11z" />
    <glyph glyph-name="aogonek" unicode="&#x105;" horiz-adv-x="1314" 
d="M866 1229q190 0 473 -49q39 -7 56.5 -22.5t11.5 -49.5l-186 -1067q-4 -25 -21 -35l-76 -49q-56 -36 -76 -58t-20 -46q0 -19 14.5 -25t53.5 -6q34 0 88 7t61 7q21 0 17 -24l-27 -150q-3 -23 -27 -33q-26 -10 -111 -25.5t-169 -15.5q-134 0 -203.5 47.5t-69.5 133.5
q0 156 185 249l14 80q-135 -118 -307 -118q-163 0 -275 108t-112 301q0 43 10 105l33 190q22 130 66.5 226.5t103 156.5t139 97t164.5 51t190 14zM905 846q-49 6 -88 6q-69 0 -104.5 -34.5t-53.5 -133.5l-41 -229q-2 -10 -2 -29q0 -44 18.5 -59t61.5 -15q55 0 127 33z" />
    <glyph glyph-name="Cacute" unicode="&#x106;" horiz-adv-x="1122" 
d="M1311 1468q0 -1 -1 -4.5t-1 -5.5l-58 -323q-5 -37 -41 -37h-4h-2q-148 18 -268 18q-24 0 -41.5 -2.5t-40 -11t-39.5 -27.5t-35 -47.5t-33 -75t-26 -108.5l-31 -166q-14 -77 -14 -133q0 -47 10 -76.5t31.5 -42.5t41 -16.5t52.5 -3.5q76 0 274 18h2h7q26 0 26 -25
q0 -2 -1 -6t-1 -6l-57 -324q-3 -20 -12 -28t-37 -17q-116 -38 -277 -38q-275 0 -414 135t-139 377q0 82 19 186l30 166q36 194 99 328t159.5 216t219.5 118t288 36q168 0 275 -39q31 -11 36 -21q3 -5 3 -14zM1438 1909q0 -9 -13 -19l-309 -243q-23 -18 -37 -20q-7 -1 -18 -1
h-316q-16 0 -16 12q0 11 12 23l220 229q14 14 20 19t16.5 8.5t26.5 3.5h391q9 0 16 -3.5t7 -8.5z" />
    <glyph glyph-name="cacute" unicode="&#x107;" horiz-adv-x="972" 
d="M1104 1157v-2l-49 -278q-3 -17 -17.5 -30t-31.5 -13h-2q-31 0 -104 6t-116 6q-61 0 -91 -40t-48 -134l-24 -135q-9 -46 -9 -82q0 -48 20.5 -70.5t65.5 -22.5q43 0 118 6.5t106 6.5h2q15 0 26 -11t11 -26v-4v-2l-50 -279q-3 -17 -15 -25.5t-34 -13.5q-159 -34 -295 -34
q-205 0 -309 115.5t-104 305.5q0 65 12 136l24 135q51 283 198.5 420t399.5 137q145 0 283 -35q33 -10 33 -31v-6zM1260 1583q0 -8 -13 -18l-309 -244q-23 -18 -37 -20q-7 -1 -18 -1h-316q-16 0 -16 13q0 10 12 22l219 230q19 19 30 24.5t34 5.5h391q9 0 16 -3.5t7 -8.5z
" />
    <glyph glyph-name="Ccircumflex" unicode="&#x108;" horiz-adv-x="1122" 
d="M1311 1468q0 -1 -1 -4.5t-1 -5.5l-58 -323q-5 -37 -41 -37h-4h-2q-148 18 -268 18q-24 0 -41.5 -2.5t-40 -11t-39.5 -27.5t-35 -47.5t-33 -75t-26 -108.5l-31 -166q-14 -77 -14 -133q0 -47 10 -76.5t31.5 -42.5t41 -16.5t52.5 -3.5q76 0 274 18h2h7q26 0 26 -25
q0 -2 -1 -6t-1 -6l-57 -324q-3 -20 -12 -28t-37 -17q-116 -38 -277 -38q-275 0 -414 135t-139 377q0 82 19 186l30 166q36 194 99 328t159.5 216t219.5 118t288 36q168 0 275 -39q31 -11 36 -21q3 -5 3 -14zM1348 1645q0 -19 -21 -19h-283q-15 0 -24 3t-12 6t-11 12l-82 100
l-114 -100q-24 -21 -56 -21h-307q-16 0 -16 12q0 11 12 23l211 229q18 20 29 25.5t35 5.5h450q24 0 34 -6t21 -25l129 -229q5 -8 5 -16z" />
    <glyph glyph-name="ccircumflex" unicode="&#x109;" horiz-adv-x="972" 
d="M1104 1157v-2l-49 -278q-3 -17 -17.5 -30t-31.5 -13h-2q-31 0 -104 6t-116 6q-61 0 -91 -40t-48 -134l-24 -135q-9 -46 -9 -82q0 -48 20.5 -70.5t65.5 -22.5q43 0 118 6.5t106 6.5h2q15 0 26 -11t11 -26v-4v-2l-50 -279q-3 -17 -15 -25.5t-34 -13.5q-159 -34 -295 -34
q-205 0 -309 115.5t-104 305.5q0 65 12 136l24 135q51 283 198.5 420t399.5 137q145 0 283 -35q33 -10 33 -31v-6zM1196 1319q0 -19 -20 -19h-283q-15 0 -24 3t-12 6t-11 12l-82 100l-115 -100q-10 -9 -15 -12.5t-15 -6t-25 -2.5h-307q-17 0 -17 13q0 9 13 22l211 230
q18 19 28.5 24.5t34.5 5.5h451q24 0 34 -5.5t21 -24.5l129 -230q4 -6 4 -16z" />
    <glyph glyph-name="Cdotaccent" unicode="&#x10a;" horiz-adv-x="1122" 
d="M1311 1468q0 -1 -1 -4.5t-1 -5.5l-58 -323q-5 -37 -41 -37h-4h-2q-148 18 -268 18q-24 0 -41.5 -2.5t-40 -11t-39.5 -27.5t-35 -47.5t-33 -75t-26 -108.5l-31 -166q-14 -77 -14 -133q0 -47 10 -76.5t31.5 -42.5t41 -16.5t52.5 -3.5q76 0 274 18h2h7q26 0 26 -25
q0 -2 -1 -6t-1 -6l-57 -324q-3 -20 -12 -28t-37 -17q-116 -38 -277 -38q-275 0 -414 135t-139 377q0 82 19 186l30 166q36 194 99 328t159.5 216t219.5 118t288 36q168 0 275 -39q31 -11 36 -21q3 -5 3 -14zM1212 1911v-6l-43 -238q-3 -17 -17.5 -29t-31.5 -12h-356
q-15 0 -26 10t-11 25v6l43 238q3 17 17.5 29t31.5 12h357q15 0 25.5 -10t10.5 -25z" />
    <glyph glyph-name="cdotaccent" unicode="&#x10b;" horiz-adv-x="972" 
d="M1104 1157v-2l-49 -278q-3 -17 -17.5 -30t-31.5 -13h-2q-31 0 -104 6t-116 6q-61 0 -91 -40t-48 -134l-24 -135q-9 -46 -9 -82q0 -48 20.5 -70.5t65.5 -22.5q43 0 118 6.5t106 6.5h2q15 0 26 -11t11 -26v-4v-2l-50 -279q-3 -17 -15 -25.5t-34 -13.5q-159 -34 -295 -34
q-205 0 -309 115.5t-104 305.5q0 65 12 136l24 135q51 283 198.5 420t399.5 137q145 0 283 -35q33 -10 33 -31v-6zM1061 1585v-6l-43 -238q-3 -17 -17.5 -29t-31.5 -12h-357q-15 0 -26 10t-11 25v6l43 238q3 17 18 29t32 12h356q15 0 26 -10t11 -25z" />
    <glyph glyph-name="Ccaron" unicode="&#x10c;" horiz-adv-x="1122" 
d="M1311 1468q0 -1 -1 -4.5t-1 -5.5l-58 -323q-5 -37 -41 -37h-4h-2q-148 18 -268 18q-24 0 -41.5 -2.5t-40 -11t-39.5 -27.5t-35 -47.5t-33 -75t-26 -108.5l-31 -166q-14 -77 -14 -133q0 -47 10 -76.5t31.5 -42.5t41 -16.5t52.5 -3.5q76 0 274 18h2h7q26 0 26 -25
q0 -2 -1 -6t-1 -6l-57 -324q-3 -20 -12 -28t-37 -17q-116 -38 -277 -38q-275 0 -414 135t-139 377q0 82 19 186l30 166q36 194 99 328t159.5 216t219.5 118t288 36q168 0 275 -39q31 -11 36 -21q3 -5 3 -14zM1446 1909q0 -11 -12 -23l-222 -229q-19 -19 -30.5 -25t-34.5 -6
h-451q-23 0 -32 6t-21 25l-143 229q-6 9 -6 17q0 18 22 18h307q22 0 30.5 -4t18.5 -16l82 -93l115 93q2 1 6 4.5t5.5 4.5t5 3.5t5.5 3t5.5 2t7 1.5t8 0.5t10.5 0.5h308q16 0 16 -12z" />
    <glyph glyph-name="ccaron" unicode="&#x10d;" horiz-adv-x="972" 
d="M1104 1157v-2l-49 -278q-3 -17 -17.5 -30t-31.5 -13h-2q-31 0 -104 6t-116 6q-61 0 -91 -40t-48 -134l-24 -135q-9 -46 -9 -82q0 -48 20.5 -70.5t65.5 -22.5q43 0 118 6.5t106 6.5h2q15 0 26 -11t11 -26v-4v-2l-50 -279q-3 -17 -15 -25.5t-34 -13.5q-159 -34 -295 -34
q-205 0 -309 115.5t-104 305.5q0 65 12 136l24 135q51 283 198.5 420t399.5 137q145 0 283 -35q33 -10 33 -31v-6zM1303 1583q0 -9 -13 -22l-221 -230q-19 -19 -30.5 -25t-34.5 -6h-451q-23 0 -32 6t-21 25l-144 230q-6 9 -6 16q0 18 23 18h307q22 0 30.5 -4t18.5 -16
l82 -92l115 92q2 1 6 4.5t5.5 4.5t5 3.5t5.5 3t5.5 2t7 1.5t8 0.5t10.5 0.5h307q17 0 17 -12z" />
    <glyph glyph-name="Dcaron" unicode="&#x10e;" horiz-adv-x="1445" 
d="M1532 1028q0 -93 -16 -174l-35 -186q-29 -154 -79.5 -271t-119 -196t-160.5 -128.5t-198 -71t-238 -21.5q-295 0 -498 38q-31 6 -45 19t-14 41q0 18 2 28l231 1309q7 44 27 63t60 25q222 39 509 39q260 0 417 -133t157 -381zM1042 991q0 79 -36 108t-121 29h-90
l-129 -735h90q75 0 116.5 22t69 80t49.5 173l35 186q16 88 16 137zM1538 1909q0 -11 -12 -23l-221 -229q-19 -19 -31 -25t-35 -6h-451q-23 0 -32 6t-21 25l-143 229q-6 9 -6 17q0 18 22 18h307q22 0 31 -4t19 -16l82 -93l114 93q2 1 6 4.5t5.5 4.5t5 3.5t5.5 3t5.5 2t7 1.5
t8 0.5t10.5 0.5h308q16 0 16 -12z" />
    <glyph glyph-name="dcaron" unicode="&#x10f;" horiz-adv-x="1804" 
d="M1475 1559v-7l-256 -1452q-5 -28 -25.5 -44.5t-71.5 -26.5q-272 -49 -491 -49q-220 0 -348.5 123.5t-128.5 318.5q0 44 10 102l29 160q52 287 211.5 416t447.5 129q55 0 109 -12l59 335q3 19 16 31t31 12h367q17 0 29 -10.5t12 -25.5zM895 846q-99 6 -111 6
q-61 0 -91.5 -39t-45.5 -129l-29 -160q-8 -41 -8 -78q0 -46 20.5 -68t67.5 -22q53 0 111 6zM2099 1573l-8 -17l-287 -471q-20 -38 -45 -38h-223q-23 0 -23 18q0 9 7 20l215 471q16 39 49 39h295q20 0 20 -18v-4z" />
    <glyph glyph-name="Dcroat" unicode="&#x110;" horiz-adv-x="1445" 
d="M1532 1028q0 -93 -16 -174l-35 -186q-29 -154 -79.5 -271t-119 -196t-160.5 -128.5t-198 -71t-238 -21.5q-295 0 -498 38q-31 6 -45 19t-14 41q0 18 2 28l84 476h-98q-15 0 -24 9t-9 23v7v2l49 288q3 17 17.5 29t31.5 12h99l81 463q7 44 27 63t60 25q222 39 509 39
q260 0 417 -133t157 -381zM1042 991q0 79 -36 108t-121 29h-90l-31 -176h90q15 0 24 -9t9 -23v-7v-2l-49 -288q-3 -17 -18 -29t-32 -12h-90l-32 -189h90q75 0 116.5 22t69 80t49.5 173l35 186q16 88 16 137z" />
    <glyph glyph-name="dcroat" unicode="&#x111;" horiz-adv-x="1302" 
d="M1489 1300h-59l-211 -1200q-5 -28 -25.5 -44.5t-71.5 -26.5q-272 -49 -491 -49q-220 0 -348.5 123.5t-128.5 318.5q0 44 10 102l29 160q52 287 211.5 416t447.5 129q55 0 109 -12l14 83h-287q-17 0 -26.5 12t-6.5 29l21 123q3 17 17.5 29t31.5 12h287l8 47q3 19 16 31
t31 12h367q17 0 29 -10.5t12 -25.5v-7l-9 -47h60q17 0 26.5 -12t6.5 -29l-21 -123q-3 -17 -17.5 -29t-31.5 -12zM895 846q-99 6 -111 6q-61 0 -91.5 -39t-45.5 -129l-29 -160q-8 -41 -8 -78q0 -46 20.5 -68t67.5 -22q53 0 111 6z" />
    <glyph glyph-name="Emacron" unicode="&#x112;" horiz-adv-x="1218" 
d="M1366 1487v-8l-53 -310q-3 -17 -17.5 -29t-31.5 -12h-412q-38 0 -54.5 -13.5t-23.5 -51.5l-20 -111h479q15 0 24 -9t9 -23v-9l-49 -288q-3 -17 -18 -29t-32 -12h-479l-22 -123q-2 -10 -2 -25q0 -23 14 -32t45 -9h412q15 0 23.5 -9.5t8.5 -23.5v-8l-53 -309
q-3 -17 -17 -28t-32 -13q-189 -22 -416 -22q-79 0 -147 11t-130 37.5t-105.5 67.5t-69 105t-25.5 145q0 62 10 113l109 604q13 75 35 137.5t48 108.5t61.5 82.5t69 60.5t78 41.5t81.5 26.5t87.5 14.5t87 6.5t87.5 1q222 0 407 -22q15 -2 24 -11t9 -22zM1370 1886v-6
l-39 -213q-3 -17 -16.5 -29t-30.5 -12h-725q-15 0 -25 10t-10 25v6l39 213q3 17 16.5 29t30.5 12h725q15 0 25 -10t10 -25z" />
    <glyph glyph-name="emacron" unicode="&#x113;" horiz-adv-x="1257" 
d="M1313 793q0 -64 -13 -140l-22 -125q-3 -19 -17.5 -31t-33.5 -12h-619q-4 -32 -4 -45q0 -49 34.5 -67.5t123.5 -18.5q202 0 387 15h8q33 0 33 -27q0 -1 -1 -4.5t-1 -5.5l-39 -215q-5 -26 -14.5 -38.5t-34.5 -21.5q-86 -33 -223.5 -55t-260.5 -22q-134 0 -237 46.5
t-165 144.5t-62 235q0 58 12 122l22 125q55 305 226 440.5t446 135.5q118 0 206.5 -33t142 -93t80 -137.5t26.5 -172.5zM889 784q0 101 -96 101q-62 0 -95.5 -41t-48.5 -129h232q8 54 8 69zM1327 1561v-7l-39 -213q-3 -17 -16.5 -29t-30.5 -12h-725q-15 0 -25 10t-10 25v6
l39 213q3 17 16.5 29t30.5 12h725q15 0 25 -9.5t10 -24.5z" />
    <glyph glyph-name="Ebreve" unicode="&#x114;" horiz-adv-x="1218" 
d="M1366 1487v-8l-53 -310q-3 -17 -17.5 -29t-31.5 -12h-412q-38 0 -54.5 -13.5t-23.5 -51.5l-20 -111h479q15 0 24 -9t9 -23v-9l-49 -288q-3 -17 -18 -29t-32 -12h-479l-22 -123q-2 -10 -2 -25q0 -23 14 -32t45 -9h412q15 0 23.5 -9.5t8.5 -23.5v-8l-53 -309
q-3 -17 -17 -28t-32 -13q-189 -22 -416 -22q-79 0 -147 11t-130 37.5t-105.5 67.5t-69 105t-25.5 145q0 62 10 113l109 604q13 75 35 137.5t48 108.5t61.5 82.5t69 60.5t78 41.5t81.5 26.5t87.5 14.5t87 6.5t87.5 1q222 0 407 -22q15 -2 24 -11t9 -22zM961 1833
q51 0 85 15.5t60 52.5q1 1 6 9t7 9.5t8.5 4.5t15.5 3h258q26 0 26 -18q0 -22 -16 -51q-140 -254 -467 -254q-323 0 -426 254q-10 30 -10 43q0 26 29 26h256q18 0 25.5 -5t15.5 -21q20 -37 46.5 -52.5t80.5 -15.5z" />
    <glyph glyph-name="ebreve" unicode="&#x115;" horiz-adv-x="1257" 
d="M1313 793q0 -64 -13 -140l-22 -125q-3 -19 -17.5 -31t-33.5 -12h-619q-4 -32 -4 -45q0 -49 34.5 -67.5t123.5 -18.5q202 0 387 15h8q33 0 33 -27q0 -1 -1 -4.5t-1 -5.5l-39 -215q-5 -26 -14.5 -38.5t-34.5 -21.5q-86 -33 -223.5 -55t-260.5 -22q-134 0 -237 46.5
t-165 144.5t-62 235q0 58 12 122l22 125q55 305 226 440.5t446 135.5q118 0 206.5 -33t142 -93t80 -137.5t26.5 -172.5zM889 784q0 101 -96 101q-62 0 -95.5 -41t-48.5 -129h232q8 54 8 69zM899 1516q52 0 85.5 15.5t59.5 51.5q1 2 6 9.5t7 9.5t8.5 5t15.5 3h258
q27 0 27 -19q0 -22 -16 -51q-140 -254 -467 -254q-323 0 -426 254q-11 33 -11 43q0 27 29 27h256q18 0 25.5 -5.5t15.5 -21.5q20 -37 46 -52t81 -15z" />
    <glyph glyph-name="Edotaccent" unicode="&#x116;" horiz-adv-x="1218" 
d="M1366 1487v-8l-53 -310q-3 -17 -17.5 -29t-31.5 -12h-412q-38 0 -54.5 -13.5t-23.5 -51.5l-20 -111h479q15 0 24 -9t9 -23v-9l-49 -288q-3 -17 -18 -29t-32 -12h-479l-22 -123q-2 -10 -2 -25q0 -23 14 -32t45 -9h412q15 0 23.5 -9.5t8.5 -23.5v-8l-53 -309
q-3 -17 -17 -28t-32 -13q-189 -22 -416 -22q-79 0 -147 11t-130 37.5t-105.5 67.5t-69 105t-25.5 145q0 62 10 113l109 604q13 75 35 137.5t48 108.5t61.5 82.5t69 60.5t78 41.5t81.5 26.5t87.5 14.5t87 6.5t87.5 1q222 0 407 -22q15 -2 24 -11t9 -22zM1190 1898v-6
l-43 -237q-3 -17 -17.5 -29t-31.5 -12h-357q-15 0 -25.5 10t-10.5 25v6l43 237q3 17 17.5 29t31.5 12h356q15 0 26 -10t11 -25z" />
    <glyph glyph-name="edotaccent" unicode="&#x117;" horiz-adv-x="1257" 
d="M1313 793q0 -64 -13 -140l-22 -125q-3 -19 -17.5 -31t-33.5 -12h-619q-4 -32 -4 -45q0 -49 34.5 -67.5t123.5 -18.5q202 0 387 15h8q33 0 33 -27q0 -1 -1 -4.5t-1 -5.5l-39 -215q-5 -26 -14.5 -38.5t-34.5 -21.5q-86 -33 -223.5 -55t-260.5 -22q-134 0 -237 46.5
t-165 144.5t-62 235q0 58 12 122l22 125q55 305 226 440.5t446 135.5q118 0 206.5 -33t142 -93t80 -137.5t26.5 -172.5zM889 784q0 101 -96 101q-62 0 -95.5 -41t-48.5 -129h232q8 54 8 69zM1161 1573v-6l-43 -238q-3 -17 -17.5 -29t-31.5 -12h-356q-15 0 -26 10t-11 25v6
l43 238q3 17 17.5 29t31.5 12h356q15 0 26 -10t11 -25z" />
    <glyph glyph-name="Eogonek" unicode="&#x118;" horiz-adv-x="1218" 
d="M1366 1487v-8l-53 -310q-3 -17 -17.5 -29t-31.5 -12h-412q-38 0 -54.5 -13.5t-23.5 -51.5l-20 -111h479q15 0 24 -9t9 -23v-9l-49 -288q-3 -17 -18 -29t-32 -12h-479l-22 -123q-2 -10 -2 -25q0 -23 14 -32t45 -9h412q15 0 23.5 -9.5t8.5 -23.5v-8l-53 -309
q-3 -17 -17 -28t-32 -13q-5 -1 -30.5 -4t-41.5 -4l-63 -37q-55 -32 -75.5 -55.5t-20.5 -48.5q0 -19 14 -25t53 -6q34 0 88.5 7t61.5 7q13 0 16 -4.5t0 -19.5l-27 -150v-2q-2 -11 -7 -17.5t-19 -13.5q-33 -13 -114.5 -27t-166.5 -14q-134 0 -203 47.5t-69 133.5
q0 71 34 120.5t107 92.5q-73 3 -134.5 16.5t-117 41t-94.5 68t-61.5 101.5t-22.5 137q0 62 10 113l109 604q13 75 35 137.5t48 108.5t61.5 82.5t69 60.5t78 41.5t81.5 26.5t87.5 14.5t87 6.5t87.5 1q222 0 407 -22q15 -2 24 -11t9 -22z" />
    <glyph glyph-name="eogonek" unicode="&#x119;" horiz-adv-x="1257" 
d="M1313 793q0 -64 -13 -140l-22 -125q-3 -19 -17.5 -31t-33.5 -12h-619q-4 -32 -4 -45q0 -49 34.5 -67.5t123.5 -18.5q202 0 387 15h8q33 0 33 -27q0 -1 -1 -4.5t-1 -5.5l-39 -215q-6 -34 -13 -48t-24 -24l-149 -88q-56 -32 -76.5 -55.5t-20.5 -48.5q0 -19 14.5 -25
t53.5 -6q34 0 88 7t61 7q14 0 17 -4.5t0 -19.5l-27 -150v-2q-2 -11 -7 -17.5t-19 -13.5q-33 -13 -114.5 -27t-166.5 -14q-134 0 -203 47.5t-69 133.5q0 70 33.5 119.5t105.5 91.5h-17q-134 0 -237 46.5t-165 144.5t-62 235q0 58 12 122l22 125q55 305 226 440.5t446 135.5
q118 0 206.5 -33t142 -93t80 -137.5t26.5 -172.5zM889 784q0 101 -96 101q-62 0 -95.5 -41t-48.5 -129h232q8 54 8 69z" />
    <glyph glyph-name="Ecaron" unicode="&#x11a;" horiz-adv-x="1218" 
d="M1366 1487v-8l-53 -310q-3 -17 -17.5 -29t-31.5 -12h-412q-38 0 -54.5 -13.5t-23.5 -51.5l-20 -111h479q15 0 24 -9t9 -23v-9l-49 -288q-3 -17 -18 -29t-32 -12h-479l-22 -123q-2 -10 -2 -25q0 -23 14 -32t45 -9h412q15 0 23.5 -9.5t8.5 -23.5v-8l-53 -309
q-3 -17 -17 -28t-32 -13q-189 -22 -416 -22q-79 0 -147 11t-130 37.5t-105.5 67.5t-69 105t-25.5 145q0 62 10 113l109 604q13 75 35 137.5t48 108.5t61.5 82.5t69 60.5t78 41.5t81.5 26.5t87.5 14.5t87 6.5t87.5 1q222 0 407 -22q15 -2 24 -11t9 -22zM1423 1909
q0 -11 -12 -23l-221 -229q-19 -19 -31 -25t-35 -6h-450q-23 0 -32 6t-21 25l-144 229q-6 9 -6 17q0 18 23 18h307q22 0 30.5 -4t18.5 -16l82 -93l115 93q2 1 6 4.5t5.5 4.5t5 3.5t5.5 3t5.5 2t7 1.5t8 0.5t10.5 0.5h307q16 0 16 -12z" />
    <glyph glyph-name="ecaron" unicode="&#x11b;" horiz-adv-x="1257" 
d="M1313 793q0 -64 -13 -140l-22 -125q-3 -19 -17.5 -31t-33.5 -12h-619q-4 -32 -4 -45q0 -49 34.5 -67.5t123.5 -18.5q202 0 387 15h8q33 0 33 -27q0 -1 -1 -4.5t-1 -5.5l-39 -215q-5 -26 -14.5 -38.5t-34.5 -21.5q-86 -33 -223.5 -55t-260.5 -22q-134 0 -237 46.5
t-165 144.5t-62 235q0 58 12 122l22 125q55 305 226 440.5t446 135.5q118 0 206.5 -33t142 -93t80 -137.5t26.5 -172.5zM889 784q0 101 -96 101q-62 0 -95.5 -41t-48.5 -129h232q8 54 8 69zM1389 1583q0 -9 -13 -22l-221 -230q-19 -19 -30.5 -25t-34.5 -6h-451q-23 0 -32 6
t-21 25l-144 230q-6 9 -6 16q0 18 23 18h307q22 0 30.5 -4t18.5 -16l82 -92l115 92q2 1 6 4.5t5.5 4.5t5 3.5t5.5 3t5.5 2t7 1.5t8 0.5t10.5 0.5h307q17 0 17 -12z" />
    <glyph glyph-name="Gcircumflex" unicode="&#x11c;" horiz-adv-x="1378" 
d="M1520 1452q0 -10 -2 -18l-52 -301q-5 -37 -36 -37h-7q-190 20 -358 20q-89 0 -143.5 -10t-97 -39.5t-65.5 -81.5t-38 -137l-31 -178q-12 -73 -12 -121q0 -53 11.5 -87t33.5 -47.5t39 -17.5t41 -4q40 0 67 6l66 369q3 17 17.5 29t31.5 12h383q15 0 24 -9.5t9 -23.5v-8
l-121 -686q-4 -25 -12.5 -32t-38.5 -13q-272 -57 -500 -57q-61 0 -120 10t-122.5 32t-116.5 62t-95.5 95t-66.5 137t-24 182q0 87 17 176l30 174q23 131 63.5 236t88 176t111 124t124 82.5t135.5 47t136.5 23t136.5 5.5q256 0 457 -63q16 -5 22 -7.5t10.5 -7t4.5 -12.5z
M1470 1645q0 -19 -20 -19h-283q-15 0 -24 3t-12 6t-11 12l-82 100l-114 -100q-24 -21 -56 -21h-307q-16 0 -16 12q0 11 12 23l211 229q18 20 28.5 25.5t34.5 5.5h451q24 0 34 -6t21 -25l129 -229q4 -6 4 -16z" />
    <glyph glyph-name="gcircumflex" unicode="&#x11d;" horiz-adv-x="1304" 
d="M852 1229q318 0 475 -43q51 -13 63 -25t7 -41l-195 -1110q-39 -227 -195.5 -329.5t-449.5 -102.5q-124 0 -232 21.5t-167 46.5q-20 8 -26.5 21t-2.5 38l35 199q7 46 47 41q281 -25 405 -25q72 0 104.5 19t41.5 71l8 45q-58 -12 -127 -12q-121 0 -213.5 32.5t-149.5 90.5
t-85.5 135.5t-28.5 171.5q0 50 10 115l17 96q48 276 221.5 410.5t437.5 134.5zM909 846q-58 6 -104 6q-45 0 -74 -11.5t-45.5 -37t-24 -50.5t-14.5 -69l-16 -96q-6 -37 -6 -76q0 -45 21 -68.5t87 -23.5q40 0 103 6zM1343 1319q0 -19 -20 -19h-283q-15 0 -24 3t-12 6t-11 12
l-82 100l-114 -100q-24 -21 -56 -21h-307q-16 0 -16 13q0 10 12 22l211 230q18 19 29 24.5t35 5.5h450q25 0 34.5 -5.5t20.5 -24.5l129 -230q4 -6 4 -16z" />
    <glyph glyph-name="Gbreve" unicode="&#x11e;" horiz-adv-x="1378" 
d="M1520 1452q0 -10 -2 -18l-52 -301q-5 -37 -36 -37h-7q-190 20 -358 20q-89 0 -143.5 -10t-97 -39.5t-65.5 -81.5t-38 -137l-31 -178q-12 -73 -12 -121q0 -53 11.5 -87t33.5 -47.5t39 -17.5t41 -4q40 0 67 6l66 369q3 17 17.5 29t31.5 12h383q15 0 24 -9.5t9 -23.5v-8
l-121 -686q-4 -25 -12.5 -32t-38.5 -13q-272 -57 -500 -57q-61 0 -120 10t-122.5 32t-116.5 62t-95.5 95t-66.5 137t-24 182q0 87 17 176l30 174q23 131 63.5 236t88 176t111 124t124 82.5t135.5 47t136.5 23t136.5 5.5q256 0 457 -63q16 -5 22 -7.5t10.5 -7t4.5 -12.5z
M1040 1841q51 0 85.5 16t60.5 52q1 1 6 9t7 9.5t8.5 4.5t15.5 3h258q26 0 26 -18q0 -22 -16 -51q-140 -254 -467 -254q-323 0 -426 254q-10 30 -10 43q0 26 28 26h256q18 0 25.5 -5t15.5 -21q20 -37 46.5 -52.5t80.5 -15.5z" />
    <glyph glyph-name="gbreve" unicode="&#x11f;" horiz-adv-x="1304" 
d="M852 1229q318 0 475 -43q51 -13 63 -25t7 -41l-195 -1110q-39 -227 -195.5 -329.5t-449.5 -102.5q-124 0 -232 21.5t-167 46.5q-20 8 -26.5 21t-2.5 38l35 199q7 46 47 41q281 -25 405 -25q72 0 104.5 19t41.5 71l8 45q-58 -12 -127 -12q-121 0 -213.5 32.5t-149.5 90.5
t-85.5 135.5t-28.5 171.5q0 50 10 115l17 96q48 276 221.5 410.5t437.5 134.5zM909 846q-58 6 -104 6q-45 0 -74 -11.5t-45.5 -37t-24 -50.5t-14.5 -69l-16 -96q-6 -37 -6 -76q0 -45 21 -68.5t87 -23.5q40 0 103 6zM907 1522q52 0 86 15.5t60 51.5q1 2 6 9.5t7 9.5t8.5 5
t15.5 3h258q26 0 26 -19q0 -22 -16 -51q-140 -254 -467 -254q-323 0 -426 254q-10 30 -10 43q0 27 28 27h256q18 0 25.5 -5.5t15.5 -21.5q20 -37 46 -52t81 -15z" />
    <glyph glyph-name="Gdotaccent" unicode="&#x120;" horiz-adv-x="1378" 
d="M1520 1452q0 -10 -2 -18l-52 -301q-5 -37 -36 -37h-7q-190 20 -358 20q-89 0 -143.5 -10t-97 -39.5t-65.5 -81.5t-38 -137l-31 -178q-12 -73 -12 -121q0 -53 11.5 -87t33.5 -47.5t39 -17.5t41 -4q40 0 67 6l66 369q3 17 17.5 29t31.5 12h383q15 0 24 -9.5t9 -23.5v-8
l-121 -686q-4 -25 -12.5 -32t-38.5 -13q-272 -57 -500 -57q-61 0 -120 10t-122.5 32t-116.5 62t-95.5 95t-66.5 137t-24 182q0 87 17 176l30 174q23 131 63.5 236t88 176t111 124t124 82.5t135.5 47t136.5 23t136.5 5.5q256 0 457 -63q16 -5 22 -7.5t10.5 -7t4.5 -12.5z
M1315 1913v-6l-43 -238q-3 -17 -17.5 -29t-31.5 -12h-357q-15 0 -26 10t-11 25v6l43 238q3 17 18 29t32 12h356q15 0 26 -10t11 -25z" />
    <glyph glyph-name="gdotaccent" unicode="&#x121;" horiz-adv-x="1304" 
d="M852 1229q318 0 475 -43q51 -13 63 -25t7 -41l-195 -1110q-39 -227 -195.5 -329.5t-449.5 -102.5q-124 0 -232 21.5t-167 46.5q-20 8 -26.5 21t-2.5 38l35 199q7 46 47 41q281 -25 405 -25q72 0 104.5 19t41.5 71l8 45q-58 -12 -127 -12q-121 0 -213.5 32.5t-149.5 90.5
t-85.5 135.5t-28.5 171.5q0 50 10 115l17 96q48 276 221.5 410.5t437.5 134.5zM909 846q-58 6 -104 6q-45 0 -74 -11.5t-45.5 -37t-24 -50.5t-14.5 -69l-16 -96q-6 -37 -6 -76q0 -45 21 -68.5t87 -23.5q40 0 103 6zM1214 1585v-6l-43 -238q-3 -17 -17.5 -29t-31.5 -12h-356
q-15 0 -26 10t-11 25v6l43 238q3 17 17.5 29t31.5 12h357q15 0 25.5 -10t10.5 -25z" />
    <glyph glyph-name="Gcommaaccent" unicode="&#x122;" horiz-adv-x="1378" 
d="M1520 1452q0 -10 -2 -18l-52 -301q-5 -37 -36 -37h-7q-190 20 -358 20q-89 0 -143.5 -10t-97 -39.5t-65.5 -81.5t-38 -137l-31 -178q-12 -73 -12 -121q0 -53 11.5 -87t33.5 -47.5t39 -17.5t41 -4q40 0 67 6l66 369q3 17 17.5 29t31.5 12h383q15 0 24 -9.5t9 -23.5v-8
l-121 -686q-4 -25 -12.5 -32t-38.5 -13q-272 -57 -500 -57q-61 0 -120 10t-122.5 32t-116.5 62t-95.5 95t-66.5 137t-24 182q0 87 17 176l30 174q23 131 63.5 236t88 176t111 124t124 82.5t135.5 47t136.5 23t136.5 5.5q256 0 457 -63q16 -5 22 -7.5t10.5 -7t4.5 -12.5z
M618 -92h300q22 0 22 -19q0 -8 -6 -20l-156 -221q-23 -41 -51 -41h-229q-27 0 -27 18q0 7 4 23l94 221q16 39 49 39z" />
    <glyph glyph-name="gcommaaccent" unicode="&#x123;" horiz-adv-x="1304" 
d="M852 1229q318 0 475 -43q51 -13 63 -25t7 -41l-195 -1110q-39 -227 -195.5 -329.5t-449.5 -102.5q-124 0 -232 21.5t-167 46.5q-20 8 -26.5 21t-2.5 38l35 199q7 46 47 41q281 -25 405 -25q72 0 104.5 19t41.5 71l8 45q-58 -12 -127 -12q-121 0 -213.5 32.5t-149.5 90.5
t-85.5 135.5t-28.5 171.5q0 50 10 115l17 96q48 276 221.5 410.5t437.5 134.5zM909 846q-58 6 -104 6q-45 0 -74 -11.5t-45.5 -37t-24 -50.5t-14.5 -69l-16 -96q-6 -37 -6 -76q0 -45 21 -68.5t87 -23.5q40 0 103 6zM938 1602h229q29 0 29 -19q0 -10 -6 -22l-94 -222
q-19 -39 -49 -39h-299q-23 0 -23 19q0 8 6 20l156 222q23 41 51 41z" />
    <glyph glyph-name="Hcircumflex" unicode="&#x124;" horiz-adv-x="1542" 
d="M1690 1489v-8l-252 -1440q-3 -17 -17.5 -29t-31.5 -12h-400q-15 0 -25 10t-10 25v6l90 522h-350l-90 -522q-3 -17 -17.5 -29t-31.5 -12h-399q-15 0 -25 10t-10 25v6l252 1440q3 17 18 29t33 12h399q15 0 24 -9.5t9 -23.5v-8l-88 -504h350l88 504q3 17 18 29t33 12h400
q15 0 24 -9.5t9 -23.5zM1505 1645q0 -19 -20 -19h-283q-15 0 -24 3t-12 6t-11 12l-82 100l-115 -100q-10 -9 -15 -12.5t-15 -6t-25 -2.5h-307q-16 0 -16 12q0 11 12 23l211 229q18 20 28.5 25.5t34.5 5.5h451q24 0 34 -6t21 -25l129 -229q4 -6 4 -16z" />
    <glyph glyph-name="hcircumflex" unicode="&#x125;" horiz-adv-x="1335" 
d="M1376 870q0 -66 -10 -120l-125 -705q-7 -45 -51 -45h-369q-46 0 -37 45l123 698q4 28 4 37q0 36 -22 51t-74 15q-49 0 -108 -12l-140 -789q-2 -15 -5.5 -23.5t-14.5 -15t-29 -6.5h-368q-47 0 -39 45l266 1509q4 20 13.5 30.5t33.5 10.5h375q42 0 35 -41l-64 -362
q143 33 207 36q17 1 35 1q179 0 271.5 -96t92.5 -263zM1421 1645q0 -19 -20 -19h-283q-15 0 -24 3t-12 6t-11 12l-82 100l-115 -100q-10 -9 -15 -12.5t-15 -6t-25 -2.5h-307q-16 0 -16 12q0 11 12 23l211 229q18 20 28.5 25.5t34.5 5.5h451q24 0 34 -6t21 -25l129 -229
q4 -6 4 -16z" />
    <glyph glyph-name="Hbar" unicode="&#x126;" horiz-adv-x="1542" 
d="M281 1360h71l21 121q3 17 18 29t33 12h399q17 0 26.5 -12t6.5 -29l-20 -121h350l20 121q3 17 18 29t33 12h400q17 0 26.5 -12t6.5 -29l-21 -121h72q17 0 26.5 -12t6.5 -29l-21 -121q-3 -17 -17.5 -29t-31.5 -12h-72l-196 -1116q-3 -17 -16.5 -29t-30.5 -12h-400
q-18 0 -29 12t-8 29l92 522h-350l-92 -522q-3 -17 -16.5 -29t-30.5 -12h-399q-44 0 -37 41l196 1116h-71q-17 0 -26.5 12t-6.5 29l20 121q3 17 18 29t32 12zM768 977h350l31 180h-350z" />
    <glyph glyph-name="hbar" unicode="&#x127;" horiz-adv-x="1335" 
d="M295 1503h72l8 51q2 14 5.5 21.5t14.5 13.5t29 6h369q43 0 36 -41l-8 -51h289q40 0 33 -41l-21 -121q-2 -13 -6 -21t-14.5 -14t-28.5 -6h-289l-26 -157q75 48 149.5 67t165.5 19q307 0 307 -311q0 -73 -16 -164l-125 -709q-7 -45 -49 -45h-369q-46 0 -39 45l119 672
q8 45 8 61q0 38 -24 57t-64 19q-55 0 -119 -31l-137 -778q-3 -19 -16 -32t-31 -13h-368q-24 0 -34 12.5t-7 32.5l221 1255h-72q-41 0 -33 41l21 121q7 41 49 41z" />
    <glyph glyph-name="Itilde" unicode="&#x128;" horiz-adv-x="729" 
d="M866 1489v-8l-252 -1440q-3 -17 -17.5 -29t-31.5 -12h-399q-15 0 -25 10t-10 25v6l252 1440q3 17 18 29t33 12h400q15 0 23.5 -9.5t8.5 -23.5zM1135 1931v-8l-13 -82q-18 -118 -94 -176.5t-194 -58.5q-104 0 -189 49l-74 41q-47 24 -71 24q-28 0 -33 -26l-6 -33
q-6 -35 -43 -35h-197q-31 0 -31 27v8l11 68q19 122 96.5 185.5t185.5 63.5q114 0 199 -49l74 -41q51 -26 73 -26q15 0 21.5 6.5t9.5 21.5l6 33q6 35 43 35h195q31 0 31 -27z" />
    <glyph glyph-name="itilde" unicode="&#x129;" horiz-adv-x="673" 
d="M772 1174v-9l-197 -1120q-3 -19 -18.5 -32t-34.5 -13h-366q-17 0 -28 11t-11 28v6l196 1120q3 18 20 30.5t36 12.5h366q17 0 27 -9.5t10 -24.5zM1069 1591v-8l-12 -82q-18 -118 -94.5 -176.5t-194.5 -58.5q-103 0 -188 49l-74 41q-47 24 -72 24q-28 0 -33 -26l-6 -33
q-6 -35 -43 -35h-196q-31 0 -31 27v8l10 68q19 122 97 185.5t186 63.5q113 0 198 -49l74 -41q51 -26 74 -26q15 0 21.5 6.5t9.5 21.5l6 33q6 35 43 35h194q31 0 31 -27z" />
    <glyph glyph-name="Imacron" unicode="&#x12a;" horiz-adv-x="729" 
d="M866 1489v-8l-252 -1440q-3 -17 -17.5 -29t-31.5 -12h-399q-15 0 -25 10t-10 25v6l252 1440q3 17 18 29t33 12h400q15 0 23.5 -9.5t8.5 -23.5zM1096 1886v-6l-39 -213q-3 -17 -16.5 -29t-30.5 -12h-725q-15 0 -25 10t-10 25v6l39 213q3 17 16.5 29t30.5 12h725
q15 0 25 -10t10 -25z" />
    <glyph glyph-name="imacron" unicode="&#x12b;" horiz-adv-x="673" 
d="M772 1174v-9l-197 -1120q-3 -19 -18.5 -32t-34.5 -13h-366q-17 0 -28 11t-11 28v6l196 1120q3 18 20 30.5t36 12.5h366q17 0 27 -9.5t10 -24.5zM1001 1561v-7l-38 -213q-3 -17 -17 -29t-31 -12h-725q-15 0 -24.5 10t-9.5 25v6l39 213q3 17 16.5 29t30.5 12h725
q15 0 24.5 -9.5t9.5 -24.5z" />
    <glyph glyph-name="Ibreve" unicode="&#x12c;" horiz-adv-x="729" 
d="M866 1489v-8l-252 -1440q-3 -17 -17.5 -29t-31.5 -12h-399q-15 0 -25 10t-10 25v6l252 1440q3 17 18 29t33 12h400q15 0 23.5 -9.5t8.5 -23.5zM672 1825q52 0 85.5 15.5t59.5 51.5q1 2 6 9.5t7 9.5t8.5 5t15.5 3h258q27 0 27 -18q0 -21 -17 -52q-140 -254 -467 -254
q-323 0 -426 254q-10 30 -10 43q0 27 29 27h256q18 0 25.5 -5.5t15.5 -21.5q20 -37 46 -52t81 -15z" />
    <glyph glyph-name="ibreve" unicode="&#x12d;" horiz-adv-x="673" 
d="M772 1174v-9l-197 -1120q-3 -19 -18.5 -32t-34.5 -13h-366q-17 0 -28 11t-11 28v6l196 1120q3 18 20 30.5t36 12.5h366q17 0 27 -9.5t10 -24.5zM584 1516q52 0 85.5 15.5t59.5 51.5q1 2 6 9.5t7 9.5t8.5 5t15.5 3h258q27 0 27 -19q0 -20 -17 -51q-140 -254 -467 -254
q-323 0 -426 254q-10 30 -10 43q0 27 29 27h256q18 0 25.5 -5.5t15.5 -21.5q20 -37 46 -52t81 -15z" />
    <glyph glyph-name="Iogonek" unicode="&#x12e;" horiz-adv-x="729" 
d="M612 41q-4 -27 -39 -41l-112 -43q-88 -35 -88 -94q0 -41 71 -41q30 0 82.5 7t61.5 7q13 0 16 -4.5t0 -19.5l-26 -152q-3 -19 -27 -31q-33 -13 -114.5 -27t-166.5 -14q-280 0 -280 205q0 142 133 213l260 1475q3 17 18 29t33 12h400q17 0 26 -12t6 -29z" />
    <glyph glyph-name="iogonek" unicode="&#x12f;" horiz-adv-x="673" 
d="M573 45q-3 -20 -11 -30.5t-32 -18.5l-100 -39q-94 -35 -94 -88q0 -29 21.5 -38t58.5 -9q44 0 114 12q28 4 35 4q19 0 19 -10q0 -1 -6 -37l-23 -139q-3 -10 -4.5 -13.5t-7.5 -9t-17 -8.5q-135 -33 -268 -33q-293 0 -293 205q0 129 144 213l204 1159q3 18 20 30.5t36 12.5
h366q19 0 29.5 -12t7.5 -31zM852 1559v-7l-37 -209q-3 -18 -19.5 -30.5t-35.5 -12.5h-387q-17 0 -28 11t-11 26v6l37 209q3 18 18.5 30.5t34.5 12.5h387q17 0 29 -10.5t12 -25.5z" />
    <glyph glyph-name="Idotaccent" unicode="&#x130;" horiz-adv-x="729" 
d="M866 1489v-8l-252 -1440q-3 -17 -17.5 -29t-31.5 -12h-399q-15 0 -25 10t-10 25v6l252 1440q3 17 18 29t33 12h400q15 0 23.5 -9.5t8.5 -23.5zM920 1898v-6l-43 -237q-3 -17 -18 -29t-32 -12h-356q-15 0 -26 10t-11 25v6l43 237q3 17 17.5 29t31.5 12h357q15 0 26 -10
t11 -25z" />
    <glyph glyph-name="dotlessi" unicode="&#x131;" horiz-adv-x="673" 
d="M772 1174v-9l-197 -1120q-3 -19 -18.5 -32t-34.5 -13h-366q-17 0 -28 11t-11 28v6l196 1120q3 18 20 30.5t36 12.5h366q17 0 27 -9.5t10 -24.5z" />
    <glyph glyph-name="IJ" unicode="&#x132;" horiz-adv-x="1458" 
d="M866 1489v-8l-252 -1440q-3 -17 -17.5 -29t-31.5 -12h-399q-15 0 -25 10t-10 25v6l252 1440q3 17 18 29t33 12h400q15 0 23.5 -9.5t8.5 -23.5zM1595 1489v-8l-258 -1471q-76 -432 -465 -432q-146 0 -225 12q-35 7 -35 35v6l50 275q3 17 16.5 29t30.5 12h88
q28 0 39.5 12.5t17.5 50.5l258 1471q3 17 18 29t33 12h400q15 0 23.5 -9.5t8.5 -23.5z" />
    <glyph glyph-name="ij" unicode="&#x133;" horiz-adv-x="1347" 
d="M852 1559v-7l-37 -209q-3 -18 -19.5 -30.5t-35.5 -12.5h-387q-17 0 -28 11t-11 26v6l37 209q3 18 18.5 30.5t34.5 12.5h387q17 0 29 -10.5t12 -25.5zM772 1174v-9l-197 -1120q-3 -19 -18.5 -32t-34.5 -13h-366q-17 0 -28 11t-11 28v6l196 1120q3 18 20 30.5t36 12.5h366
q17 0 27 -9.5t10 -24.5zM1526 1559v-7l-37 -209q-3 -18 -19.5 -30.5t-35.5 -12.5h-387q-17 0 -28 11t-11 26v6l36 209q3 18 19 30.5t35 12.5h387q17 0 29 -10.5t12 -25.5zM1446 1174v-9l-209 -1188q-20 -115 -61 -196t-100.5 -126t-127 -65t-151.5 -20q-89 0 -215 22
q-15 3 -25 13.5t-10 23.5v9l39 221q3 19 17.5 31t33.5 12h86q26 0 37 18.5t18 56.5l209 1188q3 18 19.5 30.5t35.5 12.5h367q17 0 27 -9.5t10 -24.5z" />
    <glyph glyph-name="Jcircumflex" unicode="&#x134;" horiz-adv-x="729" 
d="M866 1489v-8l-258 -1471q-76 -432 -465 -432q-146 0 -225 12q-35 7 -35 35v6l49 275q3 17 17 29t31 12h88q28 0 39.5 12.5t17.5 50.5l258 1471q3 17 18 29t33 12h400q15 0 23.5 -9.5t8.5 -23.5zM1094 1645q0 -19 -21 -19h-282q-15 0 -24 3t-12.5 6t-11.5 12l-81 100
l-115 -100q-10 -9 -15 -12.5t-15 -6t-25 -2.5h-308q-16 0 -16 12q0 11 12 23l211 229q18 20 29 25.5t35 5.5h450q24 0 34.5 -6t21.5 -25l129 -229q4 -6 4 -16z" />
    <glyph glyph-name="jcircumflex" unicode="&#x135;" horiz-adv-x="673" 
d="M772 1174v-9l-209 -1188q-20 -115 -61 -196t-100.5 -126t-127 -65t-151.5 -20q-89 0 -215 22q-15 3 -25 13.5t-10 23.5v9l39 221q3 19 17.5 31t33.5 12h86q26 0 37 18.5t18 56.5l209 1188q3 18 20 30.5t36 12.5h366q17 0 27 -9.5t10 -24.5zM1016 1319q0 -19 -21 -19h-282
q-15 0 -24 3t-12 6t-11 12l-82 100l-115 -100q-10 -9 -15 -12.5t-15 -6t-25 -2.5h-308q-16 0 -16 13q0 10 12 22l211 230q18 19 29 24.5t35 5.5h450q25 0 35 -5.5t21 -24.5l129 -230q4 -6 4 -16z" />
    <glyph glyph-name="Kcommaaccent" unicode="&#x136;" horiz-adv-x="1523" 
d="M1739 1503q0 -11 -8 -22l-529 -723l279 -717q2 -4 2 -12q0 -11 -9 -20t-22 -9h-483q-4 0 -7 0.5t-5.5 2.5t-4.5 3t-4 4.5t-3 5t-3 6t-2.5 6t-2 7t-1.5 6.5l-219 643l-113 -643q-3 -17 -17.5 -29t-31.5 -12h-399q-15 0 -25 10t-10 25v6l252 1440q3 17 18 29t33 12h399
q15 0 24 -9.5t9 -23.5v-8l-115 -654l439 654q10 14 15 20.5t15 13.5t21 7h487q21 0 21 -19zM616 -90h299q23 0 23 -19q0 -8 -6 -20l-156 -221q-23 -41 -51 -41h-229q-27 0 -27 18q0 7 4 23l94 221q16 39 49 39z" />
    <glyph glyph-name="kcommaaccent" unicode="&#x137;" horiz-adv-x="1370" 
d="M1069 1208h418q17 0 24.5 -10t4.5 -22.5t-11 -20.5l-422 -541l236 -561q8 -19 -2 -36t-35 -17h-418q-22 0 -35.5 8.5t-21.5 36.5l-158 485l-84 -485q-7 -45 -49 -45h-366q-47 0 -39 45l266 1507q7 43 53 43h358q25 0 36 -9t7 -34l-147 -843l311 456q18 28 34.5 35.5
t39.5 7.5zM553 -92h299q22 0 22 -19q0 -8 -6 -20l-155 -221q-23 -41 -51 -41h-230q-26 0 -26 18q0 7 4 23l94 221q16 39 49 39z" />
    <glyph glyph-name="kgreenlandic" unicode="&#x138;" horiz-adv-x="1370" 
d="M1487 1208q20 0 25 -20t-7 -33l-422 -541l236 -561q9 -17 1 -35t-30 -18h-426q-22 0 -35.5 8.5t-21.5 36.5l-158 485l-84 -485q-3 -19 -17 -32t-32 -13h-366q-45 0 -39 45l200 1120q7 43 54 43h366q41 0 35 -43l-82 -456l311 456q18 28 34.5 35.5t39.5 7.5h418z" />
    <glyph glyph-name="Lacute" unicode="&#x139;" horiz-adv-x="1064" 
d="M1075 354v-2l-53 -309q-6 -33 -49 -41q-132 -22 -314 -22q-477 0 -477 360q0 60 11 119l180 1022q3 17 18 29t33 12h399q15 0 24 -9.5t9 -23.5v-6v-2l-180 -1022q-2 -8 -2 -25q0 -24 13 -32.5t46 -8.5h309q15 0 24 -9.5t9 -23.5v-6zM1296 1909q0 -10 -12 -19l-309 -243
q-23 -18 -37 -20q-7 -1 -18 -1h-316q-16 0 -16 12q0 11 12 23l219 229q19 19 30 25t34 6h391q22 0 22 -12z" />
    <glyph glyph-name="lacute" unicode="&#x13a;" horiz-adv-x="663" 
d="M799 1595q45 0 37 -43l-267 -1507q-4 -22 -14 -33.5t-37 -11.5h-368q-47 0 -39 45l266 1507q7 43 53 43h369zM1096 1909q0 -9 -13 -19l-309 -243q-23 -18 -37 -20q-7 -1 -18 -1h-316q-16 0 -16 12q0 11 12 23l219 229q19 19 30 25t34 6h391q9 0 16 -3.5t7 -8.5z" />
    <glyph glyph-name="Lcommaaccent" unicode="&#x13b;" horiz-adv-x="1064" 
d="M1075 354v-2l-53 -309q-6 -33 -49 -41q-132 -22 -314 -22q-477 0 -477 360q0 60 11 119l180 1022q3 17 18 29t33 12h399q15 0 24 -9.5t9 -23.5v-6v-2l-180 -1022q-2 -8 -2 -25q0 -24 13 -32.5t46 -8.5h309q15 0 24 -9.5t9 -23.5v-6zM416 -92h299q22 0 22 -19q0 -8 -6 -20
l-156 -221q-23 -41 -51 -41h-229q-27 0 -27 18q0 7 4 23l95 221q16 39 49 39z" />
    <glyph glyph-name="lcommaaccent" unicode="&#x13c;" horiz-adv-x="663" 
d="M799 1595q45 0 37 -43l-267 -1507q-4 -22 -14 -33.5t-37 -11.5h-368q-47 0 -39 45l266 1507q7 43 53 43h369zM160 -92h299q22 0 22 -19q0 -8 -6 -20l-156 -221q-23 -41 -51 -41h-229q-27 0 -27 18q0 7 4 23l95 221q16 39 49 39z" />
    <glyph glyph-name="Lcaron" unicode="&#x13d;" horiz-adv-x="1064" 
d="M1075 354v-2l-53 -309q-6 -33 -49 -41q-132 -22 -314 -22q-477 0 -477 360q0 60 11 119l180 1022q3 17 18 29t33 12h399q15 0 24 -9.5t9 -23.5v-6v-2l-180 -1022q-2 -8 -2 -25q0 -24 13 -32.5t46 -8.5h309q15 0 24 -9.5t9 -23.5v-6zM1513 1571l-8 -17l-286 -471
q-20 -39 -45 -39h-224q-22 0 -22 19q0 11 6 20l215 471q16 39 49 39h295q20 0 20 -18v-4z" />
    <glyph glyph-name="lcaron" unicode="&#x13e;" horiz-adv-x="1165" 
d="M836 1561v-9l-267 -1507q-3 -19 -17.5 -32t-33.5 -13h-368q-17 0 -28 11t-11 28v6l266 1507q3 18 18.5 30.5t34.5 12.5h369q17 0 27 -9.5t10 -24.5zM1460 1573l-8 -17l-287 -471q-20 -38 -45 -38h-223q-23 0 -23 18q0 9 7 20l215 471q16 39 49 39h295q20 0 20 -18v-4z
" />
    <glyph glyph-name="Ldot" unicode="&#x13f;" horiz-adv-x="1185" 
d="M1075 354v-2l-53 -309q-6 -33 -49 -41q-132 -22 -314 -22q-477 0 -477 360q0 60 11 119l180 1022q3 17 18 29t33 12h399q15 0 24 -9.5t9 -23.5v-6v-2l-180 -1022q-2 -8 -2 -25q0 -24 13 -32.5t46 -8.5h309q15 0 24 -9.5t9 -23.5v-6zM1323 965v-7l-43 -237
q-3 -17 -17.5 -29t-31.5 -12h-357q-15 0 -25.5 10t-10.5 25v6l43 237q3 17 17.5 29t31.5 12h356q15 0 26 -9.5t11 -24.5z" />
    <glyph glyph-name="ldot" unicode="&#x140;" horiz-adv-x="1140" 
d="M799 1595q20 0 30 -12t7 -31l-267 -1507q-3 -19 -17.5 -32t-33.5 -13h-368q-20 0 -31.5 11.5t-7.5 33.5l266 1507q3 18 18.5 30.5t34.5 12.5h369zM1239 999q42 0 37 -41l-43 -237q-7 -41 -49 -41h-357q-43 0 -36 41l43 237q7 41 49 41h356z" />
    <glyph glyph-name="Lslash" unicode="&#x141;" horiz-adv-x="1064" 
d="M1075 360v-8l-53 -309q-6 -33 -49 -41q-132 -22 -314 -22q-479 0 -479 356q0 27 2 41l-71 -53q-11 -7 -15 -7q-14 0 -14 21v6l68 383q6 25 16 33l92 67l115 654q3 17 18 29t33 12h399q15 0 24 -9.5t9 -23.5v-8l-41 -242l117 88q12 8 16 8q15 0 15 -22v-8l-70 -381
q-3 -23 -23 -37l-135 -101l-59 -327q-2 -10 -2 -25q0 -23 14 -32t45 -9h309q15 0 24 -9.5t9 -23.5z" />
    <glyph glyph-name="lslash" unicode="&#x142;" horiz-adv-x="663" 
d="M918 1313v-10l-68 -379q-3 -23 -23 -37l-127 -94l-131 -748q-3 -19 -17.5 -32t-33.5 -13h-368q-17 0 -28 11t-11 28v6l63 356l-106 -77q-11 -7 -15 -7q-14 0 -14 23v6l67 381q6 24 17 33l131 96l123 696q3 18 18.5 30.5t34.5 12.5h369q17 0 27 -9.5t10 -24.5v-9l-56 -305
l109 80q9 6 16 6q13 0 13 -20z" />
    <glyph glyph-name="Nacute" unicode="&#x143;" horiz-adv-x="1562" 
d="M1700 1489v-8l-248 -1409q-4 -29 -29.5 -50.5t-54.5 -21.5h-350q-39 0 -57 45l-240 563q-6 17 -14 17h-2q-12 0 -15 -19l-98 -565q-3 -17 -18 -29t-33 -12h-375q-15 0 -25 10t-10 25v6l248 1409q4 29 29.5 50.5t54.5 21.5h336q43 0 67 -58l244 -565q8 -18 18 -18
q4 0 5.5 0.5t3.5 4.5t4 13l102 582q3 17 17.5 29t31.5 12h375q15 0 24 -9.5t9 -23.5zM1546 1909q0 -10 -12 -19l-309 -243q-23 -18 -40 -20q-7 -1 -16 -1h-315q-16 0 -16 12q0 11 12 23l219 229q19 19 30 25t34 6h391q22 0 22 -12z" />
    <glyph glyph-name="nacute" unicode="&#x144;" horiz-adv-x="1335" 
d="M1380 897q0 -61 -14 -143l-125 -709q-2 -15 -5.5 -23.5t-15 -15t-30.5 -6.5h-369q-45 0 -37 45l125 709q2 12 2 37q0 30 -24.5 46.5t-63.5 16.5q-54 0 -118 -31l-138 -778q-2 -12 -4 -18t-6.5 -13.5t-14 -10.5t-24.5 -3h-368q-20 0 -31.5 11.5t-7.5 33.5l198 1122
q3 17 16.5 29t30.5 12h338q42 0 35 -41l-10 -57q86 62 166 90.5t184 28.5q311 0 311 -332zM1346 1583q0 -8 -13 -18l-309 -244q-23 -18 -37 -20q-7 -1 -18 -1h-316q-16 0 -16 13q0 10 12 22l219 230q19 19 30 24.5t34 5.5h391q9 0 16 -3.5t7 -8.5z" />
    <glyph glyph-name="Ncommaaccent" unicode="&#x145;" horiz-adv-x="1562" 
d="M1700 1489v-8l-248 -1409q-4 -29 -29.5 -50.5t-54.5 -21.5h-350q-39 0 -57 45l-240 563q-6 17 -14 17h-2q-12 0 -15 -19l-98 -565q-3 -17 -18 -29t-33 -12h-375q-15 0 -25 10t-10 25v6l248 1409q4 29 29.5 50.5t54.5 21.5h336q43 0 67 -58l244 -565q8 -18 18 -18
q4 0 5.5 0.5t3.5 4.5t4 13l102 582q3 17 17.5 29t31.5 12h375q15 0 24 -9.5t9 -23.5zM668 -90h299q22 0 22 -19q0 -8 -6 -20l-156 -221q-23 -41 -51 -41h-229q-27 0 -27 18q0 7 4 23l94 221q16 39 50 39z" />
    <glyph glyph-name="ncommaaccent" unicode="&#x146;" horiz-adv-x="1335" 
d="M1380 897q0 -61 -14 -143l-125 -709q-2 -15 -5.5 -23.5t-15 -15t-30.5 -6.5h-369q-45 0 -37 45l125 709q2 12 2 37q0 30 -24.5 46.5t-63.5 16.5q-54 0 -118 -31l-138 -778q-2 -12 -4 -18t-6.5 -13.5t-14 -10.5t-24.5 -3h-368q-20 0 -31.5 11.5t-7.5 33.5l198 1122
q3 17 16.5 29t30.5 12h338q42 0 35 -41l-10 -57q86 62 166 90.5t184 28.5q311 0 311 -332zM526 -90h299q23 0 23 -19q0 -8 -6 -20l-156 -221q-23 -41 -51 -41h-229q-27 0 -27 18q0 7 4 23l94 221q16 39 49 39z" />
    <glyph glyph-name="Ncaron" unicode="&#x147;" horiz-adv-x="1562" 
d="M1700 1489v-8l-248 -1409q-4 -29 -29.5 -50.5t-54.5 -21.5h-350q-39 0 -57 45l-240 563q-6 17 -14 17h-2q-12 0 -15 -19l-98 -565q-3 -17 -18 -29t-33 -12h-375q-15 0 -25 10t-10 25v6l248 1409q4 29 29.5 50.5t54.5 21.5h336q43 0 67 -58l244 -565q8 -18 18 -18
q4 0 5.5 0.5t3.5 4.5t4 13l102 582q3 17 17.5 29t31.5 12h375q15 0 24 -9.5t9 -23.5zM1595 1909q0 -11 -12 -23l-221 -229q-19 -19 -31 -25t-35 -6h-450q-23 0 -32 6t-21 25l-144 229q-6 9 -6 17q0 18 23 18h307q22 0 30.5 -4t18.5 -16l82 -93l115 93q2 1 6 4.5t5.5 4.5
t5 3.5t5.5 3t5.5 2t7 1.5t8 0.5t10.5 0.5h307q16 0 16 -12z" />
    <glyph glyph-name="ncaron" unicode="&#x148;" horiz-adv-x="1335" 
d="M1380 897q0 -61 -14 -143l-125 -709q-2 -15 -5.5 -23.5t-15 -15t-30.5 -6.5h-369q-45 0 -37 45l125 709q2 12 2 37q0 30 -24.5 46.5t-63.5 16.5q-54 0 -118 -31l-138 -778q-2 -12 -4 -18t-6.5 -13.5t-14 -10.5t-24.5 -3h-368q-20 0 -31.5 11.5t-7.5 33.5l198 1122
q3 17 16.5 29t30.5 12h338q42 0 35 -41l-10 -57q86 62 166 90.5t184 28.5q311 0 311 -332zM1407 1583q0 -10 -12 -22l-221 -230q-19 -19 -31 -25t-35 -6h-451q-23 0 -32 6t-21 25l-143 230q-6 9 -6 16q0 18 22 18h307q22 0 31 -4t19 -16l81 -92l115 92q2 1 6 4.5t5.5 4.5
t5 3.5t5.5 3t5.5 2t7 1.5t8 0.5t10.5 0.5h308q16 0 16 -12z" />
    <glyph glyph-name="napostrophe" unicode="&#x149;" horiz-adv-x="1822" 
d="M823 1577q0 -9 -6 -21l-268 -495q-20 -39 -45 -39h-297q-17 0 -17 14q0 11 7 25l213 495q16 39 47 39h346q20 0 20 -18zM1868 897q0 -55 -15 -143l-124 -709q-2 -15 -6 -23.5t-15.5 -15t-30.5 -6.5h-368q-45 0 -37 45l125 709q2 12 2 37q0 30 -24.5 46.5t-63.5 16.5
q-55 0 -119 -31l-137 -778q-2 -12 -4 -18t-6.5 -13.5t-14 -10.5t-24.5 -3h-369q-20 0 -31.5 11.5t-7.5 33.5l199 1122q3 17 16.5 29t30.5 12h338q42 0 35 -41l-11 -57q86 62 166 90.5t184 28.5q312 0 312 -332z" />
    <glyph glyph-name="Eng" unicode="&#x14a;" horiz-adv-x="1562" 
d="M1667 1522q40 0 33 -41l-258 -1471q-76 -432 -465 -432q-146 0 -225 12q-35 7 -35 35v6l49 275q3 17 16.5 29t30.5 12h88q28 0 39.5 12.5t17.5 50.5l5 29l-242 569q-7 17 -16 17q-12 0 -15 -19l-98 -565q-3 -17 -18 -29t-33 -12h-375q-15 0 -25 10t-10 25v6l248 1409
q4 29 29.5 50.5t54.5 21.5h336q43 0 67 -58l244 -565q8 -18 18 -18q4 0 5.5 0.5t3.5 4.5t4 13l102 582q3 17 17.5 29t31.5 12h375z" />
    <glyph glyph-name="eng" unicode="&#x14b;" horiz-adv-x="1335" 
d="M1380 897q0 -61 -14 -143l-137 -777q-20 -115 -61.5 -196t-100.5 -126t-127 -65t-152 -20q-89 0 -215 22q-39 6 -34 46l39 221q3 19 17.5 31t33.5 12h86q27 0 38.5 19t18.5 56l137 777q4 24 4 30q0 70 -90 70q-54 0 -118 -31l-138 -778q-3 -19 -17 -32t-32 -13h-368
q-17 0 -28 11t-11 28v6l198 1122q3 17 16.5 29t30.5 12h338q15 0 25 -9.5t10 -24.5v-7l-10 -57q91 65 162.5 92t187.5 27q87 0 150 -27t97 -75t49 -104.5t15 -125.5z" />
    <glyph glyph-name="Omacron" unicode="&#x14c;" horiz-adv-x="1466" 
d="M1550 1022q0 -74 -16 -172l-31 -178q-119 -692 -774 -692q-115 0 -211 30.5t-172 91.5t-119 163.5t-43 236.5q0 66 17 170l30 178q120 692 775 692q115 0 211 -30t172 -91t118.5 -163t42.5 -236zM1057 971q0 77 -31 111t-96 34q-87 0 -136 -60.5t-73 -205.5l-31 -178
q-12 -71 -12 -121q0 -77 31 -111t96 -34q87 0 136 60.5t73 205.5l30 178q13 76 13 121zM1458 1886v-6l-39 -213q-3 -17 -16.5 -29t-30.5 -12h-725q-15 0 -25 10t-10 25v6l39 213q3 17 16.5 29t30.5 12h725q15 0 25 -10t10 -25z" />
    <glyph glyph-name="omacron" unicode="&#x14d;" horiz-adv-x="1269" 
d="M1327 797q0 -57 -14 -146l-17 -94q-28 -160 -86 -273t-144.5 -179t-192.5 -95.5t-242 -29.5q-228 0 -350.5 115.5t-122.5 322.5q0 66 12 139l16 94q27 158 85 270.5t145 179.5t194 97.5t242 30.5q228 0 351.5 -111t123.5 -321zM868 748q0 57 -21 80.5t-63 23.5
q-107 0 -143 -201l-16 -94q-11 -71 -11 -96q0 -57 21 -81t63 -24q56 0 89.5 43t54.5 158l16 94q10 65 10 97zM1311 1561v-7l-39 -213q-3 -17 -16.5 -29t-30.5 -12h-725q-15 0 -25 10t-10 25v6l39 213q3 17 16.5 29t30.5 12h725q15 0 25 -9.5t10 -24.5z" />
    <glyph glyph-name="Obreve" unicode="&#x14e;" horiz-adv-x="1466" 
d="M1550 1022q0 -74 -16 -172l-31 -178q-119 -692 -774 -692q-115 0 -211 30.5t-172 91.5t-119 163.5t-43 236.5q0 66 17 170l30 178q120 692 775 692q115 0 211 -30t172 -91t118.5 -163t42.5 -236zM1057 971q0 77 -31 111t-96 34q-87 0 -136 -60.5t-73 -205.5l-31 -178
q-12 -71 -12 -121q0 -77 31 -111t96 -34q87 0 136 60.5t73 205.5l30 178q13 76 13 121zM1040 1843q51 0 85.5 16t60.5 52q1 1 6 9t7 9.5t8.5 4.5t15.5 3h258q26 0 26 -18q0 -22 -16 -51q-140 -254 -467 -254q-323 0 -426 254q-10 30 -10 43q0 26 28 26h256q18 0 25.5 -5
t15.5 -21q20 -37 46.5 -52.5t80.5 -15.5z" />
    <glyph glyph-name="obreve" unicode="&#x14f;" horiz-adv-x="1269" 
d="M1327 797q0 -57 -14 -146l-17 -94q-28 -160 -86 -273t-144.5 -179t-192.5 -95.5t-242 -29.5q-228 0 -350.5 115.5t-122.5 322.5q0 66 12 139l16 94q27 158 85 270.5t145 179.5t194 97.5t242 30.5q228 0 351.5 -111t123.5 -321zM868 748q0 57 -21 80.5t-63 23.5
q-107 0 -143 -201l-16 -94q-11 -71 -11 -96q0 -57 21 -81t63 -24q56 0 89.5 43t54.5 158l16 94q10 65 10 97zM891 1513q51 0 85 15.5t60 52.5q1 2 6 9.5t7 9.5t8.5 5t15.5 3h258q27 0 27 -19q0 -20 -17 -51q-140 -254 -467 -254q-322 0 -425 254q-11 33 -11 43q0 27 29 27
h256q18 0 25.5 -5.5t15.5 -21.5q20 -37 46.5 -52.5t80.5 -15.5z" />
    <glyph glyph-name="Ohungarumlaut" unicode="&#x150;" horiz-adv-x="1466" 
d="M1550 1022q0 -74 -16 -172l-31 -178q-119 -692 -774 -692q-115 0 -211 30.5t-172 91.5t-119 163.5t-43 236.5q0 66 17 170l30 178q120 692 775 692q115 0 211 -30t172 -91t118.5 -163t42.5 -236zM1057 971q0 77 -31 111t-96 34q-87 0 -136 -60.5t-73 -205.5l-31 -178
q-12 -71 -12 -121q0 -77 31 -111t96 -34q87 0 136 60.5t73 205.5l30 178q13 76 13 121zM1780 1909q0 -9 -13 -19l-309 -243q-23 -18 -37 -20q-7 -1 -18 -1h-307q-17 0 -17 12q0 10 13 23l223 229q14 14 20 19t16.5 8.5t26.5 3.5h379q9 0 16 -3.5t7 -8.5zM1206 1909
q0 -10 -12 -19l-309 -243q-23 -18 -40 -20q-7 -1 -16 -1h-307q-16 0 -16 12q0 11 12 23l223 229q19 19 30 25t34 6h379q22 0 22 -12z" />
    <glyph glyph-name="ohungarumlaut" unicode="&#x151;" horiz-adv-x="1269" 
d="M1327 797q0 -57 -14 -146l-17 -94q-28 -160 -86 -273t-144.5 -179t-192.5 -95.5t-242 -29.5q-228 0 -350.5 115.5t-122.5 322.5q0 66 12 139l16 94q27 158 85 270.5t145 179.5t194 97.5t242 30.5q228 0 351.5 -111t123.5 -321zM868 748q0 57 -21 80.5t-63 23.5
q-107 0 -143 -201l-16 -94q-11 -71 -11 -96q0 -57 21 -81t63 -24q56 0 89.5 43t54.5 158l16 94q10 65 10 97zM1681 1583q0 -9 -12 -18l-309 -244q-23 -18 -37 -20q-7 -1 -18 -1h-308q-16 0 -16 13q0 10 12 22l224 230q19 19 29.5 24.5t33.5 5.5h379q22 0 22 -12zM1108 1583
q0 -9 -12 -18l-310 -244q-23 -18 -37 -20q-7 -1 -18 -1h-307q-16 0 -16 13q0 10 12 22l223 230q19 19 30 24.5t34 5.5h378q9 0 16 -3.5t7 -8.5z" />
    <glyph glyph-name="OE" unicode="&#x152;" horiz-adv-x="2007" 
d="M2165 1487v-8l-54 -310q-3 -17 -17.5 -29t-31.5 -12h-411q-38 0 -54.5 -13.5t-23.5 -51.5l-21 -111h480q15 0 23.5 -9t8.5 -23v-9l-49 -288q-3 -17 -17.5 -29t-31.5 -12h-479l-23 -123q-2 -8 -2 -25q0 -23 13.5 -32t46.5 -9h411q15 0 24 -9.5t9 -23.5v-8l-53 -309
q-3 -17 -17 -28t-32 -13q-189 -22 -416 -22q-239 0 -352 79q-162 -79 -367 -79q-92 0 -170.5 16t-149 53.5t-120 94.5t-78.5 144t-29 197q0 79 19 187l30 178q26 152 82.5 272t130.5 197.5t168.5 128.5t191 72.5t202.5 21.5q200 0 337 -80q142 80 381 80q223 0 408 -22
q15 -2 24 -11t9 -22zM1057 971q0 77 -31 111t-96 34q-87 0 -136 -60.5t-73 -205.5l-31 -178q-12 -71 -12 -121q0 -77 31 -111t96 -34q87 0 136 60.5t73 205.5l30 178q13 76 13 121z" />
    <glyph glyph-name="oe" unicode="&#x153;" horiz-adv-x="1933" 
d="M1989 793q0 -64 -13 -140l-22 -125q-3 -19 -17.5 -31t-33.5 -12h-619q-4 -32 -4 -45q0 -49 34.5 -67.5t123.5 -18.5q202 0 387 15h8q33 0 33 -27q0 -1 -1 -4.5t-1 -5.5l-39 -215q-5 -26 -14.5 -38.5t-34.5 -21.5q-202 -77 -484 -77q-188 0 -305 102q-161 -102 -356 -102
q-226 0 -349.5 116t-123.5 324q0 66 12 137l16 94q28 158 86 271t145 179.5t193.5 97t241.5 30.5q93 0 176.5 -32.5t138.5 -76.5q77 64 164.5 86.5t202.5 22.5q228 0 341.5 -120t113.5 -316zM1563 780q0 105 -95 105q-115 0 -143 -170h231q7 40 7 65zM868 748q0 57 -21 80.5
t-63 23.5q-56 0 -89 -43t-54 -158l-16 -94q-11 -71 -11 -96q0 -57 21 -81t63 -24q56 0 89.5 43t54.5 158l16 94q10 65 10 97z" />
    <glyph glyph-name="Racute" unicode="&#x154;" horiz-adv-x="1497" 
d="M1567 1145q0 -50 -13 -113l-8 -41q-60 -298 -305 -397l189 -535q2 -6 2 -16q0 -19 -14 -31t-29 -12h-431q-5 0 -8.5 1t-6.5 4l-5 5t-4 7t-3 7t-2.5 8.5t-2.5 8.5l-160 481h-78l-84 -481q-3 -17 -17.5 -29t-31.5 -12h-399q-15 0 -25 10t-10 25v6l229 1302q17 93 52 127
t122 48q56 8 203.5 16t249.5 8q283 0 436.5 -101.5t153.5 -295.5zM1075 1057q0 82 -125 82h-153l-45 -258h153q71 0 111.5 31t48.5 77l8 41q2 10 2 27zM1513 1909q0 -10 -12 -19l-309 -243q-23 -18 -37 -20q-7 -1 -18 -1h-316q-16 0 -16 12q0 11 12 23l219 229q19 19 30 25
t34 6h391q22 0 22 -12z" />
    <glyph glyph-name="racute" unicode="&#x155;" horiz-adv-x="899" 
d="M997 1229h15q27 0 37 -9t6 -32l-51 -289q-3 -17 -17 -29t-31 -12h-14q-168 0 -237 -35l-138 -778q-2 -14 -6 -23t-14.5 -15.5t-28.5 -6.5h-368q-46 0 -39 45l198 1122q7 41 47 41h324q43 0 35 -41l-13 -59q103 121 295 121zM1182 1583q0 -8 -13 -18l-309 -244
q-23 -18 -37 -20q-7 -1 -18 -1h-316q-16 0 -16 13q0 10 12 22l220 230q19 19 29.5 24.5t33.5 5.5h391q9 0 16 -3.5t7 -8.5z" />
    <glyph glyph-name="Rcommaaccent" unicode="&#x156;" horiz-adv-x="1497" 
d="M1567 1145q0 -50 -13 -113l-8 -41q-60 -298 -305 -397l189 -535q2 -6 2 -16q0 -19 -14 -31t-29 -12h-431q-5 0 -8.5 1t-6.5 4l-5 5t-4 7t-3 7t-2.5 8.5t-2.5 8.5l-160 481h-78l-84 -481q-3 -17 -17.5 -29t-31.5 -12h-399q-15 0 -25 10t-10 25v6l229 1302q17 93 52 127
t122 48q56 8 203.5 16t249.5 8q283 0 436.5 -101.5t153.5 -295.5zM1075 1057q0 82 -125 82h-153l-45 -258h153q71 0 111.5 31t48.5 77l8 41q2 10 2 27zM621 -92h299q22 0 22 -19q0 -8 -6 -20l-156 -221q-23 -41 -51 -41h-229q-27 0 -27 18q0 7 4 23l94 221q16 39 50 39z" />
    <glyph glyph-name="rcommaaccent" unicode="&#x157;" horiz-adv-x="899" 
d="M997 1229h15q27 0 37 -9t6 -32l-51 -289q-3 -17 -17 -29t-31 -12h-14q-168 0 -237 -35l-138 -778q-2 -14 -6 -23t-14.5 -15.5t-28.5 -6.5h-368q-46 0 -39 45l198 1122q7 41 47 41h324q43 0 35 -41l-13 -59q103 121 295 121zM379 -90h299q22 0 22 -19q0 -8 -6 -20
l-155 -221q-23 -41 -52 -41h-229q-27 0 -27 18q0 3 5 23l94 221q16 39 49 39z" />
    <glyph glyph-name="Rcaron" unicode="&#x158;" horiz-adv-x="1497" 
d="M1567 1145q0 -50 -13 -113l-8 -41q-60 -298 -305 -397l189 -535q2 -6 2 -16q0 -19 -14 -31t-29 -12h-431q-5 0 -8.5 1t-6.5 4l-5 5t-4 7t-3 7t-2.5 8.5t-2.5 8.5l-160 481h-78l-84 -481q-3 -17 -17.5 -29t-31.5 -12h-399q-15 0 -25 10t-10 25v6l229 1302q17 93 52 127
t122 48q56 8 203.5 16t249.5 8q283 0 436.5 -101.5t153.5 -295.5zM1075 1057q0 82 -125 82h-153l-45 -258h153q71 0 111.5 31t48.5 77l8 41q2 10 2 27zM1532 1909q0 -11 -12 -23l-222 -229q-19 -19 -30.5 -25t-34.5 -6h-451q-23 0 -32 6t-21 25l-143 229q-6 9 -6 17
q0 18 22 18h307q22 0 30.5 -4t18.5 -16l82 -93l115 93q2 1 6 4.5t5.5 4.5t5 3.5t5.5 3t5.5 2t7 1.5t8 0.5t10.5 0.5h308q16 0 16 -12z" />
    <glyph glyph-name="rcaron" unicode="&#x159;" horiz-adv-x="899" 
d="M997 1229h15q27 0 37 -9t6 -32l-51 -289q-3 -17 -17 -29t-31 -12h-14q-168 0 -237 -35l-138 -778q-2 -14 -6 -23t-14.5 -15.5t-28.5 -6.5h-368q-46 0 -39 45l198 1122q7 41 47 41h324q43 0 35 -41l-13 -59q103 121 295 121zM1217 1583q0 -9 -13 -22l-221 -230
q-19 -19 -30.5 -25t-34.5 -6h-451q-23 0 -32 6t-21 25l-144 230q-6 9 -6 16q0 18 23 18h307q22 0 30.5 -4t18.5 -16l82 -92l115 92q2 1 6 4.5t5.5 4.5t5 3.5t5.5 3t5.5 2t7 1.5t8 0.5t10.5 0.5h307q17 0 17 -12z" />
    <glyph glyph-name="Sacute" unicode="&#x15a;" horiz-adv-x="1277" 
d="M1413 1446v-2l-53 -305q-3 -17 -15.5 -29t-27.5 -12h-4q-318 30 -494 30q-49 0 -49 -38q0 -21 66 -60l262 -153q101 -60 148.5 -147t47.5 -185q0 -115 -38 -210t-103.5 -160t-154 -109.5t-188 -65t-208.5 -20.5q-238 0 -428 61q-37 14 -37 35v6l53 305q3 17 17 29t31 12
h4q16 -2 82 -9t117.5 -12t119.5 -9.5t115 -4.5q38 0 62 18t24 54q0 25 -45 55l-277 178q-94 61 -136 152t-42 190q0 111 33 198t90 143.5t138.5 93t172 52t197.5 15.5q130 0 275.5 -17.5t211.5 -39.5q33 -11 33 -35v-4zM1403 1909q0 -10 -12 -19l-310 -243q-23 -18 -37 -20
q-7 -1 -18 -1h-315q-17 0 -17 12q0 10 13 23l219 229q14 14 20 19t16.5 8.5t26.5 3.5h391q9 0 16 -3.5t7 -8.5z" />
    <glyph glyph-name="sacute" unicode="&#x15b;" horiz-adv-x="1105" 
d="M1161 1174q23 -6 30.5 -14.5t4.5 -29.5l-47 -266q-1 -11 -2.5 -16.5t-4.5 -13.5t-8 -9.5t-13.5 -4.5t-20.5 1q-59 10 -182 23.5t-177 13.5q-47 0 -47 -22q0 -12 7.5 -20t37.5 -25l162 -86q66 -35 108.5 -73t62.5 -79.5t27 -78t7 -83.5q0 -108 -43 -188t-124 -128.5
t-188.5 -71.5t-244.5 -23q-224 0 -373 53q-20 7 -27 17.5t-4 27.5l45 256q5 27 18.5 39t43.5 8q259 -39 348 -39q22 0 36.5 2t29 13t14.5 32q0 20 -39 41l-182 100q-183 103 -183 291q0 408 547 408q192 0 381 -55zM1235 1583q0 -9 -12 -18l-310 -244q-23 -18 -37 -20
q-7 -1 -18 -1h-315q-17 0 -17 13q0 9 13 22l219 230q19 19 29.5 24.5t33.5 5.5h391q9 0 16 -3.5t7 -8.5z" />
    <glyph glyph-name="Scircumflex" unicode="&#x15c;" horiz-adv-x="1277" 
d="M1413 1446v-2l-53 -305q-3 -17 -15.5 -29t-27.5 -12h-4q-318 30 -494 30q-49 0 -49 -38q0 -21 66 -60l262 -153q101 -60 148.5 -147t47.5 -185q0 -115 -38 -210t-103.5 -160t-154 -109.5t-188 -65t-208.5 -20.5q-238 0 -428 61q-37 14 -37 35v6l53 305q3 17 17 29t31 12
h4q16 -2 82 -9t117.5 -12t119.5 -9.5t115 -4.5q38 0 62 18t24 54q0 25 -45 55l-277 178q-94 61 -136 152t-42 190q0 111 33 198t90 143.5t138.5 93t172 52t197.5 15.5q130 0 275.5 -17.5t211.5 -39.5q33 -11 33 -35v-4zM1346 1645q0 -19 -21 -19h-283q-15 0 -24 3t-12 6
t-11 12l-82 100l-114 -100q-24 -21 -56 -21h-307q-16 0 -16 12q0 11 12 23l211 229q18 20 29 25.5t35 5.5h450q24 0 34 -6t21 -25l129 -229q5 -8 5 -16z" />
    <glyph glyph-name="scircumflex" unicode="&#x15d;" horiz-adv-x="1105" 
d="M1161 1174q23 -6 30.5 -14.5t4.5 -29.5l-47 -266q-1 -11 -2.5 -16.5t-4.5 -13.5t-8 -9.5t-13.5 -4.5t-20.5 1q-59 10 -182 23.5t-177 13.5q-47 0 -47 -22q0 -12 7.5 -20t37.5 -25l162 -86q66 -35 108.5 -73t62.5 -79.5t27 -78t7 -83.5q0 -108 -43 -188t-124 -128.5
t-188.5 -71.5t-244.5 -23q-224 0 -373 53q-20 7 -27 17.5t-4 27.5l45 256q5 27 18.5 39t43.5 8q259 -39 348 -39q22 0 36.5 2t29 13t14.5 32q0 20 -39 41l-182 100q-183 103 -183 291q0 408 547 408q192 0 381 -55zM1200 1319q0 -19 -20 -19h-283q-15 0 -24 3t-12 6t-11 12
l-82 100l-115 -100q-10 -9 -15 -12.5t-15 -6t-25 -2.5h-307q-17 0 -17 13q0 9 13 22l211 230q18 19 28.5 24.5t34.5 5.5h451q24 0 34 -5.5t21 -24.5l129 -230q4 -6 4 -16z" />
    <glyph glyph-name="uni015E" unicode="&#x15e;" horiz-adv-x="1277" 
d="M1413 1446v-2l-53 -305q-3 -17 -15.5 -29t-27.5 -12h-4q-318 30 -494 30q-49 0 -49 -38q0 -21 66 -60l262 -153q101 -60 148.5 -147t47.5 -185q0 -115 -38 -210t-103.5 -160t-154 -109.5t-188 -65t-208.5 -20.5q-238 0 -428 61q-37 14 -37 35v6l53 305q3 17 17 29t31 12
h4q16 -2 82 -9t117.5 -12t119.5 -9.5t115 -4.5q38 0 62 18t24 54q0 25 -45 55l-277 178q-94 61 -136 152t-42 190q0 111 33 198t90 143.5t138.5 93t172 52t197.5 15.5q130 0 275.5 -17.5t211.5 -39.5q33 -11 33 -35v-4zM889 -133q0 -10 -12 -19l-310 -243q-23 -18 -37 -20
q-7 -1 -18 -1h-307q-17 0 -17 13q0 9 13 22l223 229q14 14 20 19t16.5 8.5t26.5 3.5h379q9 0 16 -3.5t7 -8.5z" />
    <glyph glyph-name="uni015F" unicode="&#x15f;" horiz-adv-x="1105" 
d="M1161 1174q23 -6 30.5 -14.5t4.5 -29.5l-47 -266q-1 -11 -2.5 -16.5t-4.5 -13.5t-8 -9.5t-13.5 -4.5t-20.5 1q-59 10 -182 23.5t-177 13.5q-47 0 -47 -22q0 -12 7.5 -20t37.5 -25l162 -86q66 -35 108.5 -73t62.5 -79.5t27 -78t7 -83.5q0 -108 -43 -188t-124 -128.5
t-188.5 -71.5t-244.5 -23q-224 0 -373 53q-20 7 -27 17.5t-4 27.5l45 256q5 27 18.5 39t43.5 8q259 -39 348 -39q22 0 36.5 2t29 13t14.5 32q0 20 -39 41l-182 100q-183 103 -183 291q0 408 547 408q192 0 381 -55zM795 -133q0 -9 -13 -19l-309 -243q-23 -18 -37 -20
q-7 -1 -18 -1h-307q-17 0 -17 13q0 10 12 22l224 229q14 14 20 19t16.5 8.5t26.5 3.5h379q9 0 16 -3.5t7 -8.5z" />
    <glyph glyph-name="Scaron" unicode="&#x160;" horiz-adv-x="1277" 
d="M1413 1446v-2l-53 -305q-3 -17 -15.5 -29t-27.5 -12h-4q-318 30 -494 30q-49 0 -49 -38q0 -21 66 -60l262 -153q101 -60 148.5 -147t47.5 -185q0 -115 -38 -210t-103.5 -160t-154 -109.5t-188 -65t-208.5 -20.5q-238 0 -428 61q-37 14 -37 35v6l53 305q3 17 17 29t31 12
h4q16 -2 82 -9t117.5 -12t119.5 -9.5t115 -4.5q38 0 62 18t24 54q0 25 -45 55l-277 178q-94 61 -136 152t-42 190q0 111 33 198t90 143.5t138.5 93t172 52t197.5 15.5q130 0 275.5 -17.5t211.5 -39.5q33 -11 33 -35v-4zM1421 1909q0 -11 -12 -23l-221 -229q-19 -19 -31 -25
t-35 -6h-450q-23 0 -33 6t-21 25l-143 229q-6 9 -6 17q0 18 23 18h307q22 0 30.5 -4t18.5 -16l82 -93l114 93q1 1 5 4t4.5 3.5t4 3t4.5 3l4 2t5 1.5t5 1t6 1t7 0.5t9 0.5h307q16 0 16 -12z" />
    <glyph glyph-name="scaron" unicode="&#x161;" horiz-adv-x="1105" 
d="M1196 1137v-7l-47 -266q-3 -19 -14.5 -31t-28.5 -12h-4h-2q-56 9 -180.5 23t-178.5 14q-47 0 -47 -29q0 -13 21 -24l207 -111q87 -48 129.5 -124.5t42.5 -155.5q0 -97 -34.5 -173.5t-91 -124.5t-134.5 -79.5t-158.5 -44t-169.5 -12.5q-220 0 -373 53q-31 10 -31 37v8
l45 256q7 47 52 47h6h4q280 -39 348 -39q22 0 36.5 2t29 13t14.5 32q0 20 -39 41l-213 119q-67 37 -109.5 108.5t-42.5 163.5q0 408 547 408q192 0 381 -55q35 -12 35 -37zM1309 1583q0 -9 -13 -22l-221 -230q-19 -19 -30.5 -25t-34.5 -6h-451q-23 0 -32 6t-21 25l-144 230
q-6 9 -6 16q0 18 23 18h307q22 0 30.5 -4t18.5 -16l82 -92l115 92q2 1 6 4.5t5.5 4.5t5 3.5t5.5 3t5.5 2t7 1.5t8 0.5t10.5 0.5h307q17 0 17 -12z" />
    <glyph glyph-name="Tcommaaccent" unicode="&#x162;" horiz-adv-x="1232" 
d="M1442 1487v-6l-53 -312q-3 -17 -18.5 -29t-33.5 -12h-278l-191 -1087q-3 -17 -17.5 -29t-31.5 -12h-399q-15 0 -24 9.5t-9 23.5v8l191 1087h-287q-15 0 -24 9.5t-9 23.5v8l53 312q3 17 17.5 29t31.5 12h1047q15 0 25 -10t10 -25zM459 -90h299q22 0 22 -19q0 -8 -6 -20
l-156 -221q-23 -41 -51 -41h-229q-27 0 -27 18q0 7 4 23l95 221q16 39 49 39z" />
    <glyph glyph-name="tcommaaccent" unicode="&#x163;" horiz-adv-x="901" 
d="M872 1208h140q28 0 37.5 -9t5.5 -34l-43 -247q-7 -46 -51 -46h-148l-88 -501q-4 -24 -4 -31q0 -16 8 -22.5t29 -6.5h98q24 0 31.5 -7.5t3.5 -35.5l-39 -223q-3 -21 -12.5 -31t-38.5 -14q-123 -20 -221 -20q-59 0 -111.5 13.5t-102 44.5t-79 92t-29.5 146q0 41 10 103
l86 493l-112 21q-13 2 -21.5 6t-13.5 13.5t-2 25.5l39 227q7 43 53 43h117l28 168q3 20 14 29.5t40 13.5l381 64q21 3 30 -9.5t6 -33.5zM377 -92h299q22 0 22 -19q0 -8 -6 -20l-155 -221q-23 -41 -52 -41h-229q-27 0 -27 18q0 7 4 23l95 221q16 39 49 39z" />
    <glyph glyph-name="Tcaron" unicode="&#x164;" horiz-adv-x="1232" 
d="M1442 1487v-6l-53 -312q-3 -17 -18.5 -29t-33.5 -12h-278l-191 -1087q-3 -17 -17.5 -29t-31.5 -12h-399q-15 0 -24 9.5t-9 23.5v8l191 1087h-287q-15 0 -24 9.5t-9 23.5v8l53 312q3 17 17.5 29t31.5 12h1047q15 0 25 -10t10 -25zM1432 1909q0 -10 -13 -23l-221 -229
q-19 -19 -30.5 -25t-34.5 -6h-451q-23 0 -32 6t-21 25l-144 229q-6 9 -6 17q0 18 23 18h307q22 0 30.5 -4t18.5 -16l82 -93l115 93q2 1 6 4.5t5.5 4.5t5 3.5t5.5 3t5.5 2t7 1.5t8 0.5t10.5 0.5h307q17 0 17 -12z" />
    <glyph glyph-name="tcaron" unicode="&#x165;" horiz-adv-x="1376" 
d="M1055 1174v-9l-43 -247q-3 -19 -17.5 -32.5t-33.5 -13.5h-148l-88 -501q-4 -24 -4 -31q0 -16 8 -22.5t29 -6.5h98q16 0 25.5 -10.5t9.5 -24.5v-8l-39 -223q-3 -18 -17 -30t-34 -15q-123 -20 -221 -20q-59 0 -111.5 13.5t-102 44.5t-79 92t-29.5 146q0 41 10 103l86 493
l-112 21q-16 3 -26.5 14t-10.5 25v6l39 227q3 18 18.5 30.5t34.5 12.5h117l28 168q6 35 54 43l381 64h6q13 0 21.5 -10.5t8.5 -24.5v-8l-41 -232h148q35 0 35 -34zM1698 1573l-8 -17l-287 -471q-20 -38 -45 -38h-223q-23 0 -23 18q0 11 6 20l215 471q16 39 49 39h295
q21 0 21 -18v-4z" />
    <glyph glyph-name="Tbar" unicode="&#x166;" horiz-adv-x="1232" 
d="M1243 602h-278l-99 -561q-3 -17 -16.5 -29t-30.5 -12h-399q-17 0 -27.5 12t-7.5 29l98 561h-286q-17 0 -26.5 12t-6.5 29l55 311q3 17 16.5 29t30.5 12h287l25 133h-287q-17 0 -27.5 12t-7.5 29l55 312q3 17 17.5 29t31.5 12h1047q17 0 27.5 -12t7.5 -29l-56 -312
q-3 -17 -17.5 -29t-31.5 -12h-278l-25 -133h279q18 0 29 -12t8 -29l-56 -311q-3 -17 -18 -29t-33 -12z" />
    <glyph glyph-name="tbar" unicode="&#x167;" horiz-adv-x="878" 
d="M999 918q-3 -19 -17 -32.5t-32 -13.5h-147l-17 -84h148q19 0 29.5 -12t7.5 -31l-45 -247q-3 -19 -18 -32t-34 -13h-147l-14 -82q-2 -12 -2 -29q0 -16 7 -23.5t27 -7.5h99q19 0 29.5 -12t7.5 -31l-41 -223q-6 -38 -49 -45q-123 -20 -222 -20q-73 0 -128.5 13t-101.5 43
t-70.5 86t-24.5 136q0 54 12 121l12 74l-112 20q-18 3 -29 15t-8 30l41 227q3 19 17.5 31t33.5 12h117l16 84l-115 21q-18 3 -28.5 15t-7.5 30l40 227q3 18 19 30.5t35 12.5h116l29 168q6 36 53 43l379 64h6q15 0 24.5 -13t6.5 -30l-39 -232h148q19 0 28 -12t6 -31z" />
    <glyph glyph-name="Utilde" unicode="&#x168;" horiz-adv-x="1540" 
d="M1677 1487v-6l-157 -895q-25 -143 -71 -248t-108.5 -173.5t-150.5 -109.5t-188 -58t-230 -17q-85 0 -163 15.5t-150.5 52.5t-125.5 91.5t-84.5 138t-31.5 187.5q0 67 12 143l154 873q3 17 18 29t33 12h400q14 0 23 -10.5t9 -24.5v-6l-157 -895q-9 -43 -9 -76
q0 -68 34.5 -94.5t105.5 -26.5q85 0 130 40.5t66 156.5l158 895q3 17 17.5 29t31.5 12h399q15 0 25 -10.5t10 -24.5zM1554 1931v-8l-12 -82q-18 -118 -94.5 -176.5t-194.5 -58.5q-103 0 -188 49l-74 41q-47 24 -71 24q-28 0 -33 -26l-6 -33q-6 -35 -43 -35h-197
q-31 0 -31 27v8l11 68q19 122 96.5 185.5t185.5 63.5q114 0 199 -49l74 -41q51 -26 73 -26q15 0 21.5 6.5t9.5 21.5l6 33q6 35 43 35h195q30 0 30 -27z" />
    <glyph glyph-name="utilde" unicode="&#x169;" horiz-adv-x="1335" 
d="M1399 1208q46 0 39 -45l-199 -1122q-4 -20 -13.5 -30.5t-33.5 -10.5h-338q-42 0 -35 41l10 57q-87 -62 -157 -90t-183 -28q-85 0 -148 28t-99.5 77t-54 110.5t-17.5 134.5q0 64 12 125l125 708q3 19 17.5 32t33.5 13h369q46 0 37 -45l-119 -676q-8 -46 -8 -61
q0 -72 88 -72q55 0 119 31l137 778q7 45 49 45h369zM1384 1606v-9l-12 -81q-18 -118 -94.5 -177t-194.5 -59q-103 0 -188 49l-74 41q-49 25 -71 25q-28 0 -33 -27l-6 -33q-6 -35 -43 -35h-197q-31 0 -31 27v8l11 68q19 123 96.5 186.5t185.5 63.5q114 0 199 -49l74 -41
q53 -27 73 -27q15 0 21.5 6.5t9.5 22.5l6 32q6 35 43 35h195q30 0 30 -26z" />
    <glyph glyph-name="Umacron" unicode="&#x16a;" horiz-adv-x="1540" 
d="M1677 1487v-6l-157 -895q-25 -143 -71 -248t-108.5 -173.5t-150.5 -109.5t-188 -58t-230 -17q-85 0 -163 15.5t-150.5 52.5t-125.5 91.5t-84.5 138t-31.5 187.5q0 67 12 143l154 873q3 17 18 29t33 12h400q14 0 23 -10.5t9 -24.5v-6l-157 -895q-9 -43 -9 -76
q0 -68 34.5 -94.5t105.5 -26.5q85 0 130 40.5t66 156.5l158 895q3 17 17.5 29t31.5 12h399q15 0 25 -10.5t10 -24.5zM1516 1886v-6l-39 -213q-3 -17 -16.5 -29t-30.5 -12h-725q-15 0 -25 10t-10 25v6l39 213q3 17 16.5 29t30.5 12h725q15 0 25 -10t10 -25z" />
    <glyph glyph-name="umacron" unicode="&#x16b;" horiz-adv-x="1335" 
d="M1399 1208q46 0 39 -45l-199 -1122q-4 -20 -13.5 -30.5t-33.5 -10.5h-338q-42 0 -35 41l10 57q-87 -62 -157 -90t-183 -28q-85 0 -148 28t-99.5 77t-54 110.5t-17.5 134.5q0 64 12 125l125 708q3 19 17.5 32t33.5 13h369q46 0 37 -45l-119 -676q-8 -46 -8 -61
q0 -72 88 -72q55 0 119 31l137 778q7 45 49 45h369zM1339 1561v-7l-39 -213q-3 -17 -16.5 -29t-30.5 -12h-725q-15 0 -24.5 10t-9.5 25v6l38 213q3 17 17 29t31 12h725q15 0 24.5 -9.5t9.5 -24.5z" />
    <glyph glyph-name="Ubreve" unicode="&#x16c;" horiz-adv-x="1540" 
d="M1677 1487v-6l-157 -895q-25 -143 -71 -248t-108.5 -173.5t-150.5 -109.5t-188 -58t-230 -17q-85 0 -163 15.5t-150.5 52.5t-125.5 91.5t-84.5 138t-31.5 187.5q0 67 12 143l154 873q3 17 18 29t33 12h400q14 0 23 -10.5t9 -24.5v-6l-157 -895q-9 -43 -9 -76
q0 -68 34.5 -94.5t105.5 -26.5q85 0 130 40.5t66 156.5l158 895q3 17 17.5 29t31.5 12h399q15 0 25 -10.5t10 -24.5zM1083 1841q51 0 85.5 16t60.5 52q1 1 6 9t7 9.5t8.5 4.5t15.5 3h258q26 0 26 -18q0 -22 -16 -51q-140 -254 -467 -254q-323 0 -426 254q-10 30 -10 43
q0 26 28 26h256q18 0 25.5 -5t15.5 -21q20 -37 46.5 -52.5t80.5 -15.5z" />
    <glyph glyph-name="ubreve" unicode="&#x16d;" horiz-adv-x="1335" 
d="M1399 1208q46 0 39 -45l-199 -1122q-4 -20 -13.5 -30.5t-33.5 -10.5h-338q-42 0 -35 41l10 57q-87 -62 -157 -90t-183 -28q-85 0 -148 28t-99.5 77t-54 110.5t-17.5 134.5q0 64 12 125l125 708q3 19 17.5 32t33.5 13h369q46 0 37 -45l-119 -676q-8 -46 -8 -61
q0 -72 88 -72q55 0 119 31l137 778q7 45 49 45h369zM911 1516q52 0 86 15.5t60 51.5q1 2 6 9.5t7 9.5t8.5 5t15.5 3h258q26 0 26 -19q0 -22 -16 -51q-140 -254 -467 -254q-323 0 -426 254q-10 30 -10 43q0 27 28 27h256q18 0 25.5 -5.5t15.5 -21.5q20 -37 46 -52t81 -15z
" />
    <glyph glyph-name="Uring" unicode="&#x16e;" horiz-adv-x="1540" 
d="M1677 1487v-6l-157 -895q-25 -143 -71 -248t-108.5 -173.5t-150.5 -109.5t-188 -58t-230 -17q-85 0 -163 15.5t-150.5 52.5t-125.5 91.5t-84.5 138t-31.5 187.5q0 67 12 143l154 873q3 17 18 29t33 12h400q14 0 23 -10.5t9 -24.5v-6l-157 -895q-9 -43 -9 -76
q0 -68 34.5 -94.5t105.5 -26.5q85 0 130 40.5t66 156.5l158 895q3 17 17.5 29t31.5 12h399q15 0 25 -10.5t10 -24.5zM1311 1821q0 -109 -76.5 -185.5t-185.5 -76.5t-186 76.5t-77 185.5t77 185.5t186 76.5t185.5 -76.5t76.5 -185.5zM1126 1823q0 31 -22 53t-53 22
q-30 0 -52 -21.5t-22 -53.5t22 -54t52 -22q31 0 53 22.5t22 53.5z" />
    <glyph glyph-name="uring" unicode="&#x16f;" horiz-adv-x="1335" 
d="M1399 1208q46 0 39 -45l-199 -1122q-4 -20 -13.5 -30.5t-33.5 -10.5h-338q-42 0 -35 41l10 57q-87 -62 -157 -90t-183 -28q-85 0 -148 28t-99.5 77t-54 110.5t-17.5 134.5q0 64 12 125l125 708q3 19 17.5 32t33.5 13h369q46 0 37 -45l-119 -676q-8 -46 -8 -61
q0 -72 88 -72q55 0 119 31l137 778q7 45 49 45h369zM1159 1520q0 -109 -76.5 -186t-185.5 -77t-185.5 77t-76.5 186t76.5 185.5t185.5 76.5t185.5 -76.5t76.5 -185.5zM975 1522q0 31 -22.5 53t-53.5 22q-30 0 -52 -21.5t-22 -53.5t22 -54t52 -22q31 0 53.5 22.5t22.5 53.5z
" />
    <glyph glyph-name="Uhungarumlaut" unicode="&#x170;" horiz-adv-x="1540" 
d="M1677 1487v-6l-157 -895q-25 -143 -71 -248t-108.5 -173.5t-150.5 -109.5t-188 -58t-230 -17q-85 0 -163 15.5t-150.5 52.5t-125.5 91.5t-84.5 138t-31.5 187.5q0 67 12 143l154 873q3 17 18 29t33 12h400q14 0 23 -10.5t9 -24.5v-6l-157 -895q-9 -43 -9 -76
q0 -68 34.5 -94.5t105.5 -26.5q85 0 130 40.5t66 156.5l158 895q3 17 17.5 29t31.5 12h399q15 0 25 -10.5t10 -24.5zM1817 1909q0 -9 -13 -19l-309 -243q-23 -18 -37 -20q-7 -1 -18 -1h-307q-17 0 -17 12q0 11 12 23l224 229q14 14 20 19t16.5 8.5t26.5 3.5h379q9 0 16 -3.5
t7 -8.5zM1243 1909q0 -10 -12 -19l-309 -243q-23 -18 -40 -20q-7 -1 -16 -1h-307q-16 0 -16 12q0 11 12 23l223 229q19 19 30 25t34 6h379q22 0 22 -12z" />
    <glyph glyph-name="uhungarumlaut" unicode="&#x171;" horiz-adv-x="1335" 
d="M1399 1208q46 0 39 -45l-199 -1122q-4 -20 -13.5 -30.5t-33.5 -10.5h-338q-42 0 -35 41l10 57q-87 -62 -157 -90t-183 -28q-85 0 -148 28t-99.5 77t-54 110.5t-17.5 134.5q0 64 12 125l125 708q3 19 17.5 32t33.5 13h369q46 0 37 -45l-119 -676q-8 -46 -8 -61
q0 -72 88 -72q55 0 119 31l137 778q7 45 49 45h369zM1714 1583q0 -9 -12 -18l-309 -244q-23 -18 -40 -20q-7 -1 -16 -1h-307q-16 0 -16 13q0 10 12 22l223 230q19 19 30 24.5t34 5.5h379q22 0 22 -12zM1141 1583q0 -8 -13 -18l-309 -244q-23 -18 -37 -20q-7 -1 -18 -1h-307
q-17 0 -17 13q0 9 13 22l223 230q19 19 29.5 24.5t33.5 5.5h379q9 0 16 -3.5t7 -8.5z" />
    <glyph glyph-name="Uogonek" unicode="&#x172;" horiz-adv-x="1540" 
d="M1677 1487v-6l-157 -895q-26 -147 -70 -247.5t-107 -168t-161 -125.5l-150 -88q-55 -32 -75.5 -55.5t-20.5 -48.5q0 -19 14.5 -25t53.5 -6q34 0 88 7t61 7q13 0 16 -4.5t0 -19.5l-26 -150v-2q-3 -19 -27 -31q-33 -13 -114 -27t-166 -14q-134 0 -203.5 47.5t-69.5 133.5
q0 71 35 120.5t109 92.5q-78 6 -148 25.5t-133.5 57.5t-109 92t-72.5 133t-27 175q0 67 12 143l154 873q3 17 18 29t33 12h400q14 0 23 -10.5t9 -24.5v-6l-157 -895q-9 -43 -9 -76q0 -68 34.5 -94.5t105.5 -26.5q85 0 130 40.5t66 156.5l158 895q3 17 17.5 29t31.5 12h399
q15 0 25 -10.5t10 -24.5z" />
    <glyph glyph-name="uogonek" unicode="&#x173;" horiz-adv-x="1335" 
d="M1438 1169v-6l-199 -1122q-6 -31 -43 -41l-139 -43q-96 -30 -96 -104q0 -19 14 -25t53 -6q34 0 88.5 7t61.5 7q20 0 16 -24l-27 -150v-2q-2 -11 -7 -17.5t-19 -13.5q-33 -13 -114.5 -27t-166.5 -14q-134 0 -203 47.5t-69 133.5q0 80 43.5 132.5t140.5 102.5l43 23l4 14
l10 57q-87 -62 -157 -90t-183 -28q-85 0 -148 28t-99.5 77t-54 110.5t-17.5 134.5q0 64 12 125l125 708q3 19 17.5 32t33.5 13h369q17 0 27 -10.5t10 -26.5v-8l-125 -708q-2 -8 -2 -25q0 -38 24 -57t64 -19q55 0 119 31l137 778q3 19 17 32t32 13h369q17 0 28 -11t11 -28z
" />
    <glyph glyph-name="Wcircumflex" unicode="&#x174;" horiz-adv-x="1935" 
d="M2142 1489q0 -7 -4 -19l-426 -1341q-27 -83 -72 -116t-120 -33h-211q-75 0 -104.5 27.5t-41.5 105.5l-76 467q-3 22 -14 22q-9 0 -22 -22l-240 -467q-38 -74 -80 -103.5t-115 -29.5h-210q-140 0 -140 139v6v4l47 1341q3 52 54 52h376q39 0 39 -41v-4l-43 -719v-10
q0 -15 11 -15q8 0 22 25l141 272q23 44 49 61t78 17h226q53 0 74.5 -17t27.5 -61l43 -272q0 -2 1 -7t1.5 -8.5t3 -6.5t6.5 -3q14 0 21 25l211 723q11 41 45 41h407q17 0 26 -9.5t9 -23.5zM1702 1645q0 -19 -21 -19h-282q-15 0 -24 3t-12 6t-11 12l-82 100l-115 -100
q-10 -9 -15 -12.5t-15 -6t-25 -2.5h-307q-17 0 -17 12q0 11 12 23l211 229q18 20 29 25.5t35 5.5h450q24 0 34.5 -6t21.5 -25l129 -229q4 -6 4 -16z" />
    <glyph glyph-name="wcircumflex" unicode="&#x175;" horiz-adv-x="1839" 
d="M1976 1208q18 0 24.5 -6t0.5 -24l-371 -1028q-18 -49 -35.5 -80.5t-33 -50t-40.5 -27t-46 -10.5t-60 -2h-192q-85 0 -114 29t-46 130l-49 295q-3 19 -15 19q-13 0 -22 -19l-152 -295q-52 -101 -92 -130t-125 -29h-192q-39 0 -59 2t-41.5 10.5t-31 27t-15.5 50t-7 80.5
l-10 1028q0 30 37 30h407q16 0 19.5 -7t3.5 -25l-29 -611q0 -18 12 -18t21 18l149 283q24 44 45 59t62 15h205q41 0 57.5 -15.5t24.5 -58.5l51 -283q4 -26 16 -26q8 0 17 26l184 611q11 32 35 32h407zM1581 1319q0 -19 -20 -19h-283q-15 0 -24 3t-12 6t-11 12l-82 100
l-115 -100q-10 -9 -15 -12.5t-15 -6t-25 -2.5h-307q-17 0 -17 13q0 9 13 22l211 230q18 19 28.5 24.5t34.5 5.5h451q25 0 34.5 -5.5t20.5 -24.5l129 -230q4 -6 4 -16z" />
    <glyph glyph-name="Ycircumflex" unicode="&#x176;" horiz-adv-x="1452" 
d="M1688 1499q0 -7 -7 -18l-424 -705q-89 -149 -186 -188l-96 -547q-3 -17 -18 -29t-33 -12h-400q-15 0 -23.5 9.5t-8.5 23.5v8l96 547q-83 38 -121 188l-176 705v8q0 14 9 23.5t24 9.5h432q27 0 35 -41l83 -508q3 -12 11 -12t14 12l262 508q21 41 51 41h451q11 0 18 -7
t7 -16zM1448 1645q0 -19 -21 -19h-282q-15 0 -24 3t-12 6t-11 12l-82 100l-115 -100q-10 -9 -15 -12.5t-15 -6t-25 -2.5h-307q-17 0 -17 12q0 10 13 23l210 229q18 20 29 25.5t35 5.5h451q24 0 34 -6t21 -25l129 -229q4 -6 4 -16z" />
    <glyph glyph-name="ycircumflex" unicode="&#x177;" horiz-adv-x="1343" 
d="M1487 1208q48 0 29 -43l-566 -1228q-32 -70 -65 -120.5t-81 -98t-106 -76.5t-139 -46.5t-182 -17.5q-67 0 -163 14t-138 29q-27 9 -34.5 16.5t-4.5 24.5l41 234q3 16 5.5 24t15 15.5t34.5 5.5q215 -15 305 -15q69 0 90 47l31 70h-27q-32 0 -56.5 6t-49.5 21.5t-41.5 49
t-22.5 83.5l-124 962q-3 24 9.5 33.5t43.5 9.5h391q33 0 33 -43l26 -639q0 -28 15 -28h14l248 667q15 43 53 43h416zM1337 1319q0 -19 -20 -19h-283q-15 0 -24 3t-12 6t-11 12l-82 100l-114 -100q-24 -21 -56 -21h-307q-16 0 -16 13q0 10 12 22l211 230q18 19 28.5 24.5
t34.5 5.5h451q25 0 34.5 -5.5t20.5 -24.5l129 -230q4 -6 4 -16z" />
    <glyph glyph-name="Ydieresis" unicode="&#x178;" horiz-adv-x="1452" 
d="M1688 1499q0 -7 -7 -18l-424 -705q-89 -149 -186 -188l-96 -547q-3 -17 -18 -29t-33 -12h-400q-15 0 -23.5 9.5t-8.5 23.5v8l96 547q-83 38 -121 188l-176 705v8q0 14 9 23.5t24 9.5h432q27 0 35 -41l83 -508q3 -12 11 -12t14 12l262 508q21 41 51 41h451q11 0 18 -7
t7 -16zM1501 1884v-6l-37 -209q-3 -18 -19.5 -30.5t-35.5 -12.5h-285q-17 0 -28 11t-11 26v6l37 209q3 18 19 30.5t35 12.5h284q17 0 29 -11t12 -26zM1030 1884v-6l-37 -209q-3 -18 -19.5 -30.5t-35.5 -12.5h-285q-17 0 -28 11t-11 26v6l37 209q3 18 19 30.5t35 12.5h284
q17 0 29 -11t12 -26z" />
    <glyph glyph-name="Zacute" unicode="&#x179;" horiz-adv-x="1288" 
d="M1438 1489v-8l-49 -287q-9 -50 -68 -121l-510 -618q-12 -15 -12 -27q0 -14 24 -14h394q15 0 24.5 -10t9.5 -25v-6l-57 -332q-3 -17 -18 -29t-33 -12h-1000q-15 0 -23.5 9.5t-8.5 23.5v8l45 266q9 50 61 113l524 645q15 18 15 29q0 14 -23 14h-389q-15 0 -24 9.5t-9 23.5
v8l58 332q3 17 17.5 29t31.5 12h987q15 0 24 -9.5t9 -23.5zM1409 1909q0 -10 -12 -19l-310 -243q-23 -18 -37 -20q-7 -1 -18 -1h-315q-17 0 -17 12q0 10 13 23l219 229q14 14 20 19t16.5 8.5t26.5 3.5h391q9 0 16 -3.5t7 -8.5z" />
    <glyph glyph-name="zacute" unicode="&#x17a;" horiz-adv-x="1161" 
d="M1229 1208q42 0 35 -41l-39 -219q-6 -34 -18 -54t-54 -65l-395 -432q-15 -19 -15 -24q0 -15 21 -15h323q16 0 24 -6t5 -26l-49 -285q-7 -41 -49 -41h-875q-38 0 -32 41l36 215q6 33 16 53t36 49l419 455q15 19 15 25q0 12 -21 12h-317q-14 0 -22 9t-5 24l51 284
q7 41 48 41h862zM1346 1583q0 -8 -13 -18l-309 -244q-23 -18 -37 -20q-7 -1 -18 -1h-316q-16 0 -16 13q0 10 12 22l219 230q19 19 30 24.5t34 5.5h391q9 0 16 -3.5t7 -8.5z" />
    <glyph glyph-name="Zdotaccent" unicode="&#x17b;" horiz-adv-x="1288" 
d="M1438 1489v-8l-49 -287q-9 -50 -68 -121l-510 -618q-12 -15 -12 -27q0 -14 24 -14h394q15 0 24.5 -10t9.5 -25v-6l-57 -332q-3 -17 -18 -29t-33 -12h-1000q-15 0 -23.5 9.5t-8.5 23.5v8l45 266q9 50 61 113l524 645q15 18 15 29q0 14 -23 14h-389q-15 0 -24 9.5t-9 23.5
v8l58 332q3 17 17.5 29t31.5 12h987q15 0 24 -9.5t9 -23.5zM1200 1911v-6l-43 -238q-3 -17 -17.5 -29t-31.5 -12h-356q-15 0 -26 10t-11 25v6l43 238q3 17 17.5 29t31.5 12h356q15 0 26 -10t11 -25z" />
    <glyph glyph-name="zdotaccent" unicode="&#x17c;" horiz-adv-x="1161" 
d="M1229 1208q42 0 35 -41l-39 -219q-6 -34 -18 -54t-54 -65l-395 -432q-15 -19 -15 -24q0 -15 21 -15h323q16 0 24 -6t5 -26l-49 -285q-7 -41 -49 -41h-875q-38 0 -32 41l36 215q6 33 16 53t36 49l419 455q15 19 15 25q0 12 -21 12h-317q-14 0 -22 9t-5 24l51 284
q7 41 48 41h862zM1083 1583v-6l-43 -238q-3 -17 -17.5 -29t-31.5 -12h-356q-15 0 -26 10t-11 25v6l43 238q3 17 17.5 29t31.5 12h357q15 0 25.5 -10t10.5 -25z" />
    <glyph glyph-name="Zcaron" unicode="&#x17d;" horiz-adv-x="1288" 
d="M1438 1489v-8l-49 -287q-9 -50 -68 -121l-510 -618q-12 -15 -12 -27q0 -14 24 -14h394q15 0 24.5 -10t9.5 -25v-6l-57 -332q-3 -17 -18 -29t-33 -12h-1000q-15 0 -23.5 9.5t-8.5 23.5v8l45 266q9 50 61 113l524 645q15 18 15 29q0 14 -23 14h-389q-15 0 -24 9.5t-9 23.5
v8l58 332q3 17 17.5 29t31.5 12h987q15 0 24 -9.5t9 -23.5zM1481 1909q0 -10 -13 -23l-221 -229q-19 -19 -30.5 -25t-34.5 -6h-451q-23 0 -32 6t-21 25l-143 229q-7 10 -7 17q0 18 23 18h307q22 0 30.5 -4t18.5 -16l82 -93l115 93q2 1 6 4.5t5.5 4.5t5 3.5t5.5 3t5.5 2
t7 1.5t8 0.5t10.5 0.5h307q17 0 17 -12z" />
    <glyph glyph-name="zcaron" unicode="&#x17e;" horiz-adv-x="1161" 
d="M1264 1174v-7l-39 -219q-6 -34 -18 -54t-54 -65l-395 -432q-15 -19 -15 -24q0 -15 21 -15h323q12 0 20.5 -7t8.5 -19v-6l-49 -285q-3 -17 -17.5 -29t-31.5 -12h-875q-15 0 -23.5 9.5t-8.5 23.5v8l36 215q6 33 16 53t36 49l419 455q15 19 15 25q0 12 -21 12h-317
q-12 0 -19.5 7.5t-7.5 19.5v6l51 284q3 17 17 29t31 12h862q15 0 25 -9.5t10 -24.5zM1343 1583q0 -10 -12 -22l-221 -230q-19 -19 -31 -25t-35 -6h-450q-23 0 -32 6t-21 25l-144 230q-6 9 -6 16q0 18 23 18h307q22 0 30.5 -4t18.5 -16l82 -92l115 92q2 1 6 4.5t5.5 4.5
t5 3.5t5.5 3t5.5 2t7 1.5t8 0.5t10.5 0.5h307q16 0 16 -12z" />
    <glyph glyph-name="florin" unicode="&#x192;" 
d="M1489 1587q0 -8 -2 -14l-49 -223q-4 -19 -19.5 -31t-34.5 -12h-147q-74 0 -96 -13.5t-31 -56.5l-59 -264h258q15 0 24.5 -9.5t9.5 -23.5q0 -2 -1 -5t-1 -5l-57 -248q-5 -19 -20 -32t-33 -13h-258l-142 -617q-22 -94 -63 -165t-92 -115.5t-118 -72t-134 -38t-145 -10.5
q-147 0 -250 23q-35 8 -35 28q0 9 2 15l49 223q5 19 19.5 31t33.5 12h148q74 0 96 13t31 56l141 617h-256q-15 0 -25 10.5t-10 24.5q0 2 1 5t1 5l58 248q5 19 19.5 31t33.5 12h256l59 264q21 94 62 165t92 115.5t118 72t134 38t145 10.5q153 0 252 -22q35 -8 35 -29z" />
    <glyph glyph-name="AEacute" unicode="&#x1fc;" horiz-adv-x="1982" 
d="M2130 1489v-8l-57 -332q-3 -17 -18 -29t-32 -12h-438l-26 -156h438q15 0 24 -9t9 -23v-9l-50 -288q-3 -17 -17.5 -29t-31.5 -12h-438l-23 -123q-2 -8 -2 -25q0 -23 13.5 -32t46.5 -9h370q15 0 24 -9.5t9 -23.5v-8l-53 -309q-3 -17 -17 -28t-32 -13q-189 -22 -375 -22
q-71 0 -128.5 6t-119 24.5t-105.5 49.5t-76 84.5t-42 125.5h-356l-78 -229q-6 -18 -20 -29.5t-31 -11.5h-426q-27 0 -27 25q0 4 4 16l457 1216q56 149 175.5 207t319.5 58h1096q15 0 24 -9.5t9 -23.5zM1102 1108h-160q-15 0 -24 -10t-17 -33l-143 -418h264zM1903 1909
q0 -9 -13 -19l-309 -243q-23 -18 -37 -20q-7 -1 -18 -1h-316q-16 0 -16 12q0 11 12 23l219 229q19 19 30 25t34 6h391q9 0 16 -3.5t7 -8.5z" />
    <glyph glyph-name="aeacute" unicode="&#x1fd;" horiz-adv-x="1849" 
d="M1905 788q0 -59 -13 -135l-22 -125q-3 -19 -17.5 -31t-33.5 -12h-619q-4 -32 -4 -45q0 -49 34.5 -67.5t123.5 -18.5q202 0 387 15h2h6q33 0 33 -25q0 -2 -1 -6t-1 -6l-39 -215q-4 -25 -14.5 -37t-34.5 -23q-169 -77 -439 -77q-64 0 -140.5 18t-125.5 45
q-221 -63 -383 -63q-232 0 -351.5 88.5t-119.5 232.5v18q0 32 4 50l4 20q14 69 42 122t71 88.5t92 58.5t115.5 35.5t131 17t148.5 4.5h50l6 45q2 8 2 22q0 44 -21 58t-65 14q-121 0 -367 -12h-2q-13 0 -20 11t-7 24v8l41 233q3 19 14.5 30.5t37.5 20.5q71 26 174 43t194 17
q124 0 203.5 -23t138.5 -69q76 47 147 69.5t183 22.5q116 0 204.5 -33t142.5 -93t81 -139.5t27 -175.5zM1481 788q0 97 -97 97q-64 0 -95.5 -40.5t-47.5 -129.5h232q8 54 8 73zM764 485h-64q-111 0 -131 -96l-4 -20v-9v-12q0 -33 24.5 -45t76.5 -12q23 0 63 4zM1673 1583
q0 -9 -12 -18l-309 -244q-23 -18 -40 -20q-7 -1 -16 -1h-315q-16 0 -16 13q0 10 12 22l219 230q19 19 30 24.5t34 5.5h391q22 0 22 -12z" />
    <glyph glyph-name="Oslashacute" unicode="&#x1fe;" horiz-adv-x="1466" 
d="M1704 1526q0 -13 -10 -23l-197 -221q53 -109 53 -260q0 -74 -16 -172l-31 -178q-119 -692 -774 -692q-191 0 -326 81l-38 -43q-33 -38 -62 -38h-254q-18 0 -18 16q0 12 10 22l199 222q-56 115 -56 262q0 66 17 170l30 178q120 692 775 692q193 0 327 -80l37 41
q34 39 62 39h254q18 0 18 -16zM1008 1098q-30 18 -78 18q-88 0 -137 -61t-72 -205l-14 -90zM1030 760l-303 -336q30 -18 78 -18q86 0 133.5 60t75.5 206zM1483 1909q0 -9 -13 -19l-309 -243q-23 -18 -37 -20q-7 -1 -18 -1h-315q-17 0 -17 12q0 11 12 23l220 229q14 14 20 19
t16.5 8.5t26.5 3.5h391q9 0 16 -3.5t7 -8.5z" />
    <glyph glyph-name="oslashacute" unicode="&#x1ff;" horiz-adv-x="1269" 
d="M1423 1268q0 -15 -12 -27l-162 -176q78 -111 78 -268q0 -57 -14 -146l-17 -94q-22 -128 -64.5 -226.5t-100.5 -164.5t-136 -108t-166.5 -60t-197.5 -18q-188 0 -303 77l-99 -108q-19 -21 -36 -21h-119q-15 0 -15 13t13 26l164 178q-78 110 -78 273q0 66 12 139l16 94
q27 158 85 270.5t145 179.5t194 97.5t242 30.5q184 0 305 -76l96 107q18 20 37 20h119q14 0 14 -12zM852 821q-19 31 -68 31q-110 0 -143 -201l-12 -76zM854 633l-223 -246q19 -31 67 -31q56 0 90.5 43.5t53.5 157.5zM1346 1583q0 -8 -13 -18l-309 -244q-23 -18 -37 -20
q-7 -1 -18 -1h-316q-16 0 -16 13q0 10 12 22l219 230q19 19 30 24.5t34 5.5h391q9 0 16 -3.5t7 -8.5z" />
    <glyph glyph-name="uni0218" unicode="&#x218;" horiz-adv-x="1277" 
d="M1413 1446v-2l-53 -305q-3 -17 -15.5 -29t-27.5 -12h-4q-318 30 -494 30q-49 0 -49 -38q0 -21 66 -60l262 -153q101 -60 148.5 -147t47.5 -185q0 -115 -38 -210t-103.5 -160t-154 -109.5t-188 -65t-208.5 -20.5q-238 0 -428 61q-37 14 -37 35v6l53 305q3 17 17 29t31 12
h4q16 -2 82 -9t117.5 -12t119.5 -9.5t115 -4.5q38 0 62 18t24 54q0 25 -45 55l-277 178q-94 61 -136 152t-42 190q0 111 33 198t90 143.5t138.5 93t172 52t197.5 15.5q130 0 275.5 -17.5t211.5 -39.5q33 -11 33 -35v-4zM520 -90h299q23 0 23 -19q0 -8 -6 -20l-156 -221
q-23 -41 -51 -41h-230q-26 0 -26 18q0 7 4 23l94 221q16 39 49 39z" />
    <glyph glyph-name="uni0219" unicode="&#x219;" horiz-adv-x="1105" 
d="M1161 1174q23 -6 30.5 -14.5t4.5 -29.5l-47 -266q-1 -11 -2.5 -16.5t-4.5 -13.5t-8 -9.5t-13.5 -4.5t-20.5 1q-59 10 -182 23.5t-177 13.5q-47 0 -47 -22q0 -12 7.5 -20t37.5 -25l162 -86q66 -35 108.5 -73t62.5 -79.5t27 -78t7 -83.5q0 -108 -43 -188t-124 -128.5
t-188.5 -71.5t-244.5 -23q-224 0 -373 53q-20 7 -27 17.5t-4 27.5l45 256q5 27 18.5 39t43.5 8q259 -39 348 -39q22 0 36.5 2t29 13t14.5 32q0 20 -39 41l-182 100q-183 103 -183 291q0 408 547 408q192 0 381 -55zM430 -90h299q23 0 23 -19q0 -6 -7 -20l-155 -221
q-23 -41 -51 -41h-230q-26 0 -26 18q0 7 4 23l94 221q16 39 49 39z" />
    <glyph glyph-name="uni021A" unicode="&#x21a;" horiz-adv-x="1232" 
d="M1442 1487v-6l-53 -312q-3 -17 -18.5 -29t-33.5 -12h-278l-191 -1087q-3 -17 -17.5 -29t-31.5 -12h-399q-15 0 -24 9.5t-9 23.5v8l191 1087h-287q-15 0 -24 9.5t-9 23.5v8l53 312q3 17 17.5 29t31.5 12h1047q15 0 25 -10t10 -25zM459 -90h299q22 0 22 -19q0 -8 -6 -20
l-156 -221q-23 -41 -51 -41h-229q-27 0 -27 18q0 7 4 23l95 221q16 39 49 39z" />
    <glyph glyph-name="uni021B" unicode="&#x21b;" horiz-adv-x="901" 
d="M872 1208h140q28 0 37.5 -9t5.5 -34l-43 -247q-7 -46 -51 -46h-148l-88 -501q-4 -24 -4 -31q0 -16 8 -22.5t29 -6.5h98q24 0 31.5 -7.5t3.5 -35.5l-39 -223q-3 -21 -12.5 -31t-38.5 -14q-123 -20 -221 -20q-59 0 -111.5 13.5t-102 44.5t-79 92t-29.5 146q0 41 10 103
l86 493l-112 21q-13 2 -21.5 6t-13.5 13.5t-2 25.5l39 227q7 43 53 43h117l28 168q3 20 14 29.5t40 13.5l381 64q21 3 30 -9.5t6 -33.5zM377 -92h299q22 0 22 -19q0 -8 -6 -20l-155 -221q-23 -41 -52 -41h-229q-27 0 -27 18q0 7 4 23l95 221q16 39 49 39z" />
    <glyph glyph-name="circumflex" unicode="&#x2c6;" horiz-adv-x="1024" 
d="M1206 1319q0 -19 -20 -19h-283q-15 0 -24 3t-12 6t-11 12l-82 100l-115 -100q-10 -9 -15 -12.5t-15 -6t-25 -2.5h-307q-16 0 -16 13q0 10 12 22l211 230q18 19 28.5 24.5t34.5 5.5h451q24 0 34 -5.5t21 -24.5l129 -230q4 -6 4 -16z" />
    <glyph glyph-name="caron" unicode="&#x2c7;" horiz-adv-x="1024" 
d="M1266 1583q0 -9 -13 -22l-221 -230q-19 -19 -30.5 -25t-34.5 -6h-451q-23 0 -32 6t-21 25l-144 230q-6 9 -6 16q0 18 23 18h307q22 0 30.5 -4t18.5 -16l82 -92l115 92q2 1 6 4.5t5.5 4.5t5 3.5t5.5 3t5.5 2t7 1.5t8 0.5t10.5 0.5h307q17 0 17 -12z" />
    <glyph glyph-name="uni02C9" unicode="&#x2c9;" horiz-adv-x="1024" 
d="M1190 1561v-7l-39 -213q-3 -17 -16.5 -29t-30.5 -12h-725q-15 0 -25 10t-10 25v6l39 213q3 17 16.5 29t30.5 12h725q15 0 25 -9.5t10 -24.5z" />
    <glyph glyph-name="breve" unicode="&#x2d8;" horiz-adv-x="1024" 
d="M776 1501q51 0 85.5 16t60.5 52q2 2 6 9.5t6.5 9.5t8.5 4.5t15 2.5h259q26 0 26 -18q0 -22 -16 -51q-140 -254 -467 -254q-323 0 -426 254q-10 30 -10 43q0 26 28 26h256q18 0 25.5 -5t15.5 -21q20 -37 46.5 -52.5t80.5 -15.5z" />
    <glyph glyph-name="dotaccent" unicode="&#x2d9;" horiz-adv-x="1024" 
d="M1010 1573v-6l-43 -238q-3 -17 -17.5 -29t-31.5 -12h-357q-15 0 -26 10t-11 25v6l43 238q3 17 17.5 29t31.5 12h357q15 0 26 -10t11 -25z" />
    <glyph glyph-name="ring" unicode="&#x2da;" horiz-adv-x="1024" 
d="M1020 1470q0 -109 -76.5 -185.5t-185.5 -76.5t-185.5 76.5t-76.5 185.5t76.5 186t185.5 77t185.5 -77t76.5 -186zM836 1473q0 31 -22.5 53t-53.5 22q-30 0 -52 -21.5t-22 -53.5t22 -54t52 -22q31 0 53.5 22.5t22.5 53.5z" />
    <glyph glyph-name="ogonek" unicode="&#x2db;" horiz-adv-x="1024" 
d="M682 -338v-2q-3 -19 -27 -31q-33 -13 -114 -27t-166 -14q-134 0 -203.5 47.5t-69.5 133.5q0 80 44 132.5t141 102.5l108 57q23 15 62 15h262q11 0 14.5 -5.5t0 -13t-12.5 -12.5l-150 -88q-55 -32 -75.5 -55.5t-20.5 -48.5q0 -19 14.5 -25t53.5 -6q34 0 88 7t61 7
q14 0 17 -4.5t0 -19.5z" />
    <glyph glyph-name="tilde" unicode="&#x2dc;" horiz-adv-x="1024" 
d="M1233 1597v-8l-12 -82q-18 -118 -94.5 -176.5t-194.5 -58.5q-104 0 -189 49l-73 41q-47 24 -72 24q-28 0 -33 -26l-6 -33q-6 -35 -43 -35h-197q-30 0 -30 27v8l10 68q19 122 97 186t186 64q112 0 198 -50l74 -41q51 -26 74 -26q14 0 20.5 6t9.5 22l7 33q6 35 43 35h194
q31 0 31 -27z" />
    <glyph glyph-name="hungarumlaut" unicode="&#x2dd;" horiz-adv-x="1024" 
d="M1401 1583q0 -9 -12 -18l-310 -244q-23 -18 -37 -20q-7 -1 -18 -1h-307q-17 0 -17 13q0 9 13 22l223 230q19 19 29.5 24.5t33.5 5.5h379q9 0 16 -3.5t7 -8.5zM827 1583q0 -9 -12 -18l-309 -244q-23 -18 -37 -20q-7 -1 -18 -1h-308q-16 0 -16 13q0 10 12 22l223 230
q19 19 30 24.5t34 5.5h379q22 0 22 -12z" />
    <glyph glyph-name="uni03A9" unicode="&#x3a9;" horiz-adv-x="1501" 
d="M1542 809q-33 -192 -117.5 -299t-244.5 -170l-2 -12h215q30 0 26 -29l-47 -270q-4 -29 -33 -29h-559q-13 0 -21 7.5t-5 21.5l84 481q3 15 8.5 20.5t19.5 10.5q66 17 102.5 82.5t59.5 193.5l19 103q8 62 8 79q0 72 -33 104t-102 32q-85 0 -131.5 -48.5t-67.5 -166.5
l-19 -103q-16 -88 -16 -141q0 -115 78 -135q22 -6 16 -31l-84 -481q-6 -29 -34 -29h-560q-31 0 -26 29l47 270q4 29 37 29h219l2 12q-201 90 -201 375q0 70 17 174l18 98q27 156 90 266.5t161 175.5t220 94t281 29q302 0 455 -122.5t153 -362.5q0 -80 -14 -160z" />
    <glyph glyph-name="uni03BC" unicode="&#x3bc;" horiz-adv-x="1335" 
d="M1438 1169v-6l-189 -1069q-5 -28 -24 -44t-70 -27q-198 -43 -489 -43q-54 0 -107 6l-59 -332q-3 -17 -16.5 -29t-30.5 -12h-377q-15 0 -25 10t-10 25v6l266 1509q3 19 17.5 32t33.5 13h367q17 0 27 -10.5t10 -26.5v-8l-129 -735q0 -3 -1 -8t-1 -8q0 -31 25.5 -48.5
t72.5 -17.5q65 0 109 6l143 811q3 19 17 32t32 13h369q17 0 28 -11t11 -28z" />
    <glyph glyph-name="pi" unicode="&#x3c0;" horiz-adv-x="1587" 
d="M1620 801h-4q40 0 45 47l53 301q8 47 -33 47h-1359q-15 0 -24.5 -3.5t-14.5 -11.5t-7 -14.5t-4 -17.5l-53 -301q-6 -15 -0.5 -31t29.5 -16h106l-131 -752q-8 -49 41 -49h379q50 0 59 49l132 750h196l-61 -346q-15 -82 -15 -158q0 -159 84 -243.5t275 -84.5q91 0 166 10
q20 3 28 13t11 33l38 210q4 27 -6 35t-34 8h-17q-35 0 -52 10.5t-17 35.5q0 20 6 57l73 422h111z" />
    <glyph glyph-name="Wgrave" unicode="&#x1e80;" horiz-adv-x="1935" 
d="M2142 1489q0 -7 -4 -19l-426 -1341q-27 -83 -72 -116t-120 -33h-211q-75 0 -104.5 27.5t-41.5 105.5l-76 467q-3 22 -14 22q-9 0 -22 -22l-240 -467q-38 -74 -80 -103.5t-115 -29.5h-210q-140 0 -140 139v6v4l47 1341q3 52 54 52h376q39 0 39 -41v-4l-43 -719v-10
q0 -15 11 -15q8 0 22 25l141 272q23 44 49 61t78 17h226q53 0 74.5 -17t27.5 -61l43 -272q0 -2 1 -7t1.5 -8.5t3 -6.5t6.5 -3q14 0 21 25l211 723q11 41 45 41h407q17 0 26 -9.5t9 -23.5zM1430 1645q0 -19 -21 -19h-291q-15 0 -24 3t-12 6t-11 12l-223 243q-6 9 -6 15
q0 16 24 16h363q24 0 34 -6.5t21 -24.5l141 -229q5 -8 5 -16z" />
    <glyph glyph-name="wgrave" unicode="&#x1e81;" horiz-adv-x="1839" 
d="M1976 1208q18 0 24.5 -6t0.5 -24l-371 -1028q-18 -49 -35.5 -80.5t-33 -50t-40.5 -27t-46 -10.5t-60 -2h-192q-85 0 -114 29t-46 130l-49 295q-3 19 -15 19q-13 0 -22 -19l-152 -295q-52 -101 -92 -130t-125 -29h-192q-39 0 -59 2t-41.5 10.5t-31 27t-15.5 50t-7 80.5
l-10 1028q0 30 37 30h407q16 0 19.5 -7t3.5 -25l-29 -611q0 -18 12 -18t21 18l149 283q24 44 45 59t62 15h205q41 0 57.5 -15.5t24.5 -58.5l51 -283q4 -26 16 -26q8 0 17 26l184 611q11 32 35 32h407zM1323 1319q0 -19 -20 -19h-291q-15 0 -24 3t-12 6t-11 12l-224 244
q-6 9 -6 14q0 16 25 16h362q24 0 34.5 -6t21.5 -24l141 -230q4 -6 4 -16z" />
    <glyph glyph-name="Wacute" unicode="&#x1e82;" horiz-adv-x="1935" 
d="M2142 1489q0 -7 -4 -19l-426 -1341q-27 -83 -72 -116t-120 -33h-211q-75 0 -104.5 27.5t-41.5 105.5l-76 467q-3 22 -14 22q-9 0 -22 -22l-240 -467q-38 -74 -80 -103.5t-115 -29.5h-210q-140 0 -140 139v6v4l47 1341q3 52 54 52h376q39 0 39 -41v-4l-43 -719v-10
q0 -15 11 -15q8 0 22 25l141 272q23 44 49 61t78 17h226q53 0 74.5 -17t27.5 -61l43 -272q0 -2 1 -7t1.5 -8.5t3 -6.5t6.5 -3q14 0 21 25l211 723q11 41 45 41h407q17 0 26 -9.5t9 -23.5zM1700 1909q0 -10 -12 -19l-310 -243q-23 -18 -37 -20q-7 -1 -18 -1h-315
q-17 0 -17 12q0 10 13 23l219 229q14 14 20 19t16.5 8.5t26.5 3.5h391q9 0 16 -3.5t7 -8.5z" />
    <glyph glyph-name="wacute" unicode="&#x1e83;" horiz-adv-x="1839" 
d="M1976 1208q18 0 24.5 -6t0.5 -24l-371 -1028q-18 -49 -35.5 -80.5t-33 -50t-40.5 -27t-46 -10.5t-60 -2h-192q-85 0 -114 29t-46 130l-49 295q-3 19 -15 19q-13 0 -22 -19l-152 -295q-52 -101 -92 -130t-125 -29h-192q-39 0 -59 2t-41.5 10.5t-31 27t-15.5 50t-7 80.5
l-10 1028q0 30 37 30h407q16 0 19.5 -7t3.5 -25l-29 -611q0 -18 12 -18t21 18l149 283q24 44 45 59t62 15h205q41 0 57.5 -15.5t24.5 -58.5l51 -283q4 -26 16 -26q8 0 17 26l184 611q11 32 35 32h407zM1655 1583q0 -8 -13 -18l-309 -244q-23 -18 -37 -20q-7 -1 -18 -1h-315
q-17 0 -17 13q0 10 12 22l220 230q19 19 29.5 24.5t33.5 5.5h391q9 0 16 -3.5t7 -8.5z" />
    <glyph glyph-name="Wdieresis" unicode="&#x1e84;" horiz-adv-x="1935" 
d="M2142 1489q0 -7 -4 -19l-426 -1341q-27 -83 -72 -116t-120 -33h-211q-75 0 -104.5 27.5t-41.5 105.5l-76 467q-3 22 -14 22q-9 0 -22 -22l-240 -467q-38 -74 -80 -103.5t-115 -29.5h-210q-140 0 -140 139v6v4l47 1341q3 52 54 52h376q39 0 39 -41v-4l-43 -719v-10
q0 -15 11 -15q8 0 22 25l141 272q23 44 49 61t78 17h226q53 0 74.5 -17t27.5 -61l43 -272q0 -2 1 -7t1.5 -8.5t3 -6.5t6.5 -3q14 0 21 25l211 723q11 41 45 41h407q17 0 26 -9.5t9 -23.5zM1702 1884v-6l-37 -209q-3 -18 -19.5 -30.5t-35.5 -12.5h-285q-17 0 -28 11t-11 26v6
l37 209q3 18 18.5 30.5t34.5 12.5h285q17 0 29 -11t12 -26zM1231 1884v-6l-37 -209q-3 -18 -19.5 -30.5t-35.5 -12.5h-285q-17 0 -28 11t-11 26v6l37 209q3 18 18.5 30.5t34.5 12.5h285q17 0 29 -11t12 -26z" />
    <glyph glyph-name="wdieresis" unicode="&#x1e85;" horiz-adv-x="1839" 
d="M1976 1208q18 0 24.5 -6t0.5 -24l-371 -1028q-18 -49 -35.5 -80.5t-33 -50t-40.5 -27t-46 -10.5t-60 -2h-192q-85 0 -114 29t-46 130l-49 295q-3 19 -15 19q-13 0 -22 -19l-152 -295q-52 -101 -92 -130t-125 -29h-192q-39 0 -59 2t-41.5 10.5t-31 27t-15.5 50t-7 80.5
l-10 1028q0 30 37 30h407q16 0 19.5 -7t3.5 -25l-29 -611q0 -18 12 -18t21 18l149 283q24 44 45 59t62 15h205q41 0 57.5 -15.5t24.5 -58.5l51 -283q4 -26 16 -26q8 0 17 26l184 611q11 32 35 32h407zM1616 1559v-7l-37 -209q-3 -18 -19.5 -30.5t-35.5 -12.5h-285
q-17 0 -28 11t-11 26v6l37 209q3 18 18.5 30.5t34.5 12.5h285q17 0 29 -10.5t12 -25.5zM1145 1559v-7l-37 -209q-3 -18 -19.5 -30.5t-35.5 -12.5h-285q-17 0 -28 11t-11 26v6l37 209q3 18 18.5 30.5t34.5 12.5h285q17 0 29 -10.5t12 -25.5z" />
    <glyph glyph-name="Ygrave" unicode="&#x1ef2;" horiz-adv-x="1452" 
d="M1688 1499q0 -7 -7 -18l-424 -705q-89 -149 -186 -188l-96 -547q-3 -17 -18 -29t-33 -12h-400q-15 0 -23.5 9.5t-8.5 23.5v8l96 547q-83 38 -121 188l-176 705v8q0 14 9 23.5t24 9.5h432q27 0 35 -41l83 -508q3 -12 11 -12t14 12l262 508q21 41 51 41h451q11 0 18 -7
t7 -16zM1217 1645q0 -19 -21 -19h-291q-15 0 -24 3t-12 6t-11 12l-223 243q-6 9 -6 15q0 16 24 16h363q24 0 34 -6.5t21 -24.5l141 -229q5 -8 5 -16z" />
    <glyph glyph-name="ygrave" unicode="&#x1ef3;" horiz-adv-x="1343" 
d="M1487 1208q48 0 29 -43l-566 -1228q-32 -70 -65 -120.5t-81 -98t-106 -76.5t-139 -46.5t-182 -17.5q-67 0 -163 14t-138 29q-27 9 -34.5 16.5t-4.5 24.5l41 234q3 16 5.5 24t15 15.5t34.5 5.5q215 -15 305 -15q69 0 90 47l31 70h-27q-32 0 -56.5 6t-49.5 21.5t-41.5 49
t-22.5 83.5l-124 962q-3 24 9.5 33.5t43.5 9.5h391q33 0 33 -43l26 -639q0 -28 15 -28h14l248 667q15 43 53 43h416zM1098 1319q0 -19 -21 -19h-291q-15 0 -24 3t-12 6t-11 12l-223 244q-6 9 -6 14q0 16 25 16h362q24 0 34 -6t21 -24l142 -230q4 -6 4 -16z" />
    <glyph glyph-name="endash" unicode="&#x2013;" horiz-adv-x="694" 
d="M813 500q-3 -17 -17.5 -29t-31.5 -12h-674q-17 0 -26.5 12t-6.5 29l37 217q3 17 17.5 29t31.5 12h674q17 0 26.5 -12t6.5 -29z" />
    <glyph glyph-name="emdash" unicode="&#x2014;" horiz-adv-x="1355" 
d="M1475 500q-3 -17 -18 -29t-32 -12h-1335q-17 0 -26.5 12t-6.5 29l37 217q3 17 17.5 29t31.5 12h1336q17 0 26 -12t6 -29z" />
    <glyph glyph-name="quoteleft" unicode="&#x2018;" horiz-adv-x="593" 
d="M844 1581q0 -13 -6 -25l-213 -495q-16 -39 -47 -39h-347q-20 0 -20 18q0 9 6 21l268 495q20 39 45 39h297q17 0 17 -14z" />
    <glyph glyph-name="quoteright" unicode="&#x2019;" horiz-adv-x="593" 
d="M844 1577q0 -9 -6 -21l-269 -495q-20 -39 -45 -39h-297q-16 0 -16 14q0 13 6 25l213 495q16 39 47 39h346q21 0 21 -18z" />
    <glyph glyph-name="quotesinglbase" unicode="&#x201a;" horiz-adv-x="593" 
d="M649 369q0 -8 -6 -17l-319 -516q-25 -41 -50 -41h-260q-14 0 -24 8.5t-10 20.5q0 8 2 12l233 516q18 41 51 41h355q12 0 20 -7t8 -17z" />
    <glyph glyph-name="quotedblleft" unicode="&#x201c;" horiz-adv-x="1120" 
d="M1370 1581q0 -13 -6 -25l-213 -495q-16 -39 -47 -39h-346q-21 0 -21 18q0 9 6 21l269 495q20 39 45 39h297q16 0 16 -14zM844 1581q0 -13 -6 -25l-213 -495q-16 -39 -47 -39h-347q-20 0 -20 18q0 9 6 21l268 495q20 39 45 39h297q17 0 17 -14z" />
    <glyph glyph-name="quotedblright" unicode="&#x201d;" horiz-adv-x="1120" 
d="M1370 1577q0 -9 -6 -21l-268 -495q-20 -39 -45 -39h-297q-17 0 -17 14q0 13 6 25l213 495q16 39 48 39h346q20 0 20 -18zM844 1577q0 -9 -6 -21l-269 -495q-20 -39 -45 -39h-297q-16 0 -16 14q0 13 6 25l213 495q16 39 47 39h346q21 0 21 -18z" />
    <glyph glyph-name="quotedblbase" unicode="&#x201e;" horiz-adv-x="1120" 
d="M1198 369q0 -11 -4 -17l-320 -516q-25 -41 -49 -41h-260q-14 0 -24.5 8.5t-10.5 20.5q0 8 2 12l234 516q18 41 49 41h354q12 0 20.5 -7t8.5 -17zM625 369q0 -11 -4 -17l-320 -516q-25 -41 -49 -41h-260q-14 0 -24.5 8.5t-10.5 20.5q0 8 2 12l234 516q18 41 49 41h354
q12 0 20.5 -7t8.5 -17z" />
    <glyph glyph-name="dagger" unicode="&#x2020;" horiz-adv-x="962" 
d="M1124 1219v-7l-53 -307q-7 -33 -45 -33h-162l-149 -843q-7 -41 -39 -41h-393q-27 0 -27 30v11l150 843h-162q-15 0 -24 7.5t-9 19.5v6l53 307q6 31 45 31h162l55 313q8 39 41 39h391q27 0 27 -30v-9l-55 -313h162q32 0 32 -24z" />
    <glyph glyph-name="daggerdbl" unicode="&#x2021;" horiz-adv-x="962" 
d="M1124 1219v-7l-53 -307q-7 -33 -45 -33h-162l-24 -139h161q33 0 33 -24v-7l-53 -307q-7 -33 -45 -33h-162l-59 -333q-7 -41 -39 -41h-393q-27 0 -27 30v11l59 333h-161q-15 0 -24 7.5t-9 19.5v6l53 307q6 31 45 31h162l25 139h-162q-15 0 -24 7.5t-9 19.5v6l53 307
q6 31 45 31h162l55 313q8 39 41 39h391q27 0 27 -30v-9l-55 -313h162q32 0 32 -24z" />
    <glyph glyph-name="bullet" unicode="&#x2022;" horiz-adv-x="856" 
d="M907 752q0 -148 -104 -252.5t-252 -104.5t-252 104.5t-104 252.5t104 252t252 104t252 -104t104 -252z" />
    <glyph glyph-name="ellipsis" unicode="&#x2026;" horiz-adv-x="1818" 
d="M1798 358v-6l-53 -311q-3 -17 -18 -29t-33 -12h-357q-15 0 -24.5 10t-9.5 25v6l53 311q3 17 18 29t33 12h356q15 0 25 -10t10 -25zM1192 358v-6l-53 -311q-3 -17 -18.5 -29t-33.5 -12h-356q-15 0 -25 10t-10 25v6l54 311q3 17 18 29t33 12h356q15 0 25 -10t10 -25z
M586 358v-6l-54 -311q-3 -17 -18 -29t-33 -12h-356q-15 0 -25 10t-10 25v6l53 311q3 17 18.5 29t33.5 12h356q15 0 25 -10t10 -25z" />
    <glyph glyph-name="perthousand" unicode="&#x2030;" horiz-adv-x="2572" 
d="M2593 578q0 -52 -8 -99l-21 -123q-33 -196 -129.5 -282t-259.5 -86q-131 0 -198.5 72.5t-67.5 201.5q0 50 8 94l20 123q32 199 129 284t261 85q132 0 199 -70t67 -200zM1855 578q0 -52 -8 -99l-20 -123q-33 -196 -129.5 -282t-259.5 -86q-131 0 -199 72.5t-68 201.5
q0 44 9 94l20 123q33 199 129 284t260 85q132 0 199 -70t67 -200zM1794 1503q0 -11 -10 -24l-1100 -1434q-13 -16 -16 -20t-12 -12.5t-15.5 -10.5t-15.5 -2h-291q-10 0 -16.5 7t-6.5 16q0 11 8 22l1100 1434q20 24 33 33.5t31 9.5h291q20 0 20 -19zM932 1262q0 -52 -8 -99
l-21 -123q-33 -196 -129.5 -282t-259.5 -86q-131 0 -198.5 72.5t-67.5 201.5q0 50 8 94l20 123q32 199 129 284t261 85q132 0 199 -70t67 -200zM2324 563q0 35 -9 46.5t-29 11.5q-30 0 -49 -28t-33 -114l-21 -123q-8 -49 -8 -86q0 -34 9 -45.5t30 -11.5q30 0 49 28t33 115
l20 123q8 49 8 84zM1587 563q0 35 -9.5 46.5t-29.5 11.5q-30 0 -49 -28t-33 -114l-20 -123q-8 -49 -8 -86q0 -34 9 -45.5t30 -11.5q30 0 49 28t33 115l20 123q8 49 8 84zM664 1247q0 35 -9.5 46.5t-29.5 11.5q-30 0 -49 -28t-33 -114l-21 -123q-8 -49 -8 -86q0 -34 9 -45.5
t30 -11.5q30 0 49 28t33 115l20 123q9 55 9 84z" />
    <glyph glyph-name="guilsinglleft" unicode="&#x2039;" horiz-adv-x="892" 
d="M1030 1071q0 -15 -16 -31l-449 -438l262 -438q9 -18 9 -23q0 -10 -8.5 -17t-20.5 -7h-328q-42 0 -53 20l-258 422q-16 26 -16 49q0 33 32 70l375 389q18 20 62 20h389q20 0 20 -16z" />
    <glyph glyph-name="guilsinglright" unicode="&#x203a;" horiz-adv-x="892" 
d="M948 596q0 -32 -33 -70l-374 -389q-18 -20 -62 -20h-389q-20 0 -20 16q0 15 16 31l449 438l-263 438q-8 16 -8 23q0 10 8.5 17t20.5 7h328q42 0 53 -20l258 -422q16 -26 16 -49z" />
    <glyph glyph-name="fraction" unicode="&#x2044;" horiz-adv-x="536" 
d="M1145 1503q0 -11 -10 -24l-1110 -1448q-14 -19 -24 -25t-26 -6h-290q-10 0 -16.5 7t-6.5 16q0 11 8 22l1110 1446q13 19 24 25t30 6h290q21 0 21 -19z" />
    <glyph glyph-name="n.superior" unicode="&#x207f;" horiz-adv-x="768" 
d="M860 743q-3 -9 -5 -14t-9 -9.5t-19 -4.5h-200q-30 0 -25 28l66 375q4 18 4 31q0 33 -47 33q-30 0 -60 -15l-73 -424q-5 -28 -33 -28h-201q-27 0 -22 28l106 615q3 14 10 20t23 6h182q25 0 21 -26l-5 -23q81 60 175 60q188 0 188 -176q0 -48 -8 -89z" />
    <glyph glyph-name="franc" unicode="&#x20a3;" horiz-adv-x="1208" 
d="M121 461h61l107 602q15 88 45 159t67.5 120t87.5 85.5t99.5 58t110 34.5t112.5 17.5t113 4.5q227 0 407 -22q42 -3 35 -41l-55 -310q-3 -17 -16.5 -29t-30.5 -12h-412q-39 0 -56.5 -13.5t-23.5 -51.5l-20 -111h479q17 0 27.5 -12t7.5 -29l-52 -288q-3 -17 -16.5 -29
t-30.5 -12h-479l-22 -121h143q42 0 35 -41l-31 -166q-4 -20 -13.5 -30.5t-33.5 -10.5h-143l-31 -172q-7 -41 -47 -41h-400q-20 0 -30 8.5t-6 32.5l30 172h-61q-42 0 -35 41l31 166q4 20 13.5 30.5t33.5 10.5z" />
    <glyph glyph-name="lira" unicode="&#x20a4;" 
d="M1247 41q-3 -17 -16.5 -29t-30.5 -12h-969q-17 0 -27 12t-7 29l39 225q3 15 7.5 24.5t7.5 13t15 15.5q24 22 53.5 70t34.5 84l6 27h-98q-17 0 -27.5 12t-7.5 29l21 114q3 17 16.5 29t30.5 12h98l15 80h-99q-17 0 -26.5 12t-6.5 29l21 115q3 17 16.5 29t30.5 12h98l4 18
q27 156 82 263t141 170t195.5 90.5t257.5 27.5q174 0 340 -35q27 -6 33.5 -15t1.5 -30l-55 -323q-8 -37 -43 -37h-6q-12 1 -87.5 8t-137.5 10.5t-119 3.5q-73 0 -99 -22.5t-39 -102.5l-6 -26h279q17 0 27.5 -12t7.5 -29l-21 -115q-3 -17 -17.5 -29t-31.5 -12h-279l-14 -80
h279q17 0 27 -12t7 -29l-20 -114q-3 -17 -16.5 -29t-30.5 -12h-279l-6 -27q-9 -53 -43 -102h490q17 0 27 -12t7 -29z" />
    <glyph glyph-name="peseta" unicode="&#x20a7;" horiz-adv-x="3434" 
d="M1550 1098q0 -40 -6 -90l-2 -15q-14 -95 -47.5 -173t-79 -132t-106 -96t-121.5 -66.5t-132.5 -40t-133.5 -21t-129 -5.5q-9 0 -123 4l-74 -422q-3 -17 -17.5 -29t-31.5 -12h-393q-15 0 -26 7t-11 20v6l231 1310q17 93 52 127t122 48q156 24 453 24q87 0 166 -13.5
t155 -46.5t131.5 -82.5t89 -127t33.5 -174.5zM1067 1032q0 107 -154 107h-125l-49 -277h125q81 0 135.5 33.5t63.5 97.5l2 15q2 8 2 24zM2482 1174v-9l-43 -247q-3 -19 -17.5 -32.5t-33.5 -13.5h-147l-89 -501q-4 -24 -4 -31q0 -16 8 -22.5t29 -6.5h99q16 0 25 -10t9 -25v-8
l-39 -223q-3 -18 -17 -30t-34 -15q-123 -20 -221 -20q-46 0 -88.5 7.5t-86 28.5t-75 53t-51.5 85t-20 122q0 41 10 103l86 493l-113 21q-16 3 -26.5 14t-10.5 25v6l39 227q3 18 18.5 30.5t34.5 12.5h117l29 168q6 35 53 43l381 64h6q13 0 22 -10.5t9 -24.5v-8l-41 -232h147
q35 0 35 -34zM3525 1137v-7l-47 -266q-3 -19 -15 -31t-29 -12h-4h-2q-56 9 -180 23t-178 14q-47 0 -47 -29q0 -14 20 -24l207 -111q87 -48 129.5 -124.5t42.5 -155.5q0 -97 -34.5 -173.5t-91 -124.5t-134.5 -79.5t-158.5 -44t-169.5 -12.5q-219 0 -372 53q-31 10 -31 37v8
l45 256q7 47 51 47h6h4q279 -39 349 -39q22 0 36.5 2t29 13t14.5 32q0 20 -39 41l-213 119q-67 37 -109.5 108.5t-42.5 163.5q0 408 547 408q192 0 381 -55q35 -12 35 -37z" />
    <glyph glyph-name="Euro" unicode="&#x20ac;" 
d="M1454 1468q0 -1 -1 -4.5t-1 -5.5l-53 -297q-6 -37 -39 -37h-8q-172 23 -222 23q-42 0 -72.5 -5.5t-61.5 -21t-53.5 -47.5t-35.5 -80h322q28 0 28 -18q0 -11 -6 -23l-41 -96q-10 -26 -19 -33.5t-28 -7.5h-305l-18 -104h278q31 0 31 -21q0 -8 -6 -20l-41 -97
q-18 -41 -45 -41h-234v-10v-20q0 -41 14 -67.5t41.5 -39t56 -16.5t69.5 -4q34 0 73.5 4t84.5 10t61 8h8q29 0 29 -26q0 -1 -1.5 -5t-1.5 -6l-53 -297q-3 -20 -12 -28t-37 -17q-116 -38 -276 -38q-264 0 -407.5 143.5t-143.5 378.5v18v12h-119q-13 0 -22 10t-9 23v8l19 97
q7 41 41 41h112l19 104h-109q-14 0 -22.5 9.5t-8.5 23.5v8l17 96q3 18 14.5 29.5t28.5 11.5h121q64 288 236.5 418.5t473.5 130.5q79 0 167 -12.5t128 -26.5q31 -11 36 -21q3 -5 3 -14z" />
    <glyph glyph-name="afii61289" unicode="&#x2113;" horiz-adv-x="1265" 
d="M1190 125q5 -21 -1 -32.5t-26 -20.5q-45 -22 -100 -43.5t-151 -44.5t-179 -23q-178 0 -268 90.5t-90 257.5q0 59 8 111l8 55l-129 -67q-26 -13 -37 8l-45 108q-10 24 15 37l233 121l94 528q38 218 164.5 325t349.5 107q200 0 290.5 -73t90.5 -197q0 -183 -127.5 -343.5
t-396.5 -319.5l-43 -236q-6 -35 -6 -59q0 -54 25.5 -77.5t78.5 -23.5q47 0 146 31q23 9 32 6.5t15 -22.5zM930 928q149 104 222 214.5t73 217.5q0 90 -84 90q-27 0 -48.5 -7.5t-37 -24t-26.5 -35t-20 -49.5t-15 -57t-13 -67z" />
    <glyph glyph-name="trademark" unicode="&#x2122;" horiz-adv-x="1767" 
d="M1898 721q0 -9 -6.5 -15t-15.5 -6h-223q-9 0 -16 6t-7 15v479v6q0 61 -11 74.5t-69 13.5v-573q0 -9 -6.5 -15t-15.5 -6h-223q-9 0 -16 6t-7 15v573q-20 0 -82 -4v-569q0 -9 -6.5 -15t-15.5 -6h-222q-9 0 -16.5 6t-7.5 15v700q0 52 16.5 72t61.5 23q200 16 405 16
q91 0 153 -4t121 -16.5t94.5 -35t63.5 -59.5t39.5 -90t11.5 -127v-479zM874 1327q0 -9 -6.5 -15.5t-15.5 -6.5h-143v-584q0 -9 -6 -15t-15 -6h-233q-9 0 -16 6t-7 15v584h-145q-9 0 -16 6.5t-7 15.5v172q0 9 7 16t16 7h565q9 0 15.5 -7t6.5 -16v-172z" />
    <glyph glyph-name="Omega" unicode="&#x2126;" horiz-adv-x="1501" 
d="M1542 809q-33 -192 -117.5 -299t-244.5 -170l-2 -12h215q30 0 26 -29l-47 -270q-4 -29 -33 -29h-559q-13 0 -21 7.5t-5 21.5l84 481q3 15 8.5 20.5t19.5 10.5q66 17 102.5 82.5t59.5 193.5l19 103q8 62 8 79q0 72 -33 104t-102 32q-85 0 -131.5 -48.5t-67.5 -166.5
l-19 -103q-16 -88 -16 -141q0 -115 78 -135q22 -6 16 -31l-84 -481q-6 -29 -34 -29h-560q-31 0 -26 29l47 270q4 29 37 29h219l2 12q-201 90 -201 375q0 70 17 174l18 98q27 156 90 266.5t161 175.5t220 94t281 29q302 0 455 -122.5t153 -362.5q0 -80 -14 -160z" />
    <glyph glyph-name="estimated" unicode="&#x212e;" horiz-adv-x="1241" 
d="M1325 578h-879v-396q135 -129 312 -129q67 0 124.5 14.5t99.5 36.5t81 58t66.5 70t58.5 81l63 -39q-34 -53 -67.5 -94t-78 -78.5t-94 -62t-114 -39t-139.5 -14.5q-163 0 -291 81.5t-196 216.5t-68 296q0 164 66.5 298t196.5 215t300 81q169 0 298 -82.5t195 -217
t66 -296.5zM1079 645v334q-59 54 -143.5 90.5t-169.5 36.5q-196 0 -320 -127v-334h633z" />
    <glyph glyph-name="onethird" unicode="&#x2153;" horiz-adv-x="1712" 
d="M1681 1503q0 -11 -10 -24l-1110 -1448q-15 -20 -24 -25.5t-25 -5.5h-291q-10 0 -16 7t-6 16q0 11 8 22l1110 1446q14 19 24 25t29 6h291q20 0 20 -19zM760 1503v-4l-139 -792q-1 -9 -9.5 -16t-17.5 -7h-240q-8 0 -13 5t-5 13v5l96 542l-123 -45q-12 -4 -14 -4q-8 0 -8 10
v4l35 201q3 17 20 23l195 78q15 6 26 6h178q7 0 13 -6t6 -13zM1202 225h2q138 -10 234 -10q78 0 78 68q0 34 -46 34h-188q-13 0 -22 9.5t-7 23.5l27 142q1 13 12 22.5t25 9.5h174q38 0 58 17t20 43q0 39 -60 39q-72 0 -229 -11h-2q-12 0 -20 9t-5 22l21 121q3 19 9 24.5
t26 14.5q39 18 116 31.5t146 13.5q128 0 203 -47t75 -146q0 -26 -6 -53q-10 -63 -41.5 -103.5t-83.5 -72.5q66 -45 66 -135q0 -149 -99.5 -225t-265.5 -76q-60 0 -140 13t-120 36q-18 11 -16 27l22 129q7 30 37 30z" />
    <glyph glyph-name="twothirds" unicode="&#x2154;" horiz-adv-x="1712" 
d="M1681 1503q0 -11 -10 -24l-1110 -1448q-15 -20 -24 -25.5t-25 -5.5h-291q-10 0 -16 7t-6 16q0 11 8 22l1110 1446q14 19 24 25t29 6h291q20 0 20 -19zM1202 225h2q138 -10 234 -10q78 0 78 68q0 34 -46 34h-188q-13 0 -22 9.5t-7 23.5l27 142q1 13 12 22.5t25 9.5h174
q38 0 58 17t20 43q0 39 -60 39q-72 0 -229 -11h-2q-12 0 -20 9t-5 22l21 121q3 19 9 24.5t26 14.5q39 18 116 31.5t146 13.5q128 0 203 -47t75 -146q0 -26 -6 -53q-10 -63 -41.5 -103.5t-83.5 -72.5q66 -45 66 -135q0 -149 -99.5 -225t-265.5 -76q-60 0 -140 13t-120 36
q-18 11 -16 27l22 129q7 30 37 30zM707 1356q0 -103 -65.5 -177t-174.5 -132q-2 -1 -26.5 -14t-33.5 -18.5t-31 -19t-34 -23t-27 -23.5t-24 -27h299q16 0 22.5 -6.5t3.5 -24.5l-30 -176q-3 -13 -15 -22t-24 -9h-531q-33 0 -26 31l20 121q12 63 38 117.5t64 97t78 74.5t89 61
q119 74 122 76q23 15 23 34q0 11 -14.5 16t-61.5 5q-75 0 -211 -12h-2q-13 0 -20 10t-4 22l22 127q2 20 33 31q132 47 268 47q273 0 273 -186z" />
    </font>
</defs>
</svg>
