<?xml version="1.0" standalone="no"?>
<!DOCTYPE svg PUBLIC "-//W3C//DTD SVG 1.1//EN" "http://www.w3.org/Graphics/SVG/1.1/DTD/svg11.dtd" >
<svg xmlns="http://www.w3.org/2000/svg" xmlns:xlink="http://www.w3.org/1999/xlink" version="1.1">
<metadata>
Created by FontForge 20201107 at Tue Apr 30 14:31:06 2024
 By 
Copyright 2004 Monotype Imaging, Inc. All rights reserved.
</metadata>
<defs>
<font id="NeoSansPro-BoldItalic" horiz-adv-x="1320" >
  <font-face 
    font-family="Neo Sans Pro"
    font-weight="700"
    font-style="italic"
    font-stretch="normal"
    units-per-em="2048"
    panose-1="2 11 8 4 3 5 4 11 2 4"
    ascent="1567"
    descent="-481"
    x-height="1174"
    cap-height="1522"
    bbox="-186 -442 3299.86 2073"
    underline-thickness="163"
    underline-position="-160"
    slope="-11"
    unicode-range="U+0020-FB04"
  />
<missing-glyph horiz-adv-x="1024" 
d="M25 0v1362h972v-1362h-972zM180 1266l332 -498l330 498h-662zM123 1178v-992q0 -1 82.5 123t164.5 249l83 124zM901 1178l-332 -496l332 -498v994zM842 98l-330 496l-332 -496h662z" />
    <glyph glyph-name="f_b" unicode="fb" horiz-adv-x="2027" 
d="M1169 1354h-290q-48 0 -66.5 -20t-28.5 -87l-12 -73h174q43 0 35 -44l-29 -163q-4 -25 -14 -33t-35 -8h-174l-166 -928q-16 -92 -45.5 -157t-65 -102.5t-89 -58.5t-104.5 -27.5t-124 -6.5q-42 0 -143 18q-33 8 -33 31v4l27 156q6 36 41 36h82q68 0 89 18t33 89l164 928
l-155 24q-40 5 -33 54l22 126q4 25 15.5 34.5t34.5 9.5h159l13 73q15 90 43 154t63.5 102.5t88 60t105.5 28.5t128 7q223 0 381 -28h229q26 0 36.5 -9.5t6.5 -31.5l-64 -354q107 14 170 14q209 0 321 -111t112 -299q0 -42 -11 -114l-26 -160q-45 -269 -198 -396.5
t-411 -127.5q-219 0 -426 53q-36 9 -47 21.5t-6 37.5zM1739 766q0 74 -34 111.5t-114 37.5q-85 0 -170 -10l-112 -639q74 -12 166 -12q105 0 155.5 60.5t71.5 191.5l27 160q10 62 10 100z" />
    <glyph glyph-name="f_f_b" unicode="ffb" horiz-adv-x="2725" 
d="M2437 766q0 74 -33.5 111.5t-113.5 37.5q-85 0 -170 -10l-113 -639q74 -12 166 -12q105 0 155.5 60.5t71.5 191.5l27 160q10 62 10 100zM2230 1530l-63 -354q107 14 170 14q209 0 320.5 -111t111.5 -299q0 -49 -10 -114l-27 -160q-45 -269 -197.5 -396.5t-410.5 -127.5
q-219 0 -426 53q-36 9 -47 21.5t-6 37.5l223 1260h-291q-48 0 -66 -20t-28 -87l-13 -73h175q25 0 31.5 -11.5t2.5 -32.5l-28 -163q-4 -25 -14 -33t-35 -8h-177l-163 -928q-16 -92 -45.5 -157t-65 -102.5t-89 -58.5t-104.5 -27.5t-124 -6.5q-43 0 -144 18q-33 8 -33 31v4
l27 156q6 36 41 36h82q68 0 89.5 18t33.5 89l164 928h-365l-166 -928q-16 -92 -45.5 -157t-65 -102.5t-89 -58.5t-104.5 -27.5t-124 -6.5q-42 0 -143 18q-33 8 -33 31v4l27 156q6 36 41 36h82q68 0 89 18t33 89l164 928l-155 24q-40 5 -33 54l22 126q4 25 15.5 34.5
t34.5 9.5h159l13 73q15 90 43 154t63.5 102.5t88 60t105.5 28.5t128 7q44 0 145 -18q15 -3 25.5 -13t7.5 -24l-27 -151q-3 -21 -12.5 -30t-32.5 -9h-106q-48 0 -66.5 -20t-28.5 -87l-12 -73h365l12 73q15 90 43 154t63.5 102.5t88 60t105.5 28.5t128 7q223 0 381 -28h229
q26 0 36.5 -9.5t6.5 -31.5z" />
    <glyph glyph-name="f_f_h" unicode="ffh" horiz-adv-x="2758" 
d="M2230 1530l-65 -367q128 27 219 27q193 0 293 -93.5t100 -248.5q0 -49 -8 -90l-125 -717q-2 -13 -6 -21t-14.5 -14t-28.5 -6h-250q-17 0 -27 10t-6 31l125 715q6 34 6 57q0 59 -35.5 83t-119.5 24q-92 0 -168 -17l-152 -860q-7 -43 -49 -43h-248q-41 0 -35 43l232 1311
h-291q-48 0 -66 -20t-28 -87l-13 -73h175q25 0 31.5 -11.5t2.5 -32.5l-28 -163q-4 -25 -14 -33t-35 -8h-175l-165 -928q-16 -92 -45.5 -157t-65 -102.5t-89 -58.5t-104.5 -27.5t-124 -6.5q-43 0 -144 18q-33 8 -33 31v4l27 156q6 36 41 36h82q68 0 89.5 18t33.5 89l164 928
h-365l-166 -928q-16 -92 -45.5 -157t-65 -102.5t-89 -58.5t-104.5 -27.5t-124 -6.5q-42 0 -143 18q-33 8 -33 31v4l27 156q6 36 41 36h82q68 0 89 18t33 89l164 928l-155 24q-40 5 -33 54l22 126q4 25 15.5 34.5t34.5 9.5h159l13 73q15 90 43 154t63.5 102.5t88 60
t105.5 28.5t128 7q44 0 145 -18q21 -5 28.5 -11.5t4.5 -25.5l-27 -151q-3 -21 -12.5 -30t-32.5 -9h-106q-48 0 -66.5 -20t-28.5 -87l-12 -73h365l12 73q15 90 43 154t63.5 102.5t88 60t105.5 28.5t128 7q223 0 381 -28h229q26 0 36.5 -9.5t6.5 -31.5z" />
    <glyph glyph-name="f_f_j" unicode="ffj" horiz-adv-x="2101" 
d="M1546 -162q41 0 55.5 20t24.5 76l174 992h-370l-166 -928q-16 -92 -45.5 -157t-65 -102.5t-89 -58.5t-104.5 -27.5t-124 -6.5q-76 0 -144 18q-38 9 -33 35l27 156q6 36 41 36h82q68 0 89.5 18t33.5 89l164 928h-365l-166 -928q-16 -92 -45.5 -157t-65 -102.5t-89 -58.5
t-104.5 -27.5t-124 -6.5q-76 0 -143 18q-38 9 -33 35l27 156q6 36 41 36h82q68 0 89 18t33 89l164 928l-155 24q-40 5 -33 54l22 126q4 25 15.5 34.5t34.5 9.5h159l13 73q15 90 43 154t63.5 102.5t88 60t105.5 28.5t128 7q44 0 145 -18q15 -3 25.5 -13t7.5 -24l-27 -151
q-3 -21 -12.5 -30t-32.5 -9h-106q-48 0 -66.5 -20t-28.5 -87l-12 -73h365l12 73q15 90 43 154t63.5 102.5t88 60t105.5 28.5t128 7q44 0 145 -18q15 -3 25.5 -13t7.5 -24l-26 -151q-3 -21 -12.5 -30t-32.5 -9h-107q-48 0 -66 -20t-28 -87l-12 -73h665q40 0 31 -44
l-211 -1196q-24 -139 -72 -215.5t-120.5 -105.5t-192.5 -29q-77 0 -162 15q-39 6 -33 41l29 161q6 37 49 37h90zM1901 1307q-39 0 -33 41l33 190q7 41 49 41h264q42 0 35 -41l-33 -190q-7 -41 -51 -41h-264z" />
    <glyph glyph-name="f_f_k" unicode="ffk" horiz-adv-x="2709" 
d="M1868 1354h-291q-48 0 -66 -20t-28 -87l-13 -73h175q25 0 31.5 -11.5t2.5 -32.5l-28 -163q-4 -25 -14 -33t-35 -8h-175l-165 -928q-16 -92 -45.5 -157t-65 -102.5t-89 -58.5t-104.5 -27.5t-124 -6.5q-43 0 -144 18q-33 8 -33 31v4l27 156q6 36 41 36h82q68 0 89.5 18
t33.5 89l164 928h-365l-166 -928q-16 -92 -45.5 -157t-65 -102.5t-89 -58.5t-104.5 -27.5t-124 -6.5q-42 0 -143 18q-33 8 -33 31v4l27 156q6 36 41 36h82q68 0 89 18t33 89l164 928l-155 24q-40 5 -33 54l22 126q4 25 15.5 34.5t34.5 9.5h159l13 73q15 90 43 154
t63.5 102.5t88 60t105.5 28.5t128 7q44 0 145 -18q15 -3 25.5 -13t7.5 -24l-27 -151q-3 -21 -12.5 -30t-32.5 -9h-106q-48 0 -66.5 -20t-28.5 -87l-12 -73h365l12 73q15 90 43 154t63.5 102.5t88 60t105.5 28.5t128 7q223 0 381 -28h229q26 0 36.5 -9.5t6.5 -31.5l-147 -830
l375 443q25 31 59 31h309q12 0 19.5 -5.5t7.5 -13.5q0 -13 -12 -25l-492 -518l289 -569q8 -12 1 -27.5t-28 -15.5h-301q-34 0 -51 43l-209 467l-82 -467q-3 -17 -17.5 -30t-31.5 -13h-248q-18 0 -28 11t-7 32z" />
    <glyph glyph-name="f_h" unicode="fh" horiz-adv-x="2060" 
d="M1532 1530l-66 -367q128 27 220 27q193 0 293 -93.5t100 -248.5q0 -49 -8 -90l-125 -717q-7 -41 -50 -41h-249q-20 0 -28 12t-5 29l125 715q6 35 6 57q0 59 -36 83t-120 24q-91 0 -168 -17l-151 -860q-7 -43 -49 -43h-248q-42 0 -35 43l231 1311h-290q-48 0 -66.5 -20
t-28.5 -87l-12 -73h174q43 0 35 -44l-29 -163q-4 -25 -14 -33t-35 -8h-174l-166 -928q-16 -92 -45.5 -157t-65 -102.5t-89 -58.5t-104.5 -27.5t-124 -6.5q-42 0 -143 18q-33 8 -33 31v4l27 156q6 36 41 36h82q68 0 89 18t33 89l164 928l-155 24q-40 5 -33 54l22 126
q4 25 15.5 34.5t34.5 9.5h159l13 73q15 90 43 154t63.5 102.5t88 60t105.5 28.5t128 7q223 0 381 -28h229q26 0 36.5 -9.5t6.5 -31.5z" />
    <glyph glyph-name="f_j" unicode="fj" horiz-adv-x="1394" 
d="M840 -162q41 0 55.5 20t24.5 76l174 992h-365l-166 -928q-16 -92 -45.5 -157t-65 -102.5t-89 -58.5t-104.5 -27.5t-124 -6.5q-42 0 -143 18q-33 8 -33 31v4l27 156q6 36 41 36h82q68 0 89 18t33 89l164 928l-155 24q-40 5 -33 54l22 126q4 25 15.5 34.5t34.5 9.5h159
l13 73q15 90 43 154.5t62.5 102.5t85 59.5t100 28.5t118.5 7q90 0 164 -18q39 -8 33 -37l-27 -151q-3 -21 -12.5 -30t-32.5 -9h-106q-48 0 -66.5 -20t-28.5 -87l-12 -73h660q39 0 30 -44l-211 -1196q-24 -139 -72 -215.5t-120.5 -105.5t-192.5 -29q-76 0 -161 15
q-39 6 -33 41l28 161q6 37 50 37h90zM1194 1307q-18 0 -27 12.5t-6 28.5l33 190q7 41 49 41h264q40 0 35 -41l-33 -190q-7 -41 -51 -41h-264z" />
    <glyph glyph-name="f_k" unicode="fk" horiz-adv-x="2011" 
d="M1169 1354h-290q-48 0 -66.5 -20t-28.5 -87l-12 -73h174q43 0 35 -44l-29 -163q-4 -25 -14 -33t-35 -8h-174l-166 -928q-16 -92 -45.5 -157t-65 -102.5t-89 -58.5t-104.5 -27.5t-124 -6.5q-42 0 -143 18q-33 8 -33 31v4l27 156q6 36 41 36h82q68 0 89 18t33 89l164 928
l-155 24q-40 5 -33 54l22 126q4 25 15.5 34.5t34.5 9.5h159l13 73q15 90 43 154t63.5 102.5t88 60t105.5 28.5t128 7q223 0 381 -28h229q26 0 36.5 -9.5t6.5 -31.5l-148 -830l375 443q25 31 60 31h309q12 0 19 -5.5t7 -13.5q0 -13 -12 -25l-491 -518l288 -569
q8 -12 1.5 -27.5t-27.5 -15.5h-301q-34 0 -51 43l-209 467l-82 -467q-3 -17 -17.5 -30t-31.5 -13h-248q-18 0 -28 11t-7 32z" />
    <glyph glyph-name="f_f" unicode="ff" horiz-adv-x="1507" 
d="M1579 1354q-48 0 -66 -20t-28 -87l-12 -73h174q25 0 31.5 -11.5t2.5 -32.5l-28 -163q-4 -25 -14 -33t-35 -8h-177l-163 -928q-16 -92 -45.5 -157t-65 -102.5t-89 -58.5t-104.5 -27.5t-124 -6.5q-43 0 -144 18q-33 8 -33 31v4l27 156q6 36 41 36h82q68 0 89.5 18t33.5 89
l164 928h-367l-166 -928q-16 -92 -45.5 -157t-65 -102.5t-89 -58.5t-104.5 -27.5t-124 -6.5q-42 0 -143 18q-33 8 -33 31v4l27 156q6 36 41 36h82q68 0 89 18t33 89l164 928l-155 24q-40 5 -33 54l22 126q4 25 15.5 34.5t34.5 9.5h159l13 73q15 90 43 154t63.5 102.5t88 60
t105.5 28.5t128 7q44 0 145 -18q15 -3 25.5 -13t7.5 -24l-27 -151q-3 -21 -12.5 -30t-32.5 -9h-106q-48 0 -66.5 -20t-28.5 -87l-12 -73h367l12 73q15 90 43 154t63.5 102.5t88 60t105.5 28.5t128 7q44 0 145 -18q15 -3 25.5 -13t7.5 -24l-26 -151q-3 -21 -12.5 -30
t-32.5 -9h-107z" />
    <glyph glyph-name="fi" unicode="fi" horiz-adv-x="1392" 
d="M1427 1174q41 0 35 -41l-192 -1092q-7 -41 -49 -41h-250q-19 0 -27.5 11t-5.5 30l156 885h-365l-166 -928q-16 -92 -45.5 -157t-65 -102.5t-89 -58.5t-104.5 -27.5t-124 -6.5q-42 0 -143 18q-33 8 -33 31v4l27 156q6 36 41 36h82q68 0 89 18t33 89l164 928l-155 24
q-42 5 -33 54l22 126q4 25 15.5 34.5t34.5 9.5h159l13 73q15 90 43 154t63.5 102.5t88 60t105.5 28.5t128 7q44 0 145 -18q15 -3 25.5 -13t7.5 -24l-27 -151q-3 -21 -12.5 -30t-32.5 -9h-106q-48 0 -66.5 -20t-28.5 -87l-12 -73h655zM1192 1307q-19 0 -27.5 11t-5.5 30
l33 190q7 41 49 41h266q41 0 33 -41l-33 -190q-7 -41 -49 -41h-266z" />
    <glyph glyph-name="fl" unicode="fl" horiz-adv-x="1386" 
d="M879 1354q-48 0 -66.5 -20t-28.5 -87l-12 -73h174q43 0 35 -44l-29 -163q-4 -25 -14 -33t-35 -8h-174l-166 -928q-16 -92 -45.5 -157t-65 -102.5t-89 -58.5t-104.5 -27.5t-124 -6.5q-42 0 -143 18q-33 8 -33 31v4l27 156q6 36 41 36h82q68 0 89 18t33 89l164 928l-155 24
q-40 5 -33 54l22 126q4 25 15.5 34.5t34.5 9.5h159l13 73q15 90 43 154t63.5 102.5t88 60t105.5 28.5t128 7q223 0 381 -28h229q26 0 36.5 -9.5t6.5 -31.5l-262 -1487q-3 -18 -16.5 -30.5t-30.5 -12.5h-250q-15 0 -25 11t-10 26v6l231 1311h-290z" />
    <glyph glyph-name="f_f_i" unicode="ffi" horiz-adv-x="2101" 
d="M2136 1174q41 0 35 -41l-193 -1092q-7 -41 -49 -41h-250q-39 0 -32 41l155 885h-372l-166 -928q-16 -92 -45.5 -157t-65 -102.5t-89 -58.5t-104.5 -27.5t-124 -6.5q-76 0 -144 18q-37 9 -33 35l27 156q6 36 41 36h82q68 0 89.5 18t33.5 89l164 928h-365l-166 -928
q-16 -92 -45.5 -157t-65 -102.5t-89 -58.5t-104.5 -27.5t-124 -6.5q-76 0 -143 18q-37 9 -33 35l27 156q6 36 41 36h82q68 0 89 18t33 89l164 928l-155 24q-40 5 -33 54l22 126q4 25 15.5 34.5t34.5 9.5h159l13 73q15 90 43 154t63.5 102.5t88 60t105.5 28.5t128 7
q44 0 145 -18q15 -3 25.5 -13t7.5 -24l-27 -151q-3 -21 -12.5 -30t-32.5 -9h-106q-48 0 -66.5 -20t-28.5 -87l-12 -73h365l12 73q15 90 43 154t63.5 102.5t88 60t105.5 28.5t128 7q44 0 145 -18q15 -3 25.5 -13t7.5 -24l-26 -151q-3 -21 -12.5 -30t-32.5 -9h-107
q-48 0 -66 -20t-28 -87l-12 -73h663zM1901 1307q-19 0 -27.5 11t-5.5 30l33 190q7 41 49 41h266q41 0 33 -41l-33 -190q-7 -41 -49 -41h-266z" />
    <glyph glyph-name="f_f_l" unicode="ffl" horiz-adv-x="2082" 
d="M1868 1354h-291q-48 0 -67 -20.5t-29 -86.5l-13 -73h177q25 0 31.5 -11.5t2.5 -32.5l-28 -163q-4 -25 -14 -33t-35 -8h-177l-163 -928q-16 -92 -45.5 -157t-65 -102.5t-89 -58.5t-104.5 -27.5t-124 -6.5q-43 0 -144 18q-33 8 -33 31v4l27 156q6 36 41 36h82q68 0 89.5 18
t33.5 89l164 928h-365l-166 -928q-16 -92 -45.5 -157t-65 -102.5t-89 -58.5t-104.5 -27.5t-124 -6.5q-42 0 -143 18q-33 8 -33 31v4l27 156q6 36 41 36h82q68 0 89 18t33 89l164 928l-155 24q-40 5 -33 54l22 126q4 25 15.5 34.5t34.5 9.5h159l13 73q15 90 43 154
t63.5 102.5t88 60t105.5 28.5t128 7q64 0 145 -18q39 -8 33 -37l-27 -151q-3 -21 -12.5 -30t-32.5 -9h-106q-48 0 -66.5 -20t-28.5 -87l-12 -73h365l12 73q15 90 43 154t63.5 102.5t88 60t105.5 28.5t128 7q223 0 381 -28h229q26 0 36.5 -9.5t6.5 -31.5l-262 -1487
q-3 -18 -16.5 -30.5t-30.5 -12.5h-250q-15 0 -25 11t-10 26v6z" />
    <glyph glyph-name=".notdef" horiz-adv-x="1024" 
d="M25 0v1362h972v-1362h-972zM180 1266l332 -498l330 498h-662zM123 1178v-992q0 -1 82.5 123t164.5 249l83 124zM901 1178l-332 -496l332 -498v994zM842 98l-330 496l-332 -496h662z" />
    <glyph glyph-name=".null" horiz-adv-x="0" 
 />
    <glyph glyph-name="nonmarkingreturn" horiz-adv-x="682" 
 />
    <glyph glyph-name="space" unicode=" " horiz-adv-x="512" 
 />
    <glyph glyph-name="exclam" unicode="!" horiz-adv-x="559" 
d="M721 1538v-8l-221 -1022q-3 -17 -17.5 -30t-31.5 -13h-175q-15 0 -25.5 11.5t-10.5 25.5v6l139 1022q1 17 17 29t34 12h256q15 0 25 -9.5t10 -23.5zM494 307v-8l-45 -258q-3 -17 -17 -29t-31 -12h-241q-15 0 -24 9.5t-9 23.5v8l45 258q3 17 16.5 28t30.5 11h242
q15 0 24 -8.5t9 -22.5z" />
    <glyph glyph-name="quotedbl" unicode="&#x22;" horiz-adv-x="966" 
d="M1192 1554q0 -10 -6 -22l-234 -449q-20 -39 -45 -39h-207q-16 0 -16 15q0 9 6 24l191 449q16 39 47 39h243q21 0 21 -17zM743 1554q0 -10 -6 -22l-233 -449q-20 -39 -45 -39h-207q-16 0 -16 15q0 9 6 24l190 449q16 39 47 39h244q20 0 20 -17z" />
    <glyph glyph-name="numbersign" unicode="#" horiz-adv-x="1431" 
d="M1530 1108q0 -2 -1 -4.5t-1 -3.5l-53 -156q-3 -10 -13.5 -16t-21.5 -6h-174l-88 -330h172q13 0 22.5 -7.5t9.5 -19.5q0 -1 -1 -3t-1 -3l-47 -145q-3 -11 -16 -21t-23 -10h-172l-90 -344q-12 -39 -43 -39h-209q-13 0 -20.5 8.5t-7.5 20.5q0 1 1 4.5t1 5.5l90 344h-232
l-92 -344q-5 -16 -17 -27.5t-26 -11.5h-211q-12 0 -20 8.5t-8 20.5q0 2 1 5t1 5l90 344h-174q-25 0 -25 20q0 7 2 11l51 153q3 10 12.5 17.5t20.5 7.5h170l86 330h-174q-25 0 -25 18q0 6 2 10l52 158q3 10 14 16t23 6h163l95 353q5 16 17.5 27.5t27.5 11.5h211q12 0 19 -8.5
t7 -20.5q0 -1 -1 -4.5t-1 -5.5l-94 -353h231l97 353q12 39 45 39h209q26 0 26 -27q0 -8 -2 -12l-96 -353h178q13 0 23 -6t10 -16zM987 922h-231l-88 -330h231z" />
    <glyph glyph-name="dollar" unicode="$" 
d="M1374 1462v-6l-35 -203q-3 -17 -15 -26.5t-28 -9.5h-4q-229 22 -430 22q-88 0 -134 -27t-46 -108q0 -32 23 -58.5t86 -64.5l235 -141q217 -130 217 -342q0 -210 -126 -344t-337 -156l-35 -193q-3 -17 -16.5 -29t-30.5 -12h-225q-15 0 -25 10t-10 25v6l33 183
q-133 8 -254 39q-31 7 -31 34v7l35 200q3 16 15.5 27.5t29.5 11.5h4q65 -8 189.5 -16t193.5 -8q106 0 159.5 35.5t53.5 134.5q0 35 -22.5 64.5t-81.5 68.5l-252 168q-98 65 -143 149.5t-45 173.5q0 197 112 310t307 139l33 178q3 17 17.5 29t31.5 12h226q15 0 23.5 -9.5
t8.5 -23.5v-8l-30 -170q194 -13 292 -39q13 -3 22 -12t9 -21z" />
    <glyph glyph-name="percent" unicode="%" horiz-adv-x="1718" 
d="M1737 573q0 -45 -8 -86l-27 -153q-33 -190 -123 -271t-244 -81q-119 0 -183.5 72.5t-64.5 193.5q0 40 9 86l26 153q34 193 122.5 272t242.5 79q118 0 184 -71t66 -194zM1694 1509q0 -12 -13 -28l-1103 -1438q-15 -19 -20.5 -25t-15 -12t-20.5 -6h-211q-18 0 -18 16
q0 14 10 27l1104 1438q20 24 31 32.5t28 8.5h211q17 0 17 -13zM901 1276q0 -45 -8 -86l-27 -154q-33 -190 -122.5 -271t-243.5 -81q-119 0 -183.5 72.5t-64.5 193.5q0 45 8 86l27 154q34 193 122 271.5t242 78.5q118 0 184 -71t66 -193zM1530 569q0 51 -19 72t-55 21
q-48 0 -79.5 -38.5t-49.5 -136.5l-27 -153q-8 -44 -8 -82q0 -51 19 -72.5t55 -21.5q48 0 79.5 39t49.5 137l27 153q8 44 8 82zM694 1272q0 51 -18.5 71.5t-54.5 20.5q-48 0 -79.5 -38t-49.5 -136l-27 -154q-8 -44 -8 -82q0 -51 18.5 -72.5t54.5 -21.5q48 0 79.5 39t49.5 137
l27 154q8 44 8 82z" />
    <glyph glyph-name="ampersand" unicode="&#x26;" horiz-adv-x="1499" 
d="M1491 739v-6l-2 -16q-28 -239 -199 -447l170 -221q8 -12 8 -18q0 -12 -9 -21.5t-21 -9.5h-291q-22 0 -33 16l-49 66q-179 -100 -399 -100q-104 0 -189.5 19.5t-156.5 61.5t-110.5 117.5t-39.5 179.5q0 66 19.5 124t49 100t78.5 83.5t92.5 69t106.5 62.5l-14 18
q-119 154 -119 309q0 94 29.5 167t78.5 119t120 75.5t147.5 41t167.5 11.5q196 0 304.5 -87.5t108.5 -225.5q0 -64 -18.5 -121t-47 -100t-75.5 -84.5t-92.5 -72t-108.5 -65.5l-71 -41l217 -280q63 101 82 254l2 16q2 17 14 29t29 12h190q15 0 23 -10t8 -25zM1034 1210
q0 47 -35.5 74t-105.5 27q-100 0 -156.5 -45.5t-56.5 -141.5q0 -74 82 -168l14 -16l60 33q39 21 59.5 33t51.5 35.5t46.5 45t28 54t12.5 69.5zM922 266l-254 334q-87 -48 -124.5 -100.5t-37.5 -139.5q0 -75 48 -108t155 -33q124 0 213 47z" />
    <glyph glyph-name="quotesingle" unicode="'" horiz-adv-x="518" 
d="M743 1554q0 -10 -6 -22l-233 -449q-20 -39 -45 -39h-207q-16 0 -16 15q0 9 6 24l190 449q16 39 47 39h244q20 0 20 -17z" />
    <glyph glyph-name="parenleft" unicode="(" horiz-adv-x="739" 
d="M946 1505q0 -15 -16 -37q-422 -592 -422 -1273q0 -310 82 -539q6 -12 6 -27q0 -26 -29 -26h-184q-51 0 -66 28q-141 258 -141 625q0 342 115.5 666t335.5 571q25 29 73 29h226q20 0 20 -17z" />
    <glyph glyph-name="parenright" unicode=")" horiz-adv-x="739" 
d="M760 856q0 -338 -115 -659.5t-334 -565.5q-24 -28 -73 -28h-226q-22 0 -22 16q0 18 16 37q213 297 319.5 614t106.5 672q0 292 -86 526q-4 16 -4 25q0 29 29 29h184q51 0 66 -29q61 -113 100 -280.5t39 -356.5z" />
    <glyph glyph-name="asterisk" unicode="*" horiz-adv-x="980" 
d="M1116 1167q0 -20 -31 -30l-235 -70l147 -201q11 -18 11 -28q0 -17 -13 -25l-106 -78q-9 -6 -19 -6q-18 0 -32 21l-142 204l-141 -204q-14 -21 -33 -21q-9 0 -18 6l-109 78q-14 8 -14 25q0 8 12 28l148 201l-234 70q-33 11 -33 32q0 7 2 11l41 129q6 20 27 20q7 0 23 -4
l235 -78l-6 244q0 43 33 43h135q31 0 31 -43l-2 -244l231 78q16 4 23 4q20 0 26 -20l41 -129q2 -4 2 -13z" />
    <glyph glyph-name="plus" unicode="+" 
d="M1333 709q0 -33 -41 -33h-348v-346q0 -41 -33 -41h-184q-33 0 -33 41v346h-346q-41 0 -41 33v184q0 33 41 33h346v348q0 41 33 41h184q33 0 33 -41v-348h348q41 0 41 -33v-184z" />
    <glyph glyph-name="comma" unicode="," horiz-adv-x="561" 
d="M528 317q0 -9 -6 -18l-278 -459q-1 -2 -5 -8t-5 -8t-4 -7t-5 -6.5t-5.5 -4.5t-6 -4t-6.5 -2t-8 -1h-181q-13 0 -21.5 7.5t-8.5 19.5q0 6 4 14l213 459q19 39 47 39h250q26 0 26 -21z" />
    <glyph glyph-name="hyphen" unicode="-" horiz-adv-x="618" 
d="M672 705v-7l-27 -151q-3 -17 -16 -27t-31 -10h-397q-15 0 -25 9t-10 22v6l27 151q3 17 16.5 28t30.5 11h397q15 0 25 -8.5t10 -23.5z" />
    <glyph glyph-name="period" unicode="." horiz-adv-x="561" 
d="M496 305v-6l-45 -258q-3 -17 -18 -29t-32 -12h-239q-15 0 -25 10t-10 25v6l45 258q3 17 17 28t32 11h240q15 0 25 -9t10 -24z" />
    <glyph glyph-name="slash" unicode="/" horiz-adv-x="829" 
d="M1063 1495q0 -6 -4 -14l-684 -1438q-19 -43 -49 -43h-260q-14 0 -23.5 8.5t-9.5 20.5q0 6 4 14l686 1438q18 41 49 41h260q12 0 21.5 -7.5t9.5 -19.5z" />
    <glyph glyph-name="zero" unicode="0" 
d="M1389 1051q0 -86 -19 -203l-31 -176q-33 -191 -89 -323t-140 -213.5t-192.5 -117.5t-253.5 -36q-208 0 -327.5 124.5t-119.5 364.5q0 87 19 201l30 176q35 202 93.5 338t145 213t190.5 109t245 32q214 0 331.5 -124.5t117.5 -364.5zM1042 1055q0 108 -38 151t-115 43
q-69 0 -117.5 -33.5t-88.5 -123.5t-67 -244l-30 -176q-23 -141 -23 -209q0 -107 37.5 -149t114.5 -42q51 0 89 17.5t73.5 60.5t63 123t48.5 199l31 176q22 132 22 207z" />
    <glyph glyph-name="one" unicode="1" 
d="M299 291h272l154 880l-287 -114q-15 -6 -24 -6q-22 0 -19 26l41 234q6 20 27 28l401 174q21 9 49 9h185q17 0 25 -10.5t5 -28.5l-208 -1192h272q17 0 26.5 -11t6.5 -28l-37 -211q-3 -17 -16.5 -29t-30.5 -12h-893q-17 0 -27.5 12t-7.5 29l37 211q3 17 17 28t32 11z" />
    <glyph glyph-name="two" unicode="2" 
d="M1391 1223q0 -159 -76.5 -269t-233.5 -204l-194 -117q-17 -10 -56 -32.5t-57 -33.5t-51.5 -33t-51 -37t-43 -40t-40 -48t-29 -53.5t-22.5 -64.5h637q15 0 24.5 -9.5t9.5 -23.5v-4v-2l-37 -211q-3 -17 -17.5 -29t-31.5 -12h-911q-15 0 -24 9.5t-9 23.5v6v2l37 209
q29 168 123.5 305t245.5 231l213 134q74 46 105 66.5t68.5 47.5t49.5 44.5t20.5 39t8.5 49.5q0 52 -45 74.5t-152 22.5q-122 0 -408 -27h-4q-13 0 -21.5 9.5t-8.5 23.5v8l28 160q6 29 45 39q218 63 449 63q226 0 342.5 -84t116.5 -233z" />
    <glyph glyph-name="three" unicode="3" 
d="M1386 1192q0 -137 -63 -249t-184 -165q58 -34 96.5 -106t38.5 -148q0 -139 -49 -245t-136 -169.5t-198.5 -95.5t-245.5 -32q-241 0 -414 57q-30 11 -30 33v4v2l28 164q3 17 15.5 27t27.5 10h2h2q223 -19 404 -19q133 0 191.5 71.5t58.5 207.5q0 55 -34 81.5t-110 26.5
h-360q-15 0 -24 9.5t-9 23.5v6v2l31 174q3 17 16.5 28t30.5 11h352q116 0 164.5 66.5t48.5 185.5q0 58 -39.5 83.5t-138.5 25.5q-125 0 -407 -25h-2h-3q-30 0 -30 29v6v2l28 164q6 28 48 39q216 63 430 63q218 0 341 -89.5t123 -258.5z" />
    <glyph glyph-name="four" unicode="4" 
d="M1333 580v-9l-33 -188q-3 -17 -17.5 -29t-31.5 -12h-135l-51 -301q-3 -17 -16.5 -29t-30.5 -12h-273q-30 0 -30 33v8l51 301h-592q-15 0 -24 9.5t-9 23.5v8l35 199q5 30 35 63l797 848q29 29 57 29h219q15 0 24 -9.5t9 -23.5v-8l-152 -869h135q15 0 24 -9t9 -23z
M901 1044q0 9 -6 9q-4 0 -8 -4l-379 -416q-6 -6 -6 -12q0 -9 12 -9h311l76 428v4z" />
    <glyph glyph-name="five" unicode="5" 
d="M1382 1485v-2l-36 -205q-3 -17 -17 -28t-31 -11h-557l-75 -283h59q537 0 537 -378q0 -303 -170.5 -449.5t-481.5 -146.5q-211 0 -391 59q-35 13 -35 37v6v2l29 162q3 17 16 27t29 10h2h2q227 -25 363 -25q150 0 216 70.5t66 220.5q0 81 -55.5 109t-206.5 28h-317
q-10 0 -16.5 7.5t-6.5 17.5v4v2l199 764q5 15 18.5 27t28.5 12h797q15 0 24.5 -9.5t9.5 -23.5v-4z" />
    <glyph glyph-name="six" unicode="6" 
d="M1370 1499q24 -6 32 -15.5t5 -29.5l-31 -178q-5 -28 -16 -37.5t-39 -5.5q-199 29 -367 29q-149 0 -216.5 -65t-92.5 -234l-2 -15q137 25 246 25q92 0 169 -22.5t136 -67.5t92 -117.5t33 -165.5q0 -195 -79 -336t-216.5 -211.5t-318.5 -70.5q-232 0 -357 116t-125 328
q0 53 13.5 144.5t54.5 326.5q33 190 89.5 316t143.5 198t193.5 100.5t257.5 28.5q231 0 395 -41zM975 569q0 88 -48.5 124t-135.5 36q-69 0 -191 -20q-3 -16 -12.5 -65t-13.5 -73.5t-8.5 -63.5t-4.5 -71q0 -106 42.5 -147t121.5 -41q88 0 146 46t81 115.5t23 159.5z" />
    <glyph glyph-name="seven" unicode="7" 
d="M1016 1229q0 10 -12 10h-560q-43 0 -36 39l36 205q7 39 50 39h886q69 0 58 -68l-27 -149q-1 -4 -2 -8.5t-3 -10t-3.5 -9.5t-5.5 -10.5t-5.5 -9.5t-6.5 -11t-7 -11t-8 -12.5t-8 -12.5l-746 -1171q-23 -39 -57 -39h-289q-32 0 -32 20q0 14 10 27l764 1170q4 8 4 12z" />
    <glyph glyph-name="eight" unicode="8" 
d="M1409 1165q0 -256 -227 -374q121 -100 121 -265q0 -141 -48 -247.5t-135 -170.5t-199.5 -95t-250.5 -31h-23q-211 0 -339 102.5t-128 277.5q0 135 62.5 244t179.5 185q-113 101 -113 258q0 134 48.5 232t135.5 153t193.5 80.5t237.5 25.5h22q222 0 342.5 -101.5
t120.5 -273.5zM1081 1149q0 135 -180 135h-22q-119 0 -182.5 -62t-63.5 -180q0 -62 39.5 -97.5t118.5 -35.5h63q106 0 166.5 67.5t60.5 172.5zM965 514q0 65 -37.5 107.5t-116.5 42.5h-63q-73 0 -127 -41.5t-78.5 -103t-24.5 -132.5q0 -147 176 -147h23q120 0 184 77t64 197
z" />
    <glyph glyph-name="nine" unicode="9" 
d="M1370 1096q0 -86 -67 -471q-33 -190 -89.5 -316t-143.5 -198t-194 -100.5t-258 -28.5q-231 0 -395 41q-37 10 -37 34v11l31 178q5 27 17 37t38 6q174 -29 367 -29q149 0 216.5 65t92.5 234l2 14q-132 -24 -245 -24q-124 0 -219 39t-153.5 124.5t-58.5 209.5
q0 295 173 456.5t468 161.5q214 0 334.5 -117t120.5 -327zM1032 1085q0 106 -43 147.5t-121 41.5q-67 0 -116.5 -26t-78 -72t-42 -101.5t-13.5 -122.5q0 -88 48.5 -123.5t136.5 -35.5q68 0 190 20q3 16 12.5 64.5t13.5 73.5t8.5 63.5t4.5 70.5z" />
    <glyph glyph-name="colon" unicode=":" horiz-adv-x="563" 
d="M633 1090v-9l-45 -258q-3 -17 -16.5 -28t-30.5 -11h-240q-15 0 -26 10t-11 23v6l45 258q3 17 18 29t33 12h240q15 0 24 -9t9 -23zM496 305v-6l-45 -258q-3 -17 -18 -29t-32 -12h-239q-15 0 -25 10t-10 25v6l45 258q3 17 17 28t32 11h240q15 0 25 -9t10 -24z" />
    <glyph glyph-name="semicolon" unicode=";" horiz-adv-x="563" 
d="M633 1087v-6l-45 -258q-3 -17 -17 -28t-32 -11h-240q-15 0 -25 9t-10 24v6l45 258q3 17 17.5 29t31.5 12h240q15 0 25 -10t10 -25zM496 313q0 -4 -7 -18l-274 -459q-13 -21 -23 -31t-26 -10h-180q-12 0 -20.5 7.5t-8.5 17.5q0 4 4 16l211 459q16 39 49 39h250
q25 0 25 -21z" />
    <glyph glyph-name="less" unicode="&#x3c;" 
d="M1204 307q0 -11 -7 -18.5t-17 -7.5h-285q-23 0 -49 22l-477 424q-41 35 -41 74q0 38 41 73l477 424q27 23 49 23h285q10 0 17 -8t7 -19q0 -12 -12 -24l-530 -469l530 -469q12 -12 12 -25z" />
    <glyph glyph-name="equal" unicode="=" 
d="M1270 971q0 -33 -41 -33h-858q-41 0 -41 33v184q0 33 41 33h858q41 0 41 -33v-184zM1270 446q0 -32 -41 -32h-858q-41 0 -41 32v185q0 33 41 33h858q41 0 41 -33v-185z" />
    <glyph glyph-name="greater" unicode="&#x3e;" 
d="M1278 801q0 -37 -43 -74l-475 -424q-26 -22 -49 -22h-285q-10 0 -17.5 7.5t-7.5 18.5q0 12 13 25l530 469l-530 469q-13 13 -13 24t7.5 19t17.5 8h285q22 0 49 -23l475 -424q43 -37 43 -73z" />
    <glyph glyph-name="question" unicode="?" horiz-adv-x="980" 
d="M1104 1286q0 -64 -16.5 -122.5t-50.5 -112t-68 -94.5t-86 -95l-115 -119q-22 -23 -50 -51t-39.5 -40t-26 -27.5t-20 -24t-10 -18.5t-6.5 -21l-10 -57q-3 -18 -19.5 -28.5t-35.5 -10.5h-205q-14 0 -22.5 10t-8.5 23v8l9 55q13 89 38.5 146.5t92.5 128.5l120 129
q3 3 24 25.5t26 27.5t22 25t22.5 29t17 28t15 33t7.5 33t4 38q0 30 -18.5 45t-67.5 15q-105 0 -297 -23h-6q-29 0 -29 29q0 2 1 7t1 7l31 182q3 23 13 35.5t34 18.5q147 43 336 43q176 0 284.5 -71t108.5 -206zM590 303v-6l-47 -258q-3 -17 -16.5 -28t-30.5 -11h-242
q-15 0 -25 9t-10 24v6l47 258q3 17 16.5 29t30.5 12h242q15 0 25 -10t10 -25z" />
    <glyph glyph-name="at" unicode="@" horiz-adv-x="1585" 
d="M1599 805q0 -711 -831 -711q-149 0 -238.5 69.5t-89.5 192.5q0 16 9 72l45 238q19 99 56 167t94.5 105.5t126.5 53.5t163 16q125 0 270 -31q43 -9 43 -47q0 -11 -2 -17l-121 -612q67 11 121 48t88.5 88t57.5 115.5t33 127.5t10 127q0 87 -25.5 158t-77.5 126.5t-138.5 86
t-201.5 30.5q-269 0 -431.5 -126.5t-213.5 -376.5l-65 -328q-17 -96 -17 -131q0 -344 471 -344q68 0 170.5 8t132.5 8h2h2h7q14 0 14 -12v-6v-2l-8 -80q-3 -24 -29 -27q-175 -20 -305 -20q-285 0 -454 124.5t-169 350.5q0 50 15 131l67 338q64 320 274.5 479.5t553.5 159.5
q143 0 257.5 -45.5t186 -122.5t109.5 -174.5t38 -206.5zM991 803q-58 10 -104 10q-73 0 -108 -34t-54 -122l-47 -227q-6 -24 -6 -59q0 -48 29.5 -65t101.5 -17q59 0 86 2z" />
    <glyph glyph-name="A" unicode="A" horiz-adv-x="1370" 
d="M1337 41q0 -18 -11.5 -29.5t-29.5 -11.5h-280q-15 0 -25 11t-10 26l-14 336h-420l-133 -336q-6 -16 -19 -26.5t-28 -10.5h-293q-13 0 -21 7t-8 18q0 6 4 18l529 1270q29 71 72.5 118t97 69.5t102 31t108.5 8.5t105.5 -8.5t90 -31t71 -69.5t30.5 -118l82 -1270v-2z
M958 653l-24 566q0 16 -4 23t-17 7q-22 0 -34 -30l-226 -566h305z" />
    <glyph glyph-name="B" unicode="B" horiz-adv-x="1370" 
d="M1468 1190q0 -136 -60 -249.5t-177 -166.5q65 -38 100 -106t35 -142q0 -89 -22 -164.5t-60.5 -130.5t-94 -98.5t-118.5 -71.5t-137.5 -46t-147.5 -25.5t-153 -7.5q-241 0 -375 24q-51 9 -72.5 28t-21.5 60q0 13 4 45l219 1245q12 68 41 96.5t92 37.5q158 22 375 22
q130 0 232.5 -19.5t180 -60.5t119 -109.5t41.5 -160.5zM1124 1133q0 67 -59 93.5t-199 26.5q-126 0 -155 -2l-64 -354h230q119 0 183 59t64 177zM1024 512q0 141 -190 141h-230l-67 -383q17 0 85.5 -1t82.5 -1q70 0 122.5 10t99.5 35.5t72 75.5t25 123z" />
    <glyph glyph-name="C" unicode="C" horiz-adv-x="1148" 
d="M1323 1464v-4l-35 -198q-7 -41 -49 -41h-2h-2q-203 16 -299 16q-56 0 -102.5 -16.5t-89 -54t-74 -107t-49.5 -168.5l-48 -258q-12 -71 -12 -125q0 -221 207 -221q92 0 305 16h6q15 0 25 -8t10 -23q0 -1 -1 -4.5t-1 -5.5l-37 -199q-4 -21 -16 -31t-37 -16
q-40 -12 -126.5 -23t-184.5 -11q-102 0 -192.5 31.5t-161 91.5t-111.5 157t-41 219q0 78 14 152l47 258q29 157 82 274t119 187.5t153.5 113.5t174 58.5t192.5 15.5q97 0 179.5 -11t119.5 -24q20 -6 28.5 -13.5t8.5 -21.5v-6z" />
    <glyph glyph-name="D" unicode="D" horiz-adv-x="1396" 
d="M1464 1040q0 -76 -14 -147l-47 -264q-61 -345 -242.5 -496t-525.5 -151q-254 0 -430 30q-49 9 -49 51q0 13 2 21l239 1354q6 34 23 50t49 21q190 31 442 31q257 0 405 -132t148 -368zM1112 1014q0 126 -65 177.5t-189 51.5q-87 0 -145 -4l-170 -956q58 -4 145 -4
q77 0 133.5 16t103.5 55t78.5 108t49.5 171l47 264q12 68 12 121z" />
    <glyph glyph-name="E" unicode="E" horiz-adv-x="1189" 
d="M1335 1485q0 -2 -1 -6t-1 -6l-35 -191q-3 -17 -16.5 -29t-30.5 -12h-415q-71 0 -106.5 -26.5t-49.5 -110.5l-33 -189h531q15 0 23.5 -9.5t8.5 -24.5v-7l-32 -194q-3 -17 -18 -29t-32 -12h-530l-39 -217q-6 -30 -6 -53q0 -48 26.5 -67t86.5 -19h415q15 0 25 -10t10 -25v-6
l-35 -191q-3 -20 -14 -30t-33 -13q-192 -26 -397 -26q-67 0 -127 9.5t-118 34t-99.5 62.5t-66.5 98t-25 136q0 42 10 100l121 680q15 83 40 149t55.5 111.5t73 78.5t85 52t99 29.5t107 14t117.5 3.5q200 0 389 -27q20 -3 28.5 -9t8.5 -19z" />
    <glyph glyph-name="F" unicode="F" horiz-adv-x="1189" 
d="M1335 1481q0 -1 -1 -5t-1 -6l-35 -190q-3 -17 -16.5 -29t-30.5 -12h-415q-73 0 -108 -30.5t-48 -108.5l-33 -185h531q15 0 23.5 -9t8.5 -23v-9l-32 -194q-3 -17 -18 -29t-32 -12h-530l-104 -598q-3 -17 -18 -29t-32 -12h-266q-15 0 -24 9.5t-9 23.5v8l187 1059
q17 95 46 167t71 119.5t89 78.5t110 47t122 22t137 6q46 0 87 -1t76 -3t60.5 -4t54.5 -5.5t42.5 -5.5t39.5 -5.5t31 -4.5q37 -6 37 -30z" />
    <glyph glyph-name="G" unicode="G" 
d="M1446 1468v-6l-39 -217q-3 -16 -11 -21t-24 -5h-6q-24 1 -106 5.5t-161 7.5t-157 3q-66 0 -115.5 -15t-93 -52.5t-73.5 -107t-48 -173.5l-45 -256q-14 -89 -14 -135q0 -213 182 -213q87 0 160 6l82 471q3 17 16.5 29t30.5 12h262q15 0 24 -9.5t9 -23.5v-8l-121 -688
q-3 -22 -13.5 -32.5t-35.5 -14.5q-215 -43 -467 -43q-66 0 -131 16t-129.5 53.5t-113 93t-79 142t-30.5 192.5q0 77 14 154l45 254q21 118 55.5 213.5t76 163t96.5 117.5t111 80t125.5 48t133.5 24.5t141 6.5q203 0 420 -47q29 -8 29 -25z" />
    <glyph glyph-name="H" unicode="H" horiz-adv-x="1492" 
d="M1612 1489v-6l-254 -1442q-3 -17 -17.5 -29t-31.5 -12h-269q-15 0 -23.5 9.5t-8.5 23.5v8l102 592h-506l-102 -592q-3 -17 -17.5 -29t-31.5 -12h-269q-15 0 -23.5 9.5t-8.5 23.5v8l254 1442q3 17 16.5 28t30.5 11h268q15 0 25 -9t10 -24v-6l-97 -545h506l97 545
q3 17 16.5 28t30.5 11h268q15 0 25 -9t10 -24z" />
    <glyph glyph-name="I" unicode="I" horiz-adv-x="636" 
d="M756 1491v-8l-254 -1442q-3 -17 -16.5 -29t-30.5 -12h-275q-13 0 -20.5 9t-7.5 22v10l254 1442q7 39 43 39h274q15 0 24 -8.5t9 -22.5z" />
    <glyph glyph-name="J" unicode="J" horiz-adv-x="636" 
d="M756 1489v-6l-264 -1495q-18 -101 -58 -172.5t-99 -110t-125.5 -55.5t-148.5 -17q-49 0 -129 9q-24 3 -24 28v6l37 209q2 11 10 20t18 9h103q33 0 46 16.5t19 57.5l265 1495q3 17 16.5 28t30.5 11h268q15 0 25 -9.5t10 -23.5z" />
    <glyph glyph-name="K" unicode="K" horiz-adv-x="1388" 
d="M1602 1501q0 -11 -17 -31l-633 -692l361 -735q4 -6 4 -18q0 -11 -9 -18t-24 -7h-330q-17 0 -25.5 7t-15.5 22l-295 676l-116 -664q-3 -17 -17.5 -29t-31.5 -12h-269q-15 0 -23.5 9.5t-8.5 23.5v8l254 1442q3 17 16.5 28t30.5 11h268q15 0 25 -9t10 -24v-6l-111 -621
l541 635q22 25 49 25h336q31 0 31 -21z" />
    <glyph glyph-name="L" unicode="L" horiz-adv-x="1062" 
d="M1061 248v-6l-35 -191q-3 -20 -13 -29t-34 -14q-52 -10 -155 -18t-185 -8q-71 0 -132 10t-117 34.5t-96 62t-63.5 96.5t-23.5 134q0 41 10 103l186 1059q3 17 18 29t32 12h268q15 0 24 -9.5t9 -23.5v-8l-187 -1059q-6 -30 -6 -53q0 -48 26.5 -67t86.5 -19h352
q15 0 25 -10t10 -25z" />
    <glyph glyph-name="M" unicode="M" horiz-adv-x="1671" 
d="M1786 1464q0 -2 -1 -6.5t-1 -7.5l-252 -1421q-5 -29 -39 -29h-270q-12 0 -18.5 9.5t-6.5 23.5v8l150 854v6q0 10 -9 10q-7 0 -18 -14l-244 -338q-25 -35 -67 -35h-164q-41 0 -55 35l-125 338q-6 14 -15 14q-10 0 -12 -16l-150 -854q-3 -17 -14.5 -29t-25.5 -12h-271
q-12 0 -21.5 6t-9.5 17v6l252 1423q6 32 29.5 51t56.5 19h179q59 0 79 -56l211 -583q10 -27 19 -27q2 0 4.5 1t5 4t4.5 5.5t6 8t6 8.5l416 583q40 56 101 56h206q29 0 46.5 -16t17.5 -42z" />
    <glyph glyph-name="N" unicode="N" horiz-adv-x="1492" 
d="M1612 1489v-6l-248 -1405q-6 -33 -32 -55.5t-58 -22.5h-172q-87 0 -113 63l-340 807q-9 17 -16 17q-9 0 -12 -17l-146 -829q-3 -17 -17.5 -29t-31.5 -12h-242q-15 0 -23.5 10t-8.5 25v6l245 1403q6 32 33 55t59 23h156q86 0 111 -64l352 -844l2.5 -5t2 -4.5t1.5 -3
t1.5 -2t1.5 -1t3 -0.5q12 0 15 18l153 867q3 17 16.5 28t30.5 11h242q15 0 25 -9.5t10 -23.5z" />
    <glyph glyph-name="O" unicode="O" horiz-adv-x="1429" 
d="M1491 1042q0 -79 -14 -159l-43 -244q-61 -348 -242 -502.5t-481 -154.5q-107 0 -197.5 31.5t-159.5 92.5t-108 157.5t-39 219.5q0 79 14 156l43 244q26 149 77 263t117.5 188t153 121t177.5 66t198 19q105 0 194.5 -29.5t159.5 -88.5t110 -156t40 -224zM1139 1018
q0 113 -51 164t-156 51q-131 0 -206 -80.5t-108 -269.5l-43 -244q-14 -77 -14 -143q0 -112 50 -159.5t155 -47.5q130 0 206.5 83.5t108.5 266.5l43 244q15 96 15 135z" />
    <glyph glyph-name="P" unicode="P" horiz-adv-x="1335" 
d="M1454 1124q0 -23 -4 -77l-2 -19q-55 -496 -698 -496q-29 0 -94 3.5t-72 3.5l-86 -498q-3 -17 -17.5 -29t-31.5 -12h-265q-15 0 -24.5 9t-9.5 24v6l243 1376q9 50 33 70t76 28q179 27 422 27q245 0 387.5 -102.5t142.5 -313.5zM1104 1085q0 87 -54.5 125.5t-172.5 38.5
q-93 0 -168 -6l-74 -418q46 -4 166 -4q276 0 299 207l2 19q2 14 2 38z" />
    <glyph glyph-name="Q" unicode="Q" horiz-adv-x="1429" 
d="M1491 1042q0 -79 -14 -159l-43 -244q-53 -297 -192 -452t-365 -193l-7 -37v-6v-10q0 -22 10 -28.5t33 -6.5h185q16 0 29.5 -6.5t13.5 -20.5v-6l-29 -168q-6 -32 -55 -45q-114 -27 -234 -27q-288 0 -288 246q0 35 6 76l8 47q-157 41 -249.5 164t-92.5 317q0 79 14 156
l43 244q26 149 77 263t117.5 188t153 121t177.5 66t198 19q105 0 194.5 -29.5t159.5 -88.5t110 -156t40 -224zM1139 1018q0 113 -51 164t-156 51q-131 0 -206 -80.5t-108 -269.5l-43 -244q-14 -77 -14 -143q0 -112 50 -159.5t155 -47.5q130 0 206.5 83.5t108.5 266.5l43 244
q15 96 15 135z" />
    <glyph glyph-name="R" unicode="R" horiz-adv-x="1392" 
d="M1460 1149q0 -190 -86 -327t-260 -197l207 -578q4 -12 4 -16q0 -13 -9.5 -22t-27.5 -9h-297q-7 0 -11.5 2t-8 7t-5 8.5t-4.5 11.5t-4 12l-184 518h-2q-3 0 -15.5 -1t-21.5 -1q-22 0 -74 2t-71 2l-90 -520q-3 -17 -17.5 -29t-31.5 -12h-267q-15 0 -23.5 9.5t-8.5 23.5v6v2
l241 1374q9 50 33 70t76 28q165 27 422 27q118 0 214 -22.5t169 -69t113 -122.5t40 -177zM1110 1104q0 77 -57.5 108t-182.5 31q-84 0 -159 -6l-70 -393q46 -4 143 -4q80 0 136.5 11.5t101 40t66.5 81t22 131.5z" />
    <glyph glyph-name="S" unicode="S" horiz-adv-x="1204" 
d="M1333 1466v-8l-37 -207q-6 -34 -41 -34h-4q-314 22 -430 22q-42 0 -71 -4.5t-56 -17.5t-41 -40.5t-14 -68.5q0 -32 20 -54.5t84 -64.5l238 -155q219 -142 219 -328q0 -136 -50.5 -239t-139.5 -164t-201.5 -91t-245.5 -30q-220 0 -387 45q-33 7 -33 34v7l35 200
q6 39 43 39h6q246 -24 385 -24q211 0 211 168q0 74 -106 143l-252 166q-93 61 -138.5 143.5t-45.5 173.5q0 104 33.5 185t89 132.5t134.5 85t163.5 47t181.5 13.5q107 0 237 -14.5t189 -30.5q24 -6 24 -29z" />
    <glyph glyph-name="T" unicode="T" horiz-adv-x="1202" 
d="M1413 1489v-6l-37 -211q-3 -17 -18 -28t-33 -11h-332l-209 -1192q-3 -17 -17.5 -29t-31.5 -12h-268q-15 0 -24 9.5t-9 23.5v8l209 1192h-334q-15 0 -24 8.5t-9 22.5v8l37 211q3 17 16.5 28t30.5 11h1016q15 0 26 -10t11 -23z" />
    <glyph glyph-name="U" unicode="U" horiz-adv-x="1456" 
d="M1581 1489v-6l-162 -912q-19 -108 -50.5 -194.5t-70 -147.5t-90 -105.5t-103.5 -71.5t-118 -43t-127 -21.5t-137 -5.5q-110 0 -199.5 26t-157 79t-104.5 139t-37 200q0 76 13 145l161 912q3 17 16.5 28t30.5 11h269q15 0 25 -9.5t10 -23.5v-6l-162 -912q-13 -73 -13 -120
q0 -93 47 -135t154 -42q135 0 200 68.5t93 228.5l162 912q3 17 16.5 28t30.5 11h266q15 0 26 -9t11 -24z" />
    <glyph glyph-name="V" unicode="V" horiz-adv-x="1404" 
d="M1610 1497q0 -6 -4 -18l-529 -1270q-29 -71 -72.5 -118t-96.5 -69.5t-101.5 -31t-108.5 -8.5q-47 0 -84.5 4.5t-77.5 19t-67.5 38.5t-47 66t-22.5 99l-82 1270v2q0 19 12 30t31 11h275q15 0 25 -11t10 -26l47 -1182q0 -18 4.5 -24.5t17.5 -6.5q24 0 35 31l465 1182
q15 37 45 37h297q13 0 21 -7t8 -18z" />
    <glyph glyph-name="W" unicode="W" horiz-adv-x="1820" 
d="M2050 1501q0 -6 -2 -10l-426 -1341q-27 -86 -79 -121t-138 -35h-102q-74 0 -123.5 33.5t-55.5 105.5l-53 612q-1 12 -3.5 14.5t-10.5 2.5q-15 0 -21 -17l-270 -612q-60 -139 -213 -139h-104q-77 0 -125 56.5t-48 142.5v10l46 1288q0 31 38 31h271q12 0 19 -10t7 -25v-4
l-71 -1098v-10q0 -17 8 -17q6 0 18 27l248 563q44 99 144 99h202q103 0 111 -99l47 -563q3 -27 10 -27q11 0 17 27l317 1098q4 17 15.5 28t23.5 11h274q12 0 20.5 -5.5t8.5 -15.5z" />
    <glyph glyph-name="X" unicode="X" horiz-adv-x="1439" 
d="M1602 1499q0 -5 -7 -16l-551 -723l316 -719q4 -12 4 -14q0 -12 -9.5 -19.5t-23.5 -7.5h-293q-20 0 -29.5 6.5t-17.5 24.5l-190 432l-314 -422q-30 -41 -59 -41h-303q-12 0 -19.5 6t-7.5 14q0 9 8 21l558 739l-308 703q-2 4 -2 10q0 11 11 20t24 9h297q28 0 45 -39
l180 -414l303 414q30 39 58 39h303q12 0 19.5 -7t7.5 -16z" />
    <glyph glyph-name="Y" unicode="Y" horiz-adv-x="1329" 
d="M1546 1497q0 -11 -6 -20l-434 -709q-77 -127 -160 -158l-100 -569q-3 -17 -17.5 -29t-31.5 -12h-269q-15 0 -23.5 10t-8.5 25v6l100 569q-76 32 -109 158l-184 709q0 1 -1 4t-1 4q0 15 12 26t29 11h287q27 0 35 -35l118 -578q4 -19 10 -24.5t17 -5.5t18 5.5t17 24.5
l323 578q19 35 47 35h304q28 0 28 -25z" />
    <glyph glyph-name="Z" unicode="Z" horiz-adv-x="1259" 
d="M1403 1475v-11q-12 -78 -33 -186q-5 -24 -27 -53l-712 -885q-15 -19 -15 -27q0 -10 21 -10h532q15 0 25 -9t10 -22v-6l-39 -225q-3 -17 -17.5 -29t-31.5 -12h-930q-75 0 -75 51q0 2 1 6t1 6l30 164q10 48 45 90l703 865q12 15 12 24q0 13 -20 13h-488q-15 0 -25 8.5
t-10 23.5v6l41 226q3 17 17 28t31 11h882q31 0 51.5 -12.5t20.5 -34.5z" />
    <glyph glyph-name="bracketleft" unicode="[" horiz-adv-x="765" 
d="M963 1489v-8l-31 -178q-3 -17 -16.5 -29t-30.5 -12h-197l-248 -1399h199q15 0 25 -10t10 -25v-6l-33 -178q-3 -17 -16.5 -29t-30.5 -12h-500q-13 0 -20.5 8.5t-7.5 21.5v9l325 1841q3 16 15 27.5t26 11.5h498q15 0 24 -9.5t9 -23.5z" />
    <glyph glyph-name="backslash" unicode="\" horiz-adv-x="829" 
d="M807 29q0 -15 -14.5 -27t-30.5 -12h-260q-27 0 -31 43l-182 1448v4q0 14 14.5 25.5t30.5 11.5h258q31 0 35 -41l180 -1448v-4z" />
    <glyph glyph-name="bracketright" unicode="]" horiz-adv-x="765" 
d="M899 1491v-8l-326 -1841q-3 -16 -15 -27.5t-26 -11.5h-499q-15 0 -25 10t-10 25v6l33 178q3 17 16.5 29t30.5 12h198l248 1399h-196q-15 0 -25 9.5t-10 24.5v7l31 178q3 17 17.5 29t31.5 12h497q13 0 21 -9t8 -22z" />
    <glyph glyph-name="asciicircum" unicode="^" 
d="M1350 1176q0 -19 -25 -19h-266q-25 0 -36.5 6t-27.5 25l-164 182l-163 -182q-16 -19 -27.5 -25t-36.5 -6h-266q-25 0 -25 19q0 9 11 24l227 303q15 22 29 29.5t41 7.5h421q27 0 39.5 -7t30.5 -30l227 -303q11 -15 11 -24z" />
    <glyph glyph-name="underscore" unicode="_" horiz-adv-x="1107" 
d="M1153 -106v-7l-16 -98q-6 -33 -47 -33h-1156q-34 0 -34 27v6l16 98q6 33 47 33h1155q35 0 35 -26z" />
    <glyph glyph-name="grave" unicode="`" horiz-adv-x="907" 
d="M823 1309q0 -19 -22 -19h-203q-6 0 -10.5 0.5t-8 2t-6 2t-5.5 4t-4.5 4.5t-5.5 5.5t-5 6.5l-205 250q-6 9 -6 14q0 16 25 16h254q21 0 30.5 -6t20.5 -24l145 -240q6 -9 6 -16z" />
    <glyph glyph-name="a" unicode="a" horiz-adv-x="1189" 
d="M797 1190q230 0 424 -51q36 -9 46.5 -20.5t6.5 -41.5l-180 -1036q-7 -41 -47 -41h-209q-18 0 -28 10.5t-7 30.5l8 59q-152 -118 -317 -118q-89 0 -157 32t-108 88t-59.5 124.5t-19.5 148.5q0 49 10 114q27 154 33 193q87 508 604 508zM911 905q-80 13 -157 13
q-105 0 -158 -61t-76 -191l-37 -215q-6 -35 -6 -68q0 -125 117 -125q91 0 217 72z" />
    <glyph glyph-name="b" unicode="b" horiz-adv-x="1220" 
d="M1264 780q0 -42 -11 -114l-26 -160q-45 -269 -198 -396.5t-411 -127.5q-218 0 -425 53q-36 9 -47.5 21.5t-6.5 37.5l254 1436q7 41 49 41h248q19 0 29 -10t6 -31l-63 -354q107 14 169 14q209 0 321 -111t112 -299zM932 766q0 74 -34 111.5t-114 37.5q-85 0 -170 -10
l-112 -639q74 -12 166 -12q105 0 155.5 60.5t71.5 191.5l27 160q10 62 10 100z" />
    <glyph glyph-name="c" unicode="c" horiz-adv-x="970" 
d="M778 1190q147 0 269 -31q26 -7 31.5 -16t2.5 -31l-32 -182q-2 -14 -5.5 -21t-14.5 -11.5t-30 -2.5q-137 14 -247 14q-82 0 -133 -51.5t-76 -185.5l-31 -172q-10 -65 -10 -99q0 -79 34 -109t103 -30q115 0 252 14q22 3 31 -6.5t6 -27.5l-33 -183q-4 -23 -14.5 -32
t-36.5 -15q-126 -30 -273 -30q-183 0 -293 105t-110 292q0 57 12 121l31 172q49 276 191 397t376 121z" />
    <glyph glyph-name="d" unicode="d" horiz-adv-x="1220" 
d="M1085 1571h246q45 0 37 -41l-254 -1436q-5 -26 -19 -38t-55 -21q-225 -53 -444 -53q-201 0 -314.5 115t-113.5 302q0 58 8 107l27 160q47 279 191.5 401.5t414.5 122.5q66 0 166 -14l63 354q7 41 47 41zM928 905q-78 10 -166 10q-108 0 -157.5 -58t-72.5 -191l-26 -160
q-10 -68 -10 -109q0 -73 33.5 -108t115.5 -35q88 0 170 12z" />
    <glyph glyph-name="e" unicode="e" horiz-adv-x="1208" 
d="M1241 762q0 -49 -10 -111l-21 -119q-9 -49 -51 -49h-657q-8 -62 -8 -84q0 -79 41.5 -111t140.5 -32q145 0 397 18q26 2 34 -4.5t5 -27.5l-29 -156q-5 -26 -14.5 -37.5t-36.5 -17.5q-203 -49 -430 -49q-68 0 -130 15t-117 48t-95.5 80t-64 116t-23.5 152q0 47 10 115
l25 143q46 266 202.5 402.5t409.5 136.5q200 0 311 -120.5t111 -307.5zM932 778q0 73 -38 109.5t-122 36.5q-99 0 -154.5 -61.5t-80.5 -174.5h385q10 55 10 90z" />
    <glyph glyph-name="f" unicode="f" horiz-adv-x="806" 
d="M879 1354q-48 0 -66.5 -20t-28.5 -87l-12 -73h174q43 0 35 -44l-29 -163q-4 -25 -14 -33t-35 -8h-174l-166 -928q-16 -92 -45.5 -157t-65 -102.5t-89 -58.5t-104.5 -27.5t-124 -6.5q-42 0 -143 18q-33 8 -33 31v4l27 156q6 36 41 36h82q68 0 89 18t33 89l164 928l-155 24
q-40 5 -33 54l22 126q4 25 15.5 34.5t34.5 9.5h159l13 73q15 90 43 154t63.5 102.5t88 60t105.5 28.5t128 7q44 0 145 -18q15 -3 25.5 -13t7.5 -24l-27 -151q-3 -21 -12.5 -30t-32.5 -9h-106z" />
    <glyph glyph-name="g" unicode="g" horiz-adv-x="1173" 
d="M1270 1096q0 -2 -1 -7t-1 -8l-191 -1085q-38 -218 -175 -314t-394 -96q-224 0 -381 56q-33 11 -33 36q0 3 1 8.5t1 8.5l25 137q6 37 43 37h4q281 -25 387 -25q104 0 141.5 30.5t55.5 121.5l4 22q-85 -18 -166 -18q-94 0 -174 25.5t-140.5 75t-94.5 128.5t-34 179
q0 59 11 118l24 140q51 283 192.5 403.5t413.5 120.5q227 0 426 -51q56 -14 56 -43zM911 901q-86 14 -170 14q-102 0 -154.5 -64.5t-74.5 -184.5l-25 -140q-10 -65 -10 -100q0 -88 42 -122t122 -34q51 0 162 15z" />
    <glyph glyph-name="h" unicode="h" horiz-adv-x="1253" 
d="M1272 848q0 -49 -8 -90l-125 -717q-3 -17 -17.5 -29t-31.5 -12h-250q-15 0 -24 9.5t-9 23.5v8l125 715q6 35 6 57q0 59 -36 83t-120 24q-92 0 -168 -17l-151 -860q-3 -17 -17.5 -30t-31.5 -13h-248q-15 0 -25 11t-10 26v6l262 1487q3 17 16.5 29t30.5 12h250q15 0 25 -10
t10 -25v-6l-66 -367q128 27 220 27q193 0 293 -93.5t100 -248.5z" />
    <glyph glyph-name="i" unicode="i" horiz-adv-x="593" 
d="M393 1307q-19 0 -27.5 11t-5.5 30l33 190q7 41 49 41h267q40 0 32 -41l-32 -190q-7 -41 -50 -41h-266zM629 1174q41 0 35 -41l-193 -1092q-7 -41 -49 -41h-250q-19 0 -27.5 11t-5.5 30l193 1092q3 17 16.5 29t30.5 12h250z" />
    <glyph glyph-name="j" unicode="j" horiz-adv-x="593" 
d="M393 1307q-18 0 -27 12.5t-6 28.5l33 190q7 41 49 41h265q39 0 34 -41l-32 -190q-7 -41 -52 -41h-264zM39 -162q41 0 55.5 20t24.5 76l211 1196q8 44 47 44h254q40 0 31 -44l-211 -1196q-24 -139 -72 -215.5t-120.5 -105.5t-192.5 -29q-76 0 -162 15q-39 6 -33 41l29 161
q6 37 49 37h90z" />
    <glyph glyph-name="k" unicode="k" horiz-adv-x="1204" 
d="M1348 1155q0 -12 -13 -25l-491 -518l289 -569q8 -12 1 -27.5t-28 -15.5h-301q-34 0 -51 43l-209 467l-82 -467q-3 -17 -17.5 -30t-31.5 -13h-248q-18 0 -28 11t-7 32l262 1487q7 41 49 41h248q42 0 35 -41l-147 -830l374 443q25 31 60 31h309q12 0 19.5 -5.5t7.5 -13.5z
" />
    <glyph glyph-name="l" unicode="l" horiz-adv-x="577" 
d="M725 1538v-8l-262 -1487q-3 -18 -16.5 -30.5t-30.5 -12.5h-250q-15 0 -25 11t-10 26v6l262 1487q3 17 17.5 29t31.5 12h250q15 0 24 -9.5t9 -23.5z" />
    <glyph glyph-name="m" unicode="m" horiz-adv-x="1792" 
d="M1812 866q0 -64 -12 -125l-123 -698q-3 -17 -18.5 -30t-32.5 -13h-248q-14 0 -23 10.5t-9 24.5v8l122 698q11 64 11 88q0 44 -23.5 63t-83.5 19q-91 0 -166 -32q0 -59 -14 -138l-123 -698q-3 -17 -17.5 -30t-31.5 -13h-248q-15 0 -25 11t-10 26v6l123 698q12 74 12 97
q0 38 -17 55.5t-64 17.5q-65 0 -187 -61l-141 -807q-3 -17 -17.5 -30t-31.5 -13h-248q-15 0 -25 11t-10 26v6l193 1090q3 17 16.5 29t30.5 12h223q15 0 25 -10t10 -25v-6l-8 -48q76 49 144 77t144 28q163 0 238 -92q88 51 171.5 71.5t190.5 20.5q82 0 142.5 -25.5
t94.5 -71.5t50 -102.5t16 -124.5z" />
    <glyph glyph-name="n" unicode="n" horiz-adv-x="1253" 
d="M1270 850q0 -52 -13 -125l-118 -682q-3 -17 -19 -30t-33 -13h-247q-14 0 -23.5 10.5t-9.5 24.5v8l119 682q10 58 10 90q0 100 -111 100q-54 0 -118 -20.5t-103 -44.5l-141 -807q-3 -17 -17.5 -30t-31.5 -13h-248q-15 0 -25 11t-10 26v6l193 1090q3 17 16.5 29t30.5 12
h223q15 0 25 -10t10 -25v-6l-8 -50q141 107 319 107q143 0 236.5 -84.5t93.5 -255.5z" />
    <glyph glyph-name="o" unicode="o" horiz-adv-x="1208" 
d="M1245 776q0 -44 -12 -119l-27 -143q-51 -267 -195.5 -399.5t-410.5 -132.5q-204 0 -317 115t-113 302q0 66 10 115l27 143q52 276 200.5 404.5t405.5 128.5q204 0 318 -112t114 -302zM913 752q0 155 -149 155q-91 0 -147 -59t-80 -191l-27 -143q-10 -62 -10 -98
q0 -79 37 -116.5t114 -37.5q97 0 149.5 61.5t76.5 190.5l26 143q10 58 10 95z" />
    <glyph glyph-name="p" unicode="p" horiz-adv-x="1220" 
d="M1264 776q0 -38 -11 -110l-26 -160q-46 -275 -196 -399.5t-394 -124.5q-72 0 -182 14l-64 -354q-3 -17 -16.5 -29t-30.5 -12h-248q-15 0 -26 9.5t-11 24.5v7l254 1435q5 26 19 38.5t55 21.5q225 53 444 53q203 0 318 -112.5t115 -301.5zM932 772q0 73 -33.5 108
t-114.5 35q-102 0 -170 -10l-112 -639q86 -12 153 -12q103 0 159 53.5t81 198.5l27 160q10 68 10 106z" />
    <glyph glyph-name="q" unicode="q" horiz-adv-x="1220" 
d="M1290 1094q0 -11 -2 -17l-254 -1435q-3 -17 -17.5 -29t-31.5 -12h-246q-15 0 -24.5 9.5t-9.5 24.5v7l63 354q-74 -14 -158 -14q-94 0 -172.5 23t-140.5 70t-96.5 126.5t-34.5 183.5q0 67 10 121l27 160q44 269 192 396.5t414 127.5q219 0 426 -53q31 -7 43 -17t12 -26z
M928 905q-62 10 -166 10q-105 0 -156 -59t-74 -190l-26 -160q-10 -65 -10 -98q0 -89 39 -121.5t120 -32.5q42 0 160 12z" />
    <glyph glyph-name="r" unicode="r" horiz-adv-x="811" 
d="M969 1155v-6l-35 -195q-3 -15 -13.5 -27t-23.5 -12h-16q-135 0 -277 -71l-141 -801q-3 -17 -17.5 -30t-31.5 -13h-248q-15 0 -25 10.5t-10 24.5v8l193 1090q3 17 16.5 29t30.5 12h243q15 0 25 -9.5t10 -23.5v-8l-8 -41q70 59 136 78.5t157 19.5q15 0 25 -10t10 -25z" />
    <glyph glyph-name="s" unicode="s" horiz-adv-x="1030" 
d="M1102 1106v-10l-29 -166q-7 -39 -41 -39h-6q-192 27 -336 27h-8q-20 0 -32.5 -0.5t-29.5 -4.5t-27 -11.5t-17 -21.5t-7 -34q0 -34 49 -64l228 -145q162 -105 162 -254q0 -87 -27.5 -155.5t-74.5 -114t-112.5 -75.5t-137.5 -43t-154 -13q-210 0 -365 45q-31 9 -31 36v11
l31 166q6 39 47 39h6q226 -29 345 -29q32 0 51.5 2.5t41 11t32 28t10.5 50.5q0 42 -62 82l-239 154q-66 42 -99.5 107t-33.5 136q0 83 26.5 148t71 106t107 67.5t129.5 37t145 10.5q182 0 356 -47q31 -9 31 -37z" />
    <glyph glyph-name="t" unicode="t" horiz-adv-x="862" 
d="M997 1139v-6l-30 -166q-3 -17 -16.5 -29t-30.5 -12h-168l-107 -596q-6 -38 -6 -58q0 -23 12 -31t45 -8h101q37 0 37 -28v-6l-29 -160q-7 -35 -45 -41q-101 -16 -166 -16q-144 0 -217.5 57.5t-73.5 187.5q0 40 10 105l105 594l-160 26q-35 7 -35 37v6l23 135
q3 17 18.5 30.5t32.5 13.5h164l28 167q6 34 50 41l258 43h6q31 0 31 -28v-6l-39 -217h168q15 0 24.5 -10t9.5 -25z" />
    <glyph glyph-name="u" unicode="u" horiz-adv-x="1253" 
d="M1329 1137v-7l-192 -1089q-3 -17 -16.5 -29t-30.5 -12h-230q-15 0 -25 9.5t-10 23.5v8l11 49q-83 -54 -156 -81t-170 -27q-152 0 -236 90t-84 252q0 52 13 125l119 681q3 17 18.5 30.5t32.5 13.5h248q14 0 23 -10.5t9 -24.5v-9l-118 -681q-11 -64 -11 -95q0 -53 28 -75.5
t99 -22.5q32 0 95.5 20.5t109.5 47.5l141 806q3 17 18 30.5t32 13.5h247q15 0 25 -11t10 -26z" />
    <glyph glyph-name="v" unicode="v" horiz-adv-x="1198" 
d="M1356 1145q0 -7 -4 -19l-422 -929q-29 -65 -69 -109.5t-85.5 -66.5t-88 -30.5t-93.5 -8.5q-50 0 -89 8.5t-76.5 30.5t-61 66.5t-29.5 109.5l-92 929v4q0 18 12 31t27 13h260q15 0 24 -12.5t11 -31.5l34 -802q3 -43 25 -43t39 43l317 802q8 19 22.5 31.5t29.5 12.5h280
q12 0 20.5 -8.5t8.5 -20.5z" />
    <glyph glyph-name="w" unicode="w" horiz-adv-x="1730" 
d="M1872 1147q0 -11 -2 -17l-357 -987q-30 -82 -80.5 -112.5t-123.5 -30.5h-125q-71 0 -108 35t-42 96l-43 535q0 7 -1.5 8.5t-6.5 1.5q-8 0 -12 -10l-232 -535q-55 -131 -194 -131h-125q-73 0 -114.5 31t-41.5 112l-8 987q0 18 11 31t28 13h240q20 0 28 -6t8 -27v-2
l-14 -783v-2q0 -24 8 -24q9 0 21 26l237 545q23 53 51.5 72.5t79.5 19.5h168q51 0 73 -19.5t26 -72.5l41 -541q3 -26 10 -26q8 0 18 26l258 779q7 22 17.5 28.5t31.5 6.5h250q11 0 18 -8t7 -19z" />
    <glyph glyph-name="x" unicode="x" horiz-adv-x="1263" 
d="M1356 1153q0 -15 -8 -23l-433 -536l275 -551q2 -4 2 -12q0 -12 -7.5 -21.5t-19.5 -9.5h-293q-16 0 -23.5 8.5t-19.5 34.5l-147 317l-246 -319q-19 -24 -31.5 -32.5t-29.5 -8.5h-275q-18 0 -18 18q0 12 8 23l459 569l-258 520q-4 8 -4 15q0 11 7.5 20t18.5 9h293
q16 0 24 -10t19 -34l133 -282l217 282q20 25 33 34.5t29 9.5h274q9 0 15 -6.5t6 -14.5z" />
    <glyph glyph-name="y" unicode="y" horiz-adv-x="1212" 
d="M1368 1143q0 -5 -4 -17l-557 -1206q-46 -98 -84 -155.5t-95 -101t-132.5 -60.5t-188.5 -17q-56 0 -134.5 10.5t-115.5 22.5q-37 11 -37 31v6l31 166q3 17 16.5 28t30.5 11h4q6 0 110 -8.5t144 -8.5q57 0 92 23.5t62 83.5l29 63h-11q-34 0 -60 7.5t-51 27.5t-42 59t-23 97
l-108 921v7q0 41 47 41h268q29 0 33 -39l47 -783q1 -17 5.5 -21.5t14.5 -4.5h17l334 809q16 39 49 39h276q13 0 23 -9.5t10 -21.5z" />
    <glyph glyph-name="z" unicode="z" horiz-adv-x="1054" 
d="M1159 1122q0 -12 -2 -18l-27 -152q-8 -41 -34 -71l-510 -580q-8 -8 -8 -14q0 -8 12 -8h389q14 0 22.5 -7.5t8.5 -19.5v-6l-35 -205q-3 -17 -17.5 -29t-31.5 -12h-768q-60 0 -60 49q0 13 2 19l23 131q1 6 2 11t3 10.5t3 8.5t4.5 8t4.5 7t5.5 7.5t5.5 7t7 8.5t8 9l534 607
q9 9 9 16q0 8 -13 8h-395q-29 0 -29 27v6l35 193q3 17 16.5 29t30.5 12h748q57 0 57 -52z" />
    <glyph glyph-name="braceleft" unicode="{" horiz-adv-x="833" 
d="M1030 1489v-8l-31 -178q-3 -17 -16.5 -29t-30.5 -12h-118q-50 0 -69.5 -22.5t-31.5 -96.5l-47 -277q-20 -118 -69 -190t-156 -117q60 -34 91.5 -101t31.5 -143q0 -35 -6 -65l-50 -268q-8 -54 -8 -66q0 -31 15.5 -42t52.5 -11h119q15 0 24.5 -10t9.5 -25v-6l-32 -178
q-3 -17 -16.5 -29t-30.5 -12h-119q-185 0 -272 67t-87 205q0 35 11 107l49 268q4 18 4 51q0 100 -84 160l33 194q131 76 153 211l47 277q14 84 33 143.5t48 102.5t62.5 68.5t86.5 40t110 19.5t142 5h118q15 0 24 -9.5t9 -23.5z" />
    <glyph glyph-name="bar" unicode="|" horiz-adv-x="593" 
d="M606 -354q0 -17 -12 -30t-29 -13h-252q-17 0 -30 13t-13 30v1835q0 17 13 29t30 12h252q17 0 29 -12t12 -29v-1835z" />
    <glyph glyph-name="braceright" unicode="}" horiz-adv-x="833" 
d="M866 655l-32 -194q-70 -41 -104 -83t-50 -128l-49 -268q-15 -81 -32 -137.5t-44.5 -100.5t-60.5 -70t-84 -42.5t-111.5 -22.5t-146.5 -6h-119q-15 0 -25 10t-10 25v6l33 178q3 17 16.5 29t30.5 12h119q50 0 68.5 22t31.5 97l49 268q23 119 71 193.5t152 115.5
q-120 84 -120 244q0 29 6 63l47 277q8 58 8 69q0 30 -14 40t-50 10h-118q-15 0 -25 9.5t-10 24.5v7l31 178q3 17 17.5 29t31.5 12h119q178 0 267 -66t89 -211q0 -40 -10 -102l-47 -277q-9 -61 -9 -69q0 -43 19 -75.5t65 -66.5z" />
    <glyph glyph-name="asciitilde" unicode="~" 
d="M1346 983q0 -160 -72 -234.5t-221 -74.5q-91 0 -187 59l-145 88q-43 27 -88 27q-39 0 -51.5 -21.5t-12.5 -60.5v-37q0 -18 -10 -29.5t-27 -11.5h-182q-41 0 -41 41v37q0 175 76 249.5t217 74.5q35 0 79 -9t71 -26l184 -111q47 -29 88 -29q32 0 45.5 15t13.5 53v51
q0 41 39 41h183q41 0 41 -41v-51z" />
    <glyph glyph-name="uni00A0" unicode="&#xa0;" horiz-adv-x="512" 
 />
    <glyph glyph-name="exclamdown" unicode="&#xa1;" horiz-adv-x="559" 
d="M641 1141q0 -6 -2 -8l-45 -259q-3 -17 -16 -27.5t-31 -10.5h-242q-14 0 -23.5 8.5t-9.5 21.5v8l45 259q3 17 17 29t31 12h241q15 0 25 -9.5t10 -23.5zM526 672v-6l-139 -1022q-1 -17 -17 -29t-34 -12h-256q-14 0 -24.5 9.5t-10.5 22.5v9l221 1022q5 18 18.5 30.5
t30.5 12.5h174q15 0 26 -11.5t11 -25.5z" />
    <glyph glyph-name="cent" unicode="&#xa2;" 
d="M1233 1126q0 -2 -1 -7t-1 -7l-33 -182q-3 -15 -16.5 -25t-28.5 -10h-4q-129 14 -248 14q-84 0 -134.5 -53t-74.5 -184l-30 -172q-11 -68 -11 -97q0 -78 34 -109.5t103 -31.5q70 0 252 14h4q14 0 23.5 -7.5t9.5 -20.5v-6l-33 -183q-4 -23 -14.5 -32t-36.5 -15
q-74 -18 -166 -26l-26 -150q-3 -17 -17.5 -29t-31.5 -12h-207q-15 0 -24 9.5t-9 23.5v8l31 172q-102 46 -163 144t-61 233q0 59 11 115l30 172q22 120 58.5 208t88 143t108 87t130.5 53l31 168q3 17 16.5 29t30.5 12h207q15 0 25 -10t10 -25v-6l-27 -145q86 -8 158 -27
q20 -5 28.5 -12t8.5 -21z" />
    <glyph glyph-name="sterling" unicode="&#xa3;" 
d="M1419 1475q0 -2 -1 -7t-1 -8l-37 -203q-5 -36 -39 -36h-6q-202 24 -334 24q-112 0 -154 -33t-61 -133l-30 -168h346q15 0 25 -8.5t10 -23.5v-7l-35 -198q-3 -17 -15.5 -28t-29.5 -11h-348l-37 -205q-15 -85 -68 -156h561q15 0 24 -8t9 -20v-8l-35 -199q-3 -17 -16.5 -28
t-30.5 -11h-905q-16 0 -24.5 11t-8.5 26q0 2 1 6t1 6l27 144q4 22 26 49q31 33 62 86.5t39 101.5l37 205h-103q-15 0 -23.5 8.5t-8.5 22.5v8l34 198q3 17 16.5 28t30.5 11h101l31 166q26 139 69 228t117.5 141.5t172.5 73t247 20.5q159 0 329 -39q35 -8 35 -26z" />
    <glyph glyph-name="currency" unicode="&#xa4;" 
d="M1335 1141q0 -17 -14 -31l-176 -174q47 -83 47 -176q0 -100 -49 -185l172 -172q14 -14 14 -30q0 -13 -10 -23l-117 -117q-10 -10 -22 -10q-16 0 -31 15l-176 178q-76 -43 -168 -43q-96 0 -176 45l-174 -174q-17 -17 -33 -17q-10 0 -21 11l-116 116q-11 11 -11 25
q0 16 15 31l174 172q-47 83 -47 178q0 96 41 168l-174 176q-15 15 -15 31q0 11 11 22l116 117q10 10 23 10q17 0 31 -14l169 -170q81 47 187 47q96 0 176 -45l174 174q14 14 31 14q12 0 22 -10l117 -117q10 -10 10 -22zM981 766q0 70 -50.5 120t-121.5 50t-122.5 -50
t-51.5 -120t51.5 -121t122.5 -51t121.5 51t50.5 121z" />
    <glyph glyph-name="yen" unicode="&#xa5;" 
d="M1565 1499q0 -10 -9 -22l-307 -459h178q15 0 24 -8.5t9 -22.5v-8l-26 -152q-3 -17 -15.5 -28t-29.5 -11h-291l-127 -188l-8 -22h387q15 0 24.5 -8.5t9.5 -22.5v-6l-28 -154q-3 -17 -15.5 -27t-29.5 -10h-389l-54 -309q-3 -17 -17.5 -29t-31.5 -12h-272q-14 0 -22.5 9.5
t-8.5 23.5v8l53 309h-387q-15 0 -25 9t-10 22v6l29 154q3 17 16 27t31 10h387l2 22l-59 188h-293q-15 0 -25 9t-10 24v6l27 152q3 17 17 28t32 11h180l-147 459q-2 4 -2 12q0 15 11 24t26 9h293q24 0 32 -35l146 -553l344 553q23 35 45 35h309q27 0 27 -23z" />
    <glyph glyph-name="brokenbar" unicode="&#xa6;" horiz-adv-x="593" 
d="M598 743q0 -17 -12 -30t-29 -13h-252q-17 0 -30 13t-13 30v707q0 17 13 29t30 12h252q17 0 29 -12t12 -29v-707zM598 -389q0 -17 -12 -30t-29 -13h-252q-17 0 -30 13t-13 30v706q0 17 13 29t30 12h252q17 0 29 -12t12 -29v-706z" />
    <glyph glyph-name="section" unicode="&#xa7;" horiz-adv-x="1206" 
d="M1337 1462v-6l-37 -209q-4 -28 -30 -28h-2q-286 16 -445 16q-32 0 -54 -1.5t-50 -8t-45 -19t-29 -36t-12 -56.5q0 -31 27.5 -58.5t97.5 -68.5l237 -141q215 -129 215 -338q0 -150 -110 -307q9 -22 17.5 -70t8.5 -80q0 -105 -34 -189t-92 -140t-139 -93.5t-170.5 -54
t-190.5 -16.5q-235 0 -402 45q-14 3 -24.5 12.5t-10.5 22.5v6l37 206q3 17 17 28t30 11h5q20 -2 91 -9t104 -10t88 -6t100 -3h8q219 0 219 162q0 35 -27.5 64.5t-93.5 68.5l-246 149q-207 127 -207 359q0 77 35 165.5t90 139.5q-32 56 -32 157q0 93 36 166.5t93.5 119
t135.5 75.5t156 41.5t162 11.5q108 0 245.5 -14.5t195.5 -30.5q13 -3 22.5 -12.5t9.5 -20.5zM922 469q0 53 -21 81.5t-98 74.5l-182 110q-41 25 -101 64q-43 -50 -43 -117q0 -25 11 -47t35 -43t44 -34t54 -34l131 -75q108 -63 133 -82q15 21 26 52.5t11 49.5z" />
    <glyph glyph-name="dieresis" unicode="&#xa8;" horiz-adv-x="907" 
d="M1087 1544v-6l-32 -190q-3 -17 -19.5 -29t-34.5 -12h-192q-15 0 -25 9.5t-10 24.5v7l33 190q3 17 18 29t33 12h193q15 0 25.5 -10t10.5 -25zM643 1544v-6l-33 -190q-3 -17 -18 -29t-33 -12h-192q-15 0 -26 9.5t-11 24.5v7l32 190q3 17 19.5 29t34.5 12h192q15 0 25 -10
t10 -25z" />
    <glyph glyph-name="copyright" unicode="&#xa9;" horiz-adv-x="1536" 
d="M1597 766q0 -139 -54.5 -265t-146 -217t-218 -144.5t-265.5 -53.5t-265 53.5t-217 144.5t-144.5 217t-53.5 265t53.5 266t144.5 219t217 146.5t265 54.5t265.5 -54.5t218 -146.5t146 -219t54.5 -266zM1491 766q0 156 -78 289.5t-211 212t-289 78.5t-288.5 -78.5
t-209.5 -212t-77 -289.5q0 -117 45.5 -223t122.5 -182.5t183.5 -122t223.5 -45.5q156 0 289 76.5t211 208.5t78 288zM1124 375q0 -23 -26 -29q-63 -18 -168 -18q-168 0 -258 96.5t-90 290.5v114q0 196 90 292t258 96q81 0 168 -21q14 -3 20 -8.5t6 -16.5v-129q0 -24 -24 -24
h-4q-78 10 -166 10q-62 0 -99.5 -43.5t-37.5 -155.5v-114q0 -114 37 -157.5t100 -43.5q88 0 166 10h6q22 0 22 -22v-127z" />
    <glyph glyph-name="ordfeminine" unicode="&#xaa;" horiz-adv-x="731" 
d="M885 1327q0 -27 -6 -61l-72 -406q-3 -27 -23 -33q-122 -32 -268 -32q-133 0 -201.5 51.5t-68.5 140.5q0 66 21 114t52.5 74t83 41t97.5 19t110 4h45l7 27q6 24 6 41q0 29 -17.5 40t-58.5 11q-36 0 -211 -10h-2q-19 0 -19 22v6l19 103q3 22 35 30q111 31 209 31
q119 0 190.5 -53.5t71.5 -159.5zM635 1118q-1 0 -12.5 1t-18.5 1q-72 0 -111.5 -24t-39.5 -92q0 -31 21.5 -43.5t68.5 -12.5q15 0 63 6z" />
    <glyph glyph-name="guillemotleft" unicode="&#xab;" horiz-adv-x="1470" 
d="M1595 1024q0 -14 -12 -23l-459 -415l289 -416q4 -4 4 -14q0 -11 -10 -19t-23 -8h-223q-40 0 -57 25l-260 378q-21 30 -21 60q0 32 29 61l381 365q24 24 65 24h273q24 0 24 -18zM958 1024q0 -14 -12 -23l-459 -415l289 -416q4 -4 4 -14q0 -11 -9.5 -19t-22.5 -8h-224
q-40 0 -57 25l-260 378q-21 30 -21 60q0 32 29 61l381 365q24 24 66 24h272q24 0 24 -18z" />
    <glyph glyph-name="logicalnot" unicode="&#xac;" 
d="M1270 406q0 -17 -11 -29t-28 -12h-174q-17 0 -27 11.5t-10 29.5v534h-649q-41 0 -41 33v182q0 33 41 33h860q17 0 28 -9t11 -24v-749z" />
    <glyph glyph-name="uni00AD" unicode="&#xad;" horiz-adv-x="618" 
d="M672 705v-7l-27 -151q-3 -17 -16 -27t-31 -10h-397q-15 0 -25 9t-10 22v6l27 151q3 17 16.5 28t30.5 11h397q15 0 25 -8.5t10 -23.5z" />
    <glyph glyph-name="registered" unicode="&#xae;" horiz-adv-x="1224" 
d="M1362 991q0 -155 -77.5 -286.5t-209.5 -208t-287 -76.5t-286.5 76.5t-208 208t-76.5 286.5q0 116 45.5 222t121.5 182.5t182 122t222 45.5t222 -45.5t183.5 -122t123 -182.5t45.5 -222zM1257 991q0 127 -63 235t-171 171t-235 63q-193 0 -329.5 -137.5t-136.5 -331.5
t136.5 -331.5t329.5 -137.5q127 0 235 63t171 171t63 235zM1071 676q0 -8 -5.5 -14.5t-14.5 -6.5h-138q-11 0 -20 17l-129 227q-2 0 -8 6t-8 6h-54v-233q0 -9 -6.5 -16t-15.5 -7h-123q-9 0 -16 7t-7 16v602q0 32 11 44t41 17q85 11 182 11q141 0 214 -51.5t73 -170.5v-14
q0 -128 -121 -178l141 -248q4 -8 4 -14zM885 1116v14q0 42 -26 61t-85 19h-84v-174q5 0 42.5 -1t41.5 -1q111 0 111 82z" />
    <glyph glyph-name="macron" unicode="&#xaf;" horiz-adv-x="907" 
d="M1096 1532v-8l-27 -148q-3 -17 -16.5 -28t-30.5 -11h-664q-15 0 -24.5 9t-9.5 24v6l26 148q3 17 17 28t32 11h664q15 0 24 -8.5t9 -22.5z" />
    <glyph glyph-name="degree" unicode="&#xb0;" horiz-adv-x="739" 
d="M893 1225q0 -131 -91.5 -223.5t-221.5 -92.5q-129 0 -222.5 93t-93.5 223t93.5 222.5t222.5 92.5q130 0 221.5 -92t91.5 -223zM727 1225q0 61 -43.5 105t-103.5 44t-104 -44t-44 -105q0 -60 43.5 -104t104.5 -44t104 44t43 104z" />
    <glyph glyph-name="plusminus" unicode="&#xb1;" 
d="M1257 709q0 -33 -40 -33h-318v-316q0 -41 -33 -41h-184q-33 0 -33 41v316h-315q-41 0 -41 33v184q0 33 41 33h315v317q0 41 33 41h184q33 0 33 -41v-317h318q40 0 40 -33v-184zM1257 -8q0 -33 -40 -33h-883q-41 0 -41 33v145q0 33 41 33h883q40 0 40 -33v-145z" />
    <glyph glyph-name="two.superior" unicode="&#xb2;" horiz-adv-x="727" 
d="M426 1128l117 74q20 13 44.5 28t35 22t23.5 16t17.5 15.5t7.5 15.5t3 20q0 29 -20 39t-76 10q-94 0 -220 -14q-19 -3 -25 6.5t-3 28.5l14 86q3 15 10 22.5t25 11.5q132 35 246 35q134 0 199 -46t65 -146q0 -76 -41 -137.5t-135 -118.5l-103 -64q-95 -58 -138.5 -93
t-51.5 -73h338q19 0 25 -7t3 -23l-18 -115q-3 -19 -11.5 -27t-29.5 -8h-494q-18 0 -24.5 10t-3.5 25l18 113q17 96 64.5 165.5t138.5 128.5z" />
    <glyph glyph-name="three.superior" unicode="&#xb3;" horiz-adv-x="727" 
d="M266 862q127 -10 219 -10q65 0 91 29.5t26 91.5q0 32 -12.5 47.5t-50.5 15.5h-195q-34 0 -27 35l17 94q3 17 11.5 25t27.5 8h190q52 0 75.5 33.5t23.5 73.5q0 33 -19.5 48t-67.5 15q-111 0 -200 -12q-28 -5 -39 2t-8 28l14 89q4 22 37 34q133 35 244 35q124 0 190 -49
t66 -141q0 -82 -33.5 -143.5t-91.5 -92.5q33 -28 47 -60.5t14 -84.5q0 -297 -352 -297q-120 0 -230 31q-10 4 -14 6.5t-8 9.5t-2 18l16 88q7 33 41 33z" />
    <glyph glyph-name="acute" unicode="&#xb4;" horiz-adv-x="907" 
d="M1143 1583q0 -8 -13 -18l-294 -250q-9 -8 -12.5 -11t-10.5 -7t-14 -5.5t-17 -1.5h-239q-17 0 -17 13q0 9 13 22l233 240q19 19 29 24.5t30 5.5h289q23 0 23 -12z" />
    <glyph glyph-name="mu" unicode="&#xb5;" horiz-adv-x="1253" 
d="M1329 1135v-7l-180 -1028q-3 -22 -20.5 -36.5t-55.5 -26.5q-174 -55 -442 -55q-101 0 -178 18l-62 -350q-3 -17 -17.5 -29t-31.5 -12h-250q-15 0 -24 9.5t-9 23.5v8l263 1478q3 18 17.5 32t31.5 14h247q15 0 25 -12t10 -27v-7l-118 -679q-7 -44 -7 -68q0 -67 36.5 -97
t115.5 -30q106 0 166 14l151 860q3 18 18 32t32 14h247q15 0 25 -12t10 -27z" />
    <glyph glyph-name="paragraph" unicode="&#xb6;" horiz-adv-x="1349" 
d="M1497 1495q0 -2 -1 -6t-1 -6l-326 -1843q-3 -16 -15 -27.5t-26 -11.5h-88q-28 0 -28 32v7l305 1726h-129l-305 -1726q-3 -16 -15 -27.5t-26 -11.5h-88q-13 0 -21 9t-8 23v7l152 856h-197q-184 0 -305 110t-121 273q0 35 6 73l21 113q83 457 579 457h608q29 0 29 -27z" />
    <glyph glyph-name="periodcentered" unicode="&#xb7;" horiz-adv-x="561" 
d="M602 920v-9l-45 -258q-3 -17 -16.5 -29t-30.5 -12h-240q-15 0 -26 10t-11 25v6l46 258q3 17 18 28t33 11h239q15 0 24 -8t9 -22z" />
    <glyph glyph-name="cedilla" unicode="&#xb8;" horiz-adv-x="872" 
d="M649 -84q0 -6 -12 -18l-295 -250q-24 -21 -37 -24q-7 -1 -16 -1h-219q-17 0 -17 12q0 10 13 23l231 240q18 18 29 24t32 6h271q20 0 20 -12z" />
    <glyph glyph-name="one.superior" unicode="&#xb9;" horiz-adv-x="493" 
d="M307 1446l195 82q12 6 30 6h101q18 0 22 -9t2 -26l-137 -778q-8 -35 -37 -35h-145q-37 0 -29 35l105 594l-117 -47q-23 -8 -32 -2t-5 26l23 127q4 19 24 27z" />
    <glyph glyph-name="ordmasculine" unicode="&#xba;" horiz-adv-x="778" 
d="M930 1286q0 -45 -8 -86l-13 -67q-31 -172 -122 -255t-257 -83q-122 0 -195 71.5t-73 192.5q0 33 6 74l13 67q34 186 127.5 263t253.5 77q124 0 196 -65t72 -189zM711 1272q0 47 -20 65.5t-62 18.5q-55 0 -84.5 -33.5t-46.5 -122.5l-13 -67q-6 -38 -6 -66
q0 -49 20.5 -69.5t63.5 -20.5q53 0 82.5 35.5t44.5 120.5l12 67q9 44 9 72z" />
    <glyph glyph-name="guillemotright" unicode="&#xbb;" horiz-adv-x="1470" 
d="M1524 580q0 -33 -29 -62l-381 -364q-25 -25 -65 -25h-273q-24 0 -24 18q0 14 12 23l459 416l-289 415q-4 4 -4 15t10 18.5t23 7.5h223q41 0 57 -24l260 -379q21 -30 21 -59zM887 580q0 -33 -29 -62l-381 -364q-25 -25 -65 -25h-273q-24 0 -24 18q0 14 12 23l459 416
l-289 415q-4 4 -4 15t10 18.5t23 7.5h223q41 0 57 -24l260 -379q21 -30 21 -59z" />
    <glyph glyph-name="onequarter" unicode="&#xbc;" horiz-adv-x="1585" 
d="M336 1446l194 82q12 6 31 6h101q18 0 22 -9t2 -26l-137 -778q-8 -35 -37 -35h-145q-37 0 -29 35l104 594l-116 -47q-23 -8 -32 -2t-5 26l22 127q4 19 25 27zM1585 1509q0 -13 -12 -28l-1104 -1438q-27 -34 -37 -39q-8 -4 -18 -4h-211q-19 0 -19 16q0 13 11 27l1103 1438
q19 24 31 32.5t29 8.5h211q16 0 16 -13zM1550 219q-4 -35 -39 -35h-61l-25 -149q-3 -20 -10.5 -27.5t-28.5 -7.5h-147q-31 0 -27 35l25 149h-309q-32 0 -27 35l21 107q5 28 20 43l432 458q21 21 41 21h119q37 0 29 -35l-82 -459h61q19 0 24.5 -8.5t2.5 -26.5zM1274 354
l37 211l-193 -211h156z" />
    <glyph glyph-name="onehalf" unicode="&#xbd;" horiz-adv-x="1728" 
d="M336 1446l194 82q12 6 31 6h101q18 0 22 -9t2 -26l-137 -778q-8 -35 -37 -35h-145q-37 0 -29 35l104 594l-116 -47q-23 -8 -32 -2t-5 26l22 127q4 19 25 27zM1585 1509q0 -13 -12 -28l-1104 -1438q-27 -34 -37 -39q-8 -4 -18 -4h-211q-19 0 -19 16q0 13 11 27l1103 1438
q19 24 31 32.5t29 8.5h211q16 0 16 -13zM1266 442l116 74q20 13 44.5 28t35 22t23.5 16t17.5 15.5t7.5 15.5t3 20q0 29 -20 39t-76 10q-93 0 -219 -14q-19 -3 -25.5 6t-3.5 28l15 86q6 28 35 35q132 35 245 35q134 0 199.5 -46t65.5 -146q0 -76 -41.5 -137.5t-135.5 -118.5
l-102 -64q-95 -58 -138.5 -93t-51.5 -73h337q20 0 26 -7t3 -23l-18 -115q-3 -19 -11.5 -27t-29.5 -8h-494q-18 0 -25 10t-4 25l19 112q17 97 64.5 166.5t138.5 128.5z" />
    <glyph glyph-name="threequarters" unicode="&#xbe;" horiz-adv-x="1722" 
d="M1722 1509q0 -13 -12 -28l-1104 -1438q-27 -34 -37 -39q-8 -4 -18 -4h-211q-18 0 -18 16q0 14 10 27l1104 1438q20 24 31 32.5t28 8.5h211q16 0 16 -13zM1688 219q-4 -35 -39 -35h-62l-24 -149q-3 -20 -10.5 -27.5t-28.5 -7.5h-148q-30 0 -26 35l24 149h-309
q-32 0 -27 35l21 107q5 28 20 43l432 458q21 21 41 21h119q37 0 29 -35l-82 -459h61q19 0 24.5 -8.5t2.5 -26.5zM1411 354l37 211l-193 -211h156zM244 862q127 -10 219 -10q65 0 91 29.5t26 91.5q0 32 -13 47.5t-51 15.5h-194q-34 0 -27 35l16 94q3 17 11.5 25t27.5 8h191
q52 0 75 33.5t23 73.5q0 33 -19 48t-67 15q-112 0 -201 -12q-28 -5 -39 2t-8 28l14 89q4 22 37 34q133 35 244 35q124 0 190 -49t66 -141q0 -82 -33.5 -143.5t-91.5 -92.5q33 -29 47.5 -61.5t14.5 -83.5q0 -297 -353 -297q-119 0 -229 31q-10 4 -14 6.5t-8.5 9.5t-2.5 18
l17 88q7 33 41 33z" />
    <glyph glyph-name="questiondown" unicode="&#xbf;" horiz-adv-x="980" 
d="M969 1141v-6l-47 -258q-3 -17 -17 -29t-31 -12h-241q-15 0 -25 9.5t-10 24.5v7l47 258q3 17 16.5 28t30.5 11h242q15 0 25 -9t10 -24zM893 -96q0 -2 -1 -7.5t-1 -7.5l-31 -182q-3 -23 -13 -35t-34 -18q-147 -43 -336 -43q-176 0 -284.5 70.5t-108.5 205.5
q0 64 16.5 122.5t50.5 112t68 94.5t86 95l115 119q20 21 44 45t35.5 36t25.5 27t20 22.5t12.5 17t9 17.5t4.5 17l11 58q3 18 19.5 28.5t35.5 10.5h205q14 0 22 -10t8 -23v-8l-8 -56q-13 -88 -38.5 -145.5t-92.5 -128.5l-121 -129q-4 -4 -20 -20.5t-20 -21.5t-18 -20.5
t-19 -22.5t-16 -22t-15 -24t-11.5 -24t-10 -27t-5 -27.5t-2.5 -30.5q0 -30 18 -44.5t68 -14.5q114 0 297 22h6q29 0 29 -28z" />
    <glyph glyph-name="Agrave" unicode="&#xc0;" horiz-adv-x="1370" 
d="M1337 41q0 -18 -11.5 -29.5t-29.5 -11.5h-280q-15 0 -25 11t-10 26l-14 336h-420l-133 -336q-6 -16 -19 -26.5t-28 -10.5h-293q-13 0 -21 7t-8 18q0 6 4 18l529 1270q29 71 72.5 118t97 69.5t102 31t108.5 8.5t105.5 -8.5t90 -31t71 -69.5t30.5 -118l82 -1270v-2z
M958 653l-24 566q0 16 -4 23t-17 7q-22 0 -34 -30l-226 -566h305zM1169 1645q0 -19 -22 -19h-203q-6 0 -10.5 0.5t-8 2t-6 2t-5.5 4t-4.5 4.5t-5.5 5.5t-5 6.5l-205 250q-6 9 -6 14q0 16 25 16h254q21 0 30.5 -6t20.5 -24l145 -240q6 -9 6 -16z" />
    <glyph glyph-name="Aacute" unicode="&#xc1;" horiz-adv-x="1370" 
d="M1337 41q0 -18 -11.5 -29.5t-29.5 -11.5h-280q-15 0 -25 11t-10 26l-14 336h-420l-133 -336q-6 -16 -19 -26.5t-28 -10.5h-293q-13 0 -21 7t-8 18q0 6 4 18l529 1270q29 71 72.5 118t97 69.5t102 31t108.5 8.5t105.5 -8.5t90 -31t71 -69.5t30.5 -118l82 -1270v-2z
M958 653l-24 566q0 16 -4 23t-17 7q-22 0 -34 -30l-226 -566h305zM1409 1919q0 -9 -12 -18l-295 -250q-24 -21 -37 -24q-7 -1 -16 -1h-240q-16 0 -16 12q0 11 12 23l233 240q19 19 29 24.5t31 5.5h288q23 0 23 -12z" />
    <glyph glyph-name="Acircumflex" unicode="&#xc2;" horiz-adv-x="1370" 
d="M1337 41q0 -18 -11.5 -29.5t-29.5 -11.5h-280q-15 0 -25 11t-10 26l-14 336h-420l-133 -336q-6 -16 -19 -26.5t-28 -10.5h-293q-13 0 -21 7t-8 18q0 6 4 18l529 1270q29 71 72.5 118t97 69.5t102 31t108.5 8.5t105.5 -8.5t90 -31t71 -69.5t30.5 -118l82 -1270v-2z
M958 653l-24 566q0 16 -4 23t-17 7q-22 0 -34 -30l-226 -566h305zM1378 1647q0 -19 -20 -19h-201q-19 0 -27 5t-18 20l-102 143l-158 -143q-24 -21 -36 -24q-7 -1 -17 -1h-221q-17 0 -17 12q0 11 12 23l226 240q19 19 29 24.5t30 5.5h328q22 0 31 -5.5t20 -24.5l137 -240
q4 -6 4 -16z" />
    <glyph glyph-name="Atilde" unicode="&#xc3;" horiz-adv-x="1370" 
d="M1337 41q0 -18 -11.5 -29.5t-29.5 -11.5h-280q-15 0 -25 11t-10 26l-14 336h-420l-133 -336q-6 -16 -19 -26.5t-28 -10.5h-293q-13 0 -21 7t-8 18q0 6 4 18l529 1270q29 71 72.5 118t97 69.5t102 31t108.5 8.5t105.5 -8.5t90 -31t71 -69.5t30.5 -118l82 -1270v-2z
M958 653l-24 566q0 16 -4 23t-17 7q-22 0 -34 -30l-226 -566h305zM1427 1909v-11l-6 -40q-20 -135 -87 -192.5t-193 -57.5q-33 0 -79.5 14t-72.5 35l-76 59q-46 37 -75 37q-24 0 -37.5 -10.5t-20.5 -44.5l-8 -39q-6 -35 -37 -35h-145q-27 0 -27 25q0 1 1 4.5t1 5.5l8 39
q28 134 93.5 191t191.5 57q32 0 75 -13.5t71 -34.5l77 -57q50 -37 76 -37t38.5 10.5t18.5 45.5l7 38q6 33 39 33h143q24 0 24 -22z" />
    <glyph glyph-name="Adieresis" unicode="&#xc4;" horiz-adv-x="1370" 
d="M1337 41q0 -18 -11.5 -29.5t-29.5 -11.5h-280q-15 0 -25 11t-10 26l-14 336h-420l-133 -336q-6 -16 -19 -26.5t-28 -10.5h-293q-13 0 -21 7t-8 18q0 6 4 18l529 1270q29 71 72.5 118t97 69.5t102 31t108.5 8.5t105.5 -8.5t90 -31t71 -69.5t30.5 -118l82 -1270v-2z
M958 653l-24 566q0 16 -4 23t-17 7q-22 0 -34 -30l-226 -566h305zM1384 1878v-6l-32 -191q-3 -17 -19.5 -29t-34.5 -12h-192q-15 0 -25 10t-10 25v6l33 191q3 17 18 29t33 12h193q15 0 25.5 -10t10.5 -25zM940 1878v-6l-33 -191q-3 -17 -18 -29t-33 -12h-192q-15 0 -26 10
t-11 25v6l32 191q3 17 19.5 29t34.5 12h192q15 0 25 -10t10 -25z" />
    <glyph glyph-name="Aring" unicode="&#xc5;" horiz-adv-x="1370" 
d="M1337 41q0 -18 -11.5 -29.5t-29.5 -11.5h-280q-15 0 -25 11t-10 26l-14 336h-420l-133 -336q-6 -16 -19 -26.5t-28 -10.5h-293q-13 0 -21 7t-8 18q0 6 4 18l529 1270q29 71 72.5 118t97 69.5t102 31t108.5 8.5t105.5 -8.5t90 -31t71 -69.5t30.5 -118l82 -1270v-2z
M958 653l-24 566q0 16 -4 23t-17 7q-22 0 -34 -30l-226 -566h305zM1237 1833q0 -98 -70 -168t-168 -70t-168.5 70t-70.5 168t70.5 169t168.5 71t168 -71t70 -169zM1092 1835q0 36 -28 63t-65 27t-62.5 -26t-25.5 -64t25.5 -64t62.5 -26t65 27t28 63z" />
    <glyph glyph-name="AE" unicode="&#xc6;" horiz-adv-x="1892" 
d="M2038 1493q0 -2 -1 -6t-1 -6l-35 -199q-3 -17 -16.5 -29t-30.5 -12h-496l-57 -326h479q15 0 24 -9t9 -23v-9l-33 -194q-3 -17 -17.5 -29t-31.5 -12h-479l-39 -217q-4 -20 -4 -53q0 -49 25 -67.5t85 -18.5h365q15 0 25 -10t10 -25v-6l-35 -191q-3 -20 -14 -30t-33 -13
q-3 0 -52 -7.5t-72.5 -10t-87 -5.5t-141.5 -3q-430 0 -430 325q0 20 4 66h-407l-133 -336q-6 -16 -19 -26.5t-28 -10.5h-297q-29 0 -29 27q0 4 4 16l529 1270q20 48 46 84t57.5 58t61.5 36t69.5 20.5t69.5 8.5t72 2h1049q35 0 35 -29zM1112 1249h-194q-23 0 -35 -30
l-226 -566h349z" />
    <glyph glyph-name="Ccedilla" unicode="&#xc7;" horiz-adv-x="1148" 
d="M1323 1464v-4l-35 -198q-7 -41 -49 -41h-2h-2q-203 16 -299 16q-56 0 -102.5 -16.5t-89 -54t-74 -107t-49.5 -168.5l-48 -258q-12 -71 -12 -125q0 -221 207 -221q92 0 305 16h6q15 0 25 -8t10 -23q0 -1 -1 -4.5t-1 -5.5l-37 -199q-4 -21 -16 -31t-37 -16
q-40 -12 -126.5 -23t-184.5 -11q-102 0 -192.5 31.5t-161 91.5t-111.5 157t-41 219q0 78 14 152l47 258q29 157 82 274t119 187.5t153.5 113.5t174 58.5t192.5 15.5q97 0 179.5 -11t119.5 -24q20 -6 28.5 -13.5t8.5 -21.5v-6zM866 -84q0 -6 -12 -18l-295 -250q-3 -2 -9 -7
t-8 -6.5t-6.5 -4.5t-8 -4t-9 -2t-12.5 -1h-219q-17 0 -17 12q0 10 13 23l231 240q18 18 29 24t32 6h271q20 0 20 -12z" />
    <glyph glyph-name="Egrave" unicode="&#xc8;" horiz-adv-x="1189" 
d="M1335 1485q0 -2 -1 -6t-1 -6l-35 -191q-3 -17 -16.5 -29t-30.5 -12h-415q-71 0 -106.5 -26.5t-49.5 -110.5l-33 -189h531q15 0 23.5 -9.5t8.5 -24.5v-7l-32 -194q-3 -17 -18 -29t-32 -12h-530l-39 -217q-6 -30 -6 -53q0 -48 26.5 -67t86.5 -19h415q15 0 25 -10t10 -25v-6
l-35 -191q-3 -20 -14 -30t-33 -13q-192 -26 -397 -26q-67 0 -127 9.5t-118 34t-99.5 62.5t-66.5 98t-25 136q0 42 10 100l121 680q15 83 40 149t55.5 111.5t73 78.5t85 52t99 29.5t107 14t117.5 3.5q200 0 389 -27q20 -3 28.5 -9t8.5 -19zM1092 1647q0 -8 -6.5 -13.5
t-16.5 -5.5h-203q-6 0 -10.5 0.5t-8 2t-6 2t-5.5 4t-4.5 4.5t-5.5 5.5t-5 6.5l-205 250q-6 9 -6 14q0 16 25 16h254q21 0 30.5 -6t20.5 -24l145 -240q7 -11 7 -16z" />
    <glyph glyph-name="Eacute" unicode="&#xc9;" horiz-adv-x="1189" 
d="M1335 1485q0 -2 -1 -6t-1 -6l-35 -191q-3 -17 -16.5 -29t-30.5 -12h-415q-71 0 -106.5 -26.5t-49.5 -110.5l-33 -189h531q15 0 23.5 -9.5t8.5 -24.5v-7l-32 -194q-3 -17 -18 -29t-32 -12h-530l-39 -217q-6 -30 -6 -53q0 -48 26.5 -67t86.5 -19h415q15 0 25 -10t10 -25v-6
l-35 -191q-3 -20 -14 -30t-33 -13q-192 -26 -397 -26q-67 0 -127 9.5t-118 34t-99.5 62.5t-66.5 98t-25 136q0 42 10 100l121 680q15 83 40 149t55.5 111.5t73 78.5t85 52t99 29.5t107 14t117.5 3.5q200 0 389 -27q20 -3 28.5 -9t8.5 -19zM1327 1921q0 -9 -12 -18l-295 -250
q-24 -21 -37 -24q-7 -1 -16 -1h-240q-16 0 -16 12q0 11 12 23l233 240q19 19 29 24.5t31 5.5h289q22 0 22 -12z" />
    <glyph glyph-name="Ecircumflex" unicode="&#xca;" horiz-adv-x="1189" 
d="M1335 1485q0 -2 -1 -6t-1 -6l-35 -191q-3 -17 -16.5 -29t-30.5 -12h-415q-71 0 -106.5 -26.5t-49.5 -110.5l-33 -189h531q15 0 23.5 -9.5t8.5 -24.5v-7l-32 -194q-3 -17 -18 -29t-32 -12h-530l-39 -217q-6 -30 -6 -53q0 -48 26.5 -67t86.5 -19h415q15 0 25 -10t10 -25v-6
l-35 -191q-3 -20 -14 -30t-33 -13q-192 -26 -397 -26q-67 0 -127 9.5t-118 34t-99.5 62.5t-66.5 98t-25 136q0 42 10 100l121 680q15 83 40 149t55.5 111.5t73 78.5t85 52t99 29.5t107 14t117.5 3.5q200 0 389 -27q20 -3 28.5 -9t8.5 -19zM1333 1647q0 -19 -20 -19h-201
q-19 0 -27 5t-18 20l-102 143l-158 -143q-24 -21 -36 -24q-7 -1 -17 -1h-222q-16 0 -16 12q0 11 12 23l226 240q19 19 29 24.5t30 5.5h328q22 0 31 -5.5t20 -24.5l137 -240q4 -6 4 -16z" />
    <glyph glyph-name="Edieresis" unicode="&#xcb;" horiz-adv-x="1189" 
d="M1335 1485q0 -2 -1 -6t-1 -6l-35 -191q-3 -17 -16.5 -29t-30.5 -12h-415q-71 0 -106.5 -26.5t-49.5 -110.5l-33 -189h531q15 0 23.5 -9.5t8.5 -24.5v-7l-32 -194q-3 -17 -18 -29t-32 -12h-530l-39 -217q-6 -30 -6 -53q0 -48 26.5 -67t86.5 -19h415q15 0 25 -10t10 -25v-6
l-35 -191q-3 -20 -14 -30t-33 -13q-192 -26 -397 -26q-67 0 -127 9.5t-118 34t-99.5 62.5t-66.5 98t-25 136q0 42 10 100l121 680q15 83 40 149t55.5 111.5t73 78.5t85 52t99 29.5t107 14t117.5 3.5q200 0 389 -27q20 -3 28.5 -9t8.5 -19zM1292 1878v-6l-32 -191
q-3 -17 -19.5 -29t-34.5 -12h-192q-15 0 -25 10t-10 25v6l33 191q3 17 18 29t33 12h192q15 0 26 -10t11 -25zM848 1878v-6l-33 -191q-3 -17 -18 -29t-33 -12h-193q-15 0 -25.5 10t-10.5 25v6l32 191q3 17 19.5 29t34.5 12h192q15 0 25 -10t10 -25z" />
    <glyph glyph-name="Igrave" unicode="&#xcc;" horiz-adv-x="636" 
d="M756 1491v-8l-254 -1442q-3 -17 -16.5 -29t-30.5 -12h-275q-13 0 -20.5 9t-7.5 22v10l254 1442q7 39 43 39h274q15 0 24 -8.5t9 -22.5zM805 1647q0 -8 -6.5 -13.5t-16.5 -5.5h-202q-6 0 -10.5 0.5t-8 2t-6 2t-5.5 4t-4.5 4.5t-5.5 5.5t-5 6.5l-205 250q-6 9 -6 14
q0 16 24 16h254q21 0 30.5 -6t20.5 -24l146 -240q6 -9 6 -16z" />
    <glyph glyph-name="Iacute" unicode="&#xcd;" horiz-adv-x="636" 
d="M756 1491v-8l-254 -1442q-3 -17 -16.5 -29t-30.5 -12h-275q-13 0 -20.5 9t-7.5 22v10l254 1442q7 39 43 39h274q15 0 24 -8.5t9 -22.5zM1020 1921q0 -9 -12 -18l-295 -250q-9 -8 -12.5 -11t-10.5 -7t-14 -5.5t-17 -1.5h-239q-17 0 -17 12q0 10 13 23l233 240
q19 19 29 24.5t31 5.5h288q23 0 23 -12z" />
    <glyph glyph-name="Icircumflex" unicode="&#xce;" horiz-adv-x="636" 
d="M756 1491v-8l-254 -1442q-3 -17 -16.5 -29t-30.5 -12h-275q-13 0 -20.5 9t-7.5 22v10l254 1442q7 39 43 39h274q15 0 24 -8.5t9 -22.5zM1018 1645q0 -19 -21 -19h-200q-19 0 -27 5t-18 20l-103 143l-157 -143q-17 -15 -26 -20t-28 -5h-221q-16 0 -16 12q0 11 12 23
l225 240q19 19 29 24.5t31 5.5h327q22 0 32 -5.5t20 -24.5l137 -240q4 -6 4 -16z" />
    <glyph glyph-name="Idieresis" unicode="&#xcf;" horiz-adv-x="636" 
d="M756 1491v-8l-254 -1442q-3 -17 -16.5 -29t-30.5 -12h-275q-13 0 -20.5 9t-7.5 22v10l254 1442q7 39 43 39h274q15 0 24 -8.5t9 -22.5zM1010 1878v-6l-33 -191q-3 -17 -19 -29t-34 -12h-193q-15 0 -25 10t-10 25v6l33 191q3 17 18 29t33 12h193q15 0 26 -10t11 -25z
M565 1878v-6l-33 -191q-3 -17 -18 -29t-33 -12h-192q-15 0 -26 10t-11 25v6l33 191q3 17 19 29t34 12h192q15 0 25 -10t10 -25z" />
    <glyph glyph-name="Eth" unicode="&#xd0;" horiz-adv-x="1396" 
d="M1464 1040q0 -76 -14 -147l-47 -264q-61 -345 -242.5 -496t-525.5 -151q-254 0 -430 30q-49 9 -49 51q0 13 2 21l98 555h-115q-15 0 -23.5 8.5t-8.5 22.5v8l34 199q3 17 16 27.5t31 10.5h115l92 523q6 34 23 50t49 21q190 31 442 31q257 0 405 -132t148 -368zM1112 1014
q0 126 -65 177.5t-189 51.5q-87 0 -145 -4l-58 -324h125q31 0 31 -30v-8l-35 -199q-3 -17 -15.5 -28t-29.5 -11h-125l-63 -356q58 -4 145 -4q77 0 133.5 16t103.5 55t78.5 108t49.5 171l47 264q12 68 12 121z" />
    <glyph glyph-name="Ntilde" unicode="&#xd1;" horiz-adv-x="1492" 
d="M1612 1489v-6l-248 -1405q-6 -33 -32 -55.5t-58 -22.5h-172q-87 0 -113 63l-340 807q-9 17 -16 17q-9 0 -12 -17l-146 -829q-3 -17 -17.5 -29t-31.5 -12h-242q-15 0 -23.5 10t-8.5 25v6l245 1403q6 32 33 55t59 23h156q86 0 111 -64l352 -844l2.5 -5t2 -4.5t1.5 -3
t1.5 -2t1.5 -1t3 -0.5q12 0 15 18l153 867q3 17 16.5 28t30.5 11h242q15 0 25 -9.5t10 -23.5zM1479 1909v-11l-6 -40q-20 -135 -87.5 -192.5t-193.5 -57.5q-33 0 -79.5 14t-72.5 35l-75 59q-46 37 -76 37q-24 0 -37.5 -10.5t-20.5 -44.5l-8 -39q-6 -35 -37 -35h-145
q-27 0 -27 25q0 1 1 4.5t1 5.5l9 39q28 134 93 191t191 57q32 0 75 -13.5t71 -34.5l78 -57q50 -37 75 -37q26 0 39 10.5t19 45.5l6 38q6 33 39 33h143q25 0 25 -22z" />
    <glyph glyph-name="Ograve" unicode="&#xd2;" horiz-adv-x="1429" 
d="M1491 1042q0 -79 -14 -159l-43 -244q-61 -348 -242 -502.5t-481 -154.5q-107 0 -197.5 31.5t-159.5 92.5t-108 157.5t-39 219.5q0 79 14 156l43 244q26 149 77 263t117.5 188t153 121t177.5 66t198 19q105 0 194.5 -29.5t159.5 -88.5t110 -156t40 -224zM1139 1018
q0 113 -51 164t-156 51q-131 0 -206 -80.5t-108 -269.5l-43 -244q-14 -77 -14 -143q0 -112 50 -159.5t155 -47.5q130 0 206.5 83.5t108.5 266.5l43 244q15 96 15 135zM1180 1645q0 -8 -6.5 -13.5t-16.5 -5.5h-203q-6 0 -10.5 0.5t-8 2t-6 2t-5.5 4t-4.5 4.5t-5.5 5.5t-5 6.5
l-204 250q-7 11 -7 14q0 16 25 16h254q21 0 30.5 -6t20.5 -24l146 -240q6 -9 6 -16z" />
    <glyph glyph-name="Oacute" unicode="&#xd3;" horiz-adv-x="1429" 
d="M1491 1042q0 -79 -14 -159l-43 -244q-61 -348 -242 -502.5t-481 -154.5q-107 0 -197.5 31.5t-159.5 92.5t-108 157.5t-39 219.5q0 79 14 156l43 244q26 149 77 263t117.5 188t153 121t177.5 66t198 19q105 0 194.5 -29.5t159.5 -88.5t110 -156t40 -224zM1139 1018
q0 113 -51 164t-156 51q-131 0 -206 -80.5t-108 -269.5l-43 -244q-14 -77 -14 -143q0 -112 50 -159.5t155 -47.5q130 0 206.5 83.5t108.5 266.5l43 244q15 96 15 135zM1405 1921q0 -9 -12 -18l-295 -250q-9 -8 -12.5 -11t-10.5 -7t-14 -5.5t-17 -1.5h-239q-17 0 -17 12
q0 10 13 23l233 240q19 19 29 24.5t31 5.5h288q23 0 23 -12z" />
    <glyph glyph-name="Ocircumflex" unicode="&#xd4;" horiz-adv-x="1429" 
d="M1491 1042q0 -79 -14 -159l-43 -244q-61 -348 -242 -502.5t-481 -154.5q-107 0 -197.5 31.5t-159.5 92.5t-108 157.5t-39 219.5q0 79 14 156l43 244q26 149 77 263t117.5 188t153 121t177.5 66t198 19q105 0 194.5 -29.5t159.5 -88.5t110 -156t40 -224zM1139 1018
q0 113 -51 164t-156 51q-131 0 -206 -80.5t-108 -269.5l-43 -244q-14 -77 -14 -143q0 -112 50 -159.5t155 -47.5q130 0 206.5 83.5t108.5 266.5l43 244q15 96 15 135zM1403 1647q0 -19 -21 -19h-200q-19 0 -27 5t-18 20l-103 143l-157 -143q-17 -15 -26 -20t-28 -5h-221
q-16 0 -16 12q0 11 12 23l225 240q19 19 29 24.5t31 5.5h327q22 0 32 -5.5t20 -24.5l137 -240q4 -6 4 -16z" />
    <glyph glyph-name="Otilde" unicode="&#xd5;" horiz-adv-x="1429" 
d="M1491 1042q0 -79 -14 -159l-43 -244q-61 -348 -242 -502.5t-481 -154.5q-107 0 -197.5 31.5t-159.5 92.5t-108 157.5t-39 219.5q0 79 14 156l43 244q26 149 77 263t117.5 188t153 121t177.5 66t198 19q105 0 194.5 -29.5t159.5 -88.5t110 -156t40 -224zM1139 1018
q0 113 -51 164t-156 51q-131 0 -206 -80.5t-108 -269.5l-43 -244q-14 -77 -14 -143q0 -112 50 -159.5t155 -47.5q130 0 206.5 83.5t108.5 266.5l43 244q15 96 15 135zM1468 1911v-10l-6 -41q-20 -135 -87 -192.5t-193 -57.5q-33 0 -79.5 14t-72.5 35l-76 59q-46 37 -75 37
q-24 0 -37.5 -10.5t-20.5 -44.5l-8 -39q-6 -35 -37 -35h-145q-27 0 -27 25q0 1 1 4.5t1 5.5l8 39q28 134 93.5 191t191.5 57q32 0 74.5 -13t70.5 -34l78 -58q50 -37 76 -37t38.5 10.5t18.5 45.5l7 39q6 32 38 32h144q24 0 24 -22z" />
    <glyph glyph-name="Odieresis" unicode="&#xd6;" horiz-adv-x="1429" 
d="M1491 1042q0 -79 -14 -159l-43 -244q-61 -348 -242 -502.5t-481 -154.5q-107 0 -197.5 31.5t-159.5 92.5t-108 157.5t-39 219.5q0 79 14 156l43 244q26 149 77 263t117.5 188t153 121t177.5 66t198 19q105 0 194.5 -29.5t159.5 -88.5t110 -156t40 -224zM1139 1018
q0 113 -51 164t-156 51q-131 0 -206 -80.5t-108 -269.5l-43 -244q-14 -77 -14 -143q0 -112 50 -159.5t155 -47.5q130 0 206.5 83.5t108.5 266.5l43 244q15 96 15 135zM1393 1878v-6l-33 -191q-3 -17 -19 -29t-34 -12h-193q-15 0 -25 10t-10 25v6l33 191q3 17 18 29t33 12
h193q15 0 26 -10t11 -25zM948 1878v-6l-33 -191q-3 -17 -18 -29t-33 -12h-192q-15 0 -26 10t-11 25v6l33 191q3 17 19 29t34 12h192q15 0 25 -10t10 -25z" />
    <glyph glyph-name="multiply" unicode="&#xd7;" 
d="M1229 522q0 -10 -10 -20l-129 -129q-11 -11 -21 -11q-16 0 -33 17l-245 246l-246 -246q-17 -17 -31 -17q-9 0 -20 11l-132 131q-10 10 -10 20q0 14 17 31l245 246l-245 246q-17 17 -17 30q0 11 10 21l132 131q10 10 20 10q15 0 31 -16l246 -246l245 246q16 16 33 16
q11 0 21 -10l129 -129q10 -10 10 -21q0 -15 -17 -32l-245 -246l245 -246q17 -17 17 -33z" />
    <glyph glyph-name="Oslash" unicode="&#xd8;" horiz-adv-x="1429" 
d="M1653 1518q0 -13 -8 -21l-197 -221q43 -98 43 -234q0 -79 -14 -159l-43 -244q-61 -348 -242 -502.5t-481 -154.5q-198 0 -330 102l-72 -80q-19 -22 -47 -22h-199q-18 0 -18 16q0 12 10 22l199 224q-47 103 -47 239q0 79 14 156l43 244q26 149 77 263t117.5 188t153 121
t177.5 66t198 19q208 0 338 -104l72 82q10 12 17 15t22 3h198q19 0 19 -18zM1092 1178q-49 55 -160 55q-131 0 -206 -80.5t-108 -269.5l-43 -244q-3 -24 -6 -45zM1130 924l-522 -586q49 -49 158 -49q130 0 206.5 83.5t108.5 266.5l43 244q5 35 6 41z" />
    <glyph glyph-name="Ugrave" unicode="&#xd9;" horiz-adv-x="1456" 
d="M1581 1489v-6l-162 -912q-19 -108 -50.5 -194.5t-70 -147.5t-90 -105.5t-103.5 -71.5t-118 -43t-127 -21.5t-137 -5.5q-110 0 -199.5 26t-157 79t-104.5 139t-37 200q0 76 13 145l161 912q3 17 16.5 28t30.5 11h269q15 0 25 -9.5t10 -23.5v-6l-162 -912q-13 -73 -13 -120
q0 -93 47 -135t154 -42q135 0 200 68.5t93 228.5l162 912q3 17 16.5 28t30.5 11h266q15 0 26 -9t11 -24zM1225 1645q0 -8 -6.5 -13.5t-16.5 -5.5h-203q-6 0 -10.5 0.5t-8 2t-6 2t-5.5 4t-4.5 4.5t-5.5 5.5t-5 6.5l-204 250q-7 11 -7 14q0 16 25 16h254q21 0 30.5 -6
t20.5 -24l146 -240q6 -9 6 -16z" />
    <glyph glyph-name="Uacute" unicode="&#xda;" horiz-adv-x="1456" 
d="M1581 1489v-6l-162 -912q-19 -108 -50.5 -194.5t-70 -147.5t-90 -105.5t-103.5 -71.5t-118 -43t-127 -21.5t-137 -5.5q-110 0 -199.5 26t-157 79t-104.5 139t-37 200q0 76 13 145l161 912q3 17 16.5 28t30.5 11h269q15 0 25 -9.5t10 -23.5v-6l-162 -912q-13 -73 -13 -120
q0 -93 47 -135t154 -42q135 0 200 68.5t93 228.5l162 912q3 17 16.5 28t30.5 11h266q15 0 26 -9t11 -24zM1444 1919q0 -9 -12 -18l-295 -250q-9 -8 -12.5 -11t-10.5 -7t-14 -5.5t-17 -1.5h-239q-17 0 -17 12q0 10 13 23l233 240q19 19 29 24.5t31 5.5h288q23 0 23 -12z" />
    <glyph glyph-name="Ucircumflex" unicode="&#xdb;" horiz-adv-x="1456" 
d="M1581 1489v-6l-162 -912q-19 -108 -50.5 -194.5t-70 -147.5t-90 -105.5t-103.5 -71.5t-118 -43t-127 -21.5t-137 -5.5q-110 0 -199.5 26t-157 79t-104.5 139t-37 200q0 76 13 145l161 912q3 17 16.5 28t30.5 11h269q15 0 25 -9.5t10 -23.5v-6l-162 -912q-13 -73 -13 -120
q0 -93 47 -135t154 -42q135 0 200 68.5t93 228.5l162 912q3 17 16.5 28t30.5 11h266q15 0 26 -9t11 -24zM1432 1647q0 -19 -21 -19h-201q-19 0 -27 5t-18 20l-102 143l-158 -143q-24 -21 -36 -24q-7 -1 -17 -1h-221q-17 0 -17 12q0 10 13 23l225 240q19 19 29 24.5t30 5.5
h328q22 0 31 -5.5t20 -24.5l137 -240q5 -8 5 -16z" />
    <glyph glyph-name="Udieresis" unicode="&#xdc;" horiz-adv-x="1456" 
d="M1581 1489v-6l-162 -912q-19 -108 -50.5 -194.5t-70 -147.5t-90 -105.5t-103.5 -71.5t-118 -43t-127 -21.5t-137 -5.5q-110 0 -199.5 26t-157 79t-104.5 139t-37 200q0 76 13 145l161 912q3 17 16.5 28t30.5 11h269q15 0 25 -9.5t10 -23.5v-6l-162 -912q-13 -73 -13 -120
q0 -93 47 -135t154 -42q135 0 200 68.5t93 228.5l162 912q3 17 16.5 28t30.5 11h266q15 0 26 -9t11 -24zM1415 1878v-6l-33 -191q-3 -17 -19 -29t-34 -12h-192q-15 0 -25 10t-10 25v6l33 191q3 17 18 29t33 12h192q15 0 26 -10t11 -25zM971 1878v-6l-33 -191q-3 -17 -18 -29
t-33 -12h-193q-15 0 -26 10t-11 25v6l33 191q3 17 19 29t34 12h193q15 0 25 -10t10 -25z" />
    <glyph glyph-name="Yacute" unicode="&#xdd;" horiz-adv-x="1329" 
d="M1546 1497q0 -11 -6 -20l-434 -709q-77 -127 -160 -158l-100 -569q-3 -17 -17.5 -29t-31.5 -12h-269q-15 0 -23.5 10t-8.5 25v6l100 569q-76 32 -109 158l-184 709q0 1 -1 4t-1 4q0 15 12 26t29 11h287q27 0 35 -35l118 -578q4 -19 10 -24.5t17 -5.5t18 5.5t17 24.5
l323 578q19 35 47 35h304q28 0 28 -25zM1395 1919q0 -8 -13 -18l-295 -250q-24 -21 -37 -24q-7 -1 -16 -1h-239q-17 0 -17 12q0 10 13 23l233 240q19 19 29 24.5t30 5.5h289q23 0 23 -12z" />
    <glyph glyph-name="Thorn" unicode="&#xde;" horiz-adv-x="1335" 
d="M1427 969q0 -131 -35.5 -235.5t-98.5 -176.5t-153.5 -120t-197.5 -69.5t-233 -21.5q-46 0 -160 4l-53 -309q-3 -17 -16.5 -29t-30.5 -12h-269q-30 0 -30 33v6v2l253 1442q3 17 16 28t30 11h268q15 0 24 -8.5t9 -22.5v-6v-2l-23 -121q23 2 152 2q85 0 162.5 -12.5
t148.5 -42.5t123 -74.5t83 -112.5t31 -153zM1071 918q0 81 -58.5 116t-176.5 35q-140 0 -160 -2l-76 -424q20 -2 160 -2q147 0 229 67.5t82 209.5z" />
    <glyph glyph-name="germandbls" unicode="&#xdf;" horiz-adv-x="1335" 
d="M1413 1206q0 -121 -68.5 -233t-183.5 -160q82 -48 118 -122t36 -148q0 -266 -159.5 -413.5t-432.5 -147.5q-62 0 -123 12q-38 8 -33 39l35 196q6 33 29 33h2q25 -2 74 -2q140 0 207 68.5t67 210.5q0 145 -188 145h-64q-15 0 -25 9t-10 24v6l29 162q3 17 17 28t32 11h64
q116 0 179.5 66t63.5 169q0 73 -42.5 107t-133.5 34q-128 0 -185.5 -57t-80.5 -188l-178 -1012q-3 -18 -16.5 -30.5t-30.5 -12.5h-254q-14 0 -23.5 10.5t-9.5 24.5v8l178 1012q27 152 76.5 254.5t128 163.5t178.5 86.5t240 25.5q236 0 361.5 -99.5t125.5 -279.5z" />
    <glyph glyph-name="agrave" unicode="&#xe0;" horiz-adv-x="1189" 
d="M1276 1094q0 -11 -2 -17l-180 -1036q-3 -17 -16.5 -29t-30.5 -12h-209q-15 0 -25 10.5t-10 24.5v6l8 59q-152 -118 -317 -118q-89 0 -157 32t-108 88t-59.5 124.5t-19.5 148.5q0 49 10 114q27 154 33 193q87 508 604 508q205 0 424 -51q21 -5 30.5 -8.5t17 -12.5t7.5 -24
zM911 905q-80 13 -157 13q-105 0 -158 -61t-76 -191l-37 -215q-6 -35 -6 -68q0 -125 117 -125q91 0 217 72zM1018 1309q0 -8 -6.5 -13.5t-16.5 -5.5h-202q-6 0 -10.5 0.5t-8 2t-6 2t-5.5 4t-4.5 4.5t-5.5 5.5t-5 6.5l-205 250q-6 9 -6 14q0 16 24 16h254q21 0 30.5 -6
t20.5 -24l146 -240q6 -9 6 -16z" />
    <glyph glyph-name="aacute" unicode="&#xe1;" horiz-adv-x="1189" 
d="M1276 1094q0 -11 -2 -17l-180 -1036q-3 -17 -16.5 -29t-30.5 -12h-209q-15 0 -25 10.5t-10 24.5v6l8 59q-152 -118 -317 -118q-89 0 -157 32t-108 88t-59.5 124.5t-19.5 148.5q0 49 10 114q27 154 33 193q87 508 604 508q205 0 424 -51q21 -5 30.5 -8.5t17 -12.5t7.5 -24
zM911 905q-80 13 -157 13q-105 0 -158 -61t-76 -191l-37 -215q-6 -35 -6 -68q0 -125 117 -125q91 0 217 72zM1288 1583q0 -9 -12 -18l-295 -250q-24 -21 -37 -24q-7 -1 -16 -1h-240q-16 0 -16 13q0 10 12 22l234 240q19 19 29 24.5t30 5.5h289q22 0 22 -12z" />
    <glyph glyph-name="acircumflex" unicode="&#xe2;" horiz-adv-x="1189" 
d="M1276 1094q0 -11 -2 -17l-180 -1036q-3 -17 -16.5 -29t-30.5 -12h-209q-15 0 -25 10.5t-10 24.5v6l8 59q-152 -118 -317 -118q-89 0 -157 32t-108 88t-59.5 124.5t-19.5 148.5q0 49 10 114q27 154 33 193q87 508 604 508q205 0 424 -51q21 -5 30.5 -8.5t17 -12.5t7.5 -24
zM911 905q-80 13 -157 13q-105 0 -158 -61t-76 -191l-37 -215q-6 -35 -6 -68q0 -125 117 -125q91 0 217 72zM1245 1309q0 -19 -20 -19h-201q-19 0 -27 5t-18 20l-102 143l-158 -143q-24 -21 -36 -24q-7 -1 -17 -1h-222q-16 0 -16 13q0 10 12 22l226 240q19 19 29 24.5
t30 5.5h328q22 0 31 -5.5t20 -24.5l137 -240q4 -6 4 -16z" />
    <glyph glyph-name="atilde" unicode="&#xe3;" horiz-adv-x="1189" 
d="M1276 1094q0 -11 -2 -17l-180 -1036q-3 -17 -16.5 -29t-30.5 -12h-209q-15 0 -25 10.5t-10 24.5v6l8 59q-152 -118 -317 -118q-89 0 -157 32t-108 88t-59.5 124.5t-19.5 148.5q0 49 10 114q27 154 33 193q87 508 604 508q205 0 424 -51q21 -5 30.5 -8.5t17 -12.5t7.5 -24
zM911 905q-80 13 -157 13q-105 0 -158 -61t-76 -191l-37 -215q-6 -35 -6 -68q0 -125 117 -125q91 0 217 72zM1280 1579v-10l-6 -41q-20 -135 -87.5 -192.5t-193.5 -57.5q-33 0 -79 14t-72 35l-76 59q-46 37 -76 37q-23 0 -36.5 -10.5t-20.5 -44.5l-8 -39q-6 -35 -37 -35
h-146q-26 0 -26 25q0 1 1 4.5t1 5.5l8 39q28 134 93.5 191t191.5 57q32 0 74.5 -13t70.5 -34l78 -58q49 -36 76 -36q26 0 38.5 10t18.5 45l6 39q6 33 39 33h143q25 0 25 -23z" />
    <glyph glyph-name="adieresis" unicode="&#xe4;" horiz-adv-x="1189" 
d="M1276 1094q0 -11 -2 -17l-180 -1036q-3 -17 -16.5 -29t-30.5 -12h-209q-15 0 -25 10.5t-10 24.5v6l8 59q-152 -118 -317 -118q-89 0 -157 32t-108 88t-59.5 124.5t-19.5 148.5q0 49 10 114q27 154 33 193q87 508 604 508q205 0 424 -51q21 -5 30.5 -8.5t17 -12.5t7.5 -24
zM911 905q-80 13 -157 13q-105 0 -158 -61t-76 -191l-37 -215q-6 -35 -6 -68q0 -125 117 -125q91 0 217 72zM1245 1548v-6l-33 -190q-3 -17 -19 -29t-34 -12h-192q-15 0 -25 10t-10 25v6l33 190q3 17 18 29t33 12h192q15 0 26 -10t11 -25zM801 1548v-6l-33 -190
q-3 -17 -18 -29t-33 -12h-193q-15 0 -26 10t-11 25v6l33 190q3 17 19 29t34 12h193q15 0 25 -10t10 -25z" />
    <glyph glyph-name="aring" unicode="&#xe5;" horiz-adv-x="1189" 
d="M1276 1094q0 -11 -2 -17l-180 -1036q-3 -17 -16.5 -29t-30.5 -12h-209q-15 0 -25 10.5t-10 24.5v6l8 59q-152 -118 -317 -118q-89 0 -157 32t-108 88t-59.5 124.5t-19.5 148.5q0 49 10 114q27 154 33 193q87 508 604 508q205 0 424 -51q21 -5 30.5 -8.5t17 -12.5t7.5 -24
zM911 905q-80 13 -157 13q-105 0 -158 -61t-76 -191l-37 -215q-6 -35 -6 -68q0 -125 117 -125q91 0 217 72zM1102 1518q0 -98 -70 -168t-168 -70t-168.5 70t-70.5 168t70.5 168.5t168.5 70.5t168 -70.5t70 -168.5zM956 1520q0 37 -27.5 63.5t-64.5 26.5t-62.5 -26t-25.5 -64
t25.5 -64t62.5 -26t64.5 26.5t27.5 63.5z" />
    <glyph glyph-name="ae" unicode="&#xe6;" horiz-adv-x="1804" 
d="M1839 786q0 -47 -10 -112l-23 -131q-3 -17 -18.5 -30t-32.5 -13h-635l-14 -84q-4 -24 -4 -33q0 -125 213 -125q198 0 358 16h10q27 0 27 -22v-10l-27 -148q-5 -24 -14 -35t-33 -18q-183 -59 -417 -59q-89 0 -164.5 24.5t-120.5 69.5q-190 -94 -397 -94q-168 0 -282 80
t-114 225q0 31 6 65l5 23q14 77 48 134t83 93t121 57.5t151.5 30t183.5 8.5h86l4 19q9 46 9 82q0 63 -31 88.5t-102 25.5q-205 0 -338 -14h-7q-26 0 -26 27v10l28 162q7 39 50 49q177 43 340 43q214 0 315 -123q129 123 356 123q105 0 186.5 -31.5t130.5 -87.5t74 -128
t25 -157zM1526 786q0 148 -150 148q-91 0 -145 -57t-72 -160l-6 -37h360l7 37q6 38 6 69zM805 518h-96q-111 0 -170 -33t-72 -110l-4 -23q-2 -10 -2 -28q0 -55 39.5 -81t101.5 -26q86 0 154 27z" />
    <glyph glyph-name="ccedilla" unicode="&#xe7;" horiz-adv-x="970" 
d="M1083 1126q0 -2 -1 -7t-1 -7l-32 -182q-3 -15 -16.5 -25t-28.5 -10h-5q-129 14 -247 14q-82 0 -133 -51.5t-76 -185.5l-31 -172q-10 -65 -10 -99q0 -79 34 -109t103 -30q115 0 252 14h4q14 0 23.5 -7.5t9.5 -20.5v-6l-33 -183q-4 -23 -14.5 -32t-36.5 -15
q-126 -30 -273 -30q-183 0 -293 105t-110 292q0 57 12 121l31 172q49 276 191 397t376 121q147 0 269 -31q36 -9 36 -33zM692 -84q0 -6 -12 -18l-295 -250q-3 -2 -9 -7t-8 -6.5t-6.5 -4.5t-8 -4t-9 -2t-12.5 -1h-219q-17 0 -17 12q0 10 13 23l231 240q15 18 27.5 24t33.5 6
h271q20 0 20 -12z" />
    <glyph glyph-name="egrave" unicode="&#xe8;" horiz-adv-x="1208" 
d="M1241 762q0 -49 -10 -111l-21 -119q-9 -49 -51 -49h-657q-8 -62 -8 -84q0 -79 41.5 -111t140.5 -32q208 0 397 18h6q33 0 33 -26v-6l-29 -156q-5 -26 -14.5 -37.5t-36.5 -17.5q-203 -49 -430 -49q-68 0 -130 15t-117 48t-95.5 80t-64 116t-23.5 152q0 47 10 115l25 143
q46 266 202.5 402.5t409.5 136.5q200 0 311 -120.5t111 -307.5zM932 778q0 73 -38 109.5t-122 36.5q-99 0 -154.5 -61.5t-80.5 -174.5h385q10 55 10 90zM1059 1309q0 -8 -6.5 -13.5t-16.5 -5.5h-202h-8t-7 1t-5.5 1.5t-5.5 2.5t-4 3t-4 3.5t-4 3.5t-4 5t-4 5l-204 250
q-6 9 -6 14q0 16 24 16h254q21 0 30.5 -6t20.5 -24l146 -240q6 -9 6 -16z" />
    <glyph glyph-name="eacute" unicode="&#xe9;" horiz-adv-x="1208" 
d="M1241 762q0 -49 -10 -111l-21 -119q-9 -49 -51 -49h-657q-8 -62 -8 -84q0 -79 41.5 -111t140.5 -32q208 0 397 18h6q33 0 33 -26v-6l-29 -156q-5 -26 -14.5 -37.5t-36.5 -17.5q-203 -49 -430 -49q-68 0 -130 15t-117 48t-95.5 80t-64 116t-23.5 152q0 47 10 115l25 143
q46 266 202.5 402.5t409.5 136.5q200 0 311 -120.5t111 -307.5zM932 778q0 73 -38 109.5t-122 36.5q-99 0 -154.5 -61.5t-80.5 -174.5h385q10 55 10 90zM1251 1583q0 -9 -12 -18l-295 -250q-24 -21 -37 -24q-7 -1 -16 -1h-240q-16 0 -16 13q0 10 12 22l234 240
q19 19 29 24.5t30 5.5h289q22 0 22 -12z" />
    <glyph glyph-name="ecircumflex" unicode="&#xea;" horiz-adv-x="1208" 
d="M1241 762q0 -49 -10 -111l-21 -119q-9 -49 -51 -49h-657q-8 -62 -8 -84q0 -79 41.5 -111t140.5 -32q208 0 397 18h6q33 0 33 -26v-6l-29 -156q-5 -26 -14.5 -37.5t-36.5 -17.5q-203 -49 -430 -49q-68 0 -130 15t-117 48t-95.5 80t-64 116t-23.5 152q0 47 10 115l25 143
q46 266 202.5 402.5t409.5 136.5q200 0 311 -120.5t111 -307.5zM932 778q0 73 -38 109.5t-122 36.5q-99 0 -154.5 -61.5t-80.5 -174.5h385q10 55 10 90zM1241 1309q0 -19 -20 -19h-201q-19 0 -27 5t-18 20l-103 143l-157 -143q-24 -21 -36 -24q-7 -1 -17 -1h-222
q-16 0 -16 13q0 10 12 22l226 240q19 19 29 24.5t30 5.5h328q22 0 31 -5.5t20 -24.5l137 -240q4 -6 4 -16z" />
    <glyph glyph-name="edieresis" unicode="&#xeb;" horiz-adv-x="1208" 
d="M1241 762q0 -49 -10 -111l-21 -119q-9 -49 -51 -49h-657q-8 -62 -8 -84q0 -79 41.5 -111t140.5 -32q208 0 397 18h6q33 0 33 -26v-6l-29 -156q-5 -26 -14.5 -37.5t-36.5 -17.5q-203 -49 -430 -49q-68 0 -130 15t-117 48t-95.5 80t-64 116t-23.5 152q0 47 10 115l25 143
q46 266 202.5 402.5t409.5 136.5q200 0 311 -120.5t111 -307.5zM932 778q0 73 -38 109.5t-122 36.5q-99 0 -154.5 -61.5t-80.5 -174.5h385q10 55 10 90zM1233 1544v-6l-33 -190q-3 -17 -19 -29t-34 -12h-193q-15 0 -24.5 9.5t-9.5 24.5v7l32 190q3 17 18.5 29t33.5 12h192
q15 0 26 -10t11 -25zM788 1544v-6l-32 -190q-3 -17 -18 -29t-33 -12h-193q-15 0 -26 9.5t-11 24.5v7l33 190q3 17 19 29t34 12h193q15 0 24.5 -10t9.5 -25z" />
    <glyph glyph-name="igrave" unicode="&#xec;" horiz-adv-x="593" 
d="M664 1139v-6l-193 -1092q-3 -17 -17.5 -29t-31.5 -12h-250q-15 0 -24 9.5t-9 23.5v8l193 1092q3 17 16.5 29t30.5 12h250q15 0 25 -10t10 -25zM698 1309q0 -19 -22 -19h-203q-6 0 -10.5 0.5t-8 2t-6 2t-5.5 4t-4.5 4.5t-5.5 5.5t-5 6.5l-205 250q-6 9 -6 14q0 16 25 16
h254q21 0 30.5 -6t20.5 -24l145 -240q6 -9 6 -16z" />
    <glyph glyph-name="iacute" unicode="&#xed;" horiz-adv-x="593" 
d="M664 1139v-6l-193 -1092q-3 -17 -17.5 -29t-31.5 -12h-250q-15 0 -24 9.5t-9 23.5v8l193 1092q3 17 16.5 29t30.5 12h250q15 0 25 -10t10 -25zM965 1583q0 -8 -13 -18l-295 -250q-24 -21 -37 -24q-7 -1 -16 -1h-239q-17 0 -17 13q0 10 12 22l234 240q19 19 29 24.5
t30 5.5h289q23 0 23 -12z" />
    <glyph glyph-name="icircumflex" unicode="&#xee;" horiz-adv-x="593" 
d="M664 1139v-6l-193 -1092q-3 -17 -17.5 -29t-31.5 -12h-250q-15 0 -24 9.5t-9 23.5v8l193 1092q3 17 16.5 29t30.5 12h250q15 0 25 -10t10 -25zM936 1309q0 -19 -21 -19h-200q-19 0 -27 5t-18 20l-103 143l-157 -143q-17 -15 -26 -20t-28 -5h-221q-16 0 -16 13q0 10 12 22
l225 240q19 19 29 24.5t31 5.5h327q22 0 32 -5.5t20 -24.5l137 -240q4 -6 4 -16z" />
    <glyph glyph-name="idieresis" unicode="&#xef;" horiz-adv-x="593" 
d="M664 1139v-6l-193 -1092q-3 -17 -17.5 -29t-31.5 -12h-250q-15 0 -24 9.5t-9 23.5v8l193 1092q3 17 16.5 29t30.5 12h250q15 0 25 -10t10 -25zM930 1544v-6l-33 -190q-3 -17 -19 -29t-34 -12h-193q-15 0 -25 9.5t-10 24.5v7l33 190q3 17 18 29t33 12h193q15 0 26 -10
t11 -25zM485 1544v-6l-32 -190q-3 -17 -18.5 -29t-33.5 -12h-192q-15 0 -26 9.5t-11 24.5v7l33 190q3 17 19 29t34 12h193q15 0 24.5 -10t9.5 -25z" />
    <glyph glyph-name="eth" unicode="&#xf0;" horiz-adv-x="1208" 
d="M1237 827q0 -113 -20 -233l-11 -64q-45 -285 -193 -416.5t-415 -131.5q-205 0 -316.5 116t-111.5 312q0 48 10 120l10 64q18 109 59.5 204t108.5 173.5t169.5 124t228.5 45.5q63 0 153 -23q-77 105 -204 174l-170 -114q-26 -15 -31 -15q-10 0 -19 15l-43 61q-6 9 -6 16
q0 13 29 33l94 64q-89 29 -94 30q-27 7 -27 25q0 10 4 16l76 140q11 22 31 22q10 0 16 -2q103 -25 226 -76l182 123q11 8 28 8q15 0 23 -10l45 -59q4 -4 4 -13q0 -16 -24 -32l-123 -84q159 -95 235 -245t76 -368zM895 709q0 85 -33 120t-110 35q-98 0 -152 -60.5t-78 -209.5
l-10 -64q-12 -71 -12 -118q0 -82 34.5 -117t112.5 -35q98 0 150.5 59t76.5 211l11 64q10 56 10 115z" />
    <glyph glyph-name="ntilde" unicode="&#xf1;" horiz-adv-x="1253" 
d="M1270 850q0 -52 -13 -125l-118 -682q-3 -17 -19 -30t-33 -13h-247q-14 0 -23.5 10.5t-9.5 24.5v8l119 682q10 58 10 90q0 100 -111 100q-54 0 -118 -20.5t-103 -44.5l-141 -807q-3 -17 -17.5 -30t-31.5 -13h-248q-15 0 -25 11t-10 26v6l193 1090q3 17 16.5 29t30.5 12
h223q15 0 25 -10t10 -25v-6l-8 -50q141 107 319 107q143 0 236.5 -84.5t93.5 -255.5zM1307 1579v-10l-7 -41q-20 -135 -87 -192.5t-193 -57.5q-33 0 -79.5 14t-72.5 35l-75 59q-46 37 -76 37q-24 0 -37.5 -10.5t-20.5 -44.5l-8 -39q-6 -35 -37 -35h-145q-27 0 -27 25
q0 1 1 4.5t1 5.5l9 39q28 134 93 191t191 57q33 0 75.5 -13t70.5 -34l78 -58q49 -36 75 -36q27 0 39.5 10t18.5 45l6 39q6 33 39 33h143q25 0 25 -23z" />
    <glyph glyph-name="ograve" unicode="&#xf2;" horiz-adv-x="1208" 
d="M1245 776q0 -44 -12 -119l-27 -143q-51 -267 -195.5 -399.5t-410.5 -132.5q-204 0 -317 115t-113 302q0 66 10 115l27 143q52 276 200.5 404.5t405.5 128.5q204 0 318 -112t114 -302zM913 752q0 155 -149 155q-91 0 -147 -59t-80 -191l-27 -143q-10 -62 -10 -98
q0 -79 37 -116.5t114 -37.5q97 0 149.5 61.5t76.5 190.5l26 143q10 58 10 95zM1014 1309q0 -8 -6.5 -13.5t-16.5 -5.5h-203q-6 0 -10.5 0.5t-8 2t-6 2t-5.5 4t-4.5 4.5t-5.5 5.5t-5 6.5l-204 250q-7 11 -7 14q0 16 25 16h254q21 0 30.5 -6t20.5 -24l146 -240q6 -9 6 -16z
" />
    <glyph glyph-name="oacute" unicode="&#xf3;" horiz-adv-x="1208" 
d="M1245 776q0 -44 -12 -119l-27 -143q-51 -267 -195.5 -399.5t-410.5 -132.5q-204 0 -317 115t-113 302q0 66 10 115l27 143q52 276 200.5 404.5t405.5 128.5q204 0 318 -112t114 -302zM913 752q0 155 -149 155q-91 0 -147 -59t-80 -191l-27 -143q-10 -62 -10 -98
q0 -79 37 -116.5t114 -37.5q97 0 149.5 61.5t76.5 190.5l26 143q10 58 10 95zM1243 1583q0 -9 -12 -18l-295 -250q-24 -21 -37 -24q-7 -1 -16 -1h-240q-16 0 -16 13q0 10 12 22l233 240q19 19 29 24.5t31 5.5h289q22 0 22 -12z" />
    <glyph glyph-name="ocircumflex" unicode="&#xf4;" horiz-adv-x="1208" 
d="M1245 776q0 -44 -12 -119l-27 -143q-51 -267 -195.5 -399.5t-410.5 -132.5q-204 0 -317 115t-113 302q0 66 10 115l27 143q52 276 200.5 404.5t405.5 128.5q204 0 318 -112t114 -302zM913 752q0 155 -149 155q-91 0 -147 -59t-80 -191l-27 -143q-10 -62 -10 -98
q0 -79 37 -116.5t114 -37.5q97 0 149.5 61.5t76.5 190.5l26 143q10 58 10 95zM1241 1309q0 -19 -20 -19h-201q-19 0 -27 5t-18 20l-103 143l-157 -143q-24 -21 -36 -24q-7 -1 -17 -1h-222q-16 0 -16 13q0 10 12 22l226 240q19 19 29 24.5t30 5.5h328q22 0 31 -5.5t20 -24.5
l137 -240q4 -6 4 -16z" />
    <glyph glyph-name="otilde" unicode="&#xf5;" horiz-adv-x="1208" 
d="M1245 776q0 -44 -12 -119l-27 -143q-51 -267 -195.5 -399.5t-410.5 -132.5q-204 0 -317 115t-113 302q0 66 10 115l27 143q52 276 200.5 404.5t405.5 128.5q204 0 318 -112t114 -302zM913 752q0 155 -149 155q-91 0 -147 -59t-80 -191l-27 -143q-10 -62 -10 -98
q0 -79 37 -116.5t114 -37.5q97 0 149.5 61.5t76.5 190.5l26 143q10 58 10 95zM1286 1579v-10l-6 -41q-20 -135 -87.5 -192.5t-193.5 -57.5q-33 0 -79 14t-72 35l-76 59q-46 37 -76 37q-23 0 -36.5 -10.5t-20.5 -44.5l-8 -39q-6 -35 -37 -35h-145q-27 0 -27 25q0 1 1 4.5
t1 5.5l8 39q28 134 93.5 191t191.5 57q32 0 74.5 -13t70.5 -34l78 -58q49 -36 76 -36q26 0 38.5 10t18.5 45l6 39q6 33 39 33h144q24 0 24 -23z" />
    <glyph glyph-name="odieresis" unicode="&#xf6;" horiz-adv-x="1208" 
d="M1245 776q0 -44 -12 -119l-27 -143q-51 -267 -195.5 -399.5t-410.5 -132.5q-204 0 -317 115t-113 302q0 66 10 115l27 143q52 276 200.5 404.5t405.5 128.5q204 0 318 -112t114 -302zM913 752q0 155 -149 155q-91 0 -147 -59t-80 -191l-27 -143q-10 -62 -10 -98
q0 -79 37 -116.5t114 -37.5q97 0 149.5 61.5t76.5 190.5l26 143q10 58 10 95zM1233 1544v-6l-33 -190q-3 -17 -19 -29t-34 -12h-193q-15 0 -24.5 9.5t-9.5 24.5v7l32 190q3 17 18.5 29t33.5 12h192q15 0 26 -10t11 -25zM788 1544v-6l-32 -190q-3 -17 -18 -29t-33 -12h-193
q-15 0 -26 9.5t-11 24.5v7l33 190q3 17 19 29t34 12h193q15 0 24.5 -10t9.5 -25z" />
    <glyph glyph-name="divide" unicode="&#xf7;" 
d="M961 1130q0 -17 -12 -28.5t-29 -11.5h-242q-17 0 -29 11.5t-12 28.5v230q0 17 12 29t29 12h242q17 0 29 -12t12 -29v-230zM1270 709q0 -33 -41 -33h-858q-41 0 -41 33v184q0 33 41 33h858q41 0 41 -33v-184zM961 213q0 -17 -12 -28t-29 -11h-242q-17 0 -29 11t-12 28v229
q0 17 12 29t29 12h242q17 0 29 -12t12 -29v-229z" />
    <glyph glyph-name="oslash" unicode="&#xf8;" horiz-adv-x="1208" 
d="M1378 1229q0 -15 -12 -27l-178 -194q57 -92 57 -232q0 -58 -12 -119l-27 -143q-51 -267 -195.5 -399.5t-410.5 -132.5q-165 0 -276 81l-105 -114q-19 -21 -37 -21h-135q-14 0 -14 13q0 14 12 26l184 201q-59 100 -59 231q0 66 10 115l27 143q52 276 200.5 404.5
t405.5 128.5q172 0 279 -78l100 109q18 20 37 20h135q14 0 14 -12zM872 872q-35 35 -108 35q-91 0 -147 -59t-80 -191l-27 -143q-5 -40 -6 -47zM911 705l-372 -408q35 -35 112 -35q97 0 149.5 61.5t76.5 190.5l26 143q1 9 4 25.5t4 22.5z" />
    <glyph glyph-name="ugrave" unicode="&#xf9;" horiz-adv-x="1253" 
d="M1329 1137v-7l-192 -1089q-3 -17 -16.5 -29t-30.5 -12h-230q-15 0 -25 9.5t-10 23.5v8l11 49q-83 -54 -156 -81t-170 -27q-152 0 -236 90t-84 252q0 52 13 125l119 681q3 17 18.5 30.5t32.5 13.5h248q14 0 23 -10.5t9 -24.5v-9l-118 -681q-11 -64 -11 -95q0 -53 28 -75.5
t99 -22.5q32 0 95.5 20.5t109.5 47.5l141 806q3 17 18 30.5t32 13.5h247q15 0 25 -11t10 -26zM1036 1309q0 -19 -22 -19h-203q-6 0 -10.5 0.5t-8 2t-6 2t-5.5 4t-4.5 4.5t-5.5 5.5t-5 6.5l-205 250q-6 9 -6 14q0 16 25 16h254q21 0 30.5 -6t20.5 -24l145 -240q6 -9 6 -16z
" />
    <glyph glyph-name="uacute" unicode="&#xfa;" horiz-adv-x="1253" 
d="M1329 1137v-7l-192 -1089q-3 -17 -16.5 -29t-30.5 -12h-230q-15 0 -25 9.5t-10 23.5v8l11 49q-83 -54 -156 -81t-170 -27q-152 0 -236 90t-84 252q0 52 13 125l119 681q3 17 18.5 30.5t32.5 13.5h248q14 0 23 -10.5t9 -24.5v-9l-118 -681q-11 -64 -11 -95q0 -53 28 -75.5
t99 -22.5q32 0 95.5 20.5t109.5 47.5l141 806q3 17 18 30.5t32 13.5h247q15 0 25 -11t10 -26zM1292 1583q0 -9 -12 -18l-295 -250q-24 -21 -37 -24q-7 -1 -16 -1h-240q-16 0 -16 13q0 10 12 22l234 240q19 19 29 24.5t30 5.5h289q22 0 22 -12z" />
    <glyph glyph-name="ucircumflex" unicode="&#xfb;" horiz-adv-x="1253" 
d="M1329 1137v-7l-192 -1089q-3 -17 -16.5 -29t-30.5 -12h-230q-15 0 -25 9.5t-10 23.5v8l11 49q-83 -54 -156 -81t-170 -27q-152 0 -236 90t-84 252q0 52 13 125l119 681q3 17 18.5 30.5t32.5 13.5h248q14 0 23 -10.5t9 -24.5v-9l-118 -681q-11 -64 -11 -95q0 -53 28 -75.5
t99 -22.5q32 0 95.5 20.5t109.5 47.5l141 806q3 17 18 30.5t32 13.5h247q15 0 25 -11t10 -26zM1264 1309q0 -19 -21 -19h-201q-19 0 -27 5t-18 20l-102 143l-158 -143q-24 -21 -36 -24q-7 -1 -17 -1h-221q-17 0 -17 13q0 9 13 22l225 240q19 19 29 24.5t30 5.5h328
q22 0 31 -5.5t20 -24.5l138 -240q4 -6 4 -16z" />
    <glyph glyph-name="udieresis" unicode="&#xfc;" horiz-adv-x="1253" 
d="M1329 1137v-7l-192 -1089q-3 -17 -16.5 -29t-30.5 -12h-230q-15 0 -25 9.5t-10 23.5v8l11 49q-83 -54 -156 -81t-170 -27q-152 0 -236 90t-84 252q0 52 13 125l119 681q3 17 18.5 30.5t32.5 13.5h248q14 0 23 -10.5t9 -24.5v-9l-118 -681q-11 -64 -11 -95q0 -53 28 -75.5
t99 -22.5q32 0 95.5 20.5t109.5 47.5l141 806q3 17 18 30.5t32 13.5h247q15 0 25 -11t10 -26zM1260 1544v-6l-33 -190q-3 -17 -19 -29t-34 -12h-193q-15 0 -25 9.5t-10 24.5v7l33 190q3 17 18 29t33 12h193q15 0 26 -10t11 -25zM815 1544v-6l-33 -190q-3 -17 -18 -29
t-33 -12h-192q-15 0 -26 9.5t-11 24.5v7l33 190q3 17 19 29t34 12h192q15 0 25 -10t10 -25z" />
    <glyph glyph-name="yacute" unicode="&#xfd;" horiz-adv-x="1212" 
d="M1368 1143q0 -5 -4 -17l-557 -1206q-46 -98 -84 -155.5t-95 -101t-132.5 -60.5t-188.5 -17q-56 0 -134.5 10.5t-115.5 22.5q-37 11 -37 31v6l31 166q3 17 16.5 28t30.5 11h4q6 0 110 -8.5t144 -8.5q57 0 92 23.5t62 83.5l29 63h-11q-34 0 -60 7.5t-51 27.5t-42 59t-23 97
l-108 921v7q0 41 47 41h268q29 0 33 -39l47 -783q1 -17 5.5 -21.5t14.5 -4.5h17l334 809q16 39 49 39h276q13 0 23 -9.5t10 -21.5zM1292 1583q0 -9 -12 -18l-295 -250q-24 -21 -37 -24q-7 -1 -16 -1h-240q-16 0 -16 13q0 10 12 22l234 240q19 19 29 24.5t30 5.5h289
q22 0 22 -12z" />
    <glyph glyph-name="thorn" unicode="&#xfe;" horiz-adv-x="1220" 
d="M1264 774q0 -40 -11 -112l-26 -152q-46 -266 -187.5 -397t-392.5 -131q-95 0 -192 20l-64 -360q-3 -17 -16.5 -29t-30.5 -12h-250q-15 0 -25 9.5t-10 24.5v7l334 1888q3 18 15.5 29.5t29.5 11.5h254q15 0 24 -9.5t9 -23.5v-8l-61 -350q88 10 170 10q198 0 314 -111.5
t116 -304.5zM932 768q0 78 -34.5 112.5t-113.5 34.5q-82 0 -170 -10l-112 -639q86 -12 151 -12q111 0 163.5 54t78.5 202l27 152q10 51 10 106z" />
    <glyph glyph-name="ydieresis" unicode="&#xff;" horiz-adv-x="1212" 
d="M1368 1143q0 -5 -4 -17l-557 -1206q-46 -98 -84 -155.5t-95 -101t-132.5 -60.5t-188.5 -17q-56 0 -134.5 10.5t-115.5 22.5q-37 11 -37 31v6l31 166q3 17 16.5 28t30.5 11h4q6 0 110 -8.5t144 -8.5q57 0 92 23.5t62 83.5l29 63h-11q-34 0 -60 7.5t-51 27.5t-42 59t-23 97
l-108 921v7q0 41 47 41h268q29 0 33 -39l47 -783q1 -17 5.5 -21.5t14.5 -4.5h17l334 809q16 39 49 39h276q13 0 23 -9.5t10 -21.5zM1249 1544v-6l-32 -190q-3 -17 -19.5 -29t-34.5 -12h-192q-15 0 -25 9.5t-10 24.5v7l33 190q3 17 18 29t33 12h192q15 0 26 -10t11 -25z
M805 1544v-6l-33 -190q-3 -17 -18 -29t-33 -12h-193q-15 0 -25.5 9.5t-10.5 24.5v7l32 190q3 17 19.5 29t34.5 12h192q15 0 25 -10t10 -25z" />
    <glyph glyph-name="Amacron" unicode="&#x100;" horiz-adv-x="1370" 
d="M1337 41q0 -18 -11.5 -29.5t-29.5 -11.5h-280q-15 0 -25 11t-10 26l-14 336h-420l-133 -336q-6 -16 -19 -26.5t-28 -10.5h-293q-13 0 -21 7t-8 18q0 6 4 18l529 1270q29 71 72.5 118t97 69.5t102 31t108.5 8.5t105.5 -8.5t90 -31t71 -69.5t30.5 -118l82 -1270v-2z
M958 653l-24 566q0 16 -4 23t-17 7q-22 0 -34 -30l-226 -566h305zM1386 1882v-8l-26 -148q-3 -17 -16 -27.5t-31 -10.5h-664q-15 0 -25 8.5t-10 23.5v6l27 148q3 17 17 28t32 11h664q15 0 23.5 -8.5t8.5 -22.5z" />
    <glyph glyph-name="amacron" unicode="&#x101;" horiz-adv-x="1189" 
d="M797 1190q230 0 424 -51q36 -9 46.5 -20.5t6.5 -41.5l-180 -1036q-7 -41 -47 -41h-209q-18 0 -28 10.5t-7 30.5l8 59q-152 -118 -317 -118q-89 0 -157 32t-108 88t-59.5 124.5t-19.5 148.5q0 49 10 114q27 154 33 193q87 508 604 508zM911 905q-80 13 -157 13
q-105 0 -158 -61t-76 -191l-37 -215q-6 -35 -6 -68q0 -125 117 -125q91 0 217 72zM1221 1532v-8l-27 -148q-3 -17 -16.5 -28t-30.5 -11h-664q-15 0 -24.5 9t-9.5 24v6l26 148q3 17 17 28t32 11h664q15 0 24 -8.5t9 -22.5z" />
    <glyph glyph-name="Abreve" unicode="&#x102;" horiz-adv-x="1370" 
d="M1337 41q0 -18 -11.5 -29.5t-29.5 -11.5h-280q-15 0 -25 11t-10 26l-14 336h-420l-133 -336q-6 -16 -19 -26.5t-28 -10.5h-293q-13 0 -21 7t-8 18q0 6 4 18l529 1270q29 71 72.5 118t97 69.5t102 31t108.5 8.5t105.5 -8.5t90 -31t71 -69.5t30.5 -118l82 -1270v-2z
M958 653l-24 566q0 16 -4 23t-17 7q-22 0 -34 -30l-226 -566h305zM1393 1935q0 -8 -2 -12q-109 -297 -418 -297q-145 0 -234 83.5t-98 213.5v2q0 21 23 21h157q20 0 23 -25q13 -117 147 -117q66 0 107.5 27t68.5 90q5 14 11 19.5t20 5.5h178q17 0 17 -11z" />
    <glyph glyph-name="abreve" unicode="&#x103;" horiz-adv-x="1189" 
d="M797 1190q230 0 424 -51q36 -9 46.5 -20.5t6.5 -41.5l-180 -1036q-7 -41 -47 -41h-209q-18 0 -28 10.5t-7 30.5l8 59q-152 -118 -317 -118q-89 0 -157 32t-108 88t-59.5 124.5t-19.5 148.5q0 49 10 114q27 154 33 193q87 508 604 508zM911 905q-80 13 -157 13
q-105 0 -158 -61t-76 -191l-37 -215q-6 -35 -6 -68q0 -125 117 -125q91 0 217 72zM1249 1599q0 -8 -2 -12q-109 -297 -418 -297q-145 0 -233.5 83.5t-97.5 213.5v2q0 21 22 21h158q19 0 22 -25q13 -117 148 -117q66 0 107.5 27t68.5 90q5 14 11 19.5t20 5.5h178q16 0 16 -11
z" />
    <glyph glyph-name="Aogonek" unicode="&#x104;" horiz-adv-x="1370" 
d="M1346 -338v-2q-3 -19 -27 -31q-34 -13 -105 -27t-145 -14q-242 0 -242 176q0 74 33.5 124.5t122.5 101.5l-16 383h-420l-133 -336q-6 -16 -19 -26.5t-28 -10.5h-293q-13 0 -21 7t-8 18q0 6 4 18l529 1270q29 71 72.5 118t97 69.5t102 31t108.5 8.5t105.5 -8.5t90 -31
t71 -69.5t30.5 -118l80 -1237q3 -44 -4 -57t-37 -29l-88 -51q-31 -17 -48 -35t-17 -47q0 -22 16.5 -28.5t59.5 -6.5q29 0 81 9t60 9q19 0 16 -24zM958 653l-24 566q0 16 -4 23t-17 7q-22 0 -34 -30l-226 -566h305z" />
    <glyph glyph-name="aogonek" unicode="&#x105;" horiz-adv-x="1189" 
d="M1274 1077l-174 -1001q-10 -62 -47 -82l-97 -55q-31 -17 -48 -35t-17 -47q0 -22 16.5 -28.5t59.5 -6.5q29 0 81 9t60 9q19 0 16 -24l-28 -154v-2q-3 -19 -27 -31q-34 -13 -105 -27t-145 -14q-241 0 -241 176q0 57 42.5 111t141.5 123l41 29l8 73q-152 -118 -317 -118
q-89 0 -157 32t-108 88t-59.5 124.5t-19.5 148.5q0 49 10 114q27 154 33 193q87 508 604 508q205 0 424 -51q21 -5 30.5 -8.5t17 -12.5t7.5 -24q0 -11 -2 -17zM911 905q-80 13 -157 13q-105 0 -158 -61t-76 -191l-37 -215q-6 -35 -6 -68q0 -125 117 -125q91 0 217 72z" />
    <glyph glyph-name="Cacute" unicode="&#x106;" horiz-adv-x="1148" 
d="M1323 1464v-4l-35 -198q-7 -41 -49 -41h-2h-2q-203 16 -299 16q-56 0 -102.5 -16.5t-89 -54t-74 -107t-49.5 -168.5l-48 -258q-12 -71 -12 -125q0 -221 207 -221q92 0 305 16h6q15 0 25 -8t10 -23q0 -1 -1 -4.5t-1 -5.5l-37 -199q-4 -21 -16 -31t-37 -16
q-40 -12 -126.5 -23t-184.5 -11q-102 0 -192.5 31.5t-161 91.5t-111.5 157t-41 219q0 78 14 152l47 258q29 157 82 274t119 187.5t153.5 113.5t174 58.5t192.5 15.5q97 0 179.5 -11t119.5 -24q20 -6 28.5 -13.5t8.5 -21.5v-6zM1333 1921q0 -9 -12 -18l-295 -250
q-24 -21 -37 -24q-7 -1 -16 -1h-240q-16 0 -16 12q0 11 12 23l234 240q19 19 29 24.5t30 5.5h289q22 0 22 -12z" />
    <glyph glyph-name="cacute" unicode="&#x107;" horiz-adv-x="970" 
d="M778 1190q147 0 269 -31q26 -7 31.5 -16t2.5 -31l-32 -182q-2 -14 -5.5 -21t-14.5 -11.5t-30 -2.5q-137 14 -247 14q-82 0 -133 -51.5t-76 -185.5l-31 -172q-10 -65 -10 -99q0 -79 34 -109t103 -30q115 0 252 14q22 3 31 -6.5t6 -27.5l-33 -183q-4 -23 -14.5 -32
t-36.5 -15q-126 -30 -273 -30q-183 0 -293 105t-110 292q0 57 12 121l31 172q49 276 191 397t376 121zM1151 1583q0 -9 -12 -18l-295 -250q-24 -21 -37 -24q-7 -1 -16 -1h-240q-16 0 -16 13q0 10 12 22l233 240q19 19 29 24.5t31 5.5h288q23 0 23 -12z" />
    <glyph glyph-name="Ccircumflex" unicode="&#x108;" horiz-adv-x="1148" 
d="M1323 1464v-4l-35 -198q-7 -41 -49 -41h-2h-2q-203 16 -299 16q-56 0 -102.5 -16.5t-89 -54t-74 -107t-49.5 -168.5l-48 -258q-12 -71 -12 -125q0 -221 207 -221q92 0 305 16h6q15 0 25 -8t10 -23q0 -1 -1 -4.5t-1 -5.5l-37 -199q-4 -21 -16 -31t-37 -16
q-40 -12 -126.5 -23t-184.5 -11q-102 0 -192.5 31.5t-161 91.5t-111.5 157t-41 219q0 78 14 152l47 258q29 157 82 274t119 187.5t153.5 113.5t174 58.5t192.5 15.5q97 0 179.5 -11t119.5 -24q20 -6 28.5 -13.5t8.5 -21.5v-6zM1319 1647q0 -19 -21 -19h-200q-19 0 -27 5
t-18 20l-103 143l-157 -143q-17 -15 -26 -20t-28 -5h-221q-16 0 -16 12q0 11 12 23l225 240q19 19 29 24.5t31 5.5h327q22 0 32 -5.5t20 -24.5l137 -240q4 -6 4 -16z" />
    <glyph glyph-name="ccircumflex" unicode="&#x109;" horiz-adv-x="970" 
d="M778 1190q147 0 269 -31q26 -7 31.5 -16t2.5 -31l-32 -182q-2 -14 -5.5 -21t-14.5 -11.5t-30 -2.5q-137 14 -247 14q-82 0 -133 -51.5t-76 -185.5l-31 -172q-10 -65 -10 -99q0 -79 34 -109t103 -30q115 0 252 14q22 3 31 -6.5t6 -27.5l-33 -183q-4 -23 -14.5 -32
t-36.5 -15q-126 -30 -273 -30q-183 0 -293 105t-110 292q0 57 12 121l31 172q49 276 191 397t376 121zM1145 1309q0 -19 -21 -19h-200q-19 0 -27 5t-18 20l-103 143l-158 -143q-24 -21 -36 -24q-7 -1 -17 -1h-221q-16 0 -16 13q0 10 12 22l225 240q19 19 29 24.5t31 5.5h327
q22 0 32 -5.5t20 -24.5l137 -240q4 -6 4 -16z" />
    <glyph glyph-name="Cdotaccent" unicode="&#x10a;" horiz-adv-x="1148" 
d="M1323 1464v-4l-35 -198q-7 -41 -49 -41h-2h-2q-203 16 -299 16q-56 0 -102.5 -16.5t-89 -54t-74 -107t-49.5 -168.5l-48 -258q-12 -71 -12 -125q0 -221 207 -221q92 0 305 16h6q15 0 25 -8t10 -23q0 -1 -1 -4.5t-1 -5.5l-37 -199q-4 -21 -16 -31t-37 -16
q-40 -12 -126.5 -23t-184.5 -11q-102 0 -192.5 31.5t-161 91.5t-111.5 157t-41 219q0 78 14 152l47 258q29 157 82 274t119 187.5t153.5 113.5t174 58.5t192.5 15.5q97 0 179.5 -11t119.5 -24q20 -6 28.5 -13.5t8.5 -21.5v-6zM1180 1931v-6l-37 -209q-3 -17 -16.5 -29
t-30.5 -12h-242q-15 0 -25 10t-10 25v6l37 209q3 17 16.5 28t30.5 11h242q15 0 25 -9t10 -24z" />
    <glyph glyph-name="cdotaccent" unicode="&#x10b;" horiz-adv-x="970" 
d="M778 1190q147 0 269 -31q26 -7 31.5 -16t2.5 -31l-32 -182q-2 -14 -5.5 -21t-14.5 -11.5t-30 -2.5q-137 14 -247 14q-82 0 -133 -51.5t-76 -185.5l-31 -172q-10 -65 -10 -99q0 -79 34 -109t103 -30q115 0 252 14q22 3 31 -6.5t6 -27.5l-33 -183q-4 -23 -14.5 -32
t-36.5 -15q-126 -30 -273 -30q-183 0 -293 105t-110 292q0 57 12 121l31 172q49 276 191 397t376 121zM985 1552v-6l-37 -209q-3 -17 -16.5 -29t-30.5 -12h-242q-15 0 -24.5 10t-9.5 25v6l37 209q3 17 16.5 28t30.5 11h241q15 0 25 -9t10 -24z" />
    <glyph glyph-name="Ccaron" unicode="&#x10c;" horiz-adv-x="1148" 
d="M1323 1464v-4l-35 -198q-7 -41 -49 -41h-2h-2q-203 16 -299 16q-56 0 -102.5 -16.5t-89 -54t-74 -107t-49.5 -168.5l-48 -258q-12 -71 -12 -125q0 -221 207 -221q92 0 305 16h6q15 0 25 -8t10 -23q0 -1 -1 -4.5t-1 -5.5l-37 -199q-4 -21 -16 -31t-37 -16
q-40 -12 -126.5 -23t-184.5 -11q-102 0 -192.5 31.5t-161 91.5t-111.5 157t-41 219q0 78 14 152l47 258q29 157 82 274t119 187.5t153.5 113.5t174 58.5t192.5 15.5q97 0 179.5 -11t119.5 -24q20 -6 28.5 -13.5t8.5 -21.5v-6zM1382 1921q0 -11 -12 -23l-223 -239
q-19 -19 -30 -25t-32 -6h-327q-21 0 -29.5 5.5t-19.5 25.5l-140 239q-6 9 -6 17q0 18 23 18h200q19 0 26 -4.5t19 -19.5l105 -144l156 144q12 11 17 15t14 6.5t22 2.5h221q16 0 16 -12z" />
    <glyph glyph-name="ccaron" unicode="&#x10d;" horiz-adv-x="970" 
d="M778 1190q147 0 269 -31q26 -7 31.5 -16t2.5 -31l-32 -182q-2 -14 -5.5 -21t-14.5 -11.5t-30 -2.5q-137 14 -247 14q-82 0 -133 -51.5t-76 -185.5l-31 -172q-10 -65 -10 -99q0 -79 34 -109t103 -30q115 0 252 14q22 3 31 -6.5t6 -27.5l-33 -183q-4 -23 -14.5 -32
t-36.5 -15q-126 -30 -273 -30q-183 0 -293 105t-110 292q0 57 12 121l31 172q49 276 191 397t376 121zM1200 1583q0 -10 -12 -22l-223 -240q-19 -19 -30 -25t-32 -6h-328q-21 0 -29.5 5.5t-19.5 25.5l-139 240q-6 9 -6 16q0 18 22 18h201q19 0 26 -4.5t19 -19.5l105 -144
l155 144q17 15 26 19.5t28 4.5h221q16 0 16 -12z" />
    <glyph glyph-name="Dcaron" unicode="&#x10e;" horiz-adv-x="1396" 
d="M1464 1040q0 -76 -14 -147l-47 -264q-61 -345 -242.5 -496t-525.5 -151q-254 0 -430 30q-49 9 -49 51q0 13 2 21l239 1354q6 34 23 50t49 21q190 31 442 31q257 0 405 -132t148 -368zM1112 1014q0 126 -65 177.5t-189 51.5q-87 0 -145 -4l-170 -956q58 -4 145 -4
q77 0 133.5 16t103.5 55t78.5 108t49.5 171l47 264q12 68 12 121zM1413 1921q0 -11 -12 -23l-223 -239q-19 -19 -30 -25t-32 -6h-328q-21 0 -29.5 5.5t-19.5 25.5l-139 239q-6 9 -6 17q0 18 22 18h201q19 0 26 -4.5t19 -19.5l105 -144l155 144q17 15 26 19.5t28 4.5h221
q16 0 16 -12z" />
    <glyph glyph-name="dcaron" unicode="&#x10f;" horiz-adv-x="1669" 
d="M1368 1536v-6l-254 -1436q-5 -26 -19 -38t-55 -21q-225 -53 -444 -53q-201 0 -314.5 115t-113.5 302q0 58 8 107l27 160q47 279 191.5 401.5t414.5 122.5q66 0 166 -14l63 354q3 17 16.5 29t30.5 12h246q15 0 26 -10t11 -25zM928 905q-78 10 -166 10q-108 0 -157.5 -58
t-72.5 -191l-26 -160q-10 -68 -10 -109q0 -73 33.5 -108t115.5 -35q88 0 170 12zM1931 1548q-1 -1 -2 -4t-2.5 -6t-3.5 -6l-231 -449q-23 -39 -47 -39h-207q-18 0 -15 21q1 1 3 8t4 10l188 449q16 39 49 39h244q23 0 20 -23z" />
    <glyph glyph-name="Dcroat" unicode="&#x110;" horiz-adv-x="1396" 
d="M1464 1040q0 -76 -14 -147l-47 -264q-61 -345 -242.5 -496t-525.5 -151q-254 0 -430 30q-49 9 -49 51q0 13 2 21l98 555h-115q-15 0 -23.5 8.5t-8.5 22.5v8l34 199q3 17 16 27.5t31 10.5h115l92 523q6 34 23 50t49 21q190 31 442 31q257 0 405 -132t148 -368zM1112 1014
q0 126 -65 177.5t-189 51.5q-87 0 -145 -4l-58 -324h125q31 0 31 -30v-8l-35 -199q-3 -17 -15.5 -28t-29.5 -11h-125l-63 -356q58 -4 145 -4q77 0 133.5 16t103.5 55t78.5 108t49.5 171l47 264q12 68 12 121z" />
    <glyph glyph-name="dcroat" unicode="&#x111;" horiz-adv-x="1220" 
d="M1399 1290h-74l-211 -1196q-5 -26 -19 -38t-55 -21q-225 -53 -444 -53q-201 0 -314.5 115t-113.5 302q0 58 8 107l27 160q47 279 191.5 401.5t414.5 122.5q66 0 166 -14l20 114h-315q-15 0 -24 8.5t-9 22.5v8l23 125q3 17 16.5 28t30.5 11h315l6 37q3 17 16.5 29t30.5 12
h246q15 0 26 -10t11 -25v-6l-6 -37h74q30 0 30 -31v-8l-22 -125q-3 -17 -15.5 -28t-29.5 -11zM928 905q-78 10 -166 10q-108 0 -157.5 -58t-72.5 -191l-26 -160q-10 -68 -10 -109q0 -73 33.5 -108t115.5 -35q88 0 170 12z" />
    <glyph glyph-name="Emacron" unicode="&#x112;" horiz-adv-x="1189" 
d="M1335 1485q0 -2 -1 -6t-1 -6l-35 -191q-3 -17 -16.5 -29t-30.5 -12h-415q-71 0 -106.5 -26.5t-49.5 -110.5l-33 -189h531q15 0 23.5 -9.5t8.5 -24.5v-7l-32 -194q-3 -17 -18 -29t-32 -12h-530l-39 -217q-6 -30 -6 -53q0 -48 26.5 -67t86.5 -19h415q15 0 25 -10t10 -25v-6
l-35 -191q-3 -20 -14 -30t-33 -13q-192 -26 -397 -26q-67 0 -127 9.5t-118 34t-99.5 62.5t-66.5 98t-25 136q0 42 10 100l121 680q15 83 40 149t55.5 111.5t73 78.5t85 52t99 29.5t107 14t117.5 3.5q200 0 389 -27q20 -3 28.5 -9t8.5 -19zM1327 1882v-8l-27 -148
q-3 -17 -16 -27.5t-31 -10.5h-663q-15 0 -25 8.5t-10 23.5v6l27 148q3 17 17 28t32 11h663q15 0 24 -8.5t9 -22.5z" />
    <glyph glyph-name="emacron" unicode="&#x113;" horiz-adv-x="1208" 
d="M1241 762q0 -49 -10 -111l-21 -119q-9 -49 -51 -49h-657q-8 -62 -8 -84q0 -79 41.5 -111t140.5 -32q145 0 397 18q26 2 34 -4.5t5 -27.5l-29 -156q-5 -26 -14.5 -37.5t-36.5 -17.5q-203 -49 -430 -49q-68 0 -130 15t-117 48t-95.5 80t-64 116t-23.5 152q0 47 10 115
l25 143q46 266 202.5 402.5t409.5 136.5q200 0 311 -120.5t111 -307.5zM932 778q0 73 -38 109.5t-122 36.5q-99 0 -154.5 -61.5t-80.5 -174.5h385q10 55 10 90zM1239 1532v-8l-27 -148q-3 -17 -16.5 -28t-30.5 -11h-663q-15 0 -25 9t-10 24v6l27 148q3 17 17 28t32 11h663
q15 0 24 -8.5t9 -22.5z" />
    <glyph glyph-name="Ebreve" unicode="&#x114;" horiz-adv-x="1189" 
d="M1335 1485q0 -2 -1 -6t-1 -6l-35 -191q-3 -17 -16.5 -29t-30.5 -12h-415q-71 0 -106.5 -26.5t-49.5 -110.5l-33 -189h531q15 0 23.5 -9.5t8.5 -24.5v-7l-32 -194q-3 -17 -18 -29t-32 -12h-530l-39 -217q-6 -30 -6 -53q0 -48 26.5 -67t86.5 -19h415q15 0 25 -10t10 -25v-6
l-35 -191q-3 -20 -14 -30t-33 -13q-192 -26 -397 -26q-67 0 -127 9.5t-118 34t-99.5 62.5t-66.5 98t-25 136q0 42 10 100l121 680q15 83 40 149t55.5 111.5t73 78.5t85 52t99 29.5t107 14t117.5 3.5q200 0 389 -27q20 -3 28.5 -9t8.5 -19zM1358 1939q0 -8 -2 -12
q-109 -297 -418 -297q-145 0 -234 83.5t-98 213.5v2q0 21 23 21h157q20 0 23 -25q13 -117 147 -117q66 0 108 27t69 90q5 14 10.5 19.5t19.5 5.5h178q17 0 17 -11z" />
    <glyph glyph-name="ebreve" unicode="&#x115;" horiz-adv-x="1208" 
d="M1241 762q0 -49 -10 -111l-21 -119q-9 -49 -51 -49h-657q-8 -62 -8 -84q0 -79 41.5 -111t140.5 -32q145 0 397 18q26 2 34 -4.5t5 -27.5l-29 -156q-5 -26 -14.5 -37.5t-36.5 -17.5q-203 -49 -430 -49q-68 0 -130 15t-117 48t-95.5 80t-64 116t-23.5 152q0 47 10 115
l25 143q46 266 202.5 402.5t409.5 136.5q200 0 311 -120.5t111 -307.5zM932 778q0 73 -38 109.5t-122 36.5q-99 0 -154.5 -61.5t-80.5 -174.5h385q10 55 10 90zM1278 1585q0 -8 -2 -12q-109 -297 -418 -297q-145 0 -234 83.5t-98 213.5v2q0 20 23 20h158q19 0 22 -24
q13 -117 148 -117q66 0 107.5 27t68.5 90q5 14 10.5 19t19.5 5h179q16 0 16 -10z" />
    <glyph glyph-name="Edotaccent" unicode="&#x116;" horiz-adv-x="1189" 
d="M1335 1485q0 -2 -1 -6t-1 -6l-35 -191q-3 -17 -16.5 -29t-30.5 -12h-415q-71 0 -106.5 -26.5t-49.5 -110.5l-33 -189h531q15 0 23.5 -9.5t8.5 -24.5v-7l-32 -194q-3 -17 -18 -29t-32 -12h-530l-39 -217q-6 -30 -6 -53q0 -48 26.5 -67t86.5 -19h415q15 0 25 -10t10 -25v-6
l-35 -191q-3 -20 -14 -30t-33 -13q-192 -26 -397 -26q-67 0 -127 9.5t-118 34t-99.5 62.5t-66.5 98t-25 136q0 42 10 100l121 680q15 83 40 149t55.5 111.5t73 78.5t85 52t99 29.5t107 14t117.5 3.5q200 0 389 -27q20 -3 28.5 -9t8.5 -19zM1120 1903v-7l-37 -208
q-3 -17 -16.5 -29t-30.5 -12h-241q-15 0 -25 9.5t-10 24.5v7l37 208q3 17 16.5 28t30.5 11h241q15 0 25 -8.5t10 -23.5z" />
    <glyph glyph-name="edotaccent" unicode="&#x117;" horiz-adv-x="1208" 
d="M1241 762q0 -49 -10 -111l-21 -119q-9 -49 -51 -49h-657q-8 -62 -8 -84q0 -79 41.5 -111t140.5 -32q145 0 397 18q26 2 34 -4.5t5 -27.5l-29 -156q-5 -26 -14.5 -37.5t-36.5 -17.5q-203 -49 -430 -49q-68 0 -130 15t-117 48t-95.5 80t-64 116t-23.5 152q0 47 10 115
l25 143q46 266 202.5 402.5t409.5 136.5q200 0 311 -120.5t111 -307.5zM932 778q0 73 -38 109.5t-122 36.5q-99 0 -154.5 -61.5t-80.5 -174.5h385q10 55 10 90zM1044 1552v-6l-36 -209q-3 -17 -16.5 -29t-30.5 -12h-242q-15 0 -25 10t-10 25v6l37 209q3 17 16.5 28t30.5 11
h242q15 0 24.5 -9t9.5 -24z" />
    <glyph glyph-name="Eogonek" unicode="&#x118;" horiz-adv-x="1189" 
d="M1335 1485q0 -2 -1 -6t-1 -6l-35 -191q-3 -17 -16.5 -29t-30.5 -12h-415q-71 0 -106.5 -26.5t-49.5 -110.5l-33 -189h531q15 0 23.5 -9.5t8.5 -24.5v-7l-32 -194q-3 -17 -18 -29t-32 -12h-530l-39 -217q-6 -30 -6 -53q0 -48 26.5 -67t86.5 -19h415q15 0 25 -10t10 -25v-6
l-35 -191q-3 -20 -14 -30t-33 -13q-24 -5 -67 -8l-101 -61q-31 -17 -48 -35t-17 -47q0 -35 76 -35q29 0 81 9t60 9q19 0 16 -24l-28 -154v-2q-3 -19 -27 -31q-34 -13 -105 -27t-145 -14q-242 0 -242 176q0 71 31.5 120.5t112.5 97.5q-67 1 -126 11t-116 34.5t-97.5 62
t-65.5 97t-25 135.5q0 42 10 100l121 680q15 83 40 149t55.5 111.5t73 78.5t85 52t99 29.5t107 14t117.5 3.5q200 0 389 -27q20 -3 28.5 -9t8.5 -19z" />
    <glyph glyph-name="eogonek" unicode="&#x119;" horiz-adv-x="1208" 
d="M1241 762q0 -49 -10 -111l-21 -119q-9 -49 -51 -49h-657q-8 -62 -8 -84q0 -79 41.5 -111t140.5 -32q208 0 397 18h6q33 0 33 -26v-6l-29 -156q-4 -24 -14 -35.5t-31 -23.5l-147 -88q-24 -15 -35 -23t-21 -23t-10 -32q0 -22 13 -30.5t41 -8.5q43 0 100.5 9t62.5 9
q20 0 17 -24l-29 -154q-7 -27 -26 -33q-34 -13 -105 -27t-145 -14q-242 0 -242 176q0 71 31 120.5t112 97.5h-53q-68 0 -130 15t-117 48t-95.5 80t-64 116t-23.5 152q0 47 10 115l25 143q46 266 202.5 402.5t409.5 136.5q200 0 311 -120.5t111 -307.5zM932 778
q0 73 -38 109.5t-122 36.5q-99 0 -154.5 -61.5t-80.5 -174.5h385q10 55 10 90z" />
    <glyph glyph-name="Ecaron" unicode="&#x11a;" horiz-adv-x="1189" 
d="M1335 1485q0 -2 -1 -6t-1 -6l-35 -191q-3 -17 -16.5 -29t-30.5 -12h-415q-71 0 -106.5 -26.5t-49.5 -110.5l-33 -189h531q15 0 23.5 -9.5t8.5 -24.5v-7l-32 -194q-3 -17 -18 -29t-32 -12h-530l-39 -217q-6 -30 -6 -53q0 -48 26.5 -67t86.5 -19h415q15 0 25 -10t10 -25v-6
l-35 -191q-3 -20 -14 -30t-33 -13q-192 -26 -397 -26q-67 0 -127 9.5t-118 34t-99.5 62.5t-66.5 98t-25 136q0 42 10 100l121 680q15 83 40 149t55.5 111.5t73 78.5t85 52t99 29.5t107 14t117.5 3.5q200 0 389 -27q20 -3 28.5 -9t8.5 -19zM1368 1921q0 -11 -12 -23
l-223 -239q-19 -19 -30 -25t-32 -6h-328q-21 0 -29.5 5.5t-19.5 25.5l-139 239q-6 9 -6 17q0 18 22 18h201q19 0 26 -4.5t19 -19.5l105 -144l155 144q12 11 17 15t14 6.5t22 2.5h222q16 0 16 -12z" />
    <glyph glyph-name="ecaron" unicode="&#x11b;" horiz-adv-x="1208" 
d="M1241 762q0 -49 -10 -111l-21 -119q-9 -49 -51 -49h-657q-8 -62 -8 -84q0 -79 41.5 -111t140.5 -32q145 0 397 18q26 2 34 -4.5t5 -27.5l-29 -156q-5 -26 -14.5 -37.5t-36.5 -17.5q-203 -49 -430 -49q-68 0 -130 15t-117 48t-95.5 80t-64 116t-23.5 152q0 47 10 115
l25 143q46 266 202.5 402.5t409.5 136.5q200 0 311 -120.5t111 -307.5zM932 778q0 73 -38 109.5t-122 36.5q-99 0 -154.5 -61.5t-80.5 -174.5h385q10 55 10 90zM1290 1583q0 -10 -12 -22l-223 -240q-19 -19 -30 -25t-32 -6h-327q-21 0 -30 6t-20 25l-139 240q-6 9 -6 16
q0 18 23 18h200q19 0 26 -4.5t19 -19.5l105 -144l155 144q17 15 26 19.5t28 4.5h221q16 0 16 -12z" />
    <glyph glyph-name="Gcircumflex" unicode="&#x11c;" 
d="M1446 1468v-6l-39 -217q-3 -16 -11 -21t-24 -5h-6q-24 1 -106 5.5t-161 7.5t-157 3q-66 0 -115.5 -15t-93 -52.5t-73.5 -107t-48 -173.5l-45 -256q-14 -89 -14 -135q0 -213 182 -213q87 0 160 6l82 471q3 17 16.5 29t30.5 12h262q15 0 24 -9.5t9 -23.5v-8l-121 -688
q-3 -22 -13.5 -32.5t-35.5 -14.5q-215 -43 -467 -43q-66 0 -131 16t-129.5 53.5t-113 93t-79 142t-30.5 192.5q0 77 14 154l45 254q21 118 55.5 213.5t76 163t96.5 117.5t111 80t125.5 48t133.5 24.5t141 6.5q203 0 420 -47q29 -8 29 -25zM1399 1649q0 -19 -21 -19h-200
q-19 0 -27 5t-18 20l-103 143l-158 -143q-24 -21 -36 -24q-7 -1 -17 -1h-221q-16 0 -16 12q0 11 12 23l225 240q19 19 29 24.5t31 5.5h327q22 0 31 -5.5t20 -24.5l138 -240q4 -6 4 -16z" />
    <glyph glyph-name="gcircumflex" unicode="&#x11d;" horiz-adv-x="1173" 
d="M1270 1096q0 -2 -1 -7t-1 -8l-191 -1085q-38 -218 -175 -314t-394 -96q-224 0 -381 56q-33 11 -33 36q0 3 1 8.5t1 8.5l25 137q6 37 43 37h4q281 -25 387 -25q104 0 141.5 30.5t55.5 121.5l4 22q-85 -18 -166 -18q-94 0 -174 25.5t-140.5 75t-94.5 128.5t-34 179
q0 59 11 118l24 140q51 283 192.5 403.5t413.5 120.5q227 0 426 -51q56 -14 56 -43zM911 901q-86 14 -170 14q-102 0 -154.5 -64.5t-74.5 -184.5l-25 -140q-10 -65 -10 -100q0 -88 42 -122t122 -34q51 0 162 15zM1212 1309q0 -19 -20 -19h-201q-19 0 -27 5t-18 20l-102 143
l-158 -143q-24 -21 -36 -24q-7 -1 -17 -1h-221q-17 0 -17 13q0 9 13 22l225 240q19 19 29 24.5t30 5.5h328q22 0 31 -5.5t20 -24.5l137 -240q4 -6 4 -16z" />
    <glyph glyph-name="Gbreve" unicode="&#x11e;" 
d="M1446 1468v-6l-39 -217q-3 -16 -11 -21t-24 -5h-6q-24 1 -106 5.5t-161 7.5t-157 3q-66 0 -115.5 -15t-93 -52.5t-73.5 -107t-48 -173.5l-45 -256q-14 -89 -14 -135q0 -213 182 -213q87 0 160 6l82 471q3 17 16.5 29t30.5 12h262q15 0 24 -9.5t9 -23.5v-8l-121 -688
q-3 -22 -13.5 -32.5t-35.5 -14.5q-215 -43 -467 -43q-66 0 -131 16t-129.5 53.5t-113 93t-79 142t-30.5 192.5q0 77 14 154l45 254q21 118 55.5 213.5t76 163t96.5 117.5t111 80t125.5 48t133.5 24.5t141 6.5q203 0 420 -47q29 -8 29 -25zM1405 1935q0 -8 -2 -12
q-109 -297 -418 -297q-145 0 -234 83.5t-98 213.5v2q0 21 23 21h158q19 0 22 -25q13 -117 148 -117q66 0 107.5 27t68.5 90q5 14 10.5 19.5t19.5 5.5h179q16 0 16 -11z" />
    <glyph glyph-name="gbreve" unicode="&#x11f;" horiz-adv-x="1173" 
d="M1270 1096q0 -2 -1 -7t-1 -8l-191 -1085q-38 -218 -175 -314t-394 -96q-224 0 -381 56q-33 11 -33 36q0 3 1 8.5t1 8.5l25 137q6 37 43 37h4q281 -25 387 -25q104 0 141.5 30.5t55.5 121.5l4 22q-85 -18 -166 -18q-94 0 -174 25.5t-140.5 75t-94.5 128.5t-34 179
q0 59 11 118l24 140q51 283 192.5 403.5t413.5 120.5q227 0 426 -51q56 -14 56 -43zM911 901q-86 14 -170 14q-102 0 -154.5 -64.5t-74.5 -184.5l-25 -140q-10 -65 -10 -100q0 -88 42 -122t122 -34q51 0 162 15zM1233 1597q0 -8 -2 -12q-109 -297 -418 -297
q-145 0 -234 83.5t-98 213.5v2q0 21 23 21h158q19 0 22 -25q13 -117 147 -117q66 0 108 27t69 90q5 14 10.5 19.5t19.5 5.5h179q16 0 16 -11z" />
    <glyph glyph-name="Gdotaccent" unicode="&#x120;" 
d="M1446 1468v-6l-39 -217q-3 -16 -11 -21t-24 -5h-6q-24 1 -106 5.5t-161 7.5t-157 3q-66 0 -115.5 -15t-93 -52.5t-73.5 -107t-48 -173.5l-45 -256q-14 -89 -14 -135q0 -213 182 -213q87 0 160 6l82 471q3 17 16.5 29t30.5 12h262q15 0 24 -9.5t9 -23.5v-8l-121 -688
q-3 -22 -13.5 -32.5t-35.5 -14.5q-215 -43 -467 -43q-66 0 -131 16t-129.5 53.5t-113 93t-79 142t-30.5 192.5q0 77 14 154l45 254q21 118 55.5 213.5t76 163t96.5 117.5t111 80t125.5 48t133.5 24.5t141 6.5q203 0 420 -47q29 -8 29 -25zM1237 1933v-6l-37 -209
q-3 -17 -16.5 -29t-30.5 -12h-242q-15 0 -24.5 10t-9.5 25v6l36 209q3 17 17 28t31 11h241q15 0 25 -9t10 -24z" />
    <glyph glyph-name="gdotaccent" unicode="&#x121;" horiz-adv-x="1173" 
d="M1270 1096q0 -2 -1 -7t-1 -8l-191 -1085q-38 -218 -175 -314t-394 -96q-224 0 -381 56q-33 11 -33 36q0 3 1 8.5t1 8.5l25 137q6 37 43 37h4q281 -25 387 -25q104 0 141.5 30.5t55.5 121.5l4 22q-85 -18 -166 -18q-94 0 -174 25.5t-140.5 75t-94.5 128.5t-34 179
q0 59 11 118l24 140q51 283 192.5 403.5t413.5 120.5q227 0 426 -51q56 -14 56 -43zM911 901q-86 14 -170 14q-102 0 -154.5 -64.5t-74.5 -184.5l-25 -140q-10 -65 -10 -100q0 -88 42 -122t122 -34q51 0 162 15zM1042 1552v-6l-36 -209q-3 -17 -17 -29t-31 -12h-241
q-15 0 -25 10t-10 25v6l37 209q3 17 16.5 28t30.5 11h242q15 0 24.5 -9t9.5 -24z" />
    <glyph glyph-name="Gcommaaccent" unicode="&#x122;" 
d="M1446 1468v-6l-39 -217q-3 -16 -11 -21t-24 -5h-6q-24 1 -106 5.5t-161 7.5t-157 3q-66 0 -115.5 -15t-93 -52.5t-73.5 -107t-48 -173.5l-45 -256q-14 -89 -14 -135q0 -213 182 -213q87 0 160 6l82 471q3 17 16.5 29t30.5 12h262q15 0 24 -9.5t9 -23.5v-8l-121 -688
q-3 -22 -13.5 -32.5t-35.5 -14.5q-215 -43 -467 -43q-66 0 -131 16t-129.5 53.5t-113 93t-79 142t-30.5 192.5q0 77 14 154l45 254q21 118 55.5 213.5t76 163t96.5 117.5t111 80t125.5 48t133.5 24.5t141 6.5q203 0 420 -47q29 -8 29 -25zM864 -123q0 -4 -6 -16l-172 -219
q-22 -27 -31.5 -34t-27.5 -7h-154q-11 0 -16 8t-2 20q0 9 4 13l92 219q16 39 47 39h240q20 0 24 -5t2 -18z" />
    <glyph glyph-name="gcommaaccent" unicode="&#x123;" horiz-adv-x="1173" 
d="M1270 1096q0 -2 -1 -7t-1 -8l-191 -1085q-38 -218 -175 -314t-394 -96q-224 0 -381 56q-33 11 -33 36q0 3 1 8.5t1 8.5l25 137q6 37 43 37h4q281 -25 387 -25q104 0 141.5 30.5t55.5 121.5l4 22q-85 -18 -166 -18q-94 0 -174 25.5t-140.5 75t-94.5 128.5t-34 179
q0 59 11 118l24 140q51 283 192.5 403.5t413.5 120.5q227 0 426 -51q56 -14 56 -43zM911 901q-86 14 -170 14q-102 0 -154.5 -64.5t-74.5 -184.5l-25 -140q-10 -65 -10 -100q0 -88 42 -122t122 -34q51 0 162 15zM649 1315q6 12 8 14l172 221q22 27 31 34t27 7h153
q24 0 21 -24q0 -5 -4 -17l-92 -221q-16 -39 -50 -39h-239q-13 0 -21 7t-6 18z" />
    <glyph glyph-name="Hcircumflex" unicode="&#x124;" horiz-adv-x="1492" 
d="M1579 1489v-6l-254 -1442q-3 -17 -17.5 -29t-31.5 -12h-268q-15 0 -24 9.5t-9 23.5v8l102 592h-506l-102 -592q-3 -17 -17.5 -29t-31.5 -12h-268q-15 0 -24 9.5t-9 23.5v8l254 1442q3 17 16.5 28t30.5 11h268q15 0 25 -9t10 -24v-6l-96 -545h506l96 545q3 17 16.5 28
t30.5 11h268q15 0 25 -9t10 -24zM1430 1647q0 -19 -21 -19h-201q-19 0 -27 5t-18 20l-102 143l-158 -143q-24 -21 -36 -24q-7 -1 -17 -1h-221q-17 0 -17 12q0 10 13 23l225 240q19 19 29 24.5t30 5.5h328q22 0 31 -5.5t20 -24.5l137 -240q5 -8 5 -16z" />
    <glyph glyph-name="hcircumflex" unicode="&#x125;" horiz-adv-x="1253" 
d="M1272 848q0 -49 -8 -90l-125 -717q-3 -17 -17.5 -29t-31.5 -12h-250q-15 0 -24 9.5t-9 23.5v8l125 715q6 35 6 57q0 59 -36 83t-120 24q-92 0 -168 -17l-151 -860q-3 -17 -17.5 -30t-31.5 -13h-248q-15 0 -25 11t-10 26v6l262 1487q3 17 16.5 29t30.5 12h250q15 0 25 -10
t10 -25v-6l-66 -367q128 27 220 27q193 0 293 -93.5t100 -248.5zM1352 1649q0 -19 -21 -19h-201q-19 0 -27 5t-18 20l-102 143l-158 -143q-24 -21 -36 -24q-7 -1 -17 -1h-221q-16 0 -16 12q0 11 12 23l225 240q19 19 29 24.5t30 5.5h328q22 0 31 -5.5t20 -24.5l138 -240
q4 -6 4 -16z" />
    <glyph glyph-name="Hbar" unicode="&#x126;" horiz-adv-x="1492" 
d="M1356 41q-3 -17 -16.5 -29t-30.5 -12h-269q-17 0 -27 12t-7 29l104 592h-506l-104 -592q-3 -17 -16.5 -29t-30.5 -12h-269q-17 0 -27 12t-7 29l184 1046h-103q-17 0 -26 12t-6 29l32 195q3 17 18 29t32 12h102l20 119q3 17 17.5 28t32.5 11h268q17 0 26.5 -11t6.5 -28
l-21 -119h506l21 119q3 17 17 28t32 11h268q17 0 26.5 -11t6.5 -28l-21 -119h103q17 0 26 -12t6 -29l-32 -195q-3 -17 -18 -29t-32 -12h-102zM657 938h506l27 149h-506z" />
    <glyph glyph-name="hbar" unicode="&#x127;" horiz-adv-x="1253" 
d="M961 1307h-277l-25 -144q128 27 220 27q193 0 293 -93.5t100 -248.5q0 -49 -8 -90l-125 -717q-3 -17 -17.5 -29t-31.5 -12h-250q-15 0 -24 9.5t-9 23.5v8l125 715q6 35 6 57q0 59 -36 83t-120 24q-92 0 -168 -17l-151 -860q-3 -17 -17.5 -30t-31.5 -13h-248q-15 0 -25 11
t-10 26v6l223 1264h-86q-38 0 -32 39l14 75q3 17 15.5 28t29.5 11h86l12 70q3 17 16.5 29t30.5 12h250q15 0 25 -10t10 -25v-6l-12 -70h274q17 0 27 -9.5t6 -29.5l-14 -75q-7 -39 -45 -39z" />
    <glyph glyph-name="Itilde" unicode="&#x128;" horiz-adv-x="636" 
d="M756 1491v-8l-254 -1442q-3 -17 -16.5 -29t-30.5 -12h-275q-13 0 -20.5 9t-7.5 22v10l254 1442q7 39 43 39h274q15 0 24 -8.5t9 -22.5zM1073 1915v-10l-6 -41q-20 -135 -87.5 -192.5t-193.5 -57.5q-33 0 -79 14t-72 35l-76 59q-46 37 -76 37q-23 0 -36.5 -10.5
t-20.5 -44.5l-8 -39q-6 -35 -37 -35h-145q-27 0 -27 25q0 1 1 4.5t1 5.5l8 39q28 134 93.5 191t191.5 57q32 0 74.5 -13t70.5 -34l78 -58q50 -37 76 -37t38.5 10.5t18.5 45.5l6 39q6 32 39 32h144q24 0 24 -22z" />
    <glyph glyph-name="itilde" unicode="&#x129;" horiz-adv-x="593" 
d="M664 1139v-6l-193 -1092q-3 -17 -17.5 -29t-31.5 -12h-250q-15 0 -24 9.5t-9 23.5v8l193 1092q3 17 16.5 29t30.5 12h250q15 0 25 -10t10 -25zM995 1579v-10l-6 -41q-20 -135 -87 -192.5t-193 -57.5q-33 0 -79.5 14t-72.5 35l-76 59q-46 37 -75 37q-24 0 -37.5 -10.5
t-20.5 -44.5l-8 -39q-6 -35 -37 -35h-145q-27 0 -27 25q0 1 1 4.5t1 5.5l8 39q28 134 93.5 191t191.5 57q32 0 74.5 -13t70.5 -34l78 -58q49 -36 76 -36q26 0 38.5 10t18.5 45l6 39q6 33 39 33h144q24 0 24 -23z" />
    <glyph glyph-name="Imacron" unicode="&#x12a;" horiz-adv-x="636" 
d="M756 1491v-8l-254 -1442q-3 -17 -16.5 -29t-30.5 -12h-275q-13 0 -20.5 9t-7.5 22v10l254 1442q7 39 43 39h274q15 0 24 -8.5t9 -22.5zM1020 1882v-8l-27 -148q-3 -17 -16 -27.5t-31 -10.5h-663q-15 0 -25 8.5t-10 23.5v6l26 148q3 17 17.5 28t32.5 11h663q15 0 24 -8.5
t9 -22.5z" />
    <glyph glyph-name="imacron" unicode="&#x12b;" horiz-adv-x="593" 
d="M664 1139v-6l-193 -1092q-3 -17 -17.5 -29t-31.5 -12h-250q-15 0 -24 9.5t-9 23.5v8l193 1092q3 17 16.5 29t30.5 12h250q15 0 25 -10t10 -25zM932 1532v-8l-27 -148q-3 -17 -16.5 -28t-30.5 -11h-663q-15 0 -25 9t-10 24v6l26 148q3 17 17.5 28t32.5 11h663
q15 0 24 -8.5t9 -22.5z" />
    <glyph glyph-name="Ibreve" unicode="&#x12c;" horiz-adv-x="636" 
d="M756 1491v-8l-254 -1442q-3 -17 -16.5 -29t-30.5 -12h-275q-13 0 -20.5 9t-7.5 22v10l254 1442q7 39 43 39h274q15 0 24 -8.5t9 -22.5zM1014 1937q0 -8 -2 -12q-109 -297 -418 -297q-145 0 -234 83.5t-98 213.5v2q0 21 23 21h157q20 0 23 -25q13 -117 147 -117
q66 0 107.5 27t68.5 90q5 14 11 19.5t20 5.5h178q17 0 17 -11z" />
    <glyph glyph-name="ibreve" unicode="&#x12d;" horiz-adv-x="593" 
d="M664 1139v-6l-193 -1092q-3 -17 -17.5 -29t-31.5 -12h-250q-15 0 -24 9.5t-9 23.5v8l193 1092q3 17 16.5 29t30.5 12h250q15 0 25 -10t10 -25zM946 1585q0 -8 -2 -12q-109 -297 -418 -297q-145 0 -233.5 83.5t-97.5 213.5v2q0 20 22 20h158q19 0 22 -24q13 -117 148 -117
q66 0 107.5 27t68.5 90q5 13 11 18.5t20 5.5h178q16 0 16 -10z" />
    <glyph glyph-name="Iogonek" unicode="&#x12e;" horiz-adv-x="636" 
d="M145 0l261 1483q7 39 43 39h274q15 0 24 -8.5t9 -22.5v-8l-248 -1407q-7 -39 -19 -55t-45 -35l-79 -47q-24 -15 -35 -23t-21 -23t-10 -32q0 -22 12.5 -30.5t40.5 -8.5q43 0 101 9t63 9q19 0 16 -24l-28 -154q-7 -26 -27 -33q-34 -13 -105 -27t-145 -14q-241 0 -241 176
q0 76 37 130.5t122 105.5z" />
    <glyph glyph-name="iogonek" unicode="&#x12f;" horiz-adv-x="593" 
d="M131 0l201 1133q3 17 16.5 29t30.5 12h250q15 0 25 -10t10 -25v-6l-187 -1057q-7 -38 -18.5 -54t-34.5 -30l-90 -53q-24 -15 -35 -23t-21 -23t-10 -32q0 -22 13 -30.5t41 -8.5q43 0 100.5 9t62.5 9q20 0 17 -24l-29 -154q-7 -26 -27 -33q-34 -13 -104.5 -27t-144.5 -14
q-242 0 -242 176q0 79 36 130t140 106zM741 1546v-8l-32 -190q-3 -17 -18 -29t-32 -12h-266q-15 0 -24 9t-9 23v9l33 190q3 17 17.5 29t31.5 12h267q15 0 23.5 -9.5t8.5 -23.5z" />
    <glyph glyph-name="Idotaccent" unicode="&#x130;" horiz-adv-x="636" 
d="M756 1491v-8l-254 -1442q-3 -17 -16.5 -29t-30.5 -12h-275q-13 0 -20.5 9t-7.5 22v10l254 1442q7 39 43 39h274q15 0 24 -8.5t9 -22.5zM821 1903v-7l-37 -208q-3 -17 -16.5 -29t-30.5 -12h-241q-15 0 -25 9.5t-10 24.5v7l37 208q3 17 16.5 28t30.5 11h241q15 0 25 -8.5
t10 -23.5z" />
    <glyph glyph-name="dotlessi" unicode="&#x131;" horiz-adv-x="593" 
d="M664 1139v-6l-193 -1092q-3 -17 -17.5 -29t-31.5 -12h-250q-15 0 -24 9.5t-9 23.5v8l193 1092q3 17 16.5 29t30.5 12h250q15 0 25 -10t10 -25z" />
    <glyph glyph-name="IJ" unicode="&#x132;" horiz-adv-x="1273" 
d="M756 1491v-8l-254 -1442q-3 -17 -16.5 -29t-30.5 -12h-275q-13 0 -20.5 9t-7.5 22v10l254 1442q7 39 43 39h274q15 0 24 -8.5t9 -22.5zM1393 1489v-6l-265 -1495q-18 -101 -58 -172.5t-98.5 -110t-125 -55.5t-148.5 -17q-50 0 -129 9q-24 3 -24 28v6l37 209q2 11 10 20
t18 9h103q33 0 46 16.5t19 57.5l264 1495q3 17 17 28t31 11h268q15 0 25 -9.5t10 -23.5z" />
    <glyph glyph-name="ij" unicode="&#x133;" horiz-adv-x="1187" 
d="M741 1546v-8l-32 -190q-3 -17 -18 -29t-32 -12h-266q-15 0 -24 9t-9 23v9l33 190q3 17 17.5 29t31.5 12h267q15 0 23.5 -9.5t8.5 -23.5zM664 1139v-6l-193 -1092q-3 -17 -17.5 -29t-31.5 -12h-250q-15 0 -24 9.5t-9 23.5v8l193 1092q3 17 16.5 29t30.5 12h250
q15 0 25 -10t10 -25zM1335 1544v-6l-32 -190q-3 -17 -18.5 -29t-33.5 -12h-264q-15 0 -24 9t-9 23v9l33 190q3 17 17.5 29t31.5 12h264q15 0 25 -10t10 -25zM1255 1139v-9l-211 -1196q-24 -139 -72 -215.5t-120.5 -105.5t-192.5 -29q-75 0 -161 15q-33 6 -33 32v9l29 161
q6 37 49 37h90q41 0 55.5 20t24.5 76l211 1196q3 18 16.5 31t30.5 13h254q14 0 22 -10t8 -25z" />
    <glyph glyph-name="Jcircumflex" unicode="&#x134;" horiz-adv-x="636" 
d="M756 1489v-6l-264 -1495q-18 -101 -58 -172.5t-99 -110t-125.5 -55.5t-148.5 -17q-49 0 -129 9q-24 3 -24 28v6l37 209q2 11 10 20t18 9h103q33 0 46 16.5t19 57.5l265 1495q3 17 16.5 28t30.5 11h268q15 0 25 -9.5t10 -23.5zM1006 1649q0 -19 -21 -19h-201q-19 0 -27 5
t-18 20l-102 143l-158 -143q-24 -21 -36 -24q-7 -1 -17 -1h-221q-17 0 -17 12q0 10 13 23l225 240q19 19 29 24.5t30 5.5h328q22 0 31 -5.5t20 -24.5l137 -240q5 -7 5 -16z" />
    <glyph glyph-name="jcircumflex" unicode="&#x135;" horiz-adv-x="593" 
d="M662 1139v-9l-211 -1196q-24 -139 -72 -215.5t-120.5 -105.5t-192.5 -29q-76 0 -162 15q-33 6 -33 32v9l29 161q6 37 49 37h90q41 0 55.5 20t24.5 76l211 1196q3 18 16.5 31t30.5 13h254q14 0 22.5 -10.5t8.5 -24.5zM915 1309q0 -19 -20 -19h-201q-19 0 -27 5t-18 20
l-102 143l-158 -143q-24 -21 -36 -24q-7 -1 -17 -1h-221q-17 0 -17 13q0 9 13 22l225 240q19 19 29 24.5t30 5.5h328q22 0 31 -5.5t20 -24.5l137 -240q4 -6 4 -16z" />
    <glyph glyph-name="Kcommaaccent" unicode="&#x136;" horiz-adv-x="1388" 
d="M1602 1501q0 -11 -17 -31l-633 -692l361 -735q4 -6 4 -18q0 -11 -9 -18t-24 -7h-330q-17 0 -25.5 7t-15.5 22l-295 676l-116 -664q-3 -17 -17.5 -29t-31.5 -12h-269q-15 0 -23.5 9.5t-8.5 23.5v8l254 1442q3 17 16.5 28t30.5 11h268q15 0 25 -9t10 -24v-6l-111 -621
l541 635q22 25 49 25h336q31 0 31 -21zM850 -123q0 -4 -6 -16l-172 -219q-21 -26 -31.5 -33.5t-28.5 -7.5h-153q-11 0 -16.5 8t-2.5 20q0 9 4 13l93 219q16 39 47 39h239q20 0 24.5 -5.5t2.5 -17.5z" />
    <glyph glyph-name="kcommaaccent" unicode="&#x137;" horiz-adv-x="1204" 
d="M1348 1155q0 -12 -13 -25l-491 -518l289 -569q8 -12 1 -27.5t-28 -15.5h-301q-34 0 -51 43l-209 467l-82 -467q-3 -17 -17.5 -30t-31.5 -13h-248q-18 0 -28 11t-7 32l262 1487q7 41 49 41h248q42 0 35 -41l-147 -830l374 443q25 31 60 31h309q12 0 19.5 -5.5t7.5 -13.5z
M762 -123q0 -4 -6 -16l-172 -219q-21 -26 -31.5 -33.5t-28.5 -7.5h-153q-11 0 -16.5 8t-2.5 20q0 9 4 13l93 219q16 39 47 39h239q20 0 24.5 -5.5t2.5 -17.5z" />
    <glyph glyph-name="kgreenlandic" unicode="&#x138;" horiz-adv-x="1204" 
d="M1012 1174h303q23 0 27.5 -17t-7.5 -27l-491 -518l289 -569q8 -12 0.5 -27.5t-27.5 -15.5h-301q-34 0 -51 43l-209 467l-82 -467q-3 -17 -17.5 -30t-31.5 -13h-248q-18 0 -28 11.5t-7 31.5l193 1090q3 17 17.5 29t31.5 12h248q42 0 34 -41l-77 -433l374 443q25 31 60 31z
" />
    <glyph glyph-name="Lacute" unicode="&#x139;" horiz-adv-x="1062" 
d="M1061 248v-6l-35 -191q-3 -20 -13 -29t-34 -14q-52 -10 -155 -18t-185 -8q-71 0 -132 10t-117 34.5t-96 62t-63.5 96.5t-23.5 134q0 41 10 103l186 1059q3 17 18 29t32 12h268q15 0 24 -9.5t9 -23.5v-8l-187 -1059q-6 -30 -6 -53q0 -48 26.5 -67t86.5 -19h352
q15 0 25 -10t10 -25zM1223 1921q0 -8 -13 -18l-295 -250q-24 -21 -37 -24q-7 -1 -16 -1h-239q-17 0 -17 12q0 11 12 23l234 240q19 19 29 24.5t30 5.5h289q23 0 23 -12z" />
    <glyph glyph-name="lacute" unicode="&#x13a;" horiz-adv-x="577" 
d="M725 1538v-8l-262 -1487q-3 -18 -16.5 -30.5t-30.5 -12.5h-250q-15 0 -25 11t-10 26v6l262 1487q3 17 17.5 29t31.5 12h250q15 0 24 -9.5t9 -23.5zM995 1921q0 -9 -12 -18l-295 -250q-24 -21 -37 -24q-7 -1 -16 -1h-240q-16 0 -16 12q0 11 12 23l234 240q19 19 29 24.5
t30 5.5h289q22 0 22 -12z" />
    <glyph glyph-name="Lcommaaccent" unicode="&#x13b;" horiz-adv-x="1062" 
d="M1061 248v-6l-35 -191q-3 -20 -13 -29t-34 -14q-52 -10 -155 -18t-185 -8q-71 0 -132 10t-117 34.5t-96 62t-63.5 96.5t-23.5 134q0 41 10 103l186 1059q3 17 18 29t32 12h268q15 0 24 -9.5t9 -23.5v-8l-187 -1059q-6 -30 -6 -53q0 -48 26.5 -67t86.5 -19h352
q15 0 25 -10t10 -25zM735 -123q0 -4 -6 -16l-172 -219q-22 -27 -31.5 -34t-27.5 -7h-154q-11 0 -16 8t-2 20q0 9 4 13l92 219q16 39 47 39h240q20 0 24 -5t2 -18z" />
    <glyph glyph-name="lcommaaccent" unicode="&#x13c;" horiz-adv-x="577" 
d="M725 1538v-8l-262 -1487q-3 -18 -16.5 -30.5t-30.5 -12.5h-250q-15 0 -25 11t-10 26v6l262 1487q3 17 17.5 29t31.5 12h250q15 0 24 -9.5t9 -23.5zM416 -123q0 -4 -6 -16l-172 -219q-21 -26 -31.5 -33.5t-28.5 -7.5h-153q-11 0 -16.5 8t-2.5 20q0 9 4 13l92 219
q16 39 48 39h239q20 0 24.5 -5.5t2.5 -17.5z" />
    <glyph glyph-name="Lcaron" unicode="&#x13d;" horiz-adv-x="1062" 
d="M1061 248v-6l-35 -191q-3 -20 -13 -29t-34 -14q-52 -10 -155 -18t-185 -8q-71 0 -132 10t-117 34.5t-96 62t-63.5 96.5t-23.5 134q0 41 10 103l186 1059q3 17 18 29t32 12h268q15 0 24 -9.5t9 -23.5v-8l-187 -1059q-6 -30 -6 -53q0 -48 26.5 -67t86.5 -19h352
q15 0 25 -10t10 -25zM1294 1499l-8 -16l-231 -449q-23 -39 -47 -39h-207q-19 0 -15 21q1 1 3 8t4 10l188 449q16 39 49 39h244q23 0 20 -23z" />
    <glyph glyph-name="lcaron" unicode="&#x13e;" horiz-adv-x="1026" 
d="M725 1538v-8l-262 -1487q-3 -18 -16.5 -30.5t-30.5 -12.5h-250q-15 0 -25 11t-10 26v6l262 1487q3 17 17.5 29t31.5 12h250q15 0 24 -9.5t9 -23.5zM1288 1548q-1 -1 -2 -4t-2.5 -6t-3.5 -6l-231 -449q-23 -39 -48 -39h-206q-19 0 -15 21q1 1 2.5 8t3.5 10l189 449
q16 39 49 39h244q23 0 20 -23z" />
    <glyph glyph-name="Ldot" unicode="&#x13f;" horiz-adv-x="1062" 
d="M1061 248v-6l-35 -191q-3 -20 -13 -29t-34 -14q-52 -10 -155 -18t-185 -8q-71 0 -132 10t-117 34.5t-96 62t-63.5 96.5t-23.5 134q0 41 10 103l186 1059q3 17 18 29t32 12h268q15 0 24 -9.5t9 -23.5v-8l-187 -1059q-6 -30 -6 -53q0 -48 26.5 -67t86.5 -19h352
q15 0 25 -10t10 -25zM1145 940v-6l-37 -209q-3 -17 -16.5 -29t-30.5 -12h-242q-15 0 -25 10t-10 25v6l37 209q3 17 16.5 28t30.5 11h242q15 0 25 -9t10 -24z" />
    <glyph glyph-name="ldot" unicode="&#x140;" horiz-adv-x="946" 
d="M692 1571q18 0 27 -12.5t6 -28.5l-262 -1487q-3 -18 -16.5 -30.5t-30.5 -12.5h-250q-17 0 -27.5 13t-7.5 30l262 1487q3 17 17.5 29t31.5 12h250zM803 973h241q40 0 35 -39l-37 -209q-7 -41 -47 -41h-241q-20 0 -29.5 8.5t-5.5 32.5l37 209q7 39 47 39z" />
    <glyph glyph-name="Lslash" unicode="&#x141;" horiz-adv-x="1062" 
d="M1061 248v-6l-35 -191q-3 -20 -13 -29t-34 -14q-52 -10 -155 -18t-185 -8q-71 0 -132 10t-117 34.5t-96 62t-63.5 96.5t-23.5 134q0 57 10 103l4 20l-90 -75q-9 -9 -16 -9q-9 0 -9 9v4l50 284q0 2 1 7t1.5 6t1.5 5t2 5.5l3 4.5t4 5.5t5.5 5.5t7.5 6l99 82l122 699
q3 17 18 29t32 12h268q15 0 24 -9.5t9 -23.5v-8l-62 -355l166 140q9 6 16 6q15 0 15 -12v-5l-49 -276q-3 -23 -21 -37l-188 -158l-64 -362q-6 -30 -6 -53q0 -48 26.5 -67t86.5 -19h352q15 0 25 -10t10 -25z" />
    <glyph glyph-name="lslash" unicode="&#x142;" horiz-adv-x="577" 
d="M823 1260v-5l-49 -276q-3 -24 -20 -37l-154 -129l-135 -770q-3 -17 -17.5 -30t-31.5 -13h-250q-15 0 -25 11t-10 26v6l78 442l-141 -118q-9 -9 -17 -9t-8 9v4l49 284q2 10 2.5 13t3.5 9t7.5 10.5t13.5 12.5l149 127l125 703q3 17 17.5 29t31.5 12h250q15 0 24 -10t9 -25
v-6l-66 -375l134 111q9 6 16 6q14 0 14 -12z" />
    <glyph glyph-name="Nacute" unicode="&#x143;" horiz-adv-x="1492" 
d="M1612 1489v-6l-248 -1405q-6 -33 -32 -55.5t-58 -22.5h-172q-87 0 -113 63l-340 807q-9 17 -16 17q-9 0 -12 -17l-146 -829q-3 -17 -17.5 -29t-31.5 -12h-242q-15 0 -23.5 10t-8.5 25v6l245 1403q6 32 33 55t59 23h156q86 0 111 -64l352 -844l2.5 -5t2 -4.5t1.5 -3
t1.5 -2t1.5 -1t3 -0.5q12 0 15 18l153 867q3 17 16.5 28t30.5 11h242q15 0 25 -9.5t10 -23.5zM1436 1921q0 -8 -13 -18l-295 -250q-24 -21 -37 -24q-7 -1 -16 -1h-239q-17 0 -17 12q0 11 12 23l234 240q19 19 29 24.5t30 5.5h289q23 0 23 -12z" />
    <glyph glyph-name="nacute" unicode="&#x144;" horiz-adv-x="1253" 
d="M1270 850q0 -52 -13 -125l-118 -682q-3 -17 -19 -30t-33 -13h-247q-14 0 -23.5 10.5t-9.5 24.5v8l119 682q10 58 10 90q0 100 -111 100q-54 0 -118 -20.5t-103 -44.5l-141 -807q-3 -17 -17.5 -30t-31.5 -13h-248q-15 0 -25 11t-10 26v6l193 1090q3 17 16.5 29t30.5 12
h223q15 0 25 -10t10 -25v-6l-8 -50q141 107 319 107q143 0 236.5 -84.5t93.5 -255.5zM1221 1583q0 -8 -13 -18l-295 -250q-24 -21 -37 -24q-7 -1 -16 -1h-239q-17 0 -17 13q0 10 12 22l234 240q19 19 29 24.5t30 5.5h289q23 0 23 -12z" />
    <glyph glyph-name="Ncommaaccent" unicode="&#x145;" horiz-adv-x="1492" 
d="M1612 1489v-6l-248 -1405q-6 -33 -32 -55.5t-58 -22.5h-172q-87 0 -113 63l-340 807q-9 17 -16 17q-9 0 -12 -17l-146 -829q-3 -17 -17.5 -29t-31.5 -12h-242q-15 0 -23.5 10t-8.5 25v6l245 1403q6 32 33 55t59 23h156q86 0 111 -64l352 -844l2.5 -5t2 -4.5t1.5 -3
t1.5 -2t1.5 -1t3 -0.5q12 0 15 18l153 867q3 17 16.5 28t30.5 11h242q15 0 25 -9.5t10 -23.5zM936 -123q0 -4 -6 -16l-172 -219q-21 -26 -31.5 -33.5t-28.5 -7.5h-153q-11 0 -16.5 8t-2.5 20q0 9 4 13l93 219q16 39 47 39h239q20 0 24.5 -5.5t2.5 -17.5z" />
    <glyph glyph-name="ncommaaccent" unicode="&#x146;" horiz-adv-x="1253" 
d="M1270 850q0 -52 -13 -125l-118 -682q-3 -17 -19 -30t-33 -13h-247q-14 0 -23.5 10.5t-9.5 24.5v8l119 682q10 58 10 90q0 100 -111 100q-54 0 -118 -20.5t-103 -44.5l-141 -807q-3 -17 -17.5 -30t-31.5 -13h-248q-15 0 -25 11t-10 26v6l193 1090q3 17 16.5 29t30.5 12
h223q15 0 25 -10t10 -25v-6l-8 -50q141 107 319 107q143 0 236.5 -84.5t93.5 -255.5zM760 -123q0 -4 -6 -16l-172 -219q-21 -26 -31.5 -33.5t-28.5 -7.5h-153q-11 0 -16.5 8t-2.5 20q0 9 4 13l92 219q16 39 48 39h239q20 0 24.5 -5.5t2.5 -17.5z" />
    <glyph glyph-name="Ncaron" unicode="&#x147;" horiz-adv-x="1492" 
d="M1612 1489v-6l-248 -1405q-6 -33 -32 -55.5t-58 -22.5h-172q-87 0 -113 63l-340 807q-9 17 -16 17q-9 0 -12 -17l-146 -829q-3 -17 -17.5 -29t-31.5 -12h-242q-15 0 -23.5 10t-8.5 25v6l245 1403q6 32 33 55t59 23h156q86 0 111 -64l352 -844l2.5 -5t2 -4.5t1.5 -3
t1.5 -2t1.5 -1t3 -0.5q12 0 15 18l153 867q3 17 16.5 28t30.5 11h242q15 0 25 -9.5t10 -23.5zM1440 1921q0 -10 -13 -23l-223 -239q-19 -19 -30 -25t-31 -6h-328q-21 0 -29.5 5.5t-19.5 25.5l-139 239q-6 9 -6 17q0 18 22 18h201q19 0 26 -4.5t19 -19.5l104 -144l156 144
q12 11 17 15t14 6.5t22 2.5h221q17 0 17 -12z" />
    <glyph glyph-name="ncaron" unicode="&#x148;" horiz-adv-x="1253" 
d="M1270 850q0 -52 -13 -125l-118 -682q-3 -17 -19 -30t-33 -13h-247q-14 0 -23.5 10.5t-9.5 24.5v8l119 682q10 58 10 90q0 100 -111 100q-54 0 -118 -20.5t-103 -44.5l-141 -807q-3 -17 -17.5 -30t-31.5 -13h-248q-15 0 -25 11t-10 26v6l193 1090q3 17 16.5 29t30.5 12
h223q15 0 25 -10t10 -25v-6l-8 -50q141 107 319 107q143 0 236.5 -84.5t93.5 -255.5zM1280 1583q0 -10 -12 -22l-224 -240q-19 -19 -30 -25t-31 -6h-328q-21 0 -29.5 5.5t-19.5 25.5l-139 240q-6 9 -6 16q0 18 22 18h201q19 0 26 -4.5t19 -19.5l105 -144l155 144
q12 11 17 15t14 6.5t22 2.5h222q16 0 16 -12z" />
    <glyph glyph-name="napostrophe" unicode="&#x149;" horiz-adv-x="1624" 
d="M713 1554q0 -10 -6 -22l-234 -449q-20 -39 -45 -39h-207q-16 0 -16 15q0 9 6 24l190 449q16 39 48 39h243q21 0 21 -17zM1634 850q0 -58 -12 -125l-119 -682q-3 -17 -18.5 -30t-32.5 -13h-248q-14 0 -23.5 10.5t-9.5 24.5v8l119 682q10 58 10 90q0 100 -110 100
q-54 0 -118 -20.5t-103 -44.5l-142 -807q-3 -17 -17.5 -30t-31.5 -13h-248q-15 0 -24.5 11t-9.5 26v6l192 1090q3 17 16.5 29t30.5 12h223q15 0 25 -10t10 -25v-6l-8 -50q68 52 152.5 79.5t167.5 27.5q143 0 236 -84.5t93 -255.5z" />
    <glyph glyph-name="Eng" unicode="&#x14a;" horiz-adv-x="1492" 
d="M1577 1522q40 0 35 -39l-264 -1495q-18 -101 -58 -172.5t-98.5 -110t-125 -55.5t-148.5 -17q-50 0 -130 9q-24 3 -24 28v6l37 209q2 11 10 20t18 9h103q33 0 46 16.5t19 57.5l9 47q-14 18 -17 28l-340 807q-9 17 -16 17q-9 0 -12 -17l-146 -829q-3 -17 -17.5 -29
t-31.5 -12h-242q-15 0 -23.5 10t-8.5 25v6l245 1403q6 32 33 55t59 23h156q86 0 111 -64l352 -844l2.5 -5t2 -4.5t1.5 -3t1.5 -2t1.5 -1t3 -0.5q12 0 15 18l153 867q3 17 16.5 28t30.5 11h242z" />
    <glyph glyph-name="eng" unicode="&#x14b;" horiz-adv-x="1253" 
d="M1270 850q0 -52 -13 -125l-137 -791q-24 -139 -72 -215.5t-120.5 -105.5t-192.5 -29q-77 0 -162 15q-32 6 -32 32v9l28 161q6 37 49 37h91q41 0 55 19.5t24 76.5l138 791q10 58 10 90q0 100 -111 100q-54 0 -118 -20.5t-103 -44.5l-141 -807q-3 -17 -17.5 -30t-31.5 -13
h-248q-15 0 -25 11t-10 26v6l193 1090q3 17 16.5 29t30.5 12h223q15 0 25 -10t10 -25v-6l-8 -50q141 107 319 107q143 0 236.5 -84.5t93.5 -255.5z" />
    <glyph glyph-name="Omacron" unicode="&#x14c;" horiz-adv-x="1429" 
d="M1491 1042q0 -79 -14 -159l-43 -244q-61 -348 -242 -502.5t-481 -154.5q-107 0 -197.5 31.5t-159.5 92.5t-108 157.5t-39 219.5q0 79 14 156l43 244q26 149 77 263t117.5 188t153 121t177.5 66t198 19q105 0 194.5 -29.5t159.5 -88.5t110 -156t40 -224zM1139 1018
q0 113 -51 164t-156 51q-131 0 -206 -80.5t-108 -269.5l-43 -244q-14 -77 -14 -143q0 -112 50 -159.5t155 -47.5q130 0 206.5 83.5t108.5 266.5l43 244q15 96 15 135zM1421 1882v-8l-26 -148q-3 -17 -16 -27.5t-31 -10.5h-664q-15 0 -25 8.5t-10 23.5v6l27 148q3 17 17 28
t32 11h664q15 0 23.5 -8.5t8.5 -22.5z" />
    <glyph glyph-name="omacron" unicode="&#x14d;" horiz-adv-x="1208" 
d="M1245 776q0 -44 -12 -119l-27 -143q-51 -267 -195.5 -399.5t-410.5 -132.5q-204 0 -317 115t-113 302q0 66 10 115l27 143q52 276 200.5 404.5t405.5 128.5q204 0 318 -112t114 -302zM913 752q0 155 -149 155q-91 0 -147 -59t-80 -191l-27 -143q-10 -62 -10 -98
q0 -79 37 -116.5t114 -37.5q97 0 149.5 61.5t76.5 190.5l26 143q10 58 10 95zM1241 1532v-8l-27 -148q-3 -17 -16.5 -28t-30.5 -11h-663q-15 0 -25 9t-10 24v6l27 148q3 17 17 28t32 11h663q15 0 24 -8.5t9 -22.5z" />
    <glyph glyph-name="Obreve" unicode="&#x14e;" horiz-adv-x="1429" 
d="M1491 1042q0 -79 -14 -159l-43 -244q-61 -348 -242 -502.5t-481 -154.5q-107 0 -197.5 31.5t-159.5 92.5t-108 157.5t-39 219.5q0 79 14 156l43 244q26 149 77 263t117.5 188t153 121t177.5 66t198 19q105 0 194.5 -29.5t159.5 -88.5t110 -156t40 -224zM1139 1018
q0 113 -51 164t-156 51q-131 0 -206 -80.5t-108 -269.5l-43 -244q-14 -77 -14 -143q0 -112 50 -159.5t155 -47.5q130 0 206.5 83.5t108.5 266.5l43 244q15 96 15 135zM1440 1935q0 -8 -2 -12q-109 -297 -418 -297q-145 0 -234 83.5t-98 213.5v2q0 21 23 21h157q20 0 23 -25
q13 -117 147 -117q66 0 107.5 27t68.5 90q5 14 11 19.5t20 5.5h178q17 0 17 -11z" />
    <glyph glyph-name="obreve" unicode="&#x14f;" horiz-adv-x="1208" 
d="M1245 776q0 -44 -12 -119l-27 -143q-51 -267 -195.5 -399.5t-410.5 -132.5q-204 0 -317 115t-113 302q0 66 10 115l27 143q52 276 200.5 404.5t405.5 128.5q204 0 318 -112t114 -302zM913 752q0 155 -149 155q-91 0 -147 -59t-80 -191l-27 -143q-10 -62 -10 -98
q0 -79 37 -116.5t114 -37.5q97 0 149.5 61.5t76.5 190.5l26 143q10 58 10 95zM1257 1585q0 -8 -2 -12q-109 -297 -417 -297q-145 0 -234 83.5t-98 213.5v2q0 20 22 20h158q20 0 23 -24q13 -117 147 -117q66 0 107.5 27t68.5 90q5 13 11 18.5t20 5.5h178q16 0 16 -10z" />
    <glyph glyph-name="Ohungarumlaut" unicode="&#x150;" horiz-adv-x="1429" 
d="M1491 1042q0 -79 -14 -159l-43 -244q-61 -348 -242 -502.5t-481 -154.5q-107 0 -197.5 31.5t-159.5 92.5t-108 157.5t-39 219.5q0 79 14 156l43 244q26 149 77 263t117.5 188t153 121t177.5 66t198 19q105 0 194.5 -29.5t159.5 -88.5t110 -156t40 -224zM1139 1018
q0 113 -51 164t-156 51q-131 0 -206 -80.5t-108 -269.5l-43 -244q-14 -77 -14 -143q0 -112 50 -159.5t155 -47.5q130 0 206.5 83.5t108.5 266.5l43 244q15 96 15 135zM1651 1921q0 -8 -13 -18l-295 -250q-11 -10 -16.5 -14t-15.5 -7.5t-23 -3.5h-219q-16 0 -16 12
q0 11 12 23l233 240q19 19 29 24.5t31 5.5h270q23 0 23 -12zM1174 1921q0 -8 -13 -18l-295 -250q-11 -10 -16.5 -14t-15.5 -7.5t-23 -3.5h-219q-17 0 -17 12q0 10 13 23l233 240q19 19 29 24.5t31 5.5h270q23 0 23 -12z" />
    <glyph glyph-name="ohungarumlaut" unicode="&#x151;" horiz-adv-x="1208" 
d="M1245 776q0 -44 -12 -119l-27 -143q-51 -267 -195.5 -399.5t-410.5 -132.5q-204 0 -317 115t-113 302q0 66 10 115l27 143q52 276 200.5 404.5t405.5 128.5q204 0 318 -112t114 -302zM913 752q0 155 -149 155q-91 0 -147 -59t-80 -191l-27 -143q-10 -62 -10 -98
q0 -79 37 -116.5t114 -37.5q97 0 149.5 61.5t76.5 190.5l26 143q10 58 10 95zM1423 1583q0 -9 -12 -18l-295 -250q-11 -10 -16.5 -14t-15.5 -7.5t-23 -3.5h-219q-17 0 -17 13q0 9 13 22l233 240q19 19 29 24.5t30 5.5h271q22 0 22 -12zM946 1583q0 -9 -12 -18l-295 -250
q-11 -10 -16.5 -14t-15.5 -7.5t-23 -3.5h-219q-17 0 -17 13q0 10 12 22l234 240q19 19 29 24.5t30 5.5h271q22 0 22 -12z" />
    <glyph glyph-name="OE" unicode="&#x152;" horiz-adv-x="2025" 
d="M2169 1483q0 -2 -1 -5t-1 -5l-35 -191q-3 -17 -16.5 -29t-30.5 -12h-416q-71 0 -106.5 -26.5t-49.5 -110.5l-28 -172l-2 -17h528q15 0 24 -9.5t9 -24.5v-7l-33 -194q-3 -17 -17.5 -29t-31.5 -12h-528q-2 -13 -7.5 -37.5t-7.5 -36.5l-26 -143q-7 -35 -7 -53
q0 -48 26.5 -67t86.5 -19h416q15 0 25 -10t10 -25v-6l-35 -191q-3 -20 -14 -30t-33 -13q-192 -26 -398 -26q-230 0 -344 106q-162 -106 -415 -106q-107 0 -197.5 31.5t-159.5 92.5t-108 157.5t-39 219.5q0 79 14 156l43 244q26 149 77 263t117.5 188t153 121t177.5 66
t198 19q214 0 344 -110q70 66 168.5 88t243.5 22q200 0 389 -27q37 -6 37 -30zM1139 1018q0 113 -51 164t-156 51q-131 0 -206 -80.5t-108 -269.5l-43 -244q-14 -77 -14 -143q0 -112 50 -159.5t155 -47.5q130 0 206.5 83.5t108.5 266.5l43 244q15 96 15 135z" />
    <glyph glyph-name="oe" unicode="&#x153;" horiz-adv-x="1910" 
d="M1944 762q0 -43 -11 -111l-20 -119q-9 -49 -51 -49h-662q-8 -62 -8 -84q0 -76 47.5 -109.5t138.5 -33.5q209 0 398 18h6q33 0 33 -26v-6l-29 -156q-5 -26 -14.5 -37.5t-36.5 -17.5q-203 -49 -430 -49q-199 0 -304 122q-143 -122 -401 -122q-204 0 -317 115t-113 302
q0 66 10 115l27 143q52 276 200.5 404.5t405.5 128.5q213 0 330 -123q141 123 379 123q200 0 311 -120.5t111 -307.5zM1634 778q0 73 -37.5 109.5t-121.5 36.5q-99 0 -155 -61.5t-81 -174.5h385q10 55 10 90zM913 752q0 155 -149 155q-91 0 -147 -59t-80 -191l-27 -143
q-10 -62 -10 -98q0 -79 37 -116.5t114 -37.5q97 0 149.5 61.5t76.5 190.5l26 143q10 58 10 95z" />
    <glyph glyph-name="Racute" unicode="&#x154;" horiz-adv-x="1392" 
d="M1460 1149q0 -190 -86 -327t-260 -197l207 -578q4 -12 4 -16q0 -13 -9.5 -22t-27.5 -9h-297q-7 0 -11.5 2t-8 7t-5 8.5t-4.5 11.5t-4 12l-184 518h-2q-3 0 -15.5 -1t-21.5 -1q-22 0 -74 2t-71 2l-90 -520q-3 -17 -17.5 -29t-31.5 -12h-267q-15 0 -23.5 9.5t-8.5 23.5v6v2
l241 1374q9 50 33 70t76 28q165 27 422 27q118 0 214 -22.5t169 -69t113 -122.5t40 -177zM1110 1104q0 77 -57.5 108t-182.5 31q-84 0 -159 -6l-70 -393q46 -4 143 -4q80 0 136.5 11.5t101 40t66.5 81t22 131.5zM1323 1921q0 -9 -12 -18l-295 -250q-24 -21 -37 -24
q-7 -1 -16 -1h-240q-16 0 -16 12q0 11 12 23l233 240q19 19 29 24.5t31 5.5h288q23 0 23 -12z" />
    <glyph glyph-name="racute" unicode="&#x155;" horiz-adv-x="811" 
d="M969 1155v-6l-35 -195q-3 -15 -13.5 -27t-23.5 -12h-16q-135 0 -277 -71l-141 -801q-3 -17 -17.5 -30t-31.5 -13h-248q-15 0 -25 10.5t-10 24.5v8l193 1090q3 17 16.5 29t30.5 12h243q15 0 25 -9.5t10 -23.5v-8l-8 -41q70 59 136 78.5t157 19.5q15 0 25 -10t10 -25z
M1044 1583q0 -9 -12 -18l-295 -250q-24 -21 -37 -24q-7 -1 -16 -1h-240q-16 0 -16 13q0 10 12 22l234 240q19 19 29 24.5t30 5.5h289q22 0 22 -12z" />
    <glyph glyph-name="Rcommaaccent" unicode="&#x156;" horiz-adv-x="1392" 
d="M1460 1149q0 -190 -86 -327t-260 -197l207 -578q4 -12 4 -16q0 -13 -9.5 -22t-27.5 -9h-297q-7 0 -11.5 2t-8 7t-5 8.5t-4.5 11.5t-4 12l-184 518h-2q-3 0 -15.5 -1t-21.5 -1q-22 0 -74 2t-71 2l-90 -520q-3 -17 -17.5 -29t-31.5 -12h-267q-15 0 -23.5 9.5t-8.5 23.5v6v2
l241 1374q9 50 33 70t76 28q165 27 422 27q118 0 214 -22.5t169 -69t113 -122.5t40 -177zM1110 1104q0 77 -57.5 108t-182.5 31q-84 0 -159 -6l-70 -393q46 -4 143 -4q80 0 136.5 11.5t101 40t66.5 81t22 131.5zM862 -123q0 -4 -6 -16l-172 -219q-22 -27 -31.5 -34t-27.5 -7
h-154q-11 0 -16 8t-2 20q0 9 4 13l92 219q16 39 47 39h240q20 0 24 -5t2 -18z" />
    <glyph glyph-name="rcommaaccent" unicode="&#x157;" horiz-adv-x="811" 
d="M969 1155v-6l-35 -195q-3 -15 -13.5 -27t-23.5 -12h-16q-135 0 -277 -71l-141 -801q-3 -17 -17.5 -30t-31.5 -13h-248q-15 0 -25 10.5t-10 24.5v8l193 1090q3 17 16.5 29t30.5 12h243q15 0 25 -9.5t10 -23.5v-8l-8 -41q70 59 136 78.5t157 19.5q15 0 25 -10t10 -25z
M610 -123q0 -4 -6 -16l-172 -219q-22 -27 -31.5 -34t-27.5 -7h-154q-11 0 -16 8t-2 20q0 9 4 13l92 219q16 39 47 39h240q20 0 24 -5t2 -18z" />
    <glyph glyph-name="Rcaron" unicode="&#x158;" horiz-adv-x="1392" 
d="M1460 1149q0 -190 -86 -327t-260 -197l207 -578q4 -12 4 -16q0 -13 -9.5 -22t-27.5 -9h-297q-7 0 -11.5 2t-8 7t-5 8.5t-4.5 11.5t-4 12l-184 518h-2q-3 0 -15.5 -1t-21.5 -1q-22 0 -74 2t-71 2l-90 -520q-3 -17 -17.5 -29t-31.5 -12h-267q-15 0 -23.5 9.5t-8.5 23.5v6v2
l241 1374q9 50 33 70t76 28q165 27 422 27q118 0 214 -22.5t169 -69t113 -122.5t40 -177zM1110 1104q0 77 -57.5 108t-182.5 31q-84 0 -159 -6l-70 -393q46 -4 143 -4q80 0 136.5 11.5t101 40t66.5 81t22 131.5zM1413 1921q0 -11 -12 -23l-223 -239q-19 -19 -30 -25t-32 -6
h-328q-21 0 -29.5 5.5t-19.5 25.5l-139 239q-6 9 -6 17q0 18 22 18h201q19 0 26 -4.5t19 -19.5l105 -144l155 144q17 15 26 19.5t28 4.5h221q16 0 16 -12z" />
    <glyph glyph-name="rcaron" unicode="&#x159;" horiz-adv-x="811" 
d="M969 1155v-6l-35 -195q-3 -15 -13.5 -27t-23.5 -12h-16q-135 0 -277 -71l-141 -801q-3 -17 -17.5 -30t-31.5 -13h-248q-15 0 -25 10.5t-10 24.5v8l193 1090q3 17 16.5 29t30.5 12h243q15 0 25 -9.5t10 -23.5v-8l-8 -41q70 59 136 78.5t157 19.5q15 0 25 -10t10 -25z
M1112 1583q0 -10 -12 -22l-223 -240q-19 -19 -30 -25t-32 -6h-328q-21 0 -29.5 5.5t-19.5 25.5l-139 240q-6 9 -6 16q0 18 22 18h201q19 0 26 -4.5t19 -19.5l105 -144l155 144q12 11 17 15t14 6.5t22 2.5h222q16 0 16 -12z" />
    <glyph glyph-name="Sacute" unicode="&#x15a;" horiz-adv-x="1204" 
d="M1333 1466v-8l-37 -207q-6 -34 -41 -34h-4q-314 22 -430 22q-42 0 -71 -4.5t-56 -17.5t-41 -40.5t-14 -68.5q0 -32 20 -54.5t84 -64.5l238 -155q219 -142 219 -328q0 -136 -50.5 -239t-139.5 -164t-201.5 -91t-245.5 -30q-220 0 -387 45q-33 7 -33 34v7l35 200
q6 39 43 39h6q246 -24 385 -24q211 0 211 168q0 74 -106 143l-252 166q-93 61 -138.5 143.5t-45.5 173.5q0 104 33.5 185t89 132.5t134.5 85t163.5 47t181.5 13.5q107 0 237 -14.5t189 -30.5q24 -6 24 -29zM1268 1921q0 -8 -13 -18l-294 -250q-9 -8 -12.5 -11t-10.5 -7
t-14 -5.5t-17 -1.5h-239q-17 0 -17 12q0 10 13 23l233 240q19 19 29 24.5t30 5.5h289q23 0 23 -12z" />
    <glyph glyph-name="sacute" unicode="&#x15b;" horiz-adv-x="1030" 
d="M1102 1106v-10l-29 -166q-7 -39 -41 -39h-6q-192 27 -336 27h-8q-20 0 -32.5 -0.5t-29.5 -4.5t-27 -11.5t-17 -21.5t-7 -34q0 -34 49 -64l228 -145q162 -105 162 -254q0 -87 -27.5 -155.5t-74.5 -114t-112.5 -75.5t-137.5 -43t-154 -13q-210 0 -365 45q-31 9 -31 36v11
l31 166q6 39 47 39h6q226 -29 345 -29q32 0 51.5 2.5t41 11t32 28t10.5 50.5q0 42 -62 82l-239 154q-66 42 -99.5 107t-33.5 136q0 83 26.5 148t71 106t107 67.5t129.5 37t145 10.5q182 0 356 -47q31 -9 31 -37zM1098 1583q0 -8 -13 -18l-294 -250q-9 -8 -12.5 -11t-10.5 -7
t-14 -5.5t-17 -1.5h-239q-17 0 -17 13q0 9 13 22l233 240q19 19 29 24.5t30 5.5h289q23 0 23 -12z" />
    <glyph glyph-name="Scircumflex" unicode="&#x15c;" horiz-adv-x="1204" 
d="M1333 1466v-8l-37 -207q-6 -34 -41 -34h-4q-314 22 -430 22q-42 0 -71 -4.5t-56 -17.5t-41 -40.5t-14 -68.5q0 -32 20 -54.5t84 -64.5l238 -155q219 -142 219 -328q0 -136 -50.5 -239t-139.5 -164t-201.5 -91t-245.5 -30q-220 0 -387 45q-33 7 -33 34v7l35 200
q6 39 43 39h6q246 -24 385 -24q211 0 211 168q0 74 -106 143l-252 166q-93 61 -138.5 143.5t-45.5 173.5q0 104 33.5 185t89 132.5t134.5 85t163.5 47t181.5 13.5q107 0 237 -14.5t189 -30.5q24 -6 24 -29zM1274 1645q0 -19 -21 -19h-200q-19 0 -27 5t-18 20l-103 143
l-157 -143q-17 -15 -26 -20t-28 -5h-221q-16 0 -16 12q0 11 12 23l225 240q19 19 29 24.5t31 5.5h327q22 0 32 -5.5t20 -24.5l137 -240q4 -6 4 -16z" />
    <glyph glyph-name="scircumflex" unicode="&#x15d;" horiz-adv-x="1030" 
d="M1102 1106v-10l-29 -166q-7 -39 -41 -39h-6q-192 27 -336 27h-8q-20 0 -32.5 -0.5t-29.5 -4.5t-27 -11.5t-17 -21.5t-7 -34q0 -34 49 -64l228 -145q162 -105 162 -254q0 -87 -27.5 -155.5t-74.5 -114t-112.5 -75.5t-137.5 -43t-154 -13q-210 0 -365 45q-31 9 -31 36v11
l31 166q6 39 47 39h6q226 -29 345 -29q32 0 51.5 2.5t41 11t32 28t10.5 50.5q0 42 -62 82l-239 154q-66 42 -99.5 107t-33.5 136q0 83 26.5 148t71 106t107 67.5t129.5 37t145 10.5q182 0 356 -47q31 -9 31 -37zM1130 1309q0 -19 -20 -19h-201q-19 0 -27 5t-18 20l-102 143
l-158 -143q-24 -21 -36 -24q-7 -1 -17 -1h-221q-17 0 -17 13q0 9 13 22l225 240q19 19 29 24.5t30 5.5h328q22 0 31 -5.5t20 -24.5l137 -240q4 -6 4 -16z" />
    <glyph glyph-name="uni015E" unicode="&#x15e;" horiz-adv-x="1204" 
d="M1333 1466v-8l-37 -207q-6 -34 -41 -34h-4q-314 22 -430 22q-42 0 -71 -4.5t-56 -17.5t-41 -40.5t-14 -68.5q0 -32 20 -54.5t84 -64.5l238 -155q219 -142 219 -328q0 -136 -50.5 -239t-139.5 -164t-201.5 -91t-245.5 -30q-220 0 -387 45q-33 7 -33 34v7l35 200
q6 39 43 39h6q246 -24 385 -24q211 0 211 168q0 74 -106 143l-252 166q-93 61 -138.5 143.5t-45.5 173.5q0 104 33.5 185t89 132.5t134.5 85t163.5 47t181.5 13.5q107 0 237 -14.5t189 -30.5q24 -6 24 -29zM797 -84q0 -5 -13 -18l-295 -250q-24 -21 -37 -24q-7 -1 -16 -1
h-219q-16 0 -16 12q0 11 12 23l231 240q18 18 29.5 24t32.5 6h270q21 0 21 -12z" />
    <glyph glyph-name="uni015F" unicode="&#x15f;" horiz-adv-x="1030" 
d="M1102 1106v-10l-29 -166q-7 -39 -41 -39h-6q-192 27 -336 27h-8q-20 0 -32.5 -0.5t-29.5 -4.5t-27 -11.5t-17 -21.5t-7 -34q0 -34 49 -64l228 -145q162 -105 162 -254q0 -87 -27.5 -155.5t-74.5 -114t-112.5 -75.5t-137.5 -43t-154 -13q-210 0 -365 45q-31 9 -31 36v11
l31 166q6 39 47 39h6q226 -29 345 -29q32 0 51.5 2.5t41 11t32 28t10.5 50.5q0 42 -62 82l-239 154q-66 42 -99.5 107t-33.5 136q0 83 26.5 148t71 106t107 67.5t129.5 37t145 10.5q182 0 356 -47q31 -9 31 -37zM715 -84q0 -5 -13 -18l-294 -250q-9 -8 -12.5 -11t-10.5 -7
t-14 -5.5t-17 -1.5h-219q-16 0 -16 12q0 11 12 23l231 240q18 18 29.5 24t32.5 6h270q21 0 21 -12z" />
    <glyph glyph-name="Scaron" unicode="&#x160;" horiz-adv-x="1204" 
d="M1333 1466v-8l-37 -207q-6 -34 -41 -34h-4q-314 22 -430 22q-42 0 -71 -4.5t-56 -17.5t-41 -40.5t-14 -68.5q0 -32 20 -54.5t84 -64.5l238 -155q219 -142 219 -328q0 -136 -50.5 -239t-139.5 -164t-201.5 -91t-245.5 -30q-220 0 -387 45q-33 7 -33 34v7l35 200
q6 39 43 39h6q246 -24 385 -24q211 0 211 168q0 74 -106 143l-252 166q-93 61 -138.5 143.5t-45.5 173.5q0 104 33.5 185t89 132.5t134.5 85t163.5 47t181.5 13.5q107 0 237 -14.5t189 -30.5q24 -6 24 -29zM1327 1921q0 -11 -12 -23l-223 -239q-19 -19 -30 -25t-32 -6h-328
q-21 0 -29.5 5.5t-19.5 25.5l-139 239q-6 9 -6 17q0 18 22 18h201q19 0 26 -4.5t19 -19.5l105 -144l155 144q17 15 26 19.5t28 4.5h221q16 0 16 -12z" />
    <glyph glyph-name="scaron" unicode="&#x161;" horiz-adv-x="1030" 
d="M1102 1106v-10l-29 -166q-7 -39 -41 -39h-6q-192 27 -336 27h-8q-20 0 -32.5 -0.5t-29.5 -4.5t-27 -11.5t-17 -21.5t-7 -34q0 -34 49 -64l228 -145q162 -105 162 -254q0 -87 -27.5 -155.5t-74.5 -114t-112.5 -75.5t-137.5 -43t-154 -13q-210 0 -365 45q-31 9 -31 36v11
l31 166q6 39 47 39h6q226 -29 345 -29q32 0 51.5 2.5t41 11t32 28t10.5 50.5q0 42 -62 82l-239 154q-66 42 -99.5 107t-33.5 136q0 83 26.5 148t71 106t107 67.5t129.5 37t145 10.5q182 0 356 -47q31 -9 31 -37zM1202 1583q0 -10 -12 -22l-223 -240q-19 -19 -30 -25t-32 -6
h-327q-21 0 -30 6t-20 25l-139 240q-6 9 -6 16q0 18 23 18h200q19 0 26 -4.5t19 -19.5l105 -144l155 144q17 15 26 19.5t28 4.5h221q16 0 16 -12z" />
    <glyph glyph-name="Tcommaaccent" unicode="&#x162;" horiz-adv-x="1202" 
d="M1413 1489v-6l-37 -211q-3 -17 -18 -28t-33 -11h-332l-209 -1192q-3 -17 -17.5 -29t-31.5 -12h-268q-15 0 -24 9.5t-9 23.5v8l209 1192h-334q-15 0 -24 8.5t-9 22.5v8l37 211q3 17 16.5 28t30.5 11h1016q15 0 26 -10t11 -23zM729 -123q0 -4 -6 -16l-172 -219
q-22 -27 -31.5 -34t-27.5 -7h-154q-11 0 -16.5 8t-2.5 20q0 8 5 13l92 219q16 39 47 39h239q20 0 24.5 -5.5t2.5 -17.5z" />
    <glyph glyph-name="tcommaaccent" unicode="&#x163;" horiz-adv-x="862" 
d="M997 1139v-6l-30 -166q-3 -17 -16.5 -29t-30.5 -12h-168l-107 -596q-6 -38 -6 -58q0 -23 12 -31t45 -8h101q37 0 37 -28v-6l-29 -160q-7 -35 -45 -41q-101 -16 -166 -16q-144 0 -217.5 57.5t-73.5 187.5q0 40 10 105l105 594l-160 26q-35 7 -35 37v6l23 135
q3 17 18.5 30.5t32.5 13.5h164l28 167q6 34 50 41l258 43h6q31 0 31 -28v-6l-39 -217h168q15 0 24.5 -10t9.5 -25zM635 -123q0 -4 -6 -16l-172 -219q-21 -26 -31.5 -33.5t-28.5 -7.5h-153q-11 0 -16.5 8t-2.5 20q0 9 4 13l93 219q16 39 47 39h239q20 0 24.5 -5.5t2.5 -17.5z
" />
    <glyph glyph-name="Tcaron" unicode="&#x164;" horiz-adv-x="1202" 
d="M1413 1489v-6l-37 -211q-3 -17 -18 -28t-33 -11h-332l-209 -1192q-3 -17 -17.5 -29t-31.5 -12h-268q-15 0 -24 9.5t-9 23.5v8l209 1192h-334q-15 0 -24 8.5t-9 22.5v8l37 211q3 17 16.5 28t30.5 11h1016q15 0 26 -10t11 -23zM1333 1921q0 -11 -12 -23l-223 -239
q-19 -19 -30 -25t-32 -6h-327q-21 0 -30 6t-20 25l-139 239q-6 9 -6 17q0 18 23 18h200q19 0 26 -4.5t19 -19.5l105 -144l155 144q17 15 26 19.5t28 4.5h221q16 0 16 -12z" />
    <glyph glyph-name="tcaron" unicode="&#x165;" horiz-adv-x="1310" 
d="M997 1139v-6l-30 -166q-3 -17 -16.5 -29t-30.5 -12h-168l-107 -596q-6 -38 -6 -58q0 -23 12 -31t45 -8h101q37 0 37 -28v-6l-29 -160q-7 -35 -45 -41q-101 -16 -166 -16q-144 0 -217.5 57.5t-73.5 187.5q0 40 10 105l105 594l-160 26q-35 7 -35 37v6l23 135
q3 17 18.5 30.5t32.5 13.5h164l28 167q6 34 50 41l258 43h6q31 0 31 -28v-6l-39 -217h168q15 0 24.5 -10t9.5 -25zM1573 1548q-1 -1 -2 -4t-2.5 -6t-3.5 -6l-232 -449q-23 -39 -47 -39h-207q-17 0 -14 21q1 1 2.5 8t3.5 10l189 449q16 39 49 39h243q24 0 21 -23z" />
    <glyph glyph-name="Tbar" unicode="&#x166;" horiz-adv-x="1202" 
d="M1227 684h-330l-113 -643q-6 -41 -49 -41h-268q-19 0 -27.5 11t-5.5 30l113 643h-336q-40 0 -33 39l37 211q7 39 47 39h334l47 260h-334q-40 0 -33 39l37 211q7 39 47 39h1016q24 0 32.5 -11t2.5 -41l-35 -198q-5 -22 -15.5 -30.5t-35.5 -8.5h-332l-47 -260h332
q24 0 32.5 -10.5t2.5 -40.5l-35 -199q-5 -22 -15.5 -30.5t-35.5 -8.5z" />
    <glyph glyph-name="tbar" unicode="&#x167;" horiz-adv-x="862" 
d="M344 516l-160 27q-19 3 -28 12t-6 31l22 135q7 43 51 43h166l29 162l-160 26q-20 3 -29 12.5t-6 30.5l23 135q8 44 51 44h164l28 167q6 34 50 41l258 43q18 3 29 -6.5t8 -27.5l-39 -217h168q42 0 34 -41l-30 -166q-4 -25 -14.5 -33t-32.5 -8h-168l-29 -162h166
q43 0 35 -41l-31 -166q-4 -25 -14.5 -33t-32.5 -8h-168l-33 -186q-6 -38 -6 -58q0 -23 12 -31t45 -8h101q22 0 31 -8t6 -26l-29 -160q-7 -35 -45 -41q-101 -16 -166 -16q-144 0 -217.5 57.5t-73.5 187.5q0 40 10 105l33 184h-2z" />
    <glyph glyph-name="Utilde" unicode="&#x168;" horiz-adv-x="1456" 
d="M1581 1489v-6l-162 -912q-19 -108 -50.5 -194.5t-70 -147.5t-90 -105.5t-103.5 -71.5t-118 -43t-127 -21.5t-137 -5.5q-110 0 -199.5 26t-157 79t-104.5 139t-37 200q0 76 13 145l161 912q3 17 16.5 28t30.5 11h269q15 0 25 -9.5t10 -23.5v-6l-162 -912q-13 -73 -13 -120
q0 -93 47 -135t154 -42q135 0 200 68.5t93 228.5l162 912q3 17 16.5 28t30.5 11h266q15 0 26 -9t11 -24zM1460 1913v-10l-6 -41q-20 -135 -87 -192.5t-193 -57.5q-33 0 -79.5 14t-72.5 35l-76 59q-46 37 -76 37q-23 0 -36.5 -10.5t-20.5 -44.5l-8 -39q-6 -35 -37 -35h-145
q-27 0 -27 25q0 1 1 4.5t1 5.5l8 39q28 134 93.5 191t191.5 57q32 0 74.5 -13t70.5 -34l78 -58q50 -37 76 -37t38.5 10.5t18.5 45.5l6 39q6 32 39 32h144q24 0 24 -22z" />
    <glyph glyph-name="utilde" unicode="&#x169;" horiz-adv-x="1253" 
d="M1329 1137v-7l-192 -1089q-3 -17 -16.5 -29t-30.5 -12h-230q-15 0 -25 9.5t-10 23.5v8l11 49q-83 -54 -156 -81t-170 -27q-152 0 -236 90t-84 252q0 52 13 125l119 681q3 17 18.5 30.5t32.5 13.5h248q14 0 23 -10.5t9 -24.5v-9l-118 -681q-11 -64 -11 -95q0 -53 28 -75.5
t99 -22.5q32 0 95.5 20.5t109.5 47.5l141 806q3 17 18 30.5t32 13.5h247q15 0 25 -11t10 -26zM1313 1579v-10l-6 -41q-20 -135 -87.5 -192.5t-193.5 -57.5q-33 0 -79.5 14t-72.5 35l-75 59q-46 37 -76 37q-23 0 -36.5 -10.5t-20.5 -44.5l-9 -39q-6 -35 -36 -35h-146
q-26 0 -26 25q0 1 1 4.5t1 5.5l8 39q28 134 93 191t191 57q33 0 75.5 -13t70.5 -34l78 -58q49 -36 75 -36q27 0 39.5 10t18.5 45l6 39q6 33 39 33h143q25 0 25 -23z" />
    <glyph glyph-name="Umacron" unicode="&#x16a;" horiz-adv-x="1456" 
d="M1581 1489v-6l-162 -912q-19 -108 -50.5 -194.5t-70 -147.5t-90 -105.5t-103.5 -71.5t-118 -43t-127 -21.5t-137 -5.5q-110 0 -199.5 26t-157 79t-104.5 139t-37 200q0 76 13 145l161 912q3 17 16.5 28t30.5 11h269q15 0 25 -9.5t10 -23.5v-6l-162 -912q-13 -73 -13 -120
q0 -93 47 -135t154 -42q135 0 200 68.5t93 228.5l162 912q3 17 16.5 28t30.5 11h266q15 0 26 -9t11 -24zM1397 1882v-8l-27 -148q-3 -17 -16 -27.5t-31 -10.5h-664q-15 0 -24.5 8.5t-9.5 23.5v6l26 148q3 17 17 28t32 11h664q15 0 24 -8.5t9 -22.5z" />
    <glyph glyph-name="umacron" unicode="&#x16b;" horiz-adv-x="1253" 
d="M1329 1137v-7l-192 -1089q-3 -17 -16.5 -29t-30.5 -12h-230q-15 0 -25 9.5t-10 23.5v8l11 49q-83 -54 -156 -81t-170 -27q-152 0 -236 90t-84 252q0 52 13 125l119 681q3 17 18.5 30.5t32.5 13.5h248q14 0 23 -10.5t9 -24.5v-9l-118 -681q-11 -64 -11 -95q0 -53 28 -75.5
t99 -22.5q32 0 95.5 20.5t109.5 47.5l141 806q3 17 18 30.5t32 13.5h247q15 0 25 -11t10 -26zM1264 1532v-8l-27 -148q-3 -17 -16.5 -28t-30.5 -11h-664q-15 0 -24.5 9t-9.5 24v6l26 148q3 17 17 28t32 11h664q15 0 24 -8.5t9 -22.5z" />
    <glyph glyph-name="Ubreve" unicode="&#x16c;" horiz-adv-x="1456" 
d="M1581 1489v-6l-162 -912q-19 -108 -50.5 -194.5t-70 -147.5t-90 -105.5t-103.5 -71.5t-118 -43t-127 -21.5t-137 -5.5q-110 0 -199.5 26t-157 79t-104.5 139t-37 200q0 76 13 145l161 912q3 17 16.5 28t30.5 11h269q15 0 25 -9.5t10 -23.5v-6l-162 -912q-13 -73 -13 -120
q0 -93 47 -135t154 -42q135 0 200 68.5t93 228.5l162 912q3 17 16.5 28t30.5 11h266q15 0 26 -9t11 -24zM1446 1937q0 -8 -2 -12q-109 -297 -418 -297q-145 0 -234 83.5t-98 213.5v2q0 21 23 21h157q20 0 23 -25q13 -117 147 -117q66 0 108 27t69 90q5 14 10.5 19.5
t19.5 5.5h179q16 0 16 -11z" />
    <glyph glyph-name="ubreve" unicode="&#x16d;" horiz-adv-x="1253" 
d="M1329 1137v-7l-192 -1089q-3 -17 -16.5 -29t-30.5 -12h-230q-15 0 -25 9.5t-10 23.5v8l11 49q-83 -54 -156 -81t-170 -27q-152 0 -236 90t-84 252q0 52 13 125l119 681q3 17 18.5 30.5t32.5 13.5h248q14 0 23 -10.5t9 -24.5v-9l-118 -681q-11 -64 -11 -95q0 -53 28 -75.5
t99 -22.5q32 0 95.5 20.5t109.5 47.5l141 806q3 17 18 30.5t32 13.5h247q15 0 25 -11t10 -26zM1266 1585q0 -8 -2 -12q-109 -297 -418 -297q-145 0 -234 83.5t-98 213.5v2q0 20 23 20h157q20 0 23 -24q13 -117 147 -117q66 0 107.5 27t68.5 90q5 13 11 18.5t20 5.5h178
q17 0 17 -10z" />
    <glyph glyph-name="Uring" unicode="&#x16e;" horiz-adv-x="1456" 
d="M1581 1489v-6l-162 -912q-19 -108 -50.5 -194.5t-70 -147.5t-90 -105.5t-103.5 -71.5t-118 -43t-127 -21.5t-137 -5.5q-110 0 -199.5 26t-157 79t-104.5 139t-37 200q0 76 13 145l161 912q3 17 16.5 28t30.5 11h269q15 0 25 -9.5t10 -23.5v-6l-162 -912q-13 -73 -13 -120
q0 -93 47 -135t154 -42q135 0 200 68.5t93 228.5l162 912q3 17 16.5 28t30.5 11h266q15 0 26 -9t11 -24zM1243 1806q0 -98 -69.5 -167.5t-167.5 -69.5q-99 0 -169.5 69.5t-70.5 167.5t71 169t169 71t167.5 -70.5t69.5 -169.5zM1098 1808q0 37 -27.5 63.5t-64.5 26.5
t-62.5 -26t-25.5 -64t25.5 -64t62.5 -26t64.5 26.5t27.5 63.5z" />
    <glyph glyph-name="uring" unicode="&#x16f;" horiz-adv-x="1253" 
d="M1329 1137v-7l-192 -1089q-3 -17 -16.5 -29t-30.5 -12h-230q-15 0 -25 9.5t-10 23.5v8l11 49q-83 -54 -156 -81t-170 -27q-152 0 -236 90t-84 252q0 52 13 125l119 681q3 17 18.5 30.5t32.5 13.5h248q14 0 23 -10.5t9 -24.5v-9l-118 -681q-11 -64 -11 -95q0 -53 28 -75.5
t99 -22.5q32 0 95.5 20.5t109.5 47.5l141 806q3 17 18 30.5t32 13.5h247q15 0 25 -11t10 -26zM1077 1456q0 -98 -69.5 -167.5t-167.5 -69.5q-99 0 -169.5 69.5t-70.5 167.5t71 169t169 71t167.5 -70.5t69.5 -169.5zM932 1458q0 37 -27.5 63.5t-64.5 26.5t-62.5 -26
t-25.5 -64t25.5 -64t62.5 -26t64.5 26.5t27.5 63.5z" />
    <glyph glyph-name="Uhungarumlaut" unicode="&#x170;" horiz-adv-x="1456" 
d="M1581 1489v-6l-162 -912q-19 -108 -50.5 -194.5t-70 -147.5t-90 -105.5t-103.5 -71.5t-118 -43t-127 -21.5t-137 -5.5q-110 0 -199.5 26t-157 79t-104.5 139t-37 200q0 76 13 145l161 912q3 17 16.5 28t30.5 11h269q15 0 25 -9.5t10 -23.5v-6l-162 -912q-13 -73 -13 -120
q0 -93 47 -135t154 -42q135 0 200 68.5t93 228.5l162 912q3 17 16.5 28t30.5 11h266q15 0 26 -9t11 -24zM1657 1921q0 -9 -12 -18l-295 -250q-28 -25 -56 -25h-219q-16 0 -16 12q0 11 12 23l234 240q19 19 29 24.5t30 5.5h270q23 0 23 -12zM1180 1921q0 -8 -13 -18
l-295 -250q-11 -10 -16.5 -14t-15.5 -7.5t-23 -3.5h-219q-16 0 -16 12q0 11 12 23l233 240q19 19 29 24.5t31 5.5h270q23 0 23 -12z" />
    <glyph glyph-name="uhungarumlaut" unicode="&#x171;" horiz-adv-x="1253" 
d="M1329 1137v-7l-192 -1089q-3 -17 -16.5 -29t-30.5 -12h-230q-15 0 -25 9.5t-10 23.5v8l11 49q-83 -54 -156 -81t-170 -27q-152 0 -236 90t-84 252q0 52 13 125l119 681q3 17 18.5 30.5t32.5 13.5h248q14 0 23 -10.5t9 -24.5v-9l-118 -681q-11 -64 -11 -95q0 -53 28 -75.5
t99 -22.5q32 0 95.5 20.5t109.5 47.5l141 806q3 17 18 30.5t32 13.5h247q15 0 25 -11t10 -26zM1536 1583q0 -9 -12 -18l-295 -250q-11 -10 -16.5 -14t-15.5 -7.5t-23 -3.5h-220q-16 0 -16 13q0 10 12 22l234 240q19 19 29 24.5t30 5.5h270q23 0 23 -12zM1059 1583
q0 -9 -12 -18l-295 -250q-28 -25 -56 -25h-219q-16 0 -16 13q0 10 12 22l234 240q19 19 29 24.5t30 5.5h270q23 0 23 -12z" />
    <glyph glyph-name="Uogonek" unicode="&#x172;" horiz-adv-x="1456" 
d="M1278 1522h266q43 0 37 -39l-162 -912q-37 -209 -113.5 -329.5t-203.5 -196.5l-178 -106q-24 -15 -35 -23t-21 -23t-10 -32q0 -22 12.5 -30.5t40.5 -8.5q44 0 101 9t59 9q24 0 21 -24l-29 -154q-7 -26 -27 -33q-34 -13 -105 -27t-145 -14q-241 0 -241 176q0 71 31 120.5
t112 99.5q-212 8 -337.5 117.5t-125.5 324.5q0 76 13 145l161 912q7 39 47 39h269q41 0 35 -39l-162 -912q-13 -73 -13 -120q0 -93 47 -135t154 -42q135 0 200 68.5t93 228.5l162 912q7 39 47 39z" />
    <glyph glyph-name="uogonek" unicode="&#x173;" horiz-adv-x="1253" 
d="M1329 1137l-186 -1061q-7 -41 -16.5 -55.5t-34.5 -28.5l-91 -53q-23 -14 -34.5 -22.5t-21 -23.5t-9.5 -32q0 -22 12.5 -30.5t40.5 -8.5q43 0 101 9t63 9q19 0 16 -24l-28 -154q-7 -26 -27 -33q-34 -13 -105 -27t-145 -14q-241 0 -241 176q0 78 39.5 131t144.5 109l10 6
l19 80q-83 -54 -156 -81t-170 -27q-152 0 -236 90t-84 252q0 52 13 125l119 681q3 17 18.5 30.5t32.5 13.5h248q14 0 23 -10.5t9 -24.5v-9l-118 -681q-11 -64 -11 -95q0 -53 28 -75.5t99 -22.5q32 0 95.5 20.5t109.5 47.5l141 806q3 17 18 30.5t32 13.5h247q15 0 25 -11
t10 -26z" />
    <glyph glyph-name="Wcircumflex" unicode="&#x174;" horiz-adv-x="1820" 
d="M2050 1501q0 -6 -2 -10l-426 -1341q-27 -86 -79 -121t-138 -35h-102q-74 0 -123.5 33.5t-55.5 105.5l-53 612q-1 12 -3.5 14.5t-10.5 2.5q-15 0 -21 -17l-270 -612q-60 -139 -213 -139h-104q-77 0 -125 56.5t-48 142.5v10l46 1288q0 31 38 31h271q12 0 19 -10t7 -25v-4
l-71 -1098v-10q0 -17 8 -17q6 0 18 27l248 563q44 99 144 99h202q103 0 111 -99l47 -563q3 -27 10 -27q11 0 17 27l317 1098q4 17 15.5 28t23.5 11h274q12 0 20.5 -5.5t8.5 -15.5zM1602 1647q0 -19 -21 -19h-201q-19 0 -27 5t-18 20l-102 143l-158 -143q-24 -21 -36 -24
q-7 -1 -17 -1h-221q-17 0 -17 12q0 10 13 23l225 240q19 19 29 24.5t30 5.5h328q22 0 31 -5.5t20 -24.5l137 -240q5 -8 5 -16z" />
    <glyph glyph-name="wcircumflex" unicode="&#x175;" horiz-adv-x="1730" 
d="M1872 1147q0 -11 -2 -17l-357 -987q-30 -82 -80.5 -112.5t-123.5 -30.5h-125q-71 0 -108 35t-42 96l-43 535q0 7 -1.5 8.5t-6.5 1.5q-8 0 -12 -10l-232 -535q-55 -131 -194 -131h-125q-73 0 -114.5 31t-41.5 112l-8 987q0 18 11 31t28 13h240q20 0 28 -6t8 -27v-2
l-14 -783v-2q0 -24 8 -24q9 0 21 26l237 545q23 53 51.5 72.5t79.5 19.5h168q51 0 73 -19.5t26 -72.5l41 -541q3 -26 10 -26q8 0 18 26l258 779q7 22 17.5 28.5t31.5 6.5h250q11 0 18 -8t7 -19zM1483 1309q0 -19 -21 -19h-200q-19 0 -27 5t-18 20l-103 143l-158 -143
q-24 -21 -36 -24q-7 -1 -17 -1h-221q-16 0 -16 13q0 10 12 22l225 240q19 19 29 24.5t31 5.5h327q22 0 31 -5.5t20 -24.5l138 -240q4 -6 4 -16z" />
    <glyph glyph-name="Ycircumflex" unicode="&#x176;" horiz-adv-x="1329" 
d="M1546 1497q0 -11 -6 -20l-434 -709q-77 -127 -160 -158l-100 -569q-3 -17 -17.5 -29t-31.5 -12h-269q-15 0 -23.5 10t-8.5 25v6l100 569q-76 32 -109 158l-184 709q0 1 -1 4t-1 4q0 15 12 26t29 11h287q27 0 35 -35l118 -578q4 -19 10 -24.5t17 -5.5t18 5.5t17 24.5
l323 578q19 35 47 35h304q28 0 28 -25zM1319 1647q0 -19 -21 -19h-200q-19 0 -27 5t-18 20l-103 143l-157 -143q-17 -15 -26 -20t-28 -5h-221q-16 0 -16 12q0 11 12 23l225 240q19 19 29 24.5t31 5.5h327q22 0 32 -5.5t20 -24.5l137 -240q4 -6 4 -16z" />
    <glyph glyph-name="ycircumflex" unicode="&#x177;" horiz-adv-x="1212" 
d="M1368 1143q0 -5 -4 -17l-557 -1206q-46 -98 -84 -155.5t-95 -101t-132.5 -60.5t-188.5 -17q-56 0 -134.5 10.5t-115.5 22.5q-37 11 -37 31v6l31 166q3 17 16.5 28t30.5 11h4q6 0 110 -8.5t144 -8.5q57 0 92 23.5t62 83.5l29 63h-11q-34 0 -60 7.5t-51 27.5t-42 59t-23 97
l-108 921v7q0 41 47 41h268q29 0 33 -39l47 -783q1 -17 5.5 -21.5t14.5 -4.5h17l334 809q16 39 49 39h276q13 0 23 -9.5t10 -21.5zM1225 1309q0 -19 -21 -19h-200q-19 0 -27.5 5t-18.5 20l-102 143l-158 -143q-24 -21 -36 -24q-7 -1 -17 -1h-221q-16 0 -16 13q0 10 12 22
l225 240q19 19 29 24.5t31 5.5h327q22 0 31 -5.5t20 -24.5l138 -240q4 -6 4 -16z" />
    <glyph glyph-name="Ydieresis" unicode="&#x178;" horiz-adv-x="1329" 
d="M1546 1497q0 -11 -6 -20l-434 -709q-77 -127 -160 -158l-100 -569q-3 -17 -17.5 -29t-31.5 -12h-269q-15 0 -23.5 10t-8.5 25v6l100 569q-76 32 -109 158l-184 709q0 1 -1 4t-1 4q0 15 12 26t29 11h287q27 0 35 -35l118 -578q4 -19 10 -24.5t17 -5.5t18 5.5t17 24.5
l323 578q19 35 47 35h304q28 0 28 -25zM1374 1872v-6l-33 -191q-3 -17 -19 -29t-34 -12h-192q-15 0 -25 10t-10 25v6l33 191q3 17 18 29t33 12h192q15 0 26 -10t11 -25zM930 1872v-6l-33 -191q-3 -17 -18 -29t-33 -12h-193q-15 0 -26 10t-11 25v6l33 191q3 17 19 29t34 12
h193q15 0 25 -10t10 -25z" />
    <glyph glyph-name="Zacute" unicode="&#x179;" horiz-adv-x="1259" 
d="M1403 1475v-11q-12 -78 -33 -186q-5 -24 -27 -53l-712 -885q-15 -19 -15 -27q0 -10 21 -10h532q15 0 25 -9t10 -22v-6l-39 -225q-3 -17 -17.5 -29t-31.5 -12h-930q-75 0 -75 51q0 2 1 6t1 6l30 164q10 48 45 90l703 865q12 15 12 24q0 13 -20 13h-488q-15 0 -25 8.5
t-10 23.5v6l41 226q3 17 17 28t31 11h882q31 0 51.5 -12.5t20.5 -34.5zM1350 1921q0 -8 -13 -18l-295 -250q-24 -21 -37 -24q-7 -1 -16 -1h-239q-17 0 -17 12q0 11 12 23l234 240q19 19 29 24.5t30 5.5h289q23 0 23 -12z" />
    <glyph glyph-name="zacute" unicode="&#x17a;" horiz-adv-x="1054" 
d="M1159 1122q0 -12 -2 -18l-27 -152q-8 -41 -34 -71l-510 -580q-8 -8 -8 -14q0 -8 12 -8h389q14 0 22.5 -7.5t8.5 -19.5v-6l-35 -205q-3 -17 -17.5 -29t-31.5 -12h-768q-60 0 -60 49q0 13 2 19l23 131q1 6 2 11t3 10.5t3 8.5t4.5 8t4.5 7t5.5 7.5t5.5 7t7 8.5t8 9l534 607
q9 9 9 16q0 8 -13 8h-395q-29 0 -29 27v6l35 193q3 17 16.5 29t30.5 12h748q57 0 57 -52zM1182 1583q0 -8 -13 -18l-295 -250q-24 -21 -37 -24q-7 -1 -16 -1h-239q-17 0 -17 13q0 9 13 22l233 240q19 19 29 24.5t30 5.5h289q23 0 23 -12z" />
    <glyph glyph-name="Zdotaccent" unicode="&#x17b;" horiz-adv-x="1259" 
d="M1403 1475v-11q-12 -78 -33 -186q-5 -24 -27 -53l-712 -885q-15 -19 -15 -27q0 -10 21 -10h532q15 0 25 -9t10 -22v-6l-39 -225q-3 -17 -17.5 -29t-31.5 -12h-930q-75 0 -75 51q0 2 1 6t1 6l30 164q10 48 45 90l703 865q12 15 12 24q0 13 -20 13h-488q-15 0 -25 8.5
t-10 23.5v6l41 226q3 17 17 28t31 11h882q31 0 51.5 -12.5t20.5 -34.5zM1130 1903v-7l-36 -208q-3 -17 -16.5 -29t-30.5 -12h-242q-15 0 -25 9.5t-10 24.5v7l37 208q3 17 16.5 28t30.5 11h242q15 0 24.5 -8.5t9.5 -23.5z" />
    <glyph glyph-name="zdotaccent" unicode="&#x17c;" horiz-adv-x="1054" 
d="M1159 1122q0 -12 -2 -18l-27 -152q-8 -41 -34 -71l-510 -580q-8 -8 -8 -14q0 -8 12 -8h389q14 0 22.5 -7.5t8.5 -19.5v-6l-35 -205q-3 -17 -17.5 -29t-31.5 -12h-768q-60 0 -60 49q0 13 2 19l23 131q1 6 2 11t3 10.5t3 8.5t4.5 8t4.5 7t5.5 7.5t5.5 7t7 8.5t8 9l534 607
q9 9 9 16q0 8 -13 8h-395q-29 0 -29 27v6l35 193q3 17 16.5 29t30.5 12h748q57 0 57 -52zM946 1552v-6l-37 -209q-3 -17 -16.5 -29t-30.5 -12h-241q-15 0 -25 10t-10 25v6l37 209q3 17 16.5 28t30.5 11h241q15 0 25 -9t10 -24z" />
    <glyph glyph-name="Zcaron" unicode="&#x17d;" horiz-adv-x="1259" 
d="M1403 1475v-11q-12 -78 -33 -186q-5 -24 -27 -53l-712 -885q-15 -19 -15 -27q0 -10 21 -10h532q15 0 25 -9t10 -22v-6l-39 -225q-3 -17 -17.5 -29t-31.5 -12h-930q-75 0 -75 51q0 2 1 6t1 6l30 164q10 48 45 90l703 865q12 15 12 24q0 13 -20 13h-488q-15 0 -25 8.5
t-10 23.5v6l41 226q3 17 17 28t31 11h882q31 0 51.5 -12.5t20.5 -34.5zM1393 1919q0 -10 -13 -23l-223 -239q-19 -19 -30 -25t-31 -6h-328q-21 0 -29.5 5.5t-19.5 25.5l-139 239q-7 10 -7 17q0 18 23 18h201q19 0 26 -4.5t19 -19.5l104 -144l156 144q12 11 17 15t14 6.5
t22 2.5h221q17 0 17 -12z" />
    <glyph glyph-name="zcaron" unicode="&#x17e;" horiz-adv-x="1054" 
d="M1159 1122q0 -12 -2 -18l-27 -152q-8 -41 -34 -71l-510 -580q-8 -8 -8 -14q0 -8 12 -8h389q14 0 22.5 -7.5t8.5 -19.5v-6l-35 -205q-3 -17 -17.5 -29t-31.5 -12h-768q-60 0 -60 49q0 13 2 19l23 131q1 6 2 11t3 10.5t3 8.5t4.5 8t4.5 7t5.5 7.5t5.5 7t7 8.5t8 9l534 607
q9 9 9 16q0 8 -13 8h-395q-29 0 -29 27v6l35 193q3 17 16.5 29t30.5 12h748q57 0 57 -52zM1237 1583q0 -10 -12 -22l-224 -240q-19 -19 -30 -25t-31 -6h-328q-21 0 -29.5 5.5t-19.5 25.5l-139 240q-6 9 -6 16q0 18 22 18h201q19 0 26 -4.5t19 -19.5l105 -144l155 144
q12 11 17 15t14 6.5t22 2.5h222q16 0 16 -12z" />
    <glyph glyph-name="florin" unicode="&#x192;" 
d="M1391 1556q0 -1 -1 -4.5t-1 -5.5l-35 -153q-3 -17 -17 -27t-34 -10h-134q-73 0 -101 -20.5t-42 -80.5l-74 -325h275q15 0 25 -8.5t10 -20.5q0 -2 -1 -5t-1 -5l-39 -172q-5 -18 -19.5 -30.5t-32.5 -12.5h-274l-154 -666q-23 -99 -67.5 -168.5t-107 -108t-131.5 -55
t-154 -16.5q-110 0 -203 19q-35 8 -35 28q0 1 1 4.5t1 5.5l35 154q3 17 17 27t34 10h133q74 0 102 20t42 80l151 666h-258q-15 0 -25 9.5t-10 23.5q0 2 1 5t1 5l39 172q5 17 18.5 28t32.5 11h260l74 325q78 349 463 349q108 0 201 -19q35 -8 35 -29z" />
    <glyph glyph-name="AEacute" unicode="&#x1fc;" horiz-adv-x="1892" 
d="M2038 1493q0 -2 -1 -6t-1 -6l-35 -199q-3 -17 -16.5 -29t-30.5 -12h-496l-57 -326h479q15 0 24 -9t9 -23v-9l-33 -194q-3 -17 -17.5 -29t-31.5 -12h-479l-39 -217q-4 -20 -4 -53q0 -49 25 -67.5t85 -18.5h365q15 0 25 -10t10 -25v-6l-35 -191q-3 -20 -14 -30t-33 -13
q-3 0 -52 -7.5t-72.5 -10t-87 -5.5t-141.5 -3q-430 0 -430 325q0 20 4 66h-407l-133 -336q-6 -16 -19 -26.5t-28 -10.5h-297q-29 0 -29 27q0 4 4 16l529 1270q20 48 46 84t57.5 58t61.5 36t69.5 20.5t69.5 8.5t72 2h1049q35 0 35 -29zM1112 1249h-194q-23 0 -35 -30
l-226 -566h349zM1806 1921q0 -9 -12 -18l-295 -250q-24 -21 -37 -24q-7 -1 -16 -1h-240q-16 0 -16 12q0 11 12 23l234 240q19 19 29 24.5t30 5.5h289q22 0 22 -12z" />
    <glyph glyph-name="aeacute" unicode="&#x1fd;" horiz-adv-x="1804" 
d="M1839 786q0 -47 -10 -112l-23 -131q-3 -17 -18.5 -30t-32.5 -13h-635l-14 -84q-4 -24 -4 -33q0 -125 213 -125q198 0 358 16h10q27 0 27 -22v-10l-27 -148q-5 -24 -14 -35t-33 -18q-183 -59 -417 -59q-89 0 -164.5 24.5t-120.5 69.5q-190 -94 -397 -94q-168 0 -282 80
t-114 225q0 31 6 65l5 23q14 77 48 134t83 93t121 57.5t151.5 30t183.5 8.5h86l4 19q9 46 9 82q0 63 -31 88.5t-102 25.5q-205 0 -338 -14h-7q-26 0 -26 27v10l28 162q7 39 50 49q177 43 340 43q214 0 315 -123q129 123 356 123q105 0 186.5 -31.5t130.5 -87.5t74 -128
t25 -157zM1526 786q0 148 -150 148q-91 0 -145 -57t-72 -160l-6 -37h360l7 37q6 38 6 69zM805 518h-96q-111 0 -170 -33t-72 -110l-4 -23q-2 -10 -2 -28q0 -55 39.5 -81t101.5 -26q86 0 154 27zM1565 1583q0 -8 -13 -18l-295 -250q-24 -21 -37 -24q-7 -1 -16 -1h-239
q-17 0 -17 13q0 9 13 22l233 240q19 19 29 24.5t30 5.5h289q23 0 23 -12z" />
    <glyph glyph-name="Oslashacute" unicode="&#x1fe;" horiz-adv-x="1429" 
d="M1653 1518q0 -13 -8 -21l-197 -221q43 -98 43 -234q0 -79 -14 -159l-43 -244q-61 -348 -242 -502.5t-481 -154.5q-198 0 -330 102l-72 -80q-19 -22 -47 -22h-199q-18 0 -18 16q0 12 10 22l199 224q-47 103 -47 239q0 79 14 156l43 244q26 149 77 263t117.5 188t153 121
t177.5 66t198 19q208 0 338 -104l72 82q10 12 17 15t22 3h198q19 0 19 -18zM1092 1178q-49 55 -160 55q-131 0 -206 -80.5t-108 -269.5l-43 -244q-3 -24 -6 -45zM1130 924l-522 -586q49 -49 158 -49q130 0 206.5 83.5t108.5 266.5l43 244q5 35 6 41zM1456 1923q0 -9 -12 -18
l-295 -250q-24 -21 -37 -24q-7 -1 -16 -1h-240q-16 0 -16 12q0 11 12 23l233 240q19 19 29 24.5t31 5.5h289q22 0 22 -12z" />
    <glyph glyph-name="oslashacute" unicode="&#x1ff;" horiz-adv-x="1208" 
d="M1378 1229q0 -15 -12 -27l-178 -194q57 -92 57 -232q0 -58 -12 -119l-27 -143q-51 -267 -195.5 -399.5t-410.5 -132.5q-165 0 -276 81l-105 -114q-19 -21 -37 -21h-135q-14 0 -14 13q0 14 12 26l184 201q-59 100 -59 231q0 66 10 115l27 143q52 276 200.5 404.5
t405.5 128.5q172 0 279 -78l100 109q18 20 37 20h135q14 0 14 -12zM872 872q-35 35 -108 35q-91 0 -147 -59t-80 -191l-27 -143q-5 -40 -6 -47zM911 705l-372 -408q35 -35 112 -35q97 0 149.5 61.5t76.5 190.5l26 143q1 9 4 25.5t4 22.5zM1266 1583q0 -8 -13 -18l-295 -250
q-24 -21 -37 -24q-7 -1 -16 -1h-239q-17 0 -17 13q0 9 13 22l233 240q19 19 29 24.5t30 5.5h289q23 0 23 -12z" />
    <glyph glyph-name="uni0218" unicode="&#x218;" horiz-adv-x="1204" 
d="M1333 1466v-8l-37 -207q-6 -34 -41 -34h-4q-314 22 -430 22q-42 0 -71 -4.5t-56 -17.5t-41 -40.5t-14 -68.5q0 -32 20 -54.5t84 -64.5l238 -155q219 -142 219 -328q0 -136 -50.5 -239t-139.5 -164t-201.5 -91t-245.5 -30q-220 0 -387 45q-33 7 -33 34v7l35 200
q6 39 43 39h6q246 -24 385 -24q211 0 211 168q0 74 -106 143l-252 166q-93 61 -138.5 143.5t-45.5 173.5q0 104 33.5 185t89 132.5t134.5 85t163.5 47t181.5 13.5q107 0 237 -14.5t189 -30.5q24 -6 24 -29zM748 -123q0 -2 -7 -16l-172 -219q-22 -27 -31.5 -34t-27.5 -7h-154
q-11 0 -16 8t-2 20q0 9 4 13l92 219q16 39 47 39h240q20 0 24.5 -5.5t2.5 -17.5z" />
    <glyph glyph-name="uni0219" unicode="&#x219;" horiz-adv-x="1030" 
d="M1102 1106v-10l-29 -166q-7 -39 -41 -39h-6q-192 27 -336 27h-8q-20 0 -32.5 -0.5t-29.5 -4.5t-27 -11.5t-17 -21.5t-7 -34q0 -34 49 -64l228 -145q162 -105 162 -254q0 -87 -27.5 -155.5t-74.5 -114t-112.5 -75.5t-137.5 -43t-154 -13q-210 0 -365 45q-31 9 -31 36v11
l31 166q6 39 47 39h6q226 -29 345 -29q32 0 51.5 2.5t41 11t32 28t10.5 50.5q0 42 -62 82l-239 154q-66 42 -99.5 107t-33.5 136q0 83 26.5 148t71 106t107 67.5t129.5 37t145 10.5q182 0 356 -47q31 -9 31 -37zM682 -123q0 -4 -6 -16l-172 -219q-21 -26 -31.5 -33.5
t-28.5 -7.5h-153q-11 0 -16.5 8t-2.5 20q0 9 4 13l93 219q16 39 47 39h239q20 0 24.5 -5.5t2.5 -17.5z" />
    <glyph glyph-name="uni021A" unicode="&#x21a;" horiz-adv-x="1202" 
d="M1413 1489v-6l-37 -211q-3 -17 -18 -28t-33 -11h-332l-209 -1192q-3 -17 -17.5 -29t-31.5 -12h-268q-15 0 -24 9.5t-9 23.5v8l209 1192h-334q-15 0 -24 8.5t-9 22.5v8l37 211q3 17 16.5 28t30.5 11h1016q15 0 26 -10t11 -23zM729 -123q0 -4 -6 -16l-172 -219
q-22 -27 -31.5 -34t-27.5 -7h-154q-11 0 -16.5 8t-2.5 20q0 8 5 13l92 219q16 39 47 39h239q20 0 24.5 -5.5t2.5 -17.5z" />
    <glyph glyph-name="uni021B" unicode="&#x21b;" horiz-adv-x="862" 
d="M997 1139v-6l-30 -166q-3 -17 -16.5 -29t-30.5 -12h-168l-107 -596q-6 -38 -6 -58q0 -23 12 -31t45 -8h101q37 0 37 -28v-6l-29 -160q-7 -35 -45 -41q-101 -16 -166 -16q-144 0 -217.5 57.5t-73.5 187.5q0 40 10 105l105 594l-160 26q-35 7 -35 37v6l23 135
q3 17 18.5 30.5t32.5 13.5h164l28 167q6 34 50 41l258 43h6q31 0 31 -28v-6l-39 -217h168q15 0 24.5 -10t9.5 -25zM635 -123q0 -4 -6 -16l-172 -219q-21 -26 -31.5 -33.5t-28.5 -7.5h-153q-11 0 -16.5 8t-2.5 20q0 9 4 13l93 219q16 39 47 39h239q20 0 24.5 -5.5t2.5 -17.5z
" />
    <glyph glyph-name="circumflex" unicode="&#x2c6;" horiz-adv-x="907" 
d="M1092 1309q0 -19 -21 -19h-201q-19 0 -27 5t-18 20l-102 143l-158 -143q-24 -21 -36 -24q-7 -1 -17 -1h-221q-17 0 -17 13q0 9 13 22l225 240q19 19 29 24.5t30 5.5h328q22 0 31 -5.5t20 -24.5l137 -240q5 -7 5 -16z" />
    <glyph glyph-name="caron" unicode="&#x2c7;" horiz-adv-x="907" 
d="M1141 1583q0 -9 -13 -22l-223 -240q-19 -19 -30 -25t-31 -6h-328q-21 0 -29.5 5.5t-19.5 25.5l-139 240q-6 9 -6 16q0 18 22 18h201q19 0 26 -4.5t19 -19.5l104 -144l156 144q12 11 17 15t14 6.5t22 2.5h221q17 0 17 -12z" />
    <glyph glyph-name="uni02C9" unicode="&#x2c9;" horiz-adv-x="907" 
d="M1096 1532v-8l-27 -148q-3 -17 -16.5 -28t-30.5 -11h-664q-15 0 -24.5 9t-9.5 24v6l26 148q3 17 17 28t32 11h664q15 0 24 -8.5t9 -22.5z" />
    <glyph glyph-name="breve" unicode="&#x2d8;" horiz-adv-x="907" 
d="M1112 1585q0 -8 -2 -12q-109 -297 -418 -297q-145 0 -234 83.5t-98 213.5v2q0 20 23 20h158q19 0 22 -24q13 -117 148 -117q66 0 107.5 27t68.5 90q5 13 11 18.5t20 5.5h178q16 0 16 -10z" />
    <glyph glyph-name="dotaccent" unicode="&#x2d9;" horiz-adv-x="907" 
d="M889 1552v-6l-37 -209q-3 -17 -16.5 -29t-30.5 -12h-242q-15 0 -25 10t-10 25v6l37 209q3 17 16.5 28t30.5 11h242q15 0 25 -9t10 -24z" />
    <glyph glyph-name="ring" unicode="&#x2da;" horiz-adv-x="907" 
d="M958 1456q0 -98 -69.5 -167.5t-167.5 -69.5q-99 0 -169.5 69.5t-70.5 167.5t71 169t169 71t167.5 -70.5t69.5 -169.5zM813 1458q0 37 -27.5 63.5t-64.5 26.5t-62.5 -26t-25.5 -64t25.5 -64t62.5 -26t64.5 26.5t27.5 63.5z" />
    <glyph glyph-name="ogonek" unicode="&#x2db;" horiz-adv-x="872" 
d="M649 -184l-28 -154q-7 -26 -27 -33q-34 -13 -105 -27t-145 -14q-242 0 -242 176q0 78 40 131t145 109l108 57q23 15 62 15h200q11 0 14.5 -5t0 -12.5t-12.5 -13.5l-178 -106q-23 -14 -34.5 -22.5t-21 -23.5t-9.5 -32q0 -22 12.5 -30.5t40.5 -8.5q43 0 101 9t63 9
q19 0 16 -24z" />
    <glyph glyph-name="tilde" unicode="&#x2dc;" horiz-adv-x="1017" 
d="M1186 1579v-10l-6 -41q-20 -135 -87.5 -192.5t-193.5 -57.5q-33 0 -79 14t-72 35l-76 59q-46 37 -76 37q-23 0 -36.5 -10.5t-20.5 -44.5l-9 -39q-6 -35 -36 -35h-146q-26 0 -26 25q0 1 1 4.5t1 5.5l8 39q28 134 93 191t191 57q33 0 75.5 -13t70.5 -34l78 -58
q49 -36 75 -36q27 0 39.5 10t18.5 45l6 39q6 33 39 33h143q25 0 25 -23z" />
    <glyph glyph-name="hungarumlaut" unicode="&#x2dd;" horiz-adv-x="907" 
d="M1278 1583q0 -9 -12 -18l-295 -250q-28 -25 -56 -25h-219q-16 0 -16 13q0 10 12 22l234 240q19 19 29 24.5t30 5.5h270q23 0 23 -12zM801 1583q0 -8 -13 -18l-294 -250q-28 -25 -56 -25h-219q-16 0 -16 13q0 10 12 22l234 240q19 19 29 24.5t30 5.5h270q23 0 23 -12z" />
    <glyph glyph-name="uni03A9" unicode="&#x3a9;" horiz-adv-x="1466" 
d="M985 1546q257 0 407 -124t150 -363q0 -76 -14 -150l-4 -24q-14 -77 -30.5 -134t-47.5 -118t-75.5 -105.5t-113 -85t-159.5 -69.5l-11 -56h228q22 0 32.5 -9t6.5 -32l-41 -233q-8 -43 -53 -43h-392q-43 0 -37 43l78 436q4 27 11 36t26 15q98 32 143.5 116.5t79.5 273.5
l5 24q8 58 8 86q0 203 -232 203q-274 0 -325 -289l-4 -24q-25 -150 -25 -207q0 -74 25.5 -117.5t83.5 -65.5q16 -6 20 -15.5t0 -35.5l-78 -436q-6 -43 -49 -43h-391q-49 0 -41 43l41 233q7 41 55 41h227l11 56q-139 49 -195.5 146.5t-56.5 232.5q0 89 20 202l4 25
q22 127 67 224t107 161.5t146.5 105.5t180 58.5t212.5 17.5z" />
    <glyph glyph-name="uni03BC" unicode="&#x3bc;" horiz-adv-x="1253" 
d="M1329 1135v-7l-180 -1028q-3 -22 -20.5 -36.5t-55.5 -26.5q-174 -55 -442 -55q-101 0 -178 18l-62 -350q-3 -17 -17.5 -29t-31.5 -12h-250q-15 0 -24 9.5t-9 23.5v8l263 1478q3 18 17.5 32t31.5 14h247q15 0 25 -12t10 -27v-7l-118 -679q-7 -44 -7 -68q0 -67 36.5 -97
t115.5 -30q106 0 166 14l151 860q3 18 18 32t32 14h247q15 0 25 -12t10 -27z" />
    <glyph glyph-name="pi" unicode="&#x3c0;" horiz-adv-x="1376" 
d="M1466 930h-141l-117 -656q-2 -11 -2 -19t1 -13.5t5 -9t7 -5.5t11 -3t13 -1h17h92q11 0 15 -4.5t1 -17.5l-33 -187q-1 -6 -2.5 -10t-2.5 -6t-4.5 -4t-4 -2.5t-6 -2t-6.5 -1.5q-65 -13 -123 -13q-252 0 -252 220q0 54 12 122l109 613h-406l-157 -889q-3 -13 -5 -19.5
t-10 -14t-20 -7.5h-211q-32 0 -25 41l158 889h-141q-18 0 -24 6t-3 25l29 161q3 20 10.5 26.5t25.5 6.5h1229q18 0 23 -6.5t2 -26.5l-29 -161q-3 -20 -10 -25.5t-25 -5.5z" />
    <glyph glyph-name="Wgrave" unicode="&#x1e80;" horiz-adv-x="1820" 
d="M2050 1501q0 -6 -2 -10l-426 -1341q-27 -86 -79 -121t-138 -35h-102q-74 0 -123.5 33.5t-55.5 105.5l-53 612q-1 12 -3.5 14.5t-10.5 2.5q-15 0 -21 -17l-270 -612q-60 -139 -213 -139h-104q-77 0 -125 56.5t-48 142.5v10l46 1288q0 31 38 31h271q12 0 19 -10t7 -25v-4
l-71 -1098v-10q0 -17 8 -17q6 0 18 27l248 563q44 99 144 99h202q103 0 111 -99l47 -563q3 -27 10 -27q11 0 17 27l317 1098q4 17 15.5 28t23.5 11h274q12 0 20.5 -5.5t8.5 -15.5zM1389 1649q0 -8 -6.5 -13.5t-16.5 -5.5h-203q-6 0 -10.5 0.5t-8 2t-6 2t-5.5 4t-4.5 4.5
t-5.5 5.5t-5 6.5l-205 250q-6 9 -6 14q0 16 25 16h254q21 0 30.5 -6t20.5 -24l145 -240q7 -11 7 -16z" />
    <glyph glyph-name="wgrave" unicode="&#x1e81;" horiz-adv-x="1730" 
d="M1872 1147q0 -11 -2 -17l-357 -987q-30 -82 -80.5 -112.5t-123.5 -30.5h-125q-71 0 -108 35t-42 96l-43 535q0 7 -1.5 8.5t-6.5 1.5q-8 0 -12 -10l-232 -535q-55 -131 -194 -131h-125q-73 0 -114.5 31t-41.5 112l-8 987q0 18 11 31t28 13h240q20 0 28 -6t8 -27v-2
l-14 -783v-2q0 -24 8 -24q9 0 21 26l237 545q23 53 51.5 72.5t79.5 19.5h168q51 0 73 -19.5t26 -72.5l41 -541q3 -26 10 -26q8 0 18 26l258 779q7 22 17.5 28.5t31.5 6.5h250q11 0 18 -8t7 -19zM1243 1309q0 -19 -22 -19h-203q-6 0 -10.5 0.5t-8 2t-6 2t-5.5 4t-4.5 4.5
t-5.5 5.5t-5 6.5l-205 250q-6 9 -6 14q0 16 24 16h254q21 0 31 -6t21 -24l145 -240q6 -9 6 -16z" />
    <glyph glyph-name="Wacute" unicode="&#x1e82;" horiz-adv-x="1820" 
d="M2050 1501q0 -6 -2 -10l-426 -1341q-27 -86 -79 -121t-138 -35h-102q-74 0 -123.5 33.5t-55.5 105.5l-53 612q-1 12 -3.5 14.5t-10.5 2.5q-15 0 -21 -17l-270 -612q-60 -139 -213 -139h-104q-77 0 -125 56.5t-48 142.5v10l46 1288q0 31 38 31h271q12 0 19 -10t7 -25v-4
l-71 -1098v-10q0 -17 8 -17q6 0 18 27l248 563q44 99 144 99h202q103 0 111 -99l47 -563q3 -27 10 -27q11 0 17 27l317 1098q4 17 15.5 28t23.5 11h274q12 0 20.5 -5.5t8.5 -15.5zM1599 1923q0 -9 -12 -18l-295 -250q-24 -21 -37 -24q-7 -1 -16 -1h-240q-16 0 -16 12
q0 11 12 23l234 240q19 19 29 24.5t30 5.5h289q22 0 22 -12z" />
    <glyph glyph-name="wacute" unicode="&#x1e83;" horiz-adv-x="1730" 
d="M1872 1147q0 -11 -2 -17l-357 -987q-30 -82 -80.5 -112.5t-123.5 -30.5h-125q-71 0 -108 35t-42 96l-43 535q0 7 -1.5 8.5t-6.5 1.5q-8 0 -12 -10l-232 -535q-55 -131 -194 -131h-125q-73 0 -114.5 31t-41.5 112l-8 987q0 18 11 31t28 13h240q20 0 28 -6t8 -27v-2
l-14 -783v-2q0 -24 8 -24q9 0 21 26l237 545q23 53 51.5 72.5t79.5 19.5h168q51 0 73 -19.5t26 -72.5l41 -541q3 -26 10 -26q8 0 18 26l258 779q7 22 17.5 28.5t31.5 6.5h250q11 0 18 -8t7 -19zM1516 1583q0 -8 -13 -18l-295 -250q-24 -21 -37 -24q-7 -1 -16 -1h-240
q-16 0 -16 13q0 10 12 22l234 240q19 19 29 24.5t30 5.5h289q23 0 23 -12z" />
    <glyph glyph-name="Wdieresis" unicode="&#x1e84;" horiz-adv-x="1820" 
d="M2050 1501q0 -6 -2 -10l-426 -1341q-27 -86 -79 -121t-138 -35h-102q-74 0 -123.5 33.5t-55.5 105.5l-53 612q-1 12 -3.5 14.5t-10.5 2.5q-15 0 -21 -17l-270 -612q-60 -139 -213 -139h-104q-77 0 -125 56.5t-48 142.5v10l46 1288q0 31 38 31h271q12 0 19 -10t7 -25v-4
l-71 -1098v-10q0 -17 8 -17q6 0 18 27l248 563q44 99 144 99h202q103 0 111 -99l47 -563q3 -27 10 -27q11 0 17 27l317 1098q4 17 15.5 28t23.5 11h274q12 0 20.5 -5.5t8.5 -15.5zM1587 1866v-6l-33 -191q-3 -17 -19 -29t-34 -12h-192q-15 0 -25 10t-10 25v6l33 191
q3 17 18 29t33 12h192q15 0 26 -10t11 -25zM1143 1866v-6l-33 -191q-3 -17 -18 -29t-33 -12h-193q-15 0 -26 10t-11 25v6l33 191q3 17 19 29t34 12h193q15 0 25 -10t10 -25z" />
    <glyph glyph-name="wdieresis" unicode="&#x1e85;" horiz-adv-x="1730" 
d="M1872 1147q0 -11 -2 -17l-357 -987q-30 -82 -80.5 -112.5t-123.5 -30.5h-125q-71 0 -108 35t-42 96l-43 535q0 7 -1.5 8.5t-6.5 1.5q-8 0 -12 -10l-232 -535q-55 -131 -194 -131h-125q-73 0 -114.5 31t-41.5 112l-8 987q0 18 11 31t28 13h240q20 0 28 -6t8 -27v-2
l-14 -783v-2q0 -24 8 -24q9 0 21 26l237 545q23 53 51.5 72.5t79.5 19.5h168q51 0 73 -19.5t26 -72.5l41 -541q3 -26 10 -26q8 0 18 26l258 779q7 22 17.5 28.5t31.5 6.5h250q11 0 18 -8t7 -19zM1479 1577v-6l-33 -191q-3 -17 -19 -29t-34 -12h-193q-15 0 -25 10t-10 25v6
l33 191q3 17 18 29t33 12h193q15 0 26 -10t11 -25zM1034 1577v-6l-33 -191q-3 -17 -18 -29t-33 -12h-192q-15 0 -26 10t-11 25v6l33 191q3 17 19 29t34 12h192q15 0 25 -10t10 -25z" />
    <glyph glyph-name="Ygrave" unicode="&#x1ef2;" horiz-adv-x="1329" 
d="M1546 1497q0 -11 -6 -20l-434 -709q-77 -127 -160 -158l-100 -569q-3 -17 -17.5 -29t-31.5 -12h-269q-15 0 -23.5 10t-8.5 25v6l100 569q-76 32 -109 158l-184 709q0 1 -1 4t-1 4q0 15 12 26t29 11h287q27 0 35 -35l118 -578q4 -19 10 -24.5t17 -5.5t18 5.5t17 24.5
l323 578q19 35 47 35h304q28 0 28 -25zM1077 1647q0 -19 -22 -19h-203q-6 0 -10.5 0.5t-8 2t-6 2t-5.5 4t-4.5 4.5t-5.5 5.5t-5 6.5l-205 250q-6 9 -6 14q0 16 25 16h253q21 0 31 -6t21 -24l145 -240q6 -9 6 -16z" />
    <glyph glyph-name="ygrave" unicode="&#x1ef3;" horiz-adv-x="1212" 
d="M1368 1143q0 -5 -4 -17l-557 -1206q-46 -98 -84 -155.5t-95 -101t-132.5 -60.5t-188.5 -17q-56 0 -134.5 10.5t-115.5 22.5q-37 11 -37 31v6l31 166q3 17 16.5 28t30.5 11h4q6 0 110 -8.5t144 -8.5q57 0 92 23.5t62 83.5l29 63h-11q-34 0 -60 7.5t-51 27.5t-42 59t-23 97
l-108 921v7q0 41 47 41h268q29 0 33 -39l47 -783q1 -17 5.5 -21.5t14.5 -4.5h17l334 809q16 39 49 39h276q13 0 23 -9.5t10 -21.5zM989 1309q0 -19 -22 -19h-203q-6 0 -10.5 0.5t-8 2t-6 2t-5.5 4t-4.5 4.5t-5.5 5.5t-5 6.5l-205 250q-6 9 -6 14q0 16 24 16h254q21 0 31 -6
t21 -24l145 -240q6 -9 6 -16z" />
    <glyph glyph-name="endash" unicode="&#x2013;" horiz-adv-x="632" 
d="M754 514q-3 -17 -17 -28t-32 -11h-615q-17 0 -25.5 11t-5.5 28l29 162q3 18 15.5 29.5t29.5 11.5h615q17 0 27 -12t7 -29z" />
    <glyph glyph-name="emdash" unicode="&#x2014;" horiz-adv-x="1226" 
d="M1348 514q-3 -17 -17.5 -28t-32.5 -11h-1208q-17 0 -25.5 11t-5.5 28l29 162q3 18 15.5 29.5t29.5 11.5h1208q17 0 27.5 -12t7.5 -29z" />
    <glyph glyph-name="quoteleft" unicode="&#x2018;" horiz-adv-x="518" 
d="M743 1556q0 -9 -6 -24l-190 -449q-16 -39 -47 -39h-244q-20 0 -20 17q0 10 6 22l233 449q20 39 45 39h207q16 0 16 -15z" />
    <glyph glyph-name="quoteright" unicode="&#x2019;" horiz-adv-x="518" 
d="M743 1554q0 -10 -6 -22l-233 -449q-20 -39 -45 -39h-207q-16 0 -16 15q0 9 6 24l190 449q16 39 47 39h244q20 0 20 -17z" />
    <glyph glyph-name="quotesinglbase" unicode="&#x201a;" horiz-adv-x="518" 
d="M528 317q0 -9 -6 -18l-278 -459q-1 -2 -5 -8t-5 -8t-4 -7t-5 -6.5t-5.5 -4.5t-6 -4t-6.5 -2t-8 -1h-181q-13 0 -21.5 7.5t-8.5 19.5q0 6 4 14l213 459q19 39 47 39h250q26 0 26 -21z" />
    <glyph glyph-name="quotedblleft" unicode="&#x201c;" horiz-adv-x="968" 
d="M1194 1556q0 -9 -6 -24l-191 -449q-16 -39 -47 -39h-243q-21 0 -21 17q0 10 6 22l232 449q20 39 45 39h209q16 0 16 -15zM743 1556q0 -9 -6 -24l-190 -449q-16 -39 -47 -39h-244q-20 0 -20 17q0 10 6 22l233 449q20 39 45 39h207q16 0 16 -15z" />
    <glyph glyph-name="quotedblright" unicode="&#x201d;" horiz-adv-x="968" 
d="M1194 1554q0 -10 -6 -22l-234 -449q-20 -39 -45 -39h-207q-16 0 -16 15q0 9 6 24l191 449q16 39 47 39h244q20 0 20 -17zM743 1554q0 -10 -6 -22l-231 -449q-20 -39 -45 -39h-209q-16 0 -16 15q0 9 6 24l192 449q16 39 47 39h242q20 0 20 -17z" />
    <glyph glyph-name="quotedblbase" unicode="&#x201e;" horiz-adv-x="968" 
d="M997 317q0 -9 -6 -18l-278 -459q-1 -2 -5 -8t-5 -8t-4 -7t-5 -6.5t-5.5 -4.5t-6 -4t-6.5 -2t-8 -1h-181q-13 0 -21.5 7.5t-8.5 19.5q0 6 4 14l213 459q19 39 47 39h250q26 0 26 -21zM528 317q0 -9 -6 -18l-278 -459q-1 -2 -5 -8t-5 -8t-4 -7t-5 -6.5t-5.5 -4.5t-6 -4
t-6.5 -2t-8 -1h-181q-13 0 -21.5 7.5t-8.5 19.5q0 6 4 14l213 459q19 39 47 39h250q26 0 26 -21z" />
    <glyph glyph-name="dagger" unicode="&#x2020;" horiz-adv-x="901" 
d="M1044 1171v-6l-36 -213q-6 -32 -45 -32h-189l-158 -891q-7 -41 -38 -41h-271q-26 0 -26 30v11l157 891h-176q-33 0 -33 26v6l37 213q6 31 45 31h176l60 336q8 39 41 39h268q13 0 20 -9t7 -22v-8l-60 -336h189q32 0 32 -25z" />
    <glyph glyph-name="daggerdbl" unicode="&#x2021;" horiz-adv-x="901" 
d="M1044 1171v-6l-36 -213q-6 -32 -45 -32h-189l-31 -181h189q33 0 33 -24v-6l-37 -211q-7 -33 -45 -33h-189l-78 -436q-7 -41 -38 -41h-271q-26 0 -26 30v11l77 436h-176q-32 0 -32 27v6l36 211q6 30 45 30h177l30 181h-176q-33 0 -33 26v6l37 213q6 31 45 31h176l60 336
q8 39 41 39h268q13 0 20 -9t7 -22v-8l-60 -336h189q32 0 32 -25z" />
    <glyph glyph-name="bullet" unicode="&#x2022;" horiz-adv-x="856" 
d="M909 752q0 -141 -100.5 -241.5t-241.5 -100.5t-241.5 100.5t-100.5 241.5t100.5 241.5t241.5 100.5t241.5 -100.5t100.5 -241.5z" />
    <glyph glyph-name="ellipsis" unicode="&#x2026;" horiz-adv-x="1570" 
d="M1522 305v-6l-45 -258q-3 -17 -18 -29t-32 -12h-241q-15 0 -24 9.5t-9 23.5v8l45 258q3 17 16.5 28t30.5 11h242q15 0 25 -9t10 -24zM1001 305v-6l-45 -258q-3 -17 -17.5 -29t-31.5 -12h-241q-15 0 -24 9.5t-9 23.5v8l45 258q3 17 16.5 28t30.5 11h242q15 0 24.5 -9
t9.5 -24zM481 305v-6l-45 -258q-3 -17 -17.5 -29t-31.5 -12h-242q-15 0 -23.5 9.5t-8.5 23.5v8l45 258q3 17 16.5 28t30.5 11h241q15 0 25 -9t10 -24z" />
    <glyph glyph-name="perthousand" unicode="&#x2030;" horiz-adv-x="2441" 
d="M2460 573q0 -39 -9 -86l-26 -153q-33 -189 -123 -270.5t-244 -81.5q-119 0 -183.5 72.5t-64.5 193.5q0 40 9 86l26 153q34 193 122.5 272t242.5 79q118 0 184 -71t66 -194zM1737 573q0 -45 -8 -86l-27 -153q-33 -189 -123 -270.5t-244 -81.5q-119 0 -183.5 72.5
t-64.5 193.5q0 40 9 86l26 153q34 193 122.5 272t242.5 79q118 0 184 -71t66 -194zM1694 1509q0 -12 -13 -28l-1103 -1438q-15 -19 -20.5 -25t-15 -12t-20.5 -6h-211q-18 0 -18 16q0 14 10 27l1104 1438q20 24 31 32.5t28 8.5h211q17 0 17 -13zM901 1276q0 -45 -8 -86
l-27 -154q-33 -189 -123 -270.5t-243 -81.5q-119 0 -183.5 72.5t-64.5 193.5q0 45 8 86l27 154q34 193 122 271.5t242 78.5q118 0 184 -71t66 -193zM2253 569q0 51 -19 72t-55 21q-48 0 -79.5 -38.5t-49.5 -136.5l-27 -153q-8 -44 -8 -82q0 -51 19 -72.5t55 -21.5
q48 0 79.5 39t49.5 137l27 153q8 44 8 82zM1530 569q0 51 -19 72t-55 21q-48 0 -79.5 -38.5t-49.5 -136.5l-27 -153q-8 -44 -8 -82q0 -51 19 -72.5t55 -21.5q48 0 79.5 39t49.5 137l27 153q8 44 8 82zM694 1272q0 51 -18.5 71.5t-54.5 20.5q-48 0 -79.5 -38t-49.5 -136
l-27 -154q-8 -44 -8 -82q0 -51 18.5 -72.5t54.5 -21.5q48 0 79.5 39t49.5 137l27 154q8 44 8 82z" />
    <glyph glyph-name="guilsinglleft" unicode="&#x2039;" horiz-adv-x="845" 
d="M958 1024q0 -14 -12 -23l-459 -415l289 -416q4 -4 4 -14q0 -11 -9.5 -19t-22.5 -8h-224q-40 0 -57 25l-260 378q-21 30 -21 60q0 32 29 61l381 365q24 24 66 24h272q24 0 24 -18z" />
    <glyph glyph-name="guilsinglright" unicode="&#x203a;" horiz-adv-x="845" 
d="M877 580q0 -33 -29 -62l-381 -364q-25 -25 -66 -25h-272q-25 0 -25 18q0 13 13 23l458 416l-288 415q-4 4 -4 15t9.5 18.5t22.5 7.5h224q41 0 57 -24l260 -379q21 -30 21 -59z" />
    <glyph glyph-name="fraction" unicode="&#x2044;" horiz-adv-x="757" 
d="M1214 1509q0 -13 -12 -28l-1104 -1438q-27 -34 -37 -39q-8 -4 -18 -4h-211q-18 0 -18 16q0 14 10 27l1104 1438q20 24 31 32.5t28 8.5h211q16 0 16 -13z" />
    <glyph glyph-name="n.superior" unicode="&#x207f;" horiz-adv-x="710" 
d="M758 729q-2 -13 -11.5 -23t-25.5 -10h-135q-27 0 -23 33l66 371q4 18 4 45t-11 38t-38 11q-44 0 -119 -35l-76 -430q-4 -33 -35 -33h-135q-28 0 -24 33l104 592q4 29 35 29h127q28 0 24 -29l-2 -18q84 57 174 57q174 0 174 -176q0 -26 -8 -84z" />
    <glyph glyph-name="franc" unicode="&#x20a3;" horiz-adv-x="1189" 
d="M768 231h-242l-32 -190q-3 -17 -18 -29t-32 -12h-266q-18 0 -27 12.5t-6 28.5l33 190h-98q-17 0 -26.5 12t-6.5 29l35 195q3 17 16.5 29t30.5 12h98l105 592q17 95 46 167t71 119.5t89 78.5t110 47t122 22t137 6q46 0 87 -1t76 -3t60.5 -4t54.5 -5.5t42.5 -5.5t39.5 -5.5
t31 -4.5q20 -3 28 -11.5t7 -29.5l-35 -190q-7 -41 -47 -41h-415q-73 0 -108 -30.5t-48 -108.5l-33 -185h516q26 0 38 -10t9 -31l-32 -194q-4 -25 -16.5 -33t-33.5 -8h-530l-25 -131h244q17 0 27.5 -12t7.5 -29l-35 -195q-3 -17 -17.5 -29t-31.5 -12z" />
    <glyph glyph-name="lira" unicode="&#x20a4;" 
d="M1026 471h-348l-6 -41q-15 -85 -68 -156h561q15 0 24 -8t9 -20v-8l-35 -199q-3 -17 -16.5 -28t-30.5 -11h-905q-16 0 -24.5 11t-8.5 26q0 2 1 6t1 6l27 144q4 22 26 49q31 33 62 86.5t39 101.5l6 41h-102q-17 0 -26.5 11t-6.5 28l20 117q3 17 17 28t32 11h101l24 133
h-104q-17 0 -25.5 11t-5.5 28l21 116q3 17 16.5 28t30.5 11h102l15 84q25 139 68 228t117.5 141.5t173 73t247.5 20.5q159 0 329 -39q19 -4 27 -9t8 -13t-2 -19l-37 -203q-6 -40 -45 -36q-202 24 -334 24q-113 0 -155.5 -33.5t-59.5 -132.5l-16 -86h346q18 0 28 -11t7 -28
l-21 -116q-3 -17 -16.5 -28t-30.5 -11h-346l-24 -133h346q17 0 26.5 -11t6.5 -28l-21 -117q-3 -17 -15.5 -28t-29.5 -11z" />
    <glyph glyph-name="peseta" unicode="&#x20a7;" horiz-adv-x="3227" 
d="M1454 1124q0 -23 -4 -77l-2 -19q-55 -496 -698 -496q-29 0 -94 3.5t-72 3.5l-86 -498q-3 -17 -17.5 -29t-31.5 -12h-265q-15 0 -24.5 9t-9.5 24v6l243 1376q9 50 33 70t76 28q179 27 422 27q245 0 387.5 -102.5t142.5 -313.5zM1104 1085q0 87 -54.5 125.5t-172.5 38.5
q-93 0 -168 -6l-74 -418q46 -4 166 -4q276 0 299 207l2 19q2 14 2 38zM2130 1174h168q17 0 27.5 -12t7.5 -29l-31 -166q-3 -17 -16.5 -29t-30.5 -12h-168l-107 -596q-6 -38 -6 -58q0 -23 12.5 -31t45.5 -8h100q19 0 29.5 -8t7.5 -26l-29 -160q-7 -35 -45 -41
q-101 -16 -166 -16q-144 0 -217.5 57.5t-73.5 187.5q0 33 11 105l104 594l-160 26q-18 3 -27.5 14.5t-6.5 28.5l22 135q3 17 18.5 30.5t32.5 13.5h164l29 167q6 34 49 41l258 43q22 4 31 -5.5t6 -28.5zM3269 1143q36 -11 30 -47l-28 -166q-7 -46 -47 -39q-48 8 -156 17.5
t-180 9.5q-21 0 -29 -0.5t-26 -2t-26.5 -6t-19.5 -12t-15.5 -20.5t-4.5 -31q0 -34 49 -64l227 -145q162 -105 162 -254q0 -87 -27.5 -155.5t-74.5 -114t-112.5 -75.5t-137.5 -43t-154 -13q-209 0 -364 45q-37 11 -31 47l31 166q3 21 17.5 31.5t35.5 7.5q198 -29 344 -29
q32 0 51.5 2.5t41 11t32 28t10.5 50.5q0 43 -61 82l-240 154q-66 42 -99.5 107t-33.5 136q0 83 26.5 148t71 106t107 67.5t129.5 37t145 10.5q183 0 357 -47z" />
    <glyph glyph-name="Euro" unicode="&#x20ac;" 
d="M1454 1468v-10l-37 -198q-6 -41 -45 -41h-6q-5 0 -109.5 8t-171.5 8q-232 0 -307 -236h436q31 0 31 -24q0 -5 -4 -17l-41 -90q-18 -41 -49 -41h-412l-22 -127h375q11 0 18.5 -6.5t7.5 -15.5q0 -6 -2 -8l-53 -123q-6 -19 -33 -19h-336v-10v-20q0 -120 59.5 -165.5
t166.5 -45.5q67 0 172 8t112 8h6q15 0 25 -8t10 -23q0 -1 -1 -4.5t-1 -5.5l-37 -199q-4 -21 -16 -31t-37 -16q-109 -34 -291 -34q-82 0 -157 18.5t-142 59.5t-116 100t-78 145.5t-29 190.5v22v10h-84q-15 0 -24 9.5t-9 23.5v8l17 90q3 17 16.5 29t30.5 12h71l23 127h-72
q-15 0 -24 9.5t-9 23.5v8l17 90q3 17 16.5 29t30.5 12h76q28 124 83 220t123 155.5t154.5 98t170.5 53t177 14.5q183 0 291 -37q20 -7 29.5 -14t9.5 -21z" />
    <glyph glyph-name="afii61289" unicode="&#x2113;" horiz-adv-x="1105" 
d="M1044 129q5 -17 0.5 -28t-24.5 -23q-62 -40 -169 -74.5t-208 -34.5q-120 0 -191 58t-91 151.5t-1 218.5l17 107l-139 -86q-10 -8 -22.5 -7.5t-16.5 11.5l-35 74q-12 25 14 41l230 141l96 543q36 206 141 304.5t301 98.5q169 0 245.5 -66.5t76.5 -179.5
q0 -181 -133 -346.5t-398 -347.5l-49 -281q-17 -96 4 -136t82 -40q84 0 184 47q16 7 24 9t15 -2t11 -17zM1010 1475q-35 0 -61 -11.5t-43.5 -30.5t-31 -53t-22 -69.5t-18.5 -89.5l-64 -353q170 136 255 256t85 244q0 107 -100 107z" />
    <glyph glyph-name="trademark" unicode="&#x2122;" horiz-adv-x="1699" 
d="M1821 715q0 -9 -7 -15t-16 -6h-160q-9 0 -15.5 6t-6.5 15v495q0 86 -27.5 111t-115.5 25v-631q0 -9 -7 -15t-16 -6h-162q-20 0 -20 21v631q-47 0 -144 -9v-622q0 -21 -20 -21h-160q-9 0 -15.5 6t-6.5 15v727q0 38 12 52t45 17q197 19 389 19q96 0 159 -5.5t124 -24.5
t95 -53.5t54.5 -93t20.5 -143.5v-495zM856 1378q0 -12 -8 -19t-19 -7h-167v-631q0 -11 -8 -19t-19 -8h-158q-10 0 -18 8t-8 19v631h-172q-11 0 -19 7t-8 19v117q0 11 8 19t19 8h550q11 0 19 -8t8 -19v-117z" />
    <glyph glyph-name="Omega" unicode="&#x2126;" horiz-adv-x="1466" 
d="M985 1546q257 0 407 -124t150 -363q0 -76 -14 -150l-4 -24q-14 -77 -30.5 -134t-47.5 -118t-75.5 -105.5t-113 -85t-159.5 -69.5l-11 -56h228q22 0 32.5 -9t6.5 -32l-41 -233q-8 -43 -53 -43h-392q-43 0 -37 43l78 436q4 27 11 36t26 15q98 32 143.5 116.5t79.5 273.5
l5 24q8 58 8 86q0 203 -232 203q-274 0 -325 -289l-4 -24q-25 -150 -25 -207q0 -74 25.5 -117.5t83.5 -65.5q16 -6 20 -15.5t0 -35.5l-78 -436q-6 -43 -49 -43h-391q-49 0 -41 43l41 233q7 41 55 41h227l11 56q-139 49 -195.5 146.5t-56.5 232.5q0 89 20 202l4 25
q22 127 67 224t107 161.5t146.5 105.5t180 58.5t212.5 17.5z" />
    <glyph glyph-name="estimated" unicode="&#x212e;" horiz-adv-x="1241" 
d="M1325 578h-879v-396q135 -129 312 -129q67 0 124.5 14.5t99.5 36.5t81 58t66.5 70t58.5 81l63 -39q-34 -53 -67.5 -94t-78 -78.5t-94 -62t-114 -39t-139.5 -14.5q-163 0 -291 81.5t-196 216.5t-68 296q0 164 66.5 298t196.5 215t300 81q169 0 298 -82.5t195 -217
t66 -296.5zM1079 645v334q-59 54 -143.5 90.5t-169.5 36.5q-196 0 -320 -127v-334h633z" />
    </font>
</defs>
</svg>
