<?xml version="1.0" standalone="no"?>
<!DOCTYPE svg PUBLIC "-//W3C//DTD SVG 1.1//EN" "http://www.w3.org/Graphics/SVG/1.1/DTD/svg11.dtd" >
<svg xmlns="http://www.w3.org/2000/svg" xmlns:xlink="http://www.w3.org/1999/xlink" version="1.1">
<metadata>
Created by FontForge 20201107 at Tue Apr 30 14:31:09 2024
 By 
Copyright 2004 Monotype Imaging, Inc. All rights reserved.
</metadata>
<defs>
<font id="NeoSansPro-Ultra" horiz-adv-x="1372" >
  <font-face 
    font-family="Neo Sans Pro Ultra"
    font-weight="900"
    font-stretch="normal"
    units-per-em="2048"
    panose-1="2 11 11 4 3 5 4 4 2 4"
    ascent="1567"
    descent="-481"
    x-height="1208"
    cap-height="1522"
    bbox="-342 -444 3332 2124"
    underline-thickness="204"
    underline-position="-163"
    unicode-range="U+0020-FB04"
  />
<missing-glyph horiz-adv-x="1024" 
d="M25 0v1362h972v-1362h-972zM180 1266l332 -498l330 498h-662zM123 1178v-992q0 -1 82.5 123t164.5 249l83 124zM901 1178l-332 -496l332 -498v994zM842 98l-330 496l-332 -496h662z" />
    <glyph glyph-name="f_b" unicode="fb" horiz-adv-x="2168" 
d="M1642 524v160q0 168 -108 168q-12 0 -111 -6v-484q59 -6 111 -6q59 0 83.5 44t24.5 124zM1423 1552v-335q54 12 111 12q277 0 420 -146t143 -399v-160q0 -263 -151.5 -403.5t-411.5 -140.5q-222 0 -483 49q-49 10 -65.5 26t-16.5 45v1207h-205q-81 0 -101 -13t-20 -57
v-29h129q19 0 31 -12t12 -31v-247q0 -19 -12.5 -32.5t-30.5 -13.5h-129v-827q0 -19 -13 -32t-32 -13h-369q-19 0 -32 13t-13 32v827l-98 19q-20 3 -32.5 15t-12.5 30v229q0 19 13 31t32 12h98v29q0 119 29 198t90.5 123.5t142.5 62t199 17.5q212 0 393 -43h342q19 0 31 -12
t12 -31z" />
    <glyph glyph-name="f_f_b" unicode="ffb" horiz-adv-x="2953" 
d="M2427 524v160q0 168 -109 168q-11 0 -110 -6v-484q58 -6 110 -6q109 0 109 168zM969 872h-326v-827q0 -19 -13 -32t-32 -13h-369q-19 0 -32 13t-13 32v827l-98 19q-20 3 -32.5 15t-12.5 30v229q0 19 13 31t32 12h98v29q0 118 28 198t83.5 123.5t124.5 61.5t164 18
q80 0 188 -22q43 -7 43 -43v-223q0 -19 -12 -31t-31 -12h-70q-37 0 -48 -13.5t-11 -56.5v-29h326v29q0 119 29 198t90.5 123.5t142.5 62t199 17.5q212 0 393 -43h342q19 0 31 -12t12 -31v-335q54 12 110 12q277 0 420.5 -146t143.5 -399v-160q0 -263 -152 -403.5
t-412 -140.5q-222 0 -483 49q-49 10 -65.5 26t-16.5 45v1207h-205q-81 0 -101 -13t-20 -57v-29h129q19 0 31 -12t12 -31v-247q0 -19 -12.5 -32.5t-30.5 -13.5h-129v-827q0 -19 -13 -32t-32 -13h-368q-19 0 -32 13t-13 32v827z" />
    <glyph glyph-name="f_f_h" unicode="ffh" horiz-adv-x="2985" 
d="M969 872h-326v-827q0 -19 -13 -32t-32 -13h-369q-19 0 -32 13t-13 32v827l-98 19q-20 3 -32.5 15t-12.5 30v229q0 19 13 31t32 12h98v29q0 118 28 198t83.5 123.5t124.5 61.5t164 18q80 0 188 -22q43 -7 43 -43v-223q0 -19 -12 -31t-31 -12h-70q-37 0 -48 -13.5
t-11 -56.5v-29h326v29q0 119 29 198t90.5 123.5t142.5 62t199 17.5q212 0 393 -43h342q19 0 31 -12t12 -31v-409q67 48 138.5 67t162.5 19q88 0 154.5 -25.5t108 -67.5t67 -104.5t35.5 -129t10 -148.5v-709q0 -19 -12 -32t-31 -13h-369q-19 0 -32 13t-13 32v709
q0 51 -29.5 75.5t-75.5 24.5q-55 0 -112 -31v-778q0 -19 -11.5 -32t-29.5 -13h-369q-19 0 -33 13t-14 32v1262h-205q-81 0 -101 -13t-20 -57v-29h129q19 0 31 -12t12 -31v-247q0 -19 -12.5 -32.5t-30.5 -13.5h-129v-827q0 -19 -13 -32t-32 -13h-368q-19 0 -32 13t-13 32v827
z" />
    <glyph glyph-name="f_f_j" unicode="ffj" horiz-adv-x="2406" 
d="M2300 -23q0 -115 -27 -196t-78.5 -126t-115.5 -65t-148 -20q-90 0 -219 22q-19 3 -31 15.5t-12 30.5v221q0 19 12 31t31 12h86q27 0 35 19t8 56v895h-332v-827q0 -19 -13 -32t-32 -13h-368q-19 0 -32 13t-13 32v827h-408v-827q0 -19 -13 -32t-32 -13h-369q-19 0 -32 13
t-13 32v827l-98 19q-20 3 -32.5 15t-12.5 30v229q0 19 13 31t32 12h98v29q0 118 28 198t83.5 123.5t124.5 61.5t164 18q80 0 188 -22q43 -7 43 -43v-223q0 -19 -12 -31t-31 -12h-70q-37 0 -48 -13.5t-11 -56.5v-29h408v29q0 95 19 165.5t52.5 115t85 72t109.5 38t133 10.5
q80 0 188 -22q43 -7 43 -43v-223q0 -19 -12 -31t-31 -12h-69q-37 0 -48.5 -13.5t-11.5 -56.5v-29h746q19 0 32 -12t13 -31v-1188zM2310 1343q0 -18 -14 -30.5t-33 -12.5h-387q-19 0 -33 12.5t-14 30.5v209q0 18 14 30.5t33 12.5h387q19 0 33 -12.5t14 -30.5v-209z" />
    <glyph glyph-name="f_f_k" unicode="ffk" horiz-adv-x="3020" 
d="M969 45v827h-326v-827q0 -19 -13 -32t-32 -13h-369q-19 0 -32 13t-13 32v827l-98 19q-20 3 -32.5 15t-12.5 30v229q0 19 13 31t32 12h98v29q0 118 28 198t83.5 123.5t124.5 61.5t164 18q80 0 188 -22q43 -7 43 -43v-223q0 -19 -12 -31t-31 -12h-70q-37 0 -48 -13.5
t-11 -56.5v-29h326v29q0 119 29 198t90.5 123.5t142.5 62t199 17.5q212 0 393 -43h344q19 0 30 -12t11 -31v-856l246 469q14 28 28 35.5t37 7.5h408q32 0 32 -28q0 -11 -6 -23l-321 -532l336 -576q4 -6 4 -20q0 -29 -27 -29h-442q-22 0 -37 8.5t-29 36.5l-229 469v-469
q0 -19 -11.5 -32t-29.5 -13h-367q-19 0 -33 13t-14 32v1262h-205q-81 0 -101 -13t-20 -57v-29h129q19 0 31 -12t12 -31v-247q0 -19 -12.5 -32.5t-30.5 -13.5h-129v-827q0 -19 -13 -32t-32 -13h-368q-19 0 -32 13t-13 32z" />
    <glyph glyph-name="f_h" unicode="fh" horiz-adv-x="2201" 
d="M1423 1552v-409q67 48 138.5 67t162.5 19q88 0 154.5 -25.5t108 -67.5t67 -104.5t35.5 -129t10 -148.5v-709q0 -19 -12 -32t-31 -13h-368q-19 0 -32.5 13t-13.5 32v709q0 51 -29 75.5t-75 24.5q-56 0 -113 -31v-778q0 -19 -11.5 -32t-29.5 -13h-368q-19 0 -33 13t-14 32
v1262h-205q-81 0 -101 -13t-20 -57v-29h129q19 0 31 -12t12 -31v-247q0 -19 -12.5 -32.5t-30.5 -13.5h-129v-827q0 -19 -13 -32t-32 -13h-369q-19 0 -32 13t-13 32v827l-98 19q-20 3 -32.5 15t-12.5 30v229q0 19 13 31t32 12h98v29q0 119 29 198t90.5 123.5t142.5 62
t199 17.5q212 0 393 -43h342q19 0 31 -12t12 -31z" />
    <glyph glyph-name="f_j" unicode="fj" horiz-adv-x="1540" 
d="M1434 -23q0 -115 -27 -196t-78.5 -126t-115.5 -65t-148 -20q-90 0 -219 22q-19 3 -31 15.5t-12 30.5v221q0 19 12 31t31 12h86q27 0 35 19t8 56v895h-332v-827q0 -19 -13 -32t-32 -13h-369q-19 0 -32 13t-13 32v827l-98 19q-20 3 -32.5 15t-12.5 30v229q0 19 13 31t32 12
h98v29q0 118 28 198t83.5 123.5t124.5 61.5t164 18q80 0 188 -22q43 -7 43 -43v-223q0 -19 -12 -31t-31 -12h-70q-37 0 -48 -13.5t-11 -56.5v-29h746q19 0 32 -12t13 -31v-1188zM1444 1343q0 -18 -14 -30.5t-33 -12.5h-387q-19 0 -33 12.5t-14 30.5v209q0 18 14 30.5
t33 12.5h387q19 0 33 -12.5t14 -30.5v-209z" />
    <glyph glyph-name="f_k" unicode="fk" horiz-adv-x="2236" 
d="M1038 1595h344q19 0 30 -12t11 -31v-856l246 469q14 28 28.5 35.5t37.5 7.5h407q33 0 33 -28q0 -11 -6 -23l-322 -532l336 -576q4 -6 4 -20q0 -29 -26 -29h-443q-22 0 -36.5 8.5t-28.5 36.5l-230 469v-469q0 -19 -11.5 -32t-29.5 -13h-366q-19 0 -33 13t-14 32v1262h-205
q-81 0 -101 -13t-20 -57v-29h129q19 0 31 -12t12 -31v-247q0 -19 -12.5 -32.5t-30.5 -13.5h-129v-827q0 -19 -13 -32t-32 -13h-369q-19 0 -32 13t-13 32v827l-98 19q-20 3 -32.5 15t-12.5 30v229q0 19 13 31t32 12h98v29q0 119 29 198t90.5 123.5t142.5 62t199 17.5
q212 0 393 -43z" />
    <glyph glyph-name="f_f" unicode="ff" horiz-adv-x="1640" 
d="M1599 918q0 -19 -12.5 -32.5t-30.5 -13.5h-129v-827q0 -19 -13 -32t-32 -13h-368q-19 0 -32 13t-13 32v827h-326v-827q0 -19 -13 -32t-32 -13h-369q-19 0 -32 13t-13 32v827l-98 19q-20 3 -32.5 15t-12.5 30v229q0 19 13 31t32 12h98v29q0 118 28 198t83.5 123.5
t124.5 61.5t164 18q80 0 188 -22q43 -7 43 -43v-223q0 -19 -12 -31t-31 -12h-70q-37 0 -48 -13.5t-11 -56.5v-29h326v29q0 95 19 165.5t52.5 115t85 72t109.5 38t133 10.5q80 0 188 -22q43 -7 43 -43v-223q0 -19 -12 -31t-31 -12h-69q-37 0 -48.5 -13.5t-11.5 -56.5v-29h129
q19 0 31 -12t12 -31v-247z" />
    <glyph glyph-name="fi" unicode="fi" horiz-adv-x="1542" 
d="M1427 45q0 -19 -13 -32t-32 -13h-366q-19 0 -33 13t-14 32v827h-326v-827q0 -19 -13 -32t-32 -13h-369q-19 0 -32 13t-13 32v827l-98 19q-20 3 -32.5 15t-12.5 30v229q0 19 13 31t32 12h98v29q0 118 28 198t83.5 123.5t124.5 61.5t164 18q80 0 188 -22q43 -7 43 -43v-223
q0 -19 -12 -31t-31 -12h-70q-37 0 -48 -13.5t-11 -56.5v-29h739q19 0 32 -12t13 -31v-1120zM1440 1343q0 -18 -14 -30.5t-33 -12.5h-387q-19 0 -33.5 12.5t-14.5 30.5v209q0 18 14.5 30.5t33.5 12.5h387q19 0 33 -12.5t14 -30.5v-209z" />
    <glyph glyph-name="fl" unicode="fl" horiz-adv-x="1529" 
d="M815 907q0 -19 -12 -32t-31 -13h-129v-817q0 -19 -13 -32t-32 -13h-369q-19 0 -32 13t-13 32v817l-98 19q-20 3 -32.5 15t-12.5 30v229q0 19 13 31t32 12h98v39q0 119 29 198t90.5 123.5t142.5 62t199 17.5q212 0 393 -43h346q19 0 31 -12t12 -31v-1507q0 -19 -12 -32
t-31 -13h-368q-19 0 -33 13t-14 32v1262h-205q-81 0 -101 -13t-20 -57v-39h129q19 0 31 -12t12 -31v-248z" />
    <glyph glyph-name="f_f_i" unicode="ffi" horiz-adv-x="2269" 
d="M2218 45q0 -19 -13 -32t-32 -13h-367q-19 0 -33 13t-14 32v827h-332v-827q0 -19 -13 -32t-32 -13h-368q-19 0 -32 13t-13 32v827h-326v-827q0 -19 -13 -32t-32 -13h-369q-19 0 -32 13t-13 32v827l-98 19q-20 3 -32.5 15t-12.5 30v229q0 19 13 31t32 12h98v29
q0 118 28 198t83.5 123.5t124.5 61.5t164 18q80 0 188 -22q43 -7 43 -43v-223q0 -19 -12 -31t-31 -12h-70q-37 0 -48 -13.5t-11 -56.5v-29h326v29q0 95 19 165.5t52.5 115t85 72t109.5 38t133 10.5q80 0 188 -22q43 -7 43 -43v-223q0 -19 -12 -31t-31 -12h-69
q-37 0 -48.5 -13.5t-11.5 -56.5v-29h746q19 0 32 -12t13 -31v-1120zM2228 1343q0 -18 -14 -30.5t-33 -12.5h-387q-19 0 -33 12.5t-14 30.5v209q0 18 14 30.5t33 12.5h387q19 0 33 -12.5t14 -30.5v-209z" />
    <glyph glyph-name="f_f_l" unicode="ffl" horiz-adv-x="2314" 
d="M1599 918q0 -19 -12.5 -32.5t-30.5 -13.5h-129v-827q0 -19 -13 -32t-32 -13h-368q-19 0 -32 13t-13 32v827h-326v-827q0 -19 -13 -32t-32 -13h-369q-19 0 -32 13t-13 32v827l-98 19q-20 3 -32.5 15t-12.5 30v229q0 19 13 31t32 12h98v29q0 118 28 198t83.5 123.5
t124.5 61.5t164 18q80 0 188 -22q43 -7 43 -43v-223q0 -19 -12 -31t-31 -12h-70q-37 0 -48 -13.5t-11 -56.5v-29h326v29q0 119 29 198t90.5 123.5t142.5 62t199 17.5q212 0 393 -43h346q19 0 31 -12t12 -31v-1507q0 -19 -12 -32t-31 -13h-369q-19 0 -33 13t-14 32v1262h-205
q-81 0 -101 -13t-20 -57v-29h129q19 0 31 -12t12 -31v-247z" />
    <glyph glyph-name=".notdef" horiz-adv-x="1024" 
d="M25 0v1362h972v-1362h-972zM180 1266l332 -498l330 498h-662zM123 1178v-992q0 -1 82.5 123t164.5 249l83 124zM901 1178l-332 -496l332 -498v994zM842 98l-330 496l-332 -496h662z" />
    <glyph glyph-name=".null" horiz-adv-x="0" 
 />
    <glyph glyph-name="nonmarkingreturn" horiz-adv-x="682" 
 />
    <glyph glyph-name="space" unicode=" " horiz-adv-x="495" 
 />
    <glyph glyph-name="exclam" unicode="!" horiz-adv-x="632" 
d="M551 1554v-2l-62 -987q-4 -45 -40 -45h-261q-18 0 -30.5 13t-14.5 32l-61 987v2q0 17 13.5 29t31.5 12h383q17 0 29 -12t12 -29zM537 41q0 -17 -12 -29t-29 -12h-359q-17 0 -29 12t-12 29v311q0 17 12 29t29 12h359q17 0 29 -12t12 -29v-311z" />
    <glyph glyph-name="quotedbl" unicode="&#x22;" horiz-adv-x="1017" 
d="M1073 1573q0 -5 -4 -17l-180 -495q-8 -21 -16.5 -30t-22.5 -9h-297q-18 0 -18 20q0 13 2 19l125 495q11 39 40 39h347q24 0 24 -22zM547 1573q0 -5 -4 -17l-181 -495q-8 -22 -16 -30.5t-22 -8.5h-297q-19 0 -19 20q0 13 2 19l125 495q11 39 41 39h346q25 0 25 -22z" />
    <glyph glyph-name="numbersign" unicode="#" horiz-adv-x="1464" 
d="M1409 1135v-5l-23 -206q-1 -15 -13 -24t-27 -9h-148l-24 -264h149q14 0 25.5 -9t11.5 -22v-4l-23 -207q-1 -15 -13 -24t-28 -9h-147l-27 -313q-2 -16 -11.5 -27.5t-25.5 -11.5h-305q-14 0 -23 10.5t-9 24.5v4l26 313h-164l-26 -313q-2 -16 -12.5 -27.5t-24.5 -11.5h-307
q-13 0 -23 10.5t-10 24.5v4l26 313h-141q-14 0 -25.5 8t-11.5 21v4l23 207q1 15 13.5 25t27.5 10h139l25 264h-142q-14 0 -25.5 8t-11.5 21v4l23 206q1 15 13.5 25t27.5 10h137l29 318q2 15 13 27t26 12h307q13 0 22 -10.5t9 -24.5v-4l-29 -318h164l28 318q2 16 12.5 27.5
t26.5 11.5h306q14 0 22 -10t8 -25v-4l-28 -318h151q14 0 25.5 -8.5t11.5 -21.5zM823 891h-164l-24 -264h164z" />
    <glyph glyph-name="dollar" unicode="$" 
d="M1253 469q0 -78 -23.5 -150t-71 -136.5t-128.5 -113t-186 -71.5v-207q0 -17 -12 -29t-29 -12h-303q-17 0 -29 12t-12 29v199q-108 11 -246 51q-43 11 -43 41v305q0 15 12 28t27 13h4q301 -35 440 -35q76 0 76 64q0 16 -11.5 30t-45.5 33l-307 178q-94 54 -150 125.5
t-76 143t-20 159.5q0 329 340 398v186q0 17 12 29t29 12h303q17 0 29 -12t12 -29v-176q209 -16 321 -49q41 -11 41 -41v-305q0 -17 -11 -29t-26 -12h-4q-327 30 -497 30q-43 0 -43 -32q0 -15 13.5 -28.5t61.5 -37.5l291 -153q136 -72 199 -173t63 -235z" />
    <glyph glyph-name="percent" unicode="%" horiz-adv-x="1835" 
d="M1763 356q0 -368 -323 -368q-324 0 -324 368v123q0 185 82.5 277t241.5 92q323 0 323 -369v-123zM1530 1499q0 -11 -6 -20l-848 -1434q-11 -19 -16 -26.5t-14 -13t-21 -5.5h-291q-12 0 -19.5 8t-7.5 19q0 12 4 18l848 1434q14 24 25.5 33.5t29.5 9.5h291q11 0 18 -7
t7 -16zM719 1040q0 -368 -324 -368q-323 0 -323 368v123q0 369 323 369q159 0 241.5 -92t82.5 -277v-123zM1495 356v123q0 60 -7 92t-17.5 41t-30.5 9q-30 0 -44 -27.5t-14 -114.5v-123q0 -87 14 -115t44 -28q29 0 42 27.5t13 115.5zM451 1040v123q0 60 -7 92t-18 41t-31 9
q-30 0 -43.5 -27.5t-13.5 -114.5v-123q0 -87 13.5 -115t43.5 -28q20 0 31 9t18 41.5t7 92.5z" />
    <glyph glyph-name="ampersand" unicode="&#x26;" horiz-adv-x="1558" 
d="M1577 31q0 -13 -9.5 -22t-21.5 -9h-413q-19 0 -37 18l-35 35q-155 -73 -363 -73q-145 0 -255.5 22t-193.5 69.5t-126 129.5t-43 196v37q0 130 67 221.5t189 167.5l-19 23q-91 110 -124 170t-33 129v16q0 79 27 144.5t85.5 120t163 85.5t246.5 31q275 0 398.5 -99.5
t123.5 -285.5v-16q0 -113 -49 -188t-158 -150l-88 -62l166 -172q15 61 15 138v26q0 17 11.5 29t28.5 12h275q17 0 29 -12t12 -29v-26q0 -229 -111 -408l228 -240q14 -14 14 -28zM776 1141v16q0 34 -23 57t-71 23q-94 0 -94 -80v-16q0 -36 11.5 -62.5t41.5 -56.5l12 -12
l41 26q51 34 66.5 54.5t15.5 50.5zM819 309l-223 238q-53 -37 -53 -123v-16q0 -51 37 -83t118 -32q62 0 121 16z" />
    <glyph glyph-name="quotesingle" unicode="'" horiz-adv-x="491" 
d="M547 1573q0 -5 -4 -17l-181 -495q-8 -22 -16 -30.5t-22 -8.5h-297q-19 0 -19 20q0 13 2 19l125 495q11 39 41 39h346q25 0 25 -22z" />
    <glyph glyph-name="parenleft" unicode="(" horiz-adv-x="823" 
d="M772 -379q0 -20 -24 -20h-328q-51 0 -70 28q-135 190 -201.5 406.5t-66.5 505.5v39q0 289 66.5 506t201.5 407q20 29 70 29h328q24 0 24 -21q0 -16 -10 -33q-221 -409 -221 -888v-39q0 -478 221 -887q10 -17 10 -33z" />
    <glyph glyph-name="parenright" unicode=")" horiz-adv-x="823" 
d="M741 541q0 -289 -66.5 -505.5t-201.5 -406.5q-19 -28 -70 -28h-327q-25 0 -25 20q0 16 10 33q222 411 222 887v39q0 477 -222 888q-10 17 -10 33q0 21 25 21h327q50 0 70 -29q135 -190 201.5 -407t66.5 -506v-39z" />
    <glyph glyph-name="asterisk" unicode="*" horiz-adv-x="983" 
d="M944 1124q0 -23 -33 -34l-219 -62l139 -184q13 -16 13 -31q0 -18 -15 -27l-153 -110q-9 -6 -21 -6q-21 0 -34 20l-129 193l-130 -193q-13 -20 -34 -20q-12 0 -21 6l-153 110q-15 9 -15 27q0 15 13 31l139 184l-217 62q-35 10 -35 36q0 7 2 11l59 182q8 22 31 22
q5 0 21 -4l217 -75l-7 227v2q0 43 33 43h193q33 0 33 -43v-2l-5 -227l215 75q16 4 21 4q23 0 31 -22l59 -182q2 -4 2 -13z" />
    <glyph glyph-name="plus" unicode="+" 
d="M1184 668q0 -33 -41 -33h-291v-289q0 -41 -33 -41h-266q-33 0 -33 41v289h-289q-41 0 -41 33v266q0 33 41 33h289v290q0 41 33 41h266q33 0 33 -41v-290h291q41 0 41 -33v-266z" />
    <glyph glyph-name="comma" unicode="," horiz-adv-x="606" 
d="M543 365q0 -9 -2 -13l-230 -516q-16 -41 -41 -41h-260q-16 0 -28.5 10t-12.5 25v6l144 516q11 41 43 41h354q13 0 23 -8.5t10 -19.5z" />
    <glyph glyph-name="hyphen" unicode="-" horiz-adv-x="536" 
d="M506 487q0 -17 -12 -29t-29 -12h-393q-17 0 -29 12t-12 29v242q0 17 12 29t29 12h393q17 0 29 -12t12 -29v-242z" />
    <glyph glyph-name="period" unicode="." horiz-adv-x="606" 
d="M524 41q0 -17 -13 -29t-30 -12h-356q-17 0 -30 12t-13 29v311q0 17 13 29t30 12h356q17 0 30 -12t13 -29v-311z" />
    <glyph glyph-name="slash" unicode="/" horiz-adv-x="911" 
d="M891 1487q0 -2 -1 -4.5t-1 -3.5l-410 -1434q-12 -45 -43 -45h-368q-18 0 -33 12t-15 27v6l410 1434q11 43 47 43h369q17 0 31 -11t14 -24z" />
    <glyph glyph-name="zero" unicode="0" 
d="M1274 649q0 -669 -588 -669t-588 669v223q0 337 149.5 503.5t438.5 166.5t438.5 -166.5t149.5 -503.5v-223zM788 649v223q0 109 -14 167.5t-34 74.5t-54 16t-54 -16t-34 -74.5t-14 -167.5v-223q0 -109 14 -167.5t34 -74.5t54 -16t54 16t34 74.5t14 167.5z" />
    <glyph glyph-name="one" unicode="1" 
d="M217 408h248v636l-246 -79q-17 -7 -24 -7q-21 0 -21 25v346q0 29 29 41l370 141q29 11 45 11h287q17 0 29 -12t12 -29v-1073h248q17 0 30 -12t13 -29v-326q0 -17 -13 -29t-30 -12h-977q-17 0 -30 12t-13 29v326q0 17 13 29t30 12z" />
    <glyph glyph-name="two" unicode="2" 
d="M1239 1122q0 -80 -27.5 -150t-79.5 -127.5t-109.5 -102t-133.5 -89.5q-69 -41 -106.5 -64t-84 -56t-73.5 -63t-41 -62h587q17 0 30 -12t13 -29v-326q0 -17 -13 -29t-30 -12h-995q-17 0 -30 12t-13 29v225q0 93 21 174.5t53.5 142t84 118t101 97.5t115.5 85
q37 25 75.5 50.5t59.5 39t43.5 28t32.5 23t19.5 17.5t12.5 17.5t5 17.5t2 22q0 23 -9.5 34.5t-47 19t-113.5 7.5q-141 0 -395 -20h-3q-17 0 -27.5 11.5t-10.5 29.5v235q0 25 41 41q226 86 485 86q302 0 431.5 -103t129.5 -317z" />
    <glyph glyph-name="three" unicode="3" 
d="M1237 432q0 -239 -143.5 -345.5t-429.5 -106.5q-126 0 -271 26t-213 57q-2 1 -8.5 4t-9 4.5l-7.5 4.5t-7.5 5.5t-5.5 6t-4 7.5t-1 9v238q0 17 12 29t29 12h2q286 -21 443 -21q147 0 147 115q0 50 -29 82.5t-92 32.5h-354q-17 0 -29 12t-12 29v264q0 17 12 29t29 12h330
q71 0 107 33.5t36 83.5q0 104 -145 104q-62 0 -135 -3t-177 -9.5t-116 -7.5h-2q-17 0 -29 12t-12 29v237q0 5 1 9t4 7.5t5.5 6t7.5 5.5l7.5 4.5t9 4.5t8.5 4q70 32 207 58t262 26q143 0 246 -21.5t178 -71t112 -134t37 -205.5q0 -84 -27 -150.5t-65.5 -107.5t-97.5 -80
q190 -94 190 -340z" />
    <glyph glyph-name="four" unicode="4" 
d="M1294 332q0 -17 -12 -29t-29 -12h-102v-250q0 -17 -12 -29t-29 -12h-399q-17 0 -29 12t-12 29v250h-549q-17 0 -29 12t-12 29v266q0 31 20 57l680 856q11 11 27 11h18h285q17 0 29 -12t12 -29v-828h102q17 0 29 -12t12 -29v-280zM692 653v332l-262 -332h262z" />
    <glyph glyph-name="five" unicode="5" 
d="M1227 481q0 -104 -29.5 -187.5t-82.5 -142t-129 -97t-167.5 -56.5t-200.5 -18q-232 0 -425 75q-43 17 -43 41v246q0 17 11.5 29t26.5 12h5q46 -5 170 -13t147 -8q98 0 146.5 13t62.5 36t14 70v25q0 53 -29 78.5t-116 25.5h-398q-17 0 -30 12t-13 27v2l64 830
q2 18 13 29.5t28 11.5h899q17 0 29 -12t12 -29v-301q0 -17 -12 -29t-29 -12h-557l-14 -166h108q128 0 224 -24t155.5 -65t96 -102t50 -127t13.5 -149v-25z" />
    <glyph glyph-name="six" unicode="6" 
d="M1257 520q0 -253 -144.5 -396.5t-424.5 -143.5q-281 0 -427 142.5t-146 397.5v467q0 117 32 211.5t86 157.5t128 105.5t155.5 61.5t171.5 19q248 0 455 -63q27 -8 35 -21t8 -33v-254q0 -41 -37 -41h-10q-232 29 -361 29q-54 0 -86.5 -6t-57.5 -24t-35.5 -52t-10.5 -90
v-10q94 14 151 14q518 0 518 -459v-12zM786 520v12q0 83 -23.5 113.5t-74.5 30.5q-40 0 -100 -6v-150q0 -105 26 -145.5t74 -40.5q47 0 72.5 41.5t25.5 144.5z" />
    <glyph glyph-name="seven" unicode="7" 
d="M1229 1253q0 -40 -25 -90l-551 -1122l-3.5 -7t-3.5 -6.5t-3 -6t-3.5 -6t-4 -5t-5 -4.5t-5.5 -3t-6 -2.5t-7 -0.5h-436q-33 0 -33 20q0 7 7 21l552 1098h-512q-17 0 -30 12t-13 29v301q0 17 13 29t30 12h998q17 0 29 -12t12 -29v-228z" />
    <glyph glyph-name="eight" unicode="8" 
d="M1280 430q0 -75 -20.5 -140.5t-66 -123t-112.5 -98.5t-165 -64.5t-218 -23.5h-24q-120 0 -218 23.5t-165 64.5t-112.5 98.5t-66 123t-20.5 140.5v41q0 96 41 177t113 138q-144 110 -144 281v53q0 95 32 170.5t99 133t178.5 88t262.5 30.5h24q151 0 262.5 -30.5t178.5 -88
t99 -133t32 -170.5v-53q0 -171 -144 -281q72 -57 113 -138t41 -177v-41zM811 1053v16q0 49 -26.5 86t-86.5 37h-24q-60 0 -86.5 -37t-26.5 -86v-16q0 -56 32 -84.5t81 -28.5h24q49 0 81 28.5t32 84.5zM813 459v22q0 140 -115 140h-24q-115 0 -115 -140v-22q0 -60 30.5 -95.5
t84.5 -35.5h24q54 0 84.5 35.5t30.5 95.5z" />
    <glyph glyph-name="nine" unicode="9" 
d="M1245 535q0 -117 -32 -211.5t-86 -157.5t-128 -105.5t-155.5 -61.5t-171.5 -19q-248 0 -455 63q-27 8 -35 20.5t-8 32.5v254q0 41 37 41h10q232 -29 361 -29q107 0 148.5 33t41.5 140v10q-101 -15 -151 -15q-519 0 -519 459v12q0 253 145 397t425 144q281 0 427 -143
t146 -398v-466zM772 852v149q0 105 -26 146t-74 41q-47 0 -73 -42t-26 -145v-12q0 -83 24 -113t75 -30q40 0 100 6z" />
    <glyph glyph-name="colon" unicode=":" horiz-adv-x="606" 
d="M524 776q0 -17 -13 -29t-30 -12h-356q-17 0 -30 12t-13 29v311q0 17 13 29t30 12h356q17 0 30 -12t13 -29v-311zM524 41q0 -17 -13 -29t-30 -12h-356q-17 0 -30 12t-13 29v311q0 17 13 29t30 12h356q17 0 30 -12t13 -29v-311z" />
    <glyph glyph-name="semicolon" unicode=";" horiz-adv-x="606" 
d="M530 776q0 -17 -13 -29t-30 -12h-356q-17 0 -30 12t-13 29v311q0 17 13 29t30 12h356q17 0 30 -12t13 -29v-311zM131 393h354q19 0 29 -10.5t2 -30.5l-229 -516q-16 -41 -41 -41h-260q-20 0 -33 10t-8 31l143 516q11 41 43 41z" />
    <glyph glyph-name="less" unicode="&#x3c;" 
d="M1188 297q0 -9 -8 -16t-19 -7h-403q-34 0 -58 21l-483 446q-31 31 -31 60q0 28 31 59l483 447q23 20 58 20h403q11 0 19 -6.5t8 -15.5q0 -14 -14 -25l-525 -479l525 -479q14 -11 14 -25z" />
    <glyph glyph-name="equal" unicode="=" 
d="M1184 958q0 -32 -41 -32h-912q-41 0 -41 32v267q0 32 41 32h912q41 0 41 -32v-267zM1184 377q0 -33 -41 -33h-912q-41 0 -41 33v266q0 33 41 33h912q41 0 41 -33v-266z" />
    <glyph glyph-name="greater" unicode="&#x3e;" 
d="M1186 801q0 -29 -31 -60l-483 -446q-24 -21 -58 -21h-403q-11 0 -19 7t-8 16q0 13 15 25l524 479l-524 479q-15 12 -15 25q0 9 8 15.5t19 6.5h403q35 0 58 -20l483 -447q31 -31 31 -59z" />
    <glyph glyph-name="question" unicode="?" horiz-adv-x="1024" 
d="M963 1237q0 -60 -15 -112t-32 -82.5t-50 -79.5l-270 -404q-28 -41 -66 -41h-274q-17 0 -29 12t-12 29v84q0 99 15.5 148t70.5 143l98 168q27 50 27 72q0 26 -37 26q-61 0 -287 -22q-41 -5 -41 41v294q0 25 41 41q154 60 353 60q262 0 385 -85.5t123 -291.5zM635 41
q0 -17 -13 -29t-30 -12h-356q-17 0 -30 12t-13 29v311q0 17 13 29t30 12h356q17 0 30 -12t13 -29v-311z" />
    <glyph glyph-name="at" unicode="@" horiz-adv-x="1622" 
d="M1561 727q0 -136 -40.5 -245.5t-111.5 -184t-170.5 -125t-215 -73.5t-247.5 -23q-80 0 -147.5 17.5t-121 54t-84 97.5t-30.5 142q0 6 1 17.5t1 17.5l19 235q6 80 31.5 143t65 104t94 68t116 38.5t133.5 11.5q134 0 283 -33q33 -7 49 -23.5t12 -52.5l-55 -587
q91 22 152 135t61 266q0 73 -14 137.5t-48 125t-86.5 104t-135 70t-187.5 26.5q-270 0 -412.5 -118.5t-167.5 -369.5l-33 -346q-4 -46 -4 -63q0 -85 25 -150.5t69 -108t109 -69.5t139 -38t166 -11q141 0 322 16h2q16 0 16 -24v-101q0 -19 -16 -22q-52 -10 -149.5 -19.5
t-174.5 -9.5q-118 0 -221.5 18t-195 59t-156.5 102t-102.5 152.5t-37.5 205.5q0 19 5 82l32 342q31 315 233 483t552 168q138 0 252 -35t191.5 -95.5t131 -142.5t77.5 -174.5t24 -193.5zM877 764q-38 6 -60 6q-53 0 -72 -22.5t-26 -100.5l-23 -221q-2 -12 -2 -39
q0 -40 20.5 -51.5t61.5 -11.5q25 0 62 2z" />
    <glyph glyph-name="A" unicode="A" horiz-adv-x="1466" 
d="M1395 0h-426q-17 0 -28.5 11.5t-14.5 29.5l-37 229h-311l-37 -229q-3 -18 -14.5 -29.5t-28.5 -11.5h-426q-38 0 -31 41l244 1237q15 77 51 129t95 81.5t131 41.5t171 12t171 -12t131 -41.5t95.5 -81.5t51.5 -129l243 -1237q7 -41 -30 -41zM827 647l-75 477q-3 27 -19 27
q-15 0 -18 -27l-76 -477h188z" />
    <glyph glyph-name="B" unicode="B" horiz-adv-x="1441" 
d="M1360 467q0 -90 -23 -163t-61 -123t-94.5 -87t-114.5 -58.5t-131 -34.5t-134.5 -17t-133.5 -4q-276 0 -412 24q-85 15 -114 50t-29 128v1159q0 94 29 128.5t114 48.5q68 11 203 17.5t209 6.5q133 0 233.5 -12t188 -42.5t143.5 -80.5t87.5 -128.5t31.5 -184.5v-33
q0 -91 -40.5 -165.5t-101.5 -115.5q61 -42 105.5 -124t44.5 -167v-22zM889 1022v33q0 42 -32 70t-105 28h-168v-229h168q137 0 137 98zM895 485v13q0 112 -143 112h-168v-241h168q76 0 109.5 33t33.5 83z" />
    <glyph glyph-name="C" unicode="C" horiz-adv-x="1122" 
d="M1051 63q0 -20 -8 -28t-35 -17q-109 -38 -269 -38q-329 0 -493 178t-164 520v166q0 343 163.5 520.5t493.5 177.5q158 0 269 -39q27 -9 35 -17t8 -28v-323q0 -23 -9 -31.5t-32 -5.5q-5 0 -53 5.5t-91.5 9t-81.5 3.5q-53 0 -88 -9.5t-65.5 -37.5t-45 -83.5t-14.5 -141.5
v-166q0 -72 10.5 -122.5t27.5 -79.5t46.5 -45t58 -20.5t72.5 -4.5q62 0 224 18q23 3 32 -4.5t9 -32.5v-324z" />
    <glyph glyph-name="D" unicode="D" horiz-adv-x="1445" 
d="M1364 668q0 -179 -48.5 -312.5t-139 -215t-213 -121t-277.5 -39.5q-292 0 -502 38q-38 6 -54.5 25t-16.5 63v1309q0 44 16.5 63t54.5 25q215 39 502 39q155 0 277.5 -39.5t213 -121t139 -215t48.5 -312.5v-186zM874 668v186q0 161 -40 217.5t-148 56.5h-90v-735h90
q108 0 148 57t40 218z" />
    <glyph glyph-name="E" unicode="E" horiz-adv-x="1218" 
d="M1106 43q0 -17 -11.5 -28t-29.5 -13q-185 -22 -412 -22q-61 0 -112.5 4.5t-109.5 17.5t-103.5 34.5t-89 58t-72.5 85.5t-46.5 120t-17.5 159v604q0 88 17.5 159t46.5 120t72.5 85.5t89 58t103.5 34.5t109.5 17.5t112.5 4.5q227 0 412 -22q18 -2 29.5 -13t11.5 -28v-310
q0 -17 -12 -29t-29 -12h-412q-39 0 -53 -13.5t-14 -51.5v-111h479q17 0 29 -12t12 -29v-288q0 -17 -12 -29t-29 -12h-479v-123q0 -38 14.5 -52t52.5 -14h412q17 0 29 -12t12 -29v-309z" />
    <glyph glyph-name="F" unicode="F" horiz-adv-x="1208" 
d="M1106 623q0 -17 -12 -29t-29 -12h-479v-541q0 -17 -12 -29t-29 -12h-400q-17 0 -30 12t-13 29v1022q0 88 17.5 159t46.5 120t72.5 85.5t89 58t103.5 34.5t109.5 17.5t112.5 4.5q227 0 412 -22q18 -2 29.5 -13t11.5 -28v-310q0 -17 -12 -29t-29 -12h-412q-39 0 -53 -13.5
t-14 -51.5v-111h479q17 0 29 -12t12 -29v-288z" />
    <glyph glyph-name="G" unicode="G" horiz-adv-x="1378" 
d="M1266 82q0 -25 -7 -32t-36 -13q-264 -57 -490 -57q-61 0 -118.5 7t-124 27.5t-123 52.5t-110.5 86.5t-91.5 125t-60.5 172t-23 223.5v174q0 125 23.5 227.5t62 173t94 124.5t113.5 85.5t127.5 51t128.5 26t123 6.5q259 0 469 -63q30 -9 36.5 -16.5t6.5 -28.5v-301
q0 -24 -7 -32t-28 -5q-153 20 -363 20q-89 0 -141.5 -10t-90 -39.5t-51.5 -81.5t-14 -137v-178q0 -77 11.5 -131.5t27 -82t40.5 -43t42 -18t41 -2.5q41 0 68 6v369q0 17 12 29t29 12h383q17 0 29 -12t12 -29v-686z" />
    <glyph glyph-name="H" unicode="H" horiz-adv-x="1542" 
d="M1430 41q0 -17 -12 -29t-29 -12h-400q-17 0 -30 12t-13 29v522h-350v-522q0 -17 -12 -29t-29 -12h-399q-17 0 -30 12t-13 29v1440q0 17 13 29t30 12h399q17 0 29 -12t12 -29v-504h350v504q0 17 13 29t30 12h400q17 0 29 -12t12 -29v-1440z" />
    <glyph glyph-name="I" unicode="I" horiz-adv-x="729" 
d="M606 41q0 -17 -12 -29t-29 -12h-399q-17 0 -30 12t-13 29v1440q0 17 13 29t30 12h399q17 0 29 -12t12 -29v-1440z" />
    <glyph glyph-name="J" unicode="J" horiz-adv-x="729" 
d="M606 10q0 -230 -102 -331t-287 -101q-145 0 -227 12q-41 7 -41 41v275q0 17 12 29t29 12h88q28 0 36.5 12.5t8.5 50.5v1471q0 17 13 29t30 12h399q17 0 29 -12t12 -29v-1471z" />
    <glyph glyph-name="K" unicode="K" horiz-adv-x="1523" 
d="M1477 25q0 -25 -25 -25h-483q-20 0 -34 6.5t-20 14t-12 20.5l-307 629v-629q0 -17 -12 -29t-29 -12h-399q-17 0 -30 12t-13 29v1440q0 17 13 29t30 12h399q17 0 29 -12t12 -29v-645l338 645q7 14 11 20.5t12.5 13.5t19.5 7h473q25 0 25 -25q0 -9 -5 -16l-405 -717
l408 -723q4 -6 4 -16z" />
    <glyph glyph-name="L" unicode="L" horiz-adv-x="1064" 
d="M1014 43q0 -34 -41 -41q-129 -22 -309 -22q-61 0 -112.5 4.5t-109.5 17.5t-103.5 34.5t-89 58t-72.5 85.5t-46.5 120t-17.5 159v1022q0 17 13 29t30 12h399q17 0 29 -12t12 -29v-1022q0 -38 14.5 -52t53.5 -14h309q17 0 29 -12t12 -29v-309z" />
    <glyph glyph-name="M" unicode="M" horiz-adv-x="1773" 
d="M1651 23q0 -23 -33 -23h-404q-12 0 -20 12t-8 29v641q0 12 -1.5 15t-10.5 3t-21 -18l-152 -225q-15 -23 -26.5 -31t-28.5 -8h-119q-17 0 -28.5 8t-26.5 31l-151 225q-12 18 -21 18t-10.5 -3t-1.5 -15v-641q0 -17 -8.5 -29t-20.5 -12h-403q-33 0 -33 23v1427
q0 29 21.5 50.5t50.5 21.5h268q44 0 71 -16.5t48 -51.5l280 -453q13 -22 25 -22q11 0 24 22l281 453q21 35 48 51.5t71 16.5h268q29 0 50.5 -21.5t21.5 -50.5v-1427z" />
    <glyph glyph-name="N" unicode="N" horiz-adv-x="1562" 
d="M1440 72q0 -29 -21.5 -50.5t-50.5 -21.5h-350q-41 0 -66 45l-338 563q-10 17 -20 17t-10 -19v-565q0 -17 -13 -29t-30 -12h-375q-17 0 -30 12t-13 29v1409q0 29 21.5 50.5t50.5 21.5h335q46 0 78 -58l344 -565q10 -18 21 -18q4 0 5.5 0.5t3 4.5t1.5 13v582q0 17 12 29
t29 12h375q17 0 29 -12t12 -29v-1409z" />
    <glyph glyph-name="O" unicode="O" horiz-adv-x="1466" 
d="M1384 672q0 -152 -35.5 -272t-95.5 -197.5t-144.5 -128.5t-177 -72.5t-198.5 -21.5t-198.5 21.5t-177 72.5t-144.5 128.5t-95.5 197.5t-35.5 272v178q0 152 35.5 272t95.5 197.5t144.5 128.5t177 72.5t198.5 21.5t198.5 -21.5t177 -72.5t144.5 -128.5t95.5 -197.5
t35.5 -272v-178zM895 672v178q0 145 -37.5 205.5t-124.5 60.5t-124.5 -60.5t-37.5 -205.5v-178q0 -145 37.5 -205.5t124.5 -60.5t124.5 60.5t37.5 205.5z" />
    <glyph glyph-name="P" unicode="P" horiz-adv-x="1429" 
d="M1368 993q0 -123 -41 -218.5t-105.5 -154t-153 -96t-174.5 -51.5t-179 -14q-11 0 -125 4v-422q0 -17 -12 -29t-29 -12h-393q-43 0 -43 33v1310q0 93 29 127t114 48q153 24 449 24q97 0 184.5 -13.5t177.5 -51t154.5 -95.5t105.5 -154t41 -220v-15zM889 993v15
q0 67 -46 99t-128 32h-125v-277h125q80 0 127 33.5t47 97.5z" />
    <glyph glyph-name="Q" unicode="Q" horiz-adv-x="1466" 
d="M1384 672q0 -146 -31.5 -262t-89.5 -194.5t-132.5 -129t-167.5 -76.5v-39q0 -18 4 -21t20 -3h156q22 0 36.5 -9t14.5 -24v-252q0 -15 -14 -29t-37 -20q-123 -35 -279 -35q-56 0 -104 10.5t-95.5 37.5t-80.5 70t-53.5 113.5t-20.5 161.5v37q-94 26 -169.5 76.5t-134.5 129
t-91.5 195t-32.5 263.5v178q0 152 35.5 272t95.5 197.5t144.5 128.5t177 72.5t198.5 21.5t198.5 -21.5t177 -72.5t144.5 -128.5t95.5 -197.5t35.5 -272v-178zM895 672v178q0 145 -37.5 205.5t-124.5 60.5t-124.5 -60.5t-37.5 -205.5v-178q0 -145 37.5 -205.5t124.5 -60.5
t124.5 60.5t37.5 205.5z" />
    <glyph glyph-name="R" unicode="R" horiz-adv-x="1497" 
d="M1425 37q0 -17 -11 -27t-25 -10h-428q-17 0 -29 7t-16 13.5t-11 20.5l-243 481h-66v-481q0 -17 -12 -29t-29 -12h-399q-17 0 -30 12t-13 29v1302q0 93 29 127t114 48q55 8 201 16t248 8q160 0 279 -25.5t208 -83.5t134.5 -158.5t45.5 -242.5v-41q0 -151 -69.5 -253
t-165.5 -144l282 -535q6 -12 6 -22zM891 989v41q0 55 -32.5 82t-108.5 27h-154v-258h154q71 0 106 31t35 77z" />
    <glyph glyph-name="S" unicode="S" horiz-adv-x="1277" 
d="M1206 469q0 -74 -20.5 -143t-67 -132.5t-115 -110.5t-170.5 -75t-227 -28q-240 0 -440 61q-43 11 -43 41v305q0 46 43 41q1 0 109 -11.5t189.5 -17.5t141.5 -6q76 0 76 64q0 16 -11.5 30t-45.5 33l-308 178q-94 54 -150 125.5t-75.5 142.5t-19.5 160q0 416 549 416
q130 0 279 -17.5t218 -39.5q41 -11 41 -41v-305q0 -22 -8.5 -33t-32.5 -8q-273 30 -497 30q-43 0 -43 -32q0 -15 13.5 -28.5t61.5 -37.5l291 -153q136 -72 199 -173t63 -235z" />
    <glyph glyph-name="T" unicode="T" horiz-adv-x="1232" 
d="M1182 1169q0 -17 -13 -29t-30 -12h-279v-1087q0 -17 -12 -29t-29 -12h-399q-17 0 -29 12t-12 29v1087h-287q-17 0 -29 12t-12 29v312q0 17 12 29t29 12h1047q17 0 30 -12t13 -29v-312z" />
    <glyph glyph-name="U" unicode="U" horiz-adv-x="1540" 
d="M1417 586q0 -110 -19.5 -199t-52.5 -151.5t-83 -109t-103.5 -74t-122 -44t-130.5 -22.5t-136 -6t-136 6t-130.5 22.5t-122 44t-103.5 74t-83 109t-52.5 151.5t-19.5 199v895q0 17 13 29t30 12h399q17 0 29 -12t12 -29v-895q0 -115 39 -156t125 -41t125 41t39 156v895
q0 17 12 29t29 12h399q17 0 30 -12t13 -29v-895z" />
    <glyph glyph-name="V" unicode="V" horiz-adv-x="1486" 
d="M1405 1522q38 0 31 -41l-244 -1237q-15 -77 -51.5 -129t-95.5 -81.5t-131 -41.5t-171 -12t-171 12t-131 41.5t-95 81.5t-51 129l-244 1237q-7 41 31 41h426q17 0 28.5 -11.5t14.5 -29.5l174 -1084q3 -26 18 -26q16 0 19 26l174 1084q3 18 14.5 29.5t28.5 11.5h426z" />
    <glyph glyph-name="W" unicode="W" horiz-adv-x="1935" 
d="M1851 1522q17 0 24.5 -4.5t6.5 -18.5l-192 -1370q-12 -83 -51.5 -116t-114.5 -33h-211q-73 0 -108.5 29.5t-61.5 103.5l-158 467q-6 22 -18 22q-13 0 -19 -22l-157 -467q-26 -74 -61.5 -103.5t-108.5 -29.5h-211q-75 0 -114.5 33t-51.5 116l-193 1370q-1 9 4.5 14.5
t11.5 7t15 1.5h420q4 0 8 -0.5t6.5 -2t4.5 -2.5t3.5 -4.5t2 -4.5t1.5 -6t1 -6t0.5 -7.5t0.5 -7.5l84 -723q4 -25 15 -25t18 25l92 272q14 44 38 61t77 17h225q53 0 77 -17t38 -61l92 -272q7 -25 17 -25q12 0 16 25l84 723q2 20 7.5 30.5t21.5 10.5h419z" />
    <glyph glyph-name="X" unicode="X" horiz-adv-x="1515" 
d="M1456 0h-493q-25 0 -36.5 8t-25.5 33l-176 299l-154 -299q-12 -23 -22 -32t-25 -9h-465q-14 0 -19.5 14.5t1.5 26.5l410 766l-398 674q-8 12 -2 26.5t21 14.5h508q24 0 47 -41l166 -281l133 281q20 41 47 41h467q15 0 20.5 -14.5t-2.5 -26.5l-403 -727l420 -713
q8 -12 2 -26.5t-21 -14.5z" />
    <glyph glyph-name="Y" unicode="Y" horiz-adv-x="1452" 
d="M1395 1522q17 0 24.5 -13.5t1.5 -27.5l-301 -705q-64 -150 -153 -188v-547q0 -17 -13 -29t-30 -12h-400q-17 0 -29 12t-12 29v547q-89 38 -153 188l-299 705q-7 13 -0.5 27t24.5 14h437q15 0 25.5 -7t14.5 -13.5t9 -20.5l172 -508q3 -12 12 -12t12 12l174 508
q5 13 9.5 20t16 14t28.5 7h430z" />
    <glyph glyph-name="Z" unicode="Z" horiz-adv-x="1288" 
d="M1186 41q0 -17 -13 -29t-30 -12h-1000q-17 0 -29 12t-12 29v266q0 51 41 113l410 645q10 17 10 27q0 16 -24 16h-389q-17 0 -29 12t-12 29v332q0 17 12 29t29 12h987q17 0 29 -12t12 -29v-287q0 -53 -45 -121l-402 -618q-8 -13 -8 -25q0 -16 27 -16h393q17 0 30 -12
t13 -29v-332z" />
    <glyph glyph-name="bracketleft" unicode="[" horiz-adv-x="835" 
d="M774 -365q0 -15 -11 -23.5t-28 -8.5h-598q-15 0 -25 12t-10 27v1841q0 15 10 27t25 12h598q17 0 28 -10t11 -25v-283q0 -15 -11 -24t-28 -9h-174v-1218h174q17 0 28 -10t11 -25v-283z" />
    <glyph glyph-name="backslash" unicode="\" horiz-adv-x="911" 
d="M889 39q0 -15 -15 -27t-32 -12h-369q-31 0 -43 45l-410 1434q0 1 -1 3.5t-1 4.5q0 13 14 24t31 11h369q36 0 47 -43l410 -1434v-6z" />
    <glyph glyph-name="bracketright" unicode="]" horiz-adv-x="835" 
d="M733 -358q0 -15 -10 -27t-25 -12h-598q-18 0 -28.5 8.5t-10.5 23.5v283q0 15 11 25t28 10h174v1218h-174q-17 0 -28 9t-11 24v283q0 15 11 25t28 10h598q15 0 25 -12t10 -27v-1841z" />
    <glyph glyph-name="asciicircum" unicode="^" 
d="M1288 1180q0 -21 -24 -21h-383q-27 0 -40 6t-28 21l-127 131l-127 -131q-11 -11 -17.5 -15.5t-18.5 -8t-31 -3.5h-383q-25 0 -25 21q0 11 10 24l221 299q18 24 32.5 31.5t45.5 7.5h586q31 0 45.5 -7.5t32.5 -31.5l221 -299q10 -13 10 -24z" />
    <glyph glyph-name="underscore" unicode="_" horiz-adv-x="1187" 
d="M1255 -233q0 -33 -41 -33h-1239q-41 0 -41 33v139q0 33 41 33h1239q41 0 41 -33v-139z" />
    <glyph glyph-name="grave" unicode="`" horiz-adv-x="1024" 
d="M684 1315q0 -15 -18 -15h-308q-21 0 -30 4.5t-21 16.5l-266 244q-10 10 -10 16q0 14 24 14h379q24 0 35 -6t25 -24l182 -230q8 -8 8 -20z" />
    <glyph glyph-name="a" unicode="a" horiz-adv-x="1208" 
d="M1106 41q0 -17 -12 -29t-29 -12h-338q-17 0 -29 12t-12 29v43q-68 -54 -133 -79t-156 -25q-45 0 -90 11.5t-90 39.5t-79 70t-55.5 109t-21.5 150v33q0 74 24.5 130t69 93t113.5 59.5t150 32t186 9.5h49v43q0 94 -102 94q-248 0 -358 -12q-41 -5 -41 43v233q0 37 41 51
q51 19 171 39.5t207 20.5q95 0 171.5 -12.5t146 -45t116 -84.5t74 -134.5t27.5 -192.5v-719zM668 315v172h-64q-50 0 -82.5 -22t-32.5 -72v-22q0 -38 21.5 -56t56.5 -18q40 0 101 18z" />
    <glyph glyph-name="b" unicode="b" horiz-adv-x="1302" 
d="M1231 524q0 -263 -151.5 -403.5t-411.5 -140.5q-223 0 -484 49q-49 10 -65.5 26t-16.5 45v1452q0 18 14.5 30.5t33.5 12.5h366q19 0 30 -12t11 -31v-335q54 12 111 12q277 0 420 -146t143 -399v-160zM776 524v160q0 168 -108 168q-12 0 -111 -6v-484q59 -6 111 -6
q59 0 83.5 44t24.5 124z" />
    <glyph glyph-name="c" unicode="c" horiz-adv-x="972" 
d="M901 53q0 -17 -10 -25.5t-31 -13.5q-151 -34 -289 -34q-246 0 -372.5 149t-126.5 408v135q0 259 126.5 408t372.5 149q147 0 289 -35q20 -5 30.5 -13.5t10.5 -25.5v-278q0 -21 -8.5 -32.5t-36.5 -10.5q-198 12 -221 12q-61 0 -85 -40.5t-24 -133.5v-135q0 -94 24 -134.5
t85 -40.5q78 0 221 13q28 3 36.5 -9t8.5 -34v-279z" />
    <glyph glyph-name="d" unicode="d" horiz-adv-x="1302" 
d="M1200 100q0 -29 -16.5 -45t-65.5 -26q-261 -49 -483 -49q-260 0 -411.5 140.5t-151.5 403.5v160q0 253 143 399t420 146q56 0 110 -12v335q0 19 11 31t30 12h367q19 0 33 -12.5t14 -30.5v-1452zM745 362v484q-99 6 -110 6q-109 0 -109 -168v-160q0 -168 109 -168
q51 0 110 6z" />
    <glyph glyph-name="e" unicode="e" horiz-adv-x="1257" 
d="M1186 528q0 -19 -13 -31t-32 -12h-619q0 -77 36 -104t140 -27q65 0 197.5 5t187.5 10q23 2 34 -6t11 -31v-215q0 -27 -7.5 -39t-30.5 -21q-187 -77 -469 -77q-117 0 -214.5 32t-173.5 97t-118.5 172t-42.5 247v125q0 287 150 431.5t419 144.5q275 0 410 -152.5
t135 -423.5v-125zM754 715q0 81 -26 125.5t-91 44.5q-115 0 -115 -170h232z" />
    <glyph glyph-name="f" unicode="f" horiz-adv-x="866" 
d="M815 918q0 -19 -12.5 -32.5t-30.5 -13.5h-129v-827q0 -19 -13 -32t-32 -13h-369q-19 0 -32 13t-13 32v827l-98 19q-20 3 -32.5 15t-12.5 30v229q0 19 13 31t32 12h98v29q0 118 28 198t83.5 123.5t124.5 61.5t164 18q80 0 188 -22q43 -7 43 -43v-223q0 -19 -12 -31
t-31 -12h-70q-37 0 -48 -13.5t-11 -56.5v-29h129q19 0 31 -12t12 -31v-247z" />
    <glyph glyph-name="g" unicode="g" horiz-adv-x="1288" 
d="M1268 985q0 -18 -12.5 -30t-30.5 -15l-54 -10q29 -56 29 -119v-27q0 -403 -549 -403q-122 0 -190 20q-23 -16 -23 -36q0 -28 37 -35l223 -41q224 -41 317 -77q185 -71 207 -207q3 -20 3 -42v-41q0 -95 -40 -162t-119.5 -107t-189.5 -58.5t-260 -18.5q-267 0 -405.5 85.5
t-138.5 246.5v45q0 55 29.5 109t82.5 94l-26 14q-25 12 -49.5 55t-24.5 107q0 60 32 110t77 80q-53 53 -77 111t-24 151v27q0 193 122.5 295t387.5 102h623q19 0 31 -13t12 -32v-178zM762 784v27q0 45 -24.5 69.5t-86.5 24.5t-86 -24.5t-24 -69.5v-27q0 -46 24 -71t86 -25
t86.5 25t24.5 71zM743 -72v29q0 23 -28.5 39.5t-114.5 32.5l-90 16q-2 -2 -5 -6t-5 -6.5t-4.5 -6.5t-3.5 -7.5t-2.5 -8.5t-2 -11t-0.5 -13v-45q0 -32 34.5 -58t94.5 -26q75 0 101 19t26 52z" />
    <glyph glyph-name="h" unicode="h" horiz-adv-x="1335" 
d="M1233 45q0 -19 -12 -32t-31 -13h-369q-19 0 -32 13t-13 32v709q0 51 -29 75.5t-75 24.5q-56 0 -113 -31v-778q0 -19 -11.5 -32t-29.5 -13h-368q-19 0 -33.5 13.5t-14.5 31.5v1509q0 17 12 29t29 12h373q17 0 29 -12t12 -29v-411q67 48 138.5 67t162.5 19
q88 0 154.5 -25.5t108 -67.5t67 -104.5t35.5 -129t10 -148.5v-709z" />
    <glyph glyph-name="i" unicode="i" horiz-adv-x="673" 
d="M578 1343q0 -18 -14.5 -30.5t-33.5 -12.5h-387q-19 0 -33 12.5t-14 30.5v209q0 18 14 30.5t33 12.5h387q19 0 33.5 -12.5t14.5 -30.5v-209zM567 45q0 -19 -13 -32t-32 -13h-366q-19 0 -33 13t-14 32v1120q0 18 14 30.5t33 12.5h366q19 0 32 -12t13 -31v-1120z" />
    <glyph glyph-name="j" unicode="j" horiz-adv-x="673" 
d="M578 1343q0 -18 -14.5 -30.5t-33.5 -12.5h-387q-19 0 -33 12.5t-14 30.5v209q0 18 14 30.5t33 12.5h387q19 0 33.5 -12.5t14.5 -30.5v-209zM567 -23q0 -115 -27 -196t-78 -126t-115 -65t-148 -20q-90 0 -219 22q-19 3 -31 15.5t-12 30.5v221q0 19 12 31t31 12h86
q27 0 35 19t8 56v1188q0 18 14 30.5t33 12.5h366q19 0 32 -12t13 -31v-1188z" />
    <glyph glyph-name="k" unicode="k" horiz-adv-x="1370" 
d="M1321 29q0 -29 -27 -29h-442q-22 0 -37 8.5t-29 36.5l-229 469v-469q0 -19 -11.5 -32t-29.5 -13h-366q-19 0 -33.5 13.5t-14.5 31.5v1507q0 18 14.5 30.5t33.5 12.5h366q19 0 30 -12t11 -31v-856l246 469q14 28 28 35.5t37 7.5h408q33 0 33 -28q0 -11 -6 -23l-322 -532
l336 -576q4 -6 4 -20z" />
    <glyph glyph-name="l" unicode="l" horiz-adv-x="663" 
d="M561 45q0 -19 -12 -32t-31 -13h-368q-19 0 -33.5 13.5t-14.5 31.5v1507q0 18 14.5 30.5t33.5 12.5h368q19 0 31 -12t12 -31v-1507z" />
    <glyph glyph-name="m" unicode="m" horiz-adv-x="1902" 
d="M1800 45q0 -19 -12 -32t-31 -13h-368q-19 0 -32.5 13t-13.5 32v700q0 52 -18.5 70.5t-58.5 18.5q-36 0 -90 -13q4 -62 4 -76v-700q0 -19 -12 -32t-31 -13h-369q-19 0 -32 13t-13 32v700q0 52 -18 70.5t-58 18.5q-51 0 -88 -13v-776q0 -19 -11.5 -32t-29.5 -13h-368
q-19 0 -33.5 13.5t-14.5 31.5v1122q0 17 12 29t29 12h338q17 0 29 -12t12 -29v-61q76 70 155 96.5t175 26.5q81 0 149 -29.5t105 -93.5q74 73 140.5 98t178.5 25q189 0 282 -120t93 -364v-700z" />
    <glyph glyph-name="n" unicode="n" horiz-adv-x="1335" 
d="M1233 45q0 -19 -12 -32t-31 -13h-369q-19 0 -32 13t-13 32v709q0 51 -29 75.5t-75 24.5q-56 0 -113 -31v-778q0 -19 -11.5 -32t-29.5 -13h-368q-19 0 -33.5 13.5t-14.5 31.5v1122q0 17 12 29t29 12h338q17 0 29 -12t12 -29v-57q81 66 148 92.5t188 26.5q88 0 154.5 -25.5
t108 -67.5t67 -104.5t35.5 -129t10 -148.5v-709z" />
    <glyph glyph-name="o" unicode="o" horiz-adv-x="1269" 
d="M1198 557q0 -290 -147 -433.5t-416 -143.5t-416 143.5t-147 433.5v94q0 290 147 434t416 144t416 -144t147 -434v-94zM743 557v94q0 115 -26 158t-82 43t-82.5 -43.5t-26.5 -157.5v-94q0 -114 26.5 -157.5t82.5 -43.5t82 43t26 158z" />
    <glyph glyph-name="p" unicode="p" horiz-adv-x="1302" 
d="M1231 524q0 -253 -143 -398.5t-420 -145.5q-57 0 -111 12v-336q0 -19 -11 -31t-30 -12h-366q-19 0 -33.5 12.5t-14.5 30.5v1452q0 29 16.5 45.5t65.5 26.5q261 49 484 49q259 0 411 -141t152 -404v-160zM776 524v160q0 80 -24.5 124t-83.5 44q-52 0 -111 -6v-484
q99 -6 111 -6q108 0 108 168z" />
    <glyph glyph-name="q" unicode="q" horiz-adv-x="1302" 
d="M1200 -344q0 -18 -14 -30.5t-33 -12.5h-367q-19 0 -30 12t-11 31v336q-54 -12 -110 -12q-277 0 -420 145.5t-143 398.5v160q0 263 152 404t411 141q222 0 483 -49q49 -10 65.5 -26.5t16.5 -45.5v-1452zM745 362v484q-59 6 -110 6q-109 0 -109 -168v-160q0 -168 109 -168
q11 0 110 6z" />
    <glyph glyph-name="r" unicode="r" horiz-adv-x="899" 
d="M846 905q0 -47 -41 -47h-17q-53 0 -82 -1t-71.5 -9.5t-75.5 -24.5v-778q0 -19 -11.5 -32t-29.5 -13h-368q-19 0 -33.5 13.5t-14.5 31.5v1122q0 17 12 29t29 12h338q17 0 29 -12t12 -29v-59q59 64 134.5 92.5t136.5 28.5h12q25 0 33 -10.5t8 -30.5v-283z" />
    <glyph glyph-name="s" unicode="s" horiz-adv-x="1105" 
d="M1024 369q0 -84 -30 -153.5t-90.5 -123t-161 -83t-232.5 -29.5q-222 0 -383 53q-39 14 -39 45v256q0 28 12 39.5t41 7.5q266 -39 357 -39q41 0 56 9t15 32q0 24 -47 47l-233 119q-107 54 -157 136.5t-50 205.5q0 162 120 250t361 88q193 0 391 -55q43 -11 43 -44v-266
q0 -23 -9.5 -35t-33.5 -8q-58 10 -184 23.5t-180 13.5q-43 0 -43 -22q0 -18 26 -31l226 -111q225 -110 225 -325z" />
    <glyph glyph-name="t" unicode="t" horiz-adv-x="878" 
d="M840 918q0 -19 -12.5 -32.5t-30.5 -13.5h-148v-501q0 -34 8 -47t35 -13h99q19 0 31 -12t12 -31v-223q0 -38 -43 -45q-117 -20 -218 -20q-86 0 -151 17.5t-119.5 60.5t-83.5 123.5t-29 197.5v493l-116 21q-20 3 -32.5 15t-12.5 30v227q0 19 13 31t32 12h116v168
q0 36 46 43l368 64q23 4 34 -9t11 -34v-232h148q19 0 31 -12t12 -31v-247z" />
    <glyph glyph-name="u" unicode="u" horiz-adv-x="1335" 
d="M1233 41q0 -17 -12 -29t-29 -12h-338q-17 0 -29 12t-12 29v57q-73 -62 -144 -90t-192 -28q-88 0 -154.5 25.5t-108 67.5t-67 104.5t-35.5 129t-10 148.5v708q0 19 12 32t31 13h369q19 0 32 -13t13 -32v-708q0 -51 29.5 -76t75.5 -25q55 0 112 31v778q0 19 11.5 32
t29.5 13h369q19 0 33 -13t14 -32v-1122z" />
    <glyph glyph-name="v" unicode="v" horiz-adv-x="1333" 
d="M1268 1208q19 0 30.5 -9.5t4.5 -33.5l-246 -901q-21 -76 -54.5 -130t-68.5 -83.5t-84 -46t-88.5 -20.5t-93.5 -4t-93.5 4t-88.5 20.5t-84 46t-68.5 83.5t-54.5 130l-246 901q-7 24 4.5 33.5t30.5 9.5h403q18 0 30 -12.5t15 -30.5l133 -690q8 -31 19 -31q10 0 18 31
l133 690q3 18 15 30.5t30 12.5h404z" />
    <glyph glyph-name="w" unicode="w" horiz-adv-x="1839" 
d="M1327 1176l-78 -611q-2 -14 -14 -14q-13 0 -18 14l-101 283q-15 43 -34 58.5t-60 15.5h-205q-41 0 -60 -15.5t-34 -58.5l-100 -283q-5 -14 -19 -14q-12 0 -14 14l-78 611q-4 32 -29 32h-407q-10 0 -16.5 -1.5t-11.5 -8.5t-3 -20l191 -1028q9 -49 21 -80.5t24.5 -50
t35.5 -27t43.5 -10.5t59.5 -2h192q85 0 119.5 29t69.5 130l100 295q6 19 19 19q12 0 18 -19l100 -295q35 -101 69.5 -130t119.5 -29h192q33 0 50.5 1t39 6.5t33.5 16t24.5 29.5t21 47.5t16.5 69.5l190 1028q7 30 -31 30h-407q-25 0 -29 -32z" />
    <glyph glyph-name="x" unicode="x" horiz-adv-x="1366" 
d="M836 0q-9 0 -16.5 5t-10.5 9t-10 16.5t-8 14.5l-146 244l-127 -246q-22 -43 -49 -43h-399q-20 0 -26 15.5t3 27.5l344 598l-350 524q-7 12 -0.5 27.5t25.5 15.5h448q25 0 51 -43l133 -221l117 221q21 43 49 43h404q21 0 26 -15t-4 -28l-336 -577l367 -543
q10 -12 3.5 -28.5t-26.5 -16.5h-462z" />
    <glyph glyph-name="y" unicode="y" horiz-adv-x="1343" 
d="M1253 1208h27q19 0 28 -11.5t3 -31.5l-350 -1228q-20 -69 -43.5 -120.5t-63 -98.5t-92.5 -76t-131.5 -46.5t-179.5 -17.5q-70 0 -167.5 13t-140.5 30q-16 5 -23.5 8.5t-15.5 12t-8 20.5v234q0 50 47 45q215 -15 308 -15q40 0 56.5 10t24.5 37l19 70h-12q-42 0 -65 3.5
t-49 15.5t-43.5 38t-36.5 69t-40 110l-272 886q-11 43 35 43h411q34 0 41 -43l139 -639q7 -28 19 -28h14l131 667q3 18 15 30.5t30 12.5h385z" />
    <glyph glyph-name="z" unicode="z" horiz-adv-x="1161" 
d="M1059 41q0 -17 -12 -29t-29 -12h-875q-17 0 -29 12t-12 29v215q0 34 6 54t27 48l340 455q10 13 10 23q0 14 -22 14h-318q-15 0 -23.5 9.5t-8.5 23.5v284q0 17 12 29t29 12h862q17 0 29 -12t12 -29v-219q0 -35 -8 -54.5t-41 -64.5l-320 -432q-10 -13 -10 -22q0 -17 22 -17
h324q15 0 25 -9t10 -23v-285z" />
    <glyph glyph-name="braceleft" unicode="{" horiz-adv-x="892" 
d="M831 -379q0 -15 -10.5 -25t-27.5 -10h-138q-109 0 -185.5 9t-133 32.5t-90 55.5t-53 87t-26.5 118t-7 157v205q0 53 -31 100.5t-78 75.5v256q47 28 78 75.5t31 100.5v205q0 94 7 157t26.5 118t53 87t90 55.5t133 32.5t185.5 9h138q17 0 27.5 -10t10.5 -25v-283
q0 -15 -10.5 -24t-27.5 -9h-97q-49 0 -63.5 -23.5t-14.5 -84.5v-205q0 -223 -190 -303q96 -39 143 -118t47 -187v-205q0 -61 14.5 -84.5t63.5 -23.5h97q17 0 27.5 -9t10.5 -24v-283z" />
    <glyph glyph-name="bar" unicode="|" horiz-adv-x="663" 
d="M561 -352q0 -19 -12 -32t-31 -13h-368q-19 0 -33.5 13.5t-14.5 31.5v1831q0 18 14.5 30.5t33.5 12.5h368q19 0 31 -12t12 -31v-1831z" />
    <glyph glyph-name="braceright" unicode="}" horiz-adv-x="892" 
d="M842 426q-47 -28 -78 -75.5t-31 -100.5v-205q0 -94 -7 -157t-26.5 -118t-53 -87t-90 -55.5t-133 -32.5t-185.5 -9h-138q-17 0 -28 10t-11 25v283q0 15 11 24t28 9h97q49 0 63 23.5t14 84.5v205q0 107 47.5 186t143.5 119q-96 39 -143.5 117.5t-47.5 185.5v205
q0 61 -14 84.5t-63 23.5h-97q-17 0 -28 9t-11 24v283q0 15 11 25t28 10h138q109 0 185.5 -9t133 -32.5t90 -55.5t53 -87t26.5 -118t7 -157v-205q0 -53 31 -100.5t78 -75.5v-256z" />
    <glyph glyph-name="asciitilde" unicode="~" 
d="M1274 1004q0 -193 -96.5 -275t-284.5 -82q-37 0 -99 15.5t-102 37.5l-102 54q-64 34 -96 34q-22 0 -31.5 -8.5t-9.5 -29.5v-43q0 -45 -47 -45h-259q-22 0 -35.5 12t-13.5 33v43q0 190 99.5 273t287.5 83q102 0 195 -49l102 -53q73 -39 105 -39q19 0 26 9.5t7 31.5v43
q0 45 47 45h258q22 0 35.5 -12t13.5 -33v-45z" />
    <glyph glyph-name="uni00A0" unicode="&#xa0;" horiz-adv-x="495" 
 />
    <glyph glyph-name="exclamdown" unicode="&#xa1;" horiz-adv-x="632" 
d="M537 856q0 -17 -12 -29t-29 -12h-359q-17 0 -29 12t-12 29v311q0 17 12 29t29 12h359q17 0 29 -12t12 -29v-311zM551 -346q0 -17 -13.5 -29t-31.5 -12h-383q-17 0 -29 12t-12 29v2l61 987q4 45 41 45h260q18 0 30.5 -13t14.5 -32l62 -987v-2z" />
    <glyph glyph-name="cent" unicode="&#xa2;" 
d="M1102 53q0 -17 -10 -25.5t-31 -13.5q-84 -20 -139 -26v-125q0 -17 -12 -29t-29 -12h-289q-17 0 -29 12t-12 29v157q-138 58 -208.5 191.5t-70.5 325.5v135q0 192 70.5 325t208.5 191v151q0 17 12 29t29 12h289q17 0 29 -12t12 -29v-120q85 -12 139 -25q20 -5 30.5 -13.5
t10.5 -25.5v-278q0 -17 -13 -30t-30 -13h-2q-198 12 -221 12q-61 0 -85 -40.5t-24 -133.5v-135q0 -94 24 -134.5t85 -40.5q37 0 75 2t82 6t64 5h2q17 0 30 -13t13 -30v-279z" />
    <glyph glyph-name="sterling" unicode="&#xa3;" 
d="M1241 41q0 -17 -12 -29t-29 -12h-969q-17 0 -29 12t-12 29v225q0 28 21 53q20 21 40.5 69t20.5 85v100h-98q-17 0 -29 12t-12 29v289q0 17 12 29t29 12h98v47q0 156 36 263t111 170t180 90.5t253 27.5q174 0 346 -35q27 -6 35 -15t8 -30v-323q0 -37 -35 -37h-6
q-14 1 -89.5 7.5t-138.5 10.5t-120 4q-73 0 -95 -22.5t-22 -102.5v-55h279q17 0 29 -12t12 -29v-289q0 -17 -12 -29t-29 -12h-279v-100q0 -56 -24 -102h489q17 0 29 -12t12 -29v-289z" />
    <glyph glyph-name="currency" unicode="&#xa4;" 
d="M1239 1120q0 -16 -14 -30l-178 -179q32 -78 32 -153q0 -89 -37 -164l175 -174q14 -14 14 -31q0 -12 -10 -22l-154 -154q-10 -10 -23 -10q-16 0 -30 14l-180 180q-65 -26 -142 -26q-75 0 -153 32l-179 -178q-16 -16 -32 -16q-11 0 -21 10l-153 154q-11 11 -11 24
q0 16 15 31l178 176q-33 81 -33 154q0 76 27 143l-180 180q-15 15 -15 31q0 13 10 23l154 153q10 10 23 10q16 0 30 -14l174 -174q71 35 166 35q78 0 154 -31l176 178q15 15 31 15q11 0 22 -11l154 -153q10 -10 10 -23zM834 762q0 57 -40.5 97t-97.5 40t-98 -40t-41 -97
t41 -98t98 -41t97.5 41t40.5 98z" />
    <glyph glyph-name="yen" unicode="&#xa5;" 
d="M1366 1495q0 -6 -4 -14l-211 -447h149q17 0 29 -12t12 -29v-198q0 -17 -12 -29t-29 -12h-284l-86 -179h370q17 0 29 -11.5t12 -28.5v-199q0 -17 -12 -29t-29 -12h-372v-254q0 -17 -13 -29t-30 -12h-400q-17 0 -29 12t-12 29v254h-370q-17 0 -29 12t-12 29v199
q0 17 12 28.5t29 11.5h370l-82 179h-288q-17 0 -29 12t-12 29v198q0 17 12 29t29 12h153l-215 447q-4 8 -4 14q0 11 8.5 19t20.5 8h442q27 0 43 -41l164 -449l166 449q16 41 43 41h440q13 0 22 -8t9 -19z" />
    <glyph glyph-name="brokenbar" unicode="&#xa6;" horiz-adv-x="663" 
d="M561 745q0 -19 -12 -32t-31 -13h-368q-19 0 -33.5 13.5t-14.5 31.5v703q0 18 14.5 30.5t33.5 12.5h368q19 0 31 -12t12 -31v-703zM561 -387q0 -19 -12 -32t-31 -13h-368q-19 0 -33.5 13.5t-14.5 31.5v702q0 18 14.5 30.5t33.5 12.5h368q19 0 31 -12t12 -31v-702z" />
    <glyph glyph-name="section" unicode="&#xa7;" horiz-adv-x="1277" 
d="M1212 481q0 -112 -61 -231q55 -105 55 -205q0 -74 -20.5 -143t-67 -132.5t-115 -110.5t-170.5 -75t-227 -28q-240 0 -440 61q-43 11 -43 41v305q0 15 12 28t27 13h2h2q301 -35 440 -35q76 0 76 64q0 33 -57 63l-308 164q-122 64 -185.5 172t-63.5 236q0 133 67 258
q-63 80 -63 200q0 416 549 416q130 0 279 -17.5t218 -39.5q41 -11 41 -41v-305q0 -17 -11 -29t-26 -12h-2h-2q-327 30 -497 30q-43 0 -43 -32q0 -15 13.5 -28.5t61.5 -37.5l291 -153q129 -67 198.5 -170t69.5 -226zM813 473q0 59 -30 95.5t-124 86.5l-120 64q-49 24 -78 57
q-29 -29 -29 -88q0 -52 28.5 -88.5t110.5 -79.5l117 -61q60 -30 107 -74q18 37 18 88z" />
    <glyph glyph-name="dieresis" unicode="&#xa8;" horiz-adv-x="1024" 
d="M938 1343q0 -18 -14 -30.5t-33 -12.5h-285q-19 0 -33 12.5t-14 30.5v209q0 18 14 30.5t33 12.5h285q19 0 33 -12.5t14 -30.5v-209zM467 1343q0 -18 -14 -30.5t-33 -12.5h-285q-19 0 -33 12.5t-14 30.5v209q0 18 14 30.5t33 12.5h285q19 0 33 -12.5t14 -30.5v-209z" />
    <glyph glyph-name="copyright" unicode="&#xa9;" horiz-adv-x="1536" 
d="M1464 766q0 -142 -55.5 -270.5t-149 -221.5t-222.5 -147.5t-271 -54.5t-270.5 54.5t-221.5 147.5t-147.5 221.5t-54.5 270.5q0 189 92.5 350t252.5 255.5t349 94.5q142 0 271 -55.5t222.5 -149.5t149 -223.5t55.5 -271.5zM1343 766q0 156 -77.5 289.5t-210.5 212
t-289 78.5t-288 -78.5t-208.5 -212t-76.5 -289.5q0 -117 45.5 -223t122 -182.5t182.5 -122t223 -45.5t223.5 45.5t184 122t123.5 182.5t46 223zM979 373q0 -11 -5 -16t-20 -9q-68 -22 -153 -22q-188 0 -281.5 101.5t-93.5 295.5v96q0 195 94 296.5t281 101.5q90 0 153 -23
q15 -4 20 -9t5 -16v-184q0 -22 -21 -22h-4q-85 10 -153 10q-44 0 -70 -31.5t-26 -122.5v-96q0 -94 26 -124t70 -30q59 0 153 11h4q21 0 21 -21v-186z" />
    <glyph glyph-name="ordfeminine" unicode="&#xaa;" horiz-adv-x="821" 
d="M750 803q0 -26 -15 -31q-164 -41 -311 -41q-352 0 -352 252v14q0 213 352 213h33v27q0 61 -68 61q-157 0 -231 -8h-2q-10 0 -17.5 9t-7.5 20v151q0 21 27 33q36 13 105.5 26t125.5 13q63 0 113 -7.5t98 -27.5t79.5 -53.5t51 -88.5t19.5 -128v-434zM465 936v125h-41
q-32 0 -53 -15.5t-21 -48.5v-14q0 -31 20 -41t54 -10q17 0 41 4z" />
    <glyph glyph-name="guillemotleft" unicode="&#xab;" horiz-adv-x="1589" 
d="M1538 137q0 -20 -25 -20h-358q-41 0 -57 20l-320 406q-30 38 -30 59q0 22 30 60l320 405q16 20 57 20h358q25 0 25 -20q0 -12 -12 -27l-340 -438l340 -438q12 -15 12 -27zM842 137q0 -20 -25 -20h-358q-42 0 -58 20l-319 406q-31 39 -31 59q0 21 31 60l319 405
q16 20 58 20h358q25 0 25 -20q0 -11 -13 -27l-340 -438l340 -438q13 -16 13 -27z" />
    <glyph glyph-name="logicalnot" unicode="&#xac;" 
d="M1184 385q0 -41 -33 -41h-266q-33 0 -33 41v541h-621q-41 0 -41 32v267q0 32 41 32h912q41 0 41 -32v-840z" />
    <glyph glyph-name="uni00AD" unicode="&#xad;" horiz-adv-x="536" 
d="M506 487q0 -17 -12 -29t-29 -12h-393q-17 0 -29 12t-12 29v242q0 17 12 29t29 12h393q17 0 29 -12t12 -29v-242z" />
    <glyph glyph-name="registered" unicode="&#xae;" horiz-adv-x="1323" 
d="M1251 989q0 -160 -78.5 -295.5t-214.5 -214t-296 -78.5t-296 78.5t-215 214t-79 295.5t79 296t215 215t296 79t296 -79t214.5 -215t78.5 -296zM1133 989q0 195 -138 333t-333 138q-128 0 -236 -63t-170.5 -171.5t-62.5 -236.5q0 -195 137 -332t332 -137q128 0 236.5 62.5
t171.5 170.5t63 236zM963 674q0 -7 -5.5 -12t-11.5 -5h-198q-10 0 -19 19l-111 217h-28v-217q0 -8 -6 -13.5t-13 -5.5h-180q-7 0 -12.5 5.5t-5.5 13.5v586q0 42 12.5 56.5t50.5 20.5q101 13 203 13q146 0 222.5 -53.5t76.5 -178.5v-20q0 -113 -104 -172l127 -244q2 -4 2 -10
zM731 1100v20q0 56 -74 56h-75v-132h75q36 0 55 17t19 39z" />
    <glyph glyph-name="macron" unicode="&#xaf;" horiz-adv-x="1024" 
d="M915 1341q0 -17 -12 -29t-29 -12h-724q-17 0 -29 12t-12 29v213q0 17 12 29t29 12h724q17 0 29 -12t12 -29v-213z" />
    <glyph glyph-name="degree" unicode="&#xb0;" horiz-adv-x="770" 
d="M719 1208q0 -138 -98 -236t-236 -98q-137 0 -235.5 98t-98.5 236t98.5 236t235.5 98q138 0 236 -98t98 -236zM508 1208q0 51 -36.5 87t-86.5 36t-85.5 -36t-35.5 -87q0 -50 35 -85.5t86 -35.5t87 35t36 86z" />
    <glyph glyph-name="plusminus" unicode="&#xb1;" 
d="M1184 668q0 -33 -41 -33h-291v-289q0 -41 -33 -41h-266q-33 0 -33 41v289h-289q-41 0 -41 33v266q0 33 41 33h289v290q0 41 33 41h266q33 0 33 -41v-290h291q41 0 41 -33v-266zM1184 -29q0 -32 -41 -32h-912q-41 0 -41 32v207q0 33 41 33h912q41 0 41 -33v-207z" />
    <glyph glyph-name="two.superior" unicode="&#xb2;" horiz-adv-x="751" 
d="M680 1307q0 -86 -52 -147.5t-139 -112.5q-2 -1 -28 -17t-37.5 -24t-32 -23t-34 -30t-21.5 -31h299q13 0 23 -9t10 -22v-176q0 -13 -10 -22t-23 -9h-531q-12 0 -22 9t-10 22v121q0 121 55.5 204t148.5 146q24 17 49.5 34t39.5 26.5t22 15.5t11.5 10.5t4 8t0.5 11.5
q0 15 -14 20t-65 5q-73 0 -209 -12h-2q-13 0 -22 10t-9 22v127q0 20 29 31q122 47 260 47q164 0 236.5 -57.5t72.5 -177.5z" />
    <glyph glyph-name="three.superior" unicode="&#xb3;" horiz-adv-x="749" 
d="M678 936q0 -252 -316 -252q-60 0 -142.5 13t-127.5 36q-20 12 -20 27v129q0 14 8.5 22.5t21.5 8.5h2q157 -11 236 -11q68 0 68 52q0 51 -54 51h-188q-14 0 -23.5 9.5t-9.5 22.5v142q0 14 9.5 23.5t23.5 9.5h174q35 0 51.5 14.5t16.5 36.5q0 47 -68 47q-85 0 -227 -10h-2
q-12 0 -21.5 8.5t-9.5 21.5v129q0 19 29 31q36 18 110 31.5t143 13.5q158 0 237 -55t79 -187q0 -114 -94 -180q94 -57 94 -184z" />
    <glyph glyph-name="acute" unicode="&#xb4;" horiz-adv-x="1024" 
d="M993 1581q0 -6 -10 -16l-266 -244q-9 -9 -13 -12t-13.5 -6t-24.5 -3h-308q-18 0 -18 15q0 12 8 20l182 230q14 18 25 24t35 6h379q24 0 24 -14z" />
    <glyph glyph-name="mu" unicode="&#xb5;" horiz-adv-x="1335" 
d="M1233 94q0 -28 -16 -44t-66 -27q-191 -43 -481 -43q-56 0 -109 6v-332q0 -17 -12 -29t-29 -12h-377q-17 0 -29 12t-12 29v1509q0 19 12 32t31 13h367q19 0 32 -13t13 -32v-735q0 -39 29 -60.5t82 -21.5q64 0 108 6v811q0 19 11.5 32t29.5 13h369q19 0 33 -13t14 -32
v-1069z" />
    <glyph glyph-name="paragraph" unicode="&#xb6;" horiz-adv-x="1411" 
d="M1309 -360q0 -15 -10 -27t-25 -12h-123q-15 0 -25 12t-10 27v1689h-135v-1689q0 -15 -10 -27t-25 -12h-123q-15 0 -25 12t-10 27v821h-182q-107 0 -200 30.5t-163 87t-110.5 144t-40.5 195.5v147q0 108 40.5 195.5t110.5 144t163 87t200 30.5h670q33 0 33 -39v-1843z" />
    <glyph glyph-name="periodcentered" unicode="&#xb7;" horiz-adv-x="606" 
d="M524 608q0 -17 -13 -29t-30 -12h-356q-17 0 -30 12t-13 29v312q0 17 13 29t30 12h356q17 0 30 -12t13 -29v-312z" />
    <glyph glyph-name="cedilla" unicode="&#xb8;" horiz-adv-x="1024" 
d="M780 -90q0 -6 -10 -16l-266 -244q-9 -9 -13 -12t-13.5 -6t-24.5 -3h-308q-18 0 -18 15q0 12 8 20l182 230q14 18 25 24t35 6h379q24 0 24 -14z" />
    <glyph glyph-name="one.superior" unicode="&#xb9;" horiz-adv-x="567" 
d="M496 709q0 -9 -7 -16t-16 -7h-240q-9 0 -15.5 7t-6.5 16v542l-115 -45q-12 -4 -14 -4q-10 0 -10 15v200q0 18 16 23l182 78q12 6 25 6h178q9 0 16 -7t7 -16v-792z" />
    <glyph glyph-name="ordmasculine" unicode="&#xba;" horiz-adv-x="854" 
d="M793 1106q0 -188 -95.5 -281.5t-269.5 -93.5q-175 0 -271 93.5t-96 281.5v61q0 188 96 281.5t271 93.5q174 0 269.5 -93.5t95.5 -281.5v-61zM498 1106v61q0 74 -17 101.5t-53 27.5t-54 -27.5t-18 -101.5v-61q0 -74 18 -102.5t54 -28.5t53 28.5t17 102.5z" />
    <glyph glyph-name="guillemotright" unicode="&#xbb;" horiz-adv-x="1589" 
d="M1538 602q0 -20 -31 -59l-319 -406q-16 -20 -58 -20h-358q-24 0 -24 20q0 12 12 27l340 438l-340 438q-12 15 -12 27q0 20 24 20h358q42 0 58 -20l319 -405q31 -39 31 -60zM842 602q0 -20 -31 -59l-319 -406q-16 -20 -58 -20h-358q-25 0 -25 20q0 12 12 27l340 438
l-340 438q-12 15 -12 27q0 20 25 20h358q42 0 58 -20l319 -405q31 -39 31 -60z" />
    <glyph glyph-name="onequarter" unicode="&#xbc;" horiz-adv-x="1712" 
d="M1640 188q0 -14 -9 -23t-23 -9h-43v-123q0 -13 -9.5 -23t-23.5 -10h-213q-13 0 -23 10t-10 23v123h-282q-13 0 -22 9t-9 23v144q0 19 12 37l358 452q14 17 37 17h152q14 0 23.5 -10t9.5 -23v-434h43q14 0 23 -9t9 -22v-152zM1417 1499q0 -11 -6 -20l-856 -1448
q-12 -20 -20 -25.5t-23 -5.5h-291q-12 0 -19 8t-7 19q0 12 4 18l856 1446q11 19 19.5 25t27.5 6h291q24 0 24 -23zM496 707q0 -9 -7 -16t-16 -7h-240q-9 0 -15.5 7t-6.5 16v542l-115 -45q-12 -4 -14 -4q-10 0 -10 14v201q0 18 16 23l182 78q12 6 25 6h178q9 0 16 -7t7 -16
v-792zM1298 371v151l-118 -151h118z" />
    <glyph glyph-name="onehalf" unicode="&#xbd;" horiz-adv-x="1751" 
d="M1679 612q0 -86 -51.5 -148t-138.5 -112q-6 -4 -36.5 -22t-47.5 -29t-38.5 -29t-31.5 -34h299q13 0 23 -9t10 -22v-176q0 -13 -10 -22t-23 -9h-530q-13 0 -23 9t-10 22v121q0 63 16 116t47.5 94t64 70t77.5 60q24 17 49 33.5t39 26t22 15.5q19 14 19 31q0 14 -15.5 19.5
t-66.5 5.5q-62 0 -209 -13h-2q-13 0 -22 10t-9 23v127q0 20 29 31q122 47 262 47q164 0 235.5 -58t71.5 -178zM1417 1499q0 -11 -6 -20l-856 -1448q-12 -20 -20 -25.5t-23 -5.5h-291q-12 0 -19 8t-7 19q0 12 4 18l856 1446q11 19 19.5 25t27.5 6h291q24 0 24 -23zM496 707
q0 -9 -7 -16t-16 -7h-240q-9 0 -15.5 7t-6.5 16v542l-115 -45q-12 -4 -14 -4q-10 0 -10 14v201q0 18 16 23l182 78q12 6 25 6h178q9 0 16 -7t7 -16v-792z" />
    <glyph glyph-name="threequarters" unicode="&#xbe;" horiz-adv-x="1814" 
d="M1743 188q0 -13 -9.5 -22.5t-23.5 -9.5h-43v-123q0 -13 -9.5 -23t-23.5 -10h-213q-13 0 -22.5 9.5t-9.5 23.5v123h-283q-13 0 -22 9t-9 23v144q0 19 12 37l359 452q14 17 37 17h151q14 0 23.5 -10t9.5 -23v-434h43q14 0 23.5 -9t9.5 -22v-152zM1579 1499q0 -8 -6 -20
l-856 -1448q-12 -20 -20 -25.5t-23 -5.5h-291q-13 0 -21 8.5t-8 20.5q0 7 6 16l857 1446q11 19 19.5 25t27.5 6h290q12 0 18.5 -7t6.5 -16zM678 936q0 -252 -316 -252q-60 0 -142.5 13t-127.5 36q-20 12 -20 27v129q0 14 8.5 22.5t21.5 8.5h2q157 -11 236 -11q68 0 68 52
q0 51 -54 51h-188q-14 0 -23.5 9.5t-9.5 22.5v142q0 14 9.5 23.5t23.5 9.5h174q35 0 51.5 14.5t16.5 36.5q0 47 -68 47q-85 0 -227 -10h-2q-12 0 -21.5 8.5t-9.5 21.5v129q0 19 29 31q36 18 110 31.5t143 13.5q158 0 237 -55t79 -187q0 -114 -94 -180q94 -57 94 -184z
M1401 371v151l-119 -151h119z" />
    <glyph glyph-name="questiondown" unicode="&#xbf;" horiz-adv-x="1024" 
d="M831 856q0 -17 -13 -29t-30 -12h-356q-17 0 -30 12t-13 29v311q0 17 13 29t30 12h356q17 0 30 -12t13 -29v-311zM963 -305q0 -25 -41 -41q-154 -60 -353 -60q-262 0 -385 85.5t-123 291.5q0 86 24 144t73 131l270 403q26 41 66 41h274q17 0 29 -12t12 -29v-84
q0 -99 -15.5 -148t-70.5 -143l-98 -168q-27 -50 -27 -71q0 -27 47 -27h17l260 23h2q17 0 28 -12t11 -29v-295z" />
    <glyph glyph-name="Agrave" unicode="&#xc0;" horiz-adv-x="1466" 
d="M1425 31q0 -31 -30 -31h-426q-17 0 -28.5 11.5t-14.5 29.5l-37 229h-311l-37 -229q-3 -18 -14.5 -29.5t-28.5 -11.5h-426q-31 0 -31 31v10l244 1237q15 77 51 129t95 81.5t131 41.5t171 12t171 -12t131 -41.5t95.5 -81.5t51.5 -129l243 -1237v-10zM827 647l-75 477
q-1 10 -2 14.5t-5 8.5t-12 4q-10 0 -13.5 -6t-4.5 -17v-4l-76 -477h188zM1012 1640q0 -14 -19 -14h-307q-21 0 -30 4.5t-21 16.5l-266 243q-11 11 -11 17q0 14 25 14h379q23 0 33.5 -6t25.5 -25l183 -229q8 -8 8 -21z" />
    <glyph glyph-name="Aacute" unicode="&#xc1;" horiz-adv-x="1466" 
d="M1425 31q0 -31 -30 -31h-426q-17 0 -28.5 11.5t-14.5 29.5l-37 229h-311l-37 -229q-3 -18 -14.5 -29.5t-28.5 -11.5h-426q-31 0 -31 31v10l244 1237q15 77 51 129t95 81.5t131 41.5t171 12t171 -12t131 -41.5t95.5 -81.5t51.5 -129l243 -1237v-10zM827 647l-75 477
q-1 10 -2 14.5t-5 8.5t-12 4q-10 0 -13.5 -6t-4.5 -17v-4l-76 -477h188zM1169 1907q0 -7 -10 -17l-266 -243q-9 -9 -13 -12t-13.5 -6t-24.5 -3h-307q-19 0 -19 14q0 13 8 21l183 229q15 19 25.5 25t33.5 6h379q24 0 24 -14z" />
    <glyph glyph-name="Acircumflex" unicode="&#xc2;" horiz-adv-x="1466" 
d="M1425 31q0 -31 -30 -31h-426q-17 0 -28.5 11.5t-14.5 29.5l-37 229h-311l-37 -229q-3 -18 -14.5 -29.5t-28.5 -11.5h-426q-31 0 -31 31v10l244 1237q15 77 51 129t95 81.5t131 41.5t171 12t171 -12t131 -41.5t95.5 -81.5t51.5 -129l243 -1237v-10zM827 647l-75 477
q-1 10 -2 14.5t-5 8.5t-12 4q-10 0 -13.5 -6t-4.5 -17v-4l-76 -477h188zM1219 1640q0 -14 -19 -14h-295q-21 0 -30 4.5t-21 16.5l-98 100l-99 -100q-9 -9 -13 -12t-13.5 -6t-24.5 -3h-295q-18 0 -18 14q0 10 8 21l170 229q14 19 24.5 25t34.5 6h451q24 0 34.5 -6t24.5 -25
l170 -229q9 -12 9 -21z" />
    <glyph glyph-name="Atilde" unicode="&#xc3;" horiz-adv-x="1466" 
d="M1425 31q0 -31 -30 -31h-426q-17 0 -28.5 11.5t-14.5 29.5l-37 229h-311l-37 -229q-3 -18 -14.5 -29.5t-28.5 -11.5h-426q-31 0 -31 31v10l244 1237q15 77 51 129t95 81.5t131 41.5t171 12t171 -12t131 -41.5t95.5 -81.5t51.5 -129l243 -1237v-10zM827 647l-75 477
q-1 10 -2 14.5t-5 8.5t-12 4q-10 0 -13.5 -6t-4.5 -17v-4l-76 -477h188zM1204 1886q0 -148 -75 -211t-220 -63q-27 0 -72.5 12t-78.5 29l-80 41q-49 24 -76 24q-29 0 -29 -26v-33q0 -35 -36 -35h-199q-37 0 -37 35v33q0 146 76.5 210t220.5 64q28 0 73 -11t77 -28l79 -41
q53 -26 78 -26q27 0 27 28v33q0 35 37 35h198q37 0 37 -35v-35z" />
    <glyph glyph-name="Adieresis" unicode="&#xc4;" horiz-adv-x="1466" 
d="M1425 31q0 -31 -30 -31h-426q-17 0 -28.5 11.5t-14.5 29.5l-37 229h-311l-37 -229q-3 -18 -14.5 -29.5t-28.5 -11.5h-426q-31 0 -31 31v10l244 1237q15 77 51 129t95 81.5t131 41.5t171 12t171 -12t131 -41.5t95.5 -81.5t51.5 -129l243 -1237v-10zM827 647l-75 477
q-1 10 -2 14.5t-5 8.5t-12 4q-10 0 -13.5 -6t-4.5 -17v-4l-76 -477h188zM1157 1669q0 -18 -14 -30.5t-33 -12.5h-285q-19 0 -33 12.5t-14 30.5v209q0 18 14 30.5t33 12.5h285q19 0 33 -12.5t14 -30.5v-209zM686 1669q0 -18 -14 -30.5t-33 -12.5h-285q-19 0 -33 12.5
t-14 30.5v209q0 18 14 30.5t33 12.5h285q19 0 33 -12.5t14 -30.5v-209z" />
    <glyph glyph-name="Aring" unicode="&#xc5;" horiz-adv-x="1466" 
d="M1425 31q0 -31 -30 -31h-426q-17 0 -28.5 11.5t-14.5 29.5l-37 229h-311l-37 -229q-3 -18 -14.5 -29.5t-28.5 -11.5h-426q-31 0 -31 31v10l244 1237q15 77 51 129t95 81.5t131 41.5t171 12t171 -12t131 -41.5t95.5 -81.5t51.5 -129l243 -1237v-10zM827 647l-75 477
q-1 10 -2 14.5t-5 8.5t-12 4q-10 0 -13.5 -6t-4.5 -17v-4l-76 -477h188zM991 1862q0 -109 -76.5 -186t-185.5 -77t-185.5 77t-76.5 186t76.5 185.5t185.5 76.5t185.5 -76.5t76.5 -185.5zM807 1864q0 31 -22.5 53t-53.5 22q-30 0 -52 -21.5t-22 -53.5t22 -54t52 -22
q31 0 53.5 22.5t22.5 53.5z" />
    <glyph glyph-name="AE" unicode="&#xc6;" horiz-adv-x="1982" 
d="M1870 43q0 -17 -11.5 -28t-29.5 -13q-185 -22 -371 -22q-71 0 -130 6t-124.5 24.5t-115.5 49t-92 84.5t-64 126h-352l-39 -229q-3 -18 -14.5 -29.5t-28.5 -11.5h-426q-15 0 -24 8.5t-9 22.5q0 2 1 5t1 5l244 1216q29 149 138.5 207t309.5 58h1096q17 0 29 -12t12 -29
v-332q0 -17 -12 -29t-29 -12h-438v-156h438q17 0 29 -12t12 -29v-288q0 -17 -12 -29t-29 -12h-438v-123q0 -38 14.5 -52t52.5 -14h371q17 0 29 -12t12 -29v-309zM907 647v461h-159q-29 0 -35 -43l-70 -418h264z" />
    <glyph glyph-name="Ccedilla" unicode="&#xc7;" horiz-adv-x="1122" 
d="M1051 63q0 -20 -8 -28t-35 -17q-109 -38 -269 -38q-329 0 -493 178t-164 520v166q0 343 163.5 520.5t493.5 177.5q158 0 269 -39q27 -9 35 -17t8 -28v-323q0 -37 -33 -37h-8q-15 2 -46 5.5t-45.5 5t-43 4t-61 3t-75.5 0.5q-35 0 -61.5 -10t-52.5 -37t-40 -84t-14 -141
v-166q0 -71 10 -122.5t25 -80t39 -44.5t45 -20.5t49 -4.5q113 0 271 18h8q33 0 33 -37v-324zM924 -90q0 -5 -11 -16l-266 -244q-9 -9 -13 -12t-13.5 -6t-24.5 -3h-307q-19 0 -19 15q0 11 9 20l182 230q14 18 24.5 24t34.5 6h379q25 0 25 -14z" />
    <glyph glyph-name="Egrave" unicode="&#xc8;" horiz-adv-x="1218" 
d="M1106 43q0 -17 -11.5 -28t-29.5 -13q-185 -22 -412 -22q-61 0 -112.5 4.5t-109.5 17.5t-103.5 34.5t-89 58t-72.5 85.5t-46.5 120t-17.5 159v604q0 88 17.5 159t46.5 120t72.5 85.5t89 58t103.5 34.5t109.5 17.5t112.5 4.5q227 0 412 -22q18 -2 29.5 -13t11.5 -28v-310
q0 -17 -12 -29t-29 -12h-412q-39 0 -53 -13.5t-14 -51.5v-111h479q17 0 29 -12t12 -29v-288q0 -17 -12 -29t-29 -12h-479v-123q0 -38 14.5 -52t52.5 -14h412q17 0 29 -12t12 -29v-309zM897 1640q0 -14 -18 -14h-308q-21 0 -30 4.5t-21 16.5l-266 243q-10 10 -10 17
q0 14 24 14h379q23 0 34 -6t26 -25l182 -229q8 -8 8 -21z" />
    <glyph glyph-name="Eacute" unicode="&#xc9;" horiz-adv-x="1218" 
d="M1106 43q0 -17 -11.5 -28t-29.5 -13q-185 -22 -412 -22q-61 0 -112.5 4.5t-109.5 17.5t-103.5 34.5t-89 58t-72.5 85.5t-46.5 120t-17.5 159v604q0 88 17.5 159t46.5 120t72.5 85.5t89 58t103.5 34.5t109.5 17.5t112.5 4.5q227 0 412 -22q18 -2 29.5 -13t11.5 -28v-310
q0 -17 -12 -29t-29 -12h-412q-39 0 -53 -13.5t-14 -51.5v-111h479q17 0 29 -12t12 -29v-288q0 -17 -12 -29t-29 -12h-479v-123q0 -38 14.5 -52t52.5 -14h412q17 0 29 -12t12 -29v-309zM1034 1907q0 -7 -10 -17l-266 -243q-9 -9 -13 -12t-13.5 -6t-24.5 -3h-308q-18 0 -18 14
q0 13 8 21l182 229q15 19 26 25t34 6h379q24 0 24 -14z" />
    <glyph glyph-name="Ecircumflex" unicode="&#xca;" horiz-adv-x="1218" 
d="M1106 43q0 -17 -11.5 -28t-29.5 -13q-185 -22 -412 -22q-61 0 -112.5 4.5t-109.5 17.5t-103.5 34.5t-89 58t-72.5 85.5t-46.5 120t-17.5 159v604q0 88 17.5 159t46.5 120t72.5 85.5t89 58t103.5 34.5t109.5 17.5t112.5 4.5q227 0 412 -22q18 -2 29.5 -13t11.5 -28v-310
q0 -17 -12 -29t-29 -12h-412q-39 0 -53 -13.5t-14 -51.5v-111h479q17 0 29 -12t12 -29v-288q0 -17 -12 -29t-29 -12h-479v-123q0 -38 14.5 -52t52.5 -14h412q17 0 29 -12t12 -29v-309zM1085 1640q0 -14 -18 -14h-295q-21 0 -30 4.5t-21 16.5l-98 100l-99 -100q-9 -9 -13 -12
t-13.5 -6t-24.5 -3h-295q-18 0 -18 14q0 10 8 21l170 229q14 19 24.5 25t34.5 6h451q24 0 34.5 -6t24.5 -25l170 -229q8 -11 8 -21z" />
    <glyph glyph-name="Edieresis" unicode="&#xcb;" horiz-adv-x="1218" 
d="M1106 43q0 -17 -11.5 -28t-29.5 -13q-185 -22 -412 -22q-61 0 -112.5 4.5t-109.5 17.5t-103.5 34.5t-89 58t-72.5 85.5t-46.5 120t-17.5 159v604q0 88 17.5 159t46.5 120t72.5 85.5t89 58t103.5 34.5t109.5 17.5t112.5 4.5q227 0 412 -22q18 -2 29.5 -13t11.5 -28v-310
q0 -17 -12 -29t-29 -12h-412q-39 0 -53 -13.5t-14 -51.5v-111h479q17 0 29 -12t12 -29v-288q0 -17 -12 -29t-29 -12h-479v-123q0 -38 14.5 -52t52.5 -14h412q17 0 29 -12t12 -29v-309zM1036 1669q0 -18 -14 -30.5t-33 -12.5h-284q-19 0 -33.5 12.5t-14.5 30.5v209
q0 18 14.5 30.5t33.5 12.5h284q19 0 33 -12.5t14 -30.5v-209zM565 1669q0 -18 -14 -30.5t-33 -12.5h-285q-19 0 -33 12.5t-14 30.5v209q0 18 14 30.5t33 12.5h285q19 0 33 -12.5t14 -30.5v-209z" />
    <glyph glyph-name="Igrave" unicode="&#xcc;" horiz-adv-x="729" 
d="M606 41q0 -17 -12 -29t-29 -12h-399q-17 0 -30 12t-13 29v1440q0 17 13 29t30 12h399q17 0 29 -12t12 -29v-1440zM623 1640q0 -14 -19 -14h-307q-21 0 -30 4.5t-21 16.5l-266 243q-11 11 -11 17q0 14 25 14h379q23 0 33.5 -6t25.5 -25l182 -229q9 -9 9 -21z" />
    <glyph glyph-name="Iacute" unicode="&#xcd;" horiz-adv-x="729" 
d="M606 41q0 -17 -12 -29t-29 -12h-399q-17 0 -30 12t-13 29v1440q0 17 13 29t30 12h399q17 0 29 -12t12 -29v-1440zM772 1907q0 -7 -10 -17l-266 -243q-9 -9 -13.5 -12.5t-14 -6t-24.5 -2.5h-307q-18 0 -18 14q0 13 8 21l182 229q15 19 26 25t34 6h379q24 0 24 -14z" />
    <glyph glyph-name="Icircumflex" unicode="&#xce;" horiz-adv-x="729" 
d="M606 41q0 -17 -12 -29t-29 -12h-399q-17 0 -30 12t-13 29v1440q0 17 13 29t30 12h399q17 0 29 -12t12 -29v-1440zM825 1640q0 -14 -18 -14h-295q-21 0 -30 4.5t-21 16.5l-99 100l-98 -100q-9 -9 -13 -12t-13.5 -6t-24.5 -3h-295q-18 0 -18 14q0 10 8 21l170 229
q14 19 24.5 25t34.5 6h451q24 0 34.5 -6t24.5 -25l170 -229q8 -11 8 -21z" />
    <glyph glyph-name="Idieresis" unicode="&#xcf;" horiz-adv-x="729" 
d="M606 41q0 -17 -12 -29t-29 -12h-399q-17 0 -30 12t-13 29v1440q0 17 13 29t30 12h399q17 0 29 -12t12 -29v-1440zM786 1669q0 -18 -14 -30.5t-33 -12.5h-284q-19 0 -33 12.5t-14 30.5v209q0 18 14 30.5t33 12.5h284q19 0 33 -12.5t14 -30.5v-209zM315 1669
q0 -18 -14 -30.5t-33 -12.5h-284q-19 0 -33 12.5t-14 30.5v209q0 18 14 30.5t33 12.5h284q19 0 33 -12.5t14 -30.5v-209z" />
    <glyph glyph-name="Eth" unicode="&#xd0;" horiz-adv-x="1445" 
d="M1364 668q0 -179 -48.5 -312.5t-139 -215t-213 -121t-277.5 -39.5q-292 0 -502 38q-38 6 -54.5 25t-16.5 63v476h-99q-17 0 -29 12t-12 29v288q0 17 12 29t29 12h99v463q0 44 16.5 63t54.5 25q215 39 502 39q155 0 277.5 -39.5t213 -121t139 -215t48.5 -312.5v-186z
M874 668v186q0 161 -40 217.5t-148 56.5h-90v-176h90q17 0 29 -12t12 -29v-288q0 -17 -12 -29t-29 -12h-90v-189h90q108 0 148 57t40 218z" />
    <glyph glyph-name="Ntilde" unicode="&#xd1;" horiz-adv-x="1562" 
d="M1440 72q0 -29 -21.5 -50.5t-50.5 -21.5h-350q-41 0 -66 45l-338 563q-11 17 -18 17h-2q-10 0 -10 -19v-565q0 -17 -13 -29t-30 -12h-375q-17 0 -30 12t-13 29v1409q0 29 21.5 50.5t50.5 21.5h335q46 0 78 -58l344 -565q10 -18 21 -18q4 0 5.5 0.5t3 4.5t1.5 13v582
q0 17 12 29t29 12h375q17 0 29 -12t12 -29v-1409zM1221 1886q0 -148 -75 -211t-220 -63q-27 0 -73 12t-79 29l-80 41q-49 24 -76 24q-28 0 -28 -26v-33q0 -35 -37 -35h-199q-37 0 -37 35v33q0 146 76.5 210t220.5 64q28 0 73 -11t77 -28l80 -41q53 -26 78 -26q15 0 20.5 6.5
t5.5 21.5v33q0 35 37 35h199q37 0 37 -35v-35z" />
    <glyph glyph-name="Ograve" unicode="&#xd2;" horiz-adv-x="1466" 
d="M1384 672q0 -152 -35.5 -272t-95.5 -197.5t-144.5 -128.5t-177 -72.5t-198.5 -21.5t-198.5 21.5t-177 72.5t-144.5 128.5t-95.5 197.5t-35.5 272v178q0 152 35.5 272t95.5 197.5t144.5 128.5t177 72.5t198.5 21.5t198.5 -21.5t177 -72.5t144.5 -128.5t95.5 -197.5
t35.5 -272v-178zM895 672v178q0 145 -37.5 205.5t-124.5 60.5t-124.5 -60.5t-37.5 -205.5v-178q0 -145 37.5 -205.5t124.5 -60.5t124.5 60.5t37.5 205.5zM948 1640q0 -14 -18 -14h-307q-21 0 -30.5 4.5t-21.5 16.5l-266 243q-10 10 -10 17q0 14 24 14h379q23 0 34 -6t26 -25
l182 -229q8 -8 8 -21z" />
    <glyph glyph-name="Oacute" unicode="&#xd3;" horiz-adv-x="1466" 
d="M1384 672q0 -152 -35.5 -272t-95.5 -197.5t-144.5 -128.5t-177 -72.5t-198.5 -21.5t-198.5 21.5t-177 72.5t-144.5 128.5t-95.5 197.5t-35.5 272v178q0 152 35.5 272t95.5 197.5t144.5 128.5t177 72.5t198.5 21.5t198.5 -21.5t177 -72.5t144.5 -128.5t95.5 -197.5
t35.5 -272v-178zM895 672v178q0 145 -37.5 205.5t-124.5 60.5t-124.5 -60.5t-37.5 -205.5v-178q0 -145 37.5 -205.5t124.5 -60.5t124.5 60.5t37.5 205.5zM1169 1907q0 -7 -10 -17l-266 -243q-9 -9 -13 -12t-13.5 -6t-24.5 -3h-307q-19 0 -19 14q0 13 8 21l183 229
q15 19 25.5 25t33.5 6h379q24 0 24 -14z" />
    <glyph glyph-name="Ocircumflex" unicode="&#xd4;" horiz-adv-x="1466" 
d="M1384 672q0 -152 -35.5 -272t-95.5 -197.5t-144.5 -128.5t-177 -72.5t-198.5 -21.5t-198.5 21.5t-177 72.5t-144.5 128.5t-95.5 197.5t-35.5 272v178q0 152 35.5 272t95.5 197.5t144.5 128.5t177 72.5t198.5 21.5t198.5 -21.5t177 -72.5t144.5 -128.5t95.5 -197.5
t35.5 -272v-178zM895 672v178q0 145 -37.5 205.5t-124.5 60.5t-124.5 -60.5t-37.5 -205.5v-178q0 -145 37.5 -205.5t124.5 -60.5t124.5 60.5t37.5 205.5zM1196 1642q0 -14 -18 -14h-295q-21 0 -30.5 4.5t-21.5 16.5l-98 100l-98 -100q-9 -9 -13 -12t-13.5 -6t-24.5 -3h-295
q-19 0 -19 14q0 9 9 21l170 229q14 19 24.5 25t34.5 6h450q24 0 35 -6t25 -25l170 -229q8 -11 8 -21z" />
    <glyph glyph-name="Otilde" unicode="&#xd5;" horiz-adv-x="1466" 
d="M1384 672q0 -152 -35.5 -272t-95.5 -197.5t-144.5 -128.5t-177 -72.5t-198.5 -21.5t-198.5 21.5t-177 72.5t-144.5 128.5t-95.5 197.5t-35.5 272v178q0 152 35.5 272t95.5 197.5t144.5 128.5t177 72.5t198.5 21.5t198.5 -21.5t177 -72.5t144.5 -128.5t95.5 -197.5
t35.5 -272v-178zM895 672v178q0 145 -37.5 205.5t-124.5 60.5t-124.5 -60.5t-37.5 -205.5v-178q0 -145 37.5 -205.5t124.5 -60.5t124.5 60.5t37.5 205.5zM1208 1888q0 -148 -75 -211t-220 -63q-27 0 -72.5 12t-78.5 29l-80 41q-49 24 -76 24q-28 0 -28 -26v-33
q0 -35 -37 -35h-199q-37 0 -37 35v33q0 146 76.5 210t220.5 64q28 0 73 -11t77 -28l79 -41q53 -26 78 -26q27 0 27 28v33q0 35 37 35h198q37 0 37 -35v-35z" />
    <glyph glyph-name="Odieresis" unicode="&#xd6;" horiz-adv-x="1466" 
d="M1384 672q0 -152 -35.5 -272t-95.5 -197.5t-144.5 -128.5t-177 -72.5t-198.5 -21.5t-198.5 21.5t-177 72.5t-144.5 128.5t-95.5 197.5t-35.5 272v178q0 152 35.5 272t95.5 197.5t144.5 128.5t177 72.5t198.5 21.5t198.5 -21.5t177 -72.5t144.5 -128.5t95.5 -197.5
t35.5 -272v-178zM895 672v178q0 145 -37.5 205.5t-124.5 60.5t-124.5 -60.5t-37.5 -205.5v-178q0 -145 37.5 -205.5t124.5 -60.5t124.5 60.5t37.5 205.5zM1157 1669q0 -18 -14 -30.5t-33 -12.5h-285q-19 0 -33 12.5t-14 30.5v209q0 18 14 30.5t33 12.5h285q19 0 33 -12.5
t14 -30.5v-209zM686 1669q0 -18 -14 -30.5t-33 -12.5h-285q-19 0 -33 12.5t-14 30.5v209q0 18 14 30.5t33 12.5h285q19 0 33 -12.5t14 -30.5v-209z" />
    <glyph glyph-name="multiply" unicode="&#xd7;" 
d="M1143 1034q0 -16 -17 -33l-204 -204l202 -205q17 -17 17 -31q0 -9 -11 -20l-188 -189q-10 -10 -20 -10q-15 0 -31 16l-205 203l-205 -203q-16 -16 -30 -16q-11 0 -21 10l-188 189q-11 11 -11 20q0 14 17 31l203 205l-205 204q-17 17 -17 33q0 10 11 21l188 188
q10 10 23 10q14 0 30 -16l205 -207l205 207q16 16 31 16q12 0 22 -10l189 -188q10 -10 10 -21z" />
    <glyph glyph-name="Oslash" unicode="&#xd8;" horiz-adv-x="1466" 
d="M1452 1520q0 -8 -6 -17l-166 -229q100 -165 100 -424v-178q0 -152 -35.5 -272t-95.5 -197.5t-144.5 -128.5t-177 -72.5t-198.5 -21.5q-190 0 -330 67l-22 -29q-29 -38 -53 -38h-287q-10 0 -16.5 6.5t-6.5 15.5q0 7 6 16l162 224q-104 164 -104 430v178q0 152 35.5 272
t95.5 197.5t144.5 128.5t177 72.5t198.5 21.5q189 0 336 -72l25 33q29 39 53 39h287q22 0 22 -22zM801 1104q-30 12 -72 12q-87 0 -124.5 -60.5t-37.5 -205.5v-72zM891 672v59l-227 -315q30 -10 65 -10q87 0 124.5 60.5t37.5 205.5z" />
    <glyph glyph-name="Ugrave" unicode="&#xd9;" horiz-adv-x="1540" 
d="M1417 586q0 -110 -19.5 -199t-52.5 -151.5t-83 -109t-103.5 -74t-122 -44t-130.5 -22.5t-136 -6t-136 6t-130.5 22.5t-122 44t-103.5 74t-83 109t-52.5 151.5t-19.5 199v895q0 17 13 29t30 12h399q17 0 29 -12t12 -29v-895q0 -115 39 -156t125 -41t125 41t39 156v895
q0 17 12 29t29 12h399q17 0 30 -12t13 -29v-895zM1010 1640q0 -14 -19 -14h-307q-21 0 -30 4.5t-21 16.5l-266 243q-11 11 -11 17q0 14 25 14h379q23 0 33.5 -6t25.5 -25l182 -229q9 -9 9 -21z" />
    <glyph glyph-name="Uacute" unicode="&#xda;" horiz-adv-x="1540" 
d="M1417 586q0 -110 -19.5 -199t-52.5 -151.5t-83 -109t-103.5 -74t-122 -44t-130.5 -22.5t-136 -6t-136 6t-130.5 22.5t-122 44t-103.5 74t-83 109t-52.5 151.5t-19.5 199v895q0 17 13 29t30 12h399q17 0 29 -12t12 -29v-895q0 -115 39 -156t125 -41t125 41t39 156v895
q0 17 12 29t29 12h399q17 0 30 -12t13 -29v-895zM1194 1907q0 -7 -10 -17l-266 -243q-9 -9 -13.5 -12.5t-14 -6t-24.5 -2.5h-307q-18 0 -18 14q0 13 8 21l182 229q15 19 26 25t34 6h378q25 0 25 -14z" />
    <glyph glyph-name="Ucircumflex" unicode="&#xdb;" horiz-adv-x="1540" 
d="M1417 586q0 -110 -19.5 -199t-52.5 -151.5t-83 -109t-103.5 -74t-122 -44t-130.5 -22.5t-136 -6t-136 6t-130.5 22.5t-122 44t-103.5 74t-83 109t-52.5 151.5t-19.5 199v895q0 17 13 29t30 12h399q17 0 29 -12t12 -29v-895q0 -115 39 -156t125 -41t125 41t39 156v895
q0 17 12 29t29 12h399q17 0 30 -12t13 -29v-895zM1231 1640q0 -14 -19 -14h-294q-21 0 -30.5 4.5t-21.5 16.5l-98 100l-98 -100q-9 -9 -13.5 -12.5t-14 -6t-24.5 -2.5h-294q-19 0 -19 14q0 10 8 21l170 229q14 19 25 25t35 6h450q24 0 35 -6t25 -25l170 -229q8 -11 8 -21z
" />
    <glyph glyph-name="Udieresis" unicode="&#xdc;" horiz-adv-x="1540" 
d="M1417 586q0 -110 -19.5 -199t-52.5 -151.5t-83 -109t-103.5 -74t-122 -44t-130.5 -22.5t-136 -6t-136 6t-130.5 22.5t-122 44t-103.5 74t-83 109t-52.5 151.5t-19.5 199v895q0 17 13 29t30 12h399q17 0 29 -12t12 -29v-895q0 -115 39 -156t125 -41t125 41t39 156v895
q0 17 12 29t29 12h399q17 0 30 -12t13 -29v-895zM1194 1669q0 -18 -14 -30.5t-33 -12.5h-285q-19 0 -33 12.5t-14 30.5v209q0 18 14 30.5t33 12.5h285q19 0 33 -12.5t14 -30.5v-209zM723 1669q0 -18 -14 -30.5t-33 -12.5h-285q-19 0 -33 12.5t-14 30.5v209q0 18 14 30.5
t33 12.5h285q19 0 33 -12.5t14 -30.5v-209z" />
    <glyph glyph-name="Yacute" unicode="&#xdd;" horiz-adv-x="1452" 
d="M1423 1495q0 -10 -2 -14l-301 -705q-64 -150 -153 -188v-547q0 -17 -13 -29t-30 -12h-400q-17 0 -29 12t-12 29v547q-89 38 -153 188l-299 705q-4 8 -4 14q0 11 8 19t20 8h443q27 0 43 -41l172 -508q3 -12 12 -12t12 12l174 508q16 41 43 41h441q13 0 20.5 -8t7.5 -19z
M1157 1907q0 -7 -10 -17l-266 -243q-9 -9 -13.5 -12.5t-14 -6t-24.5 -2.5h-307q-18 0 -18 14q0 13 8 21l182 229q15 19 26 25t34 6h379q24 0 24 -14z" />
    <glyph glyph-name="Thorn" unicode="&#xde;" horiz-adv-x="1429" 
d="M1368 829q0 -123 -41 -218.5t-105.5 -154t-153 -96t-174.5 -51.5t-179 -14q-13 0 -127 4v-258q0 -17 -12 -29t-29 -12h-393q-17 0 -29 12t-12 29v1440q0 17 12 29t29 12h393q17 0 29 -12t12 -29v-105q82 2 117 2q97 0 184.5 -13.5t177.5 -51t154.5 -95.5t105.5 -154
t41 -220v-15zM889 829v15q0 67 -46 99t-128 32h-127v-277h127q80 0 127 33.5t47 97.5z" />
    <glyph glyph-name="germandbls" unicode="&#xdf;" horiz-adv-x="1425" 
d="M1343 475q0 -119 -41.5 -215t-112.5 -156t-161.5 -92t-191.5 -32q-88 0 -148 14q-41 11 -41 41v293q0 17 12 29t29 12h94q54 0 78.5 26t24.5 80v62q0 55 -31 82.5t-113 27.5h-47q-17 0 -29 12t-12 29v234q0 17 12 29t29 12h47q136 0 136 98v63q0 42 -33.5 70.5
t-106.5 28.5q-91 0 -133.5 -35.5t-42.5 -130.5v-1016q0 -17 -12 -29t-29 -12h-377q-17 0 -29 12t-12 29v1016q0 284 157 419.5t478 135.5q130 0 233 -25.5t170 -68t111.5 -102t63 -124t18.5 -137.5v-63q0 -89 -41 -160t-104 -113q155 -104 155 -282v-62z" />
    <glyph glyph-name="agrave" unicode="&#xe0;" horiz-adv-x="1208" 
d="M1106 41q0 -17 -12 -29t-29 -12h-338q-17 0 -29 12t-12 29v43q-68 -54 -133 -79t-156 -25q-45 0 -90 11.5t-90 39.5t-79 70t-55.5 109t-21.5 150v33q0 74 24.5 130t69 93t113.5 59.5t150 32t186 9.5h49v43q0 94 -102 94q-248 0 -358 -12h-3h-2q-17 0 -26.5 12.5
t-9.5 30.5v233q0 37 41 51q51 19 171 39.5t207 20.5q95 0 171.5 -12.5t146 -45t116 -84.5t74 -134.5t27.5 -192.5v-719zM668 315v172h-64q-50 0 -82.5 -22t-32.5 -72v-22q0 -38 21.5 -56t56.5 -18q40 0 101 18zM860 1315q0 -15 -18 -15h-307q-21 0 -30.5 4.5t-21.5 16.5
l-266 244q-10 10 -10 16q0 14 24 14h379q24 0 35 -6t25 -24l182 -230q8 -8 8 -20z" />
    <glyph glyph-name="aacute" unicode="&#xe1;" horiz-adv-x="1208" 
d="M1106 41q0 -17 -12 -29t-29 -12h-338q-17 0 -29 12t-12 29v43q-68 -54 -133 -79t-156 -25q-45 0 -90 11.5t-90 39.5t-79 70t-55.5 109t-21.5 150v33q0 74 24.5 130t69 93t113.5 59.5t150 32t186 9.5h49v43q0 94 -102 94q-248 0 -358 -12h-3h-2q-17 0 -26.5 12.5
t-9.5 30.5v233q0 37 41 51q51 19 171 39.5t207 20.5q95 0 171.5 -12.5t146 -45t116 -84.5t74 -134.5t27.5 -192.5v-719zM668 315v172h-64q-50 0 -82.5 -22t-32.5 -72v-22q0 -38 21.5 -56t56.5 -18q40 0 101 18zM1065 1581q0 -6 -10 -16l-267 -244q-9 -9 -13 -12t-13.5 -6
t-24.5 -3h-307q-18 0 -18 15q0 12 8 20l182 230q14 18 25 24t35 6h378q25 0 25 -14z" />
    <glyph glyph-name="acircumflex" unicode="&#xe2;" horiz-adv-x="1208" 
d="M1106 41q0 -17 -12 -29t-29 -12h-338q-17 0 -29 12t-12 29v43q-68 -54 -133 -79t-156 -25q-45 0 -90 11.5t-90 39.5t-79 70t-55.5 109t-21.5 150v33q0 74 24.5 130t69 93t113.5 59.5t150 32t186 9.5h49v43q0 94 -102 94q-248 0 -358 -12h-3h-2q-17 0 -26.5 12.5
t-9.5 30.5v233q0 37 41 51q51 19 171 39.5t207 20.5q95 0 171.5 -12.5t146 -45t116 -84.5t74 -134.5t27.5 -192.5v-719zM668 315v172h-64q-50 0 -82.5 -22t-32.5 -72v-22q0 -38 21.5 -56t56.5 -18q40 0 101 18zM1090 1315q0 -15 -19 -15h-295q-21 0 -30 4.5t-21 16.5
l-98 100l-99 -100q-9 -9 -13 -12t-13.5 -6t-24.5 -3h-295q-18 0 -18 15q0 9 8 20l170 230q14 19 24.5 24.5t34.5 5.5h451q24 0 34.5 -5.5t24.5 -24.5l170 -230q9 -12 9 -20z" />
    <glyph glyph-name="atilde" unicode="&#xe3;" horiz-adv-x="1208" 
d="M1106 41q0 -17 -12 -29t-29 -12h-338q-17 0 -29 12t-12 29v43q-68 -54 -133 -79t-156 -25q-45 0 -90 11.5t-90 39.5t-79 70t-55.5 109t-21.5 150v33q0 74 24.5 130t69 93t113.5 59.5t150 32t186 9.5h49v43q0 94 -102 94q-248 0 -358 -12h-3h-2q-17 0 -26.5 12.5
t-9.5 30.5v233q0 37 41 51q51 19 171 39.5t207 20.5q95 0 171.5 -12.5t146 -45t116 -84.5t74 -134.5t27.5 -192.5v-719zM668 315v172h-64q-50 0 -82.5 -22t-32.5 -72v-22q0 -38 21.5 -56t56.5 -18q40 0 101 18zM1096 1554q0 -148 -75 -211t-220 -63q-27 0 -73 12t-79 29
l-80 41q-49 24 -75 24q-29 0 -29 -26v-33q0 -35 -37 -35h-199q-36 0 -36 35v33q0 146 76 210t220 64q28 0 73 -11t77 -28l80 -41q53 -26 78 -26q15 0 20.5 6.5t5.5 21.5v33q0 35 37 35h199q37 0 37 -35v-35z" />
    <glyph glyph-name="adieresis" unicode="&#xe4;" horiz-adv-x="1208" 
d="M1106 41q0 -17 -12 -29t-29 -12h-338q-17 0 -29 12t-12 29v43q-68 -54 -133 -79t-156 -25q-45 0 -90 11.5t-90 39.5t-79 70t-55.5 109t-21.5 150v33q0 74 24.5 130t69 93t113.5 59.5t150 32t186 9.5h49v43q0 94 -102 94q-248 0 -358 -12h-3h-2q-17 0 -26.5 12.5
t-9.5 30.5v233q0 37 41 51q51 19 171 39.5t207 20.5q95 0 171.5 -12.5t146 -45t116 -84.5t74 -134.5t27.5 -192.5v-719zM668 315v172h-64q-50 0 -82.5 -22t-32.5 -72v-22q0 -38 21.5 -56t56.5 -18q40 0 101 18zM1057 1343q0 -18 -14 -30.5t-33 -12.5h-285q-19 0 -33 12.5
t-14 30.5v209q0 18 14 30.5t33 12.5h285q19 0 33 -12.5t14 -30.5v-209zM586 1343q0 -18 -14 -30.5t-33 -12.5h-285q-19 0 -33 12.5t-14 30.5v209q0 18 14 30.5t33 12.5h285q19 0 33 -12.5t14 -30.5v-209z" />
    <glyph glyph-name="aring" unicode="&#xe5;" horiz-adv-x="1208" 
d="M1106 41q0 -17 -12 -29t-29 -12h-338q-17 0 -29 12t-12 29v43q-68 -54 -133 -79t-156 -25q-45 0 -90 11.5t-90 39.5t-79 70t-55.5 109t-21.5 150v33q0 74 24.5 130t69 93t113.5 59.5t150 32t186 9.5h49v43q0 94 -102 94q-248 0 -358 -12h-3h-2q-17 0 -26.5 12.5
t-9.5 30.5v233q0 37 41 51q51 19 171 39.5t207 20.5q95 0 171.5 -12.5t146 -45t116 -84.5t74 -134.5t27.5 -192.5v-719zM668 315v172h-64q-50 0 -82.5 -22t-32.5 -72v-22q0 -38 21.5 -56t56.5 -18q40 0 101 18zM874 1563q0 -109 -76.5 -186t-185.5 -77t-185.5 77t-76.5 186
t76.5 185.5t185.5 76.5t185.5 -76.5t76.5 -185.5zM690 1565q0 31 -22.5 53t-53.5 22q-30 0 -51.5 -21.5t-21.5 -53.5t21.5 -54t51.5 -22q31 0 53.5 22.5t22.5 53.5z" />
    <glyph glyph-name="ae" unicode="&#xe6;" horiz-adv-x="1849" 
d="M1778 528q0 -19 -13 -31t-32 -12h-619q0 -77 36 -104t140 -27q65 0 197.5 5t187.5 10h8q37 0 37 -37v-215q0 -26 -8 -38.5t-31 -21.5q-187 -77 -469 -77q-181 0 -307 63q-189 -66 -364 -66q-76 0 -142 12t-127 41t-104.5 72.5t-69.5 112t-26 154.5v20q0 92 40.5 157
t116 101.5t169.5 53t216 16.5h50v43q0 94 -103 94q-248 0 -358 -12q-24 -1 -32.5 10t-8.5 33v233q0 37 41 51q53 20 162.5 40t195.5 20q225 0 359 -92q134 92 313 92q275 0 410 -152.5t135 -423.5v-125zM1346 715q0 81 -26 125.5t-91 44.5q-115 0 -115 -170h232zM678 295
v192h-64q-49 0 -81.5 -24t-32.5 -74v-20q0 -47 33 -62.5t88 -15.5q25 0 57 4z" />
    <glyph glyph-name="ccedilla" unicode="&#xe7;" horiz-adv-x="972" 
d="M901 53q0 -17 -10 -25.5t-31 -13.5q-151 -34 -289 -34q-246 0 -372.5 149t-126.5 408v135q0 259 126.5 408t372.5 149q147 0 289 -35q20 -5 30.5 -13.5t10.5 -25.5v-278q0 -17 -13 -30t-30 -13h-2q-198 12 -221 12q-61 0 -85 -40.5t-24 -133.5v-135q0 -94 24 -134.5
t85 -40.5q37 0 75 2t82 6t64 5h2q17 0 30 -13t13 -30v-279zM741 -90q0 -6 -10 -16l-266 -244q-9 -9 -13 -12t-13.5 -6t-24.5 -3h-308q-18 0 -18 15q0 12 8 20l183 230q14 18 24.5 24t34.5 6h379q24 0 24 -14z" />
    <glyph glyph-name="egrave" unicode="&#xe8;" horiz-adv-x="1257" 
d="M1186 528q0 -19 -13 -31t-32 -12h-619q0 -77 36 -104t140 -27q65 0 197.5 5t187.5 10h9q19 0 27.5 -8.5t8.5 -28.5v-215q0 -27 -7.5 -39t-30.5 -21q-187 -77 -469 -77q-117 0 -214.5 32t-173.5 97t-118.5 172t-42.5 247v125q0 287 150 431.5t419 144.5q275 0 410 -152.5
t135 -423.5v-125zM754 715q0 81 -26 125.5t-91 44.5q-115 0 -115 -170h232zM823 1315q0 -15 -18 -15h-307q-21 0 -30.5 4.5t-21.5 16.5l-266 244q-10 10 -10 16q0 14 25 14h378q24 0 35 -6t25 -24l182 -230q8 -8 8 -20z" />
    <glyph glyph-name="eacute" unicode="&#xe9;" horiz-adv-x="1257" 
d="M1186 528q0 -19 -13 -31t-32 -12h-619q0 -77 36 -104t140 -27q65 0 197.5 5t187.5 10h9q19 0 27.5 -8.5t8.5 -28.5v-215q0 -27 -7.5 -39t-30.5 -21q-187 -77 -469 -77q-117 0 -214.5 32t-173.5 97t-118.5 172t-42.5 247v125q0 287 150 431.5t419 144.5q275 0 410 -152.5
t135 -423.5v-125zM754 715q0 81 -26 125.5t-91 44.5q-115 0 -115 -170h232zM1085 1581q0 -6 -10 -16l-266 -244q-9 -9 -13 -12t-13.5 -6t-24.5 -3h-307q-19 0 -19 15q0 12 8 20l183 230q14 18 24.5 24t34.5 6h379q24 0 24 -14z" />
    <glyph glyph-name="ecircumflex" unicode="&#xea;" horiz-adv-x="1257" 
d="M1186 528q0 -19 -13 -31t-32 -12h-619q0 -77 36 -104t140 -27q65 0 197.5 5t187.5 10h9q19 0 27.5 -8.5t8.5 -28.5v-215q0 -27 -7.5 -39t-30.5 -21q-187 -77 -469 -77q-117 0 -214.5 32t-173.5 97t-118.5 172t-42.5 247v125q0 287 150 431.5t419 144.5q275 0 410 -152.5
t135 -423.5v-125zM754 715q0 81 -26 125.5t-91 44.5q-115 0 -115 -170h232zM1106 1315q0 -15 -19 -15h-294q-21 0 -30.5 4.5t-21.5 16.5l-98 100l-98 -100q-9 -9 -13 -12t-13.5 -6t-24.5 -3h-295q-19 0 -19 15q0 9 8 20l170 230q14 19 24.5 24.5t35.5 5.5h450
q25 0 35.5 -5.5t24.5 -24.5l170 -230q8 -11 8 -20z" />
    <glyph glyph-name="edieresis" unicode="&#xeb;" horiz-adv-x="1257" 
d="M1186 528q0 -19 -13 -31t-32 -12h-619q0 -77 36 -104t140 -27q65 0 197.5 5t187.5 10h9q19 0 27.5 -8.5t8.5 -28.5v-215q0 -27 -7.5 -39t-30.5 -21q-187 -77 -469 -77q-117 0 -214.5 32t-173.5 97t-118.5 172t-42.5 247v125q0 287 150 431.5t419 144.5q275 0 410 -152.5
t135 -423.5v-125zM754 715q0 81 -26 125.5t-91 44.5q-115 0 -115 -170h232zM1061 1343q0 -18 -14 -30.5t-33 -12.5h-285q-19 0 -33 12.5t-14 30.5v209q0 18 14 30.5t33 12.5h285q19 0 33 -12.5t14 -30.5v-209zM590 1343q0 -18 -14 -30.5t-33 -12.5h-285q-19 0 -33 12.5
t-14 30.5v209q0 18 14 30.5t33 12.5h285q19 0 33 -12.5t14 -30.5v-209z" />
    <glyph glyph-name="igrave" unicode="&#xec;" horiz-adv-x="673" 
d="M567 45q0 -19 -13 -32t-32 -13h-366q-19 0 -33 13t-14 32v1120q0 18 14 30.5t33 12.5h366q19 0 32 -12t13 -31v-1120zM580 1315q0 -15 -19 -15h-307q-21 0 -30 4.5t-21 16.5l-266 244q-11 11 -11 16q0 14 25 14h379q24 0 34.5 -6t24.5 -24l182 -230q9 -9 9 -20z" />
    <glyph glyph-name="iacute" unicode="&#xed;" horiz-adv-x="673" 
d="M567 45q0 -19 -13 -32t-32 -13h-366q-19 0 -33 13t-14 32v1120q0 18 14 30.5t33 12.5h366q19 0 32 -12t13 -31v-1120zM764 1581q0 -6 -10 -16l-267 -244q-9 -9 -13 -12t-13.5 -6t-24.5 -3h-307q-18 0 -18 15q0 12 8 20l182 230q14 18 24.5 24t34.5 6h379q25 0 25 -14z
" />
    <glyph glyph-name="icircumflex" unicode="&#xee;" horiz-adv-x="673" 
d="M567 45q0 -19 -13 -32t-32 -13h-366q-19 0 -33 13t-14 32v1120q0 18 14 30.5t33 12.5h366q19 0 32 -12t13 -31v-1120zM811 1315q0 -15 -18 -15h-295q-21 0 -30.5 4.5t-21.5 16.5l-98 100l-98 -100q-9 -9 -13 -12t-13.5 -6t-24.5 -3h-295q-19 0 -19 15q0 8 9 20l169 230
q14 19 24.5 24.5t35.5 5.5h450q25 0 35.5 -5.5t24.5 -24.5l170 -230q8 -11 8 -20z" />
    <glyph glyph-name="idieresis" unicode="&#xef;" horiz-adv-x="673" 
d="M567 45q0 -19 -13 -32t-32 -13h-366q-19 0 -33 13t-14 32v1120q0 18 14 30.5t33 12.5h366q19 0 32 -12t13 -31v-1120zM764 1343q0 -18 -14 -30.5t-33 -12.5h-285q-19 0 -33 12.5t-14 30.5v209q0 18 14 30.5t33 12.5h285q19 0 33 -12.5t14 -30.5v-209zM293 1343
q0 -18 -14 -30.5t-33 -12.5h-285q-19 0 -33 12.5t-14 30.5v209q0 18 14 30.5t33 12.5h285q19 0 33 -12.5t14 -30.5v-209z" />
    <glyph glyph-name="eth" unicode="&#xf0;" horiz-adv-x="1269" 
d="M1198 557q0 -290 -147 -433.5t-416 -143.5t-416 143.5t-147 433.5v23q0 290 146.5 433.5t416.5 143.5h8q-70 55 -176 105l-127 -99q-15 -12 -27 -12q-10 0 -22 12l-49 56q-6 6 -6 16q0 20 20 33l68 51q-9 3 -39.5 14t-48.5 17q-33 12 -33 30q0 7 2 11l65 180q8 22 27 22
q8 0 20 -4q153 -41 252 -82l136 103q13 10 28 10t23 -10l49 -56q8 -12 8 -16q0 -12 -20 -29l-86 -65q247 -131 369 -350.5t122 -511.5v-25zM743 557v23q0 114 -26 157t-82 43t-82.5 -43t-26.5 -157v-23q0 -114 26.5 -157.5t82.5 -43.5t82 43t26 158z" />
    <glyph glyph-name="ntilde" unicode="&#xf1;" horiz-adv-x="1335" 
d="M1233 45q0 -19 -12 -32t-31 -13h-369q-19 0 -32 13t-13 32v709q0 51 -29 75.5t-75 24.5q-56 0 -113 -31v-778q0 -19 -11.5 -32t-29.5 -13h-368q-19 0 -33.5 13.5t-14.5 31.5v1122q0 17 12 29t29 12h338q17 0 29 -12t12 -29v-57q81 66 148 92.5t188 26.5q88 0 154.5 -25.5
t108 -67.5t67 -104.5t35.5 -129t10 -148.5v-709zM1114 1554q0 -148 -75 -211t-220 -63q-27 0 -72.5 12t-78.5 29l-80 41q-49 24 -76 24q-29 0 -29 -26v-33q0 -35 -37 -35h-198q-37 0 -37 35v33q0 146 76.5 210t220.5 64q28 0 72.5 -11t76.5 -28l80 -41q53 -26 78 -26
q27 0 27 28v33q0 35 37 35h198q37 0 37 -35v-35z" />
    <glyph glyph-name="ograve" unicode="&#xf2;" horiz-adv-x="1269" 
d="M1198 557q0 -290 -147 -433.5t-416 -143.5t-416 143.5t-147 433.5v94q0 290 147 434t416 144t416 -144t147 -434v-94zM743 557v94q0 115 -26 158t-82 43t-82.5 -43.5t-26.5 -157.5v-94q0 -114 26.5 -157.5t82.5 -43.5t82 43t26 158zM868 1315q0 -15 -18 -15h-307
q-21 0 -30 4.5t-21 16.5l-267 244q-10 10 -10 16q0 14 25 14h378q24 0 35 -6t25 -24l182 -230q8 -8 8 -20z" />
    <glyph glyph-name="oacute" unicode="&#xf3;" horiz-adv-x="1269" 
d="M1198 557q0 -290 -147 -433.5t-416 -143.5t-416 143.5t-147 433.5v94q0 290 147 434t416 144t416 -144t147 -434v-94zM743 557v94q0 115 -26 158t-82 43t-82.5 -43.5t-26.5 -157.5v-94q0 -114 26.5 -157.5t82.5 -43.5t82 43t26 158zM1055 1581q0 -5 -11 -16l-266 -244
q-9 -9 -13 -12t-13.5 -6t-24.5 -3h-307q-19 0 -19 15q0 11 9 20l182 230q14 18 24.5 24t34.5 6h379q25 0 25 -14z" />
    <glyph glyph-name="ocircumflex" unicode="&#xf4;" horiz-adv-x="1269" 
d="M1198 557q0 -290 -147 -433.5t-416 -143.5t-416 143.5t-147 433.5v94q0 290 147 434t416 144t416 -144t147 -434v-94zM743 557v94q0 115 -26 158t-82 43t-82.5 -43.5t-26.5 -157.5v-94q0 -114 26.5 -157.5t82.5 -43.5t82 43t26 158zM1098 1315q0 -15 -19 -15h-295
q-21 0 -30 4.5t-21 16.5l-98 100l-98 -100q-9 -9 -13.5 -12.5t-14 -6t-24.5 -2.5h-295q-18 0 -18 15q0 9 8 20l170 230q14 19 24.5 24.5t35.5 5.5h450q25 0 35.5 -5.5t24.5 -24.5l170 -230q8 -11 8 -20z" />
    <glyph glyph-name="otilde" unicode="&#xf5;" horiz-adv-x="1269" 
d="M1198 557q0 -290 -147 -433.5t-416 -143.5t-416 143.5t-147 433.5v94q0 290 147 434t416 144t416 -144t147 -434v-94zM743 557v94q0 115 -26 158t-82 43t-82.5 -43.5t-26.5 -157.5v-94q0 -114 26.5 -157.5t82.5 -43.5t82 43t26 158zM1085 1554q0 -148 -74.5 -211
t-219.5 -63q-27 0 -73 12t-79 29l-80 41q-49 24 -76 24q-28 0 -28 -26v-33q0 -35 -37 -35h-199q-37 0 -37 35v33q0 146 76.5 210t220.5 64q28 0 73 -11t77 -28l80 -41q53 -26 77 -26q27 0 27 28v33q0 35 37 35h199q36 0 36 -35v-35z" />
    <glyph glyph-name="odieresis" unicode="&#xf6;" horiz-adv-x="1269" 
d="M1198 557q0 -290 -147 -433.5t-416 -143.5t-416 143.5t-147 433.5v94q0 290 147 434t416 144t416 -144t147 -434v-94zM743 557v94q0 115 -26 158t-82 43t-82.5 -43.5t-26.5 -157.5v-94q0 -114 26.5 -157.5t82.5 -43.5t82 43t26 158zM1059 1343q0 -18 -14 -30.5t-33 -12.5
h-285q-19 0 -33 12.5t-14 30.5v209q0 18 14 30.5t33 12.5h285q19 0 33 -12.5t14 -30.5v-209zM588 1343q0 -18 -14 -30.5t-33 -12.5h-285q-19 0 -33 12.5t-14 30.5v209q0 18 14 30.5t33 12.5h285q19 0 33 -12.5t14 -30.5v-209z" />
    <glyph glyph-name="divide" unicode="&#xf7;" 
d="M907 1171q0 -17 -13 -29t-30 -12h-356q-17 0 -30 12t-13 29v271q0 17 13 29t30 12h356q17 0 30 -12t13 -29v-271zM1184 668q0 -33 -41 -33h-912q-41 0 -41 33v266q0 33 41 33h912q41 0 41 -33v-266zM907 117q0 -17 -13 -29t-30 -12h-356q-17 0 -30 12t-13 29v270
q0 17 13 29t30 12h356q17 0 30 -12t13 -29v-270z" />
    <glyph glyph-name="oslash" unicode="&#xf8;" horiz-adv-x="1269" 
d="M1208 1264q0 -15 -8 -23l-131 -176q129 -144 129 -414v-94q0 -290 -146.5 -433.5t-416.5 -143.5q-190 0 -316 69l-73 -100q-16 -21 -33 -21h-133q-17 0 -17 17q0 10 9 22l129 176q-129 144 -129 414v94q0 290 146.5 434t416.5 144q187 0 315 -70l76 101q16 20 33 20h133
q16 0 16 -16zM705 825q-27 27 -70 27q-56 0 -82.5 -43.5t-26.5 -157.5v-67zM743 557v68l-178 -242q27 -27 70 -27q56 0 82 43t26 158z" />
    <glyph glyph-name="ugrave" unicode="&#xf9;" horiz-adv-x="1335" 
d="M1233 41q0 -17 -12 -29t-29 -12h-338q-17 0 -29 12t-12 29v57q-73 -62 -144 -90t-192 -28q-88 0 -154.5 25.5t-108 67.5t-67 104.5t-35.5 129t-10 148.5v708q0 19 12 32t31 13h369q19 0 32 -13t13 -32v-708q0 -51 29.5 -76t75.5 -25q55 0 112 31v778q0 19 11.5 32
t29.5 13h369q19 0 33 -13t14 -32v-1122zM889 1315q0 -15 -19 -15h-307q-21 0 -30 4.5t-21 16.5l-266 244q-10 10 -10 16q0 14 24 14h379q24 0 34.5 -6t24.5 -24l183 -230q8 -8 8 -20z" />
    <glyph glyph-name="uacute" unicode="&#xfa;" horiz-adv-x="1335" 
d="M1233 41q0 -17 -12 -29t-29 -12h-338q-17 0 -29 12t-12 29v57q-73 -62 -144 -90t-192 -28q-88 0 -154.5 25.5t-108 67.5t-67 104.5t-35.5 129t-10 148.5v708q0 19 12 32t31 13h369q19 0 32 -13t13 -32v-708q0 -51 29.5 -76t75.5 -25q55 0 112 31v778q0 19 11.5 32
t29.5 13h369q19 0 33 -13t14 -32v-1122zM1116 1581q0 -6 -10 -16l-266 -244q-9 -9 -13.5 -12.5t-14 -6t-24.5 -2.5h-307q-18 0 -18 15q0 12 8 20l182 230q14 18 25 24t35 6h379q24 0 24 -14z" />
    <glyph glyph-name="ucircumflex" unicode="&#xfb;" horiz-adv-x="1335" 
d="M1233 41q0 -17 -12 -29t-29 -12h-338q-17 0 -29 12t-12 29v57q-73 -62 -144 -90t-192 -28q-88 0 -154.5 25.5t-108 67.5t-67 104.5t-35.5 129t-10 148.5v708q0 19 12 32t31 13h369q19 0 32 -13t13 -32v-708q0 -51 29.5 -76t75.5 -25q55 0 112 31v778q0 19 11.5 32
t29.5 13h369q19 0 33 -13t14 -32v-1122zM1128 1315q0 -15 -18 -15h-295q-21 0 -30 4.5t-21 16.5l-98 100l-99 -100q-9 -9 -13 -12t-13.5 -6t-24.5 -3h-295q-18 0 -18 15q0 9 8 20l170 230q14 19 24.5 24.5t34.5 5.5h451q24 0 34.5 -5.5t24.5 -24.5l170 -230q8 -11 8 -20z
" />
    <glyph glyph-name="udieresis" unicode="&#xfc;" horiz-adv-x="1335" 
d="M1233 41q0 -17 -12 -29t-29 -12h-338q-17 0 -29 12t-12 29v57q-73 -62 -144 -90t-192 -28q-88 0 -154.5 25.5t-108 67.5t-67 104.5t-35.5 129t-10 148.5v708q0 19 12 32t31 13h369q19 0 32 -13t13 -32v-708q0 -51 29.5 -76t75.5 -25q55 0 112 31v778q0 19 11.5 32
t29.5 13h369q19 0 33 -13t14 -32v-1122zM1098 1343q0 -18 -14 -30.5t-33 -12.5h-285q-19 0 -33 12.5t-14 30.5v209q0 18 14 30.5t33 12.5h285q19 0 33 -12.5t14 -30.5v-209zM627 1343q0 -18 -14 -30.5t-33 -12.5h-285q-19 0 -33 12.5t-14 30.5v209q0 18 14 30.5t33 12.5h285
q19 0 33 -12.5t14 -30.5v-209z" />
    <glyph glyph-name="yacute" unicode="&#xfd;" horiz-adv-x="1343" 
d="M1313 1174q0 -1 -1 -4.5t-1 -4.5l-350 -1228q-20 -69 -43.5 -120.5t-63 -98.5t-92.5 -76t-131.5 -46.5t-179.5 -17.5q-70 0 -167.5 13t-140.5 30q-16 5 -23.5 8.5t-15.5 12t-8 20.5v234q0 17 14 31t31 14h2q215 -15 308 -15q68 0 81 47l19 70h-27q-46 0 -70.5 5.5
t-52 28.5t-49.5 71t-47 131l-272 886q-2 4 -2 15q0 28 47 28h401q34 0 41 -43l139 -639q7 -28 19 -28h14l131 667q3 18 15 30.5t30 12.5h400q16 0 30.5 -10t14.5 -24zM1124 1581q0 -6 -10 -16l-266 -244q-9 -9 -13 -12t-13.5 -6t-24.5 -3h-308q-18 0 -18 15q0 12 8 20
l183 230q14 18 24.5 24t34.5 6h379q24 0 24 -14z" />
    <glyph glyph-name="thorn" unicode="&#xfe;" horiz-adv-x="1302" 
d="M1231 524q0 -253 -143 -398.5t-420 -145.5q-57 0 -111 12v-336q0 -19 -11 -31t-30 -12h-366q-19 0 -33.5 12.5t-14.5 30.5v1898q0 17 12 29t29 12h373q17 0 29 -12t12 -29v-327q35 2 111 2q259 0 411 -141t152 -404v-160zM776 524v160q0 80 -24.5 124t-83.5 44
q-52 0 -111 -6v-484q99 -6 111 -6q108 0 108 168z" />
    <glyph glyph-name="ydieresis" unicode="&#xff;" horiz-adv-x="1343" 
d="M1313 1174q0 -1 -1 -4.5t-1 -4.5l-350 -1228q-20 -69 -43.5 -120.5t-63 -98.5t-92.5 -76t-131.5 -46.5t-179.5 -17.5q-70 0 -167.5 13t-140.5 30q-16 5 -23.5 8.5t-15.5 12t-8 20.5v234q0 17 14 31t31 14h2q215 -15 308 -15q68 0 81 47l19 70h-27q-46 0 -70.5 5.5
t-52 28.5t-49.5 71t-47 131l-272 886q-2 4 -2 15q0 28 47 28h401q34 0 41 -43l139 -639q7 -28 19 -28h14l131 667q3 18 15 30.5t30 12.5h400q16 0 30.5 -10t14.5 -24zM1094 1343q0 -18 -14 -30.5t-33 -12.5h-285q-19 0 -33 12.5t-14 30.5v209q0 18 14 30.5t33 12.5h285
q19 0 33 -12.5t14 -30.5v-209zM623 1343q0 -18 -14.5 -30.5t-33.5 -12.5h-284q-19 0 -33 12.5t-14 30.5v209q0 18 14 30.5t33 12.5h284q19 0 33.5 -12.5t14.5 -30.5v-209z" />
    <glyph glyph-name="Amacron" unicode="&#x100;" horiz-adv-x="1466" 
d="M1425 31q0 -31 -30 -31h-426q-17 0 -28.5 11.5t-14.5 29.5l-37 229h-311l-37 -229q-3 -18 -14.5 -29.5t-28.5 -11.5h-426q-31 0 -31 31v10l244 1237q15 77 51 129t95 81.5t131 41.5t171 12t171 -12t131 -41.5t95.5 -81.5t51.5 -129l243 -1237v-10zM827 647l-75 477
q-1 10 -2 14.5t-5 8.5t-12 4q-10 0 -13.5 -6t-4.5 -17v-4l-76 -477h188zM1130 1667q0 -17 -11.5 -29t-28.5 -12h-725q-17 0 -29 12t-12 29v213q0 17 12 29t29 12h725q17 0 28.5 -12t11.5 -29v-213z" />
    <glyph glyph-name="amacron" unicode="&#x101;" horiz-adv-x="1208" 
d="M1106 41q0 -17 -12 -29t-29 -12h-338q-17 0 -29 12t-12 29v43q-68 -54 -133 -79t-156 -25q-45 0 -90 11.5t-90 39.5t-79 70t-55.5 109t-21.5 150v33q0 74 24.5 130t69 93t113.5 59.5t150 32t186 9.5h49v43q0 94 -102 94q-248 0 -358 -12h-3h-2q-17 0 -26.5 12.5
t-9.5 30.5v233q0 37 41 51q51 19 171 39.5t207 20.5q95 0 171.5 -12.5t146 -45t116 -84.5t74 -134.5t27.5 -192.5v-719zM668 315v172h-64q-50 0 -82.5 -22t-32.5 -72v-22q0 -38 21.5 -56t56.5 -18q40 0 101 18zM1008 1341q0 -17 -12 -29t-29 -12h-725q-17 0 -29 12t-12 29
v213q0 17 12 29t29 12h725q17 0 29 -12t12 -29v-213z" />
    <glyph glyph-name="Abreve" unicode="&#x102;" horiz-adv-x="1466" 
d="M1425 31q0 -31 -30 -31h-426q-17 0 -28.5 11.5t-14.5 29.5l-37 229h-311l-37 -229q-3 -18 -14.5 -29.5t-28.5 -11.5h-426q-31 0 -31 31v10l244 1237q15 77 51 129t95 81.5t131 41.5t171 12t171 -12t131 -41.5t95.5 -81.5t51.5 -129l243 -1237v-10zM827 647l-75 477
q-1 10 -2 14.5t-5 8.5t-12 4q-10 0 -13.5 -6t-4.5 -17v-4l-76 -477h188zM727 1618q153 0 260.5 60.5t183.5 193.5q19 32 19 49q0 21 -25 21h-254q-18 0 -27 -5.5t-18 -21.5q-15 -22 -26.5 -33.5t-41 -23t-71.5 -11.5t-71.5 11.5t-41 23t-26.5 33.5q-9 16 -18 21.5t-27 5.5
h-254q-25 0 -25 -21q0 -17 19 -49q76 -133 183.5 -193.5t260.5 -60.5z" />
    <glyph glyph-name="abreve" unicode="&#x103;" horiz-adv-x="1208" 
d="M1106 41q0 -17 -12 -29t-29 -12h-338q-17 0 -29 12t-12 29v43q-68 -54 -133 -79t-156 -25q-45 0 -90 11.5t-90 39.5t-79 70t-55.5 109t-21.5 150v33q0 74 24.5 130t69 93t113.5 59.5t150 32t186 9.5h49v43q0 94 -102 94q-248 0 -358 -12h-3h-2q-17 0 -26.5 12.5
t-9.5 30.5v233q0 37 41 51q51 19 171 39.5t207 20.5q95 0 171.5 -12.5t146 -45t116 -84.5t74 -134.5t27.5 -192.5v-719zM668 315v172h-64q-50 0 -82.5 -22t-32.5 -72v-22q0 -38 21.5 -56t56.5 -18q40 0 101 18zM604 1292q154 0 261.5 61t183.5 193q18 30 18 49q0 21 -25 21
h-254q-18 0 -27 -5.5t-18 -21.5q-15 -21 -26.5 -33t-41 -23t-71.5 -11t-71.5 11t-41 23t-26.5 33q-9 16 -18 21.5t-27 5.5h-254q-25 0 -25 -21q0 -17 19 -49q76 -133 183.5 -193.5t260.5 -60.5z" />
    <glyph glyph-name="Aogonek" unicode="&#x104;" horiz-adv-x="1466" 
d="M889 270h-311l-37 -229q-3 -18 -14.5 -29.5t-28.5 -11.5h-426q-31 0 -31 31v10l244 1237q15 77 51 129t95 81.5t131 41.5t171 12t171 -12t131 -41.5t95.5 -81.5t51.5 -129l239 -1217q4 -24 4 -28q0 -24 -26 -33l-131 -43q-78 -26 -78 -94q0 -26 17 -33.5t57 -7.5
q34 0 87 7t60 7q13 0 17 -4.5t4 -19.5v-152q0 -20 -23 -31q-31 -13 -109 -27t-163 -14q-330 0 -330 217q0 63 34 116t89 87zM827 647l-75 477q-3 27 -19 27q-15 0 -18 -27l-76 -477h188z" />
    <glyph glyph-name="aogonek" unicode="&#x105;" horiz-adv-x="1208" 
d="M1106 41q0 -29 -27 -39l-135 -45q-42 -14 -61 -32t-19 -48q0 -55 76 -55q34 0 87 7t60 7q13 0 17 -4.5t4 -19.5v-152q0 -20 -23 -31q-31 -13 -109 -27t-163 -14q-146 0 -227.5 53.5t-81.5 141.5q0 80 35 128.5t112 92.5l35 21v59q-68 -54 -133 -79t-156 -25
q-45 0 -90 11.5t-90 39.5t-79 70t-55.5 109t-21.5 150v33q0 74 24.5 130t69 93t113.5 59.5t150 32t186 9.5h49v43q0 94 -102 94q-248 0 -358 -12h-5q-17 0 -26.5 12.5t-9.5 30.5v233q0 37 41 51q51 19 171 39.5t207 20.5q95 0 171.5 -12.5t146 -45t116 -84.5t74 -134.5
t27.5 -192.5v-719zM668 315v172h-64q-50 0 -82.5 -22t-32.5 -72v-22q0 -38 21.5 -56t56.5 -18q40 0 101 18z" />
    <glyph glyph-name="Cacute" unicode="&#x106;" horiz-adv-x="1122" 
d="M1051 63q0 -20 -8 -28t-35 -17q-109 -38 -269 -38q-329 0 -493 178t-164 520v166q0 343 163.5 520.5t493.5 177.5q158 0 269 -39q27 -9 35 -17t8 -28v-323q0 -37 -33 -37h-8q-15 2 -46 5.5t-45.5 5t-43 4t-61 3t-75.5 0.5q-35 0 -61.5 -10t-52.5 -37t-40 -84t-14 -141
v-166q0 -71 10 -122.5t25 -80t39 -44.5t45 -20.5t49 -4.5q113 0 271 18h8q33 0 33 -37v-324zM1028 1907q0 -7 -10 -17l-266 -243q-9 -9 -13.5 -12.5t-14 -6t-24.5 -2.5h-307q-18 0 -18 14q0 13 8 21l182 229q15 19 26 25t34 6h379q24 0 24 -14z" />
    <glyph glyph-name="cacute" unicode="&#x107;" horiz-adv-x="972" 
d="M901 53q0 -17 -10 -25.5t-31 -13.5q-151 -34 -289 -34q-246 0 -372.5 149t-126.5 408v135q0 259 126.5 408t372.5 149q147 0 289 -35q20 -5 30.5 -13.5t10.5 -25.5v-278q0 -17 -13 -30t-30 -13h-2q-198 12 -221 12q-61 0 -85 -40.5t-24 -133.5v-135q0 -94 24 -134.5
t85 -40.5q37 0 75 2t82 6t64 5h2q17 0 30 -13t13 -30v-279zM930 1581q0 -6 -10 -16l-267 -244q-9 -9 -13 -12t-13.5 -6t-24.5 -3h-307q-19 0 -19 15q0 11 9 20l182 230q14 18 24.5 24t34.5 6h379q25 0 25 -14z" />
    <glyph glyph-name="Ccircumflex" unicode="&#x108;" horiz-adv-x="1122" 
d="M1051 63q0 -20 -8 -28t-35 -17q-109 -38 -269 -38q-329 0 -493 178t-164 520v166q0 343 163.5 520.5t493.5 177.5q158 0 269 -39q27 -9 35 -17t8 -28v-323q0 -37 -33 -37h-8q-15 2 -46 5.5t-45.5 5t-43 4t-61 3t-75.5 0.5q-35 0 -61.5 -10t-52.5 -37t-40 -84t-14 -141
v-166q0 -71 10 -122.5t25 -80t39 -44.5t45 -20.5t49 -4.5q113 0 271 18h8q33 0 33 -37v-324zM1081 1640q0 -14 -18 -14h-295q-21 0 -30 4.5t-21 16.5l-99 100l-98 -100q-9 -9 -13 -12t-13.5 -6t-24.5 -3h-295q-18 0 -18 14q0 10 8 21l170 229q14 19 24.5 25t34.5 6h451
q24 0 34.5 -6t24.5 -25l170 -229q8 -11 8 -21z" />
    <glyph glyph-name="ccircumflex" unicode="&#x109;" horiz-adv-x="972" 
d="M901 53q0 -17 -10 -25.5t-31 -13.5q-151 -34 -289 -34q-246 0 -372.5 149t-126.5 408v135q0 259 126.5 408t372.5 149q147 0 289 -35q20 -5 30.5 -13.5t10.5 -25.5v-278q0 -17 -13 -30t-30 -13h-2q-198 12 -221 12q-61 0 -85 -40.5t-24 -133.5v-135q0 -94 24 -134.5
t85 -40.5q37 0 75 2t82 6t64 5h2q17 0 30 -13t13 -30v-279zM975 1315q0 -15 -19 -15h-294q-21 0 -30.5 4.5t-21.5 16.5l-98 100l-98 -100q-9 -9 -13.5 -12.5t-14 -6t-24.5 -2.5h-294q-19 0 -19 15q0 9 8 20l170 230q14 19 24.5 24.5t35.5 5.5h450q25 0 35.5 -5.5t24.5 -24.5
l170 -230q8 -11 8 -20z" />
    <glyph glyph-name="Cdotaccent" unicode="&#x10a;" horiz-adv-x="1122" 
d="M1051 63q0 -20 -8 -28t-35 -17q-109 -38 -269 -38q-329 0 -493 178t-164 520v166q0 343 163.5 520.5t493.5 177.5q158 0 269 -39q27 -9 35 -17t8 -28v-323q0 -37 -33 -37h-8q-15 2 -46 5.5t-45.5 5t-43 4t-61 3t-75.5 0.5q-35 0 -61.5 -10t-52.5 -37t-40 -84t-14 -141
v-166q0 -71 10 -122.5t25 -80t39 -44.5t45 -20.5t49 -4.5q113 0 271 18h8q33 0 33 -37v-324zM862 1679q0 -17 -13 -29t-30 -12h-356q-17 0 -30 12t-13 29v238q0 17 13 29t30 12h356q17 0 30 -12t13 -29v-238z" />
    <glyph glyph-name="cdotaccent" unicode="&#x10b;" horiz-adv-x="972" 
d="M901 53q0 -17 -10 -25.5t-31 -13.5q-151 -34 -289 -34q-246 0 -372.5 149t-126.5 408v135q0 259 126.5 408t372.5 149q147 0 289 -35q20 -5 30.5 -13.5t10.5 -25.5v-278q0 -17 -13 -30t-30 -13h-2q-198 12 -221 12q-61 0 -85 -40.5t-24 -133.5v-135q0 -94 24 -134.5
t85 -40.5q37 0 75 2t82 6t64 5h2q17 0 30 -13t13 -30v-279zM776 1354q0 -17 -13 -29t-30 -12h-356q-17 0 -30 12t-13 29v237q0 17 13 29t30 12h356q17 0 30 -12t13 -29v-237z" />
    <glyph glyph-name="Ccaron" unicode="&#x10c;" horiz-adv-x="1122" 
d="M1051 63q0 -20 -8 -28t-35 -17q-109 -38 -269 -38q-329 0 -493 178t-164 520v166q0 343 163.5 520.5t493.5 177.5q158 0 269 -39q27 -9 35 -17t8 -28v-323q0 -37 -33 -37h-8q-15 2 -46 5.5t-45.5 5t-43 4t-61 3t-75.5 0.5q-35 0 -61.5 -10t-52.5 -37t-40 -84t-14 -141
v-166q0 -71 10 -122.5t25 -80t39 -44.5t45 -20.5t49 -4.5q113 0 271 18h8q33 0 33 -37v-324zM1106 1907q0 -13 -8 -21l-183 -229q-15 -19 -25.5 -25t-33.5 -6h-450q-23 0 -34 6t-26 25l-182 229q-8 8 -8 21q0 14 18 14h307q21 0 30 -4t21 -16l99 -93l98 93q8 8 12.5 11.5
t14 6t24.5 2.5h307q19 0 19 -14z" />
    <glyph glyph-name="ccaron" unicode="&#x10d;" horiz-adv-x="972" 
d="M901 53q0 -17 -10 -25.5t-31 -13.5q-151 -34 -289 -34q-246 0 -372.5 149t-126.5 408v135q0 259 126.5 408t372.5 149q147 0 289 -35q20 -5 30.5 -13.5t10.5 -25.5v-278q0 -17 -13 -30t-30 -13h-2q-198 12 -221 12q-61 0 -85 -40.5t-24 -133.5v-135q0 -94 24 -134.5
t85 -40.5q37 0 75 2t82 6t64 5h2q17 0 30 -13t13 -30v-279zM1006 1581q0 -11 -9 -20l-182 -230q-15 -19 -25.5 -25t-33.5 -6h-451q-23 0 -33.5 6t-25.5 25l-183 230q-8 8 -8 20q0 14 19 14h307q21 0 30 -4t21 -16l98 -92l99 92q8 8 12.5 11.5t14 6t24.5 2.5h307q19 0 19 -14
z" />
    <glyph glyph-name="Dcaron" unicode="&#x10e;" horiz-adv-x="1445" 
d="M1364 668q0 -179 -48.5 -312.5t-139 -215t-213 -121t-277.5 -39.5q-292 0 -502 38q-38 6 -54.5 25t-16.5 63v1309q0 44 16.5 63t54.5 25q215 39 502 39q155 0 277.5 -39.5t213 -121t139 -215t48.5 -312.5v-186zM874 668v186q0 161 -40 217.5t-148 56.5h-90v-735h90
q108 0 148 57t40 218zM1198 1907q0 -13 -8 -21l-182 -229q-15 -19 -26 -25t-34 -6h-450q-23 0 -34 6t-26 25l-182 229q-8 8 -8 21q0 14 18 14h307q22 0 31 -4t21 -16l98 -93l98 93q8 8 12.5 11.5t14 6t24.5 2.5h308q18 0 18 -14z" />
    <glyph glyph-name="dcaron" unicode="&#x10f;" horiz-adv-x="1789" 
d="M1200 100q0 -29 -16.5 -45t-65.5 -26q-261 -49 -483 -49q-260 0 -411.5 140.5t-151.5 403.5v160q0 253 143 399t420 146q56 0 110 -12v335q0 19 11 31t30 12h367q19 0 33 -12.5t14 -30.5v-1452zM745 362v484q-99 6 -110 6q-109 0 -109 -168v-160q0 -168 109 -168
q51 0 110 6zM1501 1595h295q13 0 19.5 -8.5t-0.5 -30.5l-203 -471q-8 -21 -16 -29.5t-23 -8.5h-223q-25 0 -25 24q0 10 2 14l131 471q11 39 43 39z" />
    <glyph glyph-name="Dcroat" unicode="&#x110;" horiz-adv-x="1445" 
d="M1364 668q0 -179 -48.5 -312.5t-139 -215t-213 -121t-277.5 -39.5q-292 0 -502 38q-38 6 -54.5 25t-16.5 63v476h-99q-17 0 -29 12t-12 29v288q0 17 12 29t29 12h99v463q0 44 16.5 63t54.5 25q215 39 502 39q155 0 277.5 -39.5t213 -121t139 -215t48.5 -312.5v-186z
M874 668v186q0 161 -40 217.5t-148 56.5h-90v-176h90q17 0 29 -12t12 -29v-288q0 -17 -12 -29t-29 -12h-90v-189h90q108 0 148 57t40 218z" />
    <glyph glyph-name="dcroat" unicode="&#x111;" horiz-adv-x="1302" 
d="M1200 100q0 -29 -16.5 -45t-65.5 -26q-261 -49 -483 -49q-260 0 -411.5 140.5t-151.5 403.5v160q0 253 143 399t420 146q56 0 110 -12v83h-288q-17 0 -29 12t-12 29v121q0 17 12 29t29 12h288v49q0 19 11 31t30 12h367q19 0 33 -12.5t14 -30.5v-49h72q17 0 29 -12t12 -29
v-121q0 -17 -12 -29t-29 -12h-72v-1200zM745 362v484q-99 6 -110 6q-109 0 -109 -168v-160q0 -168 109 -168q51 0 110 6z" />
    <glyph glyph-name="Emacron" unicode="&#x112;" horiz-adv-x="1218" 
d="M1106 43q0 -17 -11.5 -28t-29.5 -13q-185 -22 -412 -22q-61 0 -112.5 4.5t-109.5 17.5t-103.5 34.5t-89 58t-72.5 85.5t-46.5 120t-17.5 159v604q0 88 17.5 159t46.5 120t72.5 85.5t89 58t103.5 34.5t109.5 17.5t112.5 4.5q227 0 412 -22q18 -2 29.5 -13t11.5 -28v-310
q0 -17 -12 -29t-29 -12h-412q-39 0 -53 -13.5t-14 -51.5v-111h479q17 0 29 -12t12 -29v-288q0 -17 -12 -29t-29 -12h-479v-123q0 -38 14.5 -52t52.5 -14h412q17 0 29 -12t12 -29v-309zM1051 1667q0 -17 -12 -29t-29 -12h-725q-17 0 -29 12t-12 29v213q0 17 12 29t29 12h725
q17 0 29 -12t12 -29v-213z" />
    <glyph glyph-name="emacron" unicode="&#x113;" horiz-adv-x="1257" 
d="M1186 528q0 -19 -13 -31t-32 -12h-619q0 -77 36 -104t140 -27q65 0 197.5 5t187.5 10h9q19 0 27.5 -8.5t8.5 -28.5v-215q0 -27 -7.5 -39t-30.5 -21q-187 -77 -469 -77q-117 0 -214.5 32t-173.5 97t-118.5 172t-42.5 247v125q0 287 150 431.5t419 144.5q275 0 410 -152.5
t135 -423.5v-125zM754 715q0 81 -26 125.5t-91 44.5q-115 0 -115 -170h232zM1032 1341q0 -17 -12 -29t-29 -12h-725q-17 0 -29 12t-12 29v213q0 17 12 29t29 12h725q17 0 29 -12t12 -29v-213z" />
    <glyph glyph-name="Ebreve" unicode="&#x114;" horiz-adv-x="1218" 
d="M1106 43q0 -17 -11.5 -28t-29.5 -13q-185 -22 -412 -22q-61 0 -112.5 4.5t-109.5 17.5t-103.5 34.5t-89 58t-72.5 85.5t-46.5 120t-17.5 159v604q0 88 17.5 159t46.5 120t72.5 85.5t89 58t103.5 34.5t109.5 17.5t112.5 4.5q227 0 412 -22q18 -2 29.5 -13t11.5 -28v-310
q0 -17 -12 -29t-29 -12h-412q-39 0 -53 -13.5t-14 -51.5v-111h479q17 0 29 -12t12 -29v-288q0 -17 -12 -29t-29 -12h-479v-123q0 -38 14.5 -52t52.5 -14h412q17 0 29 -12t12 -29v-309zM657 1612q154 0 261.5 61t183.5 193q18 30 18 49q0 20 -24 20h-254q-18 0 -27 -5.5
t-18 -20.5q-15 -21 -27 -33t-41.5 -23.5t-71.5 -11.5t-71.5 11.5t-41 23t-26.5 33.5q-9 15 -18 20.5t-27 5.5h-254q-24 0 -24 -20q0 -19 18 -49q76 -133 183.5 -193.5t260.5 -60.5z" />
    <glyph glyph-name="ebreve" unicode="&#x115;" horiz-adv-x="1257" 
d="M1186 528q0 -19 -13 -31t-32 -12h-619q0 -77 36 -104t140 -27q65 0 197.5 5t187.5 10h9q19 0 27.5 -8.5t8.5 -28.5v-215q0 -27 -7.5 -39t-30.5 -21q-187 -77 -469 -77q-117 0 -214.5 32t-173.5 97t-118.5 172t-42.5 247v125q0 287 150 431.5t419 144.5q275 0 410 -152.5
t135 -423.5v-125zM754 715q0 81 -26 125.5t-91 44.5q-115 0 -115 -170h232zM635 1292q153 0 260.5 60.5t183.5 193.5q19 32 19 49q0 21 -25 21h-254q-18 0 -27 -5.5t-18 -21.5q-15 -21 -26.5 -33t-41 -23t-71.5 -11t-71.5 11t-41 23t-26.5 33q-9 16 -18 21.5t-27 5.5h-254
q-25 0 -25 -21q0 -19 18 -49q76 -132 183.5 -193t261.5 -61z" />
    <glyph glyph-name="Edotaccent" unicode="&#x116;" horiz-adv-x="1218" 
d="M1106 43q0 -17 -11.5 -28t-29.5 -13q-185 -22 -412 -22q-61 0 -112.5 4.5t-109.5 17.5t-103.5 34.5t-89 58t-72.5 85.5t-46.5 120t-17.5 159v604q0 88 17.5 159t46.5 120t72.5 85.5t89 58t103.5 34.5t109.5 17.5t112.5 4.5q227 0 412 -22q18 -2 29.5 -13t11.5 -28v-310
q0 -17 -12 -29t-29 -12h-412q-39 0 -53 -13.5t-14 -51.5v-111h479q17 0 29 -12t12 -29v-288q0 -17 -12 -29t-29 -12h-479v-123q0 -38 14.5 -52t52.5 -14h412q17 0 29 -12t12 -29v-309zM852 1679q0 -17 -13 -29t-30 -12h-356q-17 0 -30 12t-13 29v238q0 17 13 29t30 12h356
q17 0 30 -12t13 -29v-238z" />
    <glyph glyph-name="edotaccent" unicode="&#x117;" horiz-adv-x="1257" 
d="M1186 528q0 -19 -13 -31t-32 -12h-619q0 -77 36 -104t140 -27q65 0 197.5 5t187.5 10h9q19 0 27.5 -8.5t8.5 -28.5v-215q0 -27 -7.5 -39t-30.5 -21q-187 -77 -469 -77q-117 0 -214.5 32t-173.5 97t-118.5 172t-42.5 247v125q0 287 150 431.5t419 144.5q275 0 410 -152.5
t135 -423.5v-125zM754 715q0 81 -26 125.5t-91 44.5q-115 0 -115 -170h232zM850 1352q0 -17 -13 -29t-30 -12h-356q-17 0 -30 12t-13 29v237q0 17 13 29t30 12h356q17 0 30 -12t13 -29v-237z" />
    <glyph glyph-name="Eogonek" unicode="&#x118;" horiz-adv-x="1218" 
d="M1106 43q0 -17 -11.5 -28t-29.5 -13q-28 -3 -68 -6l-57 -39q-78 -52 -78 -94q0 -26 17 -33.5t57 -7.5q34 0 87 7t60 7q13 0 17 -4.5t4 -19.5v-152q0 -20 -23 -31q-31 -13 -109 -27t-163 -14q-146 0 -227.5 53.5t-81.5 141.5q0 70 26 115t82 82q-82 3 -148 15t-135.5 44
t-116 83t-76.5 137t-30 200v604q0 88 17.5 159t46.5 120t72.5 85.5t89 58t103.5 34.5t109.5 17.5t112.5 4.5q227 0 412 -22q18 -2 29.5 -13t11.5 -28v-310q0 -17 -12 -29t-29 -12h-412q-39 0 -53 -13.5t-14 -51.5v-111h479q17 0 29 -12t12 -29v-288q0 -17 -12 -29t-29 -12
h-479v-123q0 -38 14.5 -52t52.5 -14h412q17 0 29 -12t12 -29v-309z" />
    <glyph glyph-name="eogonek" unicode="&#x119;" horiz-adv-x="1257" 
d="M1186 528q0 -19 -13 -31t-32 -12h-619q0 -77 36 -104t140 -27q65 0 197.5 5t187.5 10h9q19 0 27.5 -8.5t8.5 -28.5v-215q0 -20 -1 -28.5t-7.5 -21.5t-21.5 -22l-135 -88q-78 -52 -78 -94q0 -26 16.5 -33.5t56.5 -7.5q34 0 87.5 7t60.5 7q13 0 16.5 -4.5t3.5 -19.5v-152
q0 -11 -4 -17.5t-18 -13.5q-31 -13 -109.5 -27t-163.5 -14q-146 0 -227.5 53.5t-81.5 141.5q0 69 26 114.5t81 82.5h-8q-117 0 -214.5 32t-173.5 97t-118.5 172t-42.5 247v125q0 287 150 431.5t419 144.5q275 0 410 -152.5t135 -423.5v-125zM754 715q0 81 -26 125.5
t-91 44.5q-115 0 -115 -170h232z" />
    <glyph glyph-name="Ecaron" unicode="&#x11a;" horiz-adv-x="1218" 
d="M1106 43q0 -17 -11.5 -28t-29.5 -13q-185 -22 -412 -22q-61 0 -112.5 4.5t-109.5 17.5t-103.5 34.5t-89 58t-72.5 85.5t-46.5 120t-17.5 159v604q0 88 17.5 159t46.5 120t72.5 85.5t89 58t103.5 34.5t109.5 17.5t112.5 4.5q227 0 412 -22q18 -2 29.5 -13t11.5 -28v-310
q0 -17 -12 -29t-29 -12h-412q-39 0 -53 -13.5t-14 -51.5v-111h479q17 0 29 -12t12 -29v-288q0 -17 -12 -29t-29 -12h-479v-123q0 -38 14.5 -52t52.5 -14h412q17 0 29 -12t12 -29v-309zM1085 1907q0 -13 -8 -21l-182 -229q-15 -19 -25.5 -25t-33.5 -6h-451q-23 0 -33.5 6
t-25.5 25l-183 229q-8 8 -8 21q0 14 19 14h307q21 0 30 -4t21 -16l98 -93l99 93q8 8 12.5 11.5t14 6t24.5 2.5h307q18 0 18 -14z" />
    <glyph glyph-name="ecaron" unicode="&#x11b;" horiz-adv-x="1257" 
d="M1186 528q0 -19 -13 -31t-32 -12h-619q0 -77 36 -104t140 -27q65 0 197.5 5t187.5 10h9q19 0 27.5 -8.5t8.5 -28.5v-215q0 -27 -7.5 -39t-30.5 -21q-187 -77 -469 -77q-117 0 -214.5 32t-173.5 97t-118.5 172t-42.5 247v125q0 287 150 431.5t419 144.5q275 0 410 -152.5
t135 -423.5v-125zM754 715q0 81 -26 125.5t-91 44.5q-115 0 -115 -170h232zM1104 1581q0 -12 -8 -20l-183 -230q-15 -19 -25.5 -25t-33.5 -6h-451q-23 0 -33.5 6t-25.5 25l-182 230q-8 8 -8 20q0 14 18 14h307q21 0 30 -4t21 -16l99 -92l98 92q8 8 12.5 11.5t14 6t24.5 2.5
h307q19 0 19 -14z" />
    <glyph glyph-name="Gcircumflex" unicode="&#x11c;" horiz-adv-x="1378" 
d="M1266 82q0 -25 -7 -32t-36 -13q-264 -57 -490 -57q-61 0 -118.5 7t-124 27.5t-123 52.5t-110.5 86.5t-91.5 125t-60.5 172t-23 223.5v174q0 125 23.5 227.5t62 173t94 124.5t113.5 85.5t127.5 51t128.5 26t123 6.5q259 0 469 -63q30 -8 36.5 -14t6.5 -31v-301
q0 -37 -29 -37h-6q-197 20 -363 20q-89 0 -141.5 -10t-90 -39.5t-51.5 -81.5t-14 -137v-178q0 -77 11.5 -131.5t27 -82t40.5 -43t42 -18t41 -2.5q41 0 68 6v369q0 17 12 29t29 12h383q17 0 29 -12t12 -29v-686zM1180 1640q0 -14 -19 -14h-295q-21 0 -30 4.5t-21 16.5
l-98 100l-99 -100q-9 -9 -13 -12t-13.5 -6t-24.5 -3h-295q-18 0 -18 14q0 10 8 21l170 229q14 19 25 25t35 6h450q24 0 34.5 -6t24.5 -25l170 -229q9 -12 9 -21z" />
    <glyph glyph-name="gcircumflex" unicode="&#x11d;" horiz-adv-x="1288" 
d="M1268 985q0 -18 -12.5 -30t-30.5 -15l-54 -10q29 -56 29 -119v-27q0 -403 -549 -403q-122 0 -190 20q-23 -16 -23 -36q0 -28 37 -35l223 -41q211 -39 288 -64q185 -60 226 -180q13 -37 13 -82v-41q0 -95 -40 -162t-119.5 -107t-189.5 -58.5t-260 -18.5
q-267 0 -405.5 85.5t-138.5 246.5v45q0 55 29.5 109t82.5 94l-26 14q-25 12 -49.5 55t-24.5 107q0 60 32 110t77 80q-53 53 -77 111t-24 151v27q0 193 122.5 295t387.5 102h623q19 0 31 -13t12 -32v-178zM762 784v27q0 45 -24.5 69.5t-86.5 24.5t-86 -24.5t-24 -69.5v-27
q0 -46 24 -71t86 -25t86.5 25t24.5 71zM743 -72v29q0 23 -28.5 39.5t-114.5 32.5l-90 16q-2 -2 -5 -6t-5 -6.5t-4.5 -6.5t-3.5 -7.5t-2.5 -8.5t-2 -11t-0.5 -13v-45q0 -32 34.5 -58t94.5 -26q75 0 101 19t26 52zM1112 1315q0 -15 -18 -15h-295q-21 0 -30 4.5t-21 16.5
l-99 100l-98 -100q-9 -9 -13 -12t-13.5 -6t-24.5 -3h-295q-19 0 -19 15q0 8 9 20l170 230q14 19 24.5 24.5t34.5 5.5h450q25 0 35.5 -5.5t24.5 -24.5l170 -230q8 -11 8 -20z" />
    <glyph glyph-name="Gbreve" unicode="&#x11e;" horiz-adv-x="1378" 
d="M1266 82q0 -25 -7 -32t-36 -13q-264 -57 -490 -57q-61 0 -118.5 7t-124 27.5t-123 52.5t-110.5 86.5t-91.5 125t-60.5 172t-23 223.5v174q0 125 23.5 227.5t62 173t94 124.5t113.5 85.5t127.5 51t128.5 26t123 6.5q259 0 469 -63q30 -8 36.5 -14t6.5 -31v-301
q0 -37 -29 -37h-6q-197 20 -363 20q-89 0 -141.5 -10t-90 -39.5t-51.5 -81.5t-14 -137v-178q0 -77 11.5 -131.5t27 -82t40.5 -43t42 -18t41 -2.5q41 0 68 6v369q0 17 12 29t29 12h383q17 0 29 -12t12 -29v-686zM690 1618q154 0 261.5 61t183.5 193q18 30 18 49q0 21 -25 21
h-254q-18 0 -27 -5.5t-18 -21.5q-15 -22 -26.5 -33.5t-41 -23t-71.5 -11.5t-71.5 11.5t-41 23t-26.5 33.5q-9 16 -18 21.5t-27 5.5h-254q-25 0 -25 -21q0 -17 19 -49q76 -133 183.5 -193.5t260.5 -60.5z" />
    <glyph glyph-name="gbreve" unicode="&#x11f;" horiz-adv-x="1288" 
d="M1268 985q0 -18 -12.5 -30t-30.5 -15l-54 -10q29 -56 29 -119v-27q0 -403 -549 -403q-122 0 -190 20q-23 -16 -23 -36q0 -28 37 -35l223 -41q211 -39 288 -64q185 -60 226 -180q13 -37 13 -82v-41q0 -95 -40 -162t-119.5 -107t-189.5 -58.5t-260 -18.5
q-267 0 -405.5 85.5t-138.5 246.5v45q0 55 29.5 109t82.5 94l-26 14q-25 12 -49.5 55t-24.5 107q0 60 32 110t77 80q-53 53 -77 111t-24 151v27q0 193 122.5 295t387.5 102h623q19 0 31 -13t12 -32v-178zM762 784v27q0 45 -24.5 69.5t-86.5 24.5t-86 -24.5t-24 -69.5v-27
q0 -46 24 -71t86 -25t86.5 25t24.5 71zM743 -72v29q0 23 -28.5 39.5t-114.5 32.5l-90 16q-2 -2 -5 -6t-5 -6.5t-4.5 -6.5t-3.5 -7.5t-2.5 -8.5t-2 -11t-0.5 -13v-45q0 -32 34.5 -58t94.5 -26q75 0 101 19t26 52zM645 1292q154 0 261.5 61t183.5 193q18 30 18 49q0 21 -25 21
h-254q-18 0 -27 -5.5t-18 -21.5q-15 -21 -26.5 -33t-41 -23t-71.5 -11t-71.5 11t-41 23t-26.5 33q-9 16 -18 21.5t-27 5.5h-254q-25 0 -25 -21q0 -17 19 -49q76 -133 183.5 -193.5t260.5 -60.5z" />
    <glyph glyph-name="Gdotaccent" unicode="&#x120;" horiz-adv-x="1378" 
d="M1266 82q0 -25 -7 -32t-36 -13q-264 -57 -490 -57q-61 0 -118.5 7t-124 27.5t-123 52.5t-110.5 86.5t-91.5 125t-60.5 172t-23 223.5v174q0 125 23.5 227.5t62 173t94 124.5t113.5 85.5t127.5 51t128.5 26t123 6.5q259 0 469 -63q30 -8 36.5 -14t6.5 -31v-301
q0 -37 -29 -37h-6q-197 20 -363 20q-89 0 -141.5 -10t-90 -39.5t-51.5 -81.5t-14 -137v-178q0 -77 11.5 -131.5t27 -82t40.5 -43t42 -18t41 -2.5q41 0 68 6v369q0 17 12 29t29 12h383q17 0 29 -12t12 -29v-686zM958 1679q0 -17 -13 -29t-30 -12h-356q-17 0 -30 12t-13 29
v238q0 17 13 29t30 12h356q17 0 30 -12t13 -29v-238z" />
    <glyph glyph-name="gdotaccent" unicode="&#x121;" horiz-adv-x="1288" 
d="M1268 985q0 -18 -12.5 -30t-30.5 -15l-54 -10q29 -56 29 -119v-27q0 -403 -549 -403q-122 0 -190 20q-23 -16 -23 -36q0 -28 37 -35l223 -41q211 -39 288 -64q185 -60 226 -180q13 -37 13 -82v-41q0 -95 -40 -162t-119.5 -107t-189.5 -58.5t-260 -18.5
q-267 0 -405.5 85.5t-138.5 246.5v45q0 55 29.5 109t82.5 94l-26 14q-25 12 -49.5 55t-24.5 107q0 60 32 110t77 80q-53 53 -77 111t-24 151v27q0 193 122.5 295t387.5 102h623q19 0 31 -13t12 -32v-178zM762 784v27q0 45 -24.5 69.5t-86.5 24.5t-86 -24.5t-24 -69.5v-27
q0 -46 24 -71t86 -25t86.5 25t24.5 71zM743 -72v29q0 23 -28.5 39.5t-114.5 32.5l-90 16q-2 -2 -5 -6t-5 -6.5t-4.5 -6.5t-3.5 -7.5t-2.5 -8.5t-2 -11t-0.5 -13v-45q0 -32 34.5 -58t94.5 -26q75 0 101 19t26 52zM877 1341q0 -17 -13 -29t-30 -12h-357q-17 0 -30 12t-13 29
v238q0 17 13 29t30 12h357q17 0 30 -12t13 -29v-238z" />
    <glyph glyph-name="Gcommaaccent" unicode="&#x122;" horiz-adv-x="1378" 
d="M1266 82q0 -25 -7 -32t-36 -13q-264 -57 -490 -57q-61 0 -118.5 7t-124 27.5t-123 52.5t-110.5 86.5t-91.5 125t-60.5 172t-23 223.5v174q0 125 23.5 227.5t62 173t94 124.5t113.5 85.5t127.5 51t128.5 26t123 6.5q259 0 469 -63q30 -8 36.5 -14t6.5 -31v-301
q0 -37 -29 -37h-6q-197 20 -363 20q-89 0 -141.5 -10t-90 -39.5t-51.5 -81.5t-14 -137v-178q0 -77 11.5 -131.5t27 -82t40.5 -43t42 -18t41 -2.5q41 0 68 6v369q0 17 12 29t29 12h383q17 0 29 -12t12 -29v-686zM608 -92h320q23 0 26 -19q2 -5 -2 -20l-116 -221
q-16 -41 -45 -41h-250q-26 0 -29 18v23l55 221q9 39 41 39z" />
    <glyph glyph-name="gcommaaccent" unicode="&#x123;" horiz-adv-x="1288" 
d="M1268 985q0 -18 -12.5 -30t-30.5 -15l-54 -10q29 -56 29 -119v-27q0 -403 -549 -403q-122 0 -190 20q-23 -16 -23 -36q0 -28 37 -35l223 -41q211 -39 288 -64q185 -60 226 -180q13 -37 13 -82v-41q0 -95 -40 -162t-119.5 -107t-189.5 -58.5t-260 -18.5
q-267 0 -405.5 85.5t-138.5 246.5v45q0 55 29.5 109t82.5 94l-26 14q-25 12 -49.5 55t-24.5 107q0 60 32 110t77 80q-53 53 -77 111t-24 151v27q0 193 122.5 295t387.5 102h623q19 0 31 -13t12 -32v-178zM762 784v27q0 45 -24.5 69.5t-86.5 24.5t-86 -24.5t-24 -69.5v-27
q0 -46 24 -71t86 -25t86.5 25t24.5 71zM743 -72v29q0 23 -28.5 39.5t-114.5 32.5l-90 16q-2 -2 -5 -6t-5 -6.5t-4.5 -6.5t-3.5 -7.5t-2.5 -8.5t-2 -11t-0.5 -13v-45q0 -32 34.5 -58t94.5 -26q75 0 101 19t26 52zM643 1599h238q17 0 23.5 -5t6.5 -17q0 -11 -6 -35l-51 -205
q-9 -39 -41 -39h-319q-29 0 -29 21q0 13 10 31l111 209q22 40 57 40z" />
    <glyph glyph-name="Hcircumflex" unicode="&#x124;" horiz-adv-x="1542" 
d="M1430 41q0 -17 -12 -29t-29 -12h-400q-17 0 -30 12t-13 29v522h-350v-522q0 -17 -12 -29t-29 -12h-399q-17 0 -30 12t-13 29v1440q0 17 13 29t30 12h399q17 0 29 -12t12 -29v-504h350v504q0 17 13 29t30 12h400q17 0 29 -12t12 -29v-1440zM1243 1610q0 -15 -18 -15h-295
q-21 0 -30 4.5t-21 16.5l-99 100l-98 -100q-9 -9 -13 -12t-13.5 -6t-24.5 -3h-295q-19 0 -19 15q0 8 9 20l170 230q14 19 24.5 24.5t34.5 5.5h451q24 0 34.5 -5.5t24.5 -24.5l170 -230q8 -11 8 -20z" />
    <glyph glyph-name="hcircumflex" unicode="&#x125;" horiz-adv-x="1335" 
d="M1233 45q0 -19 -12 -32t-31 -13h-369q-19 0 -32 13t-13 32v709q0 51 -29 75.5t-75 24.5q-56 0 -113 -31v-778q0 -19 -11.5 -32t-29.5 -13h-368q-19 0 -33.5 13.5t-14.5 31.5v1509q0 17 12 29t29 12h373q17 0 29 -12t12 -29v-411q67 48 138.5 67t162.5 19
q88 0 154.5 -25.5t108 -67.5t67 -104.5t35.5 -129t10 -148.5v-709zM1137 1638q0 -14 -19 -14h-295q-21 0 -30 4.5t-21 16.5l-98 100l-99 -100q-9 -9 -13 -12t-13.5 -6t-24.5 -3h-295q-18 0 -18 14q0 10 8 21l170 229q14 19 25 25t35 6h450q24 0 34.5 -6t24.5 -25l170 -229
q9 -12 9 -21z" />
    <glyph glyph-name="Hbar" unicode="&#x126;" horiz-adv-x="1542" 
d="M41 1360h72v121q0 17 13 29t30 12h399q17 0 29 -12t12 -29v-121h350v121q0 17 13 29t30 12h400q17 0 29 -12t12 -29v-121h71q17 0 29 -12t12 -29v-121q0 -17 -12 -29t-29 -12h-71v-1116q0 -17 -12 -29t-29 -12h-400q-17 0 -30 12t-13 29v522h-350v-522q0 -17 -12 -29
t-29 -12h-399q-17 0 -30 12t-13 29v1116h-72q-17 0 -29 12t-12 29v121q0 17 12 29t29 12zM596 977h350v180h-350v-180z" />
    <glyph glyph-name="hbar" unicode="&#x127;" horiz-adv-x="1335" 
d="M31 1503h71v51q0 17 12 29t29 12h373q17 0 29 -12t12 -29v-51h289q17 0 29 -12t12 -29v-121q0 -17 -12 -29t-29 -12h-289v-157q67 48 138.5 67t162.5 19q88 0 154.5 -25.5t108 -67.5t67 -104.5t35.5 -129t10 -148.5v-709q0 -19 -12 -32t-31 -13h-369q-19 0 -32 13t-13 32
v709q0 51 -29 75.5t-75 24.5q-56 0 -113 -31v-778q0 -19 -11.5 -32t-29.5 -13h-368q-19 0 -33.5 13.5t-14.5 31.5v1255h-71q-17 0 -29 12t-12 29v121q0 17 12 29t29 12z" />
    <glyph glyph-name="Itilde" unicode="&#x128;" horiz-adv-x="729" 
d="M606 41q0 -17 -12 -29t-29 -12h-399q-17 0 -30 12t-13 29v1440q0 17 13 29t30 12h399q17 0 29 -12t12 -29v-1440zM819 1874q0 -149 -75 -212t-220 -63q-27 0 -72.5 12t-78.5 29l-80 41q-51 25 -76 25q-29 0 -29 -27v-32q0 -35 -36 -35h-199q-37 0 -37 35v32
q0 146 76.5 210.5t220.5 64.5q28 0 72.5 -11t76.5 -28l80 -41q56 -27 78 -27q27 0 27 29v33q0 35 37 35h198q37 0 37 -35v-35z" />
    <glyph glyph-name="itilde" unicode="&#x129;" horiz-adv-x="673" 
d="M567 45q0 -19 -13 -32t-32 -13h-366q-19 0 -33 13t-14 32v1120q0 18 14 30.5t33 12.5h366q19 0 32 -12t13 -31v-1120zM795 1563q0 -149 -75 -212t-220 -63q-27 0 -73 12t-79 29l-80 41q-51 25 -75 25q-29 0 -29 -27v-33q0 -35 -37 -35h-199q-37 0 -37 35v33
q0 146 76.5 210t220.5 64q28 0 73 -11t77 -27l80 -41q55 -27 78 -27q26 0 26 29v32q0 35 37 35h199q37 0 37 -35v-34z" />
    <glyph glyph-name="Imacron" unicode="&#x12a;" horiz-adv-x="729" 
d="M606 41q0 -17 -12 -29t-29 -12h-399q-17 0 -30 12t-13 29v1440q0 17 13 29t30 12h399q17 0 29 -12t12 -29v-1440zM768 1667q0 -17 -12 -29t-29 -12h-725q-17 0 -29 12t-12 29v213q0 17 12 29t29 12h725q17 0 29 -12t12 -29v-213z" />
    <glyph glyph-name="imacron" unicode="&#x12b;" horiz-adv-x="673" 
d="M567 45q0 -19 -13 -32t-32 -13h-366q-19 0 -33 13t-14 32v1120q0 18 14 30.5t33 12.5h366q19 0 32 -12t13 -31v-1120zM739 1341q0 -17 -12 -29t-29 -12h-725q-17 0 -29 12t-12 29v213q0 17 12 29t29 12h725q17 0 29 -12t12 -29v-213z" />
    <glyph glyph-name="Ibreve" unicode="&#x12c;" horiz-adv-x="729" 
d="M606 41q0 -17 -12 -29t-29 -12h-399q-17 0 -30 12t-13 29v1440q0 17 13 29t30 12h399q17 0 29 -12t12 -29v-1440zM369 1610q153 0 260.5 60.5t183.5 193.5q18 30 18 49q0 20 -24 20h-254q-18 0 -27 -5.5t-18 -20.5q-15 -22 -26.5 -33.5t-41 -23t-71.5 -11.5t-71.5 11.5
t-41.5 23.5t-27 33q-9 15 -18 20.5t-27 5.5h-254q-24 0 -24 -20q0 -19 18 -49q76 -132 183.5 -193t261.5 -61z" />
    <glyph glyph-name="ibreve" unicode="&#x12d;" horiz-adv-x="673" 
d="M567 45q0 -19 -13 -32t-32 -13h-366q-19 0 -33 13t-14 32v1120q0 18 14 30.5t33 12.5h366q19 0 32 -12t13 -31v-1120zM340 1292q153 0 260.5 60.5t183.5 193.5q19 32 19 49q0 21 -25 21h-254q-18 0 -27 -5.5t-18 -21.5q-15 -21 -26.5 -33t-41 -23t-71.5 -11t-71.5 11
t-41 23t-26.5 33q-9 16 -18 21.5t-27 5.5h-254q-25 0 -25 -21q0 -17 19 -49q76 -133 183.5 -193.5t260.5 -60.5z" />
    <glyph glyph-name="Iogonek" unicode="&#x12e;" horiz-adv-x="729" 
d="M604 41q0 -28 -31 -41l-106 -43q-74 -31 -74 -80q0 -55 82 -55q30 0 81 7t60 7q13 0 17 -4.5t4 -19.5v-152q0 -20 -23 -31q-31 -13 -109 -27t-163 -14q-66 0 -121.5 13.5t-102 42.5t-72.5 79.5t-26 118.5q0 105 101 164v1475q0 17 13 29t30 12h399q17 0 29 -12t12 -29
v-1440z" />
    <glyph glyph-name="iogonek" unicode="&#x12f;" horiz-adv-x="673" 
d="M565 45q0 -20 -6 -30.5t-29 -18.5l-94 -39q-80 -31 -80 -76q0 -59 90 -59q41 0 111 12q24 4 31 4q26 0 26 -31v-155q0 -10 -0.5 -13.5t-5.5 -9t-16 -8.5q-129 -33 -262 -33q-49 0 -93.5 6.5t-89 24t-77 44t-52.5 69.5t-20 98q0 107 108 176v1159q0 18 14.5 30.5
t33.5 12.5h366q19 0 32 -12t13 -31v-1120zM575 1343q0 -18 -14 -30.5t-33 -12.5h-387q-19 0 -33 12.5t-14 30.5v209q0 18 14 30.5t33 12.5h387q19 0 33 -12.5t14 -30.5v-209z" />
    <glyph glyph-name="Idotaccent" unicode="&#x130;" horiz-adv-x="729" 
d="M606 41q0 -17 -12 -29t-29 -12h-399q-17 0 -30 12t-13 29v1440q0 17 13 29t30 12h399q17 0 29 -12t12 -29v-1440zM586 1679q0 -17 -13 -29t-30 -12h-357q-17 0 -30 12t-13 29v238q0 17 13 29t30 12h357q17 0 30 -12t13 -29v-238z" />
    <glyph glyph-name="dotlessi" unicode="&#x131;" horiz-adv-x="673" 
d="M567 45q0 -19 -13 -32t-32 -13h-366q-19 0 -33 13t-14 32v1120q0 18 14 30.5t33 12.5h366q19 0 32 -12t13 -31v-1120z" />
    <glyph glyph-name="IJ" unicode="&#x132;" horiz-adv-x="1458" 
d="M606 41q0 -17 -12 -29t-29 -12h-399q-17 0 -30 12t-13 29v1440q0 17 13 29t30 12h399q17 0 29 -12t12 -29v-1440zM1335 10q0 -230 -102 -331t-287 -101q-145 0 -227 12q-41 7 -41 41v275q0 17 12 29t29 12h88q28 0 36.5 12.5t8.5 50.5v1471q0 17 13 29t30 12h399
q17 0 29 -12t12 -29v-1471z" />
    <glyph glyph-name="ij" unicode="&#x133;" horiz-adv-x="1347" 
d="M578 1343q0 -18 -14.5 -30.5t-33.5 -12.5h-387q-19 0 -33 12.5t-14 30.5v209q0 18 14 30.5t33 12.5h387q19 0 33.5 -12.5t14.5 -30.5v-209zM567 45q0 -19 -13 -32t-32 -13h-366q-19 0 -33 13t-14 32v1120q0 18 14 30.5t33 12.5h366q19 0 32 -12t13 -31v-1120zM1251 1343
q0 -18 -14 -30.5t-33 -12.5h-387q-19 0 -33 12.5t-14 30.5v209q0 18 14 30.5t33 12.5h387q19 0 33 -12.5t14 -30.5v-209zM1241 -23q0 -115 -27 -196t-78.5 -126t-115.5 -65t-148 -20q-90 0 -219 22q-19 3 -31 15.5t-12 30.5v221q0 19 12 31t31 12h86q27 0 35 19t8 56v1188
q0 18 14 30.5t33 12.5h367q19 0 32 -12t13 -31v-1188z" />
    <glyph glyph-name="Jcircumflex" unicode="&#x134;" horiz-adv-x="729" 
d="M606 10q0 -230 -102 -331t-287 -101q-145 0 -227 12q-41 7 -41 41v275q0 17 12 29t29 12h88q28 0 36.5 12.5t8.5 50.5v1471q0 17 13 29t30 12h399q17 0 29 -12t12 -29v-1471zM829 1626q0 -14 -18 -14h-295q-21 0 -30 4t-21 16l-98 101l-99 -101q-8 -8 -12.5 -11.5t-14 -6
t-24.5 -2.5h-295q-18 0 -18 14q0 10 8 21l170 229q14 19 24.5 25t34.5 6h451q24 0 34.5 -6t24.5 -25l170 -229q8 -11 8 -21z" />
    <glyph glyph-name="jcircumflex" unicode="&#x135;" horiz-adv-x="673" 
d="M563 1174q2 -4 2 -9v-1188q0 -115 -26.5 -196t-77 -126t-114.5 -65t-148 -20q-91 0 -217 22q-36 6 -43 37v9v221q0 19 12 31t31 12h84q18 0 27.5 11.5t11 24.5t1.5 39v1188q0 18 14.5 30.5t33.5 12.5h366q17 0 29.5 -9.5t13.5 -24.5zM801 1315q0 -15 -19 -15h-295
q-21 0 -30 4.5t-21 16.5l-98 100l-98 -100q-9 -9 -13.5 -12.5t-14 -6t-24.5 -2.5h-294q-19 0 -19 15q0 9 8 20l170 230q14 19 24.5 24.5t35.5 5.5h450q25 0 35.5 -5.5t24.5 -24.5l170 -230q8 -11 8 -20z" />
    <glyph glyph-name="Kcommaaccent" unicode="&#x136;" horiz-adv-x="1523" 
d="M1477 25q0 -25 -25 -25h-508q-4 0 -7 0.5t-6 2.5t-5.5 3t-5 4.5t-4 5t-3.5 6t-3 6t-3.5 6.5l-3.5 7l-307 629v-629q0 -17 -12 -29t-29 -12h-399q-17 0 -30 12t-13 29v1440q0 17 13 29t30 12h399q17 0 29 -12t12 -29v-645l338 645q7 14 11 20.5t12.5 13.5t19.5 7h473
q25 0 25 -25q0 -9 -5 -16l-405 -717l408 -723q4 -6 4 -16zM606 -90h320q23 0 26 -19q2 -5 -2 -20l-116 -221q-16 -41 -46 -41h-249q-26 0 -29 18v23l55 221q9 39 41 39z" />
    <glyph glyph-name="kcommaaccent" unicode="&#x137;" horiz-adv-x="1370" 
d="M1321 29q0 -29 -27 -29h-442q-22 0 -37 8.5t-29 36.5l-229 469v-469q0 -19 -11.5 -32t-29.5 -13h-366q-19 0 -33.5 13.5t-14.5 31.5v1507q0 18 14.5 30.5t33.5 12.5h366q19 0 30 -12t11 -31v-856l246 469q14 28 28 35.5t37 7.5h408q33 0 33 -28q0 -11 -6 -23l-322 -532
l336 -576q4 -6 4 -20zM528 -90h320q23 0 26 -19q2 -5 -2 -20l-116 -221q-16 -41 -45 -41h-250q-26 0 -29 18v23l55 221q9 39 41 39z" />
    <glyph glyph-name="kgreenlandic" unicode="&#x138;" horiz-adv-x="1370" 
d="M1321 29q0 -29 -27 -29h-442q-22 0 -37 8.5t-29 36.5l-229 469v-469q0 -19 -11.5 -32t-29.5 -13h-366q-19 0 -33.5 13.5t-14.5 31.5v1120q0 18 14.5 30.5t33.5 12.5h366q19 0 30 -12t11 -31v-469l246 469q14 28 28 35.5t37 7.5h408q33 0 33 -28q0 -11 -6 -23l-322 -532
l336 -576q4 -6 4 -20z" />
    <glyph glyph-name="Lacute" unicode="&#x139;" horiz-adv-x="1064" 
d="M1014 43q0 -34 -41 -41q-129 -22 -309 -22q-61 0 -112.5 4.5t-109.5 17.5t-103.5 34.5t-89 58t-72.5 85.5t-46.5 120t-17.5 159v1022q0 17 13 29t30 12h399q17 0 29 -12t12 -29v-1022q0 -38 14.5 -52t53.5 -14h309q17 0 29 -12t12 -29v-309zM930 1907q0 -7 -10 -17
l-267 -243q-9 -9 -13 -12t-13.5 -6t-24.5 -3h-307q-19 0 -19 14q0 12 9 21l182 229q15 19 25.5 25t33.5 6h379q25 0 25 -14z" />
    <glyph glyph-name="lacute" unicode="&#x13a;" horiz-adv-x="663" 
d="M561 45q0 -19 -12 -32t-31 -13h-368q-19 0 -33.5 13.5t-14.5 31.5v1507q0 18 14.5 30.5t33.5 12.5h368q19 0 31 -12t12 -31v-1507zM729 1907q0 -7 -10 -17l-266 -243q-9 -9 -13.5 -12.5t-14 -6t-24.5 -2.5h-307q-18 0 -18 14q0 13 8 21l182 229q15 19 26 25t34 6h379
q24 0 24 -14z" />
    <glyph glyph-name="Lcommaaccent" unicode="&#x13b;" horiz-adv-x="1064" 
d="M1014 43q0 -34 -41 -41q-129 -22 -309 -22q-61 0 -112.5 4.5t-109.5 17.5t-103.5 34.5t-89 58t-72.5 85.5t-46.5 120t-17.5 159v1022q0 17 13 29t30 12h399q17 0 29 -12t12 -29v-1022q0 -38 14.5 -52t53.5 -14h309q17 0 29 -12t12 -29v-309zM408 -92h319q24 0 27 -19
q2 -5 -2 -20l-117 -221q-16 -41 -45 -41h-250q-26 0 -29 18v23l56 221q9 39 41 39z" />
    <glyph glyph-name="lcommaaccent" unicode="&#x13c;" horiz-adv-x="663" 
d="M561 45q0 -19 -12 -32t-31 -13h-368q-19 0 -33.5 13.5t-14.5 31.5v1507q0 18 14.5 30.5t33.5 12.5h368q19 0 31 -12t12 -31v-1507zM178 -92h320q23 0 26 -19q2 -5 -2 -20l-116 -221q-16 -41 -46 -41h-249q-26 0 -29 18v23l55 221q9 39 41 39z" />
    <glyph glyph-name="Lcaron" unicode="&#x13d;" horiz-adv-x="1064" 
d="M1014 43q0 -34 -41 -41q-129 -22 -309 -22q-61 0 -112.5 4.5t-109.5 17.5t-103.5 34.5t-89 58t-72.5 85.5t-46.5 120t-17.5 159v1022q0 17 13 29t30 12h399q17 0 29 -12t12 -29v-1022q0 -38 14.5 -52t53.5 -14h309q17 0 29 -12t12 -29v-309zM868 1595h295q13 0 19.5 -8.5
t-0.5 -30.5l-203 -471q-8 -21 -16 -29.5t-23 -8.5h-223q-25 0 -25 24q0 10 2 14l131 471q11 39 43 39z" />
    <glyph glyph-name="lcaron" unicode="&#x13e;" horiz-adv-x="1134" 
d="M561 45q0 -19 -12 -32t-31 -13h-368q-19 0 -33.5 13.5t-14.5 31.5v1507q0 18 14.5 30.5t33.5 12.5h368q19 0 31 -12t12 -31v-1507zM846 1595h295q13 0 19 -8.5t-1 -30.5l-203 -471q-8 -21 -16 -29.5t-22 -8.5h-224q-24 0 -24 24q0 10 2 14l131 471q11 39 43 39z" />
    <glyph glyph-name="Ldot" unicode="&#x13f;" horiz-adv-x="1064" 
d="M1014 43q0 -34 -41 -41q-129 -22 -309 -22q-61 0 -112.5 4.5t-109.5 17.5t-103.5 34.5t-89 58t-72.5 85.5t-46.5 120t-17.5 159v1022q0 17 13 29t30 12h399q17 0 29 -12t12 -29v-1022q0 -38 14.5 -52t53.5 -14h309q17 0 29 -12t12 -29v-309zM1200 721q0 -17 -13 -29
t-30 -12h-356q-17 0 -30 12t-13 29v237q0 17 13 29t30 12h356q17 0 30 -12t13 -29v-237z" />
    <glyph glyph-name="ldot" unicode="&#x140;" horiz-adv-x="1126" 
d="M1106 721q0 -17 -13 -29t-30 -12h-356q-17 0 -30 12t-13 29v237q0 17 13 29t30 12h356q17 0 30 -12t13 -29v-237zM561 45q0 -19 -12 -32t-31 -13h-368q-19 0 -33.5 13.5t-14.5 31.5v1507q0 18 14.5 30.5t33.5 12.5h368q19 0 31 -12t12 -31v-1507z" />
    <glyph glyph-name="Lslash" unicode="&#x141;" horiz-adv-x="1064" 
d="M1014 43q0 -34 -41 -41q-129 -22 -309 -22q-81 0 -146.5 7.5t-138 33t-124 67t-89.5 115.5t-49 174l-64 -53q-15 -11 -20 -11q-13 0 -13 17v397q0 22 13 33l80 67v654q0 17 13 29t30 12h399q17 0 29 -12t12 -29v-242l102 88q15 12 23 12t8 -18v-397q0 -25 -14 -37
l-119 -101v-327q0 -38 14.5 -52t53.5 -14h309q17 0 29 -12t12 -29v-309z" />
    <glyph glyph-name="lslash" unicode="&#x142;" horiz-adv-x="663" 
d="M688 924q0 -25 -14 -37l-111 -94v-748q0 -19 -12 -32t-31 -13h-368q-19 0 -33.5 13.5t-14.5 31.5v356l-92 -77q-15 -11 -20 -11q-12 0 -12 17v397q0 23 12 33l112 96v696q0 18 14.5 30.5t33.5 12.5h368q19 0 31 -12t12 -31v-305l94 80q15 12 23 12t8 -18v-397z" />
    <glyph glyph-name="Nacute" unicode="&#x143;" horiz-adv-x="1562" 
d="M1440 72q0 -29 -21.5 -50.5t-50.5 -21.5h-350q-41 0 -66 45l-338 563q-11 17 -18 17h-2q-10 0 -10 -19v-565q0 -17 -13 -29t-30 -12h-375q-17 0 -30 12t-13 29v1409q0 29 21.5 50.5t50.5 21.5h335q46 0 78 -58l344 -565q10 -18 21 -18q4 0 5.5 0.5t3 4.5t1.5 13v582
q0 17 12 29t29 12h375q17 0 29 -12t12 -29v-1409zM1180 1907q0 -6 -11 -17l-266 -243q-9 -9 -13 -12t-13.5 -6t-24.5 -3h-307q-19 0 -19 14q0 12 9 21l182 229q15 19 25.5 25t33.5 6h379q25 0 25 -14z" />
    <glyph glyph-name="nacute" unicode="&#x144;" horiz-adv-x="1335" 
d="M1233 45q0 -19 -12 -32t-31 -13h-369q-19 0 -32 13t-13 32v709q0 51 -29 75.5t-75 24.5q-56 0 -113 -31v-778q0 -19 -11.5 -32t-29.5 -13h-368q-19 0 -33.5 13.5t-14.5 31.5v1122q0 17 12 29t29 12h338q17 0 29 -12t12 -29v-57q81 66 148 92.5t188 26.5q88 0 154.5 -25.5
t108 -67.5t67 -104.5t35.5 -129t10 -148.5v-709zM1067 1581q0 -6 -10 -16l-266 -244q-9 -9 -13.5 -12.5t-14 -6t-24.5 -2.5h-307q-18 0 -18 15q0 12 8 20l182 230q14 18 25 24t35 6h378q25 0 25 -14z" />
    <glyph glyph-name="Ncommaaccent" unicode="&#x145;" horiz-adv-x="1562" 
d="M1440 72q0 -29 -21.5 -50.5t-50.5 -21.5h-350q-41 0 -66 45l-338 563q-11 17 -18 17h-2q-10 0 -10 -19v-565q0 -17 -13 -29t-30 -12h-375q-17 0 -30 12t-13 29v1409q0 29 21.5 50.5t50.5 21.5h335q46 0 78 -58l344 -565q10 -18 21 -18q4 0 5.5 0.5t3 4.5t1.5 13v582
q0 17 12 29t29 12h375q17 0 29 -12t12 -29v-1409zM637 -90h319q24 0 27 -19q2 -5 -2 -20l-117 -221q-16 -41 -45 -41h-250q-25 0 -28 18v23l55 221q9 39 41 39z" />
    <glyph glyph-name="ncommaaccent" unicode="&#x146;" horiz-adv-x="1335" 
d="M1233 45q0 -19 -12 -32t-31 -13h-369q-19 0 -32 13t-13 32v709q0 51 -29 75.5t-75 24.5q-56 0 -113 -31v-778q0 -19 -11.5 -32t-29.5 -13h-368q-19 0 -33.5 13.5t-14.5 31.5v1122q0 17 12 29t29 12h338q17 0 29 -12t12 -29v-57q81 66 148 92.5t188 26.5q88 0 154.5 -25.5
t108 -67.5t67 -104.5t35.5 -129t10 -148.5v-709zM514 -92h320q23 0 26 -19q2 -5 -2 -20l-117 -221q-16 -41 -45 -41h-250q-25 0 -28 18v23l55 221q9 39 41 39z" />
    <glyph glyph-name="Ncaron" unicode="&#x147;" horiz-adv-x="1562" 
d="M1440 72q0 -29 -21.5 -50.5t-50.5 -21.5h-350q-41 0 -66 45l-338 563q-11 17 -18 17h-2q-10 0 -10 -19v-565q0 -17 -13 -29t-30 -12h-375q-17 0 -30 12t-13 29v1409q0 29 21.5 50.5t50.5 21.5h335q46 0 78 -58l344 -565q10 -18 21 -18q4 0 5.5 0.5t3 4.5t1.5 13v582
q0 17 12 29t29 12h375q17 0 29 -12t12 -29v-1409zM1257 1907q0 -13 -8 -21l-182 -229q-15 -19 -25.5 -25t-33.5 -6h-451q-23 0 -33.5 6t-25.5 25l-183 229q-8 8 -8 21q0 14 19 14h307q21 0 30 -4t21 -16l98 -93l99 93q8 8 12.5 11.5t14 6t24.5 2.5h307q18 0 18 -14z" />
    <glyph glyph-name="ncaron" unicode="&#x148;" horiz-adv-x="1335" 
d="M1233 45q0 -19 -12 -32t-31 -13h-369q-19 0 -32 13t-13 32v709q0 51 -29 75.5t-75 24.5q-56 0 -113 -31v-778q0 -19 -11.5 -32t-29.5 -13h-368q-19 0 -33.5 13.5t-14.5 31.5v1122q0 17 12 29t29 12h338q17 0 29 -12t12 -29v-57q81 66 148 92.5t188 26.5q88 0 154.5 -25.5
t108 -67.5t67 -104.5t35.5 -129t10 -148.5v-709zM1143 1581q0 -12 -8 -20l-183 -230q-15 -19 -25.5 -25t-33.5 -6h-451q-23 0 -33.5 6t-25.5 25l-182 230q-8 8 -8 20q0 14 18 14h307q21 0 30 -4t21 -16l99 -92l98 92q8 8 12.5 11.5t14 6t24.5 2.5h307q19 0 19 -14z" />
    <glyph glyph-name="napostrophe" unicode="&#x149;" horiz-adv-x="1779" 
d="M1677 45q0 -19 -12 -32t-31 -13h-368q-19 0 -32 13t-13 32v709q0 51 -29.5 75.5t-75.5 24.5q-55 0 -112 -31v-778q0 -19 -11.5 -32t-29.5 -13h-369q-19 0 -33 13t-14 32v1122q0 17 12 29t29 12h338q17 0 29 -12t12 -29v-57q81 66 148 92.5t188 26.5q88 0 154.5 -25.5
t107.5 -67.5t66.5 -104.5t35.5 -129t10 -148.5v-709zM549 1573q0 -5 -4 -17l-180 -495q-8 -21 -16.5 -30t-22.5 -9h-297q-19 0 -19 20q0 13 2 19l125 495q11 39 41 39h346q25 0 25 -22z" />
    <glyph glyph-name="Eng" unicode="&#x14a;" horiz-adv-x="1562" 
d="M1440 1481v-1471q0 -230 -102 -331t-287 -101q-146 0 -228 12q-41 7 -41 41v275q0 17 12 29t29 12h88q28 0 36.5 12.5t8.5 50.5v27l-342 571q-11 17 -18 17h-2q-10 0 -10 -19v-565q0 -17 -13 -29t-30 -12h-375q-17 0 -30 12t-13 29v1409q0 29 21.5 50.5t50.5 21.5h335
q46 0 78 -58l344 -565q10 -18 21 -18q4 0 5.5 0.5t3 4.5t1.5 13v582q0 17 12 29t29 12h375q17 0 29 -12t12 -29z" />
    <glyph glyph-name="eng" unicode="&#x14b;" horiz-adv-x="1335" 
d="M1233 -23q0 -115 -26.5 -196t-77.5 -126t-115 -65t-148 -20q-90 0 -219 22q-19 3 -31 15.5t-12 30.5v221q0 19 12 31t31 12h86q27 0 35 19t8 56v777q0 51 -29 75.5t-75 24.5q-56 0 -113 -31v-778q0 -19 -11.5 -32t-29.5 -13h-368q-19 0 -33.5 13.5t-14.5 31.5v1122
q0 17 12 29t29 12h338q17 0 29 -12t12 -29v-57q81 66 148 92.5t188 26.5q88 0 154.5 -25.5t108 -67.5t67 -104.5t35.5 -129t10 -148.5v-777z" />
    <glyph glyph-name="Omacron" unicode="&#x14c;" horiz-adv-x="1466" 
d="M1384 672q0 -152 -35.5 -272t-95.5 -197.5t-144.5 -128.5t-177 -72.5t-198.5 -21.5t-198.5 21.5t-177 72.5t-144.5 128.5t-95.5 197.5t-35.5 272v178q0 152 35.5 272t95.5 197.5t144.5 128.5t177 72.5t198.5 21.5t198.5 -21.5t177 -72.5t144.5 -128.5t95.5 -197.5
t35.5 -272v-178zM895 672v178q0 145 -37.5 205.5t-124.5 60.5t-124.5 -60.5t-37.5 -205.5v-178q0 -145 37.5 -205.5t124.5 -60.5t124.5 60.5t37.5 205.5zM1137 1667q0 -17 -12 -29t-29 -12h-725q-17 0 -29 12t-12 29v213q0 17 12 29t29 12h725q17 0 29 -12t12 -29v-213z" />
    <glyph glyph-name="omacron" unicode="&#x14d;" horiz-adv-x="1269" 
d="M1198 557q0 -290 -147 -433.5t-416 -143.5t-416 143.5t-147 433.5v94q0 290 147 434t416 144t416 -144t147 -434v-94zM743 557v94q0 115 -26 158t-82 43t-82.5 -43.5t-26.5 -157.5v-94q0 -114 26.5 -157.5t82.5 -43.5t82 43t26 158zM1038 1341q0 -17 -12 -29t-29 -12
h-725q-17 0 -29 12t-12 29v213q0 17 12 29t29 12h725q17 0 29 -12t12 -29v-213z" />
    <glyph glyph-name="Obreve" unicode="&#x14e;" horiz-adv-x="1466" 
d="M1384 672q0 -152 -35.5 -272t-95.5 -197.5t-144.5 -128.5t-177 -72.5t-198.5 -21.5t-198.5 21.5t-177 72.5t-144.5 128.5t-95.5 197.5t-35.5 272v178q0 152 35.5 272t95.5 197.5t144.5 128.5t177 72.5t198.5 21.5t198.5 -21.5t177 -72.5t144.5 -128.5t95.5 -197.5
t35.5 -272v-178zM895 672v178q0 145 -37.5 205.5t-124.5 60.5t-124.5 -60.5t-37.5 -205.5v-178q0 -145 37.5 -205.5t124.5 -60.5t124.5 60.5t37.5 205.5zM729 1612q154 0 261.5 61t183.5 193q18 30 18 49q0 20 -25 20h-254q-18 0 -27 -5.5t-18 -20.5q-15 -22 -26.5 -33.5
t-41 -23t-71.5 -11.5t-71.5 11.5t-41 23t-26.5 33.5q-9 15 -18 20.5t-27 5.5h-254q-25 0 -25 -20q0 -17 19 -49q76 -133 183.5 -193.5t260.5 -60.5z" />
    <glyph glyph-name="obreve" unicode="&#x14f;" horiz-adv-x="1269" 
d="M1198 557q0 -290 -147 -433.5t-416 -143.5t-416 143.5t-147 433.5v94q0 290 147 434t416 144t416 -144t147 -434v-94zM743 557v94q0 115 -26 158t-82 43t-82.5 -43.5t-26.5 -157.5v-94q0 -114 26.5 -157.5t82.5 -43.5t82 43t26 158zM633 1292q153 0 260.5 60.5
t183.5 193.5q19 32 19 49q0 21 -25 21h-254q-18 0 -27 -5.5t-18 -21.5q-15 -21 -26.5 -33t-41 -23t-71.5 -11t-71.5 11t-41 23t-26.5 33q-9 16 -18 21.5t-27 5.5h-254q-25 0 -25 -21q0 -19 18 -49q76 -132 183.5 -193t261.5 -61z" />
    <glyph glyph-name="Ohungarumlaut" unicode="&#x150;" horiz-adv-x="1466" 
d="M1384 672q0 -152 -35.5 -272t-95.5 -197.5t-144.5 -128.5t-177 -72.5t-198.5 -21.5t-198.5 21.5t-177 72.5t-144.5 128.5t-95.5 197.5t-35.5 272v178q0 152 35.5 272t95.5 197.5t144.5 128.5t177 72.5t198.5 21.5t198.5 -21.5t177 -72.5t144.5 -128.5t95.5 -197.5
t35.5 -272v-178zM895 672v178q0 145 -37.5 205.5t-124.5 60.5t-124.5 -60.5t-37.5 -205.5v-178q0 -145 37.5 -205.5t124.5 -60.5t124.5 60.5t37.5 205.5zM1419 1907q0 -7 -10 -17l-266 -243q-9 -9 -13 -12t-13.5 -6t-24.5 -3h-308q-18 0 -18 14q0 13 8 21l182 229
q15 19 26 25t34 6h379q24 0 24 -14zM846 1907q0 -7 -10 -17l-267 -243q-9 -9 -13 -12t-13.5 -6t-24.5 -3h-307q-18 0 -18 14q0 13 8 21l182 229q15 19 25.5 25t33.5 6h379q25 0 25 -14z" />
    <glyph glyph-name="ohungarumlaut" unicode="&#x151;" horiz-adv-x="1269" 
d="M1198 557q0 -290 -147 -433.5t-416 -143.5t-416 143.5t-147 433.5v94q0 290 147 434t416 144t416 -144t147 -434v-94zM743 557v94q0 115 -26 158t-82 43t-82.5 -43.5t-26.5 -157.5v-94q0 -114 26.5 -157.5t82.5 -43.5t82 43t26 158zM1321 1581q0 -6 -10 -16l-267 -244
q-9 -9 -13 -12t-13.5 -6t-24.5 -3h-307q-18 0 -18 15q0 12 8 20l182 230q14 18 25 24t35 6h378q25 0 25 -14zM748 1581q0 -5 -11 -16l-266 -244q-9 -9 -13 -12t-13.5 -6t-24.5 -3h-307q-19 0 -19 15q0 12 8 20l183 230q14 18 24.5 24t34.5 6h379q25 0 25 -14z" />
    <glyph glyph-name="OE" unicode="&#x152;" horiz-adv-x="2007" 
d="M1905 43q0 -17 -11.5 -28t-29.5 -13q-185 -22 -412 -22q-243 0 -367 79q-149 -79 -352 -79q-106 0 -198.5 21.5t-177 72.5t-144.5 128.5t-95.5 197.5t-35.5 272v178q0 152 35.5 272t95.5 197.5t144.5 128.5t177 72.5t198.5 21.5q201 0 352 -80q126 80 367 80
q227 0 412 -22q18 -2 29.5 -13t11.5 -28v-310q0 -17 -12 -29t-29 -12h-412q-39 0 -53.5 -13.5t-14.5 -51.5v-111h480q17 0 29 -12t12 -29v-288q0 -17 -12 -29t-29 -12h-480v-123q0 -38 14.5 -52t53.5 -14h412q17 0 29 -12t12 -29v-309zM895 672v178q0 145 -37.5 205.5
t-124.5 60.5t-124.5 -60.5t-37.5 -205.5v-178q0 -145 37.5 -205.5t124.5 -60.5t124.5 60.5t37.5 205.5z" />
    <glyph glyph-name="oe" unicode="&#x153;" horiz-adv-x="1933" 
d="M1862 528q0 -19 -13 -31t-32 -12h-619q0 -77 36 -104t140 -27q65 0 197.5 5t187.5 10h8q37 0 37 -37v-215q0 -26 -8 -38.5t-31 -21.5q-187 -77 -469 -77q-187 0 -323 102q-142 -102 -338 -102q-269 0 -416 143.5t-147 433.5v94q0 290 147 434t416 144q194 0 342 -105
q142 105 340 105q275 0 410 -152.5t135 -423.5v-125zM1430 715q0 81 -26 125.5t-91 44.5q-115 0 -115 -170h232zM743 557v94q0 115 -26 158t-82 43t-82.5 -43.5t-26.5 -157.5v-94q0 -114 26.5 -157.5t82.5 -43.5t82 43t26 158z" />
    <glyph glyph-name="Racute" unicode="&#x154;" horiz-adv-x="1497" 
d="M1425 37q0 -17 -11 -27t-25 -10h-443q-4 0 -7 0.5t-6 2.5t-5.5 3t-5 4.5t-4 5t-3.5 6t-3 6t-3.5 6.5l-3.5 7l-243 481h-66v-481q0 -17 -12 -29t-29 -12h-399q-17 0 -30 12t-13 29v1302q0 93 29 127t114 48q55 8 201 16t248 8q160 0 279 -25.5t208 -83.5t134.5 -158.5
t45.5 -242.5v-41q0 -151 -69.5 -253t-165.5 -144l282 -535q6 -12 6 -22zM891 989v41q0 55 -32.5 82t-108.5 27h-154v-258h154q71 0 106 31t35 77zM1147 1907q0 -7 -10 -17l-267 -243q-9 -9 -13 -12t-13.5 -6t-24.5 -3h-307q-18 0 -18 14q0 13 8 21l182 229q15 19 25.5 25
t33.5 6h379q25 0 25 -14z" />
    <glyph glyph-name="racute" unicode="&#x155;" horiz-adv-x="899" 
d="M846 899q0 -17 -12 -29t-29 -12h-17h-24q-142 0 -205 -35v-778q0 -19 -11.5 -32t-29.5 -13h-368q-19 0 -33.5 13.5t-14.5 31.5v1122q0 17 12 29t29 12h338q17 0 29 -12t12 -29v-59q59 64 133.5 92.5t132.5 28.5h17q17 0 29 -12t12 -29v-289zM848 1581q0 -6 -10 -16
l-267 -244q-9 -9 -13 -12t-13.5 -6t-24.5 -3h-307q-18 0 -18 15q0 12 8 20l182 230q14 18 24.5 24t34.5 6h379q25 0 25 -14z" />
    <glyph glyph-name="Rcommaaccent" unicode="&#x156;" horiz-adv-x="1497" 
d="M1425 37q0 -17 -11 -27t-25 -10h-443q-4 0 -7 0.5t-6 2.5t-5.5 3t-5 4.5t-4 5t-3.5 6t-3 6t-3.5 6.5l-3.5 7l-243 481h-66v-481q0 -17 -12 -29t-29 -12h-399q-17 0 -30 12t-13 29v1302q0 93 29 127t114 48q55 8 201 16t248 8q160 0 279 -25.5t208 -83.5t134.5 -158.5
t45.5 -242.5v-41q0 -151 -69.5 -253t-165.5 -144l282 -535q6 -12 6 -22zM891 989v41q0 55 -32.5 82t-108.5 27h-154v-258h154q71 0 106 31t35 77zM598 -92h320q23 0 26 -19q2 -5 -2 -20l-117 -221q-16 -41 -45 -41h-250q-25 0 -28 18v23l55 221q9 39 41 39z" />
    <glyph glyph-name="rcommaaccent" unicode="&#x157;" horiz-adv-x="899" 
d="M846 899q0 -17 -12 -29t-29 -12h-17h-24q-142 0 -205 -35v-778q0 -19 -11.5 -32t-29.5 -13h-368q-19 0 -33.5 13.5t-14.5 31.5v1122q0 17 12 29t29 12h338q17 0 29 -12t12 -29v-59q59 64 133.5 92.5t132.5 28.5h17q17 0 29 -12t12 -29v-289zM322 -92h319q24 0 27 -19
q2 -5 -2 -20l-117 -221q-16 -41 -45 -41h-250q-26 0 -29 18v23l56 221q9 39 41 39z" />
    <glyph glyph-name="Rcaron" unicode="&#x158;" horiz-adv-x="1497" 
d="M1425 37q0 -17 -11 -27t-25 -10h-443q-4 0 -7 0.5t-6 2.5t-5.5 3t-5 4.5t-4 5t-3.5 6t-3 6t-3.5 6.5l-3.5 7l-243 481h-66v-481q0 -17 -12 -29t-29 -12h-399q-17 0 -30 12t-13 29v1302q0 93 29 127t114 48q55 8 201 16t248 8q160 0 279 -25.5t208 -83.5t134.5 -158.5
t45.5 -242.5v-41q0 -151 -69.5 -253t-165.5 -144l282 -535q6 -12 6 -22zM891 989v41q0 55 -32.5 82t-108.5 27h-154v-258h154q71 0 106 31t35 77zM1225 1907q0 -13 -8 -21l-183 -229q-15 -19 -25.5 -25t-33.5 -6h-451q-23 0 -33.5 6t-25.5 25l-182 229q-9 9 -9 21
q0 14 19 14h307q21 0 30 -4t21 -16l99 -93l98 93q8 8 12.5 11.5t14 6t24.5 2.5h307q19 0 19 -14z" />
    <glyph glyph-name="rcaron" unicode="&#x159;" horiz-adv-x="899" 
d="M846 899q0 -17 -12 -29t-29 -12h-17h-24q-142 0 -205 -35v-778q0 -19 -11.5 -32t-29.5 -13h-368q-19 0 -33.5 13.5t-14.5 31.5v1122q0 17 12 29t29 12h338q17 0 29 -12t12 -29v-59q59 64 133.5 92.5t132.5 28.5h17q17 0 29 -12t12 -29v-289zM924 1581q0 -11 -9 -20
l-182 -230q-15 -19 -25.5 -25t-33.5 -6h-451q-23 0 -33.5 6t-25.5 25l-182 230q-9 9 -9 20q0 14 19 14h307q21 0 30 -4t21 -16l99 -92l98 92q8 8 12.5 11.5t14 6t24.5 2.5h307q19 0 19 -14z" />
    <glyph glyph-name="Sacute" unicode="&#x15a;" horiz-adv-x="1277" 
d="M1206 469q0 -74 -20.5 -143t-67 -132.5t-115 -110.5t-170.5 -75t-227 -28q-240 0 -440 61q-43 11 -43 41v305q0 15 12 28t27 13h4q301 -35 440 -35q76 0 76 64q0 16 -11.5 30t-45.5 33l-308 178q-94 54 -150 125.5t-75.5 142.5t-19.5 160q0 416 549 416q130 0 279 -17.5
t218 -39.5q41 -11 41 -41v-305q0 -17 -11 -29t-26 -12h-4q-327 30 -497 30q-43 0 -43 -32q0 -15 13.5 -28.5t61.5 -37.5l291 -153q136 -72 199 -173t63 -235zM1036 1907q0 -7 -10 -17l-266 -243q-9 -9 -13 -12t-13.5 -6t-24.5 -3h-308q-18 0 -18 14q0 13 8 21l182 229
q15 19 26 25t34 6h379q24 0 24 -14z" />
    <glyph glyph-name="sacute" unicode="&#x15b;" horiz-adv-x="1105" 
d="M1024 369q0 -84 -30 -153.5t-90.5 -123t-161 -83t-232.5 -29.5q-222 0 -383 53q-39 14 -39 45v256q0 47 43 47h10q288 -39 357 -39q41 0 56 9t15 32q0 24 -47 47l-233 119q-107 54 -157 136.5t-50 205.5q0 162 120 250t361 88q193 0 391 -55q43 -11 43 -44v-266
q0 -43 -36 -43h-7q-58 10 -184 23.5t-180 13.5q-43 0 -43 -24q0 -16 26 -29l226 -111q225 -110 225 -325zM950 1581q0 -6 -10 -16l-266 -244q-9 -9 -13 -12t-13.5 -6t-24.5 -3h-308q-18 0 -18 15q0 12 8 20l182 230q14 18 25 24t35 6h379q24 0 24 -14z" />
    <glyph glyph-name="Scircumflex" unicode="&#x15c;" horiz-adv-x="1277" 
d="M1206 469q0 -74 -20.5 -143t-67 -132.5t-115 -110.5t-170.5 -75t-227 -28q-240 0 -440 61q-43 11 -43 41v305q0 15 12 28t27 13h4q301 -35 440 -35q76 0 76 64q0 16 -11.5 30t-45.5 33l-308 178q-94 54 -150 125.5t-75.5 142.5t-19.5 160q0 416 549 416q130 0 279 -17.5
t218 -39.5q41 -11 41 -41v-305q0 -17 -11 -29t-26 -12h-4q-327 30 -497 30q-43 0 -43 -32q0 -15 13.5 -28.5t61.5 -37.5l291 -153q136 -72 199 -173t63 -235zM1094 1626q0 -14 -19 -14h-295q-21 0 -30 4t-21 16l-98 101l-99 -101q-8 -8 -12.5 -11.5t-14 -6t-24.5 -2.5h-295
q-18 0 -18 14q0 10 8 21l170 229q14 19 25 25t35 6h450q24 0 34.5 -6t24.5 -25l170 -229q9 -12 9 -21z" />
    <glyph glyph-name="scircumflex" unicode="&#x15d;" horiz-adv-x="1105" 
d="M1024 369q0 -84 -30 -153.5t-90.5 -123t-161 -83t-232.5 -29.5q-222 0 -383 53q-39 14 -39 45v256q0 47 43 47h10q288 -39 357 -39q41 0 56 9t15 32q0 24 -47 47l-233 119q-107 54 -157 136.5t-50 205.5q0 162 120 250t361 88q193 0 391 -55q43 -11 43 -44v-266
q0 -43 -36 -43h-7q-58 10 -184 23.5t-180 13.5q-43 0 -43 -24q0 -16 26 -29l226 -111q225 -110 225 -325zM1014 1315q0 -15 -19 -15h-295q-21 0 -30 4.5t-21 16.5l-98 100l-98 -100q-9 -9 -13.5 -12.5t-14 -6t-24.5 -2.5h-295q-18 0 -18 15q0 9 8 20l170 230
q14 19 24.5 24.5t35.5 5.5h450q25 0 35.5 -5.5t24.5 -24.5l170 -230q8 -11 8 -20z" />
    <glyph glyph-name="uni015E" unicode="&#x15e;" horiz-adv-x="1277" 
d="M1206 469q0 -74 -20.5 -143t-67 -132.5t-115 -110.5t-170.5 -75t-227 -28q-240 0 -440 61q-43 11 -43 41v305q0 15 12 28t27 13h4q301 -35 440 -35q76 0 76 64q0 16 -11.5 30t-45.5 33l-308 178q-94 54 -150 125.5t-75.5 142.5t-19.5 160q0 416 549 416q130 0 279 -17.5
t218 -39.5q41 -11 41 -41v-305q0 -17 -11 -29t-26 -12h-4q-327 30 -497 30q-43 0 -43 -32q0 -15 13.5 -28.5t61.5 -37.5l291 -153q136 -72 199 -173t63 -235zM874 -104q0 -7 -10 -17l-266 -244q-8 -8 -12.5 -11.5t-14 -6t-24.5 -2.5h-307q-19 0 -19 14q0 13 8 21l183 229
q15 19 25.5 25t33.5 6h379q24 0 24 -14z" />
    <glyph glyph-name="uni015F" unicode="&#x15f;" horiz-adv-x="1105" 
d="M1024 369q0 -84 -30 -153.5t-90.5 -123t-161 -83t-232.5 -29.5q-222 0 -383 53q-39 14 -39 45v256q0 47 43 47h10q288 -39 357 -39q41 0 56 9t15 32q0 24 -47 47l-233 119q-107 54 -157 136.5t-50 205.5q0 162 120 250t361 88q193 0 391 -55q43 -11 43 -44v-266
q0 -43 -36 -43h-7q-58 10 -184 23.5t-180 13.5q-43 0 -43 -24q0 -16 26 -29l226 -111q225 -110 225 -325zM799 -104q0 -6 -11 -17l-266 -244q-8 -8 -12.5 -11.5t-14 -6t-24.5 -2.5h-307q-19 0 -19 14q0 12 9 21l182 229q15 19 25.5 25t33.5 6h379q25 0 25 -14z" />
    <glyph glyph-name="Scaron" unicode="&#x160;" horiz-adv-x="1277" 
d="M1206 469q0 -74 -20.5 -143t-67 -132.5t-115 -110.5t-170.5 -75t-227 -28q-240 0 -440 61q-43 11 -43 41v305q0 15 12 28t27 13h4q301 -35 440 -35q76 0 76 64q0 16 -11.5 30t-45.5 33l-308 178q-94 54 -150 125.5t-75.5 142.5t-19.5 160q0 416 549 416q130 0 279 -17.5
t218 -39.5q41 -11 41 -41v-305q0 -17 -11 -29t-26 -12h-4q-327 30 -497 30q-43 0 -43 -32q0 -15 13.5 -28.5t61.5 -37.5l291 -153q136 -72 199 -173t63 -235zM1083 1907q0 -13 -8 -21l-182 -229q-15 -19 -25.5 -25t-33.5 -6h-451q-23 0 -33.5 6t-25.5 25l-183 229
q-8 8 -8 21q0 14 19 14h307q21 0 30 -4t21 -16l98 -93l99 93q8 8 12.5 11.5t14 6t24.5 2.5h307q18 0 18 -14z" />
    <glyph glyph-name="scaron" unicode="&#x161;" horiz-adv-x="1105" 
d="M1024 369q0 -84 -30 -153.5t-90.5 -123t-161 -83t-232.5 -29.5q-222 0 -383 53q-39 14 -39 45v256q0 47 43 47h10q288 -39 357 -39q41 0 56 9t15 32q0 24 -47 47l-233 119q-107 54 -157 136.5t-50 205.5q0 162 120 250t361 88q193 0 391 -55q43 -11 43 -44v-266
q0 -43 -36 -43h-7q-58 10 -184 23.5t-180 13.5q-43 0 -43 -24q0 -16 26 -29l226 -111q225 -110 225 -325zM1028 1581q0 -12 -8 -20l-182 -230q-15 -19 -26 -25t-34 -6h-450q-23 0 -34 6t-26 25l-182 230q-8 8 -8 20q0 14 18 14h307q22 0 31 -4t21 -16l98 -92l98 92
q8 8 12.5 11.5t14 6t24.5 2.5h308q18 0 18 -14z" />
    <glyph glyph-name="Tcommaaccent" unicode="&#x162;" horiz-adv-x="1232" 
d="M1182 1169q0 -17 -13 -29t-30 -12h-279v-1087q0 -17 -12 -29t-29 -12h-399q-17 0 -29 12t-12 29v1087h-287q-17 0 -29 12t-12 29v312q0 17 12 29t29 12h1047q17 0 30 -12t13 -29v-312zM471 -90h320q23 0 26 -19q2 -5 -2 -20l-117 -221q-16 -41 -45 -41h-250q-25 0 -28 18
v23l55 221q9 39 41 39z" />
    <glyph glyph-name="tcommaaccent" unicode="&#x163;" horiz-adv-x="878" 
d="M840 918q0 -19 -12.5 -32.5t-30.5 -13.5h-148v-501q0 -34 8 -47t35 -13h99q19 0 31 -12t12 -31v-223q0 -38 -43 -45q-117 -20 -218 -20q-86 0 -151 17.5t-119.5 60.5t-83.5 123.5t-29 197.5v493l-116 21q-20 3 -32.5 15t-12.5 30v227q0 19 13 31t32 12h116v168
q0 36 46 43l368 64h6q15 0 27 -13t12 -30v-232h148q19 0 31 -12t12 -31v-247zM354 -92h320q23 0 26 -19q2 -5 -2 -20l-116 -221q-16 -41 -45 -41h-250q-26 0 -29 18v23l55 221q9 39 41 39z" />
    <glyph glyph-name="Tcaron" unicode="&#x164;" horiz-adv-x="1232" 
d="M1182 1169q0 -17 -13 -29t-30 -12h-279v-1087q0 -17 -12 -29t-29 -12h-399q-17 0 -29 12t-12 29v1087h-287q-17 0 -29 12t-12 29v312q0 17 12 29t29 12h1047q17 0 30 -12t13 -29v-312zM1092 1907q0 -12 -9 -21l-182 -229q-15 -19 -25.5 -25t-33.5 -6h-451q-23 0 -33.5 6
t-25.5 25l-182 229q-9 9 -9 21q0 14 19 14h307q21 0 30 -4t21 -16l98 -93l99 93q8 8 12.5 11.5t14 6t24.5 2.5h307q19 0 19 -14z" />
    <glyph glyph-name="tcaron" unicode="&#x165;" horiz-adv-x="1366" 
d="M840 918q0 -19 -12.5 -32.5t-30.5 -13.5h-148v-501q0 -34 8 -47t35 -13h99q19 0 31 -12t12 -31v-223q0 -38 -43 -45q-117 -20 -218 -20q-86 0 -151 17.5t-119.5 60.5t-83.5 123.5t-29 197.5v493l-116 21q-20 3 -32.5 15t-12.5 30v227q0 19 13 31t32 12h116v168
q0 36 46 43l368 64h6q15 0 27 -13t12 -30v-232h148q19 0 31 -12t12 -31v-247zM1077 1595h295q13 0 19.5 -8.5t-0.5 -30.5l-203 -471q-8 -21 -16 -29.5t-23 -8.5h-223q-25 0 -25 24q0 10 2 14l131 471q11 39 43 39z" />
    <glyph glyph-name="Tbar" unicode="&#x166;" horiz-adv-x="1232" 
d="M1139 602h-279v-561q0 -17 -12 -29t-29 -12h-399q-17 0 -29 12t-12 29v561h-287q-17 0 -29 12t-12 29v311q0 17 12 29t29 12h287v133h-287q-17 0 -29 12t-12 29v312q0 17 12 29t29 12h1047q17 0 30 -12t13 -29v-312q0 -17 -13 -29t-30 -12h-279v-133h279q17 0 30 -12
t13 -29v-311q0 -17 -13 -29t-30 -12z" />
    <glyph glyph-name="tbar" unicode="&#x167;" horiz-adv-x="878" 
d="M840 918q0 -19 -12.5 -32.5t-30.5 -13.5h-148v-84h148q19 0 31 -12t12 -31v-247q0 -19 -12 -32t-31 -13h-148v-82q0 -34 8 -47t35 -13h99q19 0 31 -12t12 -31v-223q0 -38 -43 -45q-117 -20 -218 -20q-86 0 -151 17.5t-119.5 60.5t-83.5 123.5t-29 197.5v74l-116 20
q-20 3 -32.5 15t-12.5 30v227q0 19 13 31t32 12h116v84l-116 21q-20 3 -32.5 15t-12.5 30v227q0 19 13 31t32 12h116v168q0 36 46 43l368 64h6q15 0 27 -13t12 -30v-232h148q19 0 31 -12t12 -31v-247z" />
    <glyph glyph-name="Utilde" unicode="&#x168;" horiz-adv-x="1540" 
d="M1417 586q0 -110 -19.5 -199t-52.5 -151.5t-83 -109t-103.5 -74t-122 -44t-130.5 -22.5t-136 -6t-136 6t-130.5 22.5t-122 44t-103.5 74t-83 109t-52.5 151.5t-19.5 199v895q0 17 13 29t30 12h399q17 0 29 -12t12 -29v-895q0 -115 39 -156t125 -41t125 41t39 156v895
q0 17 12 29t29 12h399q17 0 30 -12t13 -29v-895zM1212 1888q0 -148 -74.5 -211t-219.5 -63q-27 0 -73 12t-79 29l-80 41q-49 24 -76 24q-28 0 -28 -26v-33q0 -35 -37 -35h-199q-37 0 -37 35v33q0 146 76.5 210t220.5 64q28 0 73 -11t77 -28l80 -41q53 -26 77 -26q27 0 27 28
v33q0 35 37 35h199q36 0 36 -35v-35z" />
    <glyph glyph-name="utilde" unicode="&#x169;" horiz-adv-x="1335" 
d="M1233 41q0 -17 -12 -29t-29 -12h-338q-17 0 -29 12t-12 29v57q-73 -62 -144 -90t-192 -28q-88 0 -154.5 25.5t-108 67.5t-67 104.5t-35.5 129t-10 148.5v708q0 19 12 32t31 13h369q19 0 32 -13t13 -32v-708q0 -51 29.5 -76t75.5 -25q55 0 112 31v778q0 19 11.5 32
t29.5 13h369q19 0 33 -13t14 -32v-1122zM1118 1554q0 -148 -75 -211t-220 -63q-27 0 -72.5 12t-78.5 29l-80 41q-49 24 -76 24q-29 0 -29 -26v-33q0 -35 -36 -35h-199q-37 0 -37 35v33q0 146 76.5 210t220.5 64q28 0 73 -11t77 -28l79 -41q53 -26 78 -26q27 0 27 28v33
q0 35 37 35h198q37 0 37 -35v-35z" />
    <glyph glyph-name="Umacron" unicode="&#x16a;" horiz-adv-x="1540" 
d="M1417 586q0 -110 -19.5 -199t-52.5 -151.5t-83 -109t-103.5 -74t-122 -44t-130.5 -22.5t-136 -6t-136 6t-130.5 22.5t-122 44t-103.5 74t-83 109t-52.5 151.5t-19.5 199v895q0 17 13 29t30 12h399q17 0 29 -12t12 -29v-895q0 -115 39 -156t125 -41t125 41t39 156v895
q0 17 12 29t29 12h399q17 0 30 -12t13 -29v-895zM1174 1667q0 -17 -12 -29t-29 -12h-725q-17 0 -29 12t-12 29v213q0 17 12 29t29 12h725q17 0 29 -12t12 -29v-213z" />
    <glyph glyph-name="umacron" unicode="&#x16b;" horiz-adv-x="1335" 
d="M1233 41q0 -17 -12 -29t-29 -12h-338q-17 0 -29 12t-12 29v57q-73 -62 -144 -90t-192 -28q-88 0 -154.5 25.5t-108 67.5t-67 104.5t-35.5 129t-10 148.5v708q0 19 12 32t31 13h369q19 0 32 -13t13 -32v-708q0 -51 29.5 -76t75.5 -25q55 0 112 31v778q0 19 11.5 32
t29.5 13h369q19 0 33 -13t14 -32v-1122zM1071 1341q0 -17 -12 -29t-29 -12h-725q-17 0 -29 12t-12 29v213q0 17 12 29t29 12h725q17 0 29 -12t12 -29v-213z" />
    <glyph glyph-name="Ubreve" unicode="&#x16c;" horiz-adv-x="1540" 
d="M1417 586q0 -110 -19.5 -199t-52.5 -151.5t-83 -109t-103.5 -74t-122 -44t-130.5 -22.5t-136 -6t-136 6t-130.5 22.5t-122 44t-103.5 74t-83 109t-52.5 151.5t-19.5 199v895q0 17 13 29t30 12h399q17 0 29 -12t12 -29v-895q0 -115 39 -156t125 -41t125 41t39 156v895
q0 17 12 29t29 12h399q17 0 30 -12t13 -29v-895zM768 1612q153 0 260.5 60.5t183.5 193.5q19 32 19 49q0 20 -25 20h-254q-18 0 -27 -5.5t-18 -20.5q-15 -22 -26.5 -33.5t-41 -23t-71.5 -11.5t-71.5 11.5t-41 23t-26.5 33.5q-9 15 -18 20.5t-27 5.5h-254q-25 0 -25 -20
q0 -17 19 -49q76 -133 183.5 -193.5t260.5 -60.5z" />
    <glyph glyph-name="ubreve" unicode="&#x16d;" horiz-adv-x="1335" 
d="M1233 41q0 -17 -12 -29t-29 -12h-338q-17 0 -29 12t-12 29v57q-73 -62 -144 -90t-192 -28q-88 0 -154.5 25.5t-108 67.5t-67 104.5t-35.5 129t-10 148.5v708q0 19 12 32t31 13h369q19 0 32 -13t13 -32v-708q0 -51 29.5 -76t75.5 -25q55 0 112 31v778q0 19 11.5 32
t29.5 13h369q19 0 33 -13t14 -32v-1122zM666 1292q153 0 260.5 60.5t183.5 193.5q18 30 18 49q0 21 -24 21h-254q-18 0 -27 -5.5t-18 -21.5q-15 -21 -26.5 -33t-41 -23t-71.5 -11t-71.5 11t-41.5 23t-27 33q-9 16 -18 21.5t-27 5.5h-254q-24 0 -24 -21q0 -19 18 -49
q76 -132 183.5 -193t261.5 -61z" />
    <glyph glyph-name="Uring" unicode="&#x16e;" horiz-adv-x="1540" 
d="M1417 586q0 -110 -19.5 -199t-52.5 -151.5t-83 -109t-103.5 -74t-122 -44t-130.5 -22.5t-136 -6t-136 6t-130.5 22.5t-122 44t-103.5 74t-83 109t-52.5 151.5t-19.5 199v895q0 17 13 29t30 12h399q17 0 29 -12t12 -29v-895q0 -115 39 -156t125 -41t125 41t39 156v895
q0 17 12 29t29 12h399q17 0 30 -12t13 -29v-895zM1032 1821q0 -109 -76.5 -185.5t-185.5 -76.5t-185.5 76.5t-76.5 185.5t76.5 185.5t185.5 76.5t185.5 -76.5t76.5 -185.5zM848 1823q0 31 -22.5 53t-53.5 22q-30 0 -52 -21.5t-22 -53.5t22 -54t52 -22q31 0 53.5 22.5
t22.5 53.5z" />
    <glyph glyph-name="uring" unicode="&#x16f;" horiz-adv-x="1335" 
d="M1233 41q0 -17 -12 -29t-29 -12h-338q-17 0 -29 12t-12 29v57q-73 -62 -144 -90t-192 -28q-88 0 -154.5 25.5t-108 67.5t-67 104.5t-35.5 129t-10 148.5v708q0 19 12 32t31 13h369q19 0 32 -13t13 -32v-708q0 -51 29.5 -76t75.5 -25q55 0 112 31v778q0 19 11.5 32
t29.5 13h369q19 0 33 -13t14 -32v-1122zM930 1511q0 -109 -76.5 -185.5t-185.5 -76.5t-185.5 76.5t-76.5 185.5t76.5 186t185.5 77t185.5 -77t76.5 -186zM745 1513q0 31 -22 53.5t-53 22.5q-30 0 -52 -22t-22 -54t22 -53.5t52 -21.5q31 0 53 22t22 53z" />
    <glyph glyph-name="Uhungarumlaut" unicode="&#x170;" horiz-adv-x="1540" 
d="M1417 586q0 -110 -19.5 -199t-52.5 -151.5t-83 -109t-103.5 -74t-122 -44t-130.5 -22.5t-136 -6t-136 6t-130.5 22.5t-122 44t-103.5 74t-83 109t-52.5 151.5t-19.5 199v895q0 17 13 29t30 12h399q17 0 29 -12t12 -29v-895q0 -115 39 -156t125 -41t125 41t39 156v895
q0 17 12 29t29 12h399q17 0 30 -12t13 -29v-895zM1456 1907q0 -7 -10 -17l-266 -243q-9 -9 -13.5 -12.5t-14 -6t-24.5 -2.5h-307q-18 0 -18 14q0 13 8 21l182 229q15 19 26 25t34 6h379q24 0 24 -14zM883 1907q0 -6 -11 -17l-266 -243q-9 -9 -13 -12t-13.5 -6t-24.5 -3h-307
q-19 0 -19 14q0 12 9 21l182 229q15 19 25.5 25t33.5 6h379q25 0 25 -14z" />
    <glyph glyph-name="uhungarumlaut" unicode="&#x171;" horiz-adv-x="1335" 
d="M1233 41q0 -17 -12 -29t-29 -12h-338q-17 0 -29 12t-12 29v57q-73 -62 -144 -90t-192 -28q-88 0 -154.5 25.5t-108 67.5t-67 104.5t-35.5 129t-10 148.5v708q0 19 12 32t31 13h369q19 0 32 -13t13 -32v-708q0 -51 29.5 -76t75.5 -25q55 0 112 31v778q0 19 11.5 32
t29.5 13h369q19 0 33 -13t14 -32v-1122zM1354 1581q0 -5 -11 -16l-266 -244q-9 -9 -13 -12t-13.5 -6t-24.5 -3h-307q-19 0 -19 15q0 11 9 20l182 230q14 18 24.5 24t34.5 6h379q25 0 25 -14zM780 1581q0 -6 -10 -16l-266 -244q-9 -9 -13 -12t-13.5 -6t-24.5 -3h-308
q-18 0 -18 15q0 12 8 20l182 230q14 18 25 24t35 6h379q24 0 24 -14z" />
    <glyph glyph-name="Uogonek" unicode="&#x172;" horiz-adv-x="1540" 
d="M1417 639v-53q0 -97 -14.5 -175.5t-36.5 -132t-59 -99t-71.5 -74t-84.5 -60.5l-135 -88q-78 -52 -78 -94q0 -26 17 -33.5t57 -7.5q34 0 87 7t60 7q13 0 17 -4.5t4 -19.5v-152q0 -20 -23 -31q-31 -13 -109 -27t-163 -14q-146 0 -228 53.5t-82 141.5q0 71 26.5 116.5
t84.5 82.5q-78 4 -142.5 17t-131 39.5t-117 71.5t-90.5 108.5t-61 157t-21 210.5v895q0 17 13 29t30 12h399q17 0 29 -12t12 -29v-895q0 -115 39 -156t125 -41t125 41t39 156v895q0 17 12 29t29 12h399q17 0 30 -12t13 -29v-842z" />
    <glyph glyph-name="uogonek" unicode="&#x173;" horiz-adv-x="1335" 
d="M1233 41q0 -13 -8 -24.5t-17 -14.5l-141 -45q-78 -26 -78 -94q0 -26 17 -33.5t57 -7.5q34 0 87 7t60 7q13 0 17 -4.5t4 -19.5v-152q0 -20 -23 -31q-31 -13 -109 -27t-163 -14q-146 0 -227.5 53.5t-81.5 141.5q0 80 35 128.5t112 92.5l39 23v71q-73 -62 -144 -90t-192 -28
q-88 0 -154.5 25.5t-108 67.5t-67 104.5t-35.5 129t-10 148.5v708q0 19 12 32t31 13h369q19 0 32 -13t13 -32v-708q0 -51 29.5 -76t75.5 -25q55 0 112 31v778q0 19 11.5 32t29.5 13h369q19 0 33 -13t14 -32v-1122z" />
    <glyph glyph-name="Wcircumflex" unicode="&#x174;" horiz-adv-x="1935" 
d="M1882 1503v-4l-192 -1370q-12 -83 -51.5 -116t-114.5 -33h-211q-73 0 -108.5 29.5t-61.5 103.5l-158 467q-6 22 -18 22q-13 0 -19 -22l-157 -467q-26 -74 -61.5 -103.5t-108.5 -29.5h-211q-75 0 -114.5 33t-51.5 116l-193 1370v4q0 19 31 19h420q24 0 28 -41l84 -723
q7 -23 15 -25q11 0 18 25l92 272q14 44 38 61t77 17h225q53 0 77 -17t38 -61l92 -272q7 -25 17 -25q12 0 16 25l84 723q4 41 29 41h419q31 0 31 -19zM1430 1626q0 -14 -19 -14h-295q-21 0 -30 4t-21 16l-98 101l-99 -101q-8 -8 -12.5 -11.5t-14 -6t-24.5 -2.5h-295
q-18 0 -18 14q0 10 8 21l170 229q14 19 24.5 25t34.5 6h451q24 0 34.5 -6t24.5 -25l170 -229q9 -12 9 -21z" />
    <glyph glyph-name="wcircumflex" unicode="&#x175;" horiz-adv-x="1839" 
d="M1794 1182v-4l-190 -1028q-12 -61 -25.5 -95.5t-38.5 -51t-48.5 -20t-72.5 -3.5h-192q-85 0 -119.5 29t-69.5 130l-100 295q-6 19 -18 19q-13 0 -19 -19l-100 -295q-35 -101 -69.5 -130t-119.5 -29h-192q-39 0 -59.5 2t-43.5 10.5t-35.5 27t-24.5 50t-21 80.5l-191 1028
v4q0 10 10 18t21 8h407q25 0 29 -32l78 -611q2 -12 5 -13q2 -1 7 -1q16 0 21 14l100 283q15 43 34 58.5t60 15.5h205q41 0 60 -15.5t34 -58.5l101 -283q5 -14 20 -14q5 0 7.5 1t2.5 2t1 6q1 3 1 5l78 611q4 32 29 32h407q11 0 21 -8t10 -18zM1382 1315q0 -15 -18 -15h-295
q-21 0 -30 4.5t-21 16.5l-98 100l-99 -100q-9 -9 -13 -12t-13.5 -6t-24.5 -3h-295q-18 0 -18 15q0 9 8 20l170 230q14 19 24.5 24.5t34.5 5.5h451q24 0 34.5 -5.5t24.5 -24.5l170 -230q8 -11 8 -20z" />
    <glyph glyph-name="Ycircumflex" unicode="&#x176;" horiz-adv-x="1452" 
d="M1423 1495q0 -10 -2 -14l-301 -705q-64 -150 -153 -188v-547q0 -17 -13 -29t-30 -12h-400q-17 0 -29 12t-12 29v547q-89 38 -153 188l-299 705q-4 8 -4 14q0 11 8 19t20 8h443q27 0 43 -41l172 -508q3 -12 12 -12t12 12l174 508q16 41 43 41h441q13 0 20.5 -8t7.5 -19z
M1188 1626q0 -14 -19 -14h-295q-21 0 -30 4t-21 16l-98 101l-98 -101q-12 -12 -21 -16t-31 -4h-294q-19 0 -19 14q0 10 8 21l170 229q14 19 25 25t35 6h450q24 0 35 -6t25 -25l170 -229q8 -11 8 -21z" />
    <glyph glyph-name="ycircumflex" unicode="&#x177;" horiz-adv-x="1343" 
d="M1313 1174q0 -1 -1 -4.5t-1 -4.5l-350 -1228q-20 -69 -43.5 -120.5t-63 -98.5t-92.5 -76t-131.5 -46.5t-179.5 -17.5q-70 0 -167.5 13t-140.5 30q-16 5 -23.5 8.5t-15.5 12t-8 20.5v234q0 17 14 31t31 14h2q215 -15 308 -15q68 0 81 47l19 70h-27q-46 0 -70.5 5.5
t-52 28.5t-49.5 71t-47 131l-272 886q-2 4 -2 15q0 28 47 28h401q34 0 41 -43l139 -639q7 -28 19 -28h14l131 667q3 18 15 30.5t30 12.5h400q16 0 30.5 -10t14.5 -24zM1143 1315q0 -15 -19 -15h-295q-21 0 -30 4.5t-21 16.5l-98 100l-98 -100q-9 -9 -13.5 -12.5t-14 -6
t-24.5 -2.5h-294q-19 0 -19 15q0 9 8 20l170 230q14 19 24.5 24.5t35.5 5.5h450q25 0 35.5 -5.5t24.5 -24.5l170 -230q8 -11 8 -20z" />
    <glyph glyph-name="Ydieresis" unicode="&#x178;" horiz-adv-x="1452" 
d="M1423 1495q0 -10 -2 -14l-301 -705q-64 -150 -153 -188v-547q0 -17 -13 -29t-30 -12h-400q-17 0 -29 12t-12 29v547q-89 38 -153 188l-299 705q-4 8 -4 14q0 11 8 19t20 8h443q27 0 43 -41l172 -508q3 -12 12 -12t12 12l174 508q16 41 43 41h441q13 0 20.5 -8t7.5 -19z
M1151 1669q0 -18 -14 -30.5t-33 -12.5h-285q-19 0 -33 12.5t-14 30.5v209q0 18 14 30.5t33 12.5h285q19 0 33 -12.5t14 -30.5v-209zM680 1669q0 -18 -14 -30.5t-33 -12.5h-285q-19 0 -33 12.5t-14 30.5v209q0 18 14 30.5t33 12.5h285q19 0 33 -12.5t14 -30.5v-209z" />
    <glyph glyph-name="Zacute" unicode="&#x179;" horiz-adv-x="1288" 
d="M1186 41q0 -17 -13 -29t-30 -12h-1000q-17 0 -29 12t-12 29v266q0 51 41 113l410 645q10 17 10 27q0 16 -24 16h-389q-17 0 -29 12t-12 29v332q0 17 12 29t29 12h987q17 0 29 -12t12 -29v-287q0 -53 -45 -121l-402 -618q-8 -13 -8 -25q0 -16 27 -16h393q17 0 30 -12
t13 -29v-332zM1083 1907q0 -7 -10 -17l-266 -243q-9 -9 -13 -12t-13.5 -6t-24.5 -3h-307q-19 0 -19 14q0 13 8 21l183 229q15 19 25.5 25t33.5 6h379q24 0 24 -14z" />
    <glyph glyph-name="zacute" unicode="&#x17a;" horiz-adv-x="1161" 
d="M1059 41q0 -17 -12 -29t-29 -12h-875q-17 0 -29 12t-12 29v215q0 34 6 54t27 48l340 455q10 13 10 23q0 14 -22 14h-318q-15 0 -23.5 9.5t-8.5 23.5v284q0 17 12 29t29 12h862q17 0 29 -12t12 -29v-219q0 -35 -8 -54.5t-41 -64.5l-320 -432q-10 -13 -10 -22q0 -17 22 -17
h324q15 0 25 -9t10 -23v-285zM1020 1581q0 -6 -10 -16l-267 -244q-9 -9 -13 -12t-13.5 -6t-24.5 -3h-307q-18 0 -18 15q0 12 8 20l182 230q14 18 24.5 24t34.5 6h379q25 0 25 -14z" />
    <glyph glyph-name="Zdotaccent" unicode="&#x17b;" horiz-adv-x="1288" 
d="M1186 41q0 -17 -13 -29t-30 -12h-1000q-17 0 -29 12t-12 29v266q0 51 41 113l410 645q10 17 10 27q0 16 -24 16h-389q-17 0 -29 12t-12 29v332q0 17 12 29t29 12h987q17 0 29 -12t12 -29v-287q0 -53 -45 -121l-402 -618q-8 -13 -8 -25q0 -16 27 -16h393q17 0 30 -12
t13 -29v-332zM866 1679q0 -17 -13 -29t-30 -12h-356q-17 0 -30 12t-13 29v238q0 17 13 29t30 12h356q17 0 30 -12t13 -29v-238z" />
    <glyph glyph-name="zdotaccent" unicode="&#x17c;" horiz-adv-x="1161" 
d="M1059 41q0 -17 -12 -29t-29 -12h-875q-17 0 -29 12t-12 29v215q0 34 6 54t27 48l340 455q10 13 10 23q0 14 -22 14h-318q-15 0 -23.5 9.5t-8.5 23.5v284q0 17 12 29t29 12h862q17 0 29 -12t12 -29v-219q0 -35 -8 -54.5t-41 -64.5l-320 -432q-10 -13 -10 -22q0 -17 22 -17
h324q15 0 25 -9t10 -23v-285zM803 1352q0 -17 -13 -29t-30 -12h-357q-17 0 -30 12t-13 29v237q0 17 13 29t30 12h357q17 0 30 -12t13 -29v-237z" />
    <glyph glyph-name="Zcaron" unicode="&#x17d;" horiz-adv-x="1288" 
d="M1186 41q0 -17 -13 -29t-30 -12h-1000q-17 0 -29 12t-12 29v266q0 51 41 113l410 645q10 17 10 27q0 16 -24 16h-389q-17 0 -29 12t-12 29v332q0 17 12 29t29 12h987q17 0 29 -12t12 -29v-287q0 -53 -45 -121l-402 -618q-8 -13 -8 -25q0 -16 27 -16h393q17 0 30 -12
t13 -29v-332zM1143 1907q0 -13 -8 -21l-183 -229q-15 -19 -25.5 -25t-33.5 -6h-451q-23 0 -33.5 6t-25.5 25l-182 229q-8 8 -8 21q0 14 18 14h307q21 0 30 -4t21 -16l99 -93l98 93q8 8 12.5 11.5t14 6t24.5 2.5h307q19 0 19 -14z" />
    <glyph glyph-name="zcaron" unicode="&#x17e;" horiz-adv-x="1161" 
d="M1059 41q0 -17 -12 -29t-29 -12h-875q-17 0 -29 12t-12 29v215q0 34 6 54t27 48l340 455q10 13 10 23q0 14 -22 14h-318q-15 0 -23.5 9.5t-8.5 23.5v284q0 17 12 29t29 12h862q17 0 29 -12t12 -29v-219q0 -35 -8 -54.5t-41 -64.5l-320 -432q-10 -13 -10 -22q0 -17 22 -17
h324q15 0 25 -9t10 -23v-285zM1063 1581q0 -12 -8 -20l-183 -230q-15 -19 -25.5 -25t-33.5 -6h-451q-23 0 -33.5 6t-25.5 25l-182 230q-8 8 -8 20q0 14 18 14h307q21 0 30 -4t21 -16l99 -92l98 92q8 8 12.5 11.5t14 6t24.5 2.5h307q19 0 19 -14z" />
    <glyph glyph-name="florin" unicode="&#x192;" 
d="M1350 1583v-10l-31 -223q-3 -19 -16.5 -31t-32.5 -12h-148q-73 0 -94 -13.5t-27 -56.5l-36 -264h258q17 0 27 -10.5t10 -26.5v-6l-35 -248q-3 -19 -17 -32t-32 -13h-258l-89 -617q-13 -94 -48 -165t-82.5 -115.5t-112.5 -72t-131 -38t-144 -10.5q-148 0 -252 23
q-36 7 -36 32v11l30 223q3 19 16.5 31t32.5 12h148q74 0 94.5 13t26.5 56l88 617h-256q-17 0 -27 11.5t-10 27.5v6l35 248q3 19 16.5 31t32.5 12h256l37 264q13 94 47.5 165t82 115.5t112 72t130.5 38t144 10.5q155 0 254 -22q37 -8 37 -33z" />
    <glyph glyph-name="AEacute" unicode="&#x1fc;" horiz-adv-x="1982" 
d="M1870 43q0 -17 -11.5 -28t-29.5 -13q-185 -22 -371 -22q-71 0 -130 6t-124.5 24.5t-115.5 49t-92 84.5t-64 126h-352l-39 -229q-3 -18 -14.5 -29.5t-28.5 -11.5h-426q-15 0 -24 8.5t-9 22.5q0 2 1 5t1 5l244 1216q29 149 138.5 207t309.5 58h1096q17 0 29 -12t12 -29
v-332q0 -17 -12 -29t-29 -12h-438v-156h438q17 0 29 -12t12 -29v-288q0 -17 -12 -29t-29 -12h-438v-123q0 -38 14.5 -52t52.5 -14h371q17 0 29 -12t12 -29v-309zM907 647v461h-159q-29 0 -35 -43l-70 -418h264zM1604 1907q0 -6 -11 -17l-266 -243q-9 -9 -13 -12t-13.5 -6
t-24.5 -3h-307q-19 0 -19 14q0 13 8 21l183 229q15 19 25.5 25t33.5 6h379q25 0 25 -14z" />
    <glyph glyph-name="aeacute" unicode="&#x1fd;" horiz-adv-x="1849" 
d="M1778 528q0 -19 -13 -31t-32 -12h-619q0 -77 36 -104t140 -27q65 0 197.5 5t187.5 10h8q37 0 37 -37v-215q0 -26 -8 -38.5t-31 -21.5q-187 -77 -469 -77q-181 0 -307 63q-189 -66 -364 -66q-76 0 -142 12t-127 41t-104.5 72.5t-69.5 112t-26 154.5v20q0 92 40.5 157
t116 101.5t169.5 53t216 16.5h50v43q0 94 -103 94q-248 0 -358 -12q-24 -1 -32.5 10t-8.5 33v233q0 37 41 51q53 20 162.5 40t195.5 20q225 0 359 -92q134 92 313 92q275 0 410 -152.5t135 -423.5v-125zM1346 715q0 81 -26 125.5t-91 44.5q-115 0 -115 -170h232zM678 295
v192h-64q-49 0 -81.5 -24t-32.5 -74v-20q0 -47 33 -62.5t88 -15.5q25 0 57 4zM1411 1581q0 -6 -10 -16l-266 -244q-9 -9 -13.5 -12.5t-14 -6t-24.5 -2.5h-307q-18 0 -18 15q0 12 8 20l182 230q14 18 25 24t35 6h378q25 0 25 -14z" />
    <glyph glyph-name="Oslashacute" unicode="&#x1fe;" horiz-adv-x="1466" 
d="M1452 1520q0 -8 -6 -17l-166 -229q100 -165 100 -424v-178q0 -152 -35.5 -272t-95.5 -197.5t-144.5 -128.5t-177 -72.5t-198.5 -21.5q-190 0 -330 67l-22 -29q-29 -38 -53 -38h-287q-10 0 -16.5 6.5t-6.5 15.5q0 7 6 16l162 224q-104 164 -104 430v178q0 152 35.5 272
t95.5 197.5t144.5 128.5t177 72.5t198.5 21.5q189 0 336 -72l25 33q29 39 53 39h287q22 0 22 -22zM801 1104q-30 12 -72 12q-87 0 -124.5 -60.5t-37.5 -205.5v-72zM891 672v59l-227 -315q30 -10 65 -10q87 0 124.5 60.5t37.5 205.5zM1169 1907q0 -7 -10 -17l-266 -243
q-9 -9 -13 -12t-13.5 -6t-24.5 -3h-307q-19 0 -19 14q0 13 8 21l183 229q15 19 25.5 25t33.5 6h379q24 0 24 -14z" />
    <glyph glyph-name="oslashacute" unicode="&#x1ff;" horiz-adv-x="1269" 
d="M1208 1264q0 -15 -8 -23l-131 -176q129 -144 129 -414v-94q0 -290 -146.5 -433.5t-416.5 -143.5q-190 0 -316 69l-73 -100q-16 -21 -33 -21h-133q-17 0 -17 17q0 10 9 22l129 176q-129 144 -129 414v94q0 290 146.5 434t416.5 144q187 0 315 -70l76 101q16 20 33 20h133
q16 0 16 -16zM705 825q-27 27 -70 27q-56 0 -82.5 -43.5t-26.5 -157.5v-67zM743 557v68l-178 -242q27 -27 70 -27q56 0 82 43t26 158zM1077 1581q0 -6 -10 -16l-266 -244q-9 -9 -13 -12t-13.5 -6t-24.5 -3h-308q-18 0 -18 15q0 12 8 20l182 230q14 18 25 24t35 6h379
q24 0 24 -14z" />
    <glyph glyph-name="uni0218" unicode="&#x218;" horiz-adv-x="1277" 
d="M1206 469q0 -74 -20.5 -143t-67 -132.5t-115 -110.5t-170.5 -75t-227 -28q-240 0 -440 61q-43 11 -43 41v305q0 15 12 28t27 13h4q301 -35 440 -35q76 0 76 64q0 16 -11.5 30t-45.5 33l-308 178q-94 54 -150 125.5t-75.5 142.5t-19.5 160q0 416 549 416q130 0 279 -17.5
t218 -39.5q41 -11 41 -41v-305q0 -17 -11 -29t-26 -12h-4q-327 30 -497 30q-43 0 -43 -32q0 -15 13.5 -28.5t61.5 -37.5l291 -153q136 -72 199 -173t63 -235zM489 -92h320q24 0 27 -19q2 -5 -2 -20l-117 -221q-16 -41 -45 -41h-250q-26 0 -29 18v23l56 221q9 39 40 39z" />
    <glyph glyph-name="uni0219" unicode="&#x219;" horiz-adv-x="1105" 
d="M1024 369q0 -84 -30 -153.5t-90.5 -123t-161 -83t-232.5 -29.5q-222 0 -383 53q-39 14 -39 45v256q0 47 43 47h10q288 -39 357 -39q41 0 56 9t15 32q0 24 -47 47l-233 119q-107 54 -157 136.5t-50 205.5q0 162 120 250t361 88q193 0 391 -55q43 -11 43 -44v-266
q0 -43 -36 -43h-7q-58 10 -184 23.5t-180 13.5q-43 0 -43 -24q0 -16 26 -29l226 -111q225 -110 225 -325zM395 -92h320q23 0 26 -19q2 -5 -2 -20l-116 -221q-16 -41 -45 -41h-250q-26 0 -29 18v23l55 221q9 39 41 39z" />
    <glyph glyph-name="uni021A" unicode="&#x21a;" horiz-adv-x="1232" 
d="M1182 1169q0 -17 -13 -29t-30 -12h-279v-1087q0 -17 -12 -29t-29 -12h-399q-17 0 -29 12t-12 29v1087h-287q-17 0 -29 12t-12 29v312q0 17 12 29t29 12h1047q17 0 30 -12t13 -29v-312zM471 -90h320q23 0 26 -19q2 -5 -2 -20l-117 -221q-16 -41 -45 -41h-250q-25 0 -28 18
v23l55 221q9 39 41 39z" />
    <glyph glyph-name="uni021B" unicode="&#x21b;" horiz-adv-x="878" 
d="M840 918q0 -19 -12.5 -32.5t-30.5 -13.5h-148v-501q0 -34 8 -47t35 -13h99q19 0 31 -12t12 -31v-223q0 -38 -43 -45q-117 -20 -218 -20q-86 0 -151 17.5t-119.5 60.5t-83.5 123.5t-29 197.5v493l-116 21q-20 3 -32.5 15t-12.5 30v227q0 19 13 31t32 12h116v168
q0 36 46 43l368 64h6q15 0 27 -13t12 -30v-232h148q19 0 31 -12t12 -31v-247zM354 -92h320q23 0 26 -19q2 -5 -2 -20l-116 -221q-16 -41 -45 -41h-250q-26 0 -29 18v23l55 221q9 39 41 39z" />
    <glyph glyph-name="circumflex" unicode="&#x2c6;" horiz-adv-x="1024" 
d="M975 1315q0 -15 -19 -15h-294q-21 0 -30.5 4.5t-21.5 16.5l-98 100l-98 -100q-9 -9 -13.5 -12.5t-14 -6t-24.5 -2.5h-294q-19 0 -19 15q0 9 8 20l170 230q14 19 24.5 24.5t35.5 5.5h450q25 0 35.5 -5.5t24.5 -24.5l170 -230q8 -11 8 -20z" />
    <glyph glyph-name="caron" unicode="&#x2c7;" horiz-adv-x="1024" 
d="M987 1581q0 -12 -8 -20l-182 -230q-15 -19 -26 -25t-34 -6h-450q-23 0 -34 6t-26 25l-182 230q-8 8 -8 20q0 14 18 14h307q22 0 31 -4t21 -16l98 -92l98 92q12 12 21 16t31 4h307q18 0 18 -14z" />
    <glyph glyph-name="uni02C9" unicode="&#x2c9;" horiz-adv-x="1024" 
d="M915 1341q0 -17 -12 -29t-29 -12h-724q-17 0 -29 12t-12 29v213q0 17 12 29t29 12h724q17 0 29 -12t12 -29v-213z" />
    <glyph glyph-name="breve" unicode="&#x2d8;" horiz-adv-x="1024" 
d="M504 1292q153 0 260.5 60.5t183.5 193.5q19 32 19 49q0 21 -25 21h-254q-18 0 -27 -5.5t-18 -21.5q-15 -21 -26.5 -33t-41 -23t-71.5 -11t-71.5 11t-41 23t-26.5 33q-9 16 -18.5 21.5t-27.5 5.5h-253q-25 0 -25 -21q0 -19 18 -49q76 -132 183.5 -193t261.5 -61z" />
    <glyph glyph-name="dotaccent" unicode="&#x2d9;" horiz-adv-x="1024" 
d="M733 1341q0 -17 -13 -29t-30 -12h-356q-17 0 -30 12t-13 29v238q0 17 13 29t30 12h356q17 0 30 -12t13 -29v-238z" />
    <glyph glyph-name="ring" unicode="&#x2da;" horiz-adv-x="1024" 
d="M774 1470q0 -109 -76.5 -185.5t-185.5 -76.5t-185.5 76.5t-76.5 185.5t76.5 186t185.5 77t185.5 -77t76.5 -186zM590 1473q0 31 -22.5 53t-53.5 22q-30 0 -52 -21.5t-22 -53.5t22 -54t52 -22q31 0 53.5 22.5t22.5 53.5z" />
    <glyph glyph-name="ogonek" unicode="&#x2db;" horiz-adv-x="1024" 
d="M741 -338v-2q0 -11 -4 -17.5t-18 -13.5q-31 -13 -109.5 -27t-163.5 -14q-146 0 -227.5 53.5t-81.5 141.5q0 80 35 128t113 93l98 57q23 15 59 15h263q18 0 18 -15q0 -9 -10 -16l-135 -88q-78 -52 -78 -94q0 -26 16.5 -33.5t56.5 -7.5q34 0 87.5 7t60.5 7q13 0 16.5 -4.5
t3.5 -19.5v-150z" />
    <glyph glyph-name="tilde" unicode="&#x2dc;" horiz-adv-x="1024" 
d="M956 1554q0 -148 -74.5 -211t-219.5 -63q-27 0 -73 12t-79 29l-80 41q-49 24 -76 24q-28 0 -28 -26v-33q0 -35 -37 -35h-199q-37 0 -37 35v33q0 146 76.5 210t220.5 64q28 0 73 -11t77 -28l80 -41q53 -26 77 -26q27 0 27 28v33q0 35 37 35h199q36 0 36 -35v-35z" />
    <glyph glyph-name="hungarumlaut" unicode="&#x2dd;" horiz-adv-x="1024" 
d="M1122 1581q0 -6 -10 -16l-266 -244q-9 -9 -13 -12t-13.5 -6t-24.5 -3h-308q-18 0 -18 15q0 12 8 20l182 230q14 18 25 24t35 6h379q24 0 24 -14zM549 1581q0 -6 -10 -16l-267 -244q-9 -9 -13 -12t-13.5 -6t-24.5 -3h-307q-18 0 -18 15q0 12 8 20l182 230q14 18 24.5 24
t34.5 6h379q25 0 25 -14z" />
    <glyph glyph-name="uni03A9" unicode="&#x3a9;" horiz-adv-x="1501" 
d="M1399 856q0 -399 -279 -516v-12h219q12 0 20.5 -9t8.5 -20v-270q0 -11 -8.5 -20t-20.5 -9h-559q-12 0 -21 9t-9 20v481q0 9 6.5 18.5t15.5 12.5q63 17 88 82.5t25 193.5v103q0 117 -39.5 166t-124.5 49t-123.5 -48.5t-38.5 -166.5v-103q0 -129 24 -194t87 -82
q9 -3 15.5 -12.5t6.5 -18.5v-481q0 -11 -9 -20t-21 -9h-560q-12 0 -21 9t-9 20v270q0 11 9 20t21 9h220v12q-146 60 -212.5 187.5t-66.5 328.5v98q0 311 171 454.5t507 143.5q337 0 507.5 -143.5t170.5 -454.5v-98z" />
    <glyph glyph-name="uni03BC" unicode="&#x3bc;" horiz-adv-x="1335" 
d="M1233 94q0 -28 -16 -44t-66 -27q-191 -43 -481 -43q-56 0 -109 6v-332q0 -17 -12 -29t-29 -12h-377q-17 0 -29 12t-12 29v1509q0 19 12 32t31 13h367q19 0 32 -13t13 -32v-735q0 -39 29 -60.5t82 -21.5q64 0 108 6v811q0 19 11.5 32t29.5 13h369q19 0 33 -13t14 -32
v-1069z" />
    <glyph glyph-name="pi" unicode="&#x3c0;" horiz-adv-x="1587" 
d="M1481 801h-4q13 0 21 4t11 12.5t3.5 14t0.5 16.5v301q0 16 -1 23.5t-8.5 15.5t-22.5 8h-1368q-15 0 -24 -3.5t-12 -11.5t-4 -14t-1 -18v-301q0 -14 1 -22t10 -16.5t26 -8.5h106v-752q0 -30 13.5 -39.5t35.5 -9.5h379q51 0 51 49v750h197v-420q0 -118 24.5 -197t78 -127
t132 -68t193.5 -20q92 0 164 10q20 3 26.5 13t6.5 33v210q0 26 -6.5 34.5t-26.5 8.5h-17q-57 0 -76.5 21t-19.5 82v422h111z" />
    <glyph glyph-name="Wgrave" unicode="&#x1e80;" horiz-adv-x="1935" 
d="M1882 1503v-4l-192 -1370q-12 -83 -51.5 -116t-114.5 -33h-211q-73 0 -108.5 29.5t-61.5 103.5l-158 467q-6 22 -18 22q-13 0 -19 -22l-157 -467q-26 -74 -61.5 -103.5t-108.5 -29.5h-211q-75 0 -114.5 33t-51.5 116l-193 1370v4q0 19 31 19h420q24 0 28 -41l84 -723
q7 -23 15 -25q11 0 18 25l92 272q14 44 38 61t77 17h225q53 0 77 -17t38 -61l92 -272q7 -25 17 -25q12 0 16 25l84 723q4 41 29 41h419q31 0 31 -19zM1202 1640q0 -14 -18 -14h-307q-21 0 -30.5 4.5t-21.5 16.5l-266 243q-10 10 -10 17q0 14 24 14h379q23 0 34 -6t26 -25
l182 -229q8 -8 8 -21z" />
    <glyph glyph-name="wgrave" unicode="&#x1e81;" horiz-adv-x="1839" 
d="M1794 1182v-4l-190 -1028q-12 -61 -25.5 -95.5t-38.5 -51t-48.5 -20t-72.5 -3.5h-192q-85 0 -119.5 29t-69.5 130l-100 295q-6 19 -18 19q-13 0 -19 -19l-100 -295q-35 -101 -69.5 -130t-119.5 -29h-192q-39 0 -59.5 2t-43.5 10.5t-35.5 27t-24.5 50t-21 80.5l-191 1028
v4q0 10 10 18t21 8h407q25 0 29 -32l78 -611q2 -12 5 -13q2 -1 7 -1q16 0 21 14l100 283q15 43 34 58.5t60 15.5h205q41 0 60 -15.5t34 -58.5l101 -283q5 -14 20 -14q5 0 7.5 1t2.5 2t1 6q1 3 1 5l78 611q4 32 29 32h407q11 0 21 -8t10 -18zM1126 1315q0 -15 -18 -15h-307
q-21 0 -30 4.5t-21 16.5l-267 244q-10 10 -10 16q0 14 25 14h379q24 0 34.5 -6t24.5 -24l182 -230q8 -8 8 -20z" />
    <glyph glyph-name="Wacute" unicode="&#x1e82;" horiz-adv-x="1935" 
d="M1882 1503v-4l-192 -1370q-12 -83 -51.5 -116t-114.5 -33h-211q-73 0 -108.5 29.5t-61.5 103.5l-158 467q-6 22 -18 22q-13 0 -19 -22l-157 -467q-26 -74 -61.5 -103.5t-108.5 -29.5h-211q-75 0 -114.5 33t-51.5 116l-193 1370v4q0 19 31 19h420q24 0 28 -41l84 -723
q7 -23 15 -25q11 0 18 25l92 272q14 44 38 61t77 17h225q53 0 77 -17t38 -61l92 -272q7 -25 17 -25q12 0 16 25l84 723q4 41 29 41h419q31 0 31 -19zM1436 1907q0 -6 -11 -17l-266 -243q-9 -9 -13 -12t-13.5 -6t-24.5 -3h-307q-19 0 -19 14q0 12 9 21l182 229q15 19 25.5 25
t33.5 6h379q25 0 25 -14z" />
    <glyph glyph-name="wacute" unicode="&#x1e83;" horiz-adv-x="1839" 
d="M1794 1182v-4l-190 -1028q-12 -61 -25.5 -95.5t-38.5 -51t-48.5 -20t-72.5 -3.5h-192q-85 0 -119.5 29t-69.5 130l-100 295q-6 19 -18 19q-13 0 -19 -19l-100 -295q-35 -101 -69.5 -130t-119.5 -29h-192q-39 0 -59.5 2t-43.5 10.5t-35.5 27t-24.5 50t-21 80.5l-191 1028
v4q0 10 10 18t21 8h407q25 0 29 -32l78 -611q2 -12 5 -13q2 -1 7 -1q16 0 21 14l100 283q15 43 34 58.5t60 15.5h205q41 0 60 -15.5t34 -58.5l101 -283q5 -14 20 -14q5 0 7.5 1t2.5 2t1 6q1 3 1 5l78 611q4 32 29 32h407q11 0 21 -8t10 -18zM1391 1581q0 -5 -11 -16
l-266 -244q-9 -9 -13 -12t-13.5 -6t-24.5 -3h-307q-19 0 -19 15q0 12 8 20l183 230q14 18 24.5 24t34.5 6h379q25 0 25 -14z" />
    <glyph glyph-name="Wdieresis" unicode="&#x1e84;" horiz-adv-x="1935" 
d="M1882 1503v-4l-192 -1370q-12 -83 -51.5 -116t-114.5 -33h-211q-73 0 -108.5 29.5t-61.5 103.5l-158 467q-6 22 -18 22q-13 0 -19 -22l-157 -467q-26 -74 -61.5 -103.5t-108.5 -29.5h-211q-75 0 -114.5 33t-51.5 116l-193 1370v4q0 19 31 19h420q24 0 28 -41l84 -723
q7 -23 15 -25q11 0 18 25l92 272q14 44 38 61t77 17h225q53 0 77 -17t38 -61l92 -272q7 -25 17 -25q12 0 16 25l84 723q4 41 29 41h419q31 0 31 -19zM1391 1669q0 -18 -14.5 -30.5t-33.5 -12.5h-284q-19 0 -33 12.5t-14 30.5v209q0 18 14 30.5t33 12.5h284q19 0 33.5 -12.5
t14.5 -30.5v-209zM920 1669q0 -18 -14.5 -30.5t-33.5 -12.5h-284q-19 0 -33 12.5t-14 30.5v209q0 18 14 30.5t33 12.5h284q19 0 33.5 -12.5t14.5 -30.5v-209z" />
    <glyph glyph-name="wdieresis" unicode="&#x1e85;" horiz-adv-x="1839" 
d="M1794 1182v-4l-190 -1028q-12 -61 -25.5 -95.5t-38.5 -51t-48.5 -20t-72.5 -3.5h-192q-85 0 -119.5 29t-69.5 130l-100 295q-6 19 -18 19q-13 0 -19 -19l-100 -295q-35 -101 -69.5 -130t-119.5 -29h-192q-39 0 -59.5 2t-43.5 10.5t-35.5 27t-24.5 50t-21 80.5l-191 1028
v4q0 10 10 18t21 8h407q25 0 29 -32l78 -611q2 -12 5 -13q2 -1 7 -1q16 0 21 14l100 283q15 43 34 58.5t60 15.5h205q41 0 60 -15.5t34 -58.5l101 -283q5 -14 20 -14q5 0 7.5 1t2.5 2t1 6q1 3 1 5l78 611q4 32 29 32h407q11 0 21 -8t10 -18zM1346 1343q0 -18 -14.5 -30.5
t-33.5 -12.5h-284q-19 0 -33 12.5t-14 30.5v209q0 18 14 30.5t33 12.5h284q19 0 33.5 -12.5t14.5 -30.5v-209zM874 1343q0 -18 -14 -30.5t-33 -12.5h-284q-19 0 -33 12.5t-14 30.5v209q0 18 14 30.5t33 12.5h284q19 0 33 -12.5t14 -30.5v-209z" />
    <glyph glyph-name="Ygrave" unicode="&#x1ef2;" horiz-adv-x="1452" 
d="M1423 1495q0 -10 -2 -14l-301 -705q-64 -150 -153 -188v-547q0 -17 -13 -29t-30 -12h-400q-17 0 -29 12t-12 29v547q-89 38 -153 188l-299 705q-4 8 -4 14q0 11 8 19t20 8h443q27 0 43 -41l172 -508q3 -12 12 -12t12 12l174 508q16 41 43 41h441q13 0 20.5 -8t7.5 -19z
M958 1640q0 -14 -18 -14h-307q-21 0 -30 4.5t-21 16.5l-267 243q-10 10 -10 17q0 14 25 14h379q23 0 33.5 -6t25.5 -25l182 -229q8 -8 8 -21z" />
    <glyph glyph-name="ygrave" unicode="&#x1ef3;" horiz-adv-x="1343" 
d="M1313 1174q0 -1 -1 -4.5t-1 -4.5l-350 -1228q-20 -69 -43.5 -120.5t-63 -98.5t-92.5 -76t-131.5 -46.5t-179.5 -17.5q-70 0 -167.5 13t-140.5 30q-16 5 -23.5 8.5t-15.5 12t-8 20.5v234q0 17 14 31t31 14h2q215 -15 308 -15q68 0 81 47l19 70h-27q-46 0 -70.5 5.5
t-52 28.5t-49.5 71t-47 131l-272 886q-2 4 -2 15q0 28 47 28h401q34 0 41 -43l139 -639q7 -28 19 -28h14l131 667q3 18 15 30.5t30 12.5h400q16 0 30.5 -10t14.5 -24zM885 1315q0 -15 -19 -15h-307q-21 0 -30 4.5t-21 16.5l-266 244q-11 11 -11 16q0 14 25 14h379
q24 0 34.5 -6t24.5 -24l183 -230q8 -8 8 -20z" />
    <glyph glyph-name="endash" unicode="&#x2013;" horiz-adv-x="694" 
d="M725 500q0 -17 -12 -29t-29 -12h-674q-17 0 -29 12t-12 29v217q0 17 12 29t29 12h674q17 0 29 -12t12 -29v-217z" />
    <glyph glyph-name="emdash" unicode="&#x2014;" horiz-adv-x="1355" 
d="M1386 500q0 -17 -11.5 -29t-28.5 -12h-1336q-17 0 -29 12t-12 29v217q0 17 12 29t29 12h1336q17 0 28.5 -12t11.5 -29v-217z" />
    <glyph glyph-name="quoteleft" unicode="&#x2018;" horiz-adv-x="593" 
d="M565 1575q0 -13 -2 -19l-125 -495q-11 -39 -41 -39h-346q-24 0 -24 22q0 5 4 17l180 495q8 21 16.5 30t22.5 9h297q18 0 18 -20z" />
    <glyph glyph-name="quoteright" unicode="&#x2019;" horiz-adv-x="593" 
d="M567 1573q0 -5 -4 -17l-180 -495q-8 -21 -16.5 -30t-22.5 -9h-297q-18 0 -18 20q0 13 2 19l125 495q11 39 41 39h346q24 0 24 -22z" />
    <glyph glyph-name="quotesinglbase" unicode="&#x201a;" horiz-adv-x="593" 
d="M584 365q0 -9 -2 -13l-230 -516q-16 -41 -41 -41h-260q-16 0 -28.5 10t-12.5 25v6l144 516q11 41 43 41h354q13 0 23 -8.5t10 -19.5z" />
    <glyph glyph-name="quotedblleft" unicode="&#x201c;" horiz-adv-x="1120" 
d="M1092 1575q0 -13 -2 -19l-125 -495q-11 -39 -41 -39h-346q-25 0 -25 22q0 5 4 17l180 495q8 21 16.5 30t22.5 9h297q19 0 19 -20zM565 1575q0 -13 -2 -19l-125 -495q-11 -39 -41 -39h-346q-24 0 -24 22q0 5 4 17l180 495q8 21 16.5 30t22.5 9h297q18 0 18 -20z" />
    <glyph glyph-name="quotedblright" unicode="&#x201d;" horiz-adv-x="1120" 
d="M1094 1573q0 -5 -4 -17l-181 -495q-8 -21 -16.5 -30t-22.5 -9h-297q-18 0 -18 20q0 13 2 19l125 495q11 39 41 39h346q25 0 25 -22zM567 1573q0 -5 -4 -17l-180 -495q-8 -21 -16.5 -30t-22.5 -9h-297q-18 0 -18 20q0 13 2 19l125 495q11 39 41 39h346q24 0 24 -22z" />
    <glyph glyph-name="quotedblbase" unicode="&#x201e;" horiz-adv-x="1120" 
d="M1135 365q0 -9 -2 -13l-230 -516q-16 -41 -41 -41h-260q-16 0 -28.5 10t-12.5 25v6l144 516q11 41 43 41h354q13 0 23 -8.5t10 -19.5zM561 365q0 -9 -2 -13l-229 -516q-16 -41 -41 -41h-260q-16 0 -28.5 10t-12.5 25v6l143 516q11 41 43 41h354q13 0 23 -8.5t10 -19.5z
" />
    <glyph glyph-name="dagger" unicode="&#x2020;" horiz-adv-x="962" 
d="M911 905q0 -15 -11 -24t-28 -9h-161v-843q0 -41 -33 -41h-393q-33 0 -33 41v843h-162q-17 0 -28 9t-11 24v307q0 31 39 31h162v313q0 16 9.5 27.5t25.5 11.5h391q14 0 23.5 -11.5t9.5 -27.5v-313h161q39 0 39 -31v-307z" />
    <glyph glyph-name="daggerdbl" unicode="&#x2021;" horiz-adv-x="962" 
d="M911 395q0 -15 -11 -24t-28 -9h-161v-333q0 -41 -33 -41h-393q-33 0 -33 41v333h-162q-17 0 -28 9t-11 24v307q0 31 39 31h162v139h-162q-17 0 -28 9t-11 24v307q0 31 39 31h162v313q0 16 9.5 27.5t25.5 11.5h391q14 0 23.5 -11.5t9.5 -27.5v-313h161q39 0 39 -31v-307
q0 -15 -11 -24t-28 -9h-161v-139h161q39 0 39 -31v-307z" />
    <glyph glyph-name="bullet" unicode="&#x2022;" horiz-adv-x="856" 
d="M784 752q0 -148 -104 -252.5t-252 -104.5t-252 104.5t-104 252.5t104 252t252 104t252 -104t104 -252z" />
    <glyph glyph-name="ellipsis" unicode="&#x2026;" horiz-adv-x="1818" 
d="M1737 41q0 -17 -13 -29t-30 -12h-357q-17 0 -30 12t-13 29v311q0 17 13 29t30 12h357q17 0 30 -12t13 -29v-311zM1130 41q0 -17 -13 -29t-30 -12h-356q-17 0 -30 12t-13 29v311q0 17 13 29t30 12h356q17 0 30 -12t13 -29v-311zM524 41q0 -17 -13 -29t-30 -12h-356
q-17 0 -30 12t-13 29v311q0 17 13 29t30 12h356q17 0 30 -12t13 -29v-311z" />
    <glyph glyph-name="perthousand" unicode="&#x2030;" horiz-adv-x="2572" 
d="M2501 356q0 -368 -324 -368t-324 368v123q0 185 82.5 277t241.5 92t241.5 -92t82.5 -277v-123zM1763 356q0 -368 -323 -368q-324 0 -324 368v123q0 185 82.5 277t241.5 92q323 0 323 -369v-123zM1530 1499q0 -11 -6 -20l-848 -1434q-11 -19 -16 -26.5t-14 -13t-21 -5.5
h-291q-12 0 -19.5 8t-7.5 19q0 12 4 18l848 1434q14 24 25.5 33.5t29.5 9.5h291q11 0 18 -7t7 -16zM719 1040q0 -368 -324 -368q-323 0 -323 368v123q0 369 323 369q159 0 241.5 -92t82.5 -277v-123zM2232 356v123q0 60 -7 92t-17.5 41t-30.5 9q-30 0 -43.5 -27.5
t-13.5 -114.5v-123q0 -87 13.5 -115t43.5 -28q29 0 42 27.5t13 115.5zM1495 356v123q0 60 -7 92t-17.5 41t-30.5 9q-30 0 -44 -27.5t-14 -114.5v-123q0 -87 14 -115t44 -28q29 0 42 27.5t13 115.5zM451 1040v123q0 60 -7 92t-18 41t-31 9q-30 0 -43.5 -27.5t-13.5 -114.5
v-123q0 -87 13.5 -115t43.5 -28q20 0 31 9t18 41.5t7 92.5z" />
    <glyph glyph-name="guilsinglleft" unicode="&#x2039;" horiz-adv-x="892" 
d="M842 137q0 -20 -25 -20h-358q-42 0 -58 20l-319 406q-31 39 -31 59q0 21 31 60l319 405q16 20 58 20h358q25 0 25 -20q0 -11 -13 -27l-340 -438l340 -438q13 -16 13 -27z" />
    <glyph glyph-name="guilsinglright" unicode="&#x203a;" horiz-adv-x="892" 
d="M842 602q0 -20 -31 -59l-319 -406q-16 -20 -58 -20h-358q-25 0 -25 20q0 12 12 27l340 438l-340 438q-12 15 -12 27q0 20 25 20h358q42 0 58 -20l319 -405q31 -39 31 -60z" />
    <glyph glyph-name="fraction" unicode="&#x2044;" horiz-adv-x="536" 
d="M881 1499q0 -9 -7 -20l-856 -1448q-12 -20 -20 -25.5t-23 -5.5h-290q-12 0 -19.5 8t-7.5 19q0 12 4 18l856 1446q11 19 19.5 25t27.5 6h291q12 0 18.5 -7t6.5 -16z" />
    <glyph glyph-name="n.superior" unicode="&#x207f;" horiz-adv-x="780" 
d="M702 743q0 -11 -8 -19.5t-18 -8.5h-201q-12 0 -21.5 8.5t-9.5 19.5v387q0 52 -53 52q-30 0 -57 -15v-424q0 -11 -7.5 -19.5t-19.5 -8.5h-201q-10 0 -19 8.5t-9 19.5v615q0 11 7 18.5t19 7.5h183q11 0 18.5 -8t7.5 -18v-23q40 32 78 46t103 14q61 0 103 -21t64 -59.5
t31.5 -83t9.5 -101.5v-387z" />
    <glyph glyph-name="franc" unicode="&#x20a3;" horiz-adv-x="1208" 
d="M41 461h61v602q0 88 17.5 159t46.5 120t72.5 85.5t89 58t103.5 34.5t109.5 17.5t112.5 4.5q227 0 412 -22q18 -2 29.5 -13t11.5 -28v-310q0 -17 -12 -29t-29 -12h-412q-39 0 -53 -13.5t-14 -51.5v-111h479q17 0 29 -12t12 -29v-288q0 -17 -12 -29t-29 -12h-479v-121h143
q17 0 29 -12t12 -29v-166q0 -17 -12 -29t-29 -12h-143v-172q0 -17 -12 -29t-29 -12h-400q-17 0 -30 12t-13 29v172h-61q-17 0 -29 12t-12 29v166q0 17 12 29t29 12z" />
    <glyph glyph-name="lira" unicode="&#x20a4;" 
d="M1241 41q0 -17 -12 -29t-29 -12h-969q-17 0 -29 12t-12 29v225q0 8 1 14t1.5 9.5t3 8t3.5 6t6 7.5t6 8q20 21 40.5 69t20.5 85v27h-98q-17 0 -29 12t-12 29v114q0 17 12 29t29 12h98v80h-98q-17 0 -29 12t-12 29v115q0 17 12 29t29 12h98v18q0 156 36 263t111 170
t180 90.5t253 27.5q174 0 346 -35q27 -6 35 -15t8 -30v-323q0 -37 -35 -37h-6q-14 1 -89.5 7.5t-138.5 10.5t-120 4q-73 0 -95 -22.5t-22 -102.5v-26h279q17 0 29 -12t12 -29v-115q0 -17 -12 -29t-29 -12h-279v-80h279q17 0 29 -12t12 -29v-114q0 -17 -12 -29t-29 -12h-279
v-27q0 -56 -24 -102h489q17 0 29 -12t12 -29v-289z" />
    <glyph glyph-name="peseta" unicode="&#x20a7;" horiz-adv-x="3414" 
d="M1368 993q0 -123 -41 -218.5t-105.5 -154t-153 -96t-174.5 -51.5t-179 -14q-11 0 -125 4v-422q0 -17 -12 -29t-29 -12h-393q-43 0 -43 33v1310q0 93 29 127t114 48q153 24 449 24q97 0 184.5 -13.5t177.5 -51t154.5 -95.5t105.5 -154t41 -220v-15zM889 993v15
q0 67 -46 99t-128 32h-125v-277h125q80 0 127 33.5t47 97.5zM2269 918q0 -19 -12.5 -32.5t-30.5 -13.5h-147v-501q0 -34 8 -47t35 -13h98q19 0 31 -12t12 -31v-223q0 -38 -43 -45q-117 -20 -217 -20q-86 0 -151 17.5t-119.5 60.5t-83.5 123.5t-29 197.5v493l-117 21
q-20 3 -32.5 15t-12.5 30v227q0 19 13 31t32 12h117v168q0 36 45 43l369 64q45 8 45 -43v-232h147q19 0 31 -12t12 -31v-247zM3332 369q0 -84 -30 -153.5t-90.5 -123t-161 -83t-232.5 -29.5q-222 0 -383 53q-39 14 -39 45v256q0 56 53 47q263 -39 357 -39q41 0 56 9t15 32
q0 24 -47 47l-233 119q-107 54 -157 136.5t-50 205.5q0 162 120 250t361 88q193 0 391 -55q43 -11 43 -44v-266q0 -22 -10.5 -34.5t-32.5 -8.5q-50 10 -178.5 23.5t-185.5 13.5q-43 0 -43 -24q0 -16 27 -29l225 -111q225 -110 225 -325z" />
    <glyph glyph-name="Euro" unicode="&#x20ac;" 
d="M1214 63q0 -20 -8 -28t-35 -17q-109 -38 -268 -38q-292 0 -454 140.5t-195 411.5h-74q-17 0 -29 12t-12 29v97q0 17 12 29t29 12h66v104h-66q-17 0 -29 12t-12 29v96q0 17 12 29t29 12h74q69 549 649 549q157 0 268 -39q27 -9 35 -17t8 -28v-297q0 -37 -32 -37h-8
q-23 3 -56 6.5t-48.5 5.5t-39.5 4t-48 2.5t-56 0.5q-70 0 -111.5 -33.5t-62.5 -116.5h311q21 0 32 -8.5t11 -21.5q0 -2 -1 -5.5t-1 -5.5l-25 -96q-6 -26 -14 -33.5t-27 -7.5h-303v-104h269q21 0 32 -9.5t11 -23.5q0 -1 -1.5 -4t-1.5 -4l-22 -97q-11 -41 -41 -41h-231
q18 -153 174 -153q92 0 250 18h8q32 0 32 -37v-297z" />
    <glyph glyph-name="afii61289" unicode="&#x2113;" horiz-adv-x="1265" 
d="M1169 125q8 -20 4 -32t-22 -21q-41 -22 -92.5 -43.5t-149 -44.5t-190.5 -23q-223 0 -316.5 109.5t-93.5 369.5v35l-119 -67q-23 -14 -36 8l-66 108q-14 24 8 37l213 121v528q0 218 108 325t331 107q119 0 206 -27t136 -75.5t71.5 -108t22.5 -131.5q0 -73 -22.5 -146.5
t-70 -150t-130 -152.5t-193.5 -142v-236q0 -160 127 -160q44 0 139 31q21 9 31 6.5t18 -22.5zM989 1300q0 150 -102 150q-27 0 -47 -7.5t-33 -24t-21 -35t-12 -49t-5 -57t-1 -67.5v-282q59 40 104 92.5t69.5 103.5t36 95.5t11.5 80.5z" />
    <glyph glyph-name="trademark" unicode="&#x2122;" horiz-adv-x="1767" 
d="M1686 721q0 -9 -7 -15t-16 -6h-223q-9 0 -16 6t-7 15v479v6q0 61 -11 74.5t-69 13.5v-573q0 -9 -6.5 -15t-15.5 -6h-223q-9 0 -16 6t-7 15v573q-20 0 -82 -4v-569q0 -9 -6.5 -15t-15.5 -6h-222q-9 0 -16.5 6t-7.5 15v700q0 52 16.5 72t61.5 23q200 16 405 16q78 0 133 -3
t109.5 -11.5t90 -23.5t66.5 -39.5t48.5 -60t27 -83.5t9.5 -111v-479zM662 1327q0 -9 -7 -15.5t-16 -6.5h-143v-584q0 -9 -6 -15t-15 -6h-233q-9 0 -16 6t-7 15v584h-145q-9 0 -16 6.5t-7 15.5v172q0 9 7 16t16 7h565q9 0 16 -7t7 -16v-172z" />
    <glyph glyph-name="Omega" unicode="&#x2126;" horiz-adv-x="1501" 
d="M1399 856q0 -399 -279 -516v-12h219q12 0 20.5 -9t8.5 -20v-270q0 -11 -8.5 -20t-20.5 -9h-559q-12 0 -21 9t-9 20v481q0 9 6.5 18.5t15.5 12.5q63 17 88 82.5t25 193.5v103q0 117 -39.5 166t-124.5 49t-123.5 -48.5t-38.5 -166.5v-103q0 -129 24 -194t87 -82
q9 -3 15.5 -12.5t6.5 -18.5v-481q0 -11 -9 -20t-21 -9h-560q-12 0 -21 9t-9 20v270q0 11 9 20t21 9h220v12q-146 60 -212.5 187.5t-66.5 328.5v98q0 311 171 454.5t507 143.5q337 0 507.5 -143.5t170.5 -454.5v-98z" />
    <glyph glyph-name="estimated" unicode="&#x212e;" horiz-adv-x="1241" 
d="M1182 578h-879v-396q135 -129 311 -129q67 0 124.5 14.5t99.5 36.5t81 58t66.5 70t58.5 81l64 -39q-43 -67 -87 -115.5t-103 -89.5t-135 -62t-169 -21q-163 0 -291 81.5t-196 216.5t-68 296q0 164 67 298t197 215t300 81q169 0 298 -82.5t195 -217t66 -296.5zM936 645
v334q-59 54 -143.5 90.5t-169.5 36.5q-196 0 -320 -127v-334h633z" />
    <glyph glyph-name="onethird" unicode="&#x2153;" horiz-adv-x="1753" 
d="M1417 1499q0 -11 -6 -20l-856 -1448q-12 -20 -20 -25.5t-23 -5.5h-291q-12 0 -19 8t-7 19q0 12 4 18l856 1446q11 19 19.5 25t27.5 6h291q24 0 24 -23zM496 707q0 -9 -7 -16t-16 -7h-240q-9 0 -15.5 7t-6.5 16v542l-115 -45q-12 -4 -14 -4q-10 0 -10 14v201q0 18 16 23
l182 78q12 6 25 6h178q9 0 16 -7t7 -16v-792zM1681 242q0 -252 -315 -252q-60 0 -142.5 13t-127.5 36q-21 13 -21 27v129q0 13 8.5 21.5t22.5 8.5h2q142 -10 235 -10q68 0 68 51t-53 51h-189q-13 0 -22.5 9.5t-9.5 23.5v142q0 14 9.5 23t22.5 9h174q35 0 51.5 14.5
t16.5 36.5q0 48 -68 48q-70 0 -227 -11h-2q-12 0 -21.5 9t-9.5 22v129q0 19 29 31q36 18 110.5 31.5t143.5 13.5q157 0 236 -55t79 -187q0 -114 -94 -180q94 -57 94 -184z" />
    <glyph glyph-name="twothirds" unicode="&#x2154;" horiz-adv-x="1925" 
d="M1589 1499q0 -11 -6 -20l-856 -1448q-12 -20 -20 -25.5t-23 -5.5h-291q-12 0 -19 8t-7 19q0 12 4 18l856 1446q11 19 19.5 25t27.5 6h291q24 0 24 -23zM1853 242q0 -252 -315 -252q-60 0 -142.5 13t-127.5 36q-21 13 -21 27v129q0 13 8.5 21.5t22.5 8.5h2
q142 -10 236 -10q39 0 53 13.5t14 37.5q0 51 -53 51h-189q-13 0 -22.5 9.5t-9.5 23.5v142q0 14 9.5 23t22.5 9h175q34 0 50.5 14.5t16.5 36.5q0 48 -67 48q-71 0 -228 -11h-2q-12 0 -21.5 9t-9.5 22v129q0 19 29 31q36 18 110.5 31.5t143.5 13.5q157 0 236 -55t79 -187
q0 -114 -94 -180q94 -57 94 -184zM680 1307q0 -86 -52 -147.5t-139 -112.5q-2 -1 -28 -17t-37.5 -24t-32 -23t-34 -30t-21.5 -31h299q13 0 23 -9t10 -22v-176q0 -13 -10 -22t-23 -9h-531q-12 0 -22 9t-10 22v121q0 121 55.5 204t148.5 146q24 17 49.5 34t39.5 26.5t22 15.5
t11.5 10.5t4 8t0.5 11.5q0 15 -14 20t-65 5q-73 0 -209 -12h-2q-13 0 -22 10t-9 22v127q0 20 29 31q122 47 260 47q164 0 236.5 -57.5t72.5 -177.5z" />
    <glyph glyph-name="oneeighth" unicode="&#x215b;" horiz-adv-x="1757" 
d="M1417 1499q0 -11 -6 -20l-856 -1448q-12 -20 -20 -25.5t-23 -5.5h-291q-12 0 -19 8t-7 19q0 12 4 18l856 1446q11 19 19.5 25t27.5 6h291q24 0 24 -23zM496 707q0 -9 -7 -16t-16 -7h-240q-9 0 -15.5 7t-6.5 16v542l-115 -45q-12 -4 -14 -4q-10 0 -10 14v201q0 18 16 23
l182 78q12 6 25 6h178q9 0 16 -7t7 -16v-792zM1686 238q0 -109 -80 -179.5t-240 -70.5h-14q-161 0 -240.5 70.5t-79.5 179.5v22q0 104 84 172q-78 63 -78 156v28q0 108 76 170t238 62h14q161 0 237 -62.5t76 -169.5v-28q0 -93 -77 -156q84 -68 84 -172v-22zM1427 580v8
q0 26 -14.5 46.5t-46.5 20.5h-14q-33 0 -47.5 -20t-14.5 -47v-8q0 -31 17 -47.5t45 -16.5h14q26 0 43.5 16.5t17.5 47.5zM1427 252v12q0 78 -61 78h-14q-64 0 -64 -78v-12q0 -32 17.5 -52t46.5 -20h14q29 0 45 19.5t16 52.5z" />
    <glyph glyph-name="threeeighths" unicode="&#x215c;" horiz-adv-x="1859" 
d="M1520 1499q0 -9 -7 -20l-856 -1448q-12 -20 -20 -25.5t-23 -5.5h-290q-12 0 -19.5 8t-7.5 19q0 12 4 18l856 1446q11 19 19.5 25t27.5 6h291q11 0 18 -7t7 -16zM1788 238q0 -109 -80 -179.5t-240 -70.5h-14q-161 0 -240 70t-79 180v22q0 104 84 172q-78 63 -78 156v28
q0 108 75.5 170t237.5 62h14q161 0 237.5 -62.5t76.5 -169.5v-28q0 -93 -78 -156q84 -68 84 -172v-22zM1530 580v8q0 26 -15 46.5t-47 20.5h-14q-33 0 -47 -20t-14 -47v-8q0 -31 17 -47.5t44 -16.5h14q26 0 44 16.5t18 47.5zM1530 252v12q0 78 -62 78h-14q-63 0 -63 -78v-12
q0 -33 17 -52.5t46 -19.5h14q29 0 45.5 19.5t16.5 52.5zM678 936q0 -252 -316 -252q-60 0 -142.5 13t-127.5 36q-20 12 -20 27v129q0 14 8.5 22.5t21.5 8.5h2q157 -11 236 -11q68 0 68 52q0 51 -54 51h-188q-14 0 -23.5 9.5t-9.5 22.5v142q0 14 9.5 23.5t23.5 9.5h174
q35 0 51.5 14.5t16.5 36.5q0 47 -68 47q-85 0 -227 -10h-2q-12 0 -21.5 8.5t-9.5 21.5v129q0 19 29 31q36 18 110 31.5t143 13.5q158 0 237 -55t79 -187q0 -114 -94 -180q94 -57 94 -184z" />
    <glyph glyph-name="fiveeighths" unicode="&#x215d;" horiz-adv-x="1845" 
d="M1505 1499q0 -11 -6 -20l-856 -1448q-12 -20 -20 -25.5t-23 -5.5h-291q-12 0 -19 8t-7 19q0 12 4 18l856 1446q11 19 19.5 25t27.5 6h291q24 0 24 -23zM1774 238q0 -109 -80 -179.5t-240 -70.5h-14q-161 0 -240.5 70.5t-79.5 179.5v22q0 104 84 172q-78 63 -78 156v28
q0 108 76 170t238 62h14q161 0 237 -62.5t76 -169.5v-28q0 -93 -77 -156q84 -68 84 -172v-22zM1516 580v8q0 26 -15 46.5t-47 20.5h-14q-33 0 -47.5 -20t-14.5 -47v-8q0 -31 17 -47.5t45 -16.5h14q26 0 44 16.5t18 47.5zM1516 252v12q0 78 -62 78h-14q-64 0 -64 -78v-12
q0 -32 17.5 -52t46.5 -20h14q29 0 45.5 19.5t16.5 52.5zM664 958q0 -141 -89.5 -208.5t-244.5 -67.5q-129 0 -234 43q-24 8 -24 23v135q0 9 6.5 15.5t15.5 6.5h2q23 -3 92 -7.5t82 -4.5q78 0 100.5 13.5t22.5 51.5v15q0 29 -16 43t-64 14h-219q-9 0 -15.5 6.5t-6.5 14.5v2
l34 456q0 9 7 16t16 7h494q9 0 15.5 -7t6.5 -16v-166q0 -9 -6.5 -15.5t-15.5 -6.5h-306l-8 -92h60q88 0 148 -19t91 -56t43.5 -80t12.5 -101v-15z" />
    <glyph glyph-name="seveneighths" unicode="&#x215e;" horiz-adv-x="1748" 
d="M1409 1499q0 -11 -6 -20l-856 -1448q-12 -20 -20 -25.5t-23 -5.5h-291q-12 0 -19.5 8t-7.5 19q0 12 4 18l857 1446q11 19 19.5 25t27.5 6h290q12 0 18.5 -7t6.5 -16zM1677 238q0 -109 -79.5 -179.5t-239.5 -70.5h-15q-161 0 -240 70t-79 180v22q0 104 84 172
q-78 63 -78 156v28q0 108 75.5 170t237.5 62h15q161 0 237 -62.5t76 -169.5v-28q0 -93 -78 -156q84 -68 84 -172v-22zM1419 580v8q0 26 -14.5 46.5t-46.5 20.5h-15q-33 0 -47 -20t-14 -47v-8q0 -31 17 -47.5t44 -16.5h15q26 0 43.5 16.5t17.5 47.5zM1419 252v12q0 78 -61 78
h-15q-63 0 -63 -78v-12q0 -33 17 -52.5t46 -19.5h15q29 0 45 19.5t16 52.5zM668 1374q0 -21 -15 -51l-303 -616q-9 -23 -22 -23h-240q-16 0 -16 12q0 7 2 11l305 604h-283q-9 0 -15.5 6.5t-6.5 15.5v166q0 9 6.5 16t15.5 7h549q9 0 16 -7t7 -16v-125z" />
    <glyph glyph-name="partialdiff" unicode="&#x2202;" horiz-adv-x="1368" 
d="M1296 891q0 -205 -41 -389q-63 -275 -221.5 -404t-429.5 -129q-260 0 -396 121t-136 348q0 91 16 189q24 137 80 233t140.5 149.5t184 77t226.5 23.5q50 0 135 -29q-10 48 -18 72q-15 48 -39.5 84.5t-66 69t-107 50t-152.5 17.5q-97 0 -190 -16q-16 -3 -23.5 4t-5.5 20
l20 197q1 7 2.5 12.5t3 9t5 6.5t5 4.5t6.5 3.5t6 2t7.5 1.5t7.5 1.5q122 25 248 25q236 0 402.5 -94t248.5 -262.5t82 -397.5zM805 651q0 58 -23.5 84.5t-76.5 26.5q-64 0 -99.5 -50t-50.5 -159q-10 -82 -10 -125q0 -61 23.5 -87t76.5 -26q61 0 96 49t52 160q12 74 12 127z
" />
    <glyph glyph-name="Delta" unicode="&#x2206;" horiz-adv-x="1466" 
d="M72 0q-19 0 -26.5 12t-4.5 29l244 1237q15 77 51 129t95 81.5t131 41.5t171 12t171 -12t131 -41.5t95.5 -81.5t51.5 -129l243 -1237q0 -5 1 -14t-7 -18t-24 -9h-1323zM827 377l-75 747q-3 27 -19 27q-15 0 -18 -27l-76 -747h188z" />
    <glyph glyph-name="product" unicode="&#x220f;" horiz-adv-x="1640" 
d="M1569 1184q0 -62 -56 -62h-81v-1212q0 -62 -50 -62h-378q-31 0 -44.5 15t-13.5 49v1210h-252v-1210q0 -34 -13 -49t-44 -15h-379q-49 0 -49 62v1212h-82q-55 0 -55 62v284q0 54 45 54h1407q45 0 45 -54v-284z" />
    <glyph glyph-name="summation" unicode="&#x2211;" horiz-adv-x="1230" 
d="M1159 -102q0 -28 -9 -38t-36 -10h-1005q-17 0 -26 8t-10 16t-1 24v268q0 45 28 84l334 412q12 15 12 24.5t-12 24.5l-334 411q-28 39 -28 84v269q0 15 1 23t10 16t26 8h1005q27 0 36 -9.5t9 -37.5v-273q0 -23 -10 -33t-35 -10h-487q-8 0 -8.5 -8.5t4.5 -13.5l258 -330
q22 -25 22 -66v-110q0 -41 -22 -66l-258 -329q-5 -4 -4.5 -13.5t8.5 -9.5h487q25 0 35 -10t10 -33v-272z" />
    <glyph glyph-name="minus" unicode="&#x2212;" 
d="M1184 668q0 -33 -41 -33h-912q-41 0 -41 33v266q0 33 41 33h912q41 0 41 -33v-266z" />
    <glyph glyph-name="uni2215" unicode="&#x2215;" horiz-adv-x="536" 
d="M881 1499q0 -9 -7 -20l-856 -1448q-12 -20 -20 -25.5t-23 -5.5h-290q-12 0 -19.5 8t-7.5 19q0 12 4 18l856 1446q11 19 19.5 25t27.5 6h291q12 0 18.5 -7t6.5 -16z" />
    <glyph glyph-name="uni2219" unicode="&#x2219;" horiz-adv-x="606" 
d="M524 608q0 -17 -13 -29t-30 -12h-356q-17 0 -30 12t-13 29v312q0 17 13 29t30 12h356q17 0 30 -12t13 -29v-312z" />
    <glyph glyph-name="radical" unicode="&#x221a;" horiz-adv-x="1646" 
d="M1632 1737l-518 -1825q-8 -30 -21.5 -38.5t-41.5 -8.5h-516q-25 0 -38.5 10t-23.5 39l-211 748q-12 47 -49 47h-156q-47 0 -47 41v262q0 21 11.5 36t33.5 15h482q24 0 39.5 -10t23.5 -41l184 -690q3 -12 8.5 -12t8.5 12l381 1419q7 26 18.5 34.5t30.5 8.5h375
q40 0 26 -47z" />
    <glyph glyph-name="infinity" unicode="&#x221e;" horiz-adv-x="1226" 
d="M1186 754q0 -44 -1.5 -80t-9.5 -91.5t-21.5 -98.5t-40 -90.5t-62.5 -79t-92 -52t-125 -20.5h-13q-119 0 -211 82q-86 -86 -200 -86h-15q-354 0 -354 514v49q0 512 354 512h15q119 0 206 -80q73 82 205 82h13q352 0 352 -514v-47zM475 793q10 103 23 186q-41 51 -90 51
h-11q-16 0 -28 -9t-19 -28.5t-11.5 -38.5t-6 -50t-2 -50.5t-0.5 -52.5v-49q0 -33 0.5 -53t2 -51t6 -50t11.5 -38.5t19 -28.5t28 -9h11q26 0 38 55.5t29 215.5zM899 754v47q0 37 -0.5 59.5t-2.5 53t-6 48t-11 35t-18.5 25.5t-26.5 8h-9q-27 -1 -40 -60t-27 -196
q-10 -109 -29 -207q38 -45 94 -45h8q42 0 55 60.5t13 171.5z" />
    <glyph glyph-name="integral" unicode="&#x222b;" horiz-adv-x="1052" 
d="M981 1368q0 -18 -7.5 -23.5t-23.5 -5.5q-25 0 -58 1t-42 1q-56 0 -70 -15.5t-14 -72.5v-1306q0 -192 -91.5 -279.5t-277.5 -87.5q-156 0 -297 29q-19 4 -23.5 11t-4.5 26v194q0 18 7 23.5t23 5.5q25 0 58.5 -1t42.5 -1q56 0 70 15.5t14 70.5v1309q0 192 91 279t277 87
q156 0 297 -29q19 -4 24 -11t5 -25v-195z" />
    <glyph glyph-name="approxequal" unicode="&#x2248;" horiz-adv-x="1169" 
d="M1036 1145q0 -151 -66.5 -213t-207.5 -62q-92 0 -172 41l-80 41q-51 25 -76 25q-28 0 -28 -27v-32q0 -35 -37 -35h-199q-37 0 -37 35v32q0 148 68 211.5t209 63.5q94 0 170 -39l79 -41q55 -27 78 -27q27 0 27 29v33q0 34 37 34h198q37 0 37 -34v-35zM1036 674
q0 -151 -66.5 -213t-207.5 -62q-92 0 -172 41l-80 41q-51 25 -76 25q-28 0 -28 -27v-33q0 -34 -37 -34h-199q-37 0 -37 34v33q0 148 68 211.5t209 63.5q94 0 170 -39l79 -41q55 -27 78 -27q27 0 27 29v33q0 34 37 34h198q37 0 37 -34v-35z" />
    <glyph glyph-name="notequal" unicode="&#x2260;" 
d="M1028 1522q58 0 43 -43l-63 -222h135q41 0 41 -32v-267q0 -32 -41 -32h-230l-71 -250h301q41 0 41 -33v-266q0 -33 -41 -33h-398l-83 -299q-12 -45 -44 -45h-307q-23 0 -38.5 10t-8.5 35l84 299h-117q-41 0 -41 33v266q0 33 41 33h213l72 250h-285q-41 0 -41 32v267
q0 32 41 32h379l64 222q11 43 47 43h307z" />
    <glyph glyph-name="lessequal" unicode="&#x2264;" horiz-adv-x="1155" 
d="M1188 297q0 -9 -8 -16t-19 -7h-403q-34 0 -58 21l-483 446q-31 31 -31 60q0 28 31 59l483 447q23 20 58 20h403q11 0 19 -6.5t8 -15.5q0 -14 -14 -25l-525 -479l525 -479q14 -11 14 -25zM1184 -29q0 -32 -41 -32h-912q-41 0 -41 32v207q0 33 41 33h912q41 0 41 -33v-207z
" />
    <glyph glyph-name="greaterequal" unicode="&#x2265;" 
d="M1186 801q0 -29 -31 -60l-483 -446q-24 -21 -58 -21h-403q-11 0 -19 7t-8 16q0 13 15 25l524 479l-524 479q-15 12 -15 25q0 9 8 15.5t19 6.5h403q35 0 58 -20l483 -447q31 -31 31 -59zM1184 -29q0 -32 -41 -32h-912q-41 0 -41 32v207q0 33 41 33h912q41 0 41 -33v-207z
" />
    <glyph glyph-name="lozenge" unicode="&#x25ca;" horiz-adv-x="1320" 
d="M1227 727l-543 -659q-10 -14 -28.5 -14t-30.5 14l-535 659q-8 9 -8 23.5t8 23.5l537 670q12 14 31 14.5t30 -12.5l541 -670q9 -9 8 -24.5t-10 -24.5zM819 752l-164 206l-163 -206l163 -199z" />
    <glyph glyph-name="j.dotless" unicode="&#xe008;" horiz-adv-x="673" 
d="M563 1174q2 -4 2 -9v-1188q0 -115 -26.5 -196t-77 -126t-114.5 -65t-148 -20q-91 0 -217 22q-36 6 -43 37v9v221q0 19 12 31t31 12h84q18 0 27.5 11.5t11 24.5t1.5 39v1188q0 18 14.5 30.5t33.5 12.5h366q17 0 29.5 -9.5t13.5 -24.5z" />
    <glyph glyph-name="uni2014.alt" unicode="&#xe009;" horiz-adv-x="1355" 
d="M1264 500q0 -17 -12 -29t-29 -12h-1090q-17 0 -29 12t-12 29v217q0 17 12 29t29 12h1090q17 0 29 -12t12 -29v-217z" />
    <glyph glyph-name="zero.fitted" unicode="&#xf639;" 
d="M1274 649q0 -669 -588 -669t-588 669v223q0 337 149.5 503.5t438.5 166.5t438.5 -166.5t149.5 -503.5v-223zM788 649v223q0 109 -14 167.5t-34 74.5t-54 16t-54 -16t-34 -74.5t-14 -167.5v-223q0 -109 14 -167.5t34 -74.5t54 -16t54 16t34 74.5t14 167.5z" />
    <glyph glyph-name="two.fitted" unicode="&#xf63a;" 
d="M1239 1122q0 -80 -27.5 -150t-79.5 -127.5t-109.5 -102t-133.5 -89.5q-69 -41 -106.5 -64t-84 -56t-73.5 -63t-41 -62h587q17 0 30 -12t13 -29v-326q0 -17 -13 -29t-30 -12h-995q-17 0 -30 12t-13 29v225q0 93 21 174.5t53.5 142t84 118t101 97.5t115.5 85
q37 25 75.5 50.5t59.5 39t43.5 28t32.5 23t19.5 17.5t12.5 17.5t5 17.5t2 22q0 23 -9.5 34.5t-47 19t-113.5 7.5q-141 0 -395 -20h-3q-17 0 -27.5 11.5t-10.5 29.5v235q0 25 41 41q226 86 485 86q302 0 431.5 -103t129.5 -317z" />
    <glyph glyph-name="three.fitted" unicode="&#xf63b;" 
d="M1237 432q0 -239 -143.5 -345.5t-429.5 -106.5q-126 0 -271 26t-213 57q-2 1 -8.5 4t-9 4.5l-7.5 4.5t-7.5 5.5t-5.5 6t-4 7.5t-1 9v238q0 17 12 29t29 12h2q286 -21 443 -21q147 0 147 115q0 50 -29 82.5t-92 32.5h-354q-17 0 -29 12t-12 29v264q0 17 12 29t29 12h330
q71 0 107 33.5t36 83.5q0 104 -145 104q-62 0 -135 -3t-177 -9.5t-116 -7.5h-2q-17 0 -29 12t-12 29v237q0 5 1 9t4 7.5t5.5 6t7.5 5.5l7.5 4.5t9 4.5t8.5 4q70 32 207 58t262 26q143 0 246 -21.5t178 -71t112 -134t37 -205.5q0 -84 -27 -150.5t-65.5 -107.5t-97.5 -80
q190 -94 190 -340z" />
    <glyph glyph-name="four.fitted" unicode="&#xf63c;" 
d="M1294 332q0 -17 -12 -29t-29 -12h-102v-250q0 -17 -12 -29t-29 -12h-399q-17 0 -29 12t-12 29v250h-549q-17 0 -29 12t-12 29v266q0 31 20 57l680 856q11 11 27 11h303q17 0 29 -12t12 -29v-828h102q17 0 29 -12t12 -29v-280zM692 653v332l-262 -332h262z" />
    <glyph glyph-name="five.fitted" unicode="&#xf63d;" 
d="M1227 481q0 -104 -29.5 -187.5t-82.5 -142t-129 -97t-167.5 -56.5t-200.5 -18q-232 0 -425 75q-43 17 -43 41v246q0 46 43 41q46 -5 170 -13t147 -8q98 0 146.5 13t62.5 36t14 70v25q0 53 -29 78.5t-116 25.5h-398q-17 0 -30 12t-13 27v2l64 830q2 18 13 29.5t28 11.5
h899q17 0 29 -12t12 -29v-301q0 -17 -12 -29t-29 -12h-557l-14 -166h108q128 0 224 -24t155.5 -65t96 -102t50 -127t13.5 -149v-25z" />
    <glyph glyph-name="six.fitted" unicode="&#xf63e;" 
d="M1257 520q0 -253 -144.5 -396.5t-424.5 -143.5q-281 0 -427 142.5t-146 397.5v467q0 117 32 211.5t86 157.5t128 105.5t155.5 61.5t171.5 19q248 0 455 -63q27 -8 35 -21t8 -33v-254q0 -26 -11 -35t-36 -6q-232 29 -361 29q-54 0 -86.5 -6t-57.5 -24t-35.5 -52t-10.5 -90
v-10q94 14 151 14q518 0 518 -459v-12zM786 520v12q0 85 -24.5 114.5t-83.5 29.5q-50 0 -90 -6v-150q0 -105 26 -145.5t74 -40.5q47 0 72.5 41.5t25.5 144.5z" />
    <glyph glyph-name="seven.fitted" unicode="&#xf63f;" horiz-adv-x="1228" 
d="M1157 1253q0 -42 -24 -90l-551 -1122q-20 -41 -58 -41h-420q-32 0 -32 20q0 9 6 21l553 1098h-512q-17 0 -30 12t-13 29v301q0 17 13 29t30 12h997q17 0 29 -12t12 -29v-228z" />
    <glyph glyph-name="eight.fitted" unicode="&#xf640;" 
d="M1280 430q0 -75 -20.5 -140.5t-66 -123t-112.5 -98.5t-165 -64.5t-218 -23.5h-24q-120 0 -218 23.5t-165 64.5t-112.5 98.5t-66 123t-20.5 140.5v41q0 96 41 177t113 138q-144 110 -144 281v53q0 95 32 170.5t99 133t178.5 88t262.5 30.5h24q151 0 262.5 -30.5t178.5 -88
t99 -133t32 -170.5v-53q0 -171 -144 -281q72 -57 113 -138t41 -177v-41zM811 1053v16q0 49 -26.5 86t-86.5 37h-24q-60 0 -86.5 -37t-26.5 -86v-16q0 -56 32 -84.5t81 -28.5h24q49 0 81 28.5t32 84.5zM813 459v22q0 140 -115 140h-24q-115 0 -115 -140v-22q0 -60 30.5 -95.5
t84.5 -35.5h24q54 0 84.5 35.5t30.5 95.5z" />
    <glyph glyph-name="nine.fitted" unicode="&#xf641;" 
d="M1245 535q0 -117 -32 -211.5t-86 -157.5t-128 -105.5t-155.5 -61.5t-171.5 -19q-248 0 -455 63q-27 8 -35 20.5t-8 32.5v254q0 26 11 35t36 6q242 -29 361 -29q107 0 148.5 33t41.5 140v10q-101 -15 -151 -15q-519 0 -519 459v12q0 253 145 397t425 144q281 0 427 -143
t146 -398v-466zM772 852v149q0 105 -26 146t-74 41q-47 0 -73 -42t-26 -145v-12q0 -83 24 -113t75 -30q40 0 100 6z" />
    <glyph glyph-name="zero.taboldstyle" unicode="&#xf643;" 
d="M1274 629q0 -323 -150 -486t-438 -163t-438 163t-150 486v18q0 323 150 488t438 165t438 -165t150 -488v-18zM788 629v18q0 99 -13.5 154t-34 71.5t-54.5 16.5t-54.5 -16.5t-34 -71.5t-13.5 -154v-18q0 -99 13.5 -153t34 -69.5t54.5 -15.5t54.5 15.5t34 69.5t13.5 153z
" />
    </font>
</defs>
</svg>
